<?xml version="1.0" encoding="UTF-8"?>
<svg version="1.1" xmlns="http://www.w3.org/2000/svg" width="512" height="512">
<path d="M0 0 C9.01467459 6.54387508 14.67800552 14.98039214 17.07421875 25.89453125 C18.78106257 38.13672141 15.20012411 48.72438671 8.2890625 58.70703125 C2.70635211 64.28974164 -3.20480382 67.34725967 -10.4609375 70.45703125 C-10.7909375 85.63703125 -11.1209375 100.81703125 -11.4609375 116.45703125 C-7.1709375 117.11703125 -2.8809375 117.77703125 1.5390625 118.45703125 C4.50712084 119.55135515 6.99220415 120.55076767 9.7265625 122.01953125 C10.73481079 122.5467981 10.73481079 122.5467981 11.76342773 123.0847168 C25.04694812 130.31417987 32.98962582 140.97999176 37.91015625 155.14453125 C38.5390625 157.45703125 38.5390625 157.45703125 38.5390625 160.45703125 C39.09679352 160.45259003 39.65452454 160.4481488 40.22915649 160.443573 C46.10293989 160.39887508 51.97667397 160.36897489 57.85058594 160.34716797 C60.03452521 160.33719123 62.21845142 160.32360504 64.40234375 160.30615234 C90.34247587 160.1042374 114.98689909 162.58875124 134.53417969 181.39550781 C135.88322279 182.73531722 137.21183013 184.09561259 138.5390625 185.45703125 C139.53679687 186.44123047 139.53679687 186.44123047 140.5546875 187.4453125 C149.10689309 196.44053775 157.5390625 210.83380392 157.5390625 223.45703125 C158.41046875 223.410625 159.281875 223.36421875 160.1796875 223.31640625 C173.99367082 222.89780069 184.14341694 226.19277298 194.5390625 235.45703125 C203.69030821 245.20361822 207.85160345 255.7529048 207.8137207 268.99731445 C207.8213871 270.39389786 207.8213871 270.39389786 207.82920837 271.81869507 C207.8430531 274.8818005 207.84215122 277.94467959 207.83984375 281.0078125 C207.84373394 283.14861636 207.84806927 285.28941945 207.85282898 287.43022156 C207.86028053 291.91306054 207.86000794 296.39582076 207.85473633 300.87866211 C207.84894804 306.60480532 207.8658626 312.3306244 207.889081 318.05671406 C207.90386134 322.47755295 207.9046841 326.89831459 207.90157127 331.31917381 C207.90208248 333.42935006 207.90728236 335.53953086 207.91738319 337.649683 C207.92981155 340.60952006 207.92291727 343.56873626 207.91137695 346.52856445 C207.91902069 347.38863602 207.92666443 348.24870758 207.93453979 349.13484192 C207.83255832 361.05400966 203.25182896 372.0040834 195.26171875 380.83203125 C186.65402706 388.95175856 176.03785339 393.62831635 164.2890625 393.51953125 C163.02578125 393.51050781 161.7625 393.50148438 160.4609375 393.4921875 C159.49671875 393.48058594 158.5325 393.46898437 157.5390625 393.45703125 C157.4978125 394.48828125 157.4565625 395.51953125 157.4140625 396.58203125 C155.24736687 413.55448033 142.50449653 428.8197792 129.9765625 439.58203125 C125.82442475 442.75719541 121.48053725 445.30865107 116.8515625 447.70703125 C116.25335693 448.02430176 115.65515137 448.34157227 115.03881836 448.66845703 C100.74695645 455.70803597 86.54685478 456.0383894 70.9609375 455.97460938 C68.71707711 455.98003978 66.47322028 455.98716755 64.22937012 455.99584961 C58.17563516 456.01397655 52.12217501 456.00705947 46.06843567 455.99433327 C39.70935366 455.98415029 33.35029395 455.99361358 26.99121094 455.99987793 C15.63345312 456.007603 4.27583379 455.99523406 -7.08189631 455.97484058 C-17.35023186 455.95697304 -27.61838645 455.96007822 -37.88671875 455.97851562 C-49.85186887 455.99999014 -61.81690936 456.00785349 -73.78208542 455.99606657 C-80.10090219 455.98985584 -86.41959471 455.9889291 -92.73840332 456.00221252 C-98.68119101 456.01383461 -104.62363962 456.00562959 -110.56639099 455.9826355 C-112.73704976 455.97738225 -114.90773745 455.97880353 -117.0783844 455.98768616 C-132.35161672 456.04438651 -146.08328524 454.97817494 -159.8359375 447.64453125 C-160.50310791 447.2983374 -161.17027832 446.95214355 -161.85766602 446.59545898 C-167.20282018 443.74883093 -171.96921186 440.53723427 -176.4609375 436.45703125 C-177.19441406 435.81507813 -177.92789063 435.173125 -178.68359375 434.51171875 C-189.41445766 424.5355125 -199.4441582 409.36979426 -200.4609375 394.45703125 C-201.33234375 394.5034375 -202.20375 394.54984375 -203.1015625 394.59765625 C-218.02461164 395.04986986 -228.26436461 390.8590838 -239.26953125 380.8046875 C-245.53972725 374.14362214 -250.54295311 364.51487215 -250.61483765 355.2671051 C-250.62343811 354.43897812 -250.63203857 353.61085114 -250.64089966 352.75762939 C-250.64515961 351.85736023 -250.64941956 350.95709106 -250.65380859 350.02954102 C-250.66198608 349.07448166 -250.67016357 348.1194223 -250.67858887 347.13542175 C-250.70340718 343.97309995 -250.71995462 340.81082312 -250.734375 337.6484375 C-250.74236052 336.02339452 -250.74236052 336.02339452 -250.75050735 334.36552238 C-250.77723028 328.62528059 -250.79660334 322.88506042 -250.81103516 317.14477539 C-250.82434341 312.41052802 -250.85214029 307.67671482 -250.89306641 302.94262695 C-250.94259602 297.21264957 -250.9671818 291.48306429 -250.97426224 285.752882 C-250.98094292 283.57816221 -250.99608102 281.40345005 -251.02015305 279.22885323 C-251.20377417 261.62938882 -249.43187559 249.05101026 -236.87890625 235.78515625 C-228.89298842 228.24613893 -219.03687381 224.2942911 -208.2109375 224.39453125 C-206.31601563 224.40806641 -206.31601563 224.40806641 -204.3828125 224.421875 C-203.41859375 224.43347656 -202.454375 224.44507813 -201.4609375 224.45703125 C-201.3371875 223.77640625 -201.2134375 223.09578125 -201.0859375 222.39453125 C-198.34922901 209.53200134 -192.3456527 197.20630466 -183.4609375 187.45703125 C-182.38779297 186.24660156 -182.38779297 186.24660156 -181.29296875 185.01171875 C-166.70961201 169.45296621 -147.11577989 161.07442087 -125.84860229 160.37057495 C-122.99877496 160.34225388 -120.15070685 160.34439024 -117.30078125 160.359375 C-116.27030167 160.36078995 -115.23982208 160.3622049 -114.17811584 160.36366272 C-110.91819231 160.36921678 -107.65833993 160.38176055 -104.3984375 160.39453125 C-102.17513121 160.39955219 -99.95182383 160.40411406 -97.72851562 160.40820312 C-92.3059657 160.41917112 -86.88345669 160.43586285 -81.4609375 160.45703125 C-81.32300781 159.37204346 -81.18507812 158.28705566 -81.04296875 157.16918945 C-79.02431012 144.2943134 -69.83502709 133.33092592 -59.7734375 125.64453125 C-51.35996723 120.09242841 -42.36972754 117.69563 -32.4609375 116.45703125 C-32.4609375 100.94703125 -32.4609375 85.43703125 -32.4609375 69.45703125 C-34.1109375 69.12703125 -35.7609375 68.79703125 -37.4609375 68.45703125 C-47.31849165 63.87691364 -54.60816246 56.67946955 -58.4609375 46.45703125 C-61.70213965 36.08518437 -61.28797848 25.50122718 -56.8984375 15.51953125 C-51.18724197 5.03854605 -42.81123058 -1.40033912 -31.578125 -5.17578125 C-20.527569 -7.09229834 -9.57721897 -6.00476427 0 0 Z " fill="#28A2CC" transform="translate(250.4609375,56.54296875)"/>
<path d="M0 0 C9.01467459 6.54387508 14.67800552 14.98039214 17.07421875 25.89453125 C18.78106257 38.13672141 15.20012411 48.72438671 8.2890625 58.70703125 C2.70635211 64.28974164 -3.20480382 67.34725967 -10.4609375 70.45703125 C-10.7909375 85.63703125 -11.1209375 100.81703125 -11.4609375 116.45703125 C-7.1709375 117.11703125 -2.8809375 117.77703125 1.5390625 118.45703125 C4.50712084 119.55135515 6.99220415 120.55076767 9.7265625 122.01953125 C10.73481079 122.5467981 10.73481079 122.5467981 11.76342773 123.0847168 C25.04694812 130.31417987 32.98962582 140.97999176 37.91015625 155.14453125 C38.5390625 157.45703125 38.5390625 157.45703125 38.5390625 160.45703125 C39.09679352 160.45259003 39.65452454 160.4481488 40.22915649 160.443573 C46.10293989 160.39887508 51.97667397 160.36897489 57.85058594 160.34716797 C60.03452521 160.33719123 62.21845142 160.32360504 64.40234375 160.30615234 C90.34247587 160.1042374 114.98689909 162.58875124 134.53417969 181.39550781 C135.88322279 182.73531722 137.21183013 184.09561259 138.5390625 185.45703125 C139.53679687 186.44123047 139.53679687 186.44123047 140.5546875 187.4453125 C149.10689309 196.44053775 157.5390625 210.83380392 157.5390625 223.45703125 C158.41046875 223.410625 159.281875 223.36421875 160.1796875 223.31640625 C173.99367082 222.89780069 184.14341694 226.19277298 194.5390625 235.45703125 C203.69030821 245.20361822 207.85160345 255.7529048 207.8137207 268.99731445 C207.8213871 270.39389786 207.8213871 270.39389786 207.82920837 271.81869507 C207.8430531 274.8818005 207.84215122 277.94467959 207.83984375 281.0078125 C207.84373394 283.14861636 207.84806927 285.28941945 207.85282898 287.43022156 C207.86028053 291.91306054 207.86000794 296.39582076 207.85473633 300.87866211 C207.84894804 306.60480532 207.8658626 312.3306244 207.889081 318.05671406 C207.90386134 322.47755295 207.9046841 326.89831459 207.90157127 331.31917381 C207.90208248 333.42935006 207.90728236 335.53953086 207.91738319 337.649683 C207.92981155 340.60952006 207.92291727 343.56873626 207.91137695 346.52856445 C207.91902069 347.38863602 207.92666443 348.24870758 207.93453979 349.13484192 C207.83255832 361.05400966 203.25182896 372.0040834 195.26171875 380.83203125 C186.65402706 388.95175856 176.03785339 393.62831635 164.2890625 393.51953125 C163.02578125 393.51050781 161.7625 393.50148438 160.4609375 393.4921875 C159.49671875 393.48058594 158.5325 393.46898437 157.5390625 393.45703125 C157.4978125 394.48828125 157.4565625 395.51953125 157.4140625 396.58203125 C155.24736687 413.55448033 142.50449653 428.8197792 129.9765625 439.58203125 C125.82442475 442.75719541 121.48053725 445.30865107 116.8515625 447.70703125 C116.25335693 448.02430176 115.65515137 448.34157227 115.03881836 448.66845703 C100.74695645 455.70803597 86.54685478 456.0383894 70.9609375 455.97460938 C68.71707711 455.98003978 66.47322028 455.98716755 64.22937012 455.99584961 C58.17563516 456.01397655 52.12217501 456.00705947 46.06843567 455.99433327 C39.70935366 455.98415029 33.35029395 455.99361358 26.99121094 455.99987793 C15.63345312 456.007603 4.27583379 455.99523406 -7.08189631 455.97484058 C-17.35023186 455.95697304 -27.61838645 455.96007822 -37.88671875 455.97851562 C-49.85186887 455.99999014 -61.81690936 456.00785349 -73.78208542 455.99606657 C-80.10090219 455.98985584 -86.41959471 455.9889291 -92.73840332 456.00221252 C-98.68119101 456.01383461 -104.62363962 456.00562959 -110.56639099 455.9826355 C-112.73704976 455.97738225 -114.90773745 455.97880353 -117.0783844 455.98768616 C-132.35161672 456.04438651 -146.08328524 454.97817494 -159.8359375 447.64453125 C-160.50310791 447.2983374 -161.17027832 446.95214355 -161.85766602 446.59545898 C-167.20282018 443.74883093 -171.96921186 440.53723427 -176.4609375 436.45703125 C-177.19441406 435.81507813 -177.92789063 435.173125 -178.68359375 434.51171875 C-189.41445766 424.5355125 -199.4441582 409.36979426 -200.4609375 394.45703125 C-201.33234375 394.5034375 -202.20375 394.54984375 -203.1015625 394.59765625 C-218.02461164 395.04986986 -228.26436461 390.8590838 -239.26953125 380.8046875 C-245.53972725 374.14362214 -250.54295311 364.51487215 -250.61483765 355.2671051 C-250.62343811 354.43897812 -250.63203857 353.61085114 -250.64089966 352.75762939 C-250.64515961 351.85736023 -250.64941956 350.95709106 -250.65380859 350.02954102 C-250.66198608 349.07448166 -250.67016357 348.1194223 -250.67858887 347.13542175 C-250.70340718 343.97309995 -250.71995462 340.81082312 -250.734375 337.6484375 C-250.74236052 336.02339452 -250.74236052 336.02339452 -250.75050735 334.36552238 C-250.77723028 328.62528059 -250.79660334 322.88506042 -250.81103516 317.14477539 C-250.82434341 312.41052802 -250.85214029 307.67671482 -250.89306641 302.94262695 C-250.94259602 297.21264957 -250.9671818 291.48306429 -250.97426224 285.752882 C-250.98094292 283.57816221 -250.99608102 281.40345005 -251.02015305 279.22885323 C-251.20377417 261.62938882 -249.43187559 249.05101026 -236.87890625 235.78515625 C-228.89298842 228.24613893 -219.03687381 224.2942911 -208.2109375 224.39453125 C-206.31601563 224.40806641 -206.31601563 224.40806641 -204.3828125 224.421875 C-203.41859375 224.43347656 -202.454375 224.44507813 -201.4609375 224.45703125 C-201.3371875 223.77640625 -201.2134375 223.09578125 -201.0859375 222.39453125 C-198.34922901 209.53200134 -192.3456527 197.20630466 -183.4609375 187.45703125 C-182.38779297 186.24660156 -182.38779297 186.24660156 -181.29296875 185.01171875 C-166.70961201 169.45296621 -147.11577989 161.07442087 -125.84860229 160.37057495 C-122.99877496 160.34225388 -120.15070685 160.34439024 -117.30078125 160.359375 C-116.27030167 160.36078995 -115.23982208 160.3622049 -114.17811584 160.36366272 C-110.91819231 160.36921678 -107.65833993 160.38176055 -104.3984375 160.39453125 C-102.17513121 160.39955219 -99.95182383 160.40411406 -97.72851562 160.40820312 C-92.3059657 160.41917112 -86.88345669 160.43586285 -81.4609375 160.45703125 C-81.32300781 159.37204346 -81.18507812 158.28705566 -81.04296875 157.16918945 C-79.02431012 144.2943134 -69.83502709 133.33092592 -59.7734375 125.64453125 C-51.35996723 120.09242841 -42.36972754 117.69563 -32.4609375 116.45703125 C-32.4609375 100.94703125 -32.4609375 85.43703125 -32.4609375 69.45703125 C-34.1109375 69.12703125 -35.7609375 68.79703125 -37.4609375 68.45703125 C-47.31849165 63.87691364 -54.60816246 56.67946955 -58.4609375 46.45703125 C-61.70213965 36.08518437 -61.28797848 25.50122718 -56.8984375 15.51953125 C-51.18724197 5.03854605 -42.81123058 -1.40033912 -31.578125 -5.17578125 C-20.527569 -7.09229834 -9.57721897 -6.00476427 0 0 Z M-169.45703125 202.64453125 C-180.09798009 215.45943738 -182.92492918 230.23145164 -182.84912109 246.46850586 C-182.85319529 247.94817999 -182.85854189 249.42785106 -182.86505127 250.90751648 C-182.87863125 254.89522404 -182.87346481 258.88269659 -182.86391401 262.87040782 C-182.85626731 267.06347794 -182.86337697 271.25652923 -182.86807251 275.44960022 C-182.87351617 282.48946712 -182.86637571 289.52923931 -182.85205078 296.5690918 C-182.83573329 304.68129954 -182.84101181 312.79328094 -182.85753 320.90548319 C-182.87119223 327.89778628 -182.87304129 334.89002167 -182.86521399 341.88233382 C-182.86056258 346.04649627 -182.85984209 350.21055274 -182.86982346 354.37470818 C-182.87855996 358.29256087 -182.87235083 362.21012497 -182.85514069 366.12794685 C-182.85121093 367.55647429 -182.85224878 368.98502648 -182.85892868 370.4135437 C-182.93899032 389.29145963 -178.01403277 404.76919456 -165.28125 418.87109375 C-160.50370901 423.55211876 -155.3737058 426.86666645 -149.4609375 429.89453125 C-148.82091797 430.22477295 -148.18089844 430.55501465 -147.52148438 430.89526367 C-139.40839888 434.80546797 -130.95956363 435.75842691 -122.04524231 435.72445679 C-121.15298358 435.7289879 -120.26072485 435.73351901 -119.34142798 435.73818743 C-116.38096621 435.75074799 -113.42069038 435.74921649 -110.46020508 435.74755859 C-108.32545742 435.75354909 -106.19071192 435.76035584 -104.05596924 435.76791382 C-98.27680127 435.78552872 -92.4976926 435.79026732 -86.71850038 435.79154539 C-83.10178851 435.7929702 -79.48509156 435.79724607 -75.86838341 435.80253983 C-63.23345361 435.82102579 -50.59856592 435.82921231 -37.96362305 435.82763672 C-26.21435395 435.82643599 -14.46526874 435.84752866 -2.71604615 435.87912405 C7.39471837 435.90533759 17.50542303 435.91600187 27.61622125 435.9147259 C33.64449908 435.91421773 39.6726134 435.9198207 45.70085716 435.941082 C51.37516188 435.96054979 57.04914855 435.9605306 62.72346497 435.94604874 C64.79576397 435.94397006 66.86808333 435.94860479 68.94034767 435.96076965 C89.46964674 436.07339482 107.64994469 433.01425633 123.06640625 418.15234375 C135.76042963 404.31525665 139.84979192 387.21946036 139.8137207 368.9855957 C139.818074 367.52769206 139.8232592 366.0697907 139.82920837 364.6118927 C139.84254712 360.66944454 139.84318249 356.72709256 139.84064507 352.78462625 C139.8395713 349.4824412 139.8444694 346.1802753 139.8492505 342.87809438 C139.86032922 335.07895251 139.86079312 327.27985881 139.85473633 319.48071289 C139.84870529 311.46345851 139.86098914 303.44638002 139.8823064 295.42915565 C139.89998785 288.5226799 139.90591326 281.61625979 139.90266865 274.70976228 C139.90086513 270.59525562 139.90339757 266.48087427 139.91738319 262.36638832 C139.93006297 258.49126739 139.92792283 254.61641789 139.91497231 250.74130058 C139.9126284 249.32931548 139.91526148 247.91731066 139.92359543 246.50534821 C140.02406141 228.14111888 135.65754508 212.03406158 122.87133789 198.52124023 C111.50768864 187.17688738 96.50247665 181.3043659 80.54610932 181.18488234 C79.72741454 181.18866167 78.90871977 181.19244099 78.06521606 181.19633484 C77.16675709 181.19250929 76.26829811 181.18868374 75.3426131 181.18474227 C72.36132278 181.17450392 69.38022837 181.17838686 66.39892578 181.18237305 C64.24945906 181.1780215 62.09999389 181.17283688 59.95053101 181.16688538 C54.13230361 181.15353196 48.31414131 181.15291262 42.49590158 181.15544868 C37.63025292 181.15652084 32.7646173 181.15162875 27.89897144 181.14684325 C16.41587332 181.13576077 4.93280791 181.13530362 -6.55029297 181.14135742 C-18.37798052 181.1473972 -30.2055491 181.13508312 -42.03321636 181.11378735 C-52.20592819 181.096148 -62.37860223 181.09017367 -72.55132878 181.0934251 C-78.61916092 181.09523432 -84.68690818 181.0926377 -90.75472641 181.07871056 C-96.46263401 181.06609884 -102.17035668 181.068108 -107.87826157 181.08112144 C-109.96632959 181.08347946 -112.05441076 181.08078049 -114.14246368 181.07249832 C-136.70671088 180.98949026 -153.67298259 185.34694367 -169.45703125 202.64453125 Z " fill="#052A75" transform="translate(250.4609375,56.54296875)"/>
<path d="M0 0 C1.34217343 -0.00679667 1.34217343 -0.00679667 2.71146148 -0.01373065 C5.68651444 -0.02631212 8.66138286 -0.02475831 11.63645935 -0.02310181 C13.77928907 -0.02909109 15.92211665 -0.03589756 18.06494141 -0.04345703 C23.87109431 -0.0610867 29.67718821 -0.06581123 35.4833653 -0.0670886 C39.11699803 -0.06851285 42.75061589 -0.07278771 46.38424492 -0.07808304 C59.0786776 -0.0965756 71.77306834 -0.1047549 84.46751404 -0.10317993 C96.27070563 -0.10197981 108.07371399 -0.12305886 119.87685925 -0.15466726 C130.0334787 -0.18088976 140.19003854 -0.19154467 150.34669155 -0.19026911 C156.40240262 -0.1897611 162.45795088 -0.19535498 168.51362801 -0.21662521 C174.21582842 -0.23610752 179.91771243 -0.23606404 185.61992455 -0.22159195 C187.70147798 -0.21951488 189.78305175 -0.22413821 191.86457062 -0.23631287 C213.09447317 -0.35234631 231.14703171 2.7095134 246.87254333 18.21273804 C257.27646732 29.12150123 262.76139575 43.61982256 262.82049561 58.58932495 C262.83122856 60.46453323 262.83122856 60.46453323 262.84217834 62.37762451 C262.84501812 63.75039648 262.84772991 65.12316871 262.85032654 66.49594116 C262.8565981 67.95192626 262.86324551 69.40790979 262.87023926 70.8638916 C262.89120617 75.63380841 262.9016373 80.40372525 262.91160583 85.17367554 C262.91565666 86.82206742 262.91977368 88.47045915 262.92395592 90.11885071 C262.94299435 97.86840267 262.95722611 105.61794521 262.96556789 113.36751604 C262.97532428 122.28170808 263.00160753 131.19565076 263.04206878 140.10975504 C263.07234454 147.01959382 263.08704771 153.92936159 263.0903489 160.83926535 C263.09268703 164.95669238 263.10148415 169.07385264 263.12681007 173.19120789 C263.15029648 177.0720877 263.15424273 180.95252897 263.14404869 184.83346176 C263.14355811 186.24665166 263.14973499 187.65986468 263.16360474 189.0729866 C263.33122709 207.18570079 257.89608292 224.86764462 245.04441833 238.08773804 C232.90125917 249.25064218 217.73552186 254.603817 201.35769653 254.52812195 C200.46417553 254.5319475 199.57065453 254.53577304 198.65005714 254.53971452 C195.67948025 254.54996848 192.70909941 254.54606689 189.73851013 254.54208374 C187.59904299 254.54643445 185.45957742 254.5516188 183.32011414 254.55757141 C177.52455402 254.57093471 171.72905922 254.57154299 165.9334867 254.56900811 C161.08777082 254.56793648 156.24206804 254.57282674 151.39635497 254.57761353 C139.95977818 254.58869973 128.52323423 254.58915126 117.08665466 254.58309937 C105.30613487 254.5770611 93.52573456 254.58936897 81.74523515 254.61066943 C71.61500594 254.62830949 61.48481468 254.63428295 51.35457069 254.63103169 C45.31131573 254.62922236 39.268146 254.63182001 33.22490501 254.64574623 C27.53917137 254.65835886 21.85362338 254.65634793 16.16789246 254.64333534 C14.08788807 254.64097741 12.00787048 254.64367599 9.92788124 254.65195847 C-9.92306777 254.72526997 -27.2856938 251.80452745 -42.19190979 237.7359314 C-53.34684871 226.50720641 -59.41244882 211.63300017 -59.47384644 195.86959839 C-59.48100174 194.60263123 -59.48815704 193.33566406 -59.49552917 192.03030396 C-59.49836896 190.6386416 -59.50108075 189.24697899 -59.50367737 187.85531616 C-59.50994877 186.3796269 -59.51659617 184.90393919 -59.52359009 183.42825317 C-59.54455873 178.59340499 -59.55498823 173.75855677 -59.56495667 168.92367554 C-59.56900742 167.25299565 -59.57312443 165.58231592 -59.57730675 163.91163635 C-59.59634548 156.0574329 -59.61057723 148.20323874 -59.61891872 140.34901667 C-59.6286755 131.31370505 -59.65495969 122.27863943 -59.69541961 113.2434144 C-59.72569263 106.24015816 -59.74039828 99.23697198 -59.74369973 92.23365164 C-59.74603815 88.06033478 -59.7548392 83.88728108 -59.7801609 79.71403503 C-59.80364246 75.78062727 -59.80759543 71.8476522 -59.79739952 67.9141922 C-59.79690883 66.48165182 -59.80308917 65.04908865 -59.81695557 63.6166153 C-59.97984874 45.77000959 -55.05512918 30.57629871 -42.66651917 17.54867554 C-30.71470802 5.8961585 -16.64189922 -0.06294379 0 0 Z M-13.57667542 51.57992554 C-18.60579386 57.74641955 -21.43365009 65.17527128 -21.47384644 73.10946655 C-21.48100174 74.08207932 -21.48815704 75.05469208 -21.49552917 76.05677795 C-21.49821808 77.11758072 -21.50090698 78.17838348 -21.50367737 79.27133179 C-21.51024857 80.39380814 -21.51681976 81.51628448 -21.52359009 82.67277527 C-21.54331736 86.39182605 -21.55498648 90.1108364 -21.56495667 93.82992554 C-21.56903219 95.10208923 -21.57310772 96.37425293 -21.57730675 97.68496704 C-21.59601785 103.72806654 -21.61058137 109.77114166 -21.61891872 115.81426239 C-21.62866757 122.76398891 -21.65492714 129.71339494 -21.69541961 136.66300869 C-21.72938289 142.70180882 -21.74107738 148.74045517 -21.74512291 154.77935791 C-21.74997891 157.33726164 -21.7615645 159.89516219 -21.7801609 162.45300293 C-21.8046463 166.04504482 -21.80356928 169.63626233 -21.79664612 173.22836304 C-21.80945618 174.27297195 -21.82226624 175.31758087 -21.83546448 176.3938446 C-21.75126894 188.46054944 -18.07610681 198.29084981 -9.70167542 206.94711304 C-1.97054552 214.14135891 6.81940273 216.42429665 17.16815186 216.40113831 C17.91406954 216.40340386 18.65998721 216.40566942 19.42850846 216.40800363 C21.92329698 216.41432427 24.41803091 216.41351551 26.91282654 216.41268921 C28.70351736 216.41568192 30.49420753 216.41908471 32.28489685 216.42286682 C37.14655657 216.43169995 42.00819869 216.43404466 46.86986566 216.43468261 C49.90841559 216.43539354 52.94696105 216.43752869 55.98550987 216.44017982 C66.58937743 216.44943121 77.19323242 216.453515 87.79710388 216.45272827 C97.67580735 216.45212764 107.55445618 216.46267717 117.43314582 216.47847193 C125.91907899 216.49155555 134.40499433 216.49691182 142.89093751 216.49627286 C147.95713006 216.4960181 153.02327407 216.49885717 158.08945656 216.50945091 C162.85582348 216.51914559 167.62209558 216.51920165 172.38846588 216.51193428 C174.13473588 216.51089012 175.88101183 216.5132413 177.62727165 216.51929474 C180.0174739 216.52704169 182.40735087 216.52235214 184.79754639 216.5146637 C185.8255417 216.52237904 185.8255417 216.52237904 186.87430459 216.53025025 C197.57650722 216.45456708 206.88991949 212.62810866 214.77879333 205.47055054 C219.97365945 199.42951036 223.78222592 191.29094538 223.82049561 183.29766846 C223.82765091 182.27160995 223.83480621 181.24555145 223.84217834 180.18840027 C223.84486725 179.06318466 223.84755615 177.93796906 223.85032654 176.77865601 C223.86018333 175.00015007 223.86018333 175.00015007 223.87023926 173.18571472 C223.88998973 169.25202071 223.90164275 165.31834006 223.91160583 161.38461304 C223.91565469 160.02802638 223.91977165 158.67143992 223.92395592 157.31485367 C223.94300675 150.93805182 223.95723563 144.56126151 223.96556789 138.18443668 C223.97532758 130.83735467 224.00161399 123.49057496 224.04206878 116.14359939 C224.07230069 110.45681858 224.0870436 104.77012404 224.0903489 99.08326447 C224.09269218 95.69083937 224.10155679 92.29873724 224.12681007 88.90639877 C224.15118701 85.11487632 224.15023825 81.32413928 224.14329529 77.53256226 C224.15610535 76.41949203 224.16891541 75.30642181 224.18211365 74.15962219 C224.11316909 63.80398961 220.63614827 55.90876104 213.67332458 48.26742554 C202.98464307 38.09555939 190.37090455 37.6799418 176.41722107 37.74984741 C174.58947697 37.74441865 172.76173726 37.73729177 170.93400574 37.72860718 C165.99808232 37.71046189 161.06249551 37.71740451 156.12656665 37.73012352 C150.94626676 37.74029541 145.76599446 37.7308464 140.58569336 37.72457886 C131.88967243 37.71731527 123.19378769 37.72685698 114.49778748 37.74594116 C104.46099612 37.76771423 94.42452978 37.76065012 84.38774627 37.73863554 C75.75046881 37.72045297 67.11328889 37.71793698 58.47599846 37.72839022 C53.32595977 37.73460856 48.17607359 37.73550643 43.02604485 37.72224426 C38.18395734 37.71064449 33.34228685 37.71878662 28.50024414 37.74182129 C26.72901665 37.7470861 24.95775374 37.74563301 23.1865406 37.73677063 C8.15102915 37.66850554 -3.03570546 40.19567799 -13.57667542 51.57992554 Z " fill="#D1DBFC" transform="translate(127.32667541503906,237.73257446289063)"/>
<path d="M0 0 C12.16183903 -0.11627804 24.32354399 -0.20490963 36.48582745 -0.25906086 C42.13438864 -0.28506178 47.78256717 -0.32028522 53.4309082 -0.37719727 C58.89041168 -0.43185713 64.34954902 -0.46149188 69.80930519 -0.47438622 C71.88356088 -0.4835654 73.95779843 -0.50148905 76.03189659 -0.52865028 C91.04360107 -0.71726785 103.7372631 -0.21229503 115.12890625 10.88671875 C122.73518395 19.47752509 124.29966081 27.53607259 124.30639648 38.78173828 C124.31472 39.96302811 124.32304352 41.14431793 124.33161926 42.36140442 C124.35154731 45.5911228 124.36235342 48.82069163 124.36744571 52.0504632 C124.37110002 54.07378272 124.37734577 56.09707786 124.3844471 58.12038803 C124.40892042 65.1951785 124.42198775 72.26989594 124.42553711 79.34472656 C124.42916511 85.91246366 124.4590125 92.47973138 124.50094169 99.04732525 C124.53578703 104.70620169 124.55108804 110.36492374 124.55178314 116.02390659 C124.5525715 119.39464523 124.56110269 122.76490575 124.58978081 126.13553238 C124.61680522 129.90472814 124.61183463 133.67264954 124.59936523 137.44189453 C124.62161667 139.08825142 124.62161667 139.08825142 124.64431763 140.76786804 C124.54572316 151.29784908 121.23408659 160.62506395 113.89453125 168.31640625 C102.54516967 178.40212757 89.80918915 178.32956771 75.41479492 178.51489258 C73.51471743 178.54660662 71.61484 178.59443812 69.71557617 178.65844727 C53.98742355 179.18013103 53.98742355 179.18013103 49.37768555 176.44287109 C47.57567748 174.39530429 46.31547917 172.38344021 45 170 C43.96766063 168.738468 42.90880171 167.49815894 41.82421875 166.28125 C34.33544307 157.32131769 27.7983154 148.13477234 22 138 C21.58121582 137.27474121 21.16243164 136.54948242 20.73095703 135.80224609 C10.91324739 118.60173777 4.17701698 100.34404951 0 81 C-0.28617188 79.74960937 -0.57234375 78.49921875 -0.8671875 77.2109375 C-2.76605832 68.47613171 -3.76732219 59.92833445 -4 51 C-4.04084717 49.53675293 -4.04084717 49.53675293 -4.08251953 48.04394531 C-4.87933116 14.63799349 -4.87933116 14.63799349 0 0 Z " fill="#67CCD1" transform="translate(227,276)"/>
<path d="M0 0 C5.38108838 1.11663708 9.9073118 4.11591125 14.57421875 6.90917969 C15.67056641 7.54533203 16.76691406 8.18148438 17.89648438 8.83691406 C21.13248794 10.71936956 24.35333957 12.62600317 27.57421875 14.53417969 C29.27070728 15.51841626 30.96848274 16.50044046 32.66796875 17.47949219 C53.94742625 29.77642474 53.94742625 29.77642474 55.57421875 34.53417969 C56.79309043 41.81928195 53.01048884 46.93056497 49.44921875 52.97167969 C48.81685303 54.07133057 48.1844873 55.17098145 47.53295898 56.30395508 C45.56173644 59.72300407 43.56979197 63.12929776 41.57421875 66.53417969 C40.40024537 68.55455053 39.22703631 70.57536574 38.0546875 72.59667969 C35.75699709 76.55080644 33.45003713 80.49933344 31.13671875 84.44433594 C27.44208485 90.74988524 23.78585523 97.07721703 20.13671875 103.40917969 C19.20617676 105.02288452 19.20617676 105.02288452 18.25683594 106.66918945 C15.07168985 112.19453545 11.89114914 117.72249704 8.71484375 123.25292969 C5.60259279 128.67080069 2.47072842 134.07703551 -0.66650391 139.48046875 C-2.37275488 142.44213779 -4.04808565 145.41951658 -5.71875 148.40136719 C-6.74542213 150.1960224 -7.77272903 151.99031469 -8.80078125 153.78417969 C-9.23994873 154.58774902 -9.67911621 155.39131836 -10.1315918 156.21923828 C-14.31707334 163.42381926 -20.10354574 166.90235854 -27.42578125 170.53417969 C-26.86347966 170.53564625 -26.30117807 170.53711281 -25.72183704 170.53862381 C-12.03380294 170.57569077 1.65398044 170.6349562 15.34181499 170.71808243 C21.96120389 170.75761113 28.58045868 170.78977331 35.19995117 170.80517578 C41.58674885 170.82030658 47.97317796 170.85468912 54.35981178 170.90248871 C56.79784761 170.91733934 59.23593604 170.9252228 61.67401695 170.92606354 C65.08605743 170.92842377 68.49707151 170.95542917 71.90893555 170.98828125 C73.42484283 170.9807357 73.42484283 170.9807357 74.97137451 170.97303772 C79.36031668 171.03852522 81.87599811 171.1047494 85.67829895 173.44329834 C88.8681583 176.96117785 88.9632997 179.6606129 88.93359375 184.27246094 C88.36365009 187.85938898 86.37195826 189.40256863 83.57421875 191.53417969 C80.61878105 193.01189854 77.62230715 192.67859452 74.38200378 192.67462158 C73.63244913 192.6775927 72.88289447 192.68056383 72.11062604 192.68362498 C69.58570244 192.69233318 67.06082613 192.69382202 64.53588867 192.6953125 C62.73092039 192.69993919 60.92595309 192.70496364 59.12098694 192.71035767 C54.20770358 192.72349837 49.2944339 192.72992991 44.3811357 192.73436832 C41.31331112 192.73729646 38.24549031 192.74140077 35.17766762 192.7458725 C25.58443665 192.75955204 15.99121424 192.76921637 6.39797419 192.77307439 C-4.68571886 192.77755594 -15.76928864 192.79510645 -26.8529442 192.82407498 C-35.41350395 192.84567436 -43.97402898 192.85577774 -52.5346157 192.85711551 C-57.65052917 192.85816482 -62.76632684 192.86409935 -67.88221169 192.88193512 C-72.69452418 192.89838559 -77.50663345 192.90058604 -82.318964 192.89179611 C-84.08584639 192.8910241 -85.85273956 192.89538996 -87.61959457 192.90525436 C-90.03084489 192.91792749 -92.4413704 192.91212266 -94.85261536 192.90167236 C-95.90262442 192.91375697 -95.90262442 192.91375697 -96.97384578 192.92608571 C-101.29942073 192.88220957 -103.96526523 192.13901267 -107.42578125 189.53417969 C-109.96569996 186.5709412 -110.68264085 184.35658507 -110.48828125 180.53417969 C-110.23998728 177.37638975 -109.26044465 176.34779454 -107.11108398 173.92480469 C-102.52284222 170.20125736 -97.16879656 170.9968207 -91.55078125 171.22167969 C-89.94589844 171.25551758 -89.94589844 171.25551758 -88.30859375 171.29003906 C-85.67953718 171.34872336 -83.05339543 171.43076789 -80.42578125 171.53417969 C-80.49909668 170.24133057 -80.57241211 168.94848145 -80.64794922 167.61645508 C-83.0381808 121.43816385 -83.0381808 121.43816385 -68.20751953 101.92138672 C-65.6438552 98.48654021 -63.58654165 94.82607117 -61.48828125 91.09667969 C-60.6945857 89.75104928 -59.89761205 88.40734792 -59.09765625 87.06542969 C-55.76576217 81.43550114 -52.50430452 75.76498799 -49.23828125 70.09667969 C-48.60027588 68.98945557 -47.96227051 67.88223145 -47.30493164 66.74145508 C-45.99688648 64.47080901 -44.68902677 62.20005611 -43.38134766 59.92919922 C-41.47428544 56.61838684 -39.56565169 53.30848708 -37.65625 49.99902344 C-37.03951416 48.92982666 -36.42277832 47.86062988 -35.78735352 46.7590332 C-34.55078327 44.61688811 -33.31299878 42.47544347 -32.07397461 40.3347168 C-29.14389918 35.26836051 -26.22742574 30.1955313 -23.35723877 25.09503174 C-22.00368683 22.69158734 -20.64264354 20.29242527 -19.28100586 17.89355469 C-18.32518831 16.20236469 -17.38021839 14.50505836 -16.43554688 12.80761719 C-15.85224609 11.78152344 -15.26894531 10.75542969 -14.66796875 9.69824219 C-13.90782471 8.34400146 -13.90782471 8.34400146 -13.13232422 6.96240234 C-9.53423041 1.84271122 -6.15433165 -0.29754413 0 0 Z " fill="#062B74" transform="translate(423.42578125,-0.5341796875)"/>
<path d="M0 0 C1.41007324 -0.0098568 1.41007324 -0.0098568 2.84863281 -0.01991272 C5.98038813 -0.03972257 9.11209501 -0.05133378 12.24389648 -0.0612793 C13.85090077 -0.06739259 13.85090077 -0.06739259 15.4903698 -0.07362938 C21.17570683 -0.09453638 26.8610195 -0.10881025 32.54638672 -0.11816406 C38.38650241 -0.12915575 44.22622937 -0.16345759 50.06620884 -0.20333576 C54.57993714 -0.22966729 59.09357587 -0.23787115 63.60737419 -0.24144554 C65.75726849 -0.24627973 67.90715966 -0.25780174 70.05697823 -0.27648354 C90.95430517 -0.44658882 108.81690037 1.83608671 124.76635742 16.65795898 C135.05644838 26.802595 141.54737645 40.72985698 142.18671131 55.21878815 C142.19312153 56.84244419 142.19312153 56.84244419 142.19966125 58.49890137 C142.21039421 60.37410965 142.21039421 60.37410965 142.22134399 62.28720093 C142.22418377 63.65997289 142.22689556 65.03274513 142.22949219 66.40551758 C142.23576375 67.86150268 142.24241116 69.31748621 142.24940491 70.77346802 C142.27037182 75.54338482 142.28080295 80.31330166 142.29077148 85.08325195 C142.29482231 86.73164384 142.29893933 88.38003557 142.30312157 90.02842712 C142.32216 97.77797909 142.33639176 105.52752163 142.34473354 113.27709246 C142.35448993 122.1912845 142.38077318 131.10522718 142.42123443 140.01933146 C142.45151019 146.92917023 142.46621336 153.83893801 142.46951455 160.74884176 C142.47185268 164.8662688 142.4806498 168.98342906 142.50597572 173.1007843 C142.52946213 176.98166411 142.53340838 180.86210539 142.52321434 184.74303818 C142.52272376 186.15622807 142.52890064 187.5694411 142.54277039 188.98256302 C142.71039274 207.09527721 137.27524857 224.77722104 124.42358398 237.99731445 C114.14151923 247.4493608 100.76102224 253.92169466 86.58374023 253.7668457 C79.23401402 252.53918126 73.20481913 248.1877524 67.05249023 244.17700195 C66.37605469 243.74387695 65.69961914 243.31075195 65.00268555 242.86450195 C53.41858019 235.39733764 41.589501 227.10831659 33.05249023 216.17700195 C34.19202148 216.15718262 35.33155273 216.13736328 36.50561523 216.11694336 C40.76250051 216.04045707 45.01906301 215.95180834 49.27563477 215.85961914 C51.11248366 215.82150622 52.9494027 215.78662356 54.78637695 215.75512695 C57.43783517 215.7090897 60.0888178 215.65116211 62.73999023 215.59106445 C63.9576709 215.57373764 63.9576709 215.57373764 65.19995117 215.55606079 C75.74259505 215.28756848 85.41163668 212.26740799 93.38061523 205.1574707 C98.43546592 199.16959851 102.16208152 191.05641406 102.19966125 183.20724487 C102.20681656 182.18118637 102.21397186 181.15512787 102.22134399 180.09797668 C102.2240329 178.97276108 102.2267218 177.84754547 102.22949219 176.68823242 C102.23606339 175.5025618 102.24263458 174.31689117 102.24940491 173.09529114 C102.26915538 169.16159713 102.2808084 165.22791648 102.29077148 161.29418945 C102.29482034 159.93760279 102.2989373 158.58101633 102.30312157 157.22443008 C102.3221724 150.84762824 102.33640128 144.47083793 102.34473354 138.09401309 C102.35449323 130.74693109 102.38077964 123.40015137 102.42123443 116.05317581 C102.45146634 110.36639499 102.46620925 104.67970046 102.46951455 98.99284089 C102.47185783 95.60041579 102.48072244 92.20831365 102.50597572 88.81597519 C102.53035266 85.02445273 102.5294039 81.2337157 102.52246094 77.44213867 C102.535271 76.32906845 102.54808105 75.21599823 102.5612793 74.06919861 C102.49329272 63.85745655 99.11675429 55.61802676 92.05249023 48.17700195 C83.73949079 41.24427411 74.99125508 38.72672104 64.31005859 38.74462891 C63.38215515 38.73443726 62.45425171 38.72424561 61.49822998 38.71374512 C58.46286841 38.68380117 55.42782337 38.67437772 52.39233398 38.6652832 C50.27526313 38.64842273 48.1582022 38.63027065 46.04115295 38.61088562 C40.49283958 38.5635283 34.94456648 38.5336267 29.39611816 38.50744629 C23.72485404 38.47756865 18.05372844 38.43106312 12.38256836 38.38598633 C1.272615 38.30011557 -9.837367 38.23269824 -20.94750977 38.17700195 C-20.32362344 35.29868663 -19.69569206 32.42135343 -19.06542969 29.54443359 C-18.89045708 28.73517677 -18.71548447 27.92591995 -18.53520966 27.0921402 C-17.21285735 21.07774247 -15.51911085 15.34838598 -13.26000977 9.61450195 C-12.79884766 8.38957031 -12.79884766 8.38957031 -12.32836914 7.13989258 C-9.39093507 -0.56685458 -7.86291981 0.02357062 0 0 Z " fill="#FCFDFD" transform="translate(247.947509765625,237.822998046875)"/>
<path d="M0 0 C9.01467459 6.54387508 14.67800552 14.98039214 17.07421875 25.89453125 C18.78106257 38.13672141 15.20012411 48.72438671 8.2890625 58.70703125 C2.70635211 64.28974164 -3.20480382 67.34725967 -10.4609375 70.45703125 C-10.7909375 85.96703125 -11.1209375 101.47703125 -11.4609375 117.45703125 C-18.3909375 117.45703125 -25.3209375 117.45703125 -32.4609375 117.45703125 C-32.4609375 101.61703125 -32.4609375 85.77703125 -32.4609375 69.45703125 C-34.1109375 69.12703125 -35.7609375 68.79703125 -37.4609375 68.45703125 C-47.31849165 63.87691364 -54.60816246 56.67946955 -58.4609375 46.45703125 C-61.70213965 36.08518437 -61.28797848 25.50122718 -56.8984375 15.51953125 C-51.18724197 5.03854605 -42.81123058 -1.40033912 -31.578125 -5.17578125 C-20.527569 -7.09229834 -9.57721897 -6.00476427 0 0 Z " fill="#052A74" transform="translate(250.4609375,56.54296875)"/>
<path d="M0 0 C10.02578245 4.80434259 19.54487517 10.16006996 29 16 C28.41086447 19.97510033 27.17954805 22.80697025 25.1484375 26.26171875 C24.55224609 27.28458984 23.95605469 28.30746094 23.34179688 29.36132812 C22.69275391 30.45896484 22.04371094 31.55660156 21.375 32.6875 C20.69521082 33.84916922 20.01618752 35.01128693 19.33789062 36.17382812 C17.92841697 38.58817446 16.51567013 41.00055922 15.10058594 43.41162109 C11.86944454 48.92318625 8.68731817 54.46302109 5.5 60 C4.25151354 62.1641845 3.00281486 64.32824659 1.75390625 66.4921875 C-1.39240527 71.94557559 -4.53582432 77.4006238 -7.67749023 82.85668945 C-8.92565769 85.02081556 -10.17643709 87.18343749 -11.42993164 89.34448242 C-14.59394783 94.80121579 -17.71703911 100.27513184 -20.7734375 105.79296875 C-21.38888428 106.88786621 -22.00433105 107.98276367 -22.63842773 109.11083984 C-23.80214478 111.18181086 -24.95116265 113.26114044 -26.08227539 115.35009766 C-29.59400375 121.54688741 -32.69565607 124.78921107 -39 128 C-40.61548889 128.95676526 -42.22598696 129.92199546 -43.83203125 130.89453125 C-45.49132266 131.86866214 -47.15148741 132.84130685 -48.8125 133.8125 C-49.65748047 134.31458984 -50.50246094 134.81667969 -51.37304688 135.33398438 C-52.18451172 135.80771484 -52.99597656 136.28144531 -53.83203125 136.76953125 C-54.56139893 137.19854736 -55.2907666 137.62756348 -56.04223633 138.06958008 C-58 139 -58 139 -61 139 C-62.80742199 116.83623954 -61.86177963 101.4780073 -48.78173828 82.59667969 C-46.33480333 79.03055197 -44.20457127 75.31605879 -42.0625 71.5625 C-41.26786347 70.21742505 -40.47091485 68.87371383 -39.671875 67.53125 C-36.33997928 61.90131867 -33.07872599 56.2306943 -29.8125 50.5625 C-29.18029541 49.46615234 -28.54809082 48.36980469 -27.89672852 47.24023438 C-24.91278118 42.06330171 -21.93239685 36.88436232 -18.96037292 31.70057678 C-17.95576747 29.94891854 -16.95009951 28.1978747 -15.9440918 26.44702148 C-14.68950093 24.26287063 -13.43691122 22.0775685 -12.18676758 19.89086914 C-8.30555787 13.13870181 -4.23687196 6.53479548 0 0 Z " fill="#FBC950" transform="translate(425,24)"/>
<path d="M0 0 C1.60488281 0.03383789 1.60488281 0.03383789 3.2421875 0.06835938 C5.87124407 0.12704367 8.49738582 0.2090882 11.125 0.3125 C11.17398437 1.19292969 11.22296875 2.07335937 11.2734375 2.98046875 C11.34820312 4.14191406 11.42296875 5.30335938 11.5 6.5 C11.56960938 7.64855469 11.63921875 8.79710937 11.7109375 9.98046875 C12.10559412 13.15633756 12.61288707 15.49914702 14.125 18.3125 C19.26371434 20.02540478 23.75247283 20.29827435 28.83496094 18.18652344 C31.78394555 16.60711238 34.64426398 14.92972622 37.5 13.1875 C39.44484606 12.03827278 41.39015741 10.88983259 43.3359375 9.7421875 C44.60896729 8.97237549 44.60896729 8.97237549 45.90771484 8.18701172 C46.96941895 7.56842285 48.03112305 6.94983398 49.125 6.3125 C49.88776875 5.82760479 50.65053749 5.34270958 51.43642044 4.84312057 C58.40564797 0.65182662 63.69694119 -0.5531333 71.75927734 -0.43212891 C72.86475922 -0.43943024 73.97024109 -0.44673157 75.10922241 -0.45425415 C78.72710516 -0.47033698 82.3431604 -0.44336685 85.9609375 -0.4140625 C88.4891459 -0.41302417 91.01735593 -0.41406394 93.54556274 -0.41708374 C98.82598949 -0.4169049 104.10595091 -0.39684905 109.38623047 -0.35986328 C115.48217989 -0.31740751 121.57737574 -0.31054055 127.6734432 -0.3229872 C133.55910783 -0.33438618 139.44454647 -0.32286537 145.33018875 -0.30064011 C147.82685914 -0.29294378 150.32355216 -0.29063651 152.82023239 -0.2938118 C156.30295885 -0.29455286 159.78453599 -0.26932712 163.26708984 -0.23681641 C164.29781616 -0.24177124 165.32854248 -0.24672607 166.39050293 -0.25183105 C170.8214521 -0.18575496 173.40074435 -0.13127141 177.24111938 2.22183228 C180.41531069 5.74444367 180.51404766 8.44410156 180.484375 13.05078125 C179.91443134 16.63770929 177.92273951 18.18088894 175.125 20.3125 C172.1695623 21.79021885 169.1730884 21.45691483 165.93278503 21.45294189 C164.80845305 21.45739858 164.80845305 21.45739858 163.66140729 21.4619453 C161.13648369 21.4706535 158.61160738 21.47214233 156.08666992 21.47363281 C154.28170164 21.4782595 152.47673434 21.48328396 150.67176819 21.48867798 C145.75848483 21.50181868 140.84521515 21.50825023 135.93191695 21.51268864 C132.86409237 21.51561677 129.79627156 21.51972109 126.72844887 21.52419281 C117.1352179 21.53787235 107.54199549 21.54753668 97.94875544 21.5513947 C86.86506239 21.55587625 75.78149261 21.57342676 64.69783705 21.6023953 C56.1372773 21.62399468 47.57675227 21.63409805 39.01616555 21.63543582 C33.90025208 21.63648513 28.78445441 21.64241966 23.66856956 21.66025543 C18.85625707 21.6767059 14.0441478 21.67890635 9.23181725 21.67011642 C7.46493486 21.66934442 5.69804169 21.67371027 3.93118668 21.68357468 C1.51993636 21.6962478 -0.89058915 21.69044297 -3.30183411 21.67999268 C-4.00184015 21.68804908 -4.70184619 21.69610548 -5.42306453 21.70440602 C-9.74863948 21.66052988 -12.41448398 20.91733299 -15.875 18.3125 C-18.41491871 15.34926151 -19.1318596 13.13490538 -18.9375 9.3125 C-18.68815509 6.14134416 -17.66254307 5.06290774 -15.55078125 2.58203125 C-10.96012467 -1.00396855 -5.54481479 -0.22192916 0 0 Z " fill="#FC7C9F" transform="translate(331.875,170.6875)"/>
<path d="M0 0 C0 42.9 0 85.8 0 130 C-9.04615385 130 -9.04615385 130 -12.6875 128.25 C-13.39261719 127.92515625 -14.09773438 127.6003125 -14.82421875 127.265625 C-22.0233764 123.07796417 -25.49947546 117.86761315 -28 110 C-29.06011246 103.153989 -28.8221991 96.18007385 -28.76171875 89.2734375 C-28.76322413 87.27429984 -28.76666141 85.27516279 -28.77192688 83.27603149 C-28.77623843 79.10526866 -28.75956819 74.93528439 -28.72729492 70.76464844 C-28.68746472 65.44074569 -28.69684954 60.11829721 -28.72152996 54.79434776 C-28.73576441 50.67280316 -28.72558649 46.55159377 -28.70801735 42.43007278 C-28.70220256 40.46783882 -28.70341769 38.50557004 -28.71204185 36.54334641 C-28.77455055 15.23112738 -28.77455055 15.23112738 -21.25907898 7.12142944 C-14.71239999 0.87582518 -9.12582807 0 0 0 Z " fill="#66CAD0" transform="translate(48,301)"/>
<path d="M0 0 C9.10735637 0 13.77291268 1.71226542 20.8125 7.1875 C28.91404537 17.60377261 28.72787543 27.14988768 28.62890625 39.83984375 C28.62973637 41.77218255 28.63220113 43.70452127 28.63621521 45.63685608 C28.63906339 49.67405618 28.62446952 53.71069852 28.59692383 57.74780273 C28.56286599 62.89663553 28.56886118 68.04447041 28.5875864 73.19335079 C28.5982072 77.18022325 28.58917225 81.16686764 28.57420158 85.15371895 C28.56905498 87.05093265 28.5694583 88.94817052 28.57574654 90.84538078 C28.62403608 114.16735443 28.62403608 114.16735443 20.6875 123 C13.91316692 128.98495105 9.33779087 129 0 129 C0 86.43 0 43.86 0 0 Z " fill="#66CAD0" transform="translate(410,300)"/>
<path d="M0 0 C1.06412109 -0.02900391 2.12824219 -0.05800781 3.22460938 -0.08789062 C10.96167207 -0.15001651 16.41199104 0.94661679 22.3359375 6.05859375 C23.00496094 6.89583984 23.00496094 6.89583984 23.6875 7.75 C24.14898437 8.30558594 24.61046875 8.86117188 25.0859375 9.43359375 C28.95444775 15.35956009 29.1682028 21.43195098 28.3125 28.3125 C25.81413464 35.29140489 21.8655086 39.43039109 15.35546875 42.87890625 C6.67022149 46.51438031 -6.3637114 45.91139361 -15.23828125 43.24609375 C-21.67470867 39.661619 -25.39046099 34.20361703 -27.6875 27.3125 C-28.46616049 20.52702997 -27.99041504 15.16492479 -24.3203125 9.32421875 C-17.4340978 0.84000686 -10.33630017 0.09223349 0 0 Z " fill="#FDFEFE" transform="translate(278.6875,342.6875)"/>
<path d="M0 0 C0.95519531 -0.02449219 1.91039062 -0.04898437 2.89453125 -0.07421875 C10.70267858 -0.10635104 15.84732559 1.69326639 21.875 6.625 C26.56763179 12.36043885 28.86843267 17.4074521 28.5 24.92578125 C27.41041726 32.04211853 23.62383421 36.31326172 18.3203125 40.9296875 C12.33852538 44.86787475 6.17106839 44.74073485 -0.75 44.75 C-1.70519531 44.77449219 -2.66039062 44.79898438 -3.64453125 44.82421875 C-10.97503866 44.85438545 -16.33323831 43.49284426 -21.8984375 38.59375 C-22.34445313 38.0265625 -22.79046875 37.459375 -23.25 36.875 C-23.71148437 36.3078125 -24.17296875 35.740625 -24.6484375 35.15625 C-28.90999746 28.96748776 -28.6731422 22.72284522 -27.875 15.375 C-25.81240841 9.66525076 -21.77864028 5.77752591 -16.875 2.375 C-11.33859936 -0.07031537 -5.94467347 0.00795806 0 0 Z " fill="#D0DBFC" transform="translate(178.875,342.625)"/>
<path d="M0 0 C1.24201172 -0.02384766 2.48402344 -0.04769531 3.76367188 -0.07226562 C14.60194661 -0.05521538 23.40084629 2.38610041 31.6875 9.5625 C33.671875 11.96484375 33.671875 11.96484375 35.4375 14.5 C36.03046875 15.33402344 36.6234375 16.16804687 37.234375 17.02734375 C38.6875 19.5625 38.6875 19.5625 39.6875 24.5625 C13.9475 24.5625 -11.7925 24.5625 -38.3125 24.5625 C-36.67832746 16.3916373 -32.39304903 10.8468771 -25.73046875 5.94921875 C-24.93253906 5.49160156 -24.13460937 5.03398437 -23.3125 4.5625 C-22.73040771 4.22049561 -22.14831543 3.87849121 -21.54858398 3.52612305 C-14.54045194 -0.1272166 -7.77275287 -0.06793666 0 0 Z " fill="#26A0CA" transform="translate(228.3125,193.4375)"/>
<path d="M0 0 C4.975841 2.70788908 7.99085302 5.60191889 9.875 11 C10.89962711 16.37075374 10.46460837 20.63187523 7.6875 25.375 C4.75224293 29.49101204 1.73215334 32.38094889 -3.125 34 C-8.3374181 34.49914836 -12.72870235 34.67229146 -17.5 32.375 C-25.78580402 24.87832017 -25.78580402 24.87832017 -26.3984375 19.6796875 C-26.64797373 12.78864857 -25.8296195 8.19468403 -21.125 3 C-14.21497288 -2.38982116 -8.11920062 -3.60584469 0 0 Z " fill="#F97B9F" transform="translate(237.125,73)"/>
<path d="M0 0 C6.93 0 13.86 0 21 0 C21 15.84 21 31.68 21 48 C14.07 48 7.14 48 0 48 C0 32.16 0 16.32 0 0 Z " fill="#FAC950" transform="translate(218,126)"/>
</svg>
