<?xml version="1.0" encoding="UTF-8"?>
<svg version="1.1" xmlns="http://www.w3.org/2000/svg" width="512" height="512">
<path d="M0 0 C0.97066406 0.54269531 1.94132812 1.08539063 2.94140625 1.64453125 C14.46761907 8.54012582 31.5751902 20.72557061 36 34 C36.49049586 38.67177203 36.55326317 42.7090526 34.6875 47.0625 C31.41566469 50.63869208 27.78403605 53.5120723 24 56.53125 C4.01181685 72.97985905 -8.24013045 94.89098773 -13.0625 120.25 C-14.0353818 124.1415272 -14.69351015 125.76325687 -18 128 C-19.32 128 -20.64 128 -22 128 C-21.67 134.27 -21.34 140.54 -21 147 C-19.35 147.33 -17.7 147.66 -16 148 C-13.23043251 150.06906432 -12.47697887 152.0184487 -11.67578125 155.32421875 C-11.45615723 156.18031738 -11.2365332 157.03641602 -11.01025391 157.91845703 C-10.77999512 158.83224121 -10.54973633 159.74602539 -10.3125 160.6875 C-6.41130357 175.14895988 -0.39074908 187.27639114 9 199 C9.47824219 199.63035156 9.95648438 200.26070312 10.44921875 200.91015625 C18.47521862 211.00589821 30.2420656 218.77068056 41.375 225.0625 C45.48310236 227.51317331 47.98088331 229.5228282 50 234 C51.65724501 240.89210328 50.53935087 245.93636252 47.875 252.375 C47.34181152 253.70990479 47.34181152 253.70990479 46.79785156 255.07177734 C38.92358309 274.3350234 29.77286383 292.8240194 18 310 C17.49581543 310.73927734 16.99163086 311.47855469 16.47216797 312.24023438 C7.41827175 325.44610776 -2.00940981 338.32509004 -13 350 C-13.83917969 350.91845703 -13.83917969 350.91845703 -14.6953125 351.85546875 C-27.52207075 365.39482468 -44.75603599 375.22067939 -63.60546875 376.125 C-81.13200846 376.49544205 -96.20025078 371.3942897 -112.1875 364.875 C-122.23406551 360.7820948 -132.10274515 357.62759059 -143 357 C-143.76957031 356.94714844 -144.53914062 356.89429688 -145.33203125 356.83984375 C-159.74979451 356.33046041 -173.56190454 359.61084183 -186.78076172 365.08935547 C-191.13957968 366.87795734 -195.54064434 368.55768505 -199.9375 370.25 C-200.80165527 370.59119873 -201.66581055 370.93239746 -202.55615234 371.28393555 C-218.56812865 377.4878435 -237.36837019 379.08667333 -253.5859375 372.66796875 C-264.92422914 367.12855167 -274.02241076 359.78521233 -283 351 C-283.77859375 350.27167969 -284.5571875 349.54335938 -285.359375 348.79296875 C-337.48399687 298.97883544 -367.37102844 217.31647383 -369.125 146.44140625 C-369.87224715 101.52651498 -358.46725391 57.20974029 -327 24 C-326.16726563 23.1028125 -325.33453125 22.205625 -324.4765625 21.28125 C-306.52158497 2.53646407 -280.41644466 -12.1625865 -254.1875 -14.3125 C-250.75638998 -13.97611666 -249.33128274 -13.51778536 -247 -11 C-247 -10.01 -247 -9.02 -247 -8 C-243.76928616 -8.02290013 -240.54206866 -8.10033517 -237.3125 -8.1875 C-235.94448242 -8.19620117 -235.94448242 -8.19620117 -234.54882812 -8.20507812 C-228.86278607 -8.26523223 -228.86278607 -8.26523223 -224.48046875 -11.61328125 C-222 -14 -222 -14 -219.87939453 -14.23144531 C-213.19750441 -13.7036167 -206.98080367 -11.6356222 -200.6875 -9.4375 C-199.65294678 -9.0854248 -198.61839355 -8.73334961 -197.55249023 -8.37060547 C-189.64019252 -5.6488861 -181.8077037 -2.72501042 -174.03979492 0.38500977 C-159.30654697 6.19625035 -148.85194806 5.20716981 -134.125 -0.625 C-131.73790699 -1.5375869 -129.34987386 -2.44771826 -126.9609375 -3.35546875 C-125.1989502 -4.02908447 -125.1989502 -4.02908447 -123.40136719 -4.71630859 C-110.49193341 -9.58838746 -97.65448244 -13.85098945 -84 -16 C-82.91976563 -16.18304688 -81.83953125 -16.36609375 -80.7265625 -16.5546875 C-52.85608856 -19.88512149 -24.32606232 -13.78036301 0 0 Z " fill="#D5D5D7" transform="translate(415,136)"/>
<path d="M0 0 C2.0016651 2.56213133 2.04452015 4.77105739 2.09375 7.96484375 C1.27645706 11.09579686 0.19122402 12.0649123 -2.4375 14 C-5.77093979 15.1776616 -9.18533151 15.9459899 -12.625 16.75 C-33.50997539 22.05450222 -49.98182058 32.10839648 -65.4375 47 C-66.40623047 47.87398437 -66.40623047 47.87398437 -67.39453125 48.765625 C-87.31513272 67.24000013 -97.63611647 95.76509956 -101.4375 122 C-101.64117187 123.20140625 -101.84484375 124.4028125 -102.0546875 125.640625 C-107.30968282 161.20182624 -102.62533995 199.04830231 -91.4375 233 C-91.13360352 233.94391602 -90.82970703 234.88783203 -90.51660156 235.86035156 C-85.25048921 252.12769379 -78.97629367 267.65507955 -71.4375 283 C-71.05094238 283.79229004 -70.66438477 284.58458008 -70.26611328 285.40087891 C-64.59511197 296.9056255 -57.78129612 307.49861806 -50.4375 318 C-49.90044434 318.77053711 -49.36338867 319.54107422 -48.81005859 320.33496094 C-25.57335933 354.33711596 -25.57335933 354.33711596 9.5625 373 C11.78935218 373.11924613 14.01999107 373.17523372 16.25 373.1875 C17.40886719 373.20167969 18.56773437 373.21585937 19.76171875 373.23046875 C27.22246989 372.77806966 34.20059267 370.62993478 41.25 368.25 C42.03036621 367.98977051 42.81073242 367.72954102 43.61474609 367.46142578 C48.43053379 365.82269974 53.05181655 363.96716412 57.6875 361.875 C65.10748525 358.57241311 72.67093287 356.76879953 80.5625 355 C81.16078613 354.8242041 81.75907227 354.6484082 82.37548828 354.46728516 C87.08841806 353.46030284 92.00195042 353.73346573 96.80273438 353.70483398 C98.76456351 353.68791345 100.72610235 353.64409672 102.6875 353.59960938 C118.48744414 353.49649729 132.08045968 358.25178738 146.5625 364.125 C163.75016397 371.03891244 180.40306567 375.92580297 198.65625 369.2421875 C200.09484375 368.62730469 200.09484375 368.62730469 201.5625 368 C202.93921875 367.41605469 202.93921875 367.41605469 204.34375 366.8203125 C212.70045916 362.76202558 219.08014388 356.51801019 225.5625 350 C226.27019531 349.29230469 226.97789062 348.58460938 227.70703125 347.85546875 C250.33689172 323.70107032 273.90438902 287.21866754 282.5625 255 C281.24922926 251.06018779 279.80172683 250.79825181 276.1875 248.875 C269.68428512 245.20731009 264.18573445 240.88508126 258.5625 236 C257.72976563 235.31292969 256.89703125 234.62585938 256.0390625 233.91796875 C237.54325332 218.19361363 223.66580705 194.21077073 220.25 170.0625 C220.16063028 167.19454451 220.20688775 165.61144839 221.6484375 163.1328125 C224.20873341 160.62670275 226.2207753 160 229.75 160 C232.65244932 161.03198198 233.6471615 161.67520513 235.5625 164 C236.3269043 166.0144043 236.3269043 166.0144043 236.88671875 168.32421875 C237.10634277 169.18031738 237.3259668 170.03641602 237.55224609 170.91845703 C237.78250488 171.83224121 238.01276367 172.74602539 238.25 173.6875 C242.15119643 188.14895988 248.17175092 200.27639114 257.5625 212 C258.04074219 212.63035156 258.51898438 213.26070312 259.01171875 213.91015625 C267.03771862 224.00589821 278.8045656 231.77068056 289.9375 238.0625 C294.04560236 240.51317331 296.54338331 242.5228282 298.5625 247 C300.21974501 253.89210328 299.10185087 258.93636252 296.4375 265.375 C295.90431152 266.70990479 295.90431152 266.70990479 295.36035156 268.07177734 C287.48608309 287.3350234 278.33536383 305.8240194 266.5625 323 C266.05831543 323.73927734 265.55413086 324.47855469 265.03466797 325.24023438 C255.98077175 338.44610776 246.55309019 351.32509004 235.5625 363 C234.72332031 363.91845703 234.72332031 363.91845703 233.8671875 364.85546875 C221.04042925 378.39482468 203.80646401 388.22067939 184.95703125 389.125 C167.43049154 389.49544205 152.36224922 384.3942897 136.375 377.875 C126.32843449 373.7820948 116.45975485 370.62759059 105.5625 370 C104.79292969 369.94714844 104.02335938 369.89429688 103.23046875 369.83984375 C88.81270549 369.33046041 75.00059546 372.61084183 61.78173828 378.08935547 C57.42292032 379.87795734 53.02185566 381.55768505 48.625 383.25 C47.76084473 383.59119873 46.89668945 383.93239746 46.00634766 384.28393555 C29.99437135 390.4878435 11.19412981 392.08667333 -5.0234375 385.66796875 C-16.36172914 380.12855167 -25.45991076 372.78521233 -34.4375 364 C-35.21609375 363.27167969 -35.9946875 362.54335938 -36.796875 361.79296875 C-88.92149687 311.97883544 -118.80852844 230.31647383 -120.5625 159.44140625 C-121.30974715 114.52651498 -109.90475391 70.20974029 -78.4375 37 C-77.60476562 36.1028125 -76.77203125 35.205625 -75.9140625 34.28125 C-61.19568097 18.91543233 -22.85768415 -9.37751144 0 0 Z " fill="#010101" transform="translate(166.4375,123)"/>
<path d="M0 0 C2.68020392 2.38240349 3.85537608 3.56612823 5 7 C6.77606213 40.98426573 -5.92248024 69.65520084 -28 94.8125 C-45.17361006 113.24141282 -69.63476273 125.92681823 -94.96484375 127.09765625 C-100.64279999 126.91496783 -103.59945441 125.24831237 -107.875 121.4375 C-113.48192321 115.00602926 -111.53405602 104.07759728 -111 96 C-107.06316201 65.58063606 -88.38846205 38.03357914 -65 19 C-50.13811109 7.98530544 -18.03315881 -12.40729982 0 0 Z " fill="#010101" transform="translate(359,3)"/>
<path d="M0 0 C0.97066406 0.54269531 1.94132813 1.08539063 2.94140625 1.64453125 C14.46761907 8.54012582 31.5751902 20.72557061 36 34 C36.49049586 38.67177203 36.55326317 42.7090526 34.6875 47.0625 C31.41566469 50.63869208 27.78403605 53.5120723 24 56.53125 C4.01181685 72.97985905 -8.24013045 94.89098773 -13.0625 120.25 C-14 124 -14 124 -15.6875 126.625 C-18 128 -18 128 -21.5 128 C-25.33766233 126.90352505 -26.58556539 126.10653731 -29 123 C-31.4455012 104.20536158 -18.65266578 80.73922443 -7.64453125 66.28515625 C-3.39525869 60.91121641 1.23769085 55.91891722 6 51 C6.76957031 50.20207031 7.53914062 49.40414062 8.33203125 48.58203125 C11.39565694 45.46156649 14.36290516 42.45709282 18 40 C18.66 40 19.32 40 20 40 C9.3052788 20.86207786 -12.91645188 9.76935053 -33.1875 3.75 C-43.71819081 0.78946054 -53.63783368 -0.30378496 -64.5625 -0.1875 C-66.2940332 -0.1865332 -66.2940332 -0.1865332 -68.06054688 -0.18554688 C-78.69475249 -0.13125995 -88.20562842 0.69554149 -98.375 3.875 C-99.34381104 4.17237061 -100.31262207 4.46974121 -101.31079102 4.77612305 C-110.89036023 7.80590862 -120.20836928 11.47806143 -129.50732422 15.26708984 C-151.24450006 24.08638699 -166.59862241 21.04795179 -188 13 C-189.73133781 12.36080503 -191.46308483 11.72271698 -193.1953125 11.0859375 C-195.56902658 10.21226071 -197.94072286 9.33493207 -200.30639648 8.43969727 C-204.0373593 7.03670693 -207.76091028 5.74026868 -211.58984375 4.62890625 C-212.32267578 4.41516357 -213.05550781 4.2014209 -213.81054688 3.98120117 C-215.79469103 3.41570187 -217.78581294 2.87484614 -219.77734375 2.3359375 C-223.4828475 0.79983776 -224.93792444 -0.58904795 -227 -4 C-227 -7.625 -227 -7.625 -226 -11 C-223.9360998 -12.99193992 -222.70111617 -13.93586251 -219.81958008 -14.19946289 C-213.13212277 -13.38054826 -207.03925942 -11.6560396 -200.6875 -9.4375 C-199.65294678 -9.0854248 -198.61839355 -8.73334961 -197.55249023 -8.37060547 C-189.64019252 -5.6488861 -181.8077037 -2.72501042 -174.03979492 0.38500977 C-159.30654697 6.19625035 -148.85194806 5.20716981 -134.125 -0.625 C-131.73790699 -1.5375869 -129.34987386 -2.44771826 -126.9609375 -3.35546875 C-125.7862793 -3.8045459 -124.61162109 -4.25362305 -123.40136719 -4.71630859 C-110.49193341 -9.58838746 -97.65448244 -13.85098945 -84 -16 C-82.91976562 -16.18304688 -81.83953125 -16.36609375 -80.7265625 -16.5546875 C-52.85608856 -19.88512149 -24.32606232 -13.78036301 0 0 Z " fill="#020202" transform="translate(415,136)"/>
<path d="M0 0 C1.7180125 26.19969058 -11.63167013 51.63028236 -28.125 71 C-41.42213125 85.34630455 -60.17904146 97.29826879 -80.01171875 99.3046875 C-82.5 99.3125 -82.5 99.3125 -86 99 C-87.65315596 74.75371257 -75.41065767 50.99276254 -60 33 C-46.50405028 17.72942053 -21.50840325 0 0 0 Z " fill="#D4D4D6" transform="translate(349,15)"/>
<path d="M0 0 C0 0.66 0 1.32 0 2 C-0.99 2 -1.98 2 -3 2 C-3 2.66 -3 3.32 -3 4 C-4.32592773 5.18579102 -4.32592773 5.18579102 -6.18359375 6.50390625 C-7.19752197 7.23661743 -7.19752197 7.23661743 -8.23193359 7.98413086 C-8.95977051 8.50499268 -9.68760742 9.02585449 -10.4375 9.5625 C-41.22892607 32.20246092 -56.87305826 67.25518719 -62.69921875 104.25 C-67.84952472 140.93947063 -62.27940471 179.92623271 -51 215 C-50.7726416 215.73605469 -50.5452832 216.47210938 -50.31103516 217.23046875 C-37.75039116 257.8246631 -16.85950987 295.85441168 11 328 C11.86109375 328.99515625 12.7221875 329.9903125 13.609375 331.015625 C20.68143264 339.03129467 28.41887457 345.60895299 37 352 C23.39093649 350.72361128 13.29403178 341.21250518 4 332 C2.92492187 330.99839844 2.92492187 330.99839844 1.828125 329.9765625 C-4.20177584 324.26021651 -9.07658558 317.65879949 -14 311 C-14.50724609 310.32114746 -15.01449219 309.64229492 -15.53710938 308.94287109 C-34.43693145 283.60306702 -48.87803799 256.59106512 -60 227 C-60.58069922 225.49608219 -61.16142535 223.99217476 -61.7421875 222.48828125 C-67.67272599 206.78540889 -71.38874991 190.31295301 -74.3125 173.8125 C-74.47186035 172.91772949 -74.6312207 172.02295898 -74.79541016 171.10107422 C-82.1361007 127.27545208 -77.59932995 78.08320494 -51.828125 40.86328125 C-41.63612185 26.82375438 -18.96894412 0 0 0 Z " fill="#BFBFC1" transform="translate(139,144)"/>
<path d="M0 0 C0 0.66 0 1.32 0 2 C-0.99 2 -1.98 2 -3 2 C-3 2.66 -3 3.32 -3 4 C-4.61739155 5.29331861 -6.29673889 6.50956534 -8 7.6875 C-29.79906569 23.24233204 -46.21748742 47.30121955 -51.546875 73.77734375 C-52.39798336 79.83048508 -52.75507447 85.89375328 -53 92 C-55.99480917 92.8723412 -58.63575911 93.10829766 -61.75 93.0625 C-62.54921875 93.05347656 -63.3484375 93.04445313 -64.171875 93.03515625 C-64.77515625 93.02355469 -65.3784375 93.01195313 -66 93 C-67.65315596 68.75371257 -55.41065767 44.99276254 -40 27 C-32.12220761 18.08632907 -13.29739442 0 0 0 Z " fill="#BEBEBF" transform="translate(329,21)"/>
<path d="M0 0 C6.6 0 13.2 0 20 0 C17.22226858 1.85182095 16.11616555 2.3341681 12.98828125 2.8515625 C12.23095703 2.98046875 11.47363281 3.109375 10.69335938 3.2421875 C9.90767578 3.36851562 9.12199219 3.49484375 8.3125 3.625 C7.51521484 3.7590625 6.71792969 3.893125 5.89648438 4.03125 C3.9320598 4.3606146 1.96616073 4.68116313 0 5 C0 3.35 0 1.7 0 0 Z " fill="#C4C4C6" transform="translate(168,128)"/>
</svg>
