<?xml version="1.0" encoding="UTF-8"?>
<svg version="1.1" xmlns="http://www.w3.org/2000/svg" width="512" height="512">
<path d="M0 0 C1.79212096 -0.00346232 3.58423979 -0.00823072 5.37635422 -0.01418173 C10.27022644 -0.02664248 15.16392193 -0.02054387 20.05779457 -0.01122308 C25.3475829 -0.00441266 30.63734164 -0.01492368 35.92712402 -0.02316284 C46.27768513 -0.03648113 56.62818087 -0.03363092 66.97874451 -0.02492492 C75.39318375 -0.01814129 83.80760471 -0.01723459 92.2220459 -0.02049637 C94.02053392 -0.02118592 94.02053392 -0.02118592 95.85535502 -0.0218894 C98.29131858 -0.0228486 100.72728213 -0.02382124 103.16324568 -0.02480717 C125.98876402 -0.03335549 148.81424618 -0.02353568 171.63975859 -0.00740607 C191.21200561 0.00599659 210.78419925 0.00366834 230.35644531 -0.01016235 C253.10201013 -0.02622802 275.84754325 -0.03253157 298.59311295 -0.02332556 C301.01996103 -0.02236995 303.44680913 -0.02142683 305.87365723 -0.02049637 C307.06761698 -0.02003354 308.26157674 -0.01957072 309.4917171 -0.01909386 C317.8930454 -0.01650694 326.29435354 -0.02086856 334.69567871 -0.02793503 C344.93837628 -0.03636117 355.18100491 -0.03404642 365.42369461 -0.0180928 C370.64657128 -0.01022513 375.86933312 -0.00709284 381.09220886 -0.01704025 C385.87887785 -0.02601879 390.6653262 -0.02100245 395.45197535 -0.0051076 C397.1779148 -0.00177314 398.90387313 -0.00342358 400.62980032 -0.01073496 C416.57260163 -0.07305944 430.44205367 1.32110468 442.59082031 12.77938843 C452.30707387 23.08210427 455.35625972 32.75877076 455.3152771 46.70266724 C455.31980821 47.83611454 455.32433933 48.96956185 455.32900774 50.13735604 C455.3416585 53.93181204 455.34003091 57.72612463 455.33837891 61.52059937 C455.34327781 64.2426711 455.35111273 66.96473281 455.35873413 69.6867981 C455.37532335 76.3116681 455.38084274 82.93650252 455.38195889 89.56139156 C455.38291039 94.94872144 455.3870258 100.33603961 455.39336014 105.72336578 C455.41096724 121.01012529 455.42019989 136.29685676 455.41869919 151.58362648 C455.41857932 152.81893196 455.41857932 152.81893196 455.41845703 154.07919312 C455.41837527 154.9037401 455.41829351 155.72828708 455.41820927 156.57782033 C455.41739662 169.93630275 455.43653026 183.29467236 455.46473376 196.65312216 C455.49348958 210.38192557 455.50727256 224.11067401 455.50554621 237.8395083 C455.50488322 245.54219088 455.51033558 253.24475519 455.53190231 260.94741058 C455.55014972 267.5064029 455.5544324 274.06522335 455.54088347 280.62423012 C455.53437136 283.96752656 455.53636266 287.31022573 455.55158997 290.65353394 C455.56706153 294.2864148 455.55772024 297.91843722 455.54232788 301.55130005 C455.55261501 302.59616758 455.56290213 303.64103511 455.57350099 304.7175653 C455.46314864 316.54717865 451.19385571 327.07793207 442.90722656 335.57626343 C429.60919087 347.8339766 415.42306282 348.83530414 398.09570312 348.76190186 C396.30358216 348.76536418 394.51146333 348.77013258 392.71934891 348.77608359 C387.82547669 348.78854433 382.9317812 348.78244573 378.03790855 348.77312493 C372.74812022 348.76631451 367.45836148 348.77682553 362.1685791 348.7850647 C351.81801799 348.79838299 341.46752226 348.79553277 331.11695862 348.78682677 C322.70251938 348.78004314 314.28809842 348.77913645 305.87365723 348.78239822 C304.07516921 348.78308777 304.07516921 348.78308777 302.2403481 348.78379125 C299.80438454 348.78475046 297.36842099 348.7857231 294.93245745 348.78670903 C272.1069391 348.79525734 249.28145695 348.78543754 226.45594454 348.76930793 C206.88369751 348.75590526 187.31150387 348.75823351 167.73925781 348.77206421 C144.993693 348.78812987 122.24815987 348.79443342 99.50259018 348.78522742 C97.07574209 348.7842718 94.648894 348.78332869 92.2220459 348.78239822 C91.02808614 348.7819354 89.83412638 348.78147257 88.60398602 348.78099572 C80.20265773 348.77840879 71.80134959 348.78277042 63.40002441 348.78983688 C53.15732684 348.79826303 42.91469822 348.79594828 32.67200851 348.77999465 C27.44913184 348.77212698 22.22637 348.7689947 17.00349426 348.77894211 C12.21682528 348.78792064 7.43037692 348.78290431 2.64372778 348.76700945 C0.91778832 348.76367499 -0.80817 348.76532543 -2.53409719 348.77263682 C-18.4768985 348.83496129 -32.34635055 347.44079717 -44.49511719 335.98251343 C-54.21137075 325.67979758 -57.26055659 316.0031311 -57.21957397 302.05923462 C-57.22410509 300.92578731 -57.2286362 299.79234001 -57.23330462 298.62454581 C-57.24595537 294.83008982 -57.24432778 291.03577723 -57.24267578 287.24130249 C-57.24757468 284.51923075 -57.25540961 281.79716905 -57.26303101 279.07510376 C-57.27962023 272.45023375 -57.28513962 265.82539934 -57.28625576 259.20051029 C-57.28720727 253.81318042 -57.29132268 248.42586225 -57.29765701 243.03853607 C-57.31526412 227.75177656 -57.32449677 212.4650451 -57.32299607 197.17827538 C-57.32291615 196.35473839 -57.32283624 195.5312014 -57.32275391 194.68270874 C-57.32267214 193.85816176 -57.32259038 193.03361478 -57.32250614 192.18408152 C-57.3216935 178.8255991 -57.34082713 165.4672295 -57.36903064 152.1087797 C-57.39778645 138.37997628 -57.41156944 124.65122784 -57.40984309 110.92239356 C-57.40918009 103.21971098 -57.41463246 95.51714666 -57.43619919 87.81449127 C-57.45444659 81.25549895 -57.45872928 74.6966785 -57.44518034 68.13767174 C-57.43866823 64.7943753 -57.44065954 61.45167613 -57.45588684 58.10836792 C-57.4713584 54.47548705 -57.46201712 50.84346464 -57.44662476 47.21060181 C-57.45691188 46.16573427 -57.46719901 45.12086674 -57.47779787 44.04433656 C-57.36744552 32.21472321 -53.09815259 21.68396978 -44.81152344 13.18563843 C-31.51348775 0.92792526 -17.32735969 -0.07340228 0 0 Z " fill="#EC1F33" transform="translate(56.9521484375,81.61904907226563)"/>
<path d="M0 0 C1.79212096 -0.00346232 3.58423979 -0.00823072 5.37635422 -0.01418173 C10.27022644 -0.02664248 15.16392193 -0.02054387 20.05779457 -0.01122308 C25.3475829 -0.00441266 30.63734164 -0.01492368 35.92712402 -0.02316284 C46.27768513 -0.03648113 56.62818087 -0.03363092 66.97874451 -0.02492492 C75.39318375 -0.01814129 83.80760471 -0.01723459 92.2220459 -0.02049637 C94.02053392 -0.02118592 94.02053392 -0.02118592 95.85535502 -0.0218894 C98.29131858 -0.0228486 100.72728213 -0.02382124 103.16324568 -0.02480717 C125.98876402 -0.03335549 148.81424618 -0.02353568 171.63975859 -0.00740607 C191.21200561 0.00599659 210.78419925 0.00366834 230.35644531 -0.01016235 C253.10201013 -0.02622802 275.84754325 -0.03253157 298.59311295 -0.02332556 C301.01996103 -0.02236995 303.44680913 -0.02142683 305.87365723 -0.02049637 C307.06761698 -0.02003354 308.26157674 -0.01957072 309.4917171 -0.01909386 C317.8930454 -0.01650694 326.29435354 -0.02086856 334.69567871 -0.02793503 C344.93837628 -0.03636117 355.18100491 -0.03404642 365.42369461 -0.0180928 C370.64657128 -0.01022513 375.86933312 -0.00709284 381.09220886 -0.01704025 C385.87887785 -0.02601879 390.6653262 -0.02100245 395.45197535 -0.0051076 C397.1779148 -0.00177314 398.90387313 -0.00342358 400.62980032 -0.01073496 C416.57260163 -0.07305944 430.44205367 1.32110468 442.59082031 12.77938843 C452.30707387 23.08210427 455.35625972 32.75877076 455.3152771 46.70266724 C455.31980821 47.83611454 455.32433933 48.96956185 455.32900774 50.13735604 C455.3416585 53.93181204 455.34003091 57.72612463 455.33837891 61.52059937 C455.34327781 64.2426711 455.35111273 66.96473281 455.35873413 69.6867981 C455.37532335 76.3116681 455.38084274 82.93650252 455.38195889 89.56139156 C455.38291039 94.94872144 455.3870258 100.33603961 455.39336014 105.72336578 C455.41096724 121.01012529 455.42019989 136.29685676 455.41869919 151.58362648 C455.41857932 152.81893196 455.41857932 152.81893196 455.41845703 154.07919312 C455.41837527 154.9037401 455.41829351 155.72828708 455.41820927 156.57782033 C455.41739662 169.93630275 455.43653026 183.29467236 455.46473376 196.65312216 C455.49348958 210.38192557 455.50727256 224.11067401 455.50554621 237.8395083 C455.50488322 245.54219088 455.51033558 253.24475519 455.53190231 260.94741058 C455.55014972 267.5064029 455.5544324 274.06522335 455.54088347 280.62423012 C455.53437136 283.96752656 455.53636266 287.31022573 455.55158997 290.65353394 C455.56706153 294.2864148 455.55772024 297.91843722 455.54232788 301.55130005 C455.55261501 302.59616758 455.56290213 303.64103511 455.57350099 304.7175653 C455.46314864 316.54717865 451.19385571 327.07793207 442.90722656 335.57626343 C429.60919087 347.8339766 415.42306282 348.83530414 398.09570312 348.76190186 C396.30358216 348.76536418 394.51146333 348.77013258 392.71934891 348.77608359 C387.82547669 348.78854433 382.9317812 348.78244573 378.03790855 348.77312493 C372.74812022 348.76631451 367.45836148 348.77682553 362.1685791 348.7850647 C351.81801799 348.79838299 341.46752226 348.79553277 331.11695862 348.78682677 C322.70251938 348.78004314 314.28809842 348.77913645 305.87365723 348.78239822 C304.07516921 348.78308777 304.07516921 348.78308777 302.2403481 348.78379125 C299.80438454 348.78475046 297.36842099 348.7857231 294.93245745 348.78670903 C272.1069391 348.79525734 249.28145695 348.78543754 226.45594454 348.76930793 C206.88369751 348.75590526 187.31150387 348.75823351 167.73925781 348.77206421 C144.993693 348.78812987 122.24815987 348.79443342 99.50259018 348.78522742 C97.07574209 348.7842718 94.648894 348.78332869 92.2220459 348.78239822 C91.02808614 348.7819354 89.83412638 348.78147257 88.60398602 348.78099572 C80.20265773 348.77840879 71.80134959 348.78277042 63.40002441 348.78983688 C53.15732684 348.79826303 42.91469822 348.79594828 32.67200851 348.77999465 C27.44913184 348.77212698 22.22637 348.7689947 17.00349426 348.77894211 C12.21682528 348.78792064 7.43037692 348.78290431 2.64372778 348.76700945 C0.91778832 348.76367499 -0.80817 348.76532543 -2.53409719 348.77263682 C-18.4768985 348.83496129 -32.34635055 347.44079717 -44.49511719 335.98251343 C-54.21137075 325.67979758 -57.26055659 316.0031311 -57.21957397 302.05923462 C-57.22410509 300.92578731 -57.2286362 299.79234001 -57.23330462 298.62454581 C-57.24595537 294.83008982 -57.24432778 291.03577723 -57.24267578 287.24130249 C-57.24757468 284.51923075 -57.25540961 281.79716905 -57.26303101 279.07510376 C-57.27962023 272.45023375 -57.28513962 265.82539934 -57.28625576 259.20051029 C-57.28720727 253.81318042 -57.29132268 248.42586225 -57.29765701 243.03853607 C-57.31526412 227.75177656 -57.32449677 212.4650451 -57.32299607 197.17827538 C-57.32291615 196.35473839 -57.32283624 195.5312014 -57.32275391 194.68270874 C-57.32267214 193.85816176 -57.32259038 193.03361478 -57.32250614 192.18408152 C-57.3216935 178.8255991 -57.34082713 165.4672295 -57.36903064 152.1087797 C-57.39778645 138.37997628 -57.41156944 124.65122784 -57.40984309 110.92239356 C-57.40918009 103.21971098 -57.41463246 95.51714666 -57.43619919 87.81449127 C-57.45444659 81.25549895 -57.45872928 74.6966785 -57.44518034 68.13767174 C-57.43866823 64.7943753 -57.44065954 61.45167613 -57.45588684 58.10836792 C-57.4713584 54.47548705 -57.46201712 50.84346464 -57.44662476 47.21060181 C-57.45691188 46.16573427 -57.46719901 45.12086674 -57.47779787 44.04433656 C-57.36744552 32.21472321 -53.09815259 21.68396978 -44.81152344 13.18563843 C-31.51348775 0.92792526 -17.32735969 -0.07340228 0 0 Z M-35.76855469 28.37704468 C-39.83251453 35.25761036 -40.38566636 40.62715211 -40.33982849 48.52630615 C-40.34521403 49.64074683 -40.35059957 50.7551875 -40.3561483 51.90339911 C-40.37044282 55.63349652 -40.3633202 59.36323981 -40.35620117 63.09335327 C-40.36190397 65.7694155 -40.36876737 68.4454524 -40.3769989 71.12150574 C-40.39417809 77.63342948 -40.3950287 84.1452567 -40.389786 90.65719722 C-40.38574118 95.95158569 -40.38719156 101.24594568 -40.39253426 106.54033279 C-40.39328268 107.29445948 -40.3940311 108.04858616 -40.3948022 108.82556517 C-40.39633371 110.35768385 -40.39787206 111.88980253 -40.39941717 113.42192121 C-40.4131392 127.78387624 -40.40770677 142.14577677 -40.39623196 156.50773056 C-40.38630138 169.63800817 -40.39923771 182.76814483 -40.42316615 195.89840071 C-40.44756711 209.38989849 -40.45716248 222.88133066 -40.45051342 236.37285006 C-40.44702322 243.9435585 -40.44924001 251.51415858 -40.46676445 259.08485031 C-40.48149898 265.53009093 -40.48210572 271.97514687 -40.46469354 278.42038392 C-40.45619098 281.70666406 -40.45619029 284.99254725 -40.46934509 288.27882195 C-40.48253593 291.84673478 -40.47102275 295.41375392 -40.45335388 298.98162842 C-40.46295889 300.01286689 -40.47256389 301.04410537 -40.48245996 302.10659349 C-40.39984952 310.22572537 -38.32229983 317.85858232 -32.64388847 323.97840953 C-23.06494421 331.91985775 -12.82751623 332.24204911 -1.03759766 332.14285278 C0.76263117 332.1497757 2.5628515 332.15931138 4.36305428 332.17121625 C9.28409424 332.19616271 14.20443216 332.1839301 19.12547398 332.16529894 C24.44256301 332.15168798 29.7595338 332.17269517 35.07659912 332.18917847 C45.48250375 332.21582579 55.88814837 332.21011 66.29406309 332.19270262 C74.75288745 332.17913951 83.21163907 332.17732015 91.67047119 332.18384552 C93.47792161 332.18522462 93.47792161 332.18522462 95.32188618 332.18663158 C97.76993102 332.18854997 100.21797584 332.19049525 102.66602063 332.19246712 C125.60886175 332.20956689 148.55155891 332.18991931 171.49437642 332.15766492 C191.17047667 332.13085924 210.84636452 332.13551566 230.52246094 332.16317749 C253.38449792 332.19530337 276.2464088 332.20791902 299.10846519 332.18950391 C301.54738742 332.18759266 303.98630967 332.18570643 306.42523193 332.18384552 C307.62515561 332.18291987 308.82507929 332.18199421 310.06136429 332.18104051 C318.5077576 332.175865 326.95407077 332.18459344 335.40045166 332.19872284 C345.69707713 332.21556915 355.99342824 332.21095859 366.29002237 332.17903838 C371.5412369 332.1632945 376.79199436 332.1570521 382.04320526 332.17693329 C386.85477325 332.19487417 391.66546256 332.1848867 396.47695136 332.15306798 C398.21299048 332.14639191 399.94910456 332.14971668 401.68509507 332.1643227 C412.74963094 332.25024045 422.3854193 331.27945579 431.06966972 323.59095836 C437.82599624 316.64025157 438.48981514 308.3341219 438.44226074 299.12207031 C438.4513974 297.45018601 438.4513974 297.45018601 438.46071863 295.74452627 C438.47733138 292.01987724 438.47257512 288.29557072 438.46777344 284.57089233 C438.47511474 281.89630464 438.48360872 279.22174237 438.49343872 276.54716492 C438.51445608 270.04240223 438.51903571 263.53772875 438.51725084 257.03293611 C438.5159414 251.7438232 438.5197566 246.45473803 438.5271759 241.16563034 C438.52927518 239.64007008 438.53137278 238.11450982 438.53346872 236.58894956 C438.53451225 235.82955345 438.53555578 235.07015733 438.53663093 234.28774922 C438.55551823 219.93720885 438.55448768 205.58671965 438.5476616 191.23617201 C438.54208665 178.11954048 438.56291214 165.00310431 438.59602207 151.88651843 C438.62978762 138.40515212 438.64492388 124.92387932 438.64030504 111.44246995 C438.63806332 103.87897982 438.64325994 96.31567026 438.66819763 88.75221634 C438.68924781 82.31322361 438.6927661 75.87451048 438.67389804 69.43550612 C438.66476291 66.15306377 438.66625784 62.87124826 438.68425369 59.58882713 C438.70245019 56.02334428 438.68969157 52.45924044 438.66931152 48.89379883 C438.68182937 47.86615532 438.69434722 46.8385118 438.7072444 45.77972758 C438.61248034 38.02588329 436.63283247 31.53460987 431.49070883 25.5768019 C422.061852 16.82749433 411.67042772 16.80159885 399.49406433 16.85955811 C397.69642974 16.85351291 395.89880029 16.84573285 394.1011799 16.83637297 C389.17350615 16.8158229 384.24612359 16.82017391 379.31842601 16.82873416 C373.99925471 16.83367048 368.68015334 16.81563804 363.36100769 16.80065918 C352.94472298 16.77516575 342.52854139 16.77157774 332.11223074 16.77625971 C323.64476337 16.77982652 315.17732729 16.77632577 306.70986366 16.76781082 C305.50449025 16.76662044 304.29911683 16.76543007 303.05721695 16.76420362 C300.60844752 16.7617801 298.1596781 16.75935183 295.71090869 16.75691886 C272.74808869 16.73516786 249.78532745 16.73949277 226.82250414 16.75168855 C205.82136455 16.7620261 184.82041053 16.73951821 163.81930765 16.70149212 C142.2492705 16.66273565 120.67932113 16.6462233 99.10924894 16.65373862 C87.00175293 16.65756287 74.89441484 16.65258557 62.78694725 16.62430954 C52.47928775 16.60048026 42.17188336 16.59767375 31.86422034 16.62188987 C26.60693853 16.63366655 21.35012334 16.63586966 16.09287262 16.61188507 C11.27565424 16.59016375 6.45929195 16.59637644 1.6421136 16.62440844 C-0.09604239 16.62970154 -1.83426551 16.62497144 -3.57235561 16.60893671 C-16.03122493 16.50201893 -27.44636781 18.03264417 -35.76855469 28.37704468 Z " fill="#141B21" transform="translate(56.9521484375,81.61904907226563)"/>
<path d="M0 0 C4.14264335 0.59180619 4.87892646 1.35451386 7.5 4.5 C8.85620117 7.20141602 8.85620117 7.20141602 10.04296875 10.25390625 C10.47673828 11.35541016 10.91050781 12.45691406 11.35742188 13.59179688 C11.79634766 14.73712891 12.23527344 15.88246094 12.6875 17.0625 C13.36329102 18.78629883 13.36329102 18.78629883 14.05273438 20.54492188 C17.19879358 28.59638074 17.19879358 28.59638074 18.5 32.5 C19.1798999 32.51981934 19.8597998 32.53963867 20.56030273 32.56005859 C23.68637741 32.65621282 26.81186473 32.76552066 29.9375 32.875 C31.54141602 32.92140625 31.54141602 32.92140625 33.17773438 32.96875 C49.01414196 33.54990257 49.01414196 33.54990257 53.20483398 36.83740234 C55.04942102 39.20528882 55.16487505 41.46531589 55.015625 44.40234375 C53.97054837 48.6539055 50.79458305 50.83939035 47.5 53.5 C46.95311523 53.9434375 46.40623047 54.386875 45.84277344 54.84375 C35.69060115 63.03959924 35.69060115 63.03959924 30.5 66.5 C31.11533 70.88511032 32.16384698 75.02825886 33.36743164 79.27709961 C37.89109609 95.37130306 37.89109609 95.37130306 36.5 101.5 C34.9375 104.125 34.9375 104.125 32.5 105.5 C25.51444827 106.51705351 21.53213762 103.50800818 16 99.75 C14.365419 98.67060844 12.73001561 97.59246112 11.09375 96.515625 C10.31902344 96.00064453 9.54429688 95.48566406 8.74609375 94.95507812 C5.73174087 93.00230169 2.64145567 91.2396233 -0.5 89.5 C-0.97308594 89.80703857 -1.44617188 90.11407715 -1.93359375 90.43041992 C-4.12195142 91.85013296 -6.31097214 93.26882055 -8.5 94.6875 C-9.61568359 95.41163086 -9.61568359 95.41163086 -10.75390625 96.15039062 C-12.25440975 97.12245594 -13.75670074 98.09176746 -15.26074219 99.05834961 C-16.75074432 100.01762377 -18.23582908 100.98458026 -19.71582031 101.95922852 C-20.76141113 102.63683228 -20.76141113 102.63683228 -21.828125 103.328125 C-22.7547998 103.93575684 -22.7547998 103.93575684 -23.70019531 104.55566406 C-26.76647711 106.16450535 -29.1544723 106.07903364 -32.5 105.5 C-34.9375 104.125 -34.9375 104.125 -36.5 101.5 C-37.44911219 93.99060999 -35.64532417 87.19908513 -33.5 80.0625 C-32.93432454 78.12722744 -32.37168002 76.1910656 -31.8125 74.25390625 C-31.56113281 73.41158447 -31.30976562 72.5692627 -31.05078125 71.70141602 C-30.37864359 69.3931628 -30.37864359 69.3931628 -30.5 66.5 C-32.58460006 64.66771464 -34.65043086 63.02045049 -36.875 61.375 C-38.15781949 60.38875686 -39.43905697 59.40045274 -40.71875 58.41015625 C-41.35683594 57.91918457 -41.99492188 57.42821289 -42.65234375 56.92236328 C-53.89655155 48.26634391 -53.89655155 48.26634391 -55.25 44.3046875 C-55.44479915 41.00527697 -54.82450453 38.91829819 -52.80981445 36.32128906 C-49.95586153 34.07094673 -48.27144848 33.89306916 -44.66796875 33.671875 C-43.53939453 33.59453125 -42.41082031 33.5171875 -41.24804688 33.4375 C-40.07306641 33.375625 -38.89808594 33.31375 -37.6875 33.25 C-36.52412109 33.17265625 -35.36074219 33.0953125 -34.16210938 33.015625 C-28.60149413 32.66116347 -23.071568 32.40239589 -17.5 32.5 C-17.42394531 31.73945313 -17.34789062 30.97890625 -17.26953125 30.1953125 C-16.1864788 24.99446163 -14.20113478 20.27860342 -12.1875 15.375 C-11.79626953 14.38628906 -11.40503906 13.39757812 -11.00195312 12.37890625 C-10.61330078 11.42628906 -10.22464844 10.47367188 -9.82421875 9.4921875 C-9.47447998 8.62964355 -9.12474121 7.76709961 -8.7644043 6.87841797 C-6.53750776 2.68949615 -4.75607986 0.67943998 0 0 Z " fill="#151B21" transform="translate(103.5,159.5)"/>
<path d="M0 0 C3.61280022 1.80640011 4.22828243 6.48217554 5.5859375 10.1171875 C7.11888405 13.24236583 7.91575279 14.43682351 11 16 C14.49858868 16.57767496 14.49858868 16.57767496 18.25 16.6875 C20.14492187 16.78611328 20.14492187 16.78611328 22.078125 16.88671875 C23.04234375 16.92410156 24.0065625 16.96148437 25 17 C22.35491959 19.72287689 19.81978775 22.14310118 16.75 24.375 C13.75563192 26.79756807 13.75563192 26.79756807 13 30.375 C13 34.29404529 13.80808782 37.28403849 15 41 C15 42.32 15 43.64 15 45 C11.95583161 43.89302968 9.29545481 42.58765168 6.5625 40.875 C3.13204067 38.92738438 0.99862636 38.20027473 -3 39 C-5.45741123 40.44112591 -7.75127335 42.00093552 -10.046875 43.6875 C-12 45 -12 45 -14 45 C-13.855625 43.845 -13.71125 42.69 -13.5625 41.5 C-13.47871094 40.77167969 -13.39492187 40.04335937 -13.30859375 39.29296875 C-13 37 -13 37 -12.53515625 34.86328125 C-12.01173983 32.53746648 -12.01173983 32.53746648 -12 29 C-13.95524698 26.20913543 -13.95524698 26.20913543 -17 24 C-18.27529159 22.92191845 -19.54606089 21.83846702 -20.8125 20.75 C-21.41707031 20.24984375 -22.02164063 19.7496875 -22.64453125 19.234375 C-23.09183594 18.82703125 -23.53914063 18.4196875 -24 18 C-24 17.67 -24 17.34 -24 17 C-22.67935547 16.94392578 -22.67935547 16.94392578 -21.33203125 16.88671875 C-19.58986328 16.78810547 -19.58986328 16.78810547 -17.8125 16.6875 C-16.66394531 16.62949219 -15.51539062 16.57148438 -14.33203125 16.51171875 C-10.6863868 15.95183666 -8.84385005 15.337411 -6 13 C-4.11511515 9.86011049 -4.11511515 9.86011049 -2.6875 6.3125 C-2.17574219 5.13300781 -1.66398437 3.95351562 -1.13671875 2.73828125 C-0.76160156 1.83464844 -0.38648437 0.93101562 0 0 Z " fill="#F9DB00" transform="translate(103,192)"/>
<path d="M0 0 C3.02508145 1.73602105 5.41790069 3.83580137 7 7 C7.42073356 10.05933407 7.47561341 12.94550496 7 16 C4.54910329 19.19978182 1.92003156 21.84704954 -2 23 C-6.50753706 22.91804478 -8.4384181 22.48833209 -11.875 19.5 C-12.57625 18.675 -13.2775 17.85 -14 17 C-14.33 16.67 -14.66 16.34 -15 16 C-15.55720584 12.21896039 -15.84003776 8.52021759 -13.953125 5.10546875 C-9.92368602 0.2345881 -6.23482876 -1.06420083 0 0 Z " fill="#FEDA01" transform="translate(179,135)"/>
<path d="M0 0 C2.99042422 0.82192946 4.83782644 2.38470144 7.00390625 4.55078125 C8.75381393 8.05059661 8.55493825 11.73200131 8.00390625 15.55078125 C6.70304129 18.49292443 5.60594428 19.38241623 3.00390625 21.55078125 C-1.15855858 23.06362781 -4.16082458 22.85021737 -8.30859375 21.36328125 C-12.62019447 18.45545751 -12.62019447 18.45545751 -13.99609375 15.55078125 C-14.52114152 12.44133169 -14.59981726 9.65248003 -13.99609375 6.55078125 C-9.93700009 1.39463525 -6.64817701 -1.01620385 0 0 Z " fill="#FEDA01" transform="translate(203.99609375,180.44921875)"/>
<path d="M0 0 C3.02508145 1.73602105 5.41790069 3.83580137 7 7 C7.42068924 10.05901174 7.49028455 12.94758326 7 16 C4.5625 19 4.5625 19 2 21 C1.67 21.33 1.34 21.66 1 22 C-2.38168693 22.43836682 -5.62344355 22.48685233 -9 22 C-12.0625 19.5625 -12.0625 19.5625 -14 17 C-14.33 16.67 -14.66 16.34 -15 16 C-15.55720584 12.21896039 -15.84003776 8.52021759 -13.953125 5.10546875 C-9.92368602 0.2345881 -6.23482876 -1.06420083 0 0 Z " fill="#FEDB01" transform="translate(179,278)"/>
<path d="M0 0 C3.66401256 0.64865294 5.2615637 2.54024352 7.44921875 5.43359375 C7.77921875 5.76359375 8.10921875 6.09359375 8.44921875 6.43359375 C8.88758557 9.81528068 8.93607108 13.0570373 8.44921875 16.43359375 C6.01171875 19.49609375 6.01171875 19.49609375 3.44921875 21.43359375 C3.11921875 21.76359375 2.78921875 22.09359375 2.44921875 22.43359375 C-1.33182086 22.99079959 -5.03056366 23.27363151 -8.4453125 21.38671875 C-10.59191946 19.61093684 -12.2978376 17.93948105 -13.55078125 15.43359375 C-14.00330512 9.4376525 -12.9668015 6.42278396 -9.25 1.82421875 C-6.39749287 -0.51024686 -3.55209151 -0.0881541 0 0 Z " fill="#FEDB01" transform="translate(203.55078125,232.56640625)"/>
</svg>
