<?xml version="1.0" encoding="UTF-8"?>
<svg version="1.1" xmlns="http://www.w3.org/2000/svg" width="512" height="512">
<path d="M0 0 C3.20780898 3.32352153 4.74337841 5.5344892 5.51171875 10.14453125 C4.86906821 13.48631406 4.32054754 15.05084427 1.88671875 17.39453125 C0.89671875 17.72453125 -0.09328125 18.05453125 -1.11328125 18.39453125 C-0.0871875 18.27335937 0.93890625 18.1521875 1.99609375 18.02734375 C34.94991344 14.33696102 68.25339141 12.82980595 101.234375 16.9921875 C104.49258847 17.35111369 107.61333459 17.4711315 110.88671875 17.39453125 C110.55671875 16.73453125 110.22671875 16.07453125 109.88671875 15.39453125 C109.27228609 11.63113124 109.35936193 9.25183121 111.37890625 5.96875 C116.14934828 -0.23678352 116.14934828 -0.23678352 118.88671875 -1.60546875 C131.6859445 -2.69956135 144.43756722 -1.61072028 156.88671875 1.39453125 C157.66917969 1.58257324 158.45164062 1.77061523 159.2578125 1.96435547 C187.17244665 8.89340269 214.17623982 20.58181928 236.88671875 38.39453125 C237.4489917 38.78044434 238.01126465 39.16635742 238.59057617 39.56396484 C244.75438259 44.14269503 247.43208538 50.57479733 250.57421875 57.39453125 C251.18389445 58.69141307 251.79376162 59.98820489 252.40380859 61.28491211 C282.5357838 125.88415311 314.59918289 215.688067 300.88671875 287.39453125 C299.79296875 289.671875 299.79296875 289.671875 298.38671875 291.33203125 C297.84402344 291.98300781 297.30132812 292.63398438 296.7421875 293.3046875 C296.12988281 293.99433594 295.51757812 294.68398438 294.88671875 295.39453125 C294.22285156 296.17699219 293.55898438 296.95945312 292.875 297.765625 C264.58602877 330.32079656 223.3213562 347.37443702 180.83398438 350.54785156 C178.78870429 350.68082347 176.74768049 350.76643825 174.69921875 350.83203125 C173.50941406 350.87199219 172.31960938 350.91195313 171.09375 350.953125 C166.89637195 350.22203479 165.60713805 348.60252988 162.88671875 345.39453125 C162.20351563 344.67394531 161.5203125 343.95335937 160.81640625 343.2109375 C155.87425917 337.78960886 151.25974822 332.18259712 146.78735352 326.37304688 C144.38103681 323.25328665 141.92348947 320.3098053 139.19921875 317.45703125 C136.39407841 313.74211566 136.68880449 311.92516311 136.88671875 307.39453125 C136.1275415 307.56581543 135.36836426 307.73709961 134.58618164 307.91357422 C90.17200762 317.86702685 21.52658937 326.71446656 -21.11328125 305.39453125 C-20.78328125 306.05453125 -20.45328125 306.71453125 -20.11328125 307.39453125 C-19.57164253 311.44226145 -19.92051511 313.08990855 -22.1328125 316.5859375 C-23.04865317 317.72201605 -23.98067113 318.84518348 -24.92578125 319.95703125 C-25.41916992 320.5605542 -25.91255859 321.16407715 -26.42089844 321.78588867 C-27.96877281 323.66969203 -29.53752604 325.53401282 -31.11328125 327.39453125 C-31.84973877 328.26948242 -31.84973877 328.26948242 -32.60107422 329.16210938 C-34.47708497 331.38975335 -36.35551725 333.61496735 -38.25146484 335.82568359 C-41.53431333 339.65943324 -44.61498779 343.6027661 -47.578125 347.6875 C-49.41734004 349.73263225 -50.48094625 350.54211404 -53.11328125 351.39453125 C-55.94465127 351.48328893 -58.60974666 351.44696256 -61.42578125 351.26953125 C-62.25537354 351.21949951 -63.08496582 351.16946777 -63.93969727 351.11791992 C-104.36574635 348.22954221 -140.61624103 333.16568082 -170.11328125 305.39453125 C-170.7371875 304.82347656 -171.36109375 304.25242187 -172.00390625 303.6640625 C-181.71611514 294.45496353 -185.88901011 287.07934583 -186.28125 273.87109375 C-186.75538719 224.06092009 -176.03767447 175.21031274 -161.86328125 127.70703125 C-161.54633301 126.62010986 -161.22938477 125.53318848 -160.90283203 124.41333008 C-160.59587402 123.41325928 -160.28891602 122.41318848 -159.97265625 121.3828125 C-159.70936523 120.51180908 -159.44607422 119.64080566 -159.17480469 118.7434082 C-157.90813152 115.94058793 -156.49142787 114.33287212 -154.11328125 112.39453125 C-153.12328125 112.39453125 -152.13328125 112.39453125 -151.11328125 112.39453125 C-150.57106175 110.75561919 -150.05574934 109.10780136 -149.55078125 107.45703125 C-149.26074219 106.54050781 -148.97070312 105.62398438 -148.671875 104.6796875 C-148.15892219 101.66295106 -148.24662966 100.01306837 -148.72265625 97.07421875 C-149.41812841 91.83273341 -148.02827841 88.21528831 -145.92578125 83.45703125 C-145.57354492 82.62163818 -145.22130859 81.78624512 -144.85839844 80.92553711 C-143.63847072 78.06857023 -142.3800909 75.23101366 -141.11328125 72.39453125 C-140.61940918 71.27949219 -140.12553711 70.16445312 -139.61669922 69.015625 C-138.0472381 65.48909711 -136.46022615 61.97119355 -134.86328125 58.45703125 C-134.35643799 57.33756104 -133.84959473 56.21809082 -133.32739258 55.06469727 C-132.83907959 54.00951904 -132.3507666 52.95434082 -131.84765625 51.8671875 C-131.41678711 50.93140869 -130.98591797 49.99562988 -130.54199219 49.03149414 C-128.23668632 44.77660543 -125.51158473 41.40393138 -121.56640625 38.59765625 C-120.55900391 37.87884277 -120.55900391 37.87884277 -119.53125 37.14550781 C-118.81582031 36.65018555 -118.10039063 36.15486328 -117.36328125 35.64453125 C-116.61175781 35.12084961 -115.86023438 34.59716797 -115.0859375 34.05761719 C-107.69370081 28.9839673 -100.06663603 24.52299022 -92.11328125 20.39453125 C-91.48083496 20.06001953 -90.84838867 19.72550781 -90.19677734 19.38085938 C-72.15441053 9.94345517 -18.97606997 -14.41620103 0 0 Z M-8.11328125 19.39453125 C-4.11328125 20.39453125 -4.11328125 20.39453125 -4.11328125 20.39453125 Z M-45.11328125 177.39453125 C-51.31877855 187.78513137 -52.95432198 198.7363797 -50.4296875 210.609375 C-46.88250446 221.1037381 -39.8943027 229.52117827 -30.11328125 234.76953125 C-22.81431472 237.76173194 -13.33977822 237.69421328 -5.80078125 235.45703125 C3.2017333 231.28992844 9.95000985 223.10359793 13.84765625 214.19921875 C17.45019274 204.18482831 17.37274323 192.69315703 13.20703125 182.890625 C8.1307351 173.29372192 1.07387677 166.8842852 -9.30078125 163.51953125 C-23.03323526 159.97567215 -36.51258077 166.51286641 -45.11328125 177.39453125 Z M107.88671875 171.39453125 C100.01631463 179.5818644 96.50893857 190.37020284 96.67578125 201.58203125 C97.51928419 212.82873705 101.50220963 221.45048922 109.63671875 229.20703125 C117.28813766 235.41478622 124.77545966 237.09519514 134.5546875 236.77734375 C139.3044014 236.23165564 142.84604533 234.90334395 146.88671875 232.39453125 C147.58410156 231.97042969 148.28148437 231.54632813 149 231.109375 C156.99949621 225.7010527 161.79942246 217.7513767 163.88671875 208.39453125 C164.16702799 206.10400434 164.437412 203.81224668 164.69921875 201.51953125 C165.1484375 198.171875 165.1484375 198.171875 165.88671875 195.39453125 C169.01171875 193.08203125 169.01171875 193.08203125 171.88671875 192.39453125 C170.89671875 187.93953125 170.89671875 187.93953125 169.88671875 183.39453125 C168.52546875 183.42546875 168.52546875 183.42546875 167.13671875 183.45703125 C161.96079282 183.35749421 161.96079282 183.35749421 159.88671875 182.39453125 C159.17961197 180.74461543 158.52109219 179.07375505 157.88671875 177.39453125 C152.81976094 170.17795498 145.29246341 164.87107205 136.6328125 162.875 C125.95248003 161.51962786 116.02445337 164.25985736 107.88671875 171.39453125 Z " fill="#6564D1" transform="translate(198.11328125,81.60546875)"/>
<path d="M0 0 C3.20780898 3.32352153 4.74337841 5.5344892 5.51171875 10.14453125 C4.86906821 13.48631406 4.32054754 15.05084427 1.88671875 17.39453125 C0.89671875 17.72453125 -0.09328125 18.05453125 -1.11328125 18.39453125 C-0.0871875 18.27335937 0.93890625 18.1521875 1.99609375 18.02734375 C34.94991344 14.33696102 68.25339141 12.82980595 101.234375 16.9921875 C104.49258847 17.35111369 107.61333459 17.4711315 110.88671875 17.39453125 C110.55671875 16.73453125 110.22671875 16.07453125 109.88671875 15.39453125 C109.27228609 11.63113124 109.35936193 9.25183121 111.37890625 5.96875 C116.14934828 -0.23678352 116.14934828 -0.23678352 118.88671875 -1.60546875 C131.6859445 -2.69956135 144.43756722 -1.61072028 156.88671875 1.39453125 C157.66917969 1.58257324 158.45164062 1.77061523 159.2578125 1.96435547 C187.17244665 8.89340269 214.17623982 20.58181928 236.88671875 38.39453125 C237.4489917 38.78044434 238.01126465 39.16635742 238.59057617 39.56396484 C244.75438259 44.14269503 247.43208538 50.57479733 250.57421875 57.39453125 C251.18389445 58.69141307 251.79376162 59.98820489 252.40380859 61.28491211 C282.5357838 125.88415311 314.59918289 215.688067 300.88671875 287.39453125 C299.79296875 289.671875 299.79296875 289.671875 298.38671875 291.33203125 C297.84402344 291.98300781 297.30132812 292.63398438 296.7421875 293.3046875 C296.12988281 293.99433594 295.51757812 294.68398438 294.88671875 295.39453125 C294.22285156 296.17699219 293.55898438 296.95945312 292.875 297.765625 C264.58602877 330.32079656 223.3213562 347.37443702 180.83398438 350.54785156 C178.78870429 350.68082347 176.74768049 350.76643825 174.69921875 350.83203125 C173.50941406 350.87199219 172.31960938 350.91195313 171.09375 350.953125 C166.89637195 350.22203479 165.60713805 348.60252988 162.88671875 345.39453125 C162.20351563 344.67394531 161.5203125 343.95335937 160.81640625 343.2109375 C155.87425917 337.78960886 151.25974822 332.18259712 146.78735352 326.37304688 C144.38103681 323.25328665 141.92348947 320.3098053 139.19921875 317.45703125 C136.39407841 313.74211566 136.68880449 311.92516311 136.88671875 307.39453125 C136.1275415 307.56581543 135.36836426 307.73709961 134.58618164 307.91357422 C90.17200762 317.86702685 21.52658937 326.71446656 -21.11328125 305.39453125 C-20.78328125 306.05453125 -20.45328125 306.71453125 -20.11328125 307.39453125 C-19.57164253 311.44226145 -19.92051511 313.08990855 -22.1328125 316.5859375 C-23.04865317 317.72201605 -23.98067113 318.84518348 -24.92578125 319.95703125 C-25.41916992 320.5605542 -25.91255859 321.16407715 -26.42089844 321.78588867 C-27.96877281 323.66969203 -29.53752604 325.53401282 -31.11328125 327.39453125 C-31.84973877 328.26948242 -31.84973877 328.26948242 -32.60107422 329.16210938 C-34.47708497 331.38975335 -36.35551725 333.61496735 -38.25146484 335.82568359 C-41.53431333 339.65943324 -44.61498779 343.6027661 -47.578125 347.6875 C-49.41734004 349.73263225 -50.48094625 350.54211404 -53.11328125 351.39453125 C-55.94465127 351.48328893 -58.60974666 351.44696256 -61.42578125 351.26953125 C-62.25537354 351.21949951 -63.08496582 351.16946777 -63.93969727 351.11791992 C-104.36574635 348.22954221 -140.61624103 333.16568082 -170.11328125 305.39453125 C-170.7371875 304.82347656 -171.36109375 304.25242187 -172.00390625 303.6640625 C-181.71611514 294.45496353 -185.88901011 287.07934583 -186.28125 273.87109375 C-186.75538719 224.06092009 -176.03767447 175.21031274 -161.86328125 127.70703125 C-161.54633301 126.62010986 -161.22938477 125.53318848 -160.90283203 124.41333008 C-160.59587402 123.41325928 -160.28891602 122.41318848 -159.97265625 121.3828125 C-159.70936523 120.51180908 -159.44607422 119.64080566 -159.17480469 118.7434082 C-157.91052836 115.94589152 -156.46381367 114.35395595 -154.11328125 112.39453125 C-151.17578125 111.83203125 -151.17578125 111.83203125 -148.11328125 112.39453125 C-145.17578125 114.51953125 -145.17578125 114.51953125 -143.11328125 117.39453125 C-143.49920847 121.91631183 -144.88475599 126.0381294 -146.30078125 130.33203125 C-149.40716284 139.98449351 -151.88094887 149.7883974 -154.39013672 159.609375 C-155.04684422 162.13865222 -155.72970959 164.6581958 -156.4296875 167.17578125 C-164.24778918 195.42348971 -169.46125368 225.57245369 -170.04443359 254.93652344 C-170.12474713 257.80388747 -170.28893161 260.66315063 -170.4453125 263.52734375 C-171.43359615 276.13268284 -171.43359615 276.13268284 -166.67578125 287.33203125 C-165.19769442 288.73273133 -163.67613675 290.08908724 -162.11328125 291.39453125 C-160.73625564 292.89267192 -159.361297 294.39271477 -157.98828125 295.89453125 C-137.2313755 316.04824487 -108.00677657 328.31481162 -79.98828125 333.64453125 C-79.08166748 333.82016602 -78.17505371 333.99580078 -77.2409668 334.17675781 C-66.45155157 336.57773647 -66.45155157 336.57773647 -56.21972656 334.20410156 C-54.54424871 332.53272776 -53.1798028 330.81687755 -51.80078125 328.89453125 C-51.30223633 328.25757324 -50.80369141 327.62061523 -50.29003906 326.96435547 C-48.86463922 325.13016699 -47.48632583 323.26805083 -46.11328125 321.39453125 C-45.42363281 320.49992187 -44.73398438 319.6053125 -44.0234375 318.68359375 C-42.68892407 316.94401624 -41.39436933 315.17382025 -40.11328125 313.39453125 C-41.26828125 313.06453125 -42.42328125 312.73453125 -43.61328125 312.39453125 C-65.7498548 304.93471414 -86.81459957 290.00800062 -101.61328125 272.01953125 C-102.32629395 271.18180176 -102.32629395 271.18180176 -103.05371094 270.32714844 C-105.48825925 267.19701489 -106.12010195 265.61506721 -105.99609375 261.60546875 C-105.11328125 258.39453125 -105.11328125 258.39453125 -103.48828125 256.39453125 C-100.0460555 254.94517304 -97.73824033 255.63078201 -94.11328125 256.39453125 C-91.11328125 257.9609375 -91.11328125 257.9609375 -88.11328125 259.95703125 C-86.96963193 260.69221069 -85.82370928 261.42386326 -84.67578125 262.15234375 C-83.7940625 262.71356934 -83.7940625 262.71356934 -82.89453125 263.28613281 C-53.08756298 281.83378028 -18.42011316 291.60851471 15.88671875 297.39453125 C16.86930664 297.56259277 17.85189453 297.7306543 18.86425781 297.90380859 C32.81054085 300.19027871 46.66051768 300.67658672 60.76171875 300.70703125 C61.57144135 300.71070709 62.38116394 300.71438293 63.21542358 300.71817017 C80.67502211 300.75960926 97.6848593 298.92136254 114.82421875 295.64453125 C115.51016113 295.51414459 116.19610352 295.38375793 116.90283203 295.24942017 C128.48630386 293.03200983 139.75254516 290.31391635 150.88671875 286.39453125 C151.83981934 286.06050293 152.79291992 285.72647461 153.77490234 285.38232422 C186.57604692 274.36172033 186.57604692 274.36172033 214.88671875 255.39453125 C221.0793793 255.73856795 221.0793793 255.73856795 223.88671875 258.01953125 C225.35704391 261.51155349 224.73865971 263.72698272 223.88671875 267.39453125 C222.30159613 269.75926953 220.83782348 271.68923203 218.94921875 273.76953125 C218.45268799 274.33260986 217.95615723 274.89568848 217.44458008 275.47583008 C202.64889 291.98061658 181.44444692 307.16880803 159.88671875 313.39453125 C158.89671875 313.39453125 157.90671875 313.39453125 156.88671875 313.39453125 C158.47644923 315.47907851 160.08215592 317.5455574 161.71875 319.59375 C163.24453468 321.56489886 164.69470612 323.5957487 166.0859375 325.6640625 C169.06763261 329.94269426 171.73180835 333.75716339 176.9375 335.296875 C180.69218475 335.40717714 184.20165228 335.0321487 187.88671875 334.39453125 C189.02923096 334.21398193 189.02923096 334.21398193 190.19482422 334.02978516 C218.5831652 329.40736953 245.93331305 319.43800566 267.88671875 300.39453125 C268.716875 299.69714844 269.54703125 298.99976563 270.40234375 298.28125 C272.97746491 296.05764077 275.44273932 293.76129174 277.88671875 291.39453125 C278.75425781 290.57339844 279.62179687 289.75226563 280.515625 288.90625 C285.00740786 284.16140895 287.45944548 280.59092625 287.57421875 273.95703125 C287.44484104 271.9485963 287.30930663 269.93997724 287.11767578 267.93652344 C286.84241031 264.90685735 286.65917592 261.87649344 286.4765625 258.83984375 C286.03100336 251.6840272 285.48238692 244.53930604 284.88671875 237.39453125 C284.78254639 236.13552002 284.78254639 236.13552002 284.67626953 234.85107422 C281.74717407 201.11057761 273.99557153 167.6518177 263.88671875 135.39453125 C263.56509766 134.3586084 263.24347656 133.32268555 262.91210938 132.25537109 C256.9452044 113.20340129 249.7461106 94.7317074 241.88671875 76.39453125 C241.38817383 75.22583496 240.88962891 74.05713867 240.37597656 72.85302734 C238.9963094 69.66306964 237.57748535 66.49479051 236.13671875 63.33203125 C235.73791504 62.41711914 235.33911133 61.50220703 234.92822266 60.55957031 C230.34159649 50.82521763 221.96932643 46.11501998 212.88671875 40.95703125 C212.05696533 40.48531494 211.22721191 40.01359863 210.37231445 39.52758789 C207.88670871 38.13152378 205.39099565 36.7567843 202.88671875 35.39453125 C201.87424072 34.84297363 201.87424072 34.84297363 200.84130859 34.28027344 C186.670321 26.72965272 171.13181012 22.24898786 155.88671875 17.39453125 C157.25908691 18.01509399 157.25908691 18.01509399 158.65917969 18.64819336 C181.01677482 28.81661875 203.30153763 40.08829412 221.88671875 56.39453125 C222.73943359 57.13703125 222.73943359 57.13703125 223.609375 57.89453125 C224.88671875 59.39453125 224.88671875 59.39453125 225.38671875 62.83203125 C224.88671875 66.39453125 224.88671875 66.39453125 222.76171875 68.89453125 C219.12924649 70.78973417 217.81591231 70.38159808 213.88671875 69.39453125 C211.72290159 68.32380519 209.60078838 67.16713336 207.51171875 65.95703125 C189.69774111 56.07171338 170.26915468 49.45851792 150.88671875 43.39453125 C150.19932617 43.17571289 149.51193359 42.95689453 148.80371094 42.73144531 C132.33720833 37.52363942 114.97743467 34.69846924 97.88671875 32.39453125 C97.1189209 32.28866699 96.35112305 32.18280273 95.56005859 32.07373047 C82.01275423 30.29689633 68.46406252 30.21112744 54.82421875 30.20703125 C53.92611481 30.20603424 53.02801086 30.20503723 52.10269165 30.20401001 C49.5188984 30.20433489 46.93531949 30.21338701 44.3515625 30.2265625 C43.57221344 30.227771 42.79286438 30.22897949 41.98989868 30.23022461 C38.15344376 30.26324048 34.62403283 30.54547155 30.88671875 31.39453125 C29.33060816 31.55273776 27.77150108 31.68346527 26.2109375 31.7890625 C11.93268831 32.8416832 -2.05138738 34.69974323 -16.11328125 37.39453125 C-16.85143066 37.53584473 -17.58958008 37.6771582 -18.35009766 37.82275391 C-43.04902281 42.72931434 -87.60960086 51.89085086 -106.11328125 70.39453125 C-112.3059418 70.05049455 -112.3059418 70.05049455 -115.11328125 67.76953125 C-116.57972843 64.2867192 -115.98654902 62.03574596 -115.11328125 58.39453125 C-102.15677119 43.24684669 -79.5480271 33.11190417 -62.11328125 24.39453125 C-76.03876997 30.24676195 -89.66994767 36.15945037 -102.40917969 44.32910156 C-103.9339905 45.282436 -105.50969698 46.15321381 -107.08984375 47.01171875 C-115.49736505 51.91398948 -118.41526917 59.84985796 -122.11328125 68.39453125 C-123.05723456 70.52534223 -124.00263962 72.65551045 -124.94921875 74.78515625 C-126.88338386 79.14960472 -128.79655417 83.5223901 -130.6953125 87.90234375 C-135.57729155 99.03720478 -135.57729155 99.03720478 -139.11328125 101.39453125 C-142.60575495 101.24591535 -144.63482124 100.71350459 -147.55078125 98.76953125 C-149.35102079 96.03316714 -149.24585727 94.79037287 -148.70385742 91.63818359 C-147.37031208 86.57192411 -145.13628188 81.81198883 -143.05078125 77.01953125 C-142.55634521 75.87009033 -142.06190918 74.72064941 -141.55249023 73.53637695 C-138.66197835 66.85449334 -135.73092174 60.19044106 -132.67578125 53.58203125 C-132.3708374 52.91445801 -132.06589355 52.24688477 -131.75170898 51.55908203 C-128.29242785 44.23949905 -123.87798425 40.15493599 -117.36328125 35.64453125 C-116.61175781 35.12084961 -115.86023438 34.59716797 -115.0859375 34.05761719 C-107.69370081 28.9839673 -100.06663603 24.52299022 -92.11328125 20.39453125 C-91.48083496 20.06001953 -90.84838867 19.72550781 -90.19677734 19.38085938 C-72.15441053 9.94345517 -18.97606997 -14.41620103 0 0 Z M-8.11328125 19.39453125 C-4.11328125 20.39453125 -4.11328125 20.39453125 -4.11328125 20.39453125 Z " fill="#000001" transform="translate(198.11328125,81.60546875)"/>
<path d="M0 0 C12.67972533 8.12848314 20.48108445 20.52003686 24 35 C24.29231088 37.90173706 24.33433252 40.7725461 24.3125 43.6875 C24.30686035 44.47914551 24.3012207 45.27079102 24.29541016 46.08642578 C24.00359848 60.29852114 19.16025362 73.56037739 9.265625 83.96484375 C-1.64079687 93.76181926 -13.81287901 97.42428997 -28.234375 97.2734375 C-40.92228708 96.35211608 -51.64329634 90.51735694 -60 81 C-70.16059303 68.9192949 -74.11176005 54.70361074 -73 39 C-71.42998769 24.36835749 -64.39636754 11.94190293 -53.171875 2.56640625 C-37.54833916 -8.70164747 -16.48970977 -9.87268521 0 0 Z M-52 23 C-58.2054973 33.39060012 -59.84104073 44.34184845 -57.31640625 56.21484375 C-53.76922321 66.70920685 -46.78102145 75.12664702 -37 80.375 C-29.70103347 83.36720069 -20.22649697 83.29968203 -12.6875 81.0625 C-3.68498545 76.89539719 3.0632911 68.70906668 6.9609375 59.8046875 C10.56347399 49.79029706 10.48602448 38.29862578 6.3203125 28.49609375 C1.24401635 18.89919067 -5.81284198 12.48975395 -16.1875 9.125 C-29.91995401 5.5811409 -43.39929952 12.11833516 -52 23 Z " fill="#010102" transform="translate(205,236)"/>
<path d="M0 0 C2.24131966 1.43845889 4.36286351 2.96060355 6.48046875 4.57421875 C7.51171875 5.31671875 8.54296875 6.05921875 9.60546875 6.82421875 C14.15730233 11.17814652 19.16732479 16.22566605 19.7734375 22.70703125 C19.38100631 26.54762453 18.42209125 28.08515356 15.48046875 30.57421875 C11.64748905 30.64266482 9.42304269 30.29501059 6.35546875 27.94921875 C4.48046875 25.57421875 4.48046875 25.57421875 3.4453125 23.96484375 C-1.24525733 16.77793675 -8.37099741 11.99147178 -16.7734375 10.0546875 C-26.48888263 8.82176299 -35.60608112 10.96274438 -43.55078125 16.77734375 C-50.7588591 23.35614496 -54.94543309 33.02692828 -55.6796875 42.6796875 C-56.1130499 54.53120716 -52.9363674 64.54400855 -44.92578125 73.3203125 C-38.47660552 79.41965087 -31.24260585 81.79020233 -22.45703125 82.07421875 C-16.29766035 81.88048583 -11.76737179 80.7649058 -6.51953125 77.57421875 C-5.895625 77.22359375 -5.27171875 76.87296875 -4.62890625 76.51171875 C2.40563422 72.10748472 6.52158533 64.91513213 8.90625 57.11328125 C9.85422781 52.92154261 10.31850463 48.66642161 10.7578125 44.39453125 C11.48046875 41.57421875 11.48046875 41.57421875 13.32421875 39.68359375 C16.6317599 37.9818878 18.95928317 38.67791697 22.48046875 39.57421875 C24.64587702 41.18824991 25.38142325 42.07809892 25.9140625 44.74609375 C25.93267566 57.03077638 22.77836842 68.63215253 15.48046875 78.57421875 C14.71089844 79.63382813 14.71089844 79.63382813 13.92578125 80.71484375 C6.96578269 89.43981803 -4.23863536 96.5020829 -15.45117188 97.79736328 C-29.86936371 98.87501164 -42.24412227 95.99295661 -53.51953125 86.57421875 C-54.60041016 85.67896484 -54.60041016 85.67896484 -55.703125 84.765625 C-61.40813954 79.57826774 -64.5961473 73.65044719 -67.51953125 66.57421875 C-67.86113281 65.76855469 -68.20273437 64.96289062 -68.5546875 64.1328125 C-72.6049681 52.39641801 -72.56777887 35.64309625 -67.8359375 24.16796875 C-60.73093607 10.1687968 -51.29223452 0.56903293 -36.26171875 -4.53125 C-24.07657379 -7.44398298 -10.93092382 -6.18571658 0 0 Z " fill="#010102" transform="translate(351.51953125,235.42578125)"/>
<path d="M0 0 C-1.02996094 0.46148437 -2.05992187 0.92296875 -3.12109375 1.3984375 C-22.83437644 10.36667189 -43.54584495 21.54584495 -59 37 C-59.66 37 -60.32 37 -61 37 C-60.26854077 32.24551501 -57.85508491 28.48553633 -54.14941406 25.51806641 C-51.88701895 23.98305462 -49.58880662 22.54088094 -47.25 21.125 C-46.40381104 20.60325195 -45.55762207 20.08150391 -44.68579102 19.54394531 C-37.00740973 14.87571988 -29.14750895 10.77682808 -21 7 C-20.21044922 6.62794434 -19.42089844 6.25588867 -18.60742188 5.87255859 C-16.14024232 4.71371722 -13.66582339 3.57229164 -11.1875 2.4375 C-10.41591553 2.07817383 -9.64433105 1.71884766 -8.84936523 1.34863281 C-3.34885533 -1.11628511 -3.34885533 -1.11628511 0 0 Z " fill="#5F5EC3" transform="translate(141,105)"/>
<path d="M0 0 C-1.08796875 0.49628906 -2.1759375 0.99257812 -3.296875 1.50390625 C-12.1591519 5.58688021 -20.68482388 9.87310914 -29 15 C-29.33 13.68 -29.66 12.36 -30 11 C-26.2152734 9.26024971 -22.42503467 7.53333548 -18.62915039 5.81811523 C-17.33849333 5.23275122 -16.04941189 4.64390018 -14.76196289 4.05151367 C-12.91174404 3.2009121 -11.05623256 2.36298661 -9.19921875 1.52734375 C-7.52605591 0.76538696 -7.52605591 0.76538696 -5.8190918 -0.01196289 C-3 -1 -3 -1 0 0 Z " fill="#5352AB" transform="translate(141,105)"/>
</svg>
