<?xml version="1.0" encoding="UTF-8"?>
<svg version="1.1" xmlns="http://www.w3.org/2000/svg" width="512" height="512">
<path d="M0 0 C1.19975049 -0.00445784 2.39950098 -0.00891569 3.63560754 -0.01350862 C5.59972724 -0.01323207 5.59972724 -0.01323207 7.60352612 -0.01294994 C9.01552102 -0.01625172 10.42751499 -0.01997795 11.83950776 -0.02409142 C15.71527406 -0.0340842 19.59102488 -0.03782383 23.46680224 -0.04048073 C27.64907175 -0.04439199 31.83132909 -0.05396986 36.01359081 -0.0626936 C46.112853 -0.08243672 56.21211616 -0.09252232 66.31139281 -0.10142139 C71.07251013 -0.10580855 75.83362633 -0.11117432 80.59474277 -0.11641026 C96.43145835 -0.13342177 112.26817324 -0.14791399 128.10489655 -0.155159 C132.21269068 -0.15706876 136.32048481 -0.15898911 140.42827892 -0.16094494 C141.44919812 -0.16142868 142.47011731 -0.16191242 143.52197345 -0.16241082 C160.04505028 -0.17070385 176.56805455 -0.19602882 193.09109972 -0.22852562 C210.07206955 -0.26164945 227.05300257 -0.27961264 244.03400487 -0.28280324 C253.56118469 -0.2849636 263.08825875 -0.29364252 272.61540699 -0.31926441 C280.73256911 -0.34104441 288.84959977 -0.34898617 296.96678779 -0.33929763 C301.10260755 -0.33477373 305.2381565 -0.33652664 309.37393856 -0.35605907 C329.81496613 -0.44721508 348.12270744 0.04785804 366.93682384 9.13422108 C367.82369884 9.55187733 368.71057384 9.96953358 369.62432384 10.39984608 C391.69504349 21.56352404 408.06994326 41.23712397 416.93682384 64.13422108 C419.76182125 72.74503048 422.05528818 81.09261716 422.07104492 90.19739723 C422.07550277 91.39714772 422.07996061 92.59689821 422.08455354 93.83300477 C422.084277 95.79712447 422.084277 95.79712447 422.08399487 97.80092335 C422.08729664 99.21291825 422.09102287 100.62491222 422.09513634 102.03690499 C422.10512912 105.9126713 422.10886876 109.78842211 422.11152565 113.66419947 C422.11543691 117.84646898 422.12501479 122.02872633 422.13373852 126.21098804 C422.15348164 136.31025023 422.16356724 146.40951339 422.17246631 156.50879005 C422.17685347 161.26990736 422.18221924 166.03102357 422.18745518 170.79214001 C422.20446669 186.62885558 422.21895892 202.46557047 422.22620392 218.30229378 C422.22811368 222.41008791 422.23003403 226.51788204 422.23198986 230.62567616 C422.2324736 231.64659535 422.23295734 232.66751455 422.23345574 233.71937069 C422.24174877 250.24244751 422.26707374 266.76545178 422.29957054 283.28849695 C422.33269438 300.26946678 422.35065756 317.2503998 422.35384816 334.2314021 C422.35600852 343.75858192 422.36468744 353.28565598 422.39030933 362.81280422 C422.41208933 370.92996634 422.4200311 379.046997 422.41034255 387.16418502 C422.40581865 391.30000479 422.40757156 395.43555373 422.427104 399.57133579 C422.51826 420.01236336 422.02318688 438.32010467 412.93682384 457.13422108 C412.51916759 458.02109608 412.10151134 458.90797108 411.67119884 459.82172108 C400.50752088 481.89244073 380.83392096 498.2673405 357.93682384 507.13422108 C348.14671069 510.3461194 339.07580836 512.27498106 328.79790783 512.32709217 C327.89798107 512.33526966 326.99805431 512.34344715 326.07085705 512.35187244 C323.10821717 512.37658307 320.14562449 512.39319923 317.18291759 512.40765858 C316.16863249 512.41298225 315.15434738 512.41830593 314.10932636 512.42379093 C308.74787815 512.45045106 303.38645273 512.46985478 298.02495861 512.48431873 C293.5892036 512.49769271 289.15390482 512.52561916 284.71831799 512.56634998 C279.35564741 512.61558533 273.99339252 512.64042715 268.63050556 512.64754581 C266.58872526 512.6542659 264.54695452 512.66950753 262.50530338 512.69343662 C259.65182153 512.72499239 256.79995524 512.72514028 253.94634533 512.71771717 C253.1041293 512.73412251 252.26191326 512.75052784 251.39417553 512.76743031 C250.61345684 512.75911182 249.83273815 512.75079334 249.02836132 512.74222279 C248.35494922 512.74553293 247.68153711 512.74884308 246.98771858 512.75225353 C243.55459944 511.7176909 242.09245465 509.95269135 239.93682384 507.13422108 C239.4444222 504.1459908 239.25943676 501.7295503 239.30190563 498.74603748 C239.29410568 497.9040814 239.28630573 497.06212532 239.27826941 496.19465542 C239.25833232 493.3745858 239.27412041 490.5558631 239.28985119 487.73578358 C239.28307583 485.7136198 239.27417316 483.69146219 239.2633009 481.66931629 C239.24049144 476.1775626 239.24935088 470.68627816 239.26519632 465.19451618 C239.27784668 459.44995824 239.26611761 453.70544073 239.2582655 447.96088123 C239.24916644 438.3135096 239.26116367 428.66632929 239.28496838 419.0189867 C239.31218001 407.86200662 239.30336604 396.70548337 239.27583635 385.54851437 C239.25315369 375.97300332 239.24994111 366.39762987 239.26302969 356.82210064 C239.27082879 351.10145929 239.27185305 345.38103274 239.25534725 339.66040516 C239.24091416 334.28238232 239.25090341 328.90494902 239.27981853 323.52698994 C239.2864355 321.55210061 239.2845213 319.57716175 239.27350521 317.60229206 C239.25986225 314.90832431 239.27694961 312.21625131 239.30190563 309.52240467 C239.29075202 308.73884413 239.27959841 307.95528358 239.26810682 307.14797878 C239.34076238 303.11112975 239.76582997 301.34395593 242.35150623 298.1724596 C246.17774059 295.15589474 248.02855872 295.01092499 252.85528088 295.02069569 C254.71698421 295.02080898 254.71698421 295.02080898 256.61629772 295.02092457 C257.97574433 295.02603157 259.33519054 295.03124757 260.69463634 295.03656483 C262.08183269 295.03842966 263.46902969 295.03985325 264.85622692 295.04085255 C268.50916897 295.0446726 272.16207132 295.05449852 275.81499767 295.06555653 C279.54179885 295.07578164 283.26860644 295.08035253 286.99541759 295.08539295 C294.30923778 295.09612124 301.62302525 295.11319153 308.93682384 295.13422108 C308.92667248 294.5251894 308.91652111 293.91615772 308.90606213 293.28867054 C308.84948304 287.26667826 309.17576517 281.39303802 309.81182384 275.40765858 C309.90060802 274.53396626 309.9893922 273.66027393 310.08086681 272.76010609 C310.36147977 270.00930385 310.64902143 267.25927942 310.93682384 264.50922108 C311.12999387 262.627758 311.32270625 260.74624789 311.51494884 258.86468983 C311.98362673 254.28730686 312.45851359 249.71060713 312.93682384 245.13422108 C312.16087872 245.1386623 311.38493359 245.14310352 310.58547497 245.14767933 C303.25871154 245.18781955 295.93200174 245.21823769 288.6051569 245.23784542 C284.83871155 245.24826495 281.07235736 245.26239053 277.30596447 245.28509998 C273.66848516 245.30689391 270.03109332 245.31880347 266.39355373 245.32397556 C265.0085376 245.32765959 263.62352604 245.33485355 262.23854733 245.34568119 C260.29280583 245.36028238 258.34697558 245.36103873 256.40117931 245.36127186 C255.29531475 245.36571308 254.18945019 245.3701543 253.05007458 245.37473011 C248.53968646 245.02628754 245.2334493 244.10645369 241.59417248 241.3776598 C239.46457269 238.4949672 239.43010754 236.80459546 239.41924572 233.23920155 C239.40663708 232.05051472 239.39402843 230.86182789 239.38103771 229.63712025 C239.3931831 227.71369297 239.3931831 227.71369297 239.40557384 225.75140858 C239.40287625 224.41344388 239.3989916 223.0754811 239.39397717 221.73752308 C239.38808232 218.93141508 239.39663539 216.12581661 239.41533947 213.31976795 C239.43799794 209.74893408 239.42509154 206.17931164 239.40104961 202.60852337 C239.38647689 199.84237299 239.39125166 197.07650141 239.40156078 194.31034184 C239.4054774 192.36188685 239.39345856 190.41342044 239.38103771 188.46500111 C239.47720157 179.25485379 240.74242673 171.30160398 247.06182384 164.25922108 C254.75101626 157.33830251 263.56145359 156.55822955 273.50713634 156.74359608 C274.66937725 156.74925587 275.83161816 156.75491566 277.02907848 156.76074696 C280.70709596 156.78296988 284.38410547 156.83314166 288.06182384 156.88422108 C290.56962218 156.90430419 293.07743593 156.92255177 295.58526134 156.93890858 C301.70314074 156.97937074 307.81886658 157.05769347 313.93682384 157.13422108 C313.93682384 140.96422108 313.93682384 124.79422108 313.93682384 108.13422108 C301.48163409 108.25456775 301.48163409 108.25456775 289.02666759 108.39203358 C283.93604822 108.45200392 278.84546229 108.51010334 273.75469494 108.55609608 C269.6437471 108.59336478 265.53299082 108.63982814 261.42220974 108.69228458 C259.86522488 108.71061049 258.30819931 108.72579589 256.75115108 108.73756504 C233.8525299 108.91660394 212.64541126 112.27131248 195.32354259 128.53265858 C178.12357642 147.28090322 176.81795562 172.49396842 176.79619884 196.57562733 C176.77790323 199.05936069 176.75833605 201.54308497 176.73760509 204.0267992 C176.70846955 207.88479016 176.68681816 211.74217661 176.68633556 215.60028553 C176.68301354 219.3634261 176.64858882 223.12522016 176.60869884 226.88812733 C176.61576855 228.04333378 176.62283825 229.19854023 176.63012218 230.38875294 C176.49457555 239.27025923 176.49457555 239.27025923 173.51983166 242.33710194 C169.94304589 244.8256388 168.24462374 245.25815296 163.93633556 245.24774647 C162.3749435 245.24763317 162.3749435 245.24763317 160.78200817 245.24751759 C159.65489422 245.2423563 158.52778027 245.23719501 157.36651134 245.23187733 C155.63946468 245.22975491 155.63946468 245.22975491 153.87752819 245.22758961 C150.18893399 245.22197823 146.5003998 245.20942378 142.81182384 245.19672108 C140.31573097 245.19170754 137.81963715 245.18714438 135.32354259 245.1830492 C129.19459444 245.17285468 123.06577657 245.1532814 116.93682384 245.13422108 C116.93682384 261.63422108 116.93682384 278.13422108 116.93682384 295.13422108 C120.62096447 295.08781483 124.30510509 295.04140858 128.10088634 294.99359608 C131.67525385 294.96238703 135.24960608 294.93810678 138.82403088 294.91449451 C141.30521996 294.89439867 143.78636179 294.86711724 146.26739025 294.83246326 C149.83700766 294.78385814 153.40599801 294.76123135 156.97588634 294.74359608 C158.08235516 294.72295094 159.18882397 294.70230579 160.32882214 294.68103504 C166.49550734 294.67924467 170.28705578 294.91500526 174.93682384 299.13422108 C176.12697865 301.51453069 176.08867887 303.03085219 176.12969494 305.68817616 C176.15378933 307.10523602 176.15378933 307.10523602 176.17837048 308.55092335 C176.22279647 312.87336001 176.26388418 317.19564275 176.2869215 321.51825428 C176.30348481 323.7986315 176.3307795 326.07895674 176.36895275 328.35907459 C176.42369165 331.64507478 176.44559141 334.92985774 176.46026134 338.21625233 C176.4942654 339.74304363 176.4942654 339.74304363 176.52895641 341.30067921 C176.51494941 345.99008099 176.45586308 348.39024963 173.716609 352.31659412 C170.93682384 354.13422108 170.93682384 354.13422108 165.93682384 354.13422108 C165.93682384 361.06422108 165.93682384 367.99422108 165.93682384 375.13422108 C167.91682384 375.46422108 169.89682384 375.79422108 171.93682384 376.13422108 C174.52166639 378.31093059 175.70734867 379.95038654 176.35479259 383.29047108 C176.62039876 387.59759804 176.34648604 389.57239864 173.74932384 393.13422108 C170.93682384 395.13422108 170.93682384 395.13422108 165.93682384 396.13422108 C165.93682384 402.07422108 165.93682384 408.01422108 165.93682384 414.13422108 C167.58682384 414.46422108 169.23682384 414.79422108 170.93682384 415.13422108 C174.6989137 417.89307316 175.80956736 419.35846112 176.57174206 424.00470448 C176.60130981 425.53913354 176.60351484 427.07424321 176.5837965 428.60883045 C176.5969389 429.87071941 176.5969389 429.87071941 176.61034679 431.15810108 C176.63230819 433.93191967 176.61780015 436.70413701 176.60088634 439.47797108 C176.60425543 441.40941136 176.60910882 443.34084957 176.61538219 445.2722826 C176.62274909 449.31745078 176.61205387 453.36206641 176.58867931 457.4071703 C176.56019167 462.58937785 176.57659662 467.77029069 176.60654163 472.95245075 C176.62461952 476.93996383 176.61885432 480.92717052 176.60590267 484.91469288 C176.60257002 486.82524742 176.60665079 488.73582988 176.61830044 490.64635181 C176.63101736 493.31818659 176.61162166 495.98793234 176.5837965 498.6596117 C176.59391766 499.44729435 176.60403881 500.234977 176.61446667 501.04652882 C176.54187778 504.81355518 176.17377537 506.82770577 173.84754658 509.83686447 C170.2033856 512.71310452 168.33563184 512.76029833 163.73034191 512.76241016 C162.6577425 512.77305174 162.6577425 512.77305174 161.56347442 512.78390831 C159.17207458 512.80148184 156.78230172 512.78338777 154.39092541 512.76532459 C152.67394299 512.77046425 150.95696585 512.77774588 149.24000072 512.78700733 C144.57588275 512.80554044 139.91233573 512.79256405 135.24824142 512.77291703 C130.35412542 512.75651328 125.46004514 512.76534731 120.5659132 512.77043629 C112.33415171 512.77496044 104.10261715 512.75908013 95.87090588 512.73114491 C86.39103865 512.69921923 76.91158359 512.69905801 67.43168759 512.71635967 C58.28482639 512.73231105 49.1381144 512.72542793 39.99125957 512.70842266 C36.11449427 512.70159854 32.23785025 512.7025369 28.36108685 512.70996761 C23.77429315 512.71771575 19.18795879 512.70523082 14.60124302 512.67811871 C12.93133372 512.67131722 11.26138083 512.67104652 9.59147358 512.67833424 C-6.22413466 512.73931982 -20.69638068 510.07273025 -35.06317616 503.13422108 C-35.95005116 502.71656483 -36.83692616 502.29890858 -37.75067616 501.86859608 C-59.8213958 490.70491812 -76.19629557 471.03131819 -85.06317616 448.13422108 C-87.88817356 439.52341167 -90.18164049 431.175825 -90.19739723 422.07104492 C-90.204084 420.27141919 -90.204084 420.27141919 -90.21090585 418.43543738 C-90.21072149 417.12602425 -90.21053712 415.81661112 -90.21034718 414.46751881 C-90.21364895 413.0555239 -90.21737518 411.64352994 -90.22148865 410.23153716 C-90.23148143 406.35577086 -90.23522107 402.48002004 -90.23787796 398.60424268 C-90.24178922 394.42197317 -90.2513671 390.23971583 -90.26009083 386.05745411 C-90.27983395 375.95819192 -90.28991955 365.85892876 -90.29881862 355.75965211 C-90.30320578 350.99853479 -90.30857155 346.23741859 -90.31380749 341.47630215 C-90.330819 325.63958657 -90.34531123 309.80287168 -90.35255623 293.96614838 C-90.35446599 289.85835424 -90.35638634 285.75056011 -90.35834217 281.642766 C-90.35882591 280.6218468 -90.35930965 279.60092761 -90.35980805 278.54907147 C-90.36810108 262.02599464 -90.39342605 245.50299038 -90.42592285 228.97994521 C-90.45904669 211.99897537 -90.47700987 195.01804235 -90.48020047 178.03704005 C-90.48236084 168.50986023 -90.49103975 158.98278617 -90.51666164 149.45563793 C-90.53844164 141.33847581 -90.54638341 133.22144516 -90.53669486 125.10425713 C-90.53217096 120.96843737 -90.53392387 116.83288842 -90.55345631 112.69710636 C-90.64461231 92.25607879 -90.14953919 73.94833748 -81.06317616 55.13422108 C-80.64551991 54.24734608 -80.22786366 53.36047108 -79.79755116 52.44672108 C-68.63387319 30.37600143 -48.96027327 14.00110166 -26.06317616 5.13422108 C-17.45236675 2.30922367 -9.10478007 0.01575674 0 0 Z " fill="#6D86F4" transform="translate(90.06317615509033,-0.13422107696533203)"/>
<path d="M0 0 C1.19975049 -0.00445784 2.39950098 -0.00891569 3.63560754 -0.01350862 C5.59972724 -0.01323207 5.59972724 -0.01323207 7.60352612 -0.01294994 C9.01552102 -0.01625172 10.42751499 -0.01997795 11.83950776 -0.02409142 C15.71527406 -0.0340842 19.59102488 -0.03782383 23.46680224 -0.04048073 C27.64907175 -0.04439199 31.83132909 -0.05396986 36.01359081 -0.0626936 C46.112853 -0.08243672 56.21211616 -0.09252232 66.31139281 -0.10142139 C71.07251013 -0.10580855 75.83362633 -0.11117432 80.59474277 -0.11641026 C96.43145835 -0.13342177 112.26817324 -0.14791399 128.10489655 -0.155159 C132.21269068 -0.15706876 136.32048481 -0.15898911 140.42827892 -0.16094494 C141.44919812 -0.16142868 142.47011731 -0.16191242 143.52197345 -0.16241082 C160.04505028 -0.17070385 176.56805455 -0.19602882 193.09109972 -0.22852562 C210.07206955 -0.26164945 227.05300257 -0.27961264 244.03400487 -0.28280324 C253.56118469 -0.2849636 263.08825875 -0.29364252 272.61540699 -0.31926441 C280.73256911 -0.34104441 288.84959977 -0.34898617 296.96678779 -0.33929763 C301.10260755 -0.33477373 305.2381565 -0.33652664 309.37393856 -0.35605907 C329.81496613 -0.44721508 348.12270744 0.04785804 366.93682384 9.13422108 C367.82369884 9.55187733 368.71057384 9.96953358 369.62432384 10.39984608 C391.69504349 21.56352404 408.06994326 41.23712397 416.93682384 64.13422108 C419.76182125 72.74503048 422.05528818 81.09261716 422.07104492 90.19739723 C422.07550277 91.39714772 422.07996061 92.59689821 422.08455354 93.83300477 C422.084277 95.79712447 422.084277 95.79712447 422.08399487 97.80092335 C422.08729664 99.21291825 422.09102287 100.62491222 422.09513634 102.03690499 C422.10512912 105.9126713 422.10886876 109.78842211 422.11152565 113.66419947 C422.11543691 117.84646898 422.12501479 122.02872633 422.13373852 126.21098804 C422.15348164 136.31025023 422.16356724 146.40951339 422.17246631 156.50879005 C422.17685347 161.26990736 422.18221924 166.03102357 422.18745518 170.79214001 C422.20446669 186.62885558 422.21895892 202.46557047 422.22620392 218.30229378 C422.22811368 222.41008791 422.23003403 226.51788204 422.23198986 230.62567616 C422.2324736 231.64659535 422.23295734 232.66751455 422.23345574 233.71937069 C422.24174877 250.24244751 422.26707374 266.76545178 422.29957054 283.28849695 C422.33269438 300.26946678 422.35065756 317.2503998 422.35384816 334.2314021 C422.35600852 343.75858192 422.36468744 353.28565598 422.39030933 362.81280422 C422.41208933 370.92996634 422.4200311 379.046997 422.41034255 387.16418502 C422.40581865 391.30000479 422.40757156 395.43555373 422.427104 399.57133579 C422.51826 420.01236336 422.02318688 438.32010467 412.93682384 457.13422108 C412.51916759 458.02109608 412.10151134 458.90797108 411.67119884 459.82172108 C400.50752088 481.89244073 380.83392096 498.2673405 357.93682384 507.13422108 C348.14671069 510.3461194 339.07580836 512.27498106 328.79790783 512.32709217 C327.89798107 512.33526966 326.99805431 512.34344715 326.07085705 512.35187244 C323.10821717 512.37658307 320.14562449 512.39319923 317.18291759 512.40765858 C316.16863249 512.41298225 315.15434738 512.41830593 314.10932636 512.42379093 C308.74787815 512.45045106 303.38645273 512.46985478 298.02495861 512.48431873 C293.5892036 512.49769271 289.15390482 512.52561916 284.71831799 512.56634998 C279.35564741 512.61558533 273.99339252 512.64042715 268.63050556 512.64754581 C266.58872526 512.6542659 264.54695452 512.66950753 262.50530338 512.69343662 C259.65182153 512.72499239 256.79995524 512.72514028 253.94634533 512.71771717 C253.1041293 512.73412251 252.26191326 512.75052784 251.39417553 512.76743031 C250.61345684 512.75911182 249.83273815 512.75079334 249.02836132 512.74222279 C248.35494922 512.74553293 247.68153711 512.74884308 246.98771858 512.75225353 C243.55459944 511.7176909 242.09245465 509.95269135 239.93682384 507.13422108 C239.4444222 504.1459908 239.25943676 501.7295503 239.30190563 498.74603748 C239.29410568 497.9040814 239.28630573 497.06212532 239.27826941 496.19465542 C239.25833232 493.3745858 239.27412041 490.5558631 239.28985119 487.73578358 C239.28307583 485.7136198 239.27417316 483.69146219 239.2633009 481.66931629 C239.24049144 476.1775626 239.24935088 470.68627816 239.26519632 465.19451618 C239.27784668 459.44995824 239.26611761 453.70544073 239.2582655 447.96088123 C239.24916644 438.3135096 239.26116367 428.66632929 239.28496838 419.0189867 C239.31218001 407.86200662 239.30336604 396.70548337 239.27583635 385.54851437 C239.25315369 375.97300332 239.24994111 366.39762987 239.26302969 356.82210064 C239.27082879 351.10145929 239.27185305 345.38103274 239.25534725 339.66040516 C239.24091416 334.28238232 239.25090341 328.90494902 239.27981853 323.52698994 C239.2864355 321.55210061 239.2845213 319.57716175 239.27350521 317.60229206 C239.25986225 314.90832431 239.27694961 312.21625131 239.30190563 309.52240467 C239.29075202 308.73884413 239.27959841 307.95528358 239.26810682 307.14797878 C239.34076238 303.11112975 239.76582997 301.34395593 242.35150623 298.1724596 C246.17774059 295.15589474 248.02855872 295.01092499 252.85528088 295.02069569 C254.71698421 295.02080898 254.71698421 295.02080898 256.61629772 295.02092457 C257.97574433 295.02603157 259.33519054 295.03124757 260.69463634 295.03656483 C262.08183269 295.03842966 263.46902969 295.03985325 264.85622692 295.04085255 C268.50916897 295.0446726 272.16207132 295.05449852 275.81499767 295.06555653 C279.54179885 295.07578164 283.26860644 295.08035253 286.99541759 295.08539295 C294.30923778 295.09612124 301.62302525 295.11319153 308.93682384 295.13422108 C308.92667248 294.5251894 308.91652111 293.91615772 308.90606213 293.28867054 C308.84948304 287.26667826 309.17576517 281.39303802 309.81182384 275.40765858 C309.90060802 274.53396626 309.9893922 273.66027393 310.08086681 272.76010609 C310.36147977 270.00930385 310.64902143 267.25927942 310.93682384 264.50922108 C311.12999387 262.627758 311.32270625 260.74624789 311.51494884 258.86468983 C311.98362673 254.28730686 312.45851359 249.71060713 312.93682384 245.13422108 C312.16087872 245.1386623 311.38493359 245.14310352 310.58547497 245.14767933 C303.25871154 245.18781955 295.93200174 245.21823769 288.6051569 245.23784542 C284.83871155 245.24826495 281.07235736 245.26239053 277.30596447 245.28509998 C273.66848516 245.30689391 270.03109332 245.31880347 266.39355373 245.32397556 C265.0085376 245.32765959 263.62352604 245.33485355 262.23854733 245.34568119 C260.29280583 245.36028238 258.34697558 245.36103873 256.40117931 245.36127186 C255.29531475 245.36571308 254.18945019 245.3701543 253.05007458 245.37473011 C248.53968646 245.02628754 245.2334493 244.10645369 241.59417248 241.3776598 C239.46457269 238.4949672 239.43010754 236.80459546 239.41924572 233.23920155 C239.40663708 232.05051472 239.39402843 230.86182789 239.38103771 229.63712025 C239.3931831 227.71369297 239.3931831 227.71369297 239.40557384 225.75140858 C239.40287625 224.41344388 239.3989916 223.0754811 239.39397717 221.73752308 C239.38808232 218.93141508 239.39663539 216.12581661 239.41533947 213.31976795 C239.43799794 209.74893408 239.42509154 206.17931164 239.40104961 202.60852337 C239.38647689 199.84237299 239.39125166 197.07650141 239.40156078 194.31034184 C239.4054774 192.36188685 239.39345856 190.41342044 239.38103771 188.46500111 C239.47720157 179.25485379 240.74242673 171.30160398 247.06182384 164.25922108 C254.75101626 157.33830251 263.56145359 156.55822955 273.50713634 156.74359608 C274.66937725 156.74925587 275.83161816 156.75491566 277.02907848 156.76074696 C280.70709596 156.78296988 284.38410547 156.83314166 288.06182384 156.88422108 C290.56962218 156.90430419 293.07743593 156.92255177 295.58526134 156.93890858 C301.70314074 156.97937074 307.81886658 157.05769347 313.93682384 157.13422108 C313.93682384 140.96422108 313.93682384 124.79422108 313.93682384 108.13422108 C301.48163409 108.25456775 301.48163409 108.25456775 289.02666759 108.39203358 C283.93604822 108.45200392 278.84546229 108.51010334 273.75469494 108.55609608 C269.6437471 108.59336478 265.53299082 108.63982814 261.42220974 108.69228458 C259.86522488 108.71061049 258.30819931 108.72579589 256.75115108 108.73756504 C233.8525299 108.91660394 212.64541126 112.27131248 195.32354259 128.53265858 C178.12357642 147.28090322 176.81795562 172.49396842 176.79619884 196.57562733 C176.77790323 199.05936069 176.75833605 201.54308497 176.73760509 204.0267992 C176.70846955 207.88479016 176.68681816 211.74217661 176.68633556 215.60028553 C176.68301354 219.3634261 176.64858882 223.12522016 176.60869884 226.88812733 C176.61576855 228.04333378 176.62283825 229.19854023 176.63012218 230.38875294 C176.49457555 239.27025923 176.49457555 239.27025923 173.51983166 242.33710194 C169.94304589 244.8256388 168.24462374 245.25815296 163.93633556 245.24774647 C162.3749435 245.24763317 162.3749435 245.24763317 160.78200817 245.24751759 C159.65489422 245.2423563 158.52778027 245.23719501 157.36651134 245.23187733 C155.63946468 245.22975491 155.63946468 245.22975491 153.87752819 245.22758961 C150.18893399 245.22197823 146.5003998 245.20942378 142.81182384 245.19672108 C140.31573097 245.19170754 137.81963715 245.18714438 135.32354259 245.1830492 C129.19459444 245.17285468 123.06577657 245.1532814 116.93682384 245.13422108 C116.93682384 261.63422108 116.93682384 278.13422108 116.93682384 295.13422108 C120.62096447 295.08781483 124.30510509 295.04140858 128.10088634 294.99359608 C131.67525385 294.96238703 135.24960608 294.93810678 138.82403088 294.91449451 C141.30521996 294.89439867 143.78636179 294.86711724 146.26739025 294.83246326 C149.83700766 294.78385814 153.40599801 294.76123135 156.97588634 294.74359608 C158.08235516 294.72295094 159.18882397 294.70230579 160.32882214 294.68103504 C166.49550734 294.67924467 170.28705578 294.91500526 174.93682384 299.13422108 C176.12697865 301.51453069 176.08867887 303.03085219 176.12969494 305.68817616 C176.15378933 307.10523602 176.15378933 307.10523602 176.17837048 308.55092335 C176.22279647 312.87336001 176.26388418 317.19564275 176.2869215 321.51825428 C176.30348481 323.7986315 176.3307795 326.07895674 176.36895275 328.35907459 C176.42369165 331.64507478 176.44559141 334.92985774 176.46026134 338.21625233 C176.4942654 339.74304363 176.4942654 339.74304363 176.52895641 341.30067921 C176.51478619 346.04472543 176.49563979 348.3732338 173.622859 352.28534412 C170.09908569 354.71086087 168.13824849 354.7344246 163.93682384 354.13422108 C160.23667005 352.45233299 157.98674468 350.63467069 155.93682384 347.13422108 C155.59624767 343.74261951 155.59624767 343.74261951 155.64385509 339.74359608 C155.64809994 339.03898243 155.65234478 338.33436878 155.65671825 337.60840321 C155.67345846 335.36661396 155.7110998 333.12573677 155.74932384 330.88422108 C155.76437681 329.3607966 155.77806415 327.83735797 155.79033947 326.31390858 C155.82334593 322.58705167 155.87509531 318.86072545 155.93682384 315.13422108 C155.28393887 315.14532413 154.63105389 315.15642719 153.95838451 315.16786671 C147.1615419 315.27850671 140.36495516 315.3539081 133.56743908 315.40887928 C131.03087505 315.43401947 128.49438342 315.46813644 125.95806408 315.51141834 C122.31147934 315.57208769 118.66585252 315.60043681 115.01885509 315.62250233 C113.88535122 315.64830875 112.75184734 315.67411518 111.58399487 315.70070362 C103.71253925 315.70350614 103.71253925 315.70350614 99.74419689 312.7912035 C96.80414611 308.46909454 96.80667615 305.20695431 96.79156017 300.08002186 C96.78820156 299.36585102 96.78484295 298.65168018 96.78138256 297.91586781 C96.77187982 295.55373872 96.76992974 293.19168059 96.76885509 290.82953358 C96.76564188 289.18670084 96.76227776 287.54386839 96.75876904 285.90103626 C96.75277935 282.45613409 96.75092895 279.011257 96.75152111 275.56634998 C96.75162269 271.15571594 96.7379745 266.74524304 96.7207489 262.33464718 C96.70962069 258.94084404 96.70760216 255.54707975 96.70813084 252.15326023 C96.70695181 250.52739246 96.70253434 248.90152366 96.69479847 247.27567387 C96.68498262 244.99940485 96.68788288 242.72348418 96.69390392 240.44720936 C96.6924789 239.15275898 96.69105389 237.8583086 96.68958569 236.52463245 C97.00512782 232.1975592 97.6264558 229.44361869 100.72936535 226.34300709 C103.43422493 224.86184836 105.18012997 224.77167326 108.25615978 224.79364491 C109.31695751 224.7938715 110.37775524 224.79409809 111.47069836 224.79433155 C113.1786961 224.81755733 113.1786961 224.81755733 114.92119884 224.84125233 C116.09192944 224.84549717 117.26266003 224.84974201 118.4688673 224.85411549 C122.20842 224.87090932 125.947434 224.90856404 129.68682384 224.94672108 C132.22197231 224.96176695 134.75712923 224.97545552 137.29229259 224.9877367 C143.50732018 225.02081523 149.72203352 225.07102225 155.93682384 225.13422108 C155.93460323 224.56618259 155.93238262 223.99814411 155.93009472 223.41289234 C155.90772921 217.42539578 155.89278892 211.43791135 155.8818922 205.45038319 C155.87690678 203.22479233 155.87011603 200.99920468 155.86138439 198.77362537 C155.7288849 164.09772874 155.7288849 164.09772874 159.43682384 151.75922108 C159.69745617 150.8763744 159.95808849 149.99352772 160.22661877 149.08392811 C167.0047904 127.35235565 180.71492542 109.02271678 200.95440197 98.11322498 C204.72794825 96.24968797 208.62207497 94.73186076 212.56182384 93.25922108 C213.32478771 92.97296864 214.08775158 92.68671619 214.87383556 92.39178944 C228.03318997 87.72329166 241.03886316 87.79333118 254.83526134 87.76312733 C256.95990591 87.7541491 259.08454987 87.74502706 261.20919323 87.73576832 C265.64201928 87.71935326 270.07477039 87.71159048 274.50762463 87.70868397 C280.18723796 87.70327228 285.86614953 87.66544569 291.5455637 87.6199398 C295.92416514 87.59022588 300.3025952 87.58296183 304.68128872 87.58195782 C306.77608654 87.57775325 308.87088476 87.56530952 310.96558285 87.54444027 C313.88800809 87.51761141 316.80877234 87.52232322 319.73125744 87.53485584 C320.59367046 87.52002155 321.45608349 87.50518726 322.34463024 87.48990345 C326.73459756 87.54356586 328.40552813 87.70879972 331.94967175 90.5466814 C335.09128152 94.63748045 335.06671399 96.83150475 335.08208752 101.98309803 C335.08712543 103.03950489 335.08712543 103.03950489 335.09226513 104.1172533 C335.1017865 106.45235412 335.10371901 108.78738329 335.10479259 111.12250233 C335.108005 112.74434406 335.11136906 114.3661855 335.11487865 115.98802662 C335.12087334 119.39182678 335.12271827 122.79560155 335.12212658 126.19940662 C335.12202508 130.55738319 335.13566258 134.91519636 335.15289879 139.27313423 C335.16402901 142.62490554 335.16604545 145.97663752 335.16551685 149.32842541 C335.16669599 150.93475564 335.17111408 152.54108691 335.17884922 154.14739895 C335.1886672 156.39743494 335.18576376 158.64711864 335.17974377 160.89716053 C335.18116879 162.17686222 335.1825938 163.45656391 335.184062 164.77504444 C334.85639191 169.22703403 333.89247971 171.8710146 331.21015453 175.41656971 C328.19005613 177.69845337 326.32761361 177.62718029 322.56353283 177.61664295 C320.62648731 177.62685474 320.62648731 177.62685474 318.65030956 177.63727283 C317.96310266 177.63159794 317.27589577 177.62592304 316.56786442 177.62007618 C314.4113602 177.60279836 312.25619454 177.61032751 310.0996809 177.62433338 C305.52447038 177.6496617 300.949576 177.64416363 296.37432384 177.63422108 C291.06848237 177.62270052 285.76329116 177.62379501 280.45753193 177.65828419 C278.33278287 177.66538794 276.20905968 177.64869234 274.08439159 177.63116932 C272.79618008 177.63797718 271.50796856 177.64478504 270.18072033 177.6517992 C268.47673328 177.64702564 268.47673328 177.64702564 266.73832226 177.64215565 C263.86054979 177.88252554 263.86054979 177.88252554 262.07360363 179.8950243 C260.85359416 182.29816456 260.54477054 183.76656025 260.5044508 186.44379139 C260.47475956 187.70464558 260.47475956 187.70464558 260.4444685 188.99097157 C260.43807858 189.88902515 260.43168865 190.78707874 260.42510509 191.71234608 C260.40715389 192.63892017 260.38920269 193.56549427 260.37070751 194.52014637 C260.31659683 197.47479188 260.28270627 200.42927577 260.24932384 203.38422108 C260.21615145 205.3894519 260.18166186 207.3946614 260.14580822 209.39984608 C260.06086982 214.31118782 259.99406212 219.22248156 259.93682384 224.13422108 C260.77762997 224.12755924 261.61843609 224.12089741 262.48472118 224.1140337 C270.41513448 224.05388 278.34547096 224.00822503 286.2760601 223.97878456 C290.35310328 223.96313998 294.42995767 223.941924 298.5068922 223.90790272 C302.44263403 223.87526584 306.37819445 223.85735897 310.31406116 223.84958935 C311.81435342 223.84405358 313.31463594 223.83324346 314.81485081 223.81703091 C316.91912056 223.79519836 319.02264429 223.79225648 321.12700939 223.79364491 C322.32391903 223.78698307 323.52082867 223.78032124 324.75400829 223.77345753 C328.28682449 224.17389271 330.11960673 224.99995029 332.93682384 227.13422108 C338.65536167 235.71202781 334.1786804 252.44159281 333.12432384 262.44672108 C332.94072052 264.22640708 332.75729084 266.00611101 332.57403088 267.78583241 C331.55171423 277.63812214 330.49440263 287.48727361 329.31182384 297.32172108 C329.20120617 298.26894032 329.09058849 299.21615955 328.97661877 300.19208241 C327.916412 308.60683414 327.916412 308.60683414 325.93682384 312.13422108 C308.31865141 325.3478504 281.95953939 315.13422108 259.93682384 315.13422108 C259.93682384 373.54422108 259.93682384 431.95422108 259.93682384 492.13422108 C306.02282415 495.07556889 306.02282415 495.07556889 356.49932384 484.63422108 C357.20202404 484.29020252 357.90472424 483.94618397 358.62871838 483.59174061 C374.73438963 475.3589838 386.50880211 462.89068023 394.43682384 446.69672108 C394.75119396 446.06620838 395.06556408 445.43569569 395.38946056 444.78607655 C400.53053403 433.47571492 401.38351845 420.98866823 401.31777477 408.75140858 C401.3212425 407.37146608 401.32601447 405.99152636 401.33195651 404.61159229 C401.34434328 400.86623864 401.33835323 397.12111778 401.32899785 393.37576389 C401.32215646 389.31842789 401.33271358 385.26112947 401.34093761 381.20380116 C401.3542233 373.27388881 401.35142036 365.34406202 401.34269969 357.41414642 C401.33590311 350.96487385 401.33501493 344.51562512 401.33827114 338.06634998 C401.33873084 337.14574252 401.33919054 336.22513506 401.33966417 335.2766304 C401.34062342 333.40598137 401.34159606 331.53533235 401.34258194 329.66468334 C401.35112071 312.15549448 401.34132552 294.64635286 401.32518084 277.13717175 C401.31177905 262.13876871 401.31410756 247.14043535 401.32793713 232.14203358 C401.34401974 214.69217757 401.35029687 197.24236288 401.34110034 179.7925005 C401.34014477 177.92903106 401.33920165 176.06556162 401.33827114 174.20209217 C401.3375769 172.82707617 401.3375769 172.82707617 401.33686864 171.42428207 C401.33428678 164.98855497 401.33863232 158.55285425 401.3457098 152.11713123 C401.35415486 144.26583196 401.3517818 136.41462259 401.33586757 128.56333351 C401.3280251 124.56344441 401.32482386 120.56370476 401.33481503 116.56381702 C401.34384677 112.89228771 401.33869197 109.2210444 401.32288237 105.54954052 C401.31801795 103.61380305 401.32765459 101.67804524 401.33805406 99.7423296 C401.26081155 88.05146132 399.70961212 76.14702632 394.43682384 65.57172108 C394.09280529 64.86902088 393.74878674 64.16632069 393.39434338 63.44232655 C385.16158657 47.33665529 372.693283 35.56224281 356.49932384 27.63422108 C355.86881115 27.31985096 355.23829845 27.00548084 354.58867931 26.68158436 C343.27831769 21.54051089 330.791271 20.68752647 318.55401134 20.75327015 C317.17406884 20.74980242 315.79412913 20.74503045 314.41419506 20.73908842 C310.66884141 20.72670164 306.92372055 20.73269169 303.17836666 20.74204707 C299.12103066 20.74888846 295.06373224 20.73833134 291.00640392 20.73010731 C283.07649157 20.71682162 275.14666479 20.71962456 267.21674919 20.72834523 C260.76747662 20.73514181 254.31822789 20.73602999 247.86895275 20.73277378 C246.94834529 20.73231408 246.02773783 20.73185438 245.07923317 20.73138075 C243.20858414 20.7304215 241.33793512 20.72944886 239.46728611 20.72846298 C221.95809724 20.71992421 204.44895563 20.7297194 186.93977451 20.74586408 C171.94137148 20.75926588 156.94303812 20.75693736 141.94463634 20.7431078 C124.49478033 20.72702518 107.04496565 20.72074805 89.59510326 20.72994459 C87.73163383 20.73090016 85.86816439 20.73184327 84.00469494 20.73277378 C82.62967894 20.73346802 82.62967894 20.73346802 81.22688484 20.73417629 C74.79115774 20.73675814 68.35545702 20.7324126 61.919734 20.72533512 C54.06843473 20.71689006 46.21722535 20.71926312 38.36593628 20.73517735 C34.36604718 20.74301982 30.36630753 20.74622107 26.36641979 20.7362299 C22.69489048 20.72719815 19.02364717 20.73235295 15.35214329 20.74816255 C13.41640582 20.75302697 11.48064801 20.74339033 9.54493237 20.73299086 C-2.14744443 20.81024334 -14.04833686 22.36312625 -24.62567616 27.63422108 C-25.32692616 27.97606434 -26.02817616 28.3179076 -26.75067616 28.67010975 C-45.1675158 38.05545445 -58.18174334 53.46173247 -65.41473866 72.73578358 C-68.65024879 82.86130091 -69.21083806 91.98136578 -69.20361805 102.55499744 C-69.20620438 103.92803261 -69.20921828 105.30106702 -69.21262145 106.6741004 C-69.22066343 110.43745521 -69.22247946 114.20079091 -69.22321892 117.96415329 C-69.2250744 122.0270733 -69.23262428 126.08998352 -69.23935413 130.15289783 C-69.25291871 139.03337119 -69.25895943 147.91384002 -69.26336479 156.79432201 C-69.26613075 162.34390705 -69.27036878 167.89349036 -69.27486897 173.44307423 C-69.28705987 188.82089345 -69.29735909 204.19871128 -69.30074406 219.57653522 C-69.30096362 220.5601981 -69.30118319 221.54386098 -69.30140941 222.55733183 C-69.30162769 223.54329587 -69.30184596 224.52925991 -69.30207086 225.54510164 C-69.30251432 227.54290708 -69.30296088 229.54071252 -69.30341053 231.53851795 C-69.30363196 232.52949012 -69.30385339 233.52046229 -69.30408153 234.54146391 C-69.30802686 250.58729161 -69.32547359 266.63307383 -69.34877005 282.67888397 C-69.37251811 299.16945078 -69.3849475 315.6599948 -69.38611197 332.15057898 C-69.38702687 341.40267414 -69.39273213 350.65471004 -69.41093159 359.90678883 C-69.42637934 367.78754867 -69.43142562 375.66823095 -69.42319348 383.54900306 C-69.41930329 387.5650469 -69.42013613 391.58093476 -69.43425083 395.59695911 C-69.44708855 399.28359769 -69.44570695 402.96996467 -69.43366012 406.6566034 C-69.43081084 408.60068522 -69.44256369 410.54477218 -69.45508218 412.48881578 C-69.39019954 424.19556473 -67.84344563 436.10641126 -62.56317616 446.69672108 C-62.2191576 447.39942127 -61.87513905 448.10212147 -61.52069569 448.82611561 C-53.28793888 464.93178687 -40.81963531 476.70619934 -24.62567616 484.63422108 C-23.99516346 484.94859119 -23.36465076 485.26296131 -22.71503162 485.5868578 C-10.82338304 490.99215261 2.21016105 491.58202784 15.05181408 491.56659412 C16.60081277 491.57563851 18.14980437 491.58597215 19.69878674 491.59747791 C23.85274428 491.62476034 28.00656501 491.63429271 32.16060042 491.64033198 C36.52080022 491.64979158 40.88090077 491.6760003 45.24103832 491.70033741 C53.47473122 491.74379936 61.70840464 491.77247044 69.94217688 491.79566079 C79.32571718 491.82282212 88.70915663 491.86672631 98.09262455 491.91194952 C117.37397085 492.00450454 136.65534387 492.07631782 155.93682384 492.13422108 C155.93238262 491.28088688 155.9279414 490.42755268 155.92336559 489.54835987 C155.88326487 481.50019883 155.85282722 473.45207143 155.8331995 465.40383339 C155.82276943 461.26631178 155.80862443 457.12887284 155.78594494 452.99139881 C155.76418884 448.99731288 155.75224937 445.00330639 155.74706936 441.00916576 C155.74337857 439.48656114 155.73617137 437.96396078 155.72536373 436.44139004 C155.7108119 434.30610913 155.70884742 432.17115505 155.70977306 430.03583241 C155.70533184 428.82115788 155.70089062 427.60648335 155.69631481 426.3550005 C156.00064997 422.27949283 156.76238723 419.35215534 159.62432384 416.38422108 C162.84959125 414.64083329 165.26664077 414.1975001 168.93682384 414.13422108 C174.40517828 417.07092994 174.40517828 417.07092994 175.93682384 420.13422108 C176.05606251 422.85347982 176.11518152 425.54791471 176.12969494 428.26825428 C176.13787243 429.10907551 176.14604992 429.94989674 176.15447521 430.8161974 C176.17933935 433.60579175 176.19584748 436.3953352 176.21026134 439.18500233 C176.21558502 440.13676035 176.2209087 441.08851837 176.2263937 442.06911755 C176.25312924 447.10635416 176.27250317 452.14356594 176.2869215 457.18085194 C176.30357382 462.38652997 176.34835531 467.59157547 176.39929295 472.79701424 C176.43293096 476.79730942 176.44449513 480.7974538 176.45014858 484.79787731 C176.4568702 486.71685275 176.47211585 488.63581795 176.49603939 490.55465603 C176.52762147 493.24096486 176.5277385 495.92555892 176.52031994 498.61200428 C176.53672527 499.40440006 176.55313061 500.19679585 176.57003307 501.01320362 C176.5272548 504.79820078 176.18536323 506.81230667 173.84922886 509.83812618 C170.20385884 512.7120793 168.33526548 512.7602985 163.73034191 512.76241016 C162.6577425 512.77305174 162.6577425 512.77305174 161.56347442 512.78390831 C159.17207458 512.80148184 156.78230172 512.78338777 154.39092541 512.76532459 C152.67394299 512.77046425 150.95696585 512.77774588 149.24000072 512.78700733 C144.57588275 512.80554044 139.91233573 512.79256405 135.24824142 512.77291703 C130.35412542 512.75651328 125.46004514 512.76534731 120.5659132 512.77043629 C112.33415171 512.77496044 104.10261715 512.75908013 95.87090588 512.73114491 C86.39103865 512.69921923 76.91158359 512.69905801 67.43168759 512.71635967 C58.28482639 512.73231105 49.1381144 512.72542793 39.99125957 512.70842266 C36.11449427 512.70159854 32.23785025 512.7025369 28.36108685 512.70996761 C23.77429315 512.71771575 19.18795879 512.70523082 14.60124302 512.67811871 C12.93133372 512.67131722 11.26138083 512.67104652 9.59147358 512.67833424 C-6.22413466 512.73931982 -20.69638068 510.07273025 -35.06317616 503.13422108 C-35.95005116 502.71656483 -36.83692616 502.29890858 -37.75067616 501.86859608 C-59.8213958 490.70491812 -76.19629557 471.03131819 -85.06317616 448.13422108 C-87.88817356 439.52341167 -90.18164049 431.175825 -90.19739723 422.07104492 C-90.204084 420.27141919 -90.204084 420.27141919 -90.21090585 418.43543738 C-90.21072149 417.12602425 -90.21053712 415.81661112 -90.21034718 414.46751881 C-90.21364895 413.0555239 -90.21737518 411.64352994 -90.22148865 410.23153716 C-90.23148143 406.35577086 -90.23522107 402.48002004 -90.23787796 398.60424268 C-90.24178922 394.42197317 -90.2513671 390.23971583 -90.26009083 386.05745411 C-90.27983395 375.95819192 -90.28991955 365.85892876 -90.29881862 355.75965211 C-90.30320578 350.99853479 -90.30857155 346.23741859 -90.31380749 341.47630215 C-90.330819 325.63958657 -90.34531123 309.80287168 -90.35255623 293.96614838 C-90.35446599 289.85835424 -90.35638634 285.75056011 -90.35834217 281.642766 C-90.35882591 280.6218468 -90.35930965 279.60092761 -90.35980805 278.54907147 C-90.36810108 262.02599464 -90.39342605 245.50299038 -90.42592285 228.97994521 C-90.45904669 211.99897537 -90.47700987 195.01804235 -90.48020047 178.03704005 C-90.48236084 168.50986023 -90.49103975 158.98278617 -90.51666164 149.45563793 C-90.53844164 141.33847581 -90.54638341 133.22144516 -90.53669486 125.10425713 C-90.53217096 120.96843737 -90.53392387 116.83288842 -90.55345631 112.69710636 C-90.64461231 92.25607879 -90.14953919 73.94833748 -81.06317616 55.13422108 C-80.64551991 54.24734608 -80.22786366 53.36047108 -79.79755116 52.44672108 C-68.63387319 30.37600143 -48.96027327 14.00110166 -26.06317616 5.13422108 C-17.45236675 2.30922367 -9.10478007 0.01575674 0 0 Z " fill="#000000" transform="translate(90.06317615509033,-0.13422107696533203)"/>
<path d="M0 0 C3.21954645 2.53453657 4.70432435 4.11297305 6 8 C6.1169531 10.78225706 6.17810031 13.54039757 6.19287109 16.32348633 C6.20104858 17.17260086 6.20922607 18.02171539 6.21765137 18.89656067 C6.24247718 21.70837705 6.25901344 24.52014306 6.2734375 27.33203125 C6.27876118 28.29265661 6.28408485 29.25328197 6.28956985 30.2430172 C6.31628813 35.32679827 6.335668 40.41055488 6.35009766 45.49438477 C6.36344342 49.70131135 6.39130968 53.90775365 6.43212891 58.11450195 C6.48142523 63.19491672 6.5062149 68.27489177 6.51332474 73.35553551 C6.52003962 75.29043057 6.53526784 77.22531573 6.55921555 79.16007423 C6.59084668 81.87001297 6.59090726 84.57825508 6.58349609 87.28833008 C6.59990143 88.08491028 6.61630676 88.88149048 6.63320923 89.70220947 C6.58835501 93.71587505 6.1978349 96.26843437 3.68228149 99.47807312 C0.35481999 102.60660927 -1.46419025 103.0809966 -6 103 C-9.72578705 101.39113741 -11.99103619 99.50899663 -14 96 C-14.28559021 93.10901196 -14.39989978 90.43649129 -14.37231445 87.54711914 C-14.37596512 86.69625229 -14.37961578 85.84538544 -14.38337708 84.96873474 C-14.3914799 82.15733858 -14.37787356 79.34651932 -14.36328125 76.53515625 C-14.36276256 74.57986959 -14.3632806 72.62458241 -14.36479187 70.66929626 C-14.36470216 66.5711997 -14.35427508 62.47329989 -14.33618164 58.37524414 C-14.3135096 53.12498993 -14.31294779 47.8750236 -14.31969929 42.62473392 C-14.3230429 38.58667955 -14.3164015 34.54869067 -14.30657005 30.51064873 C-14.30272342 28.57497945 -14.30156761 26.63930289 -14.3031559 24.70363045 C-14.30352725 21.9963713 -14.29088624 19.28947932 -14.2746582 16.58227539 C-14.27713562 15.78367096 -14.27961304 14.98506653 -14.28216553 14.16226196 C-14.23334344 9.05225167 -13.85784266 5.07220912 -10.375 1.1875 C-6.93187137 -0.53406432 -3.7163221 -0.80372839 0 0 Z " fill="#000000" transform="translate(62,103)"/>
<path d="M0 0 C2.58484255 2.17670951 3.77052483 3.81616546 4.41796875 7.15625 C4.68357491 11.46337696 4.40966219 13.43817757 1.8125 17 C-1.11132728 19.07916606 -2.43516708 20 -6 20 C-9.51912489 18.84718323 -12.17936428 17.74121936 -14.9375 15.25 C-16.49398717 11.95390952 -16.44210139 9.59996843 -16 6 C-14.06356362 2.6484755 -12.61551536 1.29437691 -9.125 -0.375 C-5.57527105 -1.08494579 -3.44704869 -1.12403762 0 0 Z " fill="#010103" transform="translate(262,376)"/>
<path d="M0 0 C2.8100346 1.79363911 4.50940468 3.01880935 6 6 C6.39447548 10.18144011 6.45035186 12.30946048 4.125 15.875 C1.21289342 18.78710658 0.3997223 18.96068305 -3.8125 19.375 C-7.45869525 19.35511166 -7.92035679 19.06608692 -10.9375 16.5625 C-11.618125 15.716875 -12.29875 14.87125 -13 14 C-13.33 13.67 -13.66 13.34 -14 13 C-14.40038554 8.83599038 -14.44184328 6.67749304 -12.125 3.125 C-8.51880254 -0.48119746 -4.93573703 -0.70915762 0 0 Z " fill="#030306" transform="translate(62,230)"/>
</svg>
