<?xml version="1.0" encoding="UTF-8"?>
<svg version="1.1" xmlns="http://www.w3.org/2000/svg" width="512" height="512">
<path d="M0 0 C0.97598145 0.20399414 1.95196289 0.40798828 2.95751953 0.61816406 C32.77269899 6.92548609 61.07238575 18.26029348 86 36 C87.00184326 36.70310303 87.00184326 36.70310303 88.02392578 37.42041016 C98.47970942 44.80669766 107.83268938 53.08333552 117 62 C117.79148437 62.75152344 118.58296875 63.50304687 119.3984375 64.27734375 C124.7553721 69.45430229 129.38293833 75.16348184 134 81 C134.81726563 82.01191406 135.63453125 83.02382812 136.4765625 84.06640625 C142.77437362 91.95303058 148.07648445 100.1975931 153 109 C153.4345752 109.76812012 153.86915039 110.53624023 154.31689453 111.32763672 C164.18131792 128.90838704 171.57338577 147.08969851 176.375 166.6875 C176.71494995 168.07243652 176.71494995 168.07243652 177.06176758 169.48535156 C180.97307412 186.58977897 182.55859434 203.61116348 182.4375 221.125 C182.43479095 222.05411194 182.43208191 222.98322388 182.42929077 223.94049072 C182.36043057 239.60342152 181.20002398 254.6303484 178 270 C177.82339844 270.8962207 177.64679688 271.79244141 177.46484375 272.71582031 C169.64438501 311.80363167 152.61241352 349.29482269 130 382 C129.48969238 382.73943848 128.97938477 383.47887695 128.45361328 384.24072266 C121.62198614 394.06754783 114.41533433 403.4254168 106.45117188 412.36010742 C105.44736705 413.49445416 104.45452613 414.63856321 103.47070312 415.7902832 C98.77480892 421.26627936 93.77712402 426.40905267 88.67675781 431.50854492 C87.26080053 432.92668284 85.85301711 434.35296665 84.4453125 435.77929688 C78.27506888 441.96243098 71.83372928 447.5666583 65 453 C63.81426097 453.98806506 62.63144931 454.9796666 61.453125 455.9765625 C44.22857716 470.32813762 24.89997239 481.78204681 5 492 C4.27184082 492.37705078 3.54368164 492.75410156 2.79345703 493.14257812 C-6.19319629 497.74503297 -15.481408 501.47255739 -24.9375 505 C-26.50141479 505.59784302 -26.50141479 505.59784302 -28.09692383 506.20776367 C-34.32009644 508.45785205 -40.34751631 510.20166786 -47 509 C-49.82424288 506.80977082 -51.41508603 505.16982793 -53 502 C-53.0909215 500.1820546 -53.11753467 498.36074055 -53.11352539 496.54052734 C-53.11344986 495.39949554 -53.11337433 494.25846375 -53.11329651 493.08285522 C-53.10813522 491.84637238 -53.10297394 490.60988953 -53.09765625 489.3359375 C-53.09553383 487.4424205 -53.09553383 487.4424205 -53.09336853 485.51065063 C-53.08871078 482.15361701 -53.07972408 478.796651 -53.06866455 475.43963623 C-53.0584377 472.01445094 -53.05386818 468.58925866 -53.04882812 465.1640625 C-53.03778238 458.44268957 -53.02103194 451.72134869 -53 445 C-53.66744736 445.00516632 -54.33489471 445.01033264 -55.02256775 445.01565552 C-56.35125633 445.02168289 -56.35125633 445.02168289 -57.70678711 445.02783203 C-58.58048447 445.03299835 -59.45418182 445.03816467 -60.35435486 445.04348755 C-115.78983582 444.13227193 -169.13410023 413.10320196 -206.828125 374.35546875 C-211.18681093 369.78965518 -215.18689701 365.03100043 -219 360 C-219.48823242 359.3611084 -219.97646484 358.7222168 -220.47949219 358.06396484 C-228.70728027 347.23279457 -235.82457112 336.11934648 -242 324 C-242.35932617 323.29520508 -242.71865234 322.59041016 -243.08886719 321.86425781 C-252.5814038 302.99292005 -258.68201764 283.6587829 -263 263 C-263.18079102 262.17999512 -263.36158203 261.35999023 -263.54785156 260.51513672 C-268.96936103 235.12673603 -268.54137771 204.31767137 -263 179 C-262.70996094 177.5759082 -262.70996094 177.5759082 -262.4140625 176.12304688 C-253.42433574 132.42298626 -232.64169739 95.10736901 -202 63 C-201.16855469 62.12730469 -200.33710938 61.25460938 -199.48046875 60.35546875 C-193.68811305 54.41716393 -187.58710897 49.03776011 -181 44 C-180.35530762 43.5059668 -179.71061523 43.01193359 -179.04638672 42.50292969 C-168.22150339 34.28232266 -157.11088004 27.1711148 -145 21 C-144.29520508 20.64067383 -143.59041016 20.28134766 -142.86425781 19.91113281 C-126.061261 11.45899951 -108.40497594 4.93642224 -90 1 C-89.07944824 0.80245117 -88.15889648 0.60490234 -87.21044922 0.40136719 C-59.55577843 -5.22440403 -27.65069041 -6.09630077 0 0 Z " fill="#4BAE4F" transform="translate(298,3)"/>
<path d="M0 0 C0.97598145 0.20399414 1.95196289 0.40798828 2.95751953 0.61816406 C32.77269899 6.92548609 61.07238575 18.26029348 86 36 C87.00184326 36.70310303 87.00184326 36.70310303 88.02392578 37.42041016 C98.47970942 44.80669766 107.83268938 53.08333552 117 62 C117.79148437 62.75152344 118.58296875 63.50304687 119.3984375 64.27734375 C124.7553721 69.45430229 129.38293833 75.16348184 134 81 C134.81726563 82.01191406 135.63453125 83.02382812 136.4765625 84.06640625 C142.77437362 91.95303058 148.07648445 100.1975931 153 109 C153.4345752 109.76812012 153.86915039 110.53624023 154.31689453 111.32763672 C164.18131792 128.90838704 171.57338577 147.08969851 176.375 166.6875 C176.71494995 168.07243652 176.71494995 168.07243652 177.06176758 169.48535156 C180.97307412 186.58977897 182.55859434 203.61116348 182.4375 221.125 C182.43479095 222.05411194 182.43208191 222.98322388 182.42929077 223.94049072 C182.36043057 239.60342152 181.20002398 254.6303484 178 270 C177.82339844 270.8962207 177.64679688 271.79244141 177.46484375 272.71582031 C169.64438501 311.80363167 152.61241352 349.29482269 130 382 C129.48969238 382.73943848 128.97938477 383.47887695 128.45361328 384.24072266 C121.62198614 394.06754783 114.41533433 403.4254168 106.45117188 412.36010742 C105.44736705 413.49445416 104.45452613 414.63856321 103.47070312 415.7902832 C98.77480892 421.26627936 93.77712402 426.40905267 88.67675781 431.50854492 C87.26080053 432.92668284 85.85301711 434.35296665 84.4453125 435.77929688 C78.27506888 441.96243098 71.83372928 447.5666583 65 453 C63.81426097 453.98806506 62.63144931 454.9796666 61.453125 455.9765625 C44.22857716 470.32813762 24.89997239 481.78204681 5 492 C4.27184082 492.37705078 3.54368164 492.75410156 2.79345703 493.14257812 C-6.19319629 497.74503297 -15.481408 501.47255739 -24.9375 505 C-26.50141479 505.59784302 -26.50141479 505.59784302 -28.09692383 506.20776367 C-34.32009644 508.45785205 -40.34751631 510.20166786 -47 509 C-49.82424288 506.80977082 -51.41508603 505.16982793 -53 502 C-53.0909215 500.1820546 -53.11753467 498.36074055 -53.11352539 496.54052734 C-53.11344986 495.39949554 -53.11337433 494.25846375 -53.11329651 493.08285522 C-53.10813522 491.84637238 -53.10297394 490.60988953 -53.09765625 489.3359375 C-53.09553383 487.4424205 -53.09553383 487.4424205 -53.09336853 485.51065063 C-53.08871078 482.15361701 -53.07972408 478.796651 -53.06866455 475.43963623 C-53.0584377 472.01445094 -53.05386818 468.58925866 -53.04882812 465.1640625 C-53.03778238 458.44268957 -53.02103194 451.72134869 -53 445 C-53.66744736 445.00516632 -54.33489471 445.01033264 -55.02256775 445.01565552 C-56.35125633 445.02168289 -56.35125633 445.02168289 -57.70678711 445.02783203 C-58.58048447 445.03299835 -59.45418182 445.03816467 -60.35435486 445.04348755 C-115.78983582 444.13227193 -169.13410023 413.10320196 -206.828125 374.35546875 C-211.18681093 369.78965518 -215.18689701 365.03100043 -219 360 C-219.48823242 359.3611084 -219.97646484 358.7222168 -220.47949219 358.06396484 C-228.70728027 347.23279457 -235.82457112 336.11934648 -242 324 C-242.35932617 323.29520508 -242.71865234 322.59041016 -243.08886719 321.86425781 C-252.5814038 302.99292005 -258.68201764 283.6587829 -263 263 C-263.18079102 262.17999512 -263.36158203 261.35999023 -263.54785156 260.51513672 C-268.96936103 235.12673603 -268.54137771 204.31767137 -263 179 C-262.70996094 177.5759082 -262.70996094 177.5759082 -262.4140625 176.12304688 C-253.42433574 132.42298626 -232.64169739 95.10736901 -202 63 C-201.16855469 62.12730469 -200.33710938 61.25460938 -199.48046875 60.35546875 C-193.68811305 54.41716393 -187.58710897 49.03776011 -181 44 C-180.35530762 43.5059668 -179.71061523 43.01193359 -179.04638672 42.50292969 C-168.22150339 34.28232266 -157.11088004 27.1711148 -145 21 C-144.29520508 20.64067383 -143.59041016 20.28134766 -142.86425781 19.91113281 C-126.061261 11.45899951 -108.40497594 4.93642224 -90 1 C-89.07944824 0.80245117 -88.15889648 0.60490234 -87.21044922 0.40136719 C-59.55577843 -5.22440403 -27.65069041 -6.09630077 0 0 Z M-94.9375 24.6875 C-95.84733643 24.94241211 -96.75717285 25.19732422 -97.69458008 25.45996094 C-150.24070844 40.6849231 -194.08008259 76.87077843 -220.56640625 124.46875 C-224.03294519 130.85030248 -227.16032753 137.31673044 -230 144 C-230.51046875 145.20140625 -231.0209375 146.4028125 -231.546875 147.640625 C-234.80165501 155.64278321 -237.13445117 163.81688968 -239.25 172.1875 C-239.4962915 173.16066162 -239.74258301 174.13382324 -239.99633789 175.13647461 C-240.71274757 178.08253927 -241.37240827 181.03377768 -242 184 C-242.30019043 185.40596436 -242.30019043 185.40596436 -242.60644531 186.84033203 C-244.41360298 196.67377346 -244.30305663 206.53088024 -244.26074219 216.49267578 C-244.25002136 219.4940206 -244.26068885 222.49476705 -244.2734375 225.49609375 C-244.28076907 235.54330229 -243.995407 245.12471378 -242 255 C-241.77275582 256.32908943 -241.5471959 257.6584693 -241.32421875 258.98828125 C-231.15144259 312.09891015 -200.01057347 358.91755518 -155.42333984 389.39501953 C-143.89293858 397.03161614 -131.72404725 403.59364516 -119 409 C-117.79859375 409.51046875 -116.5971875 410.0209375 -115.359375 410.546875 C-94.41537322 419.06559165 -72.27254397 423.16957156 -49.75415039 423.48364258 C-39.48068908 423.72758663 -39.48068908 423.72758663 -35 427 C-30.83810556 431.83798278 -31.52369951 437.60419625 -31.48828125 443.64453125 C-31.47033005 444.7694548 -31.45237885 445.89437836 -31.43388367 447.0533905 C-31.37978284 450.63972243 -31.34588475 454.22592125 -31.3125 457.8125 C-31.27932683 460.24676331 -31.24483718 462.68100906 -31.20898438 465.11523438 C-31.12405637 471.07670357 -31.05570534 477.03818999 -31 483 C-29.56575904 482.52538377 -28.13181593 482.04986744 -26.69799805 481.57397461 C-25.50015938 481.17691566 -25.50015938 481.17691566 -24.27812195 480.77183533 C4.07459878 471.16583882 32.98230999 452.69633988 54.69921875 432.16015625 C56.6338679 430.34375391 58.60464775 428.61464924 60.6171875 426.88671875 C65.77256045 422.39141563 70.60081085 417.58320199 75.4375 412.75 C76.32759766 411.87214844 77.21769531 410.99429687 78.13476562 410.08984375 C84.19599636 404.04189548 89.68254877 397.70643194 95 391 C95.92915749 389.86568429 96.85982583 388.73260187 97.79296875 387.6015625 C110.1845867 372.19795258 120.96531862 355.58090525 130 338 C130.66660645 336.70570068 130.66660645 336.70570068 131.34667969 335.38525391 C138.83411964 320.68021526 144.77513046 305.64280256 150 290 C150.23831543 289.29069336 150.47663086 288.58138672 150.72216797 287.85058594 C151.91594044 284.2588879 153.00418631 280.65131686 154 277 C154.26167969 276.04738281 154.52335937 275.09476562 154.79296875 274.11328125 C159.07182138 257.14991117 160.52605351 239.7706643 160.44604492 222.32275391 C160.43749876 219.49958975 160.46653944 216.67843765 160.49804688 213.85546875 C160.57117877 194.63819255 157.13668458 176.18673916 151 158 C150.78118164 157.34902344 150.56236328 156.69804687 150.33691406 156.02734375 C143.77104529 136.85386339 134.58970302 119.60256312 123 103 C122.57106445 102.38431152 122.14212891 101.76862305 121.70019531 101.13427734 C92.617855 60.03552369 45.43430422 30.34122579 -4.0625 21.5625 C-7.3699548 21.00294585 -10.68049381 20.48258899 -14 20 C-15.57817505 19.7373938 -15.57817505 19.7373938 -17.18823242 19.46948242 C-21.69414527 18.91450449 -26.10540292 18.8191132 -30.640625 18.796875 C-32.02311432 18.78832489 -32.02311432 18.78832489 -33.43353271 18.77960205 C-35.38341133 18.77018672 -37.33330561 18.76363191 -39.28320312 18.75976562 C-42.19952094 18.75016616 -45.11510038 18.71915427 -48.03125 18.6875 C-64.06921293 18.59591486 -79.47244081 20.30177176 -94.9375 24.6875 Z " fill="#010301" transform="translate(298,3)"/>
<path d="M0 0 C1.36342529 -0.01226624 1.36342529 -0.01226624 2.75439453 -0.02478027 C5.7766859 -0.04968874 8.7989301 -0.06616508 11.82128906 -0.08056641 C13.36614361 -0.08855192 13.36614361 -0.08855192 14.94220734 -0.09669876 C20.39440671 -0.12345535 25.84658299 -0.14282131 31.29882812 -0.15722656 C36.93609916 -0.17387125 42.57278519 -0.21864064 48.20983505 -0.26959801 C52.5386829 -0.30322946 56.86739134 -0.31479961 61.19635773 -0.32045364 C63.27442134 -0.32717858 65.35247538 -0.34243272 67.43041229 -0.36634445 C70.33951117 -0.3979076 73.24702537 -0.39804584 76.15625 -0.390625 C77.015672 -0.40703033 77.87509399 -0.42343567 78.76055908 -0.44033813 C83.18926862 -0.3940774 84.80117861 -0.24726984 88.34820557 2.6668396 C89.00447937 3.50042999 89.66075317 4.33402039 90.33691406 5.19287109 C90.83191406 5.68787109 90.83191406 5.68787109 91.33691406 6.19287109 C91.44815954 9.01015918 91.49431438 11.8031534 91.49804688 14.62133789 C91.50549423 15.94844788 91.50549423 15.94844788 91.51309204 17.30236816 C91.52777122 20.24894986 91.53452981 23.19547748 91.54003906 26.14208984 C91.54579158 28.19220481 91.5515493 30.24231976 91.55731201 32.29243469 C91.56784225 36.60601045 91.57366975 40.91956748 91.57714844 45.2331543 C91.5825976 50.72813348 91.60653959 56.22286037 91.63512039 61.71776104 C91.65387426 65.96204817 91.6589594 70.20627654 91.66048431 74.45060158 C91.66348935 76.47374646 91.67144417 78.49689085 91.68466949 80.51999474 C91.81740926 102.41216213 88.57123052 120.70971645 74.33691406 138.19287109 C73.70140625 138.98048828 73.06589844 139.76810547 72.41113281 140.57958984 C68.35703152 145.41499546 65.87354133 147.91102362 59.39941406 148.63037109 C55.89850725 148.55199258 55.35021412 148.20334135 52.39941406 145.88037109 C49.04754087 141.51277875 49.20186496 137.7382962 49.23925781 132.46240234 C49.24067276 131.71198166 49.24208771 130.96156097 49.24354553 130.18840027 C49.24913847 127.79401649 49.26168962 125.39972656 49.27441406 123.00537109 C49.27942998 121.38102349 49.28399273 119.75667441 49.28808594 118.13232422 C49.29910558 114.1524704 49.31636533 110.17268666 49.33691406 106.19287109 C48.32333328 106.20286385 48.32333328 106.20286385 47.28927612 106.21305847 C40.24888879 106.27948978 33.20859068 106.3247043 26.16796875 106.35766602 C23.54130435 106.37274129 20.91466507 106.39320475 18.28808594 106.41918945 C14.51002802 106.45562685 10.73230329 106.47261047 6.95410156 106.48583984 C5.78201141 106.5013237 4.60992126 106.51680756 3.40231323 106.53276062 C-7.19456095 106.53494214 -7.19456095 106.53494214 -11.66308594 103.19287109 C-15.20327215 98.71492312 -15.10218606 94.71993682 -15.08300781 89.25927734 C-15.09147736 88.36925018 -15.0999469 87.47922302 -15.1086731 86.56222534 C-15.13203176 83.62646109 -15.13306564 80.69122116 -15.13183594 77.75537109 C-15.13893733 75.71183055 -15.14663629 73.668292 -15.15490723 71.62475586 C-15.16834881 67.34434462 -15.16992183 63.06411783 -15.1640625 58.78369141 C-15.1581616 53.29890889 -15.18877593 47.81501007 -15.22917938 42.33039856 C-15.25502727 38.11132032 -15.25793653 33.89245583 -15.25428772 29.67330933 C-15.25598117 27.65109025 -15.26564523 25.62886153 -15.28343201 23.60671997 C-15.30556803 20.77936569 -15.29594785 17.95381296 -15.27832031 15.12646484 C-15.29158356 14.2920285 -15.3048468 13.45759216 -15.31851196 12.59786987 C-15.25527674 8.23270808 -15.07445543 6.69061945 -12.18713379 3.19702148 C-11.354198 2.53565186 -10.52126221 1.87428223 -9.66308594 1.19287109 C-7.56056006 -0.90965479 -2.90491535 0.01426458 0 0 Z " fill="#000000" transform="translate(281.6630859375,149.80712890625)"/>
<path d="M0 0 C1.36386337 -0.01248528 1.36386337 -0.01248528 2.75527954 -0.02522278 C5.7667466 -0.04935587 8.77799722 -0.05809886 11.78955078 -0.06469727 C13.88078884 -0.07366093 15.97202623 -0.08278272 18.06326294 -0.09205627 C22.44974325 -0.10855772 26.83614712 -0.11624852 31.22265625 -0.11914062 C36.84421397 -0.12452623 42.46505373 -0.16220906 48.08640862 -0.20788479 C52.40669378 -0.23762282 56.72680536 -0.24486348 61.04718399 -0.24586678 C63.11965346 -0.25007537 65.19212316 -0.26253519 67.26449203 -0.28338432 C70.16384468 -0.31023143 73.06152416 -0.30549311 75.9609375 -0.29296875 C76.81721741 -0.30780304 77.67349731 -0.32263733 78.5557251 -0.33792114 C82.97514557 -0.2835401 84.58054303 -0.12893506 88.11917114 2.78135681 C89.10456375 4.03125145 89.10456375 4.03125145 90.10986328 5.30639648 C90.60486328 5.80139648 90.60486328 5.80139648 91.10986328 6.30639648 C91.22110876 9.12368457 91.2672636 11.91667879 91.27099609 14.73486328 C91.27844345 16.06197327 91.27844345 16.06197327 91.28604126 17.41589355 C91.30072043 20.36247525 91.30747903 23.30900287 91.31298828 26.25561523 C91.3187408 28.3057302 91.32449852 30.35584515 91.33026123 32.40596008 C91.34079147 36.71953584 91.34661897 41.03309288 91.35009766 45.34667969 C91.35554682 50.84165887 91.37948881 56.33638576 91.40806961 61.83128643 C91.42682348 66.07557356 91.43190862 70.31980193 91.43343353 74.56412697 C91.43643857 76.58727185 91.44439338 78.61041624 91.45761871 80.63352013 C91.59035848 102.52568752 88.34417974 120.82324184 74.10986328 138.30639648 C73.47435547 139.09401367 72.83884766 139.88163086 72.18408203 140.69311523 C68.12998074 145.52852085 65.64649055 148.02454901 59.17236328 148.74389648 C55.67145647 148.66551797 55.12316334 148.31686674 52.17236328 145.99389648 C48.82049009 141.62630414 48.97481418 137.85182159 49.01220703 132.57592773 C49.01362198 131.82550705 49.01503693 131.07508636 49.01649475 130.30192566 C49.02208769 127.90754188 49.03463884 125.51325195 49.04736328 123.11889648 C49.0523792 121.49454888 49.05694194 119.8701998 49.06103516 118.24584961 C49.0720548 114.26599579 49.08931455 110.28621205 49.10986328 106.30639648 C48.0962825 106.31638924 48.0962825 106.31638924 47.06222534 106.32658386 C40.02183801 106.39301517 32.9815399 106.43822969 25.94091797 106.47119141 C23.31425357 106.48626668 20.68761429 106.50673014 18.06103516 106.53271484 C14.28297724 106.56915224 10.50525251 106.58613586 6.72705078 106.59936523 C5.55496063 106.61484909 4.38287048 106.63033295 3.17526245 106.64628601 C-7.42161173 106.64846753 -7.42161173 106.64846753 -11.89013672 103.30639648 C-15.29669008 98.97661408 -15.31781939 94.86789288 -15.27832031 89.57226562 C-15.28357727 88.7033519 -15.28883423 87.83443817 -15.29425049 86.93919373 C-15.30743048 84.07312934 -15.29871869 81.20762257 -15.28857422 78.34155273 C-15.29059571 76.34524937 -15.29350778 74.34894672 -15.29727173 72.35264587 C-15.30169253 68.17057254 -15.29527249 63.98869158 -15.28125 59.80664062 C-15.26416944 54.45218854 -15.27399379 49.09818796 -15.29196739 43.74375248 C-15.30282122 39.6215832 -15.29935133 35.49952048 -15.29158401 31.37734795 C-15.28958586 29.40342594 -15.29202775 27.42949419 -15.29902267 25.45558357 C-15.30666216 22.69343667 -15.29499744 19.93201494 -15.27832031 17.16992188 C-15.28439301 16.35778229 -15.2904657 15.5456427 -15.29672241 14.70889282 C-15.24261112 9.85842771 -14.5994974 6.49451898 -11.89013672 2.30639648 C-7.95274062 -0.31853425 -4.5712717 0.00353168 0 0 Z " fill="#000000" transform="translate(153.89013671875,149.693603515625)"/>
<path d="M0 0 C21.12 0 42.24 0 64 0 C64 23.43 64 46.86 64 71 C62 69 60 67 58 65 C56.1903226 64.87669912 54.37592163 64.82209817 52.56225586 64.79467773 C51.38481812 64.77449585 50.20738037 64.75431396 48.9942627 64.73352051 C47.74705444 64.71704468 46.49984619 64.70056885 45.21484375 64.68359375 C44.07567505 64.66494263 42.93650635 64.6462915 41.76281738 64.6270752 C37.4877941 64.55852836 33.21263707 64.49853916 28.9375 64.4375 C19.388125 64.293125 9.83875 64.14875 0 64 C0 42.88 0 21.76 0 0 Z " fill="#F8F8F8" transform="translate(288,171)"/>
<path d="M0 0 C21.12 0 42.24 0 64 0 C64 23.43 64 46.86 64 71 C62 69 60 67 58 65 C56.1903226 64.87669912 54.37592163 64.82209817 52.56225586 64.79467773 C51.38481812 64.77449585 50.20738037 64.75431396 48.9942627 64.73352051 C47.74705444 64.71704468 46.49984619 64.70056885 45.21484375 64.68359375 C44.07567505 64.66494263 42.93650635 64.6462915 41.76281738 64.6270752 C37.4877941 64.55852836 33.21263707 64.49853916 28.9375 64.4375 C19.388125 64.293125 9.83875 64.14875 0 64 C0 42.88 0 21.76 0 0 Z " fill="#F8F8F8" transform="translate(160,171)"/>
</svg>
