<?xml version="1.0" encoding="UTF-8"?>
<svg version="1.1" xmlns="http://www.w3.org/2000/svg" width="512" height="512">
<path d="M0 0 C40.97546889 37.59451178 68.79324839 86.75239707 79.82421875 141.26171875 C80.02176758 142.19467773 80.21931641 143.12763672 80.42285156 144.08886719 C93.22818879 206.6484934 79.10338999 276.04910188 44.30297852 329.38867188 C37.14648503 340.11717723 29.68582774 350.47804635 20.9296875 359.97265625 C19.07337963 361.99083141 17.28700067 364.04764608 15.51171875 366.13671875 C7.39418175 375.41658207 -1.45547419 383.68658291 -11.17578125 391.26171875 C-12.18253906 392.06222656 -13.18929688 392.86273438 -14.2265625 393.6875 C-35.83414391 410.7468189 -59.49359341 423.38865109 -85.17578125 433.26171875 C-86.24054688 433.67550781 -87.3053125 434.08929688 -88.40234375 434.515625 C-98.63430783 437.26816745 -108.27877852 435.56404028 -117.30078125 430.51171875 C-123.64963619 425.54304967 -127.58594791 420.3261321 -129.17578125 412.26171875 C-129.54896494 406.91874895 -129.59618399 401.59897638 -129.58647156 396.24453926 C-129.5819535 393.53143824 -129.59610534 390.81897583 -129.61486816 388.10594177 C-129.65147305 382.34537747 -129.6653296 376.58488217 -129.67578125 370.82421875 C-129.68790504 364.14637752 -129.70963307 357.46885128 -129.75578308 350.79115105 C-129.76925079 348.13346999 -129.76520171 345.47619787 -129.76037598 342.8184967 C-129.79334285 332.76443726 -129.88394248 323.05778885 -136.05078125 314.57421875 C-136.56769531 313.84589844 -137.08460938 313.11757813 -137.6171875 312.3671875 C-138.13152344 311.67238281 -138.64585937 310.97757812 -139.17578125 310.26171875 C-143.57422542 304.22118875 -145.98080458 299.96066916 -145.17578125 292.26171875 C-143.41564551 287.53714386 -140.94517626 284.57195233 -137.17578125 281.26171875 C-134.3984375 280.2578125 -134.3984375 280.2578125 -131.23828125 279.69921875 C-130.00851562 279.4671875 -128.77875 279.23515625 -127.51171875 278.99609375 C-125.22589218 278.60239374 -122.93807644 278.22257602 -120.64941406 277.84570312 C-95.23601507 273.64865578 -70.92852347 266.59763933 -54.34375 245.375 C-38.24538823 222.25717238 -33.11734131 190.96444686 -37.390625 163.29296875 C-40.07079499 148.47530455 -46.67805127 135.89267831 -56.4765625 124.515625 C-60.06841246 119.75126309 -60.83947395 115.1178308 -60.17578125 109.26171875 C-59.7267825 107.40001661 -59.24469249 105.54613033 -58.73828125 103.69921875 C-55.40069513 91.03228477 -56.14857067 79.01136548 -58.17578125 66.26171875 C-73.28420919 71.55842899 -87.97844105 77.50753582 -100.99609375 87 C-106.57453232 90.96795569 -111.53797025 90.81983066 -118.17578125 90.26171875 C-121.92841753 89.59364933 -125.628353 88.70789931 -129.33691406 87.83203125 C-158.78673086 80.89687606 -189.10793164 81.99703303 -218.47485352 88.5847168 C-227.65339747 90.58838329 -235.45739995 91.99411732 -243.72265625 86.87890625 C-244.5321875 86.34523437 -245.34171875 85.8115625 -246.17578125 85.26171875 C-258.73989808 77.14597842 -271.47209468 70.53266598 -286.17578125 67.26171875 C-288.79461233 80.65984563 -288.65605115 92.26423168 -285.05078125 105.44921875 C-283.85556641 110.65694057 -283.37793394 114.96790773 -285.17578125 120.13671875 C-286.93016813 122.87794825 -288.76492429 125.1632135 -290.86328125 127.63671875 C-308.00592133 148.6624983 -309.3824651 173.61658314 -306.86328125 199.5234375 C-304.4984865 220.90160435 -296.32821399 243.32178178 -279.17578125 257.26171875 C-261.35887328 270.38759272 -241.27298759 275.69185932 -219.56274414 278.69189453 C-212.19087315 279.79202959 -206.72686179 281.17356862 -201.80078125 287.13671875 C-199.13533408 292.26257869 -198.61781328 296.35180345 -200.1796875 301.99609375 C-201.90659599 305.92396403 -204.62762394 309.14215089 -207.2109375 312.54296875 C-211.26160686 318.14787109 -213.11149384 323.74893647 -214.61328125 330.44921875 C-216.12769294 336.73004198 -217.68766558 340.06666585 -223.3359375 343.62109375 C-231.40375491 347.96825369 -240.10222979 350.25354637 -249.17578125 351.26171875 C-247.07897696 351.02110186 -244.98172653 350.78396022 -242.8828125 350.5625 C-241.04362153 350.35814545 -239.20741827 350.12531058 -237.375 349.8671875 C-231.2797823 349.10001625 -227.46553093 348.98207395 -222.17578125 352.26171875 C-215.88645683 358.41128041 -214.96501442 364.53952494 -214.84658813 372.9385376 C-214.84436249 373.89596863 -214.84213684 374.85339966 -214.83984375 375.83984375 C-214.82985855 377.35067535 -214.82985855 377.35067535 -214.81967163 378.89202881 C-214.80958035 381.01670516 -214.80485352 383.14141299 -214.80517578 385.26611328 C-214.80081357 388.48784677 -214.76448557 391.70819688 -214.7265625 394.9296875 C-214.72069114 397.00390162 -214.71672388 399.07812217 -214.71484375 401.15234375 C-214.70047272 402.10167786 -214.68610168 403.05101196 -214.67129517 404.02911377 C-214.73099716 412.9316479 -216.76698544 420.96061304 -222.80078125 427.69921875 C-230.58824764 434.63248408 -239.25313574 436.40684549 -249.49609375 435.89453125 C-258.30645775 435.00718317 -266.24248361 430.94875378 -274.17578125 427.26171875 C-275.94363972 426.47052535 -277.71187156 425.68016573 -279.48046875 424.890625 C-296.4844501 417.16735338 -312.34927866 407.61570894 -327.17578125 396.26171875 C-327.81273926 395.77429199 -328.44969727 395.28686523 -329.10595703 394.78466797 C-345.31575076 382.22689866 -360.91178636 367.75799423 -373.17578125 351.26171875 C-374.04802877 350.11837642 -374.92043586 348.97515582 -375.79296875 347.83203125 C-382.05475441 339.53907136 -387.71871346 330.95361131 -393.08398438 322.05761719 C-394.03667525 320.49053444 -395.01794126 318.94089514 -396.00390625 317.39453125 C-410.39588661 294.19250684 -418.67775948 266.79985905 -424.17578125 240.26171875 C-424.38895996 239.26479004 -424.60213867 238.26786133 -424.82177734 237.24072266 C-438.09118901 172.78779128 -422.28105279 104.12420352 -387.17578125 49.26171875 C-383.71062672 44.10597543 -379.99631564 39.15740963 -376.17578125 34.26171875 C-375.49128906 33.36582031 -374.80679688 32.46992187 -374.1015625 31.546875 C-331.69299867 -22.9046887 -269.25088301 -56.53911177 -201.24487305 -65.79321289 C-128.20815275 -74.36712409 -54.21399691 -48.95810721 0 0 Z " fill="#010102" transform="translate(428.17578125,71.73828125)"/>
<path d="M0 0 C1.52779587 0.0007251 1.52779587 0.0007251 3.0864563 0.00146484 C38.43343638 0.11724022 70.63308725 8.01038454 102.4375 23.5625 C103.54448242 24.09762207 103.54448242 24.09762207 104.67382812 24.64355469 C124.77510893 34.46066815 142.27309227 48.20531609 158.4375 63.5625 C158.97310547 64.06942383 159.50871094 64.57634766 160.06054688 65.09863281 C168.35207626 73.00072651 175.64861219 81.34125823 182.4375 90.5625 C183.20707031 91.59890625 183.97664063 92.6353125 184.76953125 93.703125 C217.46637619 139.28401567 233.26427917 197.85369998 224.74072266 253.54541016 C224.43284059 255.59349524 224.17360498 257.64401903 223.91796875 259.69921875 C218.54463371 299.62392196 199.69528086 339.21383299 173.4375 369.5625 C172.7671875 370.34367187 172.096875 371.12484375 171.40625 371.9296875 C160.49504526 384.3472899 148.86907235 395.89806396 135.4375 405.5625 C134.79039062 406.03220215 134.14328125 406.5019043 133.4765625 406.98583984 C124.26656841 413.59559853 114.66596709 419.24305119 104.625 424.5 C103.61203857 425.03157715 102.59907715 425.5631543 101.55541992 426.11083984 C83.0847144 435.5625 83.0847144 435.5625 77.4375 435.5625 C77.43385437 434.63336792 77.43020874 433.70423584 77.42645264 432.74694824 C77.38833411 423.92203832 77.33121519 415.09748905 77.25359726 406.27283478 C77.21435562 401.73770355 77.18205438 397.20275972 77.16650391 392.66748047 C77.15118171 388.27758774 77.11646768 383.88821107 77.06919098 379.49855042 C77.05453553 377.83716865 77.04646827 376.17571315 77.04561615 374.51426697 C77.03408851 363.29134368 75.65766711 353.32524945 72.4375 342.5625 C74.30872027 342.03298028 76.17994054 341.50346057 78.05116081 340.97394085 C98.02269857 335.29439565 118.28822664 327.79685231 133.2265625 312.75390625 C135.4375 310.5625 135.4375 310.5625 137.4375 310.5625 C137.70304687 309.97339844 137.96859375 309.38429688 138.2421875 308.77734375 C139.46886826 306.50437646 140.7816234 304.98456649 142.5625 303.125 C157.6713055 286.16293145 164.75733903 263.55146179 168.4375 241.5625 C168.746875 239.80679688 168.746875 239.80679688 169.0625 238.015625 C171.70616372 220.61150549 172.48603558 201.54393787 167.4375 184.5625 C167.03724609 182.88994141 167.03724609 182.88994141 166.62890625 181.18359375 C163.69813606 169.52564121 158.69885366 158.61280517 151.375 149.0625 C149.10133022 145.98453887 147.97499052 144.22924568 148.4375 140.375 C148.7675 139.116875 149.0975 137.85875 149.4375 136.5625 C153.04867815 115.9421494 150.58619702 93.6290323 141.2578125 74.8046875 C138.35217839 71.22564463 134.95079172 69.01158539 130.42626953 68.203125 C128.2469726 68.06005275 126.12039665 68.05840637 123.9375 68.125 C123.14706299 68.14183838 122.35662598 68.15867676 121.54223633 68.17602539 C102.30827762 68.82366597 85.41204947 75.98832803 69.3125 86.1875 C63.81930992 89.59375761 59.98457749 91.73123101 53.37109375 90.33203125 C52.40300781 90.07808594 51.43492187 89.82414062 50.4375 89.5625 C48.36474163 89.1637508 46.28735483 88.80313947 44.20703125 88.44604492 C42.7944675 88.20056509 41.38395673 87.9427551 39.9765625 87.66918945 C27.84312474 85.35632566 15.55668928 85.32559319 3.25 85.3125 C2.41789001 85.31082825 1.58578003 85.30915649 0.72845459 85.30743408 C-14.78889747 85.30557362 -30.71893336 85.57761428 -45.7890625 89.6640625 C-53.98429165 91.61530754 -58.25579825 90.13065048 -65.1875 85.9375 C-66.78983396 85.01114559 -68.39401239 84.08797441 -70 83.16796875 C-70.77988281 82.71856934 -71.55976563 82.26916992 -72.36328125 81.80615234 C-86.2772283 73.93785236 -101.83705323 68.46207963 -117.875 68.1875 C-118.69162109 68.15011719 -119.50824219 68.11273438 -120.34960938 68.07421875 C-126.59846082 67.98459379 -130.80903408 69.4408648 -135.5625 73.5625 C-144.42494925 85.6585456 -145.75112003 104.11286409 -145.6875 118.625 C-145.69209229 119.53967041 -145.69668457 120.45434082 -145.70141602 121.39672852 C-145.69808137 125.64395479 -145.60346791 129.78205247 -145.01953125 133.9921875 C-143.74730717 143.39426118 -145.61473188 148.56469793 -151.07421875 156.00390625 C-167.84950752 179.03700095 -168.43564855 213.12442493 -164.4375 240.0625 C-160.97489717 260.91096879 -154.38588519 281.56300353 -141.5625 298.5625 C-141.1711084 299.08408691 -140.7797168 299.60567383 -140.37646484 300.14306641 C-122.18179623 324.01326773 -96.71848544 334.64838517 -68.5625 342.5625 C-69.4375 349.3125 -69.4375 349.3125 -70.5625 351.5625 C-76.79314277 354.77535447 -83.76376579 354.33738051 -90.5625 353.5625 C-97.24286499 351.31567308 -103.04880173 348.06356976 -107.5625 342.5625 C-108.18640625 341.80710937 -108.8103125 341.05171875 -109.453125 340.2734375 C-111.59331004 337.52290339 -113.4462877 334.69198343 -115.3125 331.75 C-121.64057645 322.24040444 -128.70220411 316.26343804 -138.5625 310.5625 C-139.23023438 310.1603125 -139.89796875 309.758125 -140.5859375 309.34375 C-150.39050531 303.88297805 -162.5248999 302.2056319 -173.5625 303.5625 C-179.00680648 305.13046027 -183.26072346 307.55278283 -186.6875 312.125 C-189.468461 317.41779675 -189.57058063 322.7547519 -188.5625 328.5625 C-185.76905418 336.77280163 -179.53125988 341.22767849 -172.8125 346.15234375 C-162.53394896 353.70289564 -157.74614041 362.22647326 -152.5625 373.5625 C-147.81991925 383.67844811 -142.59469542 391.74739094 -134.5625 399.5625 C-133.20694707 401.21114545 -131.86618347 402.87253995 -130.5625 404.5625 C-139.14771123 400.74017985 -146.11456737 393.19401064 -152.57421875 386.55078125 C-154.22051005 384.90448995 -155.86365289 383.43886619 -157.6875 382 C-172.16688222 369.72400203 -183.2997714 351.93098224 -192.5625 335.5625 C-192.97371094 334.83643555 -193.38492188 334.11037109 -193.80859375 333.36230469 C-199.224233 323.69461002 -203.63838182 313.91996123 -207.5625 303.5625 C-207.87477539 302.82241699 -208.18705078 302.08233398 -208.50878906 301.31982422 C-211.2175141 294.85728565 -213.05475124 288.36993929 -214.6875 281.5625 C-214.93886719 280.54671875 -215.19023437 279.5309375 -215.44921875 278.484375 C-219.69636651 261.14000196 -221.98537293 244.22313979 -221.9375 226.375 C-221.93695618 225.60169342 -221.93641235 224.82838684 -221.93585205 224.03164673 C-221.73820692 162.22327167 -196.49241358 106.42567257 -153.5625 62.5625 C-150.98593644 60.10747245 -148.30082491 57.83366966 -145.5625 55.5625 C-144.65628906 54.75683594 -143.75007813 53.95117188 -142.81640625 53.12109375 C-117.82380224 31.03041766 -86.88994372 15.38888944 -54.69042969 7.11914062 C-52.08532829 6.43767766 -49.51537344 5.65232799 -46.9375 4.875 C-31.46498473 0.82325619 -15.91838263 -0.04687574 0 0 Z " fill="#5B6ABE" transform="translate(253.5625,37.4375)"/>
<path d="M0 0 C-0.66 0.33 -1.32 0.66 -2 1 C-4.13427734 0.1105957 -4.13427734 0.1105957 -6.8359375 -1.32421875 C-31.25687293 -13.89784799 -57.67046362 -24.14151769 -85 -28 C-85.88929199 -28.14228027 -86.77858398 -28.28456055 -87.69482422 -28.43115234 C-132.35120007 -35.53505664 -180.27784367 -30.82539332 -222 -13 C-222.80115234 -12.66387695 -223.60230469 -12.32775391 -224.42773438 -11.98144531 C-263.33500544 4.46312053 -300.14437954 30.25161119 -326 64 C-326.92949987 65.1772315 -327.85920027 66.3543047 -328.7890625 67.53125 C-349.19653049 93.69988523 -363.73967437 124.22437283 -373 156 C-374.01924091 152.85734052 -373.97431781 151.02184421 -372.953125 147.89453125 C-372.69120361 147.08886719 -372.42928223 146.28320312 -372.15942383 145.453125 C-371.85931396 144.58171875 -371.5592041 143.7103125 -371.25 142.8125 C-370.93635498 141.89339844 -370.62270996 140.97429687 -370.29956055 140.02734375 C-346.81045164 73.06627283 -298.34912027 20.7679682 -235.04492188 -10.55126953 C-162.2278483 -45.19659623 -69.02017792 -42.93020231 0 0 Z " fill="#5765B5" transform="translate(383,39)"/>
<path d="M0 0 C4.02302171 1.50863314 7.71142899 3.41721844 11.5 5.4375 C25.14356317 12.3482923 38.97286389 12.60915969 54 13 C54 18.28 54 23.56 54 29 C35.20894828 23.29557358 16.69496792 13.83508431 1 2 C0.67 1.34 0.34 0.68 0 0 Z " fill="#5866B8" transform="translate(126,444)"/>
<path d="M0 0 C33.98358969 0.11215706 71.41960524 14.22313871 100 32 C99.01 32.495 99.01 32.495 98 33 C95.86572266 32.1105957 95.86572266 32.1105957 93.1640625 30.67578125 C68.75571904 18.10863525 42.32729593 7.83742294 15 4 C14.25379395 3.89010742 13.50758789 3.78021484 12.73876953 3.66699219 C8.49920217 3.04763716 4.25677181 2.49017372 0 2 C0 1.34 0 0.68 0 0 Z " fill="#5260AC" transform="translate(283,7)"/>
<path d="M0 0 C0 0.33 0 0.66 0 1 C-3.45746016 1.83698495 -6.91610489 2.66896676 -10.375 3.5 C-11.85226563 3.85771484 -11.85226563 3.85771484 -13.359375 4.22265625 C-14.30039063 4.44824219 -15.24140625 4.67382812 -16.2109375 4.90625 C-17.51490479 5.22045898 -17.51490479 5.22045898 -18.84521484 5.54101562 C-21 6 -21 6 -23 6 C-23 5.34 -23 4.68 -23 4 C-20.9170757 3.35284867 -18.83364461 2.70732834 -16.75 2.0625 C-15.58984375 1.70285156 -14.4296875 1.34320313 -13.234375 0.97265625 C-8.15088903 -0.55607323 -5.28999458 -1.08204435 0 0 Z " fill="#5361AE" transform="translate(205,12)"/>
<path d="M0 0 C4.62 0.99 9.24 1.98 14 3 C14 3.66 14 4.32 14 5 C9.71 4.34 5.42 3.68 1 3 C0.67 2.01 0.34 1.02 0 0 Z " fill="#4E5BA4" transform="translate(301,9)"/>
<path d="M0 0 C0.7940625 -0.01417969 1.588125 -0.02835937 2.40625 -0.04296875 C4.5 0.1875 4.5 0.1875 6.5 2.1875 C0.065 2.6825 0.065 2.6825 -6.5 3.1875 C-6.5 2.5275 -6.5 1.8675 -6.5 1.1875 C-4.14653604 0.01076802 -2.6193967 0.02126134 0 0 Z " fill="#5361AE" transform="translate(232.5,5.8125)"/>
<path d="M0 0 C-2.09782787 2.09782787 -3.3799207 2.6509396 -6.125 3.625 C-6.84945312 3.88539062 -7.57390625 4.14578125 -8.3203125 4.4140625 C-9.15175781 4.70410156 -9.15175781 4.70410156 -10 5 C-8.94958421 2.13522966 -8.29875437 1.16086774 -5.5625 -0.3125 C-3 -1 -3 -1 0 0 Z " fill="#5462AF" transform="translate(161,25)"/>
</svg>
