<?xml version="1.0" encoding="UTF-8"?>
<svg version="1.1" xmlns="http://www.w3.org/2000/svg" width="512" height="512">
<path d="M0 0 C0.99356506 0.00182281 1.98713013 0.00364563 3.01080322 0.00552368 C17.504692 0.05030022 31.61636097 0.51139787 45.875 3.3125 C46.77057617 3.47347168 47.66615234 3.63444336 48.58886719 3.80029297 C97.42493 12.63559735 142.09927914 36.14280995 177.875 70.3125 C179.00035156 71.36630859 179.00035156 71.36630859 180.1484375 72.44140625 C182.57160702 75.06742027 182.85472596 77.09759523 183.1875 80.625 C182.60864377 87.45550353 177.64089159 91.84264004 172.99243164 96.46972656 C172.41466476 97.05260437 171.83689789 97.63548218 171.24162292 98.23602295 C169.34457619 100.14688596 167.44027737 102.0503144 165.53515625 103.953125 C164.20741692 105.28475423 162.87990059 106.61660584 161.55259705 107.94866943 C158.77617013 110.73254037 155.99592249 113.51252705 153.21313477 116.29003906 C149.64924313 119.84812349 146.09687604 123.41747346 142.54749393 126.99002457 C139.81178985 129.74046028 137.06919046 132.4839381 134.32455254 135.22545624 C133.01170179 136.53881999 131.70120963 137.85454585 130.39314461 139.17267609 C128.56483698 141.01332601 126.727234 142.84417319 124.88696289 144.67285156 C124.08178726 145.4894928 124.08178726 145.4894928 123.26034546 146.32263184 C119.09856984 150.42670914 116.08297128 152.19829459 110.25 152.5 C103.92802012 151.50179265 99.47688749 146.41248192 94.875 142.3125 C67.34580129 118.06965892 29.07403057 106.75112874 -7.25 108.4375 C-42.70782307 110.82849809 -75.1299975 125.27411059 -101.125 149.3125 C-101.95644531 150.07304687 -102.78789062 150.83359375 -103.64453125 151.6171875 C-122.27163866 169.4287473 -135.31176993 193.61582167 -142.125 218.3125 C-142.33672852 219.06998535 -142.54845703 219.8274707 -142.76660156 220.60791016 C-148.91763069 243.74494285 -148.55848561 271.29589738 -142.125 294.3125 C-141.91069336 295.08932129 -141.69638672 295.86614258 -141.47558594 296.66650391 C-136.64076472 313.62356608 -128.67327074 331.36317352 -117.17578125 344.84375 C-109.27412589 354.12557965 -109.27412589 354.12557965 -108.7421875 358.359375 C-108.90829266 360.18149825 -109.09186032 362.002156 -109.296875 363.8203125 C-109.0552358 367.32408085 -107.70809294 368.61288324 -105.25 371.0625 C-101.90849871 373.72211443 -101.90849871 373.72211443 -97.828125 374.2265625 C-97.05984375 374.04867188 -96.2915625 373.87078125 -95.5 373.6875 C-91.58378 372.90667716 -90.29177626 373.22295951 -86.68359375 375.16015625 C-83.41975509 377.34685038 -80.25102199 379.67147575 -77.06298828 381.96679688 C-47.81151356 402.27847849 -8.28590269 407.82869322 26.25 402.125 C64.45436212 395.0455123 99.37332796 374.31036416 121.66894531 342.01513672 C127.7102668 333.01361421 133.2392389 323.59122551 137.48071289 313.59765625 C137.94082764 312.51355469 138.40094238 311.42945313 138.875 310.3125 C138.1693157 310.31618717 137.4636314 310.31987434 136.73656273 310.32367325 C119.56007359 310.41203797 102.38364225 310.47821622 85.20697594 310.51974869 C76.90043344 310.54036771 68.59404273 310.56847559 60.28759766 310.61425781 C53.04709033 310.65414591 45.80669294 310.67993762 38.56607878 310.68885398 C34.73271996 310.69406544 30.89967565 310.70630014 27.06641769 310.73542023 C23.45651004 310.76262077 19.84704569 310.77093581 16.23704529 310.76493073 C14.28436625 310.76655156 12.33173521 310.78805013 10.37918091 310.81018066 C-0.54044579 310.75883534 -0.54044579 310.75883534 -5.125 306.3125 C-8.04234978 302.65788965 -7.42036616 297.97388465 -7.41552734 293.50830078 C-7.42224457 292.62002594 -7.42896179 291.7317511 -7.43588257 290.81655884 C-7.45487959 287.88025315 -7.45878762 284.94417582 -7.4609375 282.0078125 C-7.46736421 279.96523952 -7.47409247 277.92266747 -7.48110962 275.88009644 C-7.49308662 271.59793972 -7.49679 267.3158637 -7.49560547 263.03369141 C-7.49540225 257.55023765 -7.52270576 252.067302 -7.55714989 246.58397102 C-7.5794021 242.36487457 -7.58344352 238.14590313 -7.58238602 233.926754 C-7.58474445 231.9053659 -7.59358158 229.88397448 -7.60905075 227.8626442 C-7.62867668 225.03322457 -7.62288599 222.20492649 -7.61083984 219.37548828 C-7.62207886 218.54307617 -7.63331787 217.71066406 -7.64489746 216.85302734 C-7.58777058 211.56477874 -6.71722256 208.4532387 -3.125 204.3125 C0.35102148 202.00838725 3.40360527 202.05437023 7.51048279 202.03834534 C8.50874615 202.03049032 8.50874615 202.03049032 9.52717644 202.02247661 C11.75572737 202.00748256 13.98404858 202.00677161 16.21264648 202.00610352 C17.81101875 201.99848173 19.40938735 201.9900542 21.00775146 201.98088074 C25.34862805 201.95893341 29.68943419 201.95013678 34.03035998 201.94505429 C36.74207632 201.94141165 39.45377418 201.93517213 42.16548347 201.9280529 C51.62473487 201.90355966 61.08393141 201.89050633 70.54321289 201.88696289 C79.3626942 201.8833255 88.18182796 201.85341539 97.001203 201.81155831 C104.57243655 201.77688365 112.14355474 201.76141496 119.71486717 201.76071686 C124.23728195 201.75992321 128.75934255 201.75114433 133.28167534 201.72271919 C137.53438536 201.69658603 141.78644632 201.69430635 146.03919983 201.71037483 C147.59968542 201.71219301 149.16020793 201.70546522 150.72061348 201.68955612 C152.8520244 201.66915044 154.98115228 201.67961034 157.11253357 201.69776917 C158.30474738 201.69575784 159.49696119 201.69374651 160.7253027 201.69167423 C164.81414747 202.49761206 166.33502176 204.07346119 168.875 207.3125 C168.875 208.3025 168.875 209.2925 168.875 210.3125 C174.485 210.3125 180.095 210.3125 185.875 210.3125 C186.205 208.6625 186.535 207.0125 186.875 205.3125 C189.05189811 203.03367349 190.39485615 202.38294043 193.51754761 201.92481995 C194.5209317 201.91941696 195.5243158 201.91401398 196.55810547 201.90844727 C197.69964081 201.89576309 198.84117615 201.88307892 200.01730347 201.87001038 C201.2465152 201.87294601 202.47572693 201.87588165 203.7421875 201.87890625 C205.64340866 201.87104347 205.64340866 201.87104347 207.58303833 201.86302185 C210.26482152 201.85659663 212.94575443 201.85650625 215.62744141 201.86645508 C219.05290981 201.87792881 222.47734487 201.85775734 225.90267754 201.82853794 C229.18251887 201.80570374 232.46228534 201.81264618 235.7421875 201.81640625 C236.96735077 201.80517227 238.19251404 201.79393829 239.45480347 201.78236389 C250.12778212 201.86959096 250.12778212 201.86959096 254.875 206.3125 C257.24499625 209.86749437 257.13761727 211.41547313 257.16552734 215.63452148 C257.1846669 217.6007975 257.1846669 217.6007975 257.20419312 219.60679626 C257.20725802 221.04906059 257.20948189 222.4913269 257.2109375 223.93359375 C257.21737864 225.43164695 257.22410794 226.92969894 257.23110962 228.42774963 C257.24311544 231.58784879 257.24678893 234.74783863 257.24560547 237.90795898 C257.2454454 241.09146468 257.25891569 244.27437978 257.28662109 247.45776367 C257.7145973 297.37172514 247.98694464 346.5671743 220.875 389.3125 C220.43575195 390.00504883 219.99650391 390.69759766 219.54394531 391.41113281 C209.89318475 406.48513729 199.30092929 420.41106052 186.875 433.3125 C186.24287598 433.97185547 185.61075195 434.63121094 184.95947266 435.31054688 C175.81502521 444.79880305 166.51765991 453.5387044 155.875 461.3125 C154.72394983 462.17056152 153.57290823 463.02863451 152.421875 463.88671875 C144.22910504 469.92603949 135.71196181 475.27207596 126.875 480.3125 C126.25915039 480.67166504 125.64330078 481.03083008 125.00878906 481.40087891 C101.70026341 494.91157298 75.82529303 503.11583846 49.5625 508.5625 C48.83546875 508.71388428 48.1084375 508.86526855 47.359375 509.02124023 C31.85478254 512.03394059 16.50492807 512.6864727 0.75 512.625 C-0.24456207 512.62284485 -1.23912415 512.6206897 -2.26382446 512.61846924 C-16.74665106 512.56810229 -30.88989867 512.20884203 -45.125 509.3125 C-46.12305664 509.11914062 -47.12111328 508.92578125 -48.14941406 508.7265625 C-74.31514973 503.55565774 -98.47444246 494.56482718 -122.125 482.3125 C-122.84107422 481.9427002 -123.55714844 481.57290039 -124.29492188 481.19189453 C-138.18681347 473.90824922 -151.13170328 464.38761417 -163.125 454.3125 C-163.65158203 453.87470215 -164.17816406 453.4369043 -164.72070312 452.98583984 C-175.73732634 443.81049554 -186.00652466 434.29853711 -194.95703125 423.03515625 C-196.36296131 421.26951076 -197.79662233 419.52546177 -199.26171875 417.80859375 C-233.30426706 377.77651271 -255.06549098 321.69357592 -255.328125 269.08203125 C-255.33518463 268.13709808 -255.34224426 267.19216492 -255.34951782 266.21859741 C-255.57729455 226.79542292 -255.57729455 226.79542292 -252.125 210.3125 C-251.92632324 209.33764648 -251.72764648 208.36279297 -251.52294922 207.35839844 C-244.2140116 172.41784421 -231.03894982 138.44114754 -210.125 109.3125 C-209.43019531 108.34441406 -208.73539063 107.37632813 -208.01953125 106.37890625 C-202.39708535 98.72640909 -196.36653623 91.46185569 -190.125 84.3125 C-189.68478516 83.8076709 -189.24457031 83.3028418 -188.79101562 82.78271484 C-184.18148465 77.52722942 -179.51372078 72.53160494 -174.15625 68.03515625 C-171.91197288 66.13183661 -169.77798903 64.13086812 -167.625 62.125 C-163.26048984 58.18613092 -158.69502768 54.59301723 -154 51.0625 C-153.34322266 50.5672583 -152.68644531 50.0720166 -152.00976562 49.56176758 C-138.26536373 39.35129719 -138.26536373 39.35129719 -131.125 40.3125 C-130.52558594 40.71082031 -129.92617187 41.10914063 -129.30859375 41.51953125 C-126.99472479 42.62152466 -126.99472479 42.62152466 -124.14453125 41.2578125 C-118.15697398 38.31240832 -118.15697398 38.31240832 -114.40234375 33.234375 C-114.39332031 32.55890625 -114.38429687 31.8834375 -114.375 31.1875 C-114.125 27.3125 -114.125 27.3125 -112.72851562 25.99633789 C-107.14634491 22.70344506 -101.42544744 20.1856825 -95.375 17.875 C-94.36493896 17.48666992 -93.35487793 17.09833984 -92.31420898 16.69824219 C-78.75549294 11.56762999 -65.11411924 7.5896642 -50.9375 4.5625 C-50.01267822 4.36366211 -49.08785645 4.16482422 -48.13500977 3.95996094 C-32.09658706 0.70226546 -16.32328667 -0.06217519 0 0 Z " fill="#010101" transform="translate(255.125,-0.3125)"/>
<path d="M0 0 C0.60585937 1.13695312 1.21171875 2.27390625 1.8359375 3.4453125 C7.26576528 13.50318245 13.06952988 22.9120444 20 32 C20.56589844 32.78632813 21.13179688 33.57265625 21.71484375 34.3828125 C24.17208713 37.60264866 25.67225917 38.90958874 29.625 40 C32.81560474 40.21813504 32.81560474 40.21813504 34.84765625 39.22265625 C37 39 37 39 39.83203125 40.80859375 C47.82328368 47.8572345 47.82328368 47.8572345 48.3515625 51.2734375 C47.961257 53.19550796 47.48326165 55.09917086 47 57 C49.82750215 61.61602713 53.72893889 64.07815002 58.25 66.8125 C58.95310303 67.24336914 59.65620605 67.67423828 60.38061523 68.11816406 C98.74461743 91.2603891 143.02208297 99.60759739 187 89 C201.05808807 85.23086555 214.29056282 80.07034005 227 73 C228.0621875 72.42507813 229.124375 71.85015625 230.21875 71.2578125 C236.64469795 67.66391893 242.50841298 63.52950718 248.30859375 59.015625 C250.79426408 57.15407799 253.30838653 55.54364765 256 54 C263.5234375 59.43359375 271.046875 64.8671875 278.5703125 70.30078125 C279.67004395 71.09500488 279.67004395 71.09500488 280.79199219 71.90527344 C282.26927434 72.97223574 283.7464874 74.03929371 285.22363281 75.10644531 C289.09798921 77.90524926 292.97370457 80.70214289 296.8515625 83.49609375 C297.65078125 84.07230469 298.45 84.64851563 299.2734375 85.2421875 C300.78601316 86.33264902 302.29900059 87.42253971 303.8125 88.51171875 C308.58382841 91.95275113 313.30577763 95.45453148 318 99 C304.56340947 127.24305604 255.79484408 147.8517267 228.29418945 157.91210938 C210.18009855 164.32270022 192.01686106 167.48237176 173 170 C172.22124512 170.10892578 171.44249023 170.21785156 170.64013672 170.33007812 C164.10243365 171.16981043 157.58353537 171.15276106 151 171.125 C149.79883545 171.12016602 148.5976709 171.11533203 147.36010742 171.11035156 C107.56006515 170.84264428 70.17361376 161.75629619 35 143 C34.35111816 142.65888184 33.70223633 142.31776367 33.03369141 141.96630859 C12.54696984 131.13523467 -5.24518206 116.91211999 -22 101 C-22.82757813 100.21496094 -23.65515625 99.42992187 -24.5078125 98.62109375 C-30.15789344 93.11866301 -35.11935022 87.18767124 -40 81 C-40.78117187 80.03578125 -41.56234375 79.0715625 -42.3671875 78.078125 C-47.47659534 71.64647424 -52.0840076 64.98985964 -56.5 58.0625 C-57.01667236 57.25748047 -57.53334473 56.45246094 -58.06567383 55.62304688 C-58.54931396 54.85154297 -59.0329541 54.08003906 -59.53125 53.28515625 C-59.95986328 52.60332275 -60.38847656 51.92148926 -60.83007812 51.21899414 C-62.22973198 48.56426671 -63.11400222 45.86235601 -64 43 C-56.44453091 37.43286117 -48.77662658 32.06535887 -41 26.8125 C-39.35631445 25.69841106 -37.71263069 24.58431945 -36.06918335 23.46987915 C-34.42824072 22.35726952 -32.78687607 21.24528241 -31.14550781 20.13330078 C-26.54846862 17.0155634 -21.96009855 13.8852632 -17.375 10.75 C-16.62476563 10.23800049 -15.87453125 9.72600098 -15.1015625 9.19848633 C-11.73022821 6.89261364 -8.39330523 4.55897901 -5.1015625 2.140625 C-2 0 -2 0 0 0 Z " fill="#4BAE4F" transform="translate(108,326)"/>
<path d="M0 0 C0.54180908 0.45310547 1.08361816 0.90621094 1.6418457 1.37304688 C4.07463058 3.45142021 5.83431929 5.25147894 7.625 7.9375 C-19.105 34.6675 -19.105 34.6675 -46.375 61.9375 C-54.375 55.9375 -54.375 55.9375 -57.18359375 53.734375 C-92.84715671 25.9666083 -136.81481059 15.75934376 -181.36328125 21.18359375 C-212.85600556 25.59393982 -242.86200337 39.09557225 -266.15234375 60.87109375 C-268.15038666 62.7286767 -270.20627197 64.45571251 -272.3125 66.1875 C-282.541404 75.16094496 -290.14204919 86.53169296 -297.375 97.9375 C-297.94734375 98.83726562 -298.5196875 99.73703125 -299.109375 100.6640625 C-300.21018118 102.41422064 -301.29541261 104.17417393 -302.375 105.9375 C-309.67517272 101.54502319 -316.48114551 96.69436393 -323.26220703 91.55151367 C-327.5478011 88.30282186 -331.864398 85.11234213 -336.25 82 C-336.80196045 81.60756104 -337.3539209 81.21512207 -337.92260742 80.81079102 C-339.08949851 79.981514 -340.25657875 79.1525031 -341.42382812 78.32373047 C-345.28840349 75.57810248 -349.14687652 72.8241758 -353 70.0625 C-353.77069824 69.514729 -354.54139648 68.96695801 -355.33544922 68.40258789 C-358.96486446 65.79653425 -362.34653287 63.25439257 -365.375 59.9375 C-355.15680225 44.17289572 -344.41253576 29.50441635 -331.375 15.9375 C-330.80765137 15.34291992 -330.24030273 14.74833984 -329.65576172 14.13574219 C-319.9324278 3.99670241 -309.7969223 -4.99759529 -298.19921875 -12.9375 C-297.50892578 -13.41864258 -296.81863281 -13.89978516 -296.10742188 -14.39550781 C-294.77967685 -15.31554508 -293.43894975 -16.21722289 -292.08398438 -17.09667969 C-288.72969631 -19.42095325 -287.47938057 -20.59150196 -286.58203125 -24.640625 C-286.51371094 -25.76984375 -286.44539063 -26.8990625 -286.375 -28.0625 C-285.04738928 -32.18963768 -282.63643743 -33.35259313 -278.875 -35.3125 C-277.40546875 -36.09367187 -277.40546875 -36.09367187 -275.90625 -36.890625 C-273.375 -38.0625 -273.375 -38.0625 -271.375 -38.0625 C-270.385 -36.5775 -270.385 -36.5775 -269.375 -35.0625 C-262.41576164 -34.16829619 -257.5425146 -36.33933993 -251.3125 -39.25 C-249.43279478 -40.08739727 -247.55127281 -40.9207282 -245.66796875 -41.75 C-244.75708496 -42.1521875 -243.84620117 -42.554375 -242.90771484 -42.96875 C-162.42460758 -77.72528755 -65.18510921 -54.58806391 0 0 Z " fill="#F34235" transform="translate(413.375,73.0625)"/>
<path d="M0 0 C5.94 0 11.88 0 18 0 C18.99 2.97 18.99 2.97 20 6 C21.80651432 6.99849398 21.80651432 6.99849398 24 7 C25.17770966 7.0783181 25.17770966 7.0783181 26.37921143 7.15821838 C27.6982547 7.18153481 27.6982547 7.18153481 29.04394531 7.20532227 C30.04468079 7.22526749 31.04541626 7.24521271 32.07647705 7.26576233 C33.14952087 7.28247482 34.2225647 7.29918732 35.328125 7.31640625 C36.43226746 7.33718735 37.53640991 7.35796844 38.67401123 7.37937927 C42.19927783 7.44473646 45.72461859 7.50369564 49.25 7.5625 C51.64063265 7.60569836 54.03125782 7.64931307 56.421875 7.69335938 C62.28117173 7.80040372 68.14054214 7.90219585 74 8 C74.07742734 15.26921588 74.12916225 22.53832187 74.16479492 29.80786133 C74.17968287 32.26981579 74.19999983 34.73174471 74.22631836 37.19360352 C74.39494596 53.39838526 73.65467165 69.00427464 71 85 C70.82946609 86.05908066 70.82946609 86.05908066 70.65548706 87.13955688 C64.2016448 126.75995259 47.80403757 163.47425759 23 195 C22.30390625 195.89976562 21.6078125 196.79953125 20.890625 197.7265625 C19.26761294 199.82349408 17.6377782 201.91459754 16 204 C10.56076201 203.61529947 7.01266026 200.40646211 2.8125 197.25 C1.19417742 196.05706507 -0.42431692 194.86436314 -2.04296875 193.671875 C-2.86716309 193.06021484 -3.69135742 192.44855469 -4.54052734 191.81835938 C-8.33625964 189.01206455 -12.16864683 186.25734299 -16 183.5 C-17.48324442 182.42862281 -18.96631636 181.3570068 -20.44921875 180.28515625 C-23.61597175 177.99778885 -26.78569396 175.71460057 -29.95703125 173.43359375 C-30.76978516 172.84835937 -31.58253906 172.263125 -32.41992188 171.66015625 C-33.97123996 170.54320723 -35.52327969 169.42725953 -37.07617188 168.3125 C-40.79725776 165.63168102 -44.45053915 162.907908 -48 160 C-46.41662549 156.32553851 -44.1227918 153.68794062 -41.5 150.6875 C-28.08847561 134.81338005 -12.96035555 112.64319996 -10.625 91.625 C-10.79277389 89.03052903 -10.79277389 89.03052903 -12.15446949 87.36085796 C-14.77227782 85.4305375 -16.66796637 85.61515894 -19.90348816 85.60127258 C-21.13607864 85.58873444 -22.36866913 85.57619629 -23.63861084 85.5632782 C-25.00671413 85.5644523 -26.3748172 85.56591147 -27.74291992 85.56762695 C-29.18177637 85.55861209 -30.62062511 85.54828554 -32.0594635 85.53674316 C-35.96827226 85.50911439 -39.87693553 85.49988074 -43.78582931 85.49388909 C-47.86983642 85.48452065 -51.9537342 85.45831856 -56.03767395 85.43388367 C-63.77239968 85.39017274 -71.50710424 85.36165405 -79.241916 85.33856028 C-89.69310447 85.30648121 -100.14416681 85.2510014 -110.59525967 85.19681454 C-127.06346903 85.11204854 -143.53162867 85.0586063 -160 85 C-160 59.59 -160 34.18 -160 8 C-143.28601563 7.94392578 -143.28601563 7.94392578 -126.234375 7.88671875 C-119.18878949 7.85645434 -112.14322064 7.82543917 -105.09765625 7.79101562 C-93.90675341 7.73647905 -82.71589689 7.68506858 -71.52490234 7.65356445 C-63.37534992 7.63060829 -55.22591852 7.59723705 -47.07646203 7.55129844 C-42.76038576 7.52733398 -38.44442958 7.50862638 -34.12828827 7.50238609 C-30.06693664 7.49634975 -26.00589242 7.47640282 -21.94465446 7.44572449 C-20.45312825 7.43692091 -18.96156191 7.43322647 -17.47001076 7.43499184 C-15.43511109 7.43664005 -13.40022457 7.41820734 -11.36541748 7.39872742 C-10.22608135 7.39411845 -9.08674522 7.38950949 -7.91288376 7.38476086 C-4.64804316 6.95351026 -3.27563497 6.3582281 -1 4 C-0.67 2.68 -0.34 1.36 0 0 Z " fill="#2095F1" transform="translate(423,210)"/>
<path d="M0 0 C5.8878454 3.87371806 11.67353213 7.85730464 17.375 12 C18.14102539 12.55469971 18.90705078 13.10939941 19.69628906 13.6809082 C26.20375924 18.40166433 32.67241003 23.17453534 39.13818359 27.95214844 C50.93435344 36.66656583 50.93435344 36.66656583 63 45 C62.385891 49.46747427 61.23001905 53.39381773 59.6875 57.625 C57.54594792 63.76750284 56.01970972 69.93467339 54.75 76.3125 C54.58717529 77.12348145 54.42435059 77.93446289 54.2565918 78.77001953 C49.3323679 104.53916571 50.07507787 133.82437083 59.36328125 158.546875 C60.135756 161.52303537 59.92164296 163.07219818 59 166 C57.171875 167.76660156 57.171875 167.76660156 54.75 169.390625 C53.84362793 170.00929443 52.93725586 170.62796387 52.00341797 171.26538086 C51.01229004 171.92030518 50.02116211 172.57522949 49 173.25 C47.97922363 173.9416626 46.95844727 174.6333252 45.90673828 175.34594727 C43.73109422 176.81848483 41.55274324 178.28552699 39.36816406 179.74462891 C34.92494386 182.71445217 30.51325016 185.73001672 26.09814453 188.74145508 C22.93933752 190.89366452 19.7746996 193.03707963 16.609375 195.1796875 C13.26539666 197.44809766 9.93731636 199.73371572 6.640625 202.0703125 C6.02977051 202.502229 5.41891602 202.93414551 4.78955078 203.37915039 C3.27453723 204.45619214 1.76581799 205.54207395 0.2578125 206.62890625 C-2 208 -2 208 -5 208 C-14.97713977 184.72885219 -21.91737666 161.1644129 -25 136 C-25.15142456 134.82111206 -25.15142456 134.82111206 -25.3059082 133.6184082 C-30.58681551 87.97526588 -21.48925208 40.46677341 0 0 Z " fill="#FDC006" transform="translate(41,147)"/>
<path d="M0 0 C7.26 0 14.52 0 22 0 C22.07536322 7.26926525 22.12916211 14.53829256 22.16479492 21.80786133 C22.17968287 24.26981579 22.19999983 26.73174471 22.22631836 29.19360352 C22.39494596 45.39838526 21.65467165 61.00427464 19 77 C18.82946609 78.05908066 18.82946609 78.05908066 18.65548706 79.13955688 C12.2016448 118.75995259 -4.19596243 155.47425759 -29 187 C-29.69609375 187.89976562 -30.3921875 188.79953125 -31.109375 189.7265625 C-32.73238706 191.82349408 -34.3622218 193.91459754 -36 196 C-40.2829452 195.4520917 -42.85135641 193.97567196 -46.3125 191.4375 C-47.19550781 190.79683594 -48.07851563 190.15617188 -48.98828125 189.49609375 C-49.65214844 189.00238281 -50.31601562 188.50867188 -51 188 C-50.67128906 187.51273438 -50.34257812 187.02546875 -50.00390625 186.5234375 C-48.32582888 184.02223817 -46.66203039 181.51189335 -45 179 C-44.32324219 177.98292969 -43.64648438 176.96585938 -42.94921875 175.91796875 C-22.96050441 145.59213047 -9.51933774 111.9784692 -4 76 C-3.88962402 75.30293945 -3.77924805 74.60587891 -3.66552734 73.88769531 C0.09242996 49.58821074 -0.57782034 24.52662952 0 0 Z " fill="#1D87E4" transform="translate(475,218)"/>
<path d="M0 0 C5.40838443 3.56879789 10.74979781 7.20198139 16 11 C15.385891 15.46747427 14.23001905 19.39381773 12.6875 23.625 C10.54594792 29.76750284 9.01970972 35.93467339 7.75 42.3125 C7.58717529 43.12348145 7.42435059 43.93446289 7.2565918 44.77001953 C2.3323679 70.53916571 3.07507787 99.82437083 12.36328125 124.546875 C13.1648425 127.6350987 13.23229384 129.03044981 12 132 C9.87793314 134.06039866 7.51599157 135.6711652 5.0625 137.3125 C4.41603516 137.76689453 3.76957031 138.22128906 3.10351562 138.68945312 C-1.69055451 142 -1.69055451 142 -4 142 C-8.86657013 129.85836797 -13.47254986 117.8690716 -16 105 C-16.17587646 104.15848389 -16.35175293 103.31696777 -16.53295898 102.44995117 C-18.18654709 93.77762048 -18.35784869 85.22811247 -18.3125 76.4375 C-18.31034485 75.68643982 -18.3081897 74.93537964 -18.30596924 74.16156006 C-18.18386119 47.62317592 -12.07145151 23.66951276 0 0 Z " fill="#FDB200" transform="translate(88,181)"/>
<path d="M0 0 C36.1231042 7.39383294 68.40991302 26.64365521 96.375 50.0625 C96.91680908 50.51560547 97.45861816 50.96871094 98.0168457 51.43554688 C100.44963058 53.51392021 102.20931929 55.31397894 104 58 C86.18 75.82 68.36 93.64 50 112 C41 105.25 41 105.25 38 102 C39.11251129 101.37300957 39.11251129 101.37300957 40.24749756 100.73335266 C42.8587605 99.08894374 44.84745381 97.42364683 47.04003906 95.26635742 C47.79722229 94.52516159 48.55440552 93.78396576 49.33453369 93.02030945 C50.13679382 92.22341202 50.93905396 91.42651459 51.765625 90.60546875 C52.5996283 89.78049393 53.43363159 88.9555191 54.29290771 88.10554504 C56.0505289 86.36240635 57.80537319 84.61646381 59.55761719 82.86791992 C62.24215622 80.19530893 64.94478104 77.54192368 67.6484375 74.88867188 C69.35531355 73.19125667 71.06108104 71.49272583 72.765625 69.79296875 C73.57598206 69.00214401 74.38633911 68.21131927 75.22125244 67.39653015 C79.5362164 63.06358381 79.5362164 63.06358381 82.15771484 57.62915039 C81.95585389 54.26407213 80.58098523 52.92437924 78.12817383 50.71484375 C77.54962646 50.23144531 76.9710791 49.74804688 76.375 49.25 C75.78033936 48.73050781 75.18567871 48.21101563 74.57299805 47.67578125 C72.73638924 46.08998259 70.87503675 44.54008359 69 43 C68.20505127 42.34161133 68.20505127 42.34161133 67.39404297 41.66992188 C46.98855082 24.94775518 24.14542469 12.39584112 0 2 C0 1.34 0 0.68 0 0 Z " fill="#E13834" transform="translate(317,23)"/>
<path d="M0 0 C0.60585937 1.13695312 1.21171875 2.27390625 1.8359375 3.4453125 C7.26576528 13.50318245 13.06952988 22.9120444 20 32 C20.56589844 32.78632813 21.13179687 33.57265625 21.71484375 34.3828125 C24.17208713 37.60264866 25.67225917 38.90958874 29.625 40 C32.81560474 40.21813504 32.81560474 40.21813504 34.84765625 39.22265625 C37 39 37 39 39.83203125 40.80859375 C47.82328368 47.8572345 47.82328368 47.8572345 48.3515625 51.2734375 C47.961257 53.19550796 47.48326165 55.09917086 47 57 C49.82812041 61.61703647 53.72925985 64.07623378 58.25 66.8125 C58.94367676 67.24046875 59.63735352 67.6684375 60.35205078 68.109375 C66.055475 71.56708395 71.9277097 74.61801164 77.94628906 77.48754883 C80.67342118 78.79184448 82.84438807 79.84438807 85 82 C69.56358696 81.50995514 55.35391213 74.21082397 42 67 C40.94039062 66.43410156 39.88078125 65.86820312 38.7890625 65.28515625 C17.18154011 53.2337166 -3.91893325 33.80950472 -16 12 C-14.65214473 7.95643419 -11.9550299 6.58749064 -8.5625 4.3125 C-7.96373047 3.89677734 -7.36496094 3.48105469 -6.74804688 3.05273438 C-2.27170567 0 -2.27170567 0 0 0 Z " fill="#429E46" transform="translate(108,326)"/>
<path d="M0 0 C-0.5576001 0.25056152 -1.1152002 0.50112305 -1.68969727 0.75927734 C-18.45691871 8.35490616 -33.09293704 16.87433666 -47 29 C-47.49097168 29.42394043 -47.98194336 29.84788086 -48.48779297 30.28466797 C-62.9786186 42.86360541 -74.55322185 58.33373287 -84 75 C-85.7541123 73.92333797 -87.50312587 72.83836661 -89.25 71.75 C-90.22453125 71.14671875 -91.1990625 70.5434375 -92.203125 69.921875 C-94.79705245 68.13945558 -96.86377619 66.29898372 -99 64 C-75.67269228 31.51456406 -44.17438406 8.5613661 -4.93212891 -0.765625 C-3 -1 -3 -1 0 0 Z " fill="#E23834" transform="translate(195,104)"/>
<path d="M0 0 C4.34170523 2.3836813 8.2064129 4.78119883 12 8 C0.73852796 34.00161869 -45.47135264 54.04305569 -70 64 C-73.56432415 65.38927488 -77.14672776 66.71532301 -80.75 68 C-81.55937012 68.29092529 -82.36874023 68.58185059 -83.20263672 68.8815918 C-88.15673283 70.58472357 -92.78109596 71.52338776 -98 72 C-95.83927485 69.60929354 -93.92649702 68.33580855 -90.96484375 67.08984375 C-90.16473877 66.74526123 -89.36463379 66.40067871 -88.5402832 66.0456543 C-87.25190552 65.49711792 -87.25190552 65.49711792 -85.9375 64.9375 C-69.39168107 57.66236216 -54.47201017 48.81287364 -40 38 C-39.38672852 37.54512207 -38.77345703 37.09024414 -38.14160156 36.62158203 C-16.33874604 20.79032812 -16.33874604 20.79032812 0 0 Z " fill="#429D46" transform="translate(414,417)"/>
</svg>
