<?xml version="1.0" encoding="UTF-8"?>
<svg version="1.1" xmlns="http://www.w3.org/2000/svg" width="512" height="512">
<path d="M0 0 C1.79212096 -0.00346232 3.58423979 -0.00823072 5.37635422 -0.01418173 C10.27022644 -0.02664248 15.16392193 -0.02054387 20.05779457 -0.01122308 C25.3475829 -0.00441266 30.63734164 -0.01492368 35.92712402 -0.02316284 C46.27768513 -0.03648113 56.62818087 -0.03363092 66.97874451 -0.02492492 C75.39318375 -0.01814129 83.80760471 -0.01723459 92.2220459 -0.02049637 C94.02053392 -0.02118592 94.02053392 -0.02118592 95.85535502 -0.0218894 C98.29131858 -0.0228486 100.72728213 -0.02382124 103.16324568 -0.02480717 C125.98876402 -0.03335549 148.81424618 -0.02353568 171.63975859 -0.00740607 C191.21200561 0.00599659 210.78419925 0.00366834 230.35644531 -0.01016235 C253.10201013 -0.02622802 275.84754325 -0.03253157 298.59311295 -0.02332556 C301.01996103 -0.02236995 303.44680913 -0.02142683 305.87365723 -0.02049637 C307.06761698 -0.02003354 308.26157674 -0.01957072 309.4917171 -0.01909386 C317.8930454 -0.01650694 326.29435354 -0.02086856 334.69567871 -0.02793503 C344.93837628 -0.03636117 355.18100491 -0.03404642 365.42369461 -0.0180928 C370.64657128 -0.01022513 375.86933312 -0.00709284 381.09220886 -0.01704025 C385.87887785 -0.02601879 390.6653262 -0.02100245 395.45197535 -0.0051076 C397.1779148 -0.00177314 398.90387313 -0.00342358 400.62980032 -0.01073496 C416.57260163 -0.07305944 430.44205367 1.32110468 442.59082031 12.77938843 C452.30707387 23.08210427 455.35625972 32.75877076 455.3152771 46.70266724 C455.31980821 47.83611454 455.32433933 48.96956185 455.32900774 50.13735604 C455.3416585 53.93181204 455.34003091 57.72612463 455.33837891 61.52059937 C455.34327781 64.2426711 455.35111273 66.96473281 455.35873413 69.6867981 C455.37532335 76.3116681 455.38084274 82.93650252 455.38195889 89.56139156 C455.38291039 94.94872144 455.3870258 100.33603961 455.39336014 105.72336578 C455.41096724 121.01012529 455.42019989 136.29685676 455.41869919 151.58362648 C455.41857932 152.81893196 455.41857932 152.81893196 455.41845703 154.07919312 C455.41837527 154.9037401 455.41829351 155.72828708 455.41820927 156.57782033 C455.41739662 169.93630275 455.43653026 183.29467236 455.46473376 196.65312216 C455.49348958 210.38192557 455.50727256 224.11067401 455.50554621 237.8395083 C455.50488322 245.54219088 455.51033558 253.24475519 455.53190231 260.94741058 C455.55014972 267.5064029 455.5544324 274.06522335 455.54088347 280.62423012 C455.53437136 283.96752656 455.53636266 287.31022573 455.55158997 290.65353394 C455.56706153 294.2864148 455.55772024 297.91843722 455.54232788 301.55130005 C455.55261501 302.59616758 455.56290213 303.64103511 455.57350099 304.7175653 C455.46314864 316.54717865 451.19385571 327.07793207 442.90722656 335.57626343 C429.60919087 347.8339766 415.42306282 348.83530414 398.09570312 348.76190186 C396.30358216 348.76536418 394.51146333 348.77013258 392.71934891 348.77608359 C387.82547669 348.78854433 382.9317812 348.78244573 378.03790855 348.77312493 C372.74812022 348.76631451 367.45836148 348.77682553 362.1685791 348.7850647 C351.81801799 348.79838299 341.46752226 348.79553277 331.11695862 348.78682677 C322.70251938 348.78004314 314.28809842 348.77913645 305.87365723 348.78239822 C304.07516921 348.78308777 304.07516921 348.78308777 302.2403481 348.78379125 C299.80438454 348.78475046 297.36842099 348.7857231 294.93245745 348.78670903 C272.1069391 348.79525734 249.28145695 348.78543754 226.45594454 348.76930793 C206.88369751 348.75590526 187.31150387 348.75823351 167.73925781 348.77206421 C144.993693 348.78812987 122.24815987 348.79443342 99.50259018 348.78522742 C97.07574209 348.7842718 94.648894 348.78332869 92.2220459 348.78239822 C91.02808614 348.7819354 89.83412638 348.78147257 88.60398602 348.78099572 C80.20265773 348.77840879 71.80134959 348.78277042 63.40002441 348.78983688 C53.15732684 348.79826303 42.91469822 348.79594828 32.67200851 348.77999465 C27.44913184 348.77212698 22.22637 348.7689947 17.00349426 348.77894211 C12.21682528 348.78792064 7.43037692 348.78290431 2.64372778 348.76700945 C0.91778832 348.76367499 -0.80817 348.76532543 -2.53409719 348.77263682 C-18.4768985 348.83496129 -32.34635055 347.44079717 -44.49511719 335.98251343 C-54.21137075 325.67979758 -57.26055659 316.0031311 -57.21957397 302.05923462 C-57.22410509 300.92578731 -57.2286362 299.79234001 -57.23330462 298.62454581 C-57.24595537 294.83008982 -57.24432778 291.03577723 -57.24267578 287.24130249 C-57.24757468 284.51923075 -57.25540961 281.79716905 -57.26303101 279.07510376 C-57.27962023 272.45023375 -57.28513962 265.82539934 -57.28625576 259.20051029 C-57.28720727 253.81318042 -57.29132268 248.42586225 -57.29765701 243.03853607 C-57.31526412 227.75177656 -57.32449677 212.4650451 -57.32299607 197.17827538 C-57.32291615 196.35473839 -57.32283624 195.5312014 -57.32275391 194.68270874 C-57.32267214 193.85816176 -57.32259038 193.03361478 -57.32250614 192.18408152 C-57.3216935 178.8255991 -57.34082713 165.4672295 -57.36903064 152.1087797 C-57.39778645 138.37997628 -57.41156944 124.65122784 -57.40984309 110.92239356 C-57.40918009 103.21971098 -57.41463246 95.51714666 -57.43619919 87.81449127 C-57.45444659 81.25549895 -57.45872928 74.6966785 -57.44518034 68.13767174 C-57.43866823 64.7943753 -57.44065954 61.45167613 -57.45588684 58.10836792 C-57.4713584 54.47548705 -57.46201712 50.84346464 -57.44662476 47.21060181 C-57.45691188 46.16573427 -57.46719901 45.12086674 -57.47779787 44.04433656 C-57.36744552 32.21472321 -53.09815259 21.68396978 -44.81152344 13.18563843 C-31.51348775 0.92792526 -17.32735969 -0.07340228 0 0 Z " fill="#EC1E33" transform="translate(56.9521484375,81.61904907226563)"/>
<path d="M0 0 C1.79212096 -0.00346232 3.58423979 -0.00823072 5.37635422 -0.01418173 C10.27022644 -0.02664248 15.16392193 -0.02054387 20.05779457 -0.01122308 C25.3475829 -0.00441266 30.63734164 -0.01492368 35.92712402 -0.02316284 C46.27768513 -0.03648113 56.62818087 -0.03363092 66.97874451 -0.02492492 C75.39318375 -0.01814129 83.80760471 -0.01723459 92.2220459 -0.02049637 C94.02053392 -0.02118592 94.02053392 -0.02118592 95.85535502 -0.0218894 C98.29131858 -0.0228486 100.72728213 -0.02382124 103.16324568 -0.02480717 C125.98876402 -0.03335549 148.81424618 -0.02353568 171.63975859 -0.00740607 C191.21200561 0.00599659 210.78419925 0.00366834 230.35644531 -0.01016235 C253.10201013 -0.02622802 275.84754325 -0.03253157 298.59311295 -0.02332556 C301.01996103 -0.02236995 303.44680913 -0.02142683 305.87365723 -0.02049637 C307.06761698 -0.02003354 308.26157674 -0.01957072 309.4917171 -0.01909386 C317.8930454 -0.01650694 326.29435354 -0.02086856 334.69567871 -0.02793503 C344.93837628 -0.03636117 355.18100491 -0.03404642 365.42369461 -0.0180928 C370.64657128 -0.01022513 375.86933312 -0.00709284 381.09220886 -0.01704025 C385.87887785 -0.02601879 390.6653262 -0.02100245 395.45197535 -0.0051076 C397.1779148 -0.00177314 398.90387313 -0.00342358 400.62980032 -0.01073496 C416.57260163 -0.07305944 430.44205367 1.32110468 442.59082031 12.77938843 C452.30707387 23.08210427 455.35625972 32.75877076 455.3152771 46.70266724 C455.31980821 47.83611454 455.32433933 48.96956185 455.32900774 50.13735604 C455.3416585 53.93181204 455.34003091 57.72612463 455.33837891 61.52059937 C455.34327781 64.2426711 455.35111273 66.96473281 455.35873413 69.6867981 C455.37532335 76.3116681 455.38084274 82.93650252 455.38195889 89.56139156 C455.38291039 94.94872144 455.3870258 100.33603961 455.39336014 105.72336578 C455.41096724 121.01012529 455.42019989 136.29685676 455.41869919 151.58362648 C455.41857932 152.81893196 455.41857932 152.81893196 455.41845703 154.07919312 C455.41837527 154.9037401 455.41829351 155.72828708 455.41820927 156.57782033 C455.41739662 169.93630275 455.43653026 183.29467236 455.46473376 196.65312216 C455.49348958 210.38192557 455.50727256 224.11067401 455.50554621 237.8395083 C455.50488322 245.54219088 455.51033558 253.24475519 455.53190231 260.94741058 C455.55014972 267.5064029 455.5544324 274.06522335 455.54088347 280.62423012 C455.53437136 283.96752656 455.53636266 287.31022573 455.55158997 290.65353394 C455.56706153 294.2864148 455.55772024 297.91843722 455.54232788 301.55130005 C455.55261501 302.59616758 455.56290213 303.64103511 455.57350099 304.7175653 C455.46314864 316.54717865 451.19385571 327.07793207 442.90722656 335.57626343 C429.60919087 347.8339766 415.42306282 348.83530414 398.09570312 348.76190186 C396.30358216 348.76536418 394.51146333 348.77013258 392.71934891 348.77608359 C387.82547669 348.78854433 382.9317812 348.78244573 378.03790855 348.77312493 C372.74812022 348.76631451 367.45836148 348.77682553 362.1685791 348.7850647 C351.81801799 348.79838299 341.46752226 348.79553277 331.11695862 348.78682677 C322.70251938 348.78004314 314.28809842 348.77913645 305.87365723 348.78239822 C304.07516921 348.78308777 304.07516921 348.78308777 302.2403481 348.78379125 C299.80438454 348.78475046 297.36842099 348.7857231 294.93245745 348.78670903 C272.1069391 348.79525734 249.28145695 348.78543754 226.45594454 348.76930793 C206.88369751 348.75590526 187.31150387 348.75823351 167.73925781 348.77206421 C144.993693 348.78812987 122.24815987 348.79443342 99.50259018 348.78522742 C97.07574209 348.7842718 94.648894 348.78332869 92.2220459 348.78239822 C91.02808614 348.7819354 89.83412638 348.78147257 88.60398602 348.78099572 C80.20265773 348.77840879 71.80134959 348.78277042 63.40002441 348.78983688 C53.15732684 348.79826303 42.91469822 348.79594828 32.67200851 348.77999465 C27.44913184 348.77212698 22.22637 348.7689947 17.00349426 348.77894211 C12.21682528 348.78792064 7.43037692 348.78290431 2.64372778 348.76700945 C0.91778832 348.76367499 -0.80817 348.76532543 -2.53409719 348.77263682 C-18.4768985 348.83496129 -32.34635055 347.44079717 -44.49511719 335.98251343 C-54.21137075 325.67979758 -57.26055659 316.0031311 -57.21957397 302.05923462 C-57.22410509 300.92578731 -57.2286362 299.79234001 -57.23330462 298.62454581 C-57.24595537 294.83008982 -57.24432778 291.03577723 -57.24267578 287.24130249 C-57.24757468 284.51923075 -57.25540961 281.79716905 -57.26303101 279.07510376 C-57.27962023 272.45023375 -57.28513962 265.82539934 -57.28625576 259.20051029 C-57.28720727 253.81318042 -57.29132268 248.42586225 -57.29765701 243.03853607 C-57.31526412 227.75177656 -57.32449677 212.4650451 -57.32299607 197.17827538 C-57.32291615 196.35473839 -57.32283624 195.5312014 -57.32275391 194.68270874 C-57.32267214 193.85816176 -57.32259038 193.03361478 -57.32250614 192.18408152 C-57.3216935 178.8255991 -57.34082713 165.4672295 -57.36903064 152.1087797 C-57.39778645 138.37997628 -57.41156944 124.65122784 -57.40984309 110.92239356 C-57.40918009 103.21971098 -57.41463246 95.51714666 -57.43619919 87.81449127 C-57.45444659 81.25549895 -57.45872928 74.6966785 -57.44518034 68.13767174 C-57.43866823 64.7943753 -57.44065954 61.45167613 -57.45588684 58.10836792 C-57.4713584 54.47548705 -57.46201712 50.84346464 -57.44662476 47.21060181 C-57.45691188 46.16573427 -57.46719901 45.12086674 -57.47779787 44.04433656 C-57.36744552 32.21472321 -53.09815259 21.68396978 -44.81152344 13.18563843 C-31.51348775 0.92792526 -17.32735969 -0.07340228 0 0 Z M-35.76855469 28.37704468 C-39.83251453 35.25761036 -40.38566636 40.62715211 -40.33982849 48.52630615 C-40.34521403 49.64074683 -40.35059957 50.7551875 -40.3561483 51.90339911 C-40.37044282 55.63349652 -40.3633202 59.36323981 -40.35620117 63.09335327 C-40.36190397 65.7694155 -40.36876737 68.4454524 -40.3769989 71.12150574 C-40.39417809 77.63342948 -40.3950287 84.1452567 -40.389786 90.65719722 C-40.38574118 95.95158569 -40.38719156 101.24594568 -40.39253426 106.54033279 C-40.39328268 107.29445948 -40.3940311 108.04858616 -40.3948022 108.82556517 C-40.39633371 110.35768385 -40.39787206 111.88980253 -40.39941717 113.42192121 C-40.4131392 127.78387624 -40.40770677 142.14577677 -40.39623196 156.50773056 C-40.38630138 169.63800817 -40.39923771 182.76814483 -40.42316615 195.89840071 C-40.44756711 209.38989849 -40.45716248 222.88133066 -40.45051342 236.37285006 C-40.44702322 243.9435585 -40.44924001 251.51415858 -40.46676445 259.08485031 C-40.48149898 265.53009093 -40.48210572 271.97514687 -40.46469354 278.42038392 C-40.45619098 281.70666406 -40.45619029 284.99254725 -40.46934509 288.27882195 C-40.48253593 291.84673478 -40.47102275 295.41375392 -40.45335388 298.98162842 C-40.46295889 300.01286689 -40.47256389 301.04410537 -40.48245996 302.10659349 C-40.39984952 310.22572537 -38.32229983 317.85858232 -32.64388847 323.97840953 C-23.06494421 331.91985775 -12.82751623 332.24204911 -1.03759766 332.14285278 C0.76263117 332.1497757 2.5628515 332.15931138 4.36305428 332.17121625 C9.28409424 332.19616271 14.20443216 332.1839301 19.12547398 332.16529894 C24.44256301 332.15168798 29.7595338 332.17269517 35.07659912 332.18917847 C45.48250375 332.21582579 55.88814837 332.21011 66.29406309 332.19270262 C74.75288745 332.17913951 83.21163907 332.17732015 91.67047119 332.18384552 C93.47792161 332.18522462 93.47792161 332.18522462 95.32188618 332.18663158 C97.76993102 332.18854997 100.21797584 332.19049525 102.66602063 332.19246712 C125.60886175 332.20956689 148.55155891 332.18991931 171.49437642 332.15766492 C191.17047667 332.13085924 210.84636452 332.13551566 230.52246094 332.16317749 C253.38449792 332.19530337 276.2464088 332.20791902 299.10846519 332.18950391 C301.54738742 332.18759266 303.98630967 332.18570643 306.42523193 332.18384552 C307.62515561 332.18291987 308.82507929 332.18199421 310.06136429 332.18104051 C318.5077576 332.175865 326.95407077 332.18459344 335.40045166 332.19872284 C345.69707713 332.21556915 355.99342824 332.21095859 366.29002237 332.17903838 C371.5412369 332.1632945 376.79199436 332.1570521 382.04320526 332.17693329 C386.85477325 332.19487417 391.66546256 332.1848867 396.47695136 332.15306798 C398.21299048 332.14639191 399.94910456 332.14971668 401.68509507 332.1643227 C412.74963094 332.25024045 422.3854193 331.27945579 431.06966972 323.59095836 C437.82599624 316.64025157 438.48981514 308.3341219 438.44226074 299.12207031 C438.4513974 297.45018601 438.4513974 297.45018601 438.46071863 295.74452627 C438.47733138 292.01987724 438.47257512 288.29557072 438.46777344 284.57089233 C438.47511474 281.89630464 438.48360872 279.22174237 438.49343872 276.54716492 C438.51445608 270.04240223 438.51903571 263.53772875 438.51725084 257.03293611 C438.5159414 251.7438232 438.5197566 246.45473803 438.5271759 241.16563034 C438.52927518 239.64007008 438.53137278 238.11450982 438.53346872 236.58894956 C438.53451225 235.82955345 438.53555578 235.07015733 438.53663093 234.28774922 C438.55551823 219.93720885 438.55448768 205.58671965 438.5476616 191.23617201 C438.54208665 178.11954048 438.56291214 165.00310431 438.59602207 151.88651843 C438.62978762 138.40515212 438.64492388 124.92387932 438.64030504 111.44246995 C438.63806332 103.87897982 438.64325994 96.31567026 438.66819763 88.75221634 C438.68924781 82.31322361 438.6927661 75.87451048 438.67389804 69.43550612 C438.66476291 66.15306377 438.66625784 62.87124826 438.68425369 59.58882713 C438.70245019 56.02334428 438.68969157 52.45924044 438.66931152 48.89379883 C438.68182937 47.86615532 438.69434722 46.8385118 438.7072444 45.77972758 C438.61248034 38.02588329 436.63283247 31.53460987 431.49070883 25.5768019 C422.061852 16.82749433 411.67042772 16.80159885 399.49406433 16.85955811 C397.69642974 16.85351291 395.89880029 16.84573285 394.1011799 16.83637297 C389.17350615 16.8158229 384.24612359 16.82017391 379.31842601 16.82873416 C373.99925471 16.83367048 368.68015334 16.81563804 363.36100769 16.80065918 C352.94472298 16.77516575 342.52854139 16.77157774 332.11223074 16.77625971 C323.64476337 16.77982652 315.17732729 16.77632577 306.70986366 16.76781082 C305.50449025 16.76662044 304.29911683 16.76543007 303.05721695 16.76420362 C300.60844752 16.7617801 298.1596781 16.75935183 295.71090869 16.75691886 C272.74808869 16.73516786 249.78532745 16.73949277 226.82250414 16.75168855 C205.82136455 16.7620261 184.82041053 16.73951821 163.81930765 16.70149212 C142.2492705 16.66273565 120.67932113 16.6462233 99.10924894 16.65373862 C87.00175293 16.65756287 74.89441484 16.65258557 62.78694725 16.62430954 C52.47928775 16.60048026 42.17188336 16.59767375 31.86422034 16.62188987 C26.60693853 16.63366655 21.35012334 16.63586966 16.09287262 16.61188507 C11.27565424 16.59016375 6.45929195 16.59637644 1.6421136 16.62440844 C-0.09604239 16.62970154 -1.83426551 16.62497144 -3.57235561 16.60893671 C-16.03122493 16.50201893 -27.44636781 18.03264417 -35.76855469 28.37704468 Z " fill="#1C1C20" transform="translate(56.9521484375,81.61904907226563)"/>
<path d="M0 0 C11.20528282 7.52616407 18.24677273 17.50739679 21.66796875 30.58203125 C23.6807578 44.40724898 22.09715869 57.57966209 14.0546875 69.23828125 C3.875961 81.72952701 3.875961 81.72952701 -2.7578125 82.92578125 C-5.55899756 82.82667042 -6.68821804 82.44863127 -8.87890625 80.65625 C-11.63230266 77.5594192 -13.7403154 74.65615995 -15.5703125 70.92578125 C-18.99652486 67.04875147 -22.66873669 66.96564861 -27.625 65.984375 C-36.56175312 63.976234 -41.07928365 59.49489544 -46.31640625 52.15234375 C-49.38846278 46.6565304 -50.11221429 42.022176 -49.66430664 35.88208008 C-49.13505531 28.20917428 -49.63005426 23.16883396 -54.5078125 17.05078125 C-55.35472656 16.08785156 -56.20164062 15.12492187 -57.07421875 14.1328125 C-58.9453125 11.23828125 -58.9453125 11.23828125 -58.875 7.5390625 C-57.66767767 3.25256095 -55.60672188 1.48355434 -51.9453125 -0.76171875 C-35.51842044 -9.91938771 -16.1846011 -9.68070968 0 0 Z " fill="#1D1D21" transform="translate(313.9453125,288.76171875)"/>
<path d="M0 0 C9.12308368 6.69026136 17.06163664 15.3024047 19.69921875 26.66015625 C19.86964895 29.80429968 19.44917575 31.76006827 17.54296875 34.2734375 C15.00577979 36.28187464 12.86125546 36.99069216 9.74438477 37.75732422 C5.14292458 38.89402965 1.17641296 39.88584672 -1.91015625 43.70703125 C-2.8421348 45.60473688 -3.72961486 47.5249731 -4.5703125 49.46484375 C-7.56218666 55.70836558 -13.86020054 60.0025452 -20.1953125 62.5234375 C-29.46807244 64.82135177 -37.50200629 64.01525501 -45.67578125 59.24609375 C-49.28107263 57.51068707 -52.14885796 58.02825581 -55.875 59.1875 C-57.23416467 59.71650051 -58.58839137 60.25835557 -59.9375 60.8125 C-63.91267642 62.39007493 -66.70417535 62.47083066 -70.875 61.1875 C-75.45482298 56.84872033 -75.86245629 52.60041289 -76.1484375 46.5625 C-76.55506829 31.34572412 -74.74346428 19.69031044 -63.875 8.1875 C-46.18053046 -9.92401091 -21.73878053 -13.54036671 0 0 Z " fill="#1D1D21" transform="translate(354.875,210.8125)"/>
<path d="M0 0 C10.50938317 3.38437763 15.42241183 13.33285915 20.5 22.4375 C25.60442722 34.25827883 25.08745095 48.19219646 20.6875 60.1875 C15.30557788 73.06503641 6.42027123 80.94654819 -5.91796875 86.8125 C-17.40227598 91.46437128 -30.72506518 92.34554647 -42.5 88.0625 C-54.84035872 82.45181328 -54.84035872 82.45181328 -57.75 76 C-57.00110297 69.47389733 -52.918874 63.793874 -48.3125 59.1875 C-48.27110633 56.35203379 -48.32529771 53.57932493 -48.4375 50.75 C-48.62009525 40.32865991 -46.94780645 31.75216509 -39.4921875 23.9765625 C-34.03669832 19.49875955 -27.72672676 15.95042058 -20.5625 16 C-18.37695453 16.01726276 -18.37695453 16.01726276 -16.3125 15.1875 C-13.93936102 12.59940278 -12.09382859 9.92513913 -10.234375 6.94921875 C-7.39879924 2.87451943 -5.06895891 0.2869222 0 0 Z " fill="#1C1D21" transform="translate(225.3125,274.8125)"/>
<path d="M0 0 C7.03315361 3.17912751 12.43529156 7.50994588 16.71875 13.9609375 C17.13125 15.15460938 17.54375 16.34828125 17.96875 17.578125 C19.43703248 21.25087044 19.43703248 21.25087044 23.15234375 22.59765625 C24.47933281 22.97585472 25.81471843 23.32559529 27.15625 23.6484375 C31.92874922 24.88643392 35.62624561 25.86587557 38.71875 29.9609375 C40.09164848 37.64916901 36.6572513 43.48991873 32.71875 49.9609375 C25.01444829 61.00189543 13.64438563 67.039514 0.71875 69.9609375 C-12.89487016 70.93135849 -24.86044688 70.05686053 -36.21875 61.5859375 C-37.58865915 60.3954814 -38.94406301 59.18803479 -40.28125 57.9609375 C-41.18230469 57.24744141 -41.18230469 57.24744141 -42.1015625 56.51953125 C-49.46484247 50.19635585 -55.35981141 38.61113894 -56.28125 28.9609375 C-57.48533653 9.05824355 -57.48533653 9.05824355 -51.90234375 2.2890625 C-49.5937365 0.39767343 -47.4245322 0.5605164 -44.53125 0.65625 C-42.08733667 0.9871966 -39.97873452 1.63708319 -37.65625 2.4609375 C-33.94356551 3.77650543 -31.2601318 4.61055085 -27.28125 3.9609375 C-25.76906164 3.14993145 -24.27050527 2.31332426 -22.78125 1.4609375 C-15.43497987 -2.38868454 -7.86212116 -2.4896717 0 0 Z " fill="#1C1D21" transform="translate(194.28125,208.0390625)"/>
<path d="M0 0 C1.22589844 -0.03738281 2.45179688 -0.07476562 3.71484375 -0.11328125 C7.0625 0.3125 7.0625 0.3125 9.48046875 1.7421875 C12.23065726 6.210395 11.49968278 11.1985628 11.375 16.31445312 C11.30480657 20.92780127 11.30480657 20.92780127 13.34179688 24.88330078 C14.85747339 26.1020874 16.45945404 27.21115546 18.0625 28.3125 C19.671875 30.375 19.671875 30.375 20.8125 32.3125 C21.39257812 33.2715625 21.39257812 33.2715625 21.984375 34.25 C26.07711364 42.07958696 26.1619652 50.04635218 23.9375 58.5625 C22.11549209 63.92490243 19.07062981 69.73499974 13.90234375 72.4453125 C10.40054902 75.99915089 11.55288339 81.61351082 11.57421875 86.35351562 C11.46635863 92.67313827 11.46635863 92.67313827 9.44140625 95.87890625 C3.83541099 99.2572318 -3.88622939 98.0356782 -10.01953125 96.58203125 C-22.61939796 92.2645944 -33.62355469 84.19127847 -39.9375 72.3125 C-45.87894584 58.79169622 -48.49666809 46.32282896 -43.12890625 32.08984375 C-37.29189272 18.482904 -28.40899224 8.63520033 -14.5625 3 C-9.53259869 1.10779903 -5.41981478 0.10805507 0 0 Z " fill="#1D1D21" transform="translate(261.9375,140.6875)"/>
<path d="M0 0 C5.22967465 4.10903009 7.46466098 10.28474721 8.390625 16.7109375 C8.76960128 26.15827477 5.73993624 34.89749026 -0.24609375 42.21875 C-7.35936089 49.4429144 -16.23214718 53.05824778 -26.3125 53.3125 C-29.91315841 53.20476376 -32.77188503 52.72166132 -36 51 C-34.82705677 48.458623 -33.6025186 46.48561231 -31.875 44.25 C-29.41230095 39.98132165 -29.52851371 37.87202497 -30 33 C-30.3403125 32.3503125 -30.680625 31.700625 -31.03125 31.03125 C-32.75920205 27.40812474 -31.9218027 23.799144 -31 20 C-28.94954519 16.24083284 -27.56102976 14.37401984 -24 12 C-20.47849518 11.69716789 -16.97837512 11.62157564 -13.4453125 11.5390625 C-8.68480852 10.79422174 -6.4208747 8.72609964 -3.41796875 5.078125 C-3.01191406 4.47484375 -2.60585937 3.8715625 -2.1875 3.25 C-1.465625 2.1775 -0.74375 1.105 0 0 Z " fill="#FAFAFA" transform="translate(225,296)"/>
<path d="M0 0 C8.83023886 2.29640887 16.30420661 7.85687566 21.2734375 15.53125 C25.16850794 23.39396983 26.81141947 30.9044867 24.47265625 39.4609375 C22.93319296 43.94261828 21.45294436 47.94283018 18.2734375 51.53125 C17.6134375 51.53125 16.9534375 51.53125 16.2734375 51.53125 C14.87109375 49.8515625 14.87109375 49.8515625 13.3359375 47.65625 C11.37395812 44.85628965 10.18249607 43.47062238 7.2734375 41.53125 C5.19356695 41.38509693 3.10823389 41.31034018 1.0234375 41.28125 C-4.46430589 40.93253052 -7.64950119 40.19239155 -11.4921875 36.20703125 C-14.61189946 31.97172609 -15.17385726 27.67513973 -14.7265625 22.53125 C-14.3965625 21.891875 -14.0665625 21.2525 -13.7265625 20.59375 C-12.13307617 17.30718444 -12.25110319 15.15662725 -12.7265625 11.53125 C-14.47740085 8.33495208 -16.51979152 5.42763692 -18.7265625 2.53125 C-13.40680109 -2.23384434 -6.67357122 -1.14731883 0 0 Z " fill="#FBFBFB" transform="translate(294.7265625,298.46875)"/>
<path d="M0 0 C4.50097807 2.17011443 6.97371728 4.44086387 9 9 C9.21201212 10.54116506 9.42005048 12.08287984 9.625 13.625 C9.98200927 15.98012801 9.98200927 15.98012801 11 18 C13.21897295 19.31478515 15.20138666 19.89830635 17.7109375 20.46484375 C20.04947539 21.01156677 21.89919244 21.85366893 24 23 C21.04862448 29.69565791 15.352366 33.75436627 8.6875 36.4375 C0.03047525 39.1958072 -7.86267032 38.87346247 -16.2890625 35.45703125 C-24.0619419 31.27938857 -29.96196655 25.30160302 -33 17 C-33.61875 15.4840625 -33.61875 15.4840625 -34.25 13.9375 C-35.11794301 10.53805654 -35.13977533 7.49438329 -35 4 C-34.43152344 4.144375 -33.86304688 4.28875 -33.27734375 4.4375 C-26.20815404 6.15943822 -26.20815404 6.15943822 -19 6 C-17.12123116 4.6514036 -17.12123116 4.6514036 -15.25 3 C-10.467946 -0.92612216 -5.9716975 -1.0683312 0 0 Z " fill="#FBFBFB" transform="translate(189,224)"/>
<path d="M0 0 C0.02578125 0.96421875 0.0515625 1.9284375 0.078125 2.921875 C0.13484375 4.18515625 0.1915625 5.4484375 0.25 6.75 C0.29640625 8.00296875 0.3428125 9.2559375 0.390625 10.546875 C1.0891258 14.50504619 1.91696077 15.54018695 5 18 C5.62261719 18.53882813 6.24523437 19.07765625 6.88671875 19.6328125 C8.09443065 20.63356292 9.3027718 21.63355442 10.51171875 22.6328125 C13.27649195 25.1726304 13.27286875 27.57060133 13.4375 31.1875 C13.39645738 36.40675367 12.34018489 38.98672993 8.6640625 42.63671875 C6.57240637 44.35030558 4.37381572 45.71135718 2 47 C0.5192152 49.9615696 0.64685963 52.83506295 0.4375 56.125 C0.35371094 57.40632813 0.26992188 58.68765625 0.18359375 60.0078125 C0.09271484 61.48894531 0.09271484 61.48894531 0 63 C-10.22323667 59.85664849 -16.67646447 54.38603987 -22.03125 45.23828125 C-25.50349802 37.82760376 -25.42822707 27.32923652 -22.9375 19.625 C-19.0964664 11.44502103 -9.98423147 0 0 0 Z " fill="#FCFCFC" transform="translate(257,158)"/>
<path d="M0 0 C7.46713145 5.34606919 7.46713145 5.34606919 8.71484375 9.21875 C8.80894531 9.8065625 8.90304687 10.394375 9 11 C7.98679687 11.25523437 7.98679687 11.25523437 6.953125 11.515625 C-0.0063553 13.22008042 -0.0063553 13.22008042 -5 18 C-5.77840952 20.25484931 -6.46532774 22.52945252 -7.15625 24.8125 C-8.67861462 28.75937124 -11.49901103 30.94930772 -14.875 33.3125 C-18.23200683 34.39859045 -20.46546688 34.46354533 -24 34 C-27.55360845 32.07680318 -31.1270906 29.8729094 -34 27 C-39.61776997 26.64888938 -44.56578866 27.61988283 -50 29 C-50.69791757 19.57811283 -47.85991265 12.80071779 -41.75 5.625 C-31.16632338 -5.48175783 -13.33336426 -8.02341042 0 0 Z " fill="#FCFCFC" transform="translate(345,224)"/>
</svg>
