<?xml version="1.0" encoding="UTF-8"?>
<svg version="1.1" xmlns="http://www.w3.org/2000/svg" width="512" height="512">
<path d="M0 0 C3.20814904 0.0009869 6.41401176 -0.04109506 9.62182617 -0.08496094 C11.67455562 -0.09015901 13.72729327 -0.09285628 15.7800293 -0.09277344 C16.73209763 -0.1091687 17.68416595 -0.12556396 18.66508484 -0.14245605 C23.18398362 -0.09515302 25.35264858 0.05121683 29.125 2.72558594 C30.98706055 5.50097656 30.98706055 5.50097656 30.98706055 10.50097656 C37.58706055 10.50097656 44.18706055 10.50097656 50.98706055 10.50097656 C50.98706055 8.85097656 50.98706055 7.20097656 50.98706055 5.50097656 C53.06406512 2.3854697 54.63673944 0.77768171 58.36987305 0.01269531 C62.94057147 -0.22607252 65.29703828 0.01796098 69.11206055 2.68847656 C70.98706055 5.50097656 70.98706055 5.50097656 70.98706055 10.50097656 C77.58706055 10.50097656 84.18706055 10.50097656 90.98706055 10.50097656 C90.98706055 8.85097656 90.98706055 7.20097656 90.98706055 5.50097656 C93.49746 2.14515409 95.00640505 0.69491495 99.15453434 -0.12543583 C100.35546443 -0.12602214 101.55639452 -0.12660845 102.79371643 -0.12721252 C103.46583048 -0.13430691 104.13794454 -0.1414013 104.83042568 -0.14871067 C107.07666463 -0.16627436 109.3211691 -0.14819563 111.56738281 -0.13012695 C113.18097724 -0.13526719 114.79456605 -0.14254926 116.40814209 -0.15180969 C120.79149146 -0.17034106 125.17423316 -0.15736543 129.55755734 -0.13771939 C134.16198991 -0.12130369 138.76638481 -0.13015181 143.37083435 -0.13523865 C151.11922858 -0.13976316 158.86738177 -0.12388448 166.61572266 -0.09594727 C175.5263652 -0.06406328 184.43656895 -0.06384377 193.34724194 -0.08116204 C201.95482062 -0.09714465 210.56224118 -0.0902079 219.16981316 -0.07322502 C222.81244141 -0.0664183 226.45494046 -0.06732098 230.0975666 -0.07476997 C272.88351907 -0.14371302 272.88351907 -0.14371302 292.79956055 7.75097656 C293.95790405 8.19594482 293.95790405 8.19594482 295.13964844 8.64990234 C311.99484798 15.31144655 325.79597666 25.07394183 338.98706055 37.50097656 C339.65092773 38.10039063 340.31479492 38.69980469 340.9987793 39.31738281 C355.04482015 52.50869502 364.70655619 69.98374868 370.86206055 88.06347656 C371.13630859 88.86479004 371.41055664 89.66610352 371.69311523 90.49169922 C377.19828894 107.65347985 377.42452299 124.19899507 377.39111328 142.0703125 C377.39518605 144.8382251 377.40369217 147.60612047 377.41191101 150.37402344 C377.42900448 157.0789067 377.4299587 163.78369585 377.42469811 170.48859522 C377.42063686 175.94571707 377.42212301 181.40281138 377.42744637 186.85993195 C377.42819479 187.64019224 377.42894321 188.42045254 377.42971431 189.22435708 C377.43124598 190.81008592 377.43278433 192.39581475 377.43432928 193.98154357 C377.44802052 208.81361075 377.44264081 223.64562502 377.43114407 238.47769096 C377.42121869 252.00412154 377.43414634 265.53041519 377.45807826 279.05682465 C377.48254625 292.99275487 377.49205808 306.92862152 377.48542553 320.86457276 C377.4819499 328.66968153 377.4840547 336.47468517 377.50167656 344.27977753 C377.51649548 350.92503942 377.51690914 357.57012214 377.49960565 364.21538088 C377.49117121 367.59629951 377.49097899 370.97664092 377.5042572 374.35758209 C377.57138359 392.87656452 376.64074633 410.89745395 369.73706055 428.31347656 C369.29209229 429.47182007 369.29209229 429.47182007 368.83813477 430.65356445 C362.17659055 447.50876399 352.41409528 461.30989268 339.98706055 474.50097656 C339.38764648 475.16484375 338.78823242 475.82871094 338.1706543 476.51269531 C324.97934209 490.55873617 307.50428843 500.22047221 289.42456055 506.37597656 C288.62324707 506.65022461 287.82193359 506.92447266 286.99633789 507.20703125 C269.83455725 512.71220495 253.28904204 512.93843901 235.41772461 512.9050293 C232.64981201 512.90910206 229.88191664 512.91760818 227.11401367 512.92582703 C220.40913041 512.9429205 213.70434126 512.94387472 206.99944189 512.93861412 C201.54232003 512.93455288 196.08522573 512.93603902 190.62810516 512.94136238 C189.84784487 512.9421108 189.06758457 512.94285923 188.26368003 512.94363033 C186.67795119 512.945162 185.09222236 512.94670035 183.50649354 512.94824529 C168.67442636 512.96193654 153.84241209 512.95655683 139.01034614 512.94506008 C125.48391557 512.9351347 111.95762192 512.94806236 98.43121246 512.97199427 C84.49528224 512.99646227 70.55941559 513.0059741 56.62346435 512.99934155 C48.81835558 512.99586592 41.01335194 512.99797071 33.20825958 513.01559258 C26.56299769 513.03041149 19.91791497 513.03082516 13.27265623 513.01352166 C9.8917376 513.00508722 6.51139619 513.004895 3.13045502 513.01817322 C-15.38852741 513.0852996 -33.40941684 512.15466234 -50.82543945 505.25097656 C-51.98378296 504.8060083 -51.98378296 504.8060083 -53.16552734 504.35205078 C-70.02072688 497.69050657 -83.82185557 487.92801129 -97.01293945 475.50097656 C-97.67680664 474.9015625 -98.34067383 474.30214844 -99.0246582 473.68457031 C-113.07069906 460.49325811 -122.7324351 443.01820444 -128.88793945 424.93847656 C-129.1621875 424.13716309 -129.43643555 423.33584961 -129.71899414 422.51025391 C-135.22416785 405.34847327 -135.4504019 388.80295806 -135.41699219 370.93164062 C-135.42106495 368.16372803 -135.42957107 365.39583266 -135.43778992 362.62792969 C-135.45488339 355.92304643 -135.45583761 349.21825727 -135.45057701 342.51335791 C-135.44651577 337.05623605 -135.44800191 331.59914175 -135.45332527 326.14202118 C-135.4544479 324.97163074 -135.4544479 324.97163074 -135.45559322 323.77759604 C-135.45712489 322.19186721 -135.45866324 320.60613838 -135.46020819 319.02040955 C-135.47389943 304.18834237 -135.46851972 289.3563281 -135.45702297 274.52426216 C-135.44709759 260.99783158 -135.46002525 247.47153794 -135.48395716 233.94512847 C-135.50842516 220.00919825 -135.51793699 206.0733316 -135.51130444 192.13738036 C-135.50782881 184.33227159 -135.5099336 176.52726796 -135.52755547 168.7221756 C-135.54237438 162.07691371 -135.54278805 155.43183098 -135.52548455 148.78657225 C-135.51705011 145.40565362 -135.51685789 142.02531221 -135.53013611 138.64437103 C-135.59726249 120.1253886 -134.66662523 102.10449917 -127.76293945 84.68847656 C-127.46629395 83.91624756 -127.16964844 83.14401855 -126.86401367 82.34838867 C-120.20246946 65.49318913 -110.43997418 51.69206044 -98.01293945 38.50097656 C-97.41352539 37.83710937 -96.81411133 37.17324219 -96.1965332 36.48925781 C-83.005221 22.44321696 -65.53016733 12.78148092 -47.45043945 6.62597656 C-46.64912598 6.35172852 -45.8478125 6.07748047 -45.0222168 5.79492188 C-30.05250725 0.992923 -15.61781176 -0.03395967 0 0 Z " fill="#FEFEFE" transform="translate(135.012939453125,-0.5009765625)"/>
<path d="M0 0 C3.20814904 0.0009869 6.41401176 -0.04109506 9.62182617 -0.08496094 C11.67455562 -0.09015901 13.72729327 -0.09285628 15.7800293 -0.09277344 C16.73209763 -0.1091687 17.68416595 -0.12556396 18.66508484 -0.14245605 C23.18398362 -0.09515302 25.35264858 0.05121683 29.125 2.72558594 C30.98706055 5.50097656 30.98706055 5.50097656 30.98706055 10.50097656 C37.58706055 10.50097656 44.18706055 10.50097656 50.98706055 10.50097656 C50.98706055 8.85097656 50.98706055 7.20097656 50.98706055 5.50097656 C53.06406512 2.3854697 54.63673944 0.77768171 58.36987305 0.01269531 C62.94057147 -0.22607252 65.29703828 0.01796098 69.11206055 2.68847656 C70.98706055 5.50097656 70.98706055 5.50097656 70.98706055 10.50097656 C77.58706055 10.50097656 84.18706055 10.50097656 90.98706055 10.50097656 C90.98706055 8.85097656 90.98706055 7.20097656 90.98706055 5.50097656 C93.49746 2.14515409 95.00640505 0.69491495 99.15453434 -0.12543583 C100.35546443 -0.12602214 101.55639452 -0.12660845 102.79371643 -0.12721252 C103.46583048 -0.13430691 104.13794454 -0.1414013 104.83042568 -0.14871067 C107.07666463 -0.16627436 109.3211691 -0.14819563 111.56738281 -0.13012695 C113.18097724 -0.13526719 114.79456605 -0.14254926 116.40814209 -0.15180969 C120.79149146 -0.17034106 125.17423316 -0.15736543 129.55755734 -0.13771939 C134.16198991 -0.12130369 138.76638481 -0.13015181 143.37083435 -0.13523865 C151.11922858 -0.13976316 158.86738177 -0.12388448 166.61572266 -0.09594727 C175.5263652 -0.06406328 184.43656895 -0.06384377 193.34724194 -0.08116204 C201.95482062 -0.09714465 210.56224118 -0.0902079 219.16981316 -0.07322502 C222.81244141 -0.0664183 226.45494046 -0.06732098 230.0975666 -0.07476997 C272.88351907 -0.14371302 272.88351907 -0.14371302 292.79956055 7.75097656 C293.95790405 8.19594482 293.95790405 8.19594482 295.13964844 8.64990234 C311.99484798 15.31144655 325.79597666 25.07394183 338.98706055 37.50097656 C339.65092773 38.10039063 340.31479492 38.69980469 340.9987793 39.31738281 C355.04482015 52.50869502 364.70655619 69.98374868 370.86206055 88.06347656 C371.13630859 88.86479004 371.41055664 89.66610352 371.69311523 90.49169922 C377.19828894 107.65347985 377.42452299 124.19899507 377.39111328 142.0703125 C377.39518605 144.8382251 377.40369217 147.60612047 377.41191101 150.37402344 C377.42900448 157.0789067 377.4299587 163.78369585 377.42469811 170.48859522 C377.42063686 175.94571707 377.42212301 181.40281138 377.42744637 186.85993195 C377.42819479 187.64019224 377.42894321 188.42045254 377.42971431 189.22435708 C377.43124598 190.81008592 377.43278433 192.39581475 377.43432928 193.98154357 C377.44802052 208.81361075 377.44264081 223.64562502 377.43114407 238.47769096 C377.42121869 252.00412154 377.43414634 265.53041519 377.45807826 279.05682465 C377.48254625 292.99275487 377.49205808 306.92862152 377.48542553 320.86457276 C377.4819499 328.66968153 377.4840547 336.47468517 377.50167656 344.27977753 C377.51649548 350.92503942 377.51690914 357.57012214 377.49960565 364.21538088 C377.49117121 367.59629951 377.49097899 370.97664092 377.5042572 374.35758209 C377.57138359 392.87656452 376.64074633 410.89745395 369.73706055 428.31347656 C369.29209229 429.47182007 369.29209229 429.47182007 368.83813477 430.65356445 C362.17659055 447.50876399 352.41409528 461.30989268 339.98706055 474.50097656 C339.38764648 475.16484375 338.78823242 475.82871094 338.1706543 476.51269531 C324.97934209 490.55873617 307.50428843 500.22047221 289.42456055 506.37597656 C288.62324707 506.65022461 287.82193359 506.92447266 286.99633789 507.20703125 C269.83455725 512.71220495 253.28904204 512.93843901 235.41772461 512.9050293 C232.64981201 512.90910206 229.88191664 512.91760818 227.11401367 512.92582703 C220.40913041 512.9429205 213.70434126 512.94387472 206.99944189 512.93861412 C201.54232003 512.93455288 196.08522573 512.93603902 190.62810516 512.94136238 C189.84784487 512.9421108 189.06758457 512.94285923 188.26368003 512.94363033 C186.67795119 512.945162 185.09222236 512.94670035 183.50649354 512.94824529 C168.67442636 512.96193654 153.84241209 512.95655683 139.01034614 512.94506008 C125.48391557 512.9351347 111.95762192 512.94806236 98.43121246 512.97199427 C84.49528224 512.99646227 70.55941559 513.0059741 56.62346435 512.99934155 C48.81835558 512.99586592 41.01335194 512.99797071 33.20825958 513.01559258 C26.56299769 513.03041149 19.91791497 513.03082516 13.27265623 513.01352166 C9.8917376 513.00508722 6.51139619 513.004895 3.13045502 513.01817322 C-15.38852741 513.0852996 -33.40941684 512.15466234 -50.82543945 505.25097656 C-51.98378296 504.8060083 -51.98378296 504.8060083 -53.16552734 504.35205078 C-70.02072688 497.69050657 -83.82185557 487.92801129 -97.01293945 475.50097656 C-97.67680664 474.9015625 -98.34067383 474.30214844 -99.0246582 473.68457031 C-113.07069906 460.49325811 -122.7324351 443.01820444 -128.88793945 424.93847656 C-129.1621875 424.13716309 -129.43643555 423.33584961 -129.71899414 422.51025391 C-135.22416785 405.34847327 -135.4504019 388.80295806 -135.41699219 370.93164062 C-135.42106495 368.16372803 -135.42957107 365.39583266 -135.43778992 362.62792969 C-135.45488339 355.92304643 -135.45583761 349.21825727 -135.45057701 342.51335791 C-135.44651577 337.05623605 -135.44800191 331.59914175 -135.45332527 326.14202118 C-135.4544479 324.97163074 -135.4544479 324.97163074 -135.45559322 323.77759604 C-135.45712489 322.19186721 -135.45866324 320.60613838 -135.46020819 319.02040955 C-135.47389943 304.18834237 -135.46851972 289.3563281 -135.45702297 274.52426216 C-135.44709759 260.99783158 -135.46002525 247.47153794 -135.48395716 233.94512847 C-135.50842516 220.00919825 -135.51793699 206.0733316 -135.51130444 192.13738036 C-135.50782881 184.33227159 -135.5099336 176.52726796 -135.52755547 168.7221756 C-135.54237438 162.07691371 -135.54278805 155.43183098 -135.52548455 148.78657225 C-135.51705011 145.40565362 -135.51685789 142.02531221 -135.53013611 138.64437103 C-135.59726249 120.1253886 -134.66662523 102.10449917 -127.76293945 84.68847656 C-127.46629395 83.91624756 -127.16964844 83.14401855 -126.86401367 82.34838867 C-120.20246946 65.49318913 -110.43997418 51.69206044 -98.01293945 38.50097656 C-97.41352539 37.83710937 -96.81411133 37.17324219 -96.1965332 36.48925781 C-83.005221 22.44321696 -65.53016733 12.78148092 -47.45043945 6.62597656 C-46.64912598 6.35172852 -45.8478125 6.07748047 -45.0222168 5.79492188 C-30.05250725 0.992923 -15.61781176 -0.03395967 0 0 Z M-61.01293945 87.50097656 C-66.39435745 94.95359324 -70.45964816 102.6655775 -73.01293945 111.50097656 C-73.35397579 112.64664408 -73.69501213 113.79231159 -74.0463829 114.9726963 C-75.33646877 120.2015806 -75.29025442 125.32343025 -75.26690674 130.68392944 C-75.27002672 131.79035187 -75.2731467 132.8967743 -75.27636123 134.03672469 C-75.28432042 137.73368491 -75.27802554 141.43048004 -75.27172852 145.12744141 C-75.27443933 147.7823179 -75.27792863 150.43718313 -75.28234863 153.09205627 C-75.2912286 159.5486872 -75.28932668 166.00527155 -75.28352335 172.46190427 C-75.27900059 177.71191777 -75.27839662 182.96191825 -75.28057098 188.21193314 C-75.28087745 188.96008488 -75.28118392 189.70823663 -75.28149967 190.47905964 C-75.28213914 191.99909706 -75.28278757 193.51913448 -75.28344485 195.03917189 C-75.28914426 209.28383738 -75.28259677 223.5284771 -75.27184412 237.77313836 C-75.26291263 249.9828864 -75.26445809 262.1925964 -75.27368164 274.40234375 C-75.28439748 288.59407668 -75.28859112 302.78578703 -75.28245711 316.97752345 C-75.28182004 318.49247845 -75.2811913 320.00743345 -75.28057098 321.52238846 C-75.28026243 322.26769532 -75.27995388 323.01300218 -75.27963598 323.78089409 C-75.27791271 329.02063593 -75.28081629 334.26036339 -75.28553009 339.500103 C-75.29115369 345.89144749 -75.28959163 352.28274288 -75.2789686 358.67408179 C-75.27373116 361.93203697 -75.27270817 365.18989405 -75.27826691 368.44785118 C-75.28374731 371.98666724 -75.27685768 375.52525481 -75.26690674 379.0640564 C-75.27136818 380.08391801 -75.27582963 381.10377963 -75.28042626 382.15454614 C-75.17860405 400.87667611 -68.01923043 418.8386054 -54.88793945 432.25097656 C-38.22961168 448.58422856 -19.2144901 452.80663992 3.49853516 452.78808594 C5.01927044 452.79412445 6.54000241 452.80105227 8.06072998 452.80879211 C11.30995079 452.82357051 14.55911132 452.83240203 17.80836296 452.83650208 C22.94811403 452.84326424 28.08773659 452.86507053 33.22743225 452.88903809 C45.054153 452.94194205 56.88091311 452.97556554 68.70770264 453.00879669 C79.57336275 453.03950327 90.43896684 453.07430903 101.30455405 453.12510729 C106.41291053 453.14842573 111.52117593 453.1621885 116.62958038 453.16860199 C119.80269731 453.1745399 122.97574004 453.18863401 126.14881897 453.20494652 C127.61898396 453.21082096 129.08916709 453.21329505 130.55934334 453.2121067 C132.56695699 453.21094651 134.57456512 453.22312381 136.58213806 453.23596191 C137.70496657 453.23889503 138.82779509 453.24182816 139.9846487 453.24485016 C143.22270657 453.52107879 145.21751913 453.78037675 147.98706055 455.50097656 C148.97706055 457.81097656 149.96706055 460.12097656 150.98706055 462.50097656 C157.58706055 462.50097656 164.18706055 462.50097656 170.98706055 462.50097656 C171.97706055 460.19097656 172.96706055 457.88097656 173.98706055 455.50097656 C177.75710929 452.98761074 179.49920067 453.35986991 183.8269043 453.95800781 C186.86590006 454.72187836 188.22901726 455.93716343 189.98706055 458.50097656 C190.31706055 459.82097656 190.64706055 461.14097656 190.98706055 462.50097656 C197.58706055 462.50097656 204.18706055 462.50097656 210.98706055 462.50097656 C212.47206055 459.03597656 212.47206055 459.03597656 213.98706055 455.50097656 C217.77434199 452.97612227 220.8502196 453.1867675 225.2409668 453.15722656 C226.05645493 453.14260376 226.87194305 453.12798096 227.71214294 453.11291504 C230.32456522 453.06641629 232.93691456 453.03226574 235.54956055 453.00097656 C259.64392658 452.70826863 280.74695012 448.71345203 298.39526367 430.75073242 C308.78043327 419.59740098 317.09462608 403.17776904 317.11848831 387.72656441 C317.12232946 386.78882624 317.1261706 385.85108807 317.13012815 384.88493359 C317.12882842 383.35212996 317.12882842 383.35212996 317.12750244 381.7883606 C317.13047356 380.69619637 317.13344469 379.60403215 317.13650584 378.47877204 C317.14519093 374.81184942 317.14670096 371.14495945 317.14819336 367.47802734 C317.1528218 364.85141429 317.1578465 362.22480191 317.16323853 359.59819031 C317.17681029 352.45514675 317.18284543 345.31210881 317.18724918 338.16905451 C317.19001489 333.70393792 317.19425297 329.23882348 317.19875336 324.77370834 C317.21094702 312.39839629 317.22124451 300.02308595 317.22462845 287.64776802 C317.22484801 286.85592963 317.22506758 286.06409124 317.2252938 285.24825775 C317.22551208 284.45456913 317.22573036 283.66088051 317.22595525 282.84314072 C317.22639871 281.23494538 317.22684527 279.62675003 317.22729492 278.01855469 C317.22751635 277.22084148 317.22773778 276.42312827 317.22796592 275.60124193 C317.23190826 262.69478052 317.24934459 249.78837576 317.27265444 236.88193621 C317.29642211 223.61422764 317.30883284 210.34654743 317.30999637 197.07881725 C317.31091036 189.63644824 317.31659232 182.19415295 317.33481598 174.75180435 C317.35029058 168.40992831 317.35529456 162.06814876 317.34707788 155.7262574 C317.34319651 152.49600641 317.34564056 149.26598794 317.35813522 146.03575325 C317.45128823 120.43959182 314.96390452 99.29933978 296.17456055 80.18847656 C284.73662361 69.03090748 268.51110123 60.41052772 252.15297222 60.36396217 C250.72638964 60.35635036 250.72638964 60.35635036 249.27098721 60.34858477 C248.23423645 60.34808701 247.19748569 60.34758926 246.12931824 60.34707642 C245.02152537 60.34269416 243.91373251 60.33831191 242.77237016 60.33379686 C239.05250937 60.32042017 235.33267227 60.31423243 231.61279297 60.30810547 C228.94839297 60.30020343 226.28399598 60.29193911 223.61959839 60.2833252 C215.61709272 60.25883071 207.61458091 60.24417635 199.61204931 60.23126513 C197.34942926 60.22755039 195.08680982 60.22357737 192.82419038 60.21951246 C178.75648597 60.19426804 164.68878052 60.17222723 150.62105846 60.15978432 C147.36423425 60.15685488 144.10741007 60.15389319 140.85058594 60.15087891 C140.04117258 60.15013286 139.23175922 60.1493868 138.39781819 60.14861815 C125.30446259 60.13598177 112.21124332 60.10278054 99.11795136 60.06107707 C85.65700721 60.01855638 72.19613264 59.99507744 58.73512155 59.98986375 C51.18478864 59.9864606 43.63466859 59.97483599 36.08440208 59.94176102 C29.64992267 59.91361932 23.21569975 59.90282239 16.7811636 59.91395648 C13.50405754 59.9191079 10.22759431 59.91370436 6.95054436 59.89149094 C-20.50315931 59.71562376 -42.4387505 66.096435 -61.01293945 87.50097656 Z " fill="#BC6294" transform="translate(135.012939453125,-0.5009765625)"/>
<path d="M0 0 C22.41159281 18.34366091 36.504056 41.69293357 42 70 C42.28810547 71.38445312 42.28810547 71.38445312 42.58203125 72.796875 C46.3571896 101.72799504 39.05291372 131.01634163 21.35644531 154.29003906 C2.18542438 178.45739518 -24.07382563 194.13189278 -54.81030273 197.79492188 C-83.62833298 200.49390118 -112.25896978 193.37953774 -134.86328125 174.828125 C-135.56839844 174.22484375 -136.27351563 173.6215625 -137 173 C-137.79792969 172.33484375 -138.59585938 171.6696875 -139.41796875 170.984375 C-161.08568232 152.30646997 -175.02744241 125.68641181 -177.22314453 97.09423828 C-178.86273787 65.55134081 -169.54079175 37.74187348 -148.625 13.875 C-147.09894503 12.23533011 -145.55740065 10.60992681 -144 9 C-143.28714844 8.26136719 -142.57429688 7.52273437 -141.83984375 6.76171875 C-126.19734507 -8.34415904 -106.01960074 -16.80038715 -85 -21 C-84.07445312 -21.19335938 -83.14890625 -21.38671875 -82.1953125 -21.5859375 C-52.97878658 -25.37194208 -23.49502375 -17.82829849 0 0 Z " fill="#CA3C8D" transform="translate(323,168)"/>
<path d="M0 0 C3.20814904 0.0009869 6.41401176 -0.04109506 9.62182617 -0.08496094 C11.67455562 -0.09015901 13.72729327 -0.09285628 15.7800293 -0.09277344 C16.73209763 -0.1091687 17.68416595 -0.12556396 18.66508484 -0.14245605 C23.28953512 -0.09404813 25.32396301 -0.01180911 29.08349609 2.89550781 C31.59281757 6.33009533 31.7037928 8.22551365 31.4909668 12.34472656 C30.69206994 15.76326196 28.68101102 17.39838107 25.98706055 19.50097656 C25.65706055 19.83097656 25.32706055 20.16097656 24.98706055 20.50097656 C22.11997991 20.61234742 19.27307536 20.66271998 16.4050293 20.67675781 C14.58535713 20.70002298 12.76569572 20.72414265 10.94604492 20.74902344 C8.09238196 20.78361476 5.23909737 20.81316588 2.38525391 20.8269043 C-29.4137337 21.00977028 -55.69711642 29.80837219 -80.01293945 50.50097656 C-80.7502832 51.12230469 -81.48762695 51.74363281 -82.24731445 52.38378906 C-100.88181105 69.55524667 -112.5823452 96.35951181 -114.20022452 121.39960814 C-114.27047678 124.37283069 -114.28456918 127.34036339 -114.27363586 130.31439209 C-114.27746141 131.44041659 -114.28128696 132.56644108 -114.28522843 133.72658753 C-114.29547376 137.46621124 -114.29158242 141.20567898 -114.28759766 144.9453125 C-114.29194885 147.64030457 -114.29706965 150.33528556 -114.30308533 153.03027344 C-114.31578512 159.57125015 -114.31763189 166.11218573 -114.31528506 172.6531727 C-114.31349622 177.97502677 -114.31526363 183.29686842 -114.31950951 188.61872101 C-114.3201047 189.37847527 -114.32069988 190.13822952 -114.32131311 190.92100663 C-114.32252497 192.46486853 -114.3237391 194.00873042 -114.32495549 195.55259231 C-114.33581312 210.00681066 -114.33367713 224.46100564 -114.32757064 238.9152253 C-114.32240466 252.10832988 -114.33365168 265.30136057 -114.35266886 278.49445054 C-114.37209029 292.07314368 -114.38029563 305.65180194 -114.37654561 319.23050904 C-114.37463988 326.84103214 -114.37705938 334.45149239 -114.39126015 342.06200409 C-114.40323007 348.54202781 -114.40451655 355.02195 -114.39246998 361.50197527 C-114.38661995 364.80125077 -114.38703023 368.10030474 -114.39747238 371.39957428 C-114.43675228 384.78192979 -114.26759569 397.46566951 -111.01293945 410.50097656 C-110.80040181 411.4148904 -110.58786417 412.32880424 -110.36888599 413.27041245 C-104.2446447 438.40722323 -84.74795335 461.99736693 -63.13793945 475.31347656 C-50.33757578 482.94123644 -37.5934087 487.58787051 -23.01293945 490.50097656 C-22.17321563 490.6787904 -21.3334918 490.85660423 -20.4683218 491.03980637 C-15.61039512 491.68816616 -10.8101636 491.64547331 -5.9143219 491.64141846 C-4.79271839 491.64438958 -3.67111487 491.6473607 -2.51552337 491.65042186 C1.24502973 491.6590974 5.00555096 491.66061616 8.76611328 491.66210938 C11.46183929 491.66673845 14.15756242 491.67174288 16.85328674 491.67715454 C24.18014956 491.69071832 31.5070069 491.69675998 38.83388019 491.7011652 C43.41408132 491.70393183 47.99428035 491.70817003 52.57448006 491.71266937 C65.26980551 491.72486118 77.96512929 491.73515957 90.66046047 491.73854446 C91.47253702 491.73876403 92.28461357 491.7389836 93.1212985 491.73920982 C93.93526365 491.73942809 94.74922881 491.73964637 95.58785957 491.73987126 C97.23712123 491.74031472 98.88638288 491.74076128 100.53564453 491.74121094 C101.35372654 491.74143237 102.17180855 491.7416538 103.01468093 491.74188194 C116.25410421 491.74582527 129.49347229 491.76326547 142.73287427 491.78657046 C156.3441382 491.81033537 169.95537451 491.82274871 183.56665951 491.82391238 C191.20127911 491.82482644 198.83582685 491.83051025 206.47042656 491.84873199 C212.9751379 491.86420276 219.47975518 491.86921274 225.98448145 491.86099389 C229.29780581 491.85711138 232.61078862 491.85956061 235.92411423 491.87205124 C255.15272838 491.94554904 255.15272838 491.94554904 273.98706055 488.50097656 C275.31859995 488.14552198 275.31859995 488.14552198 276.67703915 487.78288651 C278.80853837 487.19160496 280.89413512 486.52870108 282.98706055 485.81347656 C283.73632812 485.55783936 284.4855957 485.30220215 285.25756836 485.03881836 C312.28057228 475.44696709 333.43510259 455.14940628 346.16674805 429.63378906 C352.91878397 415.06285257 356.3026383 398.82043463 356.25448608 382.83473206 C356.26128275 381.15121034 356.26128275 381.15121034 356.26821673 379.43367809 C356.28080278 375.70029019 356.27924408 371.96704925 356.27758789 368.23364258 C356.2835769 365.54528775 356.29032759 362.85694411 356.29794312 360.16859436 C356.31449459 353.63884311 356.32005007 347.10912799 356.32116787 340.57935751 C356.32212147 335.26418764 356.32624728 329.94902958 356.33256912 324.63386345 C356.35016833 309.5270025 356.35941048 294.42016986 356.35790817 279.31329859 C356.35782826 278.50036172 356.35774835 277.68742484 356.35766602 276.84985352 C356.35754337 275.62893909 356.35754337 275.62893909 356.35741825 274.38335972 C356.35660652 261.21227364 356.37571914 248.04130223 356.40394275 234.87024928 C356.43276901 221.30964753 356.4464776 207.74910152 356.4447552 194.1884684 C356.44409447 186.59007447 356.44944569 178.99180064 356.4711113 171.39343452 C356.48945226 164.92006868 356.49356609 158.44687733 356.48009245 151.97349656 C356.47362604 148.67974479 356.4754474 145.38639079 356.49079895 142.092659 C356.64236828 107.2920413 348.61599681 78.19035746 323.96362305 52.41894531 C307.44867663 35.82180773 286.63139456 26.97917759 263.98706055 22.50097656 C263.25875534 22.33026768 262.53045013 22.15955879 261.78007507 21.98367691 C258.56160966 21.42744838 255.53642999 21.37628913 252.26928711 21.37640381 C251.60700733 21.37499366 250.94472755 21.37358351 250.26237869 21.37213063 C248.05079272 21.36849064 245.83927139 21.3718085 243.62768555 21.375 C242.0390213 21.37360459 240.45035743 21.37170485 238.86169434 21.36933899 C235.44429221 21.3648482 232.02690207 21.36298604 228.60949707 21.36287689 C223.20569827 21.36173543 217.80196759 21.34888987 212.39819336 21.33331299 C211.48579769 21.33074013 210.57340202 21.32816728 209.633358 21.32551646 C207.76796463 21.32025021 205.90257131 21.31496473 204.03717804 21.30966043 C191.45926346 21.27455425 178.88143447 21.2480021 166.3034668 21.25048828 C157.81470528 21.25207597 149.32617684 21.23606564 140.83749008 21.19978166 C136.34641492 21.18131095 131.85572902 21.17198873 127.36462402 21.18425751 C123.14220773 21.19568141 118.92048927 21.18402126 114.69816589 21.15462303 C113.14899457 21.1479752 111.59975951 21.14986176 110.0506134 21.1609211 C107.93451763 21.17477453 105.82078419 21.1579256 103.70483398 21.13348389 C102.52129333 21.13201733 101.33775269 21.13055077 100.11834717 21.12903976 C96.08620121 20.32028515 94.60607243 18.58487612 91.98706055 15.50097656 C91.65706055 15.17097656 91.32706055 14.84097656 90.98706055 14.50097656 C90.71362305 12.61035156 90.71362305 12.61035156 90.61206055 10.25097656 C90.56307617 9.48269531 90.5140918 8.71441406 90.46362305 7.92285156 C91.25476071 4.26236385 93.13651492 2.85407225 95.98706055 0.50097656 C99.15453434 -0.12543583 99.15453434 -0.12543583 102.79371643 -0.12721252 C103.46583048 -0.13430691 104.13794454 -0.1414013 104.83042568 -0.14871067 C107.07666463 -0.16627436 109.3211691 -0.14819563 111.56738281 -0.13012695 C113.18097724 -0.13526719 114.79456605 -0.14254926 116.40814209 -0.15180969 C120.79149146 -0.17034106 125.17423316 -0.15736543 129.55755734 -0.13771939 C134.16198991 -0.12130369 138.76638481 -0.13015181 143.37083435 -0.13523865 C151.11922858 -0.13976316 158.86738177 -0.12388448 166.61572266 -0.09594727 C175.5263652 -0.06406328 184.43656895 -0.06384377 193.34724194 -0.08116204 C201.95482062 -0.09714465 210.56224118 -0.0902079 219.16981316 -0.07322502 C222.81244141 -0.0664183 226.45494046 -0.06732098 230.0975666 -0.07476997 C272.88351907 -0.14371302 272.88351907 -0.14371302 292.79956055 7.75097656 C293.95790405 8.19594482 293.95790405 8.19594482 295.13964844 8.64990234 C311.99484798 15.31144655 325.79597666 25.07394183 338.98706055 37.50097656 C339.65092773 38.10039063 340.31479492 38.69980469 340.9987793 39.31738281 C355.04482015 52.50869502 364.70655619 69.98374868 370.86206055 88.06347656 C371.13630859 88.86479004 371.41055664 89.66610352 371.69311523 90.49169922 C377.19828894 107.65347985 377.42452299 124.19899507 377.39111328 142.0703125 C377.39518605 144.8382251 377.40369217 147.60612047 377.41191101 150.37402344 C377.42900448 157.0789067 377.4299587 163.78369585 377.42469811 170.48859522 C377.42063686 175.94571707 377.42212301 181.40281138 377.42744637 186.85993195 C377.42819479 187.64019224 377.42894321 188.42045254 377.42971431 189.22435708 C377.43124598 190.81008592 377.43278433 192.39581475 377.43432928 193.98154357 C377.44802052 208.81361075 377.44264081 223.64562502 377.43114407 238.47769096 C377.42121869 252.00412154 377.43414634 265.53041519 377.45807826 279.05682465 C377.48254625 292.99275487 377.49205808 306.92862152 377.48542553 320.86457276 C377.4819499 328.66968153 377.4840547 336.47468517 377.50167656 344.27977753 C377.51649548 350.92503942 377.51690914 357.57012214 377.49960565 364.21538088 C377.49117121 367.59629951 377.49097899 370.97664092 377.5042572 374.35758209 C377.57138359 392.87656452 376.64074633 410.89745395 369.73706055 428.31347656 C369.29209229 429.47182007 369.29209229 429.47182007 368.83813477 430.65356445 C362.17659055 447.50876399 352.41409528 461.30989268 339.98706055 474.50097656 C339.38764648 475.16484375 338.78823242 475.82871094 338.1706543 476.51269531 C324.97934209 490.55873617 307.50428843 500.22047221 289.42456055 506.37597656 C288.62324707 506.65022461 287.82193359 506.92447266 286.99633789 507.20703125 C269.83455725 512.71220495 253.28904204 512.93843901 235.41772461 512.9050293 C232.64981201 512.90910206 229.88191664 512.91760818 227.11401367 512.92582703 C220.40913041 512.9429205 213.70434126 512.94387472 206.99944189 512.93861412 C201.54232003 512.93455288 196.08522573 512.93603902 190.62810516 512.94136238 C189.84784487 512.9421108 189.06758457 512.94285923 188.26368003 512.94363033 C186.67795119 512.945162 185.09222236 512.94670035 183.50649354 512.94824529 C168.67442636 512.96193654 153.84241209 512.95655683 139.01034614 512.94506008 C125.48391557 512.9351347 111.95762192 512.94806236 98.43121246 512.97199427 C84.49528224 512.99646227 70.55941559 513.0059741 56.62346435 512.99934155 C48.81835558 512.99586592 41.01335194 512.99797071 33.20825958 513.01559258 C26.56299769 513.03041149 19.91791497 513.03082516 13.27265623 513.01352166 C9.8917376 513.00508722 6.51139619 513.004895 3.13045502 513.01817322 C-15.38852741 513.0852996 -33.40941684 512.15466234 -50.82543945 505.25097656 C-51.98378296 504.8060083 -51.98378296 504.8060083 -53.16552734 504.35205078 C-70.02072688 497.69050657 -83.82185557 487.92801129 -97.01293945 475.50097656 C-97.67680664 474.9015625 -98.34067383 474.30214844 -99.0246582 473.68457031 C-113.07069906 460.49325811 -122.7324351 443.01820444 -128.88793945 424.93847656 C-129.1621875 424.13716309 -129.43643555 423.33584961 -129.71899414 422.51025391 C-135.22416785 405.34847327 -135.4504019 388.80295806 -135.41699219 370.93164062 C-135.42106495 368.16372803 -135.42957107 365.39583266 -135.43778992 362.62792969 C-135.45488339 355.92304643 -135.45583761 349.21825727 -135.45057701 342.51335791 C-135.44651577 337.05623605 -135.44800191 331.59914175 -135.45332527 326.14202118 C-135.4544479 324.97163074 -135.4544479 324.97163074 -135.45559322 323.77759604 C-135.45712489 322.19186721 -135.45866324 320.60613838 -135.46020819 319.02040955 C-135.47389943 304.18834237 -135.46851972 289.3563281 -135.45702297 274.52426216 C-135.44709759 260.99783158 -135.46002525 247.47153794 -135.48395716 233.94512847 C-135.50842516 220.00919825 -135.51793699 206.0733316 -135.51130444 192.13738036 C-135.50782881 184.33227159 -135.5099336 176.52726796 -135.52755547 168.7221756 C-135.54237438 162.07691371 -135.54278805 155.43183098 -135.52548455 148.78657225 C-135.51705011 145.40565362 -135.51685789 142.02531221 -135.53013611 138.64437103 C-135.59726249 120.1253886 -134.66662523 102.10449917 -127.76293945 84.68847656 C-127.46629395 83.91624756 -127.16964844 83.14401855 -126.86401367 82.34838867 C-120.20246946 65.49318913 -110.43997418 51.69206044 -98.01293945 38.50097656 C-97.41352539 37.83710937 -96.81411133 37.17324219 -96.1965332 36.48925781 C-83.005221 22.44321696 -65.53016733 12.78148092 -47.45043945 6.62597656 C-46.64912598 6.35172852 -45.8478125 6.07748047 -45.0222168 5.79492188 C-30.05250725 0.992923 -15.61781176 -0.03395967 0 0 Z " fill="#000000" transform="translate(135.012939453125,-0.5009765625)"/>
<path d="M0 0 C1.12194094 -0.00467997 2.24388189 -0.00935994 3.39982104 -0.01418173 C7.12569998 -0.02606199 10.85120632 -0.01670152 14.5770874 -0.00723267 C17.26223306 -0.01130155 19.94735383 -0.01653759 22.63249207 -0.02316284 C29.14942839 -0.03645267 35.66626064 -0.03364323 42.18320093 -0.02492492 C47.48551284 -0.01812765 52.78779575 -0.01724046 58.09011078 -0.02049637 C58.84708967 -0.02095607 59.60406857 -0.02141577 60.38398622 -0.0218894 C61.92221112 -0.02284866 63.46043601 -0.0238213 64.99866089 -0.02480717 C79.39995905 -0.03334776 93.80119978 -0.02354909 108.20248851 -0.00740607 C120.52969479 0.00598501 132.85681626 0.00367642 145.184021 -0.01016235 C159.53039943 -0.02626057 173.87672756 -0.0325125 188.22311378 -0.02332556 C189.75665012 -0.02237002 191.29018648 -0.0214269 192.82372284 -0.02049637 C193.57806192 -0.02003354 194.33240099 -0.01957072 195.10959883 -0.01909386 C200.39666888 -0.01651585 205.68370673 -0.02084939 210.97077179 -0.02793503 C217.42701413 -0.03639801 223.88314723 -0.03397052 230.33937725 -0.0180928 C233.62649614 -0.01027227 236.9133986 -0.00865804 240.20052147 -0.01704025 C273.5990693 -0.09431181 273.5990693 -0.09431181 288.53704834 7.13095093 C289.2906665 7.48310669 290.04428467 7.83526245 290.82073975 8.1980896 C312.54069631 18.5592408 329.33087794 35.86782544 338.03851318 58.4961853 C341.80463513 69.1487229 343.37297556 79.14785347 343.37844849 90.44555664 C343.38283074 91.55153053 343.38721299 92.65750441 343.39172804 93.79699266 C343.40507066 97.49897141 343.41128481 101.20092638 343.41741943 104.90292358 C343.42532424 107.55950598 343.43358915 110.2160854 343.44219971 112.87266541 C343.46666456 120.8432164 343.48134464 128.8137735 343.49425977 136.78435045 C343.49797682 139.0395428 343.50194965 141.29473454 343.50601244 143.54992628 C343.53126031 157.58399623 343.55329202 171.61806728 343.56574059 185.65215492 C343.56866982 188.89931873 343.57163154 192.14648251 343.574646 195.39364624 C343.57539205 196.20061704 343.5761381 197.00758785 343.57690676 197.83901231 C343.58953458 210.8835976 343.62272597 223.9280458 343.66444783 236.97256716 C343.70702678 250.39630833 343.73045415 263.81997966 343.73566115 277.24378812 C343.73905786 284.76798228 343.75060497 292.29196243 343.78376389 299.81608963 C343.81198631 306.23024911 343.82266797 312.64415068 343.81156842 319.05836739 C343.8064371 322.32193029 343.811719 325.58485069 343.83403397 328.84835625 C344.00945785 356.00530807 339.53121817 378.87123271 322.22454834 400.38095093 C321.69603271 401.07317749 321.16751709 401.76540405 320.62298584 402.47860718 C308.96397424 416.92314618 290.99967831 426.07570362 273.22454834 430.38095093 C272.2780542 430.64259033 272.2780542 430.64259033 271.31243896 430.90951538 C263.03849163 432.9283224 254.60343739 432.78846798 246.137146 432.80648804 C243.46615572 432.81848864 240.79740401 432.86788111 238.12689209 432.9180603 C236.41466364 432.92751576 234.7024212 432.93475499 232.99017334 432.93954468 C232.1994342 432.959077 231.40869507 432.97860931 230.59399414 432.99873352 C226.50913176 432.96554628 223.97501459 432.59107104 220.73797607 429.98861694 C217.5669414 426.69868772 217.15030892 424.94023412 216.90814209 420.53720093 C217.42684002 417.00237059 219.48614859 415.46735074 222.22454834 413.38095093 C222.55454834 413.05095093 222.88454834 412.72095093 223.22454834 412.38095093 C225.91750701 412.24518594 228.58831578 412.17025498 231.28314209 412.13485718 C232.96608912 412.10187405 234.64903171 412.06866328 236.33197021 412.0352478 C238.98452154 411.98815532 241.63706103 411.9438247 244.28973389 411.90414429 C266.91850791 411.54887445 287.49947398 407.08531015 303.99066162 390.27279663 C314.20177973 379.2369995 322.33249287 362.81233039 322.3559761 347.60653877 C322.35981725 346.6688006 322.36365839 345.73106243 322.36761594 344.76490796 C322.36631621 343.23210432 322.36631621 343.23210432 322.36499023 341.66833496 C322.36796136 340.57617074 322.37093248 339.48400652 322.37399364 338.35874641 C322.38267873 334.69182378 322.38418876 331.02493381 322.38568115 327.35800171 C322.3903096 324.73138865 322.39533429 322.10477627 322.40072632 319.47816467 C322.41429808 312.33512111 322.42033322 305.19208318 322.42473698 298.04902887 C322.42750268 293.58391228 322.43174076 289.11879784 322.43624115 284.65368271 C322.44843481 272.27837065 322.4587323 259.90306032 322.46211624 247.52774239 C322.46233581 246.735904 322.46255537 245.94406561 322.46278159 245.12823211 C322.46299987 244.33454349 322.46321815 243.54085488 322.46344304 242.72311509 C322.4638865 241.11491974 322.46433306 239.5067244 322.46478271 237.89852905 C322.46500414 237.10081584 322.46522557 236.30310263 322.46545371 235.4812163 C322.46939605 222.57475488 322.48683238 209.66835013 322.51014224 196.76191057 C322.53390991 183.49420201 322.54632064 170.2265218 322.54748416 156.95879161 C322.54839815 149.5164226 322.55408012 142.07412732 322.57230377 134.63177872 C322.58777838 128.28990267 322.59278236 121.94812312 322.58456567 115.60623176 C322.58068431 112.37598077 322.58312836 109.1459623 322.59562302 105.91572762 C322.68815612 80.4898998 320.32799128 59.77364856 301.91204834 40.56845093 C290.53695255 29.73799036 274.49003281 21.28976607 258.39046001 21.24393654 C256.96387744 21.23632472 256.96387744 21.23632472 255.50847501 21.22855914 C254.47172424 21.22806138 253.43497348 21.22756362 252.36680603 21.22705078 C251.25901316 21.22266853 250.1512203 21.21828627 249.00985795 21.21377122 C245.28999716 21.20039453 241.57016006 21.19420679 237.85028076 21.18807983 C235.18588076 21.1801778 232.52148378 21.17191347 229.85708618 21.16329956 C221.85458051 21.13880508 213.8520687 21.12415072 205.8495371 21.11123949 C203.58691706 21.10752476 201.32429761 21.10355174 199.06167817 21.09948683 C184.99397376 21.0742424 170.92626831 21.0522016 156.85854626 21.03975868 C153.60172204 21.03682925 150.34489787 21.03386755 147.08807373 21.03085327 C146.27866037 21.03010722 145.46924701 21.02936117 144.63530598 21.02859251 C131.54195038 21.01595614 118.44873111 20.9827549 105.35543915 20.94105144 C91.894495 20.89853074 78.43362043 20.87505181 64.97260934 20.86983812 C57.42227644 20.86643496 49.87215638 20.85481036 42.32188988 20.82173538 C35.88741046 20.79359369 29.45318754 20.78279675 23.01865139 20.79393084 C19.74154533 20.79908227 16.4650821 20.79367872 13.18803215 20.7714653 C-11.47190997 20.61349483 -30.7882793 25.15510544 -49.27545166 42.44345093 C-57.21403087 50.60140365 -62.62545699 60.48072184 -65.77545166 71.38095093 C-66.116488 72.52661844 -66.45752434 73.67228596 -66.80889511 74.85267067 C-68.09898098 80.08155496 -68.05276662 85.20340461 -68.02941895 90.56390381 C-68.03253893 91.67032624 -68.03565891 92.77674867 -68.03887343 93.91669905 C-68.04683262 97.61365927 -68.04053775 101.31045441 -68.03424072 105.00741577 C-68.03695154 107.66229227 -68.04044084 110.3171575 -68.04486084 112.97203064 C-68.05374081 119.42866156 -68.05183889 125.88524591 -68.04603556 132.34187864 C-68.04151279 137.59189214 -68.04090883 142.84189261 -68.04308319 148.0919075 C-68.04338966 148.84005925 -68.04369612 149.588211 -68.04401188 150.35903401 C-68.04465135 151.87907143 -68.04529978 153.39910884 -68.04595706 154.91914625 C-68.05165647 169.16381174 -68.04510898 183.40845146 -68.03435633 197.65311272 C-68.02542483 209.86286077 -68.0269703 222.07257076 -68.03619385 234.28231812 C-68.04690968 248.47405105 -68.05110333 262.6657614 -68.04496932 276.85749781 C-68.04433225 278.37245281 -68.04370351 279.88740782 -68.04308319 281.40236282 C-68.04277464 282.14766968 -68.04246609 282.89297654 -68.04214819 283.66086846 C-68.04042491 288.90061029 -68.04332849 294.14033775 -68.0480423 299.38007736 C-68.05366589 305.77142185 -68.05210383 312.16271725 -68.04148081 318.55405615 C-68.03624337 321.81201134 -68.03522038 325.06986842 -68.04077911 328.32782555 C-68.04625952 331.86664161 -68.03936989 335.40522918 -68.02941895 338.94403076 C-68.03388039 339.96389238 -68.03834183 340.98375399 -68.04293847 342.03452051 C-67.94313509 360.38544702 -61.04667294 378.43273481 -48.15045166 391.63095093 C-31.73459293 407.69703994 -12.57370768 411.69539085 9.72015381 411.65219116 C11.23926571 411.65658873 12.7583752 411.6618946 14.27748108 411.66802979 C17.52343082 411.67944483 20.76931603 411.68498284 24.01528549 411.68591118 C29.15110867 411.68786605 34.28679955 411.7059927 39.4225769 411.72666931 C52.16831829 411.77564835 64.91409497 411.80677596 77.65991211 411.82797241 C87.5893234 411.8445023 97.51861936 411.86730118 107.44795334 411.91099316 C112.55105838 411.93273848 117.65394406 411.94083056 122.75709224 411.93860042 C125.9291928 411.94026834 129.10115004 411.95432231 132.27319908 411.9718132 C133.74133066 411.97740587 135.20949203 411.97790421 136.67762566 411.9728756 C138.68487918 411.96672169 140.69216408 411.9807291 142.69937134 411.99568176 C143.82127806 411.99769309 144.94318478 411.99970442 146.09908867 412.0017767 C149.72840917 412.44207827 152.11557065 413.47767453 155.22454834 415.38095093 C157.73821721 419.15145424 157.36260958 420.89246682 156.77142334 425.22079468 C156.01036821 428.22696243 154.73336763 429.61001967 152.22454834 431.38095093 C148.89397289 432.49114274 146.41114375 432.50957352 142.90155029 432.5146637 C142.25746342 432.51692925 141.61337654 432.51919481 140.94977188 432.52152902 C138.78743965 432.52786844 136.6251701 432.52703967 134.46282959 432.5262146 C132.91375141 432.52920631 131.36467398 432.53260887 129.81559753 432.53639221 C125.60235707 432.54523976 121.38913691 432.54757077 117.17588806 432.548208 C114.54102365 432.54891861 111.9061644 432.55105323 109.27130127 432.55370522 C100.07098055 432.56296436 90.87067434 432.56703979 81.67034912 432.56625366 C73.10958985 432.56565419 64.54889387 432.57617882 55.9881506 432.59199733 C48.63001428 432.60510645 41.27189854 432.61043608 33.91375065 432.60979825 C29.52315614 432.60954406 25.13261774 432.61235118 20.74203491 432.6229763 C16.60521566 432.63271296 12.46850547 432.63269859 8.33168221 432.62545967 C6.82049461 432.62442039 5.30930003 432.62673731 3.79812431 432.63282013 C-22.36683277 432.73124062 -45.15806565 423.76684939 -63.77545166 405.38095093 C-80.58284445 388.3471197 -89.11415726 365.42330145 -89.0428772 341.68106079 C-89.04740831 340.55518515 -89.05193942 339.42930952 -89.05660784 338.26931643 C-89.06919399 334.52425877 -89.06763521 330.77934761 -89.065979 327.03427124 C-89.07196784 324.33780384 -89.07871837 321.6413476 -89.08633423 318.94488525 C-89.10288359 312.39675899 -89.108441 305.84866875 -89.10955898 299.30052331 C-89.11051227 293.9733921 -89.11463651 288.64627268 -89.12096024 283.3191452 C-89.13855548 268.18695595 -89.14780171 253.05479497 -89.14629929 237.92259541 C-89.14621938 237.10834492 -89.14613946 236.29409443 -89.14605713 235.45516968 C-89.14597537 234.63991517 -89.14589361 233.82466067 -89.14580937 232.98470148 C-89.14499678 219.77790517 -89.16413213 206.57122298 -89.19233386 193.36445966 C-89.22112053 179.77563176 -89.23487101 166.18685943 -89.23314631 152.59800029 C-89.23248444 144.98020396 -89.2378873 137.36252732 -89.25950241 129.74475861 C-89.27779047 123.25844068 -89.28199938 116.77229671 -89.26848356 110.28596404 C-89.26199224 106.98270519 -89.26390723 103.67984547 -89.27919006 100.37660599 C-89.33665805 87.08911555 -89.27118426 74.99272621 -84.77545166 62.38095093 C-84.46452765 61.37981892 -84.15360363 60.3786869 -83.83325768 59.34721756 C-76.94546585 37.25267408 -58.7868038 19.73004042 -38.77545166 9.19345093 C-26.40957763 3.3121206 -13.6959614 -0.08949498 0 0 Z " fill="#010001" transform="translate(128.77545166015625,39.619049072265625)"/>
<path d="M0 0 C22.41159281 18.34366091 36.504056 41.69293357 42 70 C42.28810547 71.38445312 42.28810547 71.38445312 42.58203125 72.796875 C46.3571896 101.72799504 39.05291372 131.01634163 21.35644531 154.29003906 C2.18542438 178.45739518 -24.07382563 194.13189278 -54.81030273 197.79492188 C-83.62833298 200.49390118 -112.25896978 193.37953774 -134.86328125 174.828125 C-135.56839844 174.22484375 -136.27351563 173.6215625 -137 173 C-137.79792969 172.33484375 -138.59585938 171.6696875 -139.41796875 170.984375 C-161.08568232 152.30646997 -175.02744241 125.68641181 -177.22314453 97.09423828 C-178.86273787 65.55134081 -169.54079175 37.74187348 -148.625 13.875 C-147.09894503 12.23533011 -145.55740065 10.60992681 -144 9 C-143.28714844 8.26136719 -142.57429688 7.52273437 -141.83984375 6.76171875 C-126.19734507 -8.34415904 -106.01960074 -16.80038715 -85 -21 C-84.07445312 -21.19335938 -83.14890625 -21.38671875 -82.1953125 -21.5859375 C-52.97878658 -25.37194208 -23.49502375 -17.82829849 0 0 Z M-124 18 C-124.91136719 18.73734375 -125.82273437 19.4746875 -126.76171875 20.234375 C-143.7106011 34.70120345 -155.40877119 56.37602863 -157.21875 78.69775391 C-158.57060322 103.38174875 -152.94775116 125.71081526 -137 145 C-135.96939453 146.27423828 -135.96939453 146.27423828 -134.91796875 147.57421875 C-120.8342359 164.14480893 -100.3889473 174.73599496 -79 178 C-52.18152166 180.12920791 -29.04941321 173.28911879 -8 156.625 C8.58888239 142.2479686 21.07577728 120.10509513 23 98 C24.47916983 72.8745153 19.30899808 50.72612148 3 31 C2.31292969 30.15050781 1.62585938 29.30101562 0.91796875 28.42578125 C-10.26058255 15.27335963 -26.20159549 5.30728321 -43 1 C-44.42505859 0.58621094 -44.42505859 0.58621094 -45.87890625 0.1640625 C-73.42923294 -6.92681261 -102.2117639 -0.07319124 -124 18 Z " fill="#030202" transform="translate(323,168)"/>
<path d="M0 0 C10.42423722 8.6776719 18.97565273 19.92666943 20.375 33.8125 C21.56982898 47.90493491 18.94203695 60.29531652 10.18359375 71.671875 C0.80454988 82.77277358 -10.60767873 89.78897015 -25.3671875 91.16015625 C-40.99955449 91.5277886 -54.00805785 87.37595865 -65.5 76.5 C-75.80684187 65.44763611 -80.4334134 52.53967669 -79.9375 37.4453125 C-78.76003884 23.75732654 -73.23373371 12.25629184 -63.125 2.84765625 C-45.24573934 -11.70717938 -18.98529377 -14.09217682 0 0 Z " fill="#FDFDFD" transform="translate(285.625,215.1875)"/>
<path d="M0 0 C16.01592081 11.87291352 26.26523254 26.84351441 30.35546875 46.37109375 C32.74006179 65.16452012 29.31289528 82.57249393 18.75 98.48046875 C15.96552837 102.0605037 12.97141921 105.29197716 9.75 108.48046875 C9.08613281 109.17785156 8.42226563 109.87523437 7.73828125 110.59375 C-4.22550525 122.32965485 -22.09852961 128.76558166 -38.625 128.98046875 C-56.11395715 128.78805174 -72.04731202 123.14633591 -85.25 111.48046875 C-86.07371094 110.76246094 -86.89742187 110.04445313 -87.74609375 109.3046875 C-100.77469645 97.18828529 -108.56932675 79.94565049 -109.5234375 62.203125 C-110.14480744 41.8287316 -103.54458614 25.24912786 -90.03515625 9.9765625 C-81.16775478 0.56303258 -70.68182843 -5.92692847 -58.25 -9.51953125 C-57.02796875 -9.87402344 -55.8059375 -10.22851562 -54.546875 -10.59375 C-36.17927438 -15.06661087 -15.5030221 -10.46992291 0 0 Z M-77.21484375 24.97265625 C-86.37979251 36.26612478 -90.00087518 48.14713508 -89.66015625 62.60546875 C-88.50644136 73.5053275 -84.32542745 83.0851134 -77.25 91.48046875 C-76.72792969 92.11339844 -76.20585937 92.74632812 -75.66796875 93.3984375 C-67.0053313 102.94630798 -55.24784415 107.70646065 -42.6171875 108.79296875 C-27.97933706 109.27388375 -16.2073002 104.96043645 -5 95.6015625 C4.33970882 86.84558549 9.91132078 75.50804957 11.09765625 62.73828125 C11.4652886 47.10591426 7.31345865 34.0974109 -3.5625 22.60546875 C-14.25608117 12.56659663 -26.56195179 8.05340569 -41.1640625 8.2734375 C-55.54002985 9.23790113 -67.33422264 14.39268083 -77.21484375 24.97265625 Z " fill="#020102" transform="translate(295.25,197.51953125)"/>
<path d="M0 0 C9.34397995 6.00153879 15.62840703 14.50912848 18.0625 25.3125 C19.97512629 36.75348272 18.31897781 47.23279783 12.0625 57.25 C5.31100602 66.49513623 -3.19263896 71.6378827 -14.1875 74.375 C-26.19644647 75.63282791 -35.69032053 73.44225097 -45.5625 66.5 C-54.18355919 59.4318024 -59.46782694 50.54418967 -61.1875 39.375 C-62.31502198 27.37494461 -59.41508417 17.50368768 -51.78125 8.1171875 C-37.96489905 -6.98598045 -17.98456113 -9.86957623 0 0 Z " fill="#020202" transform="translate(403.1875,95.625)"/>
<path d="M0 0 C4.46341087 3.02306065 7.39332313 7.3440319 9.08203125 12.41015625 C9.82344625 19.25305206 9.17256746 24.75892315 5.08203125 30.41015625 C0.5103035 35.33259188 -4.0977587 37.47124173 -10.73046875 37.78515625 C-16.62102944 37.64490481 -21.07058232 35.98946813 -25.453125 32.01953125 C-30.0863598 26.88650144 -31.4265175 21.44968448 -31.22265625 14.7109375 C-30.41593529 8.61916 -27.65716978 4.68667915 -22.85546875 0.97265625 C-15.63044761 -4.11675403 -7.7942073 -3.808378 0 0 Z " fill="#D02D8A" transform="translate(392.91796875,112.58984375)"/>
<path d="M0 0 C3.125 1.9375 3.125 1.9375 5 5 C5.68469221 8.15528996 5.73591379 10.85097353 5 14 C2.5625 17 2.5625 17 0 19 C-0.33 19.33 -0.66 19.66 -1 20 C-3.93228663 20.29322866 -6.14491883 20.50004247 -9 20 C-11.9375 17.5625 -11.9375 17.5625 -14 15 C-14.33 14.67 -14.66 14.34 -15 14 C-15.67266188 9.34902355 -15.60616275 5.99006582 -13.125 1.9375 C-8.71974058 -0.79376084 -5.05077166 -1.00187438 0 0 Z " fill="#020104" transform="translate(201,0)"/>
<path d="M0 0 C4.15132171 0.31616026 6.66810634 0.77227556 10.234375 3.0546875 C12.52307785 6.71661206 12.6225436 8.7143527 11.8828125 12.89453125 C10.50034047 16.75567787 8.64571179 17.9862641 5.109375 20.0546875 C0.95787089 20.91958419 -0.52963652 20.26583171 -4.203125 18.1171875 C-7.30196195 15.23969605 -7.97900592 12.35685257 -8.20703125 8.2109375 C-7.68833332 4.67610717 -5.62902475 3.14108731 -2.890625 1.0546875 C-1.890625 0.0546875 -1.890625 0.0546875 0 0 Z " fill="#060605" transform="translate(313.890625,451.9453125)"/>
</svg>
