<?xml version="1.0" encoding="UTF-8"?>
<svg version="1.1" xmlns="http://www.w3.org/2000/svg" width="512" height="512">
<path d="M0 0 C1.79212096 -0.00346232 3.58423979 -0.00823072 5.37635422 -0.01418173 C10.27022644 -0.02664248 15.16392193 -0.02054387 20.05779457 -0.01122308 C25.3475829 -0.00441266 30.63734164 -0.01492368 35.92712402 -0.02316284 C46.27768513 -0.03648113 56.62818087 -0.03363092 66.97874451 -0.02492492 C75.39318375 -0.01814129 83.80760471 -0.01723459 92.2220459 -0.02049637 C94.02053392 -0.02118592 94.02053392 -0.02118592 95.85535502 -0.0218894 C98.29131858 -0.0228486 100.72728213 -0.02382124 103.16324568 -0.02480717 C125.98876402 -0.03335549 148.81424618 -0.02353568 171.63975859 -0.00740607 C191.21200561 0.00599659 210.78419925 0.00366834 230.35644531 -0.01016235 C253.10201013 -0.02622802 275.84754325 -0.03253157 298.59311295 -0.02332556 C301.01996103 -0.02236995 303.44680913 -0.02142683 305.87365723 -0.02049637 C307.06761698 -0.02003354 308.26157674 -0.01957072 309.4917171 -0.01909386 C317.8930454 -0.01650694 326.29435354 -0.02086856 334.69567871 -0.02793503 C344.93837628 -0.03636117 355.18100491 -0.03404642 365.42369461 -0.0180928 C370.64657128 -0.01022513 375.86933312 -0.00709284 381.09220886 -0.01704025 C385.87887785 -0.02601879 390.6653262 -0.02100245 395.45197535 -0.0051076 C397.1779148 -0.00177314 398.90387313 -0.00342358 400.62980032 -0.01073496 C416.57260163 -0.07305944 430.44205367 1.32110468 442.59082031 12.77938843 C452.30707387 23.08210427 455.35625972 32.75877076 455.3152771 46.70266724 C455.31980821 47.83611454 455.32433933 48.96956185 455.32900774 50.13735604 C455.3416585 53.93181204 455.34003091 57.72612463 455.33837891 61.52059937 C455.34327781 64.2426711 455.35111273 66.96473281 455.35873413 69.6867981 C455.37532335 76.3116681 455.38084274 82.93650252 455.38195889 89.56139156 C455.38291039 94.94872144 455.3870258 100.33603961 455.39336014 105.72336578 C455.41096724 121.01012529 455.42019989 136.29685676 455.41869919 151.58362648 C455.41857932 152.81893196 455.41857932 152.81893196 455.41845703 154.07919312 C455.41837527 154.9037401 455.41829351 155.72828708 455.41820927 156.57782033 C455.41739662 169.93630275 455.43653026 183.29467236 455.46473376 196.65312216 C455.49348958 210.38192557 455.50727256 224.11067401 455.50554621 237.8395083 C455.50488322 245.54219088 455.51033558 253.24475519 455.53190231 260.94741058 C455.55014972 267.5064029 455.5544324 274.06522335 455.54088347 280.62423012 C455.53437136 283.96752656 455.53636266 287.31022573 455.55158997 290.65353394 C455.56706153 294.2864148 455.55772024 297.91843722 455.54232788 301.55130005 C455.55261501 302.59616758 455.56290213 303.64103511 455.57350099 304.7175653 C455.46314864 316.54717865 451.19385571 327.07793207 442.90722656 335.57626343 C429.60919087 347.8339766 415.42306282 348.83530414 398.09570312 348.76190186 C396.30358216 348.76536418 394.51146333 348.77013258 392.71934891 348.77608359 C387.82547669 348.78854433 382.9317812 348.78244573 378.03790855 348.77312493 C372.74812022 348.76631451 367.45836148 348.77682553 362.1685791 348.7850647 C351.81801799 348.79838299 341.46752226 348.79553277 331.11695862 348.78682677 C322.70251938 348.78004314 314.28809842 348.77913645 305.87365723 348.78239822 C304.07516921 348.78308777 304.07516921 348.78308777 302.2403481 348.78379125 C299.80438454 348.78475046 297.36842099 348.7857231 294.93245745 348.78670903 C272.1069391 348.79525734 249.28145695 348.78543754 226.45594454 348.76930793 C206.88369751 348.75590526 187.31150387 348.75823351 167.73925781 348.77206421 C144.993693 348.78812987 122.24815987 348.79443342 99.50259018 348.78522742 C97.07574209 348.7842718 94.648894 348.78332869 92.2220459 348.78239822 C91.02808614 348.7819354 89.83412638 348.78147257 88.60398602 348.78099572 C80.20265773 348.77840879 71.80134959 348.78277042 63.40002441 348.78983688 C53.15732684 348.79826303 42.91469822 348.79594828 32.67200851 348.77999465 C27.44913184 348.77212698 22.22637 348.7689947 17.00349426 348.77894211 C12.21682528 348.78792064 7.43037692 348.78290431 2.64372778 348.76700945 C0.91778832 348.76367499 -0.80817 348.76532543 -2.53409719 348.77263682 C-18.4768985 348.83496129 -32.34635055 347.44079717 -44.49511719 335.98251343 C-54.21137075 325.67979758 -57.26055659 316.0031311 -57.21957397 302.05923462 C-57.22410509 300.92578731 -57.2286362 299.79234001 -57.23330462 298.62454581 C-57.24595537 294.83008982 -57.24432778 291.03577723 -57.24267578 287.24130249 C-57.24757468 284.51923075 -57.25540961 281.79716905 -57.26303101 279.07510376 C-57.27962023 272.45023375 -57.28513962 265.82539934 -57.28625576 259.20051029 C-57.28720727 253.81318042 -57.29132268 248.42586225 -57.29765701 243.03853607 C-57.31526412 227.75177656 -57.32449677 212.4650451 -57.32299607 197.17827538 C-57.32291615 196.35473839 -57.32283624 195.5312014 -57.32275391 194.68270874 C-57.32267214 193.85816176 -57.32259038 193.03361478 -57.32250614 192.18408152 C-57.3216935 178.8255991 -57.34082713 165.4672295 -57.36903064 152.1087797 C-57.39778645 138.37997628 -57.41156944 124.65122784 -57.40984309 110.92239356 C-57.40918009 103.21971098 -57.41463246 95.51714666 -57.43619919 87.81449127 C-57.45444659 81.25549895 -57.45872928 74.6966785 -57.44518034 68.13767174 C-57.43866823 64.7943753 -57.44065954 61.45167613 -57.45588684 58.10836792 C-57.4713584 54.47548705 -57.46201712 50.84346464 -57.44662476 47.21060181 C-57.45691188 46.16573427 -57.46719901 45.12086674 -57.47779787 44.04433656 C-57.36744552 32.21472321 -53.09815259 21.68396978 -44.81152344 13.18563843 C-31.51348775 0.92792526 -17.32735969 -0.07340228 0 0 Z " fill="#FEFEFE" transform="translate(56.9521484375,81.61904907226563)"/>
<path d="M0 0 C1.79212096 -0.00346232 3.58423979 -0.00823072 5.37635422 -0.01418173 C10.27022644 -0.02664248 15.16392193 -0.02054387 20.05779457 -0.01122308 C25.3475829 -0.00441266 30.63734164 -0.01492368 35.92712402 -0.02316284 C46.27768513 -0.03648113 56.62818087 -0.03363092 66.97874451 -0.02492492 C75.39318375 -0.01814129 83.80760471 -0.01723459 92.2220459 -0.02049637 C94.02053392 -0.02118592 94.02053392 -0.02118592 95.85535502 -0.0218894 C98.29131858 -0.0228486 100.72728213 -0.02382124 103.16324568 -0.02480717 C125.98876402 -0.03335549 148.81424618 -0.02353568 171.63975859 -0.00740607 C191.21200561 0.00599659 210.78419925 0.00366834 230.35644531 -0.01016235 C253.10201013 -0.02622802 275.84754325 -0.03253157 298.59311295 -0.02332556 C301.01996103 -0.02236995 303.44680913 -0.02142683 305.87365723 -0.02049637 C307.06761698 -0.02003354 308.26157674 -0.01957072 309.4917171 -0.01909386 C317.8930454 -0.01650694 326.29435354 -0.02086856 334.69567871 -0.02793503 C344.93837628 -0.03636117 355.18100491 -0.03404642 365.42369461 -0.0180928 C370.64657128 -0.01022513 375.86933312 -0.00709284 381.09220886 -0.01704025 C385.87887785 -0.02601879 390.6653262 -0.02100245 395.45197535 -0.0051076 C397.1779148 -0.00177314 398.90387313 -0.00342358 400.62980032 -0.01073496 C416.57260163 -0.07305944 430.44205367 1.32110468 442.59082031 12.77938843 C452.30707387 23.08210427 455.35625972 32.75877076 455.3152771 46.70266724 C455.31980821 47.83611454 455.32433933 48.96956185 455.32900774 50.13735604 C455.3416585 53.93181204 455.34003091 57.72612463 455.33837891 61.52059937 C455.34327781 64.2426711 455.35111273 66.96473281 455.35873413 69.6867981 C455.37532335 76.3116681 455.38084274 82.93650252 455.38195889 89.56139156 C455.38291039 94.94872144 455.3870258 100.33603961 455.39336014 105.72336578 C455.41096724 121.01012529 455.42019989 136.29685676 455.41869919 151.58362648 C455.41857932 152.81893196 455.41857932 152.81893196 455.41845703 154.07919312 C455.41837527 154.9037401 455.41829351 155.72828708 455.41820927 156.57782033 C455.41739662 169.93630275 455.43653026 183.29467236 455.46473376 196.65312216 C455.49348958 210.38192557 455.50727256 224.11067401 455.50554621 237.8395083 C455.50488322 245.54219088 455.51033558 253.24475519 455.53190231 260.94741058 C455.55014972 267.5064029 455.5544324 274.06522335 455.54088347 280.62423012 C455.53437136 283.96752656 455.53636266 287.31022573 455.55158997 290.65353394 C455.56706153 294.2864148 455.55772024 297.91843722 455.54232788 301.55130005 C455.55261501 302.59616758 455.56290213 303.64103511 455.57350099 304.7175653 C455.46314864 316.54717865 451.19385571 327.07793207 442.90722656 335.57626343 C429.60919087 347.8339766 415.42306282 348.83530414 398.09570312 348.76190186 C396.30358216 348.76536418 394.51146333 348.77013258 392.71934891 348.77608359 C387.82547669 348.78854433 382.9317812 348.78244573 378.03790855 348.77312493 C372.74812022 348.76631451 367.45836148 348.77682553 362.1685791 348.7850647 C351.81801799 348.79838299 341.46752226 348.79553277 331.11695862 348.78682677 C322.70251938 348.78004314 314.28809842 348.77913645 305.87365723 348.78239822 C304.07516921 348.78308777 304.07516921 348.78308777 302.2403481 348.78379125 C299.80438454 348.78475046 297.36842099 348.7857231 294.93245745 348.78670903 C272.1069391 348.79525734 249.28145695 348.78543754 226.45594454 348.76930793 C206.88369751 348.75590526 187.31150387 348.75823351 167.73925781 348.77206421 C144.993693 348.78812987 122.24815987 348.79443342 99.50259018 348.78522742 C97.07574209 348.7842718 94.648894 348.78332869 92.2220459 348.78239822 C91.02808614 348.7819354 89.83412638 348.78147257 88.60398602 348.78099572 C80.20265773 348.77840879 71.80134959 348.78277042 63.40002441 348.78983688 C53.15732684 348.79826303 42.91469822 348.79594828 32.67200851 348.77999465 C27.44913184 348.77212698 22.22637 348.7689947 17.00349426 348.77894211 C12.21682528 348.78792064 7.43037692 348.78290431 2.64372778 348.76700945 C0.91778832 348.76367499 -0.80817 348.76532543 -2.53409719 348.77263682 C-18.4768985 348.83496129 -32.34635055 347.44079717 -44.49511719 335.98251343 C-54.21137075 325.67979758 -57.26055659 316.0031311 -57.21957397 302.05923462 C-57.22410509 300.92578731 -57.2286362 299.79234001 -57.23330462 298.62454581 C-57.24595537 294.83008982 -57.24432778 291.03577723 -57.24267578 287.24130249 C-57.24757468 284.51923075 -57.25540961 281.79716905 -57.26303101 279.07510376 C-57.27962023 272.45023375 -57.28513962 265.82539934 -57.28625576 259.20051029 C-57.28720727 253.81318042 -57.29132268 248.42586225 -57.29765701 243.03853607 C-57.31526412 227.75177656 -57.32449677 212.4650451 -57.32299607 197.17827538 C-57.32291615 196.35473839 -57.32283624 195.5312014 -57.32275391 194.68270874 C-57.32267214 193.85816176 -57.32259038 193.03361478 -57.32250614 192.18408152 C-57.3216935 178.8255991 -57.34082713 165.4672295 -57.36903064 152.1087797 C-57.39778645 138.37997628 -57.41156944 124.65122784 -57.40984309 110.92239356 C-57.40918009 103.21971098 -57.41463246 95.51714666 -57.43619919 87.81449127 C-57.45444659 81.25549895 -57.45872928 74.6966785 -57.44518034 68.13767174 C-57.43866823 64.7943753 -57.44065954 61.45167613 -57.45588684 58.10836792 C-57.4713584 54.47548705 -57.46201712 50.84346464 -57.44662476 47.21060181 C-57.45691188 46.16573427 -57.46719901 45.12086674 -57.47779787 44.04433656 C-57.36744552 32.21472321 -53.09815259 21.68396978 -44.81152344 13.18563843 C-31.51348775 0.92792526 -17.32735969 -0.07340228 0 0 Z M-35.76855469 28.37704468 C-39.83251453 35.25761036 -40.38566636 40.62715211 -40.33982849 48.52630615 C-40.34521403 49.64074683 -40.35059957 50.7551875 -40.3561483 51.90339911 C-40.37044282 55.63349652 -40.3633202 59.36323981 -40.35620117 63.09335327 C-40.36190397 65.7694155 -40.36876737 68.4454524 -40.3769989 71.12150574 C-40.39417809 77.63342948 -40.3950287 84.1452567 -40.389786 90.65719722 C-40.38574118 95.95158569 -40.38719156 101.24594568 -40.39253426 106.54033279 C-40.39328268 107.29445948 -40.3940311 108.04858616 -40.3948022 108.82556517 C-40.39633371 110.35768385 -40.39787206 111.88980253 -40.39941717 113.42192121 C-40.4131392 127.78387624 -40.40770677 142.14577677 -40.39623196 156.50773056 C-40.38630138 169.63800817 -40.39923771 182.76814483 -40.42316615 195.89840071 C-40.44756711 209.38989849 -40.45716248 222.88133066 -40.45051342 236.37285006 C-40.44702322 243.9435585 -40.44924001 251.51415858 -40.46676445 259.08485031 C-40.48149898 265.53009093 -40.48210572 271.97514687 -40.46469354 278.42038392 C-40.45619098 281.70666406 -40.45619029 284.99254725 -40.46934509 288.27882195 C-40.48253593 291.84673478 -40.47102275 295.41375392 -40.45335388 298.98162842 C-40.46295889 300.01286689 -40.47256389 301.04410537 -40.48245996 302.10659349 C-40.39984952 310.22572537 -38.32229983 317.85858232 -32.64388847 323.97840953 C-23.06494421 331.91985775 -12.82751623 332.24204911 -1.03759766 332.14285278 C0.76263117 332.1497757 2.5628515 332.15931138 4.36305428 332.17121625 C9.28409424 332.19616271 14.20443216 332.1839301 19.12547398 332.16529894 C24.44256301 332.15168798 29.7595338 332.17269517 35.07659912 332.18917847 C45.48250375 332.21582579 55.88814837 332.21011 66.29406309 332.19270262 C74.75288745 332.17913951 83.21163907 332.17732015 91.67047119 332.18384552 C93.47792161 332.18522462 93.47792161 332.18522462 95.32188618 332.18663158 C97.76993102 332.18854997 100.21797584 332.19049525 102.66602063 332.19246712 C125.60886175 332.20956689 148.55155891 332.18991931 171.49437642 332.15766492 C191.17047667 332.13085924 210.84636452 332.13551566 230.52246094 332.16317749 C253.38449792 332.19530337 276.2464088 332.20791902 299.10846519 332.18950391 C301.54738742 332.18759266 303.98630967 332.18570643 306.42523193 332.18384552 C307.62515561 332.18291987 308.82507929 332.18199421 310.06136429 332.18104051 C318.5077576 332.175865 326.95407077 332.18459344 335.40045166 332.19872284 C345.69707713 332.21556915 355.99342824 332.21095859 366.29002237 332.17903838 C371.5412369 332.1632945 376.79199436 332.1570521 382.04320526 332.17693329 C386.85477325 332.19487417 391.66546256 332.1848867 396.47695136 332.15306798 C398.21299048 332.14639191 399.94910456 332.14971668 401.68509507 332.1643227 C412.74963094 332.25024045 422.3854193 331.27945579 431.06966972 323.59095836 C437.82599624 316.64025157 438.48981514 308.3341219 438.44226074 299.12207031 C438.4513974 297.45018601 438.4513974 297.45018601 438.46071863 295.74452627 C438.47733138 292.01987724 438.47257512 288.29557072 438.46777344 284.57089233 C438.47511474 281.89630464 438.48360872 279.22174237 438.49343872 276.54716492 C438.51445608 270.04240223 438.51903571 263.53772875 438.51725084 257.03293611 C438.5159414 251.7438232 438.5197566 246.45473803 438.5271759 241.16563034 C438.52927518 239.64007008 438.53137278 238.11450982 438.53346872 236.58894956 C438.53451225 235.82955345 438.53555578 235.07015733 438.53663093 234.28774922 C438.55551823 219.93720885 438.55448768 205.58671965 438.5476616 191.23617201 C438.54208665 178.11954048 438.56291214 165.00310431 438.59602207 151.88651843 C438.62978762 138.40515212 438.64492388 124.92387932 438.64030504 111.44246995 C438.63806332 103.87897982 438.64325994 96.31567026 438.66819763 88.75221634 C438.68924781 82.31322361 438.6927661 75.87451048 438.67389804 69.43550612 C438.66476291 66.15306377 438.66625784 62.87124826 438.68425369 59.58882713 C438.70245019 56.02334428 438.68969157 52.45924044 438.66931152 48.89379883 C438.68182937 47.86615532 438.69434722 46.8385118 438.7072444 45.77972758 C438.61248034 38.02588329 436.63283247 31.53460987 431.49070883 25.5768019 C422.061852 16.82749433 411.67042772 16.80159885 399.49406433 16.85955811 C397.69642974 16.85351291 395.89880029 16.84573285 394.1011799 16.83637297 C389.17350615 16.8158229 384.24612359 16.82017391 379.31842601 16.82873416 C373.99925471 16.83367048 368.68015334 16.81563804 363.36100769 16.80065918 C352.94472298 16.77516575 342.52854139 16.77157774 332.11223074 16.77625971 C323.64476337 16.77982652 315.17732729 16.77632577 306.70986366 16.76781082 C305.50449025 16.76662044 304.29911683 16.76543007 303.05721695 16.76420362 C300.60844752 16.7617801 298.1596781 16.75935183 295.71090869 16.75691886 C272.74808869 16.73516786 249.78532745 16.73949277 226.82250414 16.75168855 C205.82136455 16.7620261 184.82041053 16.73951821 163.81930765 16.70149212 C142.2492705 16.66273565 120.67932113 16.6462233 99.10924894 16.65373862 C87.00175293 16.65756287 74.89441484 16.65258557 62.78694725 16.62430954 C52.47928775 16.60048026 42.17188336 16.59767375 31.86422034 16.62188987 C26.60693853 16.63366655 21.35012334 16.63586966 16.09287262 16.61188507 C11.27565424 16.59016375 6.45929195 16.59637644 1.6421136 16.62440844 C-0.09604239 16.62970154 -1.83426551 16.62497144 -3.57235561 16.60893671 C-16.03122493 16.50201893 -27.44636781 18.03264417 -35.76855469 28.37704468 Z " fill="#141D23" transform="translate(56.9521484375,81.61904907226563)"/>
<path d="M0 0 C18.90327411 14.92500597 31.89572628 36.77583117 35.02734375 60.8046875 C37.19313026 87.0592219 29.88290229 109.98120569 13.58984375 130.6171875 C-1.27540735 148.08638564 -23.01047646 160.28004993 -45.97265625 162.8046875 C-74.18598319 164.56323345 -97.17206105 156.47536407 -118.66015625 138.1171875 C-135.07123514 122.66162994 -146.28706973 99.72579476 -147.2109375 77.125 C-147.7905625 50.10095921 -139.06846459 27.03577774 -120.4609375 7.20703125 C-86.83658368 -25.2560419 -37.32344668 -27.56343894 0 0 Z " fill="#103A9A" transform="translate(311.97265625,184.1953125)"/>
<path d="M0 0 C0.89912109 -0.01224609 1.79824219 -0.02449219 2.72460938 -0.03710938 C8.64872421 -0.04995995 13.97513146 0.63238458 19.6875 2.1875 C21.21310547 2.59548828 21.21310547 2.59548828 22.76953125 3.01171875 C42.4934866 9.24776186 57.34419552 22.1034675 67.07958984 40.14770508 C72.93437379 51.57150701 74.6875 61.19878027 74.6875 74.1875 C25.8475 74.1875 -22.9925 74.1875 -73.3125 74.1875 C-73.3125 53.72276817 -66.82349643 37.6072593 -52.9375 22.625 C-52.07125 21.820625 -51.205 21.01625 -50.3125 20.1875 C-49.44818359 19.29804688 -49.44818359 19.29804688 -48.56640625 18.390625 C-35.58692812 5.73011325 -17.78411687 0.01258607 0 0 Z " fill="#EC1E33" transform="translate(255.3125,181.8125)"/>
<path d="M0 0 C18.90327411 14.92500597 31.89572628 36.77583117 35.02734375 60.8046875 C37.19313026 87.0592219 29.88290229 109.98120569 13.58984375 130.6171875 C-1.27540735 148.08638564 -23.01047646 160.28004993 -45.97265625 162.8046875 C-74.18598319 164.56323345 -97.17206105 156.47536407 -118.66015625 138.1171875 C-135.07123514 122.66162994 -146.28706973 99.72579476 -147.2109375 77.125 C-147.7905625 50.10095921 -139.06846459 27.03577774 -120.4609375 7.20703125 C-86.83658368 -25.2560419 -37.32344668 -27.56343894 0 0 Z M-104.97265625 15.8046875 C-105.78734375 16.4234375 -106.60203125 17.0421875 -107.44140625 17.6796875 C-119.2525604 27.59522432 -128.34044527 45.56533149 -129.97265625 60.8046875 C-131.27133595 83.47462262 -127.52444799 101.89248199 -112.97265625 119.8046875 C-112.35261719 120.6296875 -111.73257813 121.4546875 -111.09375 122.3046875 C-100.71058227 134.54267525 -82.88273074 144.10063922 -66.97265625 145.8046875 C-44.30272113 147.1033672 -25.88486176 143.35647924 -7.97265625 128.8046875 C-7.14894531 128.18722656 -6.32523437 127.56976563 -5.4765625 126.93359375 C7.23531287 116.12552498 16.14382327 98.2111422 18.02734375 81.8046875 C19.19395558 60.3935317 15.71181192 41.3523406 1.6015625 24.546875 C-0.52020422 22.1987163 -2.6516017 19.95995244 -4.97265625 17.8046875 C-5.54886719 17.21171875 -6.12507813 16.61875 -6.71875 16.0078125 C-20.91112964 2.16420589 -39.67886737 -2.49068786 -58.92456055 -2.4375 C-76.49181895 -2.19395426 -91.73245053 4.33894234 -104.97265625 15.8046875 Z " fill="#151E24" transform="translate(311.97265625,184.1953125)"/>
<path d="M0 0 C4.15393183 0.65588397 5.50877196 1.74404583 8.5625 4.5625 C10.19311523 6.93066406 10.19311523 6.93066406 11.62109375 9.578125 C12.16531982 10.57094482 12.7095459 11.56376465 13.27026367 12.58666992 C13.84107666 13.65119385 14.41188965 14.71571777 15 15.8125 C16.23233211 18.06492098 17.46676683 20.31619267 18.703125 22.56640625 C19.33541016 23.72027832 19.96769531 24.87415039 20.61914062 26.06298828 C24.28818972 32.7085731 28.17380022 39.23113309 32.03100586 45.76855469 C39.5625 58.5763934 39.5625 58.5763934 39.5625 62.6875 C38.27474763 66.38978805 36.9420917 67.60984702 33.5625 69.5625 C30.625 70.25 30.625 70.25 27.5625 69.5625 C22.03962719 63.97730986 18.53436196 57.55543761 14.8125 50.6875 C13.5808998 48.44970967 12.34782015 46.21273296 11.11328125 43.9765625 C10.51209473 42.88504883 9.9109082 41.79353516 9.29150391 40.66894531 C6.92957296 36.42534049 4.48005441 32.23784807 2 28.0625 C1.59765137 27.38034424 1.19530273 26.69818848 0.78076172 25.99536133 C-0.84946947 23.23212292 -2.4894457 20.47733733 -4.16015625 17.73828125 C-8.44944918 10.50980709 -8.44944918 10.50980709 -7.4375 5.5625 C-5.34838357 1.71852577 -4.36166466 0.71372694 0 0 Z " fill="#161E24" transform="translate(92.4375,306.4375)"/>
<path d="M0 0 C3.5 1 3.5 1 6 3.125 C7.92388013 6.81243692 7.70189769 9.15014458 6.5 13 C4.52408073 17.07658481 2.20645566 20.93089439 -0.125 24.8125 C-1.14001679 26.53230408 -2.15501119 28.25212183 -3.16868591 29.97271729 C-3.87040514 31.16222457 -4.57368219 32.35081414 -5.27845764 33.53851318 C-7.79545909 37.78270147 -10.25704115 42.05560537 -12.69140625 46.34765625 C-13.36825499 47.53739438 -14.04517455 48.72709223 -14.72216797 49.91674805 C-16.01009276 52.18301571 -17.29440808 54.45133932 -18.57470703 56.72192383 C-19.1623584 57.74954834 -19.75000977 58.77717285 -20.35546875 59.8359375 C-20.86746826 60.73876465 -21.37946777 61.6415918 -21.90698242 62.57177734 C-23.91337298 65.63010079 -25.87526256 68.53986928 -29.5 69.56640625 C-33.35895726 69.55886922 -34.96162086 69.45762227 -38 66.875 C-39.76003725 63.50159527 -39.81349499 61.76572038 -39.5 58 C-38.37353516 55.29370117 -38.37353516 55.29370117 -36.7890625 52.54296875 C-36.20850098 51.52106445 -35.62793945 50.49916016 -35.02978516 49.44628906 C-34.0869165 47.83318848 -34.0869165 47.83318848 -33.125 46.1875 C-32.48739746 45.0747168 -31.84979492 43.96193359 -31.19287109 42.81542969 C-29.30863197 39.5356508 -27.40687673 36.26665655 -25.5 33 C-24.541492 31.34515324 -23.58313866 29.69021688 -22.625 28.03515625 C-20.64597401 24.63181982 -18.6414181 21.24479011 -16.6171875 17.86816406 C-15.48622257 15.97696134 -14.36802101 14.07856409 -13.25 12.1796875 C-12.54241364 10.99434544 -11.834119 9.8094258 -11.125 8.625 C-10.51914063 7.60664063 -9.91328125 6.58828125 -9.2890625 5.5390625 C-6.50920082 1.59384395 -4.90366436 0 0 0 Z " fill="#151E24" transform="translate(162.5,158)"/>
<path d="M0 0 C5.89215971 5.80650007 9.6211549 14.04700538 13.625 21.1875 C14.6786923 23.05665798 15.73362851 24.92510964 16.78875732 26.79345703 C17.49652201 28.04697239 18.20359568 29.30087817 18.90997314 30.55517578 C21.13282934 34.49472269 23.40316448 38.40227609 25.7109375 42.29296875 C26.26958496 43.24212158 26.82823242 44.19127441 27.40380859 45.16918945 C28.44107506 46.92752904 29.48778401 48.68034451 30.54541016 50.42651367 C33.07238124 54.74345954 34.80350554 57.8390221 34 63 C32.5 65.875 32.5 65.875 30 68 C24.59762533 68.94327177 24.59762533 68.94327177 22 68 C16.52299045 62.65406419 13.20074759 55.62447145 9.5 49 C8.08519004 46.48388935 6.66632053 43.97008773 5.24609375 41.45703125 C4.89127426 40.82819534 4.53645477 40.19935944 4.17088318 39.5514679 C1.87563877 35.49895102 -0.48592356 31.49370695 -2.90234375 27.51171875 C-3.50046875 26.52365234 -4.09859375 25.53558594 -4.71484375 24.51757812 C-5.8343054 22.67846256 -6.9627423 20.84476968 -8.1015625 19.01757812 C-10.97376535 14.28102766 -12.92881031 10.60262828 -13 5 C-9.34749719 -0.79362515 -6.63498072 -1.8799112 0 0 Z " fill="#151E24" transform="translate(374,148)"/>
<path d="M0 0 C3.5 1 3.5 1 6 3.125 C7.91236016 6.79035697 7.67505683 9.16829296 6.5 13 C4.68925035 16.74506351 2.54097169 20.26385101 0.375 23.8125 C-0.89825668 25.94073584 -2.17034971 28.06966818 -3.44140625 30.19921875 C-4.10543457 31.30571777 -4.76946289 32.4122168 -5.45361328 33.55224609 C-7.54487076 37.05718113 -9.57307477 40.59634261 -11.58984375 44.14453125 C-11.92367065 44.73045547 -12.25749756 45.3163797 -12.60144043 45.9200592 C-14.2182747 48.75860833 -15.83040239 51.59967668 -17.43603516 54.44458008 C-25.29881699 68.20068773 -25.29881699 68.20068773 -29.59765625 69.76171875 C-33.26283878 69.62327249 -35.18517605 69.26760036 -38 66.875 C-39.79964434 63.42568168 -39.90993535 61.86250192 -39.5 58 C-38.38269079 55.22192846 -36.89665103 52.6992762 -35.375 50.125 C-34.93559082 49.35905518 -34.49618164 48.59311035 -34.04345703 47.80395508 C-32.54166764 45.19508066 -31.02064569 42.59792351 -29.5 40 C-28.33244064 37.98098471 -27.16580638 35.96143424 -26 33.94140625 C-22.5298521 27.94320871 -19.02148096 21.96816749 -15.5 16 C-15.05785156 15.24589844 -14.61570313 14.49179688 -14.16015625 13.71484375 C-13.07412643 11.86681267 -11.97762652 10.02566107 -10.875 8.1875 C-10.30523437 7.23230469 -9.73546875 6.27710938 -9.1484375 5.29296875 C-6.41312513 1.4881622 -4.75591336 0 0 0 Z " fill="#151E24" transform="translate(143.5,147)"/>
<path d="M0 0 C4.1703999 0.6584842 5.50179125 1.72114105 8.5625 4.5625 C10.36083984 7.17431641 10.36083984 7.17431641 12.0234375 10.1640625 C12.6532251 11.28208252 13.2830127 12.40010254 13.93188477 13.55200195 C14.60089782 14.76357267 15.26942508 15.97541174 15.9375 17.1875 C16.98811844 19.07271986 18.04159492 20.95631873 19.09565735 22.83961487 C19.81940169 24.13276843 20.5419551 25.4265892 21.26335144 26.72105408 C23.75697388 31.17987334 26.34119647 35.57531413 28.98046875 39.94921875 C29.68416092 41.12589757 30.38745599 42.30281397 31.09033203 43.47998047 C32.42223446 45.70237489 33.76779105 47.91665676 35.12841797 50.12158203 C40.06747874 58.44203048 40.06747874 58.44203048 39.59765625 62.63671875 C38.26626593 66.39978045 37.10449206 67.71450414 33.5625 69.5625 C30 69.625 30 69.625 26.5625 68.5625 C23.68340588 65.37346223 21.50348139 61.95465865 19.3828125 58.23046875 C18.79000488 57.19583496 18.19719727 56.16120117 17.58642578 55.09521484 C16.95978027 53.99129395 16.33313477 52.88737305 15.6875 51.75 C14.35521429 49.41215344 13.02217929 47.07475963 11.6875 44.73828125 C11.34864777 44.14426514 11.00979553 43.55024902 10.66067505 42.93823242 C8.32534974 38.85733623 5.92941468 34.81860323 3.5 30.79296875 C2.8591748 29.72344971 2.21834961 28.65393066 1.55810547 27.55200195 C0.33878151 25.52186416 -0.89089574 23.4978979 -2.13232422 21.48120117 C-5.36809429 16.06069584 -7.39492236 11.93495338 -7.4375 5.5625 C-5.44880703 1.58511405 -4.40657063 0.72107519 0 0 Z " fill="#151E24" transform="translate(130.4375,284.4375)"/>
<path d="M0 0 C2.5 2.1875 2.5 2.1875 4 5 C3.6362172 9.32905237 2.47034163 12.46075623 0.33203125 16.2109375 C-0.22492432 17.19723145 -0.78187988 18.18352539 -1.35571289 19.19970703 C-1.96020264 20.24755371 -2.56469238 21.29540039 -3.1875 22.375 C-3.80810303 23.46538574 -4.42870605 24.55577148 -5.06811523 25.67919922 C-7.03490949 29.12560698 -9.01614653 32.56338818 -11 36 C-11.64420898 37.12212891 -12.28841797 38.24425781 -12.95214844 39.40039062 C-14.81614316 42.64550943 -16.68721327 45.88639518 -18.5625 49.125 C-19.13315186 50.11290527 -19.70380371 51.10081055 -20.29174805 52.11865234 C-28.55492713 66.27746356 -28.55492713 66.27746356 -32 68 C-35.375 68.375 -35.375 68.375 -39 68 C-42.0998718 65.37703155 -42.91172372 63.81018011 -43.3515625 59.7734375 C-42.93265186 55.27712998 -41.32117029 52.39466698 -38.9375 48.6875 C-38.02272811 47.20175742 -37.11011533 45.71468415 -36.19921875 44.2265625 C-35.69310059 43.40704102 -35.18698242 42.58751953 -34.66552734 41.74316406 C-31.4265724 36.40852646 -28.35258845 30.97716698 -25.25 25.5625 C-21.76118234 19.4861763 -18.26694159 13.41324984 -14.69921875 7.3828125 C-14.23604248 6.59922363 -13.77286621 5.81563477 -13.2956543 5.00830078 C-9.64513312 -0.65011022 -6.48098485 -2.0032135 0 0 Z " fill="#151E24" transform="translate(128,137)"/>
<path d="M0 0 C5.13241911 3.22584883 7.48877132 7.69607244 10.3125 12.875 C10.9940918 14.06029297 10.9940918 14.06029297 11.68945312 15.26953125 C14.10071638 19.62793492 15.75842521 22.88254502 15 28 C13.5 30.875 13.5 30.875 11 33 C5.59762533 33.94327177 5.59762533 33.94327177 3 33 C-0.73095866 29.08161485 -3.5556266 24.79870156 -6.25 20.125 C-6.600625 19.55136719 -6.95125 18.97773438 -7.3125 18.38671875 C-9.9565754 13.82060393 -10.81036189 10.19066597 -11 5 C-7.91867946 0.51807921 -5.40810027 -1.0140188 0 0 Z " fill="#161F25" transform="translate(374,194)"/>
<path d="M0 0 C4.27440233 0.67490563 5.46289119 1.56961425 8.5625 4.5625 C10.54559068 7.41013561 12.21496941 10.39288093 13.875 13.4375 C14.5565918 14.62279297 14.5565918 14.62279297 15.25195312 15.83203125 C17.65818315 20.18133725 19.337915 23.45251518 18.5625 28.5625 C16.38693497 31.78233624 14.86988498 32.47307891 11.125 33.5625 C6.59085724 33.5625 5.77586247 32.70851655 2.5625 29.5625 C0.58091421 26.71376677 -1.08992828 23.73219451 -2.75 20.6875 C-3.20439453 19.89730469 -3.65878906 19.10710937 -4.12695312 18.29296875 C-6.53675874 13.93719981 -8.20314483 10.67700743 -7.4375 5.5625 C-5.34838357 1.71852577 -4.36166466 0.71372694 0 0 Z " fill="#161F25" transform="translate(111.4375,295.4375)"/>
<path d="M0 0 C3.5625 0.5625 3.5625 0.5625 6.5625 2.5625 C8.80628947 5.9281842 8.76563433 7.42424023 8.15478516 11.33349609 C7.07236886 15.40705785 4.94827754 18.81184056 2.75 22.375 C2.31107422 23.12458984 1.87214844 23.87417969 1.41992188 24.64648438 C-2.71477073 31.52125559 -2.71477073 31.52125559 -6.4375 33.5625 C-9.375 34.0625 -9.375 34.0625 -12.4375 33.5625 C-15.55668503 31.25701541 -17.22646823 29.8440384 -17.8671875 25.953125 C-17.25540202 21.12558139 -15.10742818 17.60439881 -12.6875 13.4375 C-12.2440625 12.63957031 -11.800625 11.84164063 -11.34375 11.01953125 C-5.60999195 0.91799868 -5.60999195 0.91799868 0 0 Z " fill="#161F25" transform="translate(380.4375,284.4375)"/>
<path d="M0 0 C2.9375 2 2.9375 2 5 5 C4.87007677 11.71991832 2.66944315 16.16866367 -0.8125 21.8125 C-1.25142578 22.56208984 -1.69035156 23.31167969 -2.14257812 24.08398438 C-6.27727073 30.95875559 -6.27727073 30.95875559 -10 33 C-12.9375 33.5 -12.9375 33.5 -16 33 C-19.11933702 30.69440307 -20.79060923 29.28323884 -21.42578125 25.390625 C-20.82072305 20.5723634 -18.71009991 17.04444325 -16.3125 12.875 C-15.65991211 11.67810547 -15.65991211 11.67810547 -14.99414062 10.45703125 C-11.49800698 4.25204145 -7.95417593 -1.49140799 0 0 Z " fill="#161F25" transform="translate(403,296)"/>
<path d="M0 0 C4.92677559 3.17013089 7.42807772 7.36838655 10.3125 12.3125 C10.9940918 13.41368164 10.9940918 13.41368164 11.68945312 14.53710938 C14.42910422 19.18009703 15.68163008 22.46433753 15 28 C13.5 30.9375 13.5 30.9375 11 33 C6.11884936 34.02346707 6.11884936 34.02346707 3 33 C0.36064133 30.73310557 -1.23221444 27.97060873 -3 25 C-3.62390625 24.03578125 -4.2478125 23.0715625 -4.890625 22.078125 C-11.46009104 11.55629728 -11.46009104 11.55629728 -11 5 C-7.91867946 0.51807921 -5.40810027 -1.0140188 0 0 Z " fill="#161F25" transform="translate(412,172)"/>
<path d="M0 0 C4.27213143 0.89002738 6.73645235 2.91752809 9.33837891 6.43359375 C10.72784173 8.56826317 12.0290513 10.73757387 13.3125 12.9375 C13.9940918 14.03868164 13.9940918 14.03868164 14.68945312 15.16210938 C17.42910422 19.80509703 18.68163008 23.08933753 18 28.625 C16.5 31.5625 16.5 31.5625 14 33.625 C9.11884936 34.64846707 9.11884936 34.64846707 6 33.625 C3.36073398 31.35818514 1.76579459 28.59681409 0 25.625 C-0.62390625 24.64917969 -1.2478125 23.67335937 -1.890625 22.66796875 C-8.43717603 12.08970032 -8.43717603 12.08970032 -8 6.625 C-6.18482061 2.93714686 -4.1330248 0.86104683 0 0 Z " fill="#161F25" transform="translate(350,157.375)"/>
<path d="M0 0 C2.875 1.5 2.875 1.5 5 4 C5.81862571 10.9395427 3.95184573 14.93737122 0.3125 20.75 C-0.12255859 21.49121094 -0.55761719 22.23242188 -1.00585938 22.99609375 C-3.51447529 27.13623913 -5.85875747 30.32158443 -10 33 C-13 33.625 -13 33.625 -16 33 C-20.01895284 29.49410497 -20.01895284 29.49410497 -21 27 C-20.92677355 20.47470953 -18.01433206 16.01918004 -14.625 10.6875 C-14.13 9.87732422 -13.635 9.06714844 -13.125 8.23242188 C-9.57930712 2.53940429 -7.31986272 -0.87838353 0 0 Z " fill="#161F25" transform="translate(401,343)"/>
<path d="M0 0 C2.875 1.5625 2.875 1.5625 5 4 C5.90661428 10.55423902 3.49468772 14.71233162 0.3125 20.1875 C-0.34008789 21.37762695 -0.34008789 21.37762695 -1.00585938 22.59179688 C-3.46987278 26.93941165 -5.67968242 30.2702471 -10 33 C-13 33.625 -13 33.625 -16 33 C-20.01895284 29.49410497 -20.01895284 29.49410497 -21 27 C-20.86130301 20.75093013 -18.34918856 16.4335409 -15.1875 11.25 C-14.74857422 10.49589844 -14.30964844 9.74179687 -13.85742188 8.96484375 C-10.28961313 2.99552333 -7.58140398 -1.08305771 0 0 Z " fill="#161F25" transform="translate(363,321)"/>
<path d="M0 0 C3.11933702 2.30559693 4.79060923 3.71676116 5.42578125 7.609375 C4.82072305 12.4276366 2.71009991 15.95555675 0.3125 20.125 C-0.12255859 20.92292969 -0.55761719 21.72085937 -1.00585938 22.54296875 C-3.4671573 26.91131677 -5.6555616 30.26941599 -10 33 C-13 33.5625 -13 33.5625 -16 33 C-19.0982867 30.70996201 -20.77104071 29.27867942 -21.4609375 25.42578125 C-20.77972474 20.36286943 -18.35572841 16.64543516 -15.75 12.3125 C-15.25886719 11.45849609 -14.76773437 10.60449219 -14.26171875 9.72460938 C-7.78366755 -1.27080286 -7.78366755 -1.27080286 0 0 Z " fill="#161F25" transform="translate(422,307)"/>
<path d="M0 0 C4.19506383 3.58708356 6.95642777 7.69082839 9.75 12.375 C10.14832031 13.00921875 10.54664063 13.6434375 10.95703125 14.296875 C13.48280789 18.49223281 14.81089355 21.99782933 15 27 C13.23358828 29.80189446 11.96950178 31.51524911 9 33 C6.25 33.5 6.25 33.5 3 33 C-1.59865686 28.90119715 -4.40537341 23.83364881 -7.375 18.5 C-7.73319824 17.87150146 -8.09139648 17.24300293 -8.46044922 16.59545898 C-10.76743183 12.268037 -11.50999807 9.00781234 -11 4 C-8.115552 -0.49973888 -5.11460998 -0.80757 0 0 Z " fill="#161F25" transform="translate(136,332)"/>
<path d="M0 0 C6.34100542 2.03818031 9.5728631 8.45511862 12.8125 14 C13.17150391 14.57363281 13.53050781 15.14726562 13.90039062 15.73828125 C16.68030616 20.49326059 16.97229849 23.78352902 16.5 29.125 C14.9375 31.625 14.9375 31.625 12.5 33.125 C9.0625 33.6875 9.0625 33.6875 5.5 33.125 C0.79511659 29.22864811 -1.94724208 24.44630271 -4.875 19.1875 C-5.56916016 18.00897461 -5.56916016 18.00897461 -6.27734375 16.80664062 C-8.31486287 13.17255801 -9.51866202 10.94053015 -9.421875 6.7109375 C-7.68297542 1.8331768 -5.10642609 0.18237236 0 0 Z " fill="#161F25" transform="translate(389.5,135.875)"/>
<path d="M0 0 C2.875 1.5625 2.875 1.5625 5 4 C5.90661428 10.55423902 3.49468772 14.71233162 0.3125 20.1875 C-0.34008789 21.37762695 -0.34008789 21.37762695 -1.00585938 22.59179688 C-3.46987278 26.93941165 -5.67968242 30.2702471 -10 33 C-13 33.625 -13 33.625 -16 33 C-20.01895284 29.49410497 -20.01895284 29.49410497 -21 27 C-20.86130301 20.75093013 -18.34918856 16.4335409 -15.1875 11.25 C-14.74857422 10.49589844 -14.30964844 9.74179687 -13.85742188 8.96484375 C-10.28961313 2.99552333 -7.58140398 -1.08305771 0 0 Z " fill="#161E24" transform="translate(382,332)"/>
</svg>
