<?xml version="1.0" encoding="UTF-8"?>
<svg version="1.1" xmlns="http://www.w3.org/2000/svg" width="512" height="512">
<path d="M0 0 C0.88558594 0.78375 1.77117187 1.5675 2.68359375 2.375 C7.83007883 4.89671707 11.64616741 3.05718314 16.9375 1.4375 C60.11937763 -10.53966578 60.11937763 -10.53966578 73.31640625 -3.140625 C76.88095559 -0.29728725 79.46711051 2.31380197 80.3828125 6.9296875 C80.64723032 11.74209185 79.54547691 15.65042135 78 20.1875 C75.70200389 27.1059351 75.15978359 33.75069097 76 41 C76.66 41.99 77.32 42.98 78 44 C78.65226562 43.30132812 79.30453125 42.60265625 79.9765625 41.8828125 C80.85054688 40.97273438 81.72453125 40.06265625 82.625 39.125 C83.48351562 38.22007813 84.34203125 37.31515625 85.2265625 36.3828125 C88.64590173 33.44507035 91.61271109 32.13165196 96.125 31.8828125 C100.96313444 32.5077382 104.20686836 33.73614254 108 37 C113.67659735 44.37957656 111.1635316 55.52667208 110.06689453 64.16772461 C109.94169434 65.10237549 109.81649414 66.03702637 109.6875 67 C109.57003418 67.9082251 109.45256836 68.8164502 109.33154297 69.75219727 C108.5876015 74.85574973 107.80205757 79.19794243 104 83 C102.00041636 83.04080783 99.99954746 83.04254356 98 83 C97.7651089 84.94624054 97.5313476 86.89262747 97.3046875 88.83984375 C97 91 97 91 96.1875 94.1875 C95.66704834 97.16115349 95.66704834 97.16115349 98 99.4375 C100 102 100 102 99.82421875 105.14453125 C98.90618244 109.43885274 97.52881896 113.22296988 95.8125 117.25 C95.34602051 118.36109131 95.34602051 118.36109131 94.87011719 119.49462891 C88.30256011 134.87126433 88.30256011 134.87126433 83 140 C84.18589722 140.01401855 84.18589722 140.01401855 85.39575195 140.02832031 C89.03526179 140.0825501 92.67355807 140.16609457 96.3125 140.25 C97.55580078 140.26417969 98.79910156 140.27835938 100.08007812 140.29296875 C111.37738426 140.58948597 121.72840407 142.8191014 130 151 C138.52430196 161.4422699 140.32266047 171.86135551 139 185 C137.37243534 193.25717805 132.30131994 199.59886863 126 205 C116.25896414 211 116.25896414 211 112 211 C112.00999275 212.01999336 112.00999275 212.01999336 112.02018738 213.06059265 C112.08112756 219.57325719 112.12638504 226.08583845 112.15543652 232.59872723 C112.17087602 235.94449175 112.1934224 239.28983398 112.22631836 242.63549805 C112.61483558 283.21650261 105.5469162 320.71628474 78 352 C77.26910156 352.85207031 76.53820312 353.70414062 75.78515625 354.58203125 C52.5945074 381.11474197 19.22106575 398.75381883 -16 402 C-32.0886299 402.92308242 -48.29086671 402.87860982 -64 399 C-64.69270996 398.83371094 -65.38541992 398.66742188 -66.09912109 398.49609375 C-88.53777139 392.94426275 -108.61334795 382.1707062 -126 367 C-126.72703125 366.39414062 -127.4540625 365.78828125 -128.203125 365.1640625 C-132.96471035 361.14761073 -137.06417563 356.82299789 -141 352 C-142.16015625 350.59621094 -142.16015625 350.59621094 -143.34375 349.1640625 C-160.93922234 327.40666345 -171.62748327 300.8310988 -174.125 272.98046875 C-174.25091019 271.57908157 -174.25091019 271.57908157 -174.37936401 270.14938354 C-175.34115257 258.31847174 -175.21653895 246.48533907 -175.125 234.625 C-175.114933 232.31641021 -175.10581384 230.00781608 -175.09765625 227.69921875 C-175.07597686 222.1327153 -175.04280411 216.56637911 -175 211 C-175.62163528 210.79880051 -176.24327057 210.59760101 -176.88374329 210.39030457 C-177.6972374 210.12381607 -178.51073151 209.85732758 -179.34887695 209.58276367 C-180.55976738 209.18815193 -180.55976738 209.18815193 -181.79512024 208.78556824 C-184.22824014 207.91868119 -186.14138794 206.88886448 -188.1875 205.3125 C-188.77917969 204.87550781 -189.37085938 204.43851563 -189.98046875 203.98828125 C-192 202 -192 202 -193.14002132 200.08875656 C-195.85506588 195.68568165 -195.85506588 195.68568165 -200.25668526 193.26528168 C-203.03784004 193.00338777 -205.72315058 192.99028517 -208.51586914 193.06347656 C-209.56209946 193.05897995 -210.60832977 193.05448334 -211.68626404 193.04985046 C-215.13702036 193.04354441 -218.58476573 193.09264381 -222.03515625 193.140625 C-224.43598834 193.1432636 -226.83682814 193.14180144 -229.23765564 193.13641357 C-235.55396828 193.13063524 -241.8691614 193.16910405 -248.1852417 193.22027588 C-258.29796103 193.29780275 -268.41060346 193.32173633 -278.52358818 193.3201828 C-282.0564933 193.32803353 -285.58841064 193.36290133 -289.12110901 193.40045166 C-291.28524501 193.40752783 -293.44938408 193.41373911 -295.61352539 193.41894531 C-296.5960025 193.43654404 -297.57847961 193.45414276 -298.59072876 193.47227478 C-302.88717354 193.46113476 -305.33277192 193.39745997 -309.08665466 191.16131592 C-311 189 -311 189 -312 186 C-314.10241603 185.86503749 -316.2072961 185.76802693 -318.3125 185.6875 C-319.48425781 185.62949219 -320.65601563 185.57148438 -321.86328125 185.51171875 C-322.89839844 185.67285156 -323.93351562 185.83398438 -325 186 C-326.79772566 188.34340171 -326.79772566 188.34340171 -328 191 C-332.30050512 193.86700341 -336.06676536 193.32991816 -341.125 193.3125 C-342.49398438 193.33666992 -342.49398438 193.33666992 -343.890625 193.36132812 C-352.38858237 193.3673808 -360.11070371 191.87132629 -366.42578125 185.8359375 C-372.54830896 178.69552057 -373.77478775 171.78561586 -373.41015625 162.4921875 C-372.49313158 154.68437746 -369.12175371 150.60259446 -363.29296875 145.54296875 C-356.57480022 141.02222502 -351.02008389 140.57074101 -343.09779358 140.63923645 C-341.46561006 140.63539154 -341.46561006 140.63539154 -339.80045313 140.63146895 C-336.15986742 140.62653351 -332.5196978 140.64302059 -328.87915039 140.65942383 C-326.26731374 140.66027015 -323.65547637 140.65979486 -321.04364014 140.65809631 C-315.42337309 140.65652553 -309.80321076 140.66591431 -304.18297005 140.68280983 C-296.05712728 140.70722174 -287.93133501 140.71500733 -279.80545955 140.7187738 C-266.62084735 140.72533485 -253.43629092 140.74528661 -240.25170898 140.77368164 C-227.44637328 140.80123118 -214.64105273 140.82246038 -201.83569336 140.83520508 C-200.65112121 140.83638733 -200.65112121 140.83638733 -199.44261832 140.83759347 C-195.48073397 140.84150867 -191.51884952 140.84529977 -187.55696499 140.84902918 C-154.70460273 140.88011431 -121.85230884 140.93294066 -89 141 C-88.99275406 139.73052017 -88.98550812 138.46104034 -88.9780426 137.15309143 C-88.97396676 136.43900903 -88.96989092 135.72492662 -88.96569157 134.98920536 C-89.0044277 132.74328187 -89.31288939 130.70968795 -89.83984375 128.52734375 C-90.1037793 127.39522461 -90.1037793 127.39522461 -90.37304688 126.24023438 C-90.55931641 125.48033203 -90.74558594 124.72042969 -90.9375 123.9375 C-91.30335561 122.40556044 -91.66667524 120.87301281 -92.02734375 119.33984375 C-92.27085571 118.34005493 -92.27085571 118.34005493 -92.51928711 117.32006836 C-99.28045722 84.68858051 -91.51826829 49.38455476 -77 20 C-76.45206787 18.8855249 -76.45206787 18.8855249 -75.89306641 17.74853516 C-63.72463869 -6.73110496 -63.72463869 -6.73110496 -56.3125 -10.125 C-35.9231778 -15.51085869 -17.63892052 -10.74195841 0 0 Z " fill="#020303" transform="translate(373,61)"/>
<path d="M0 0 C0.77923828 0.00451172 1.55847656 0.00902344 2.36132812 0.01367188 C4.26175268 0.02533092 6.16213706 0.04326123 8.0625 0.0625 C7.77375 0.97128906 7.485 1.88007812 7.1875 2.81640625 C3.21727441 16.25727413 1.95439023 28.96566341 8.0625 42.0625 C11.94537318 49.10673427 11.94537318 49.10673427 18.0625 54.0625 C21.62904188 54.20096574 23.98262186 53.92335471 26.82714844 51.65576172 C28.62133484 49.83469802 30.28808402 47.95295434 31.9375 46 C33.0788935 44.69500676 34.22202439 43.39153032 35.3671875 42.08984375 C36.1094458 41.21960571 36.1094458 41.21960571 36.86669922 40.33178711 C37.26131348 39.91292236 37.65592773 39.49405762 38.0625 39.0625 C38.3925 39.0625 38.7225 39.0625 39.0625 39.0625 C39.27230316 44.4357921 39.10251814 49.46202043 38.0625 54.75 C36.85523771 60.86360654 36.85523771 60.86360654 37.0625 67.0625 C37.908125 67.866875 38.75375 68.67125 39.625 69.5 C42.0625 72.0625 42.0625 72.0625 42 76 C41.31832429 79.45426059 40.29912384 82.76483642 39.0625 86.0625 C37.99 86.10375 36.9175 86.145 35.8125 86.1875 C31.923008 86.68411159 31.923008 86.68411159 30.01171875 89.66015625 C28.02158575 93.13391545 26.50423845 96.63135278 25.125 100.375 C20.10711951 113.75135552 13.8297623 122.09842343 0.96087646 128.8895874 C-8.0150535 132.52195934 -18.15801663 131.35479048 -27.625 130.875 C-29.89891997 130.80960431 -32.17302429 130.75032201 -34.44726562 130.69726562 C-39.94812228 130.55588865 -45.44191364 130.34000695 -50.9375 130.0625 C-50.72528809 129.52343018 -50.51307617 128.98436035 -50.29443359 128.42895508 C-50.01937988 127.71634521 -49.74432617 127.00373535 -49.4609375 126.26953125 C-49.18685059 125.56546143 -48.91276367 124.8613916 -48.63037109 124.13598633 C-47.68284778 121.30042766 -47.52510308 119.01801126 -47.9375 116.0625 C-48.87347315 114.04298938 -48.87347315 114.04298938 -50.9375 113.0625 C-54.4375 112.47916667 -54.4375 112.47916667 -57.9375 113.0625 C-59.89314931 114.80085494 -60.71495191 116.59289411 -61.82421875 118.93359375 C-62.15035156 119.61550781 -62.47648437 120.29742187 -62.8125 121 C-63.09867187 121.64839844 -63.38484375 122.29679687 -63.6796875 122.96484375 C-65.58254088 126.13823588 -66.86678252 127.85992363 -69.9375 130.0625 C-74.20149628 130.70686262 -78.38641001 130.57780552 -82.6875 130.4375 C-83.84894531 130.42332031 -85.01039063 130.40914062 -86.20703125 130.39453125 C-94.75544085 130.24455915 -94.75544085 130.24455915 -95.9375 129.0625 C-96.92018716 121.20100272 -95.80055315 115.35369027 -90.9375 109.0625 C-86.8783443 104.64073982 -82.03932353 101.80904825 -76.7578125 99.04296875 C-74.97365104 98.19439282 -74.97365104 98.19439282 -73.9375 97.0625 C-73.40441312 92.24697053 -73.40441312 92.24697053 -75.4375 88.0625 C-79.18524748 86.56340101 -82.17677781 86.92327951 -85.9375 88.0625 C-95.86231283 92.40959998 -103.37933714 100.01702107 -107.9375 109.8125 C-110.47034789 116.49712947 -110.72434676 122.957392 -110.9375 130.0625 C-116.8775 130.0625 -122.8175 130.0625 -128.9375 130.0625 C-126.61336557 96.94358438 -106.26498246 64.76418635 -88.61523438 37.67529297 C-87.14392558 35.3839736 -85.74115951 33.06846352 -84.359375 30.72265625 C-78.2689998 20.75017951 -70.6585171 16.92493328 -59.9375 13.0625 C-59.01533691 12.71993164 -58.09317383 12.37736328 -57.14306641 12.02441406 C-43.64108046 7.06193461 -30.13670759 3.35820071 -15.9375 1.0625 C-14.7825 0.8665625 -13.6275 0.670625 -12.4375 0.46875 C-8.26649185 -0.01538487 -4.1934277 -0.04671342 0 0 Z " fill="#FCDD7B" transform="translate(428.9375,71.9375)"/>
<path d="M0 0 C1.45936038 -0.00668677 1.45936038 -0.00668677 2.94820279 -0.01350862 C4.01958188 -0.01332426 5.09096097 -0.01313989 6.1948061 -0.01294994 C7.33103596 -0.01662663 8.46726581 -0.02030332 9.63792688 -0.02409142 C13.46559168 -0.03515146 17.29322937 -0.03897604 21.12090778 -0.04278088 C23.85710604 -0.04851058 26.59330021 -0.05567742 29.32949543 -0.0626936 C37.55526948 -0.08245752 45.78104476 -0.09252423 54.00683662 -0.10142139 C57.88051192 -0.1058045 61.75418585 -0.11117126 65.62786007 -0.11641026 C78.50493778 -0.13342264 91.38201464 -0.14791674 104.25910187 -0.155159 C107.60089526 -0.15706889 110.94268864 -0.15898922 114.284482 -0.16094494 C115.5303618 -0.16167055 115.5303618 -0.16167055 116.80141089 -0.16241082 C130.25593304 -0.17071086 143.71036628 -0.19604728 157.1648496 -0.22852562 C170.97825658 -0.26159851 184.79161838 -0.27960797 198.60506517 -0.28280324 C206.36081601 -0.28496815 214.11643721 -0.29371395 221.87214947 -0.31926441 C228.47742846 -0.3409746 235.08254631 -0.34902032 241.68785693 -0.33929763 C245.05708802 -0.33475365 248.42571714 -0.33882697 251.79494762 -0.35605907 C255.45097595 -0.37371218 259.10616044 -0.36670302 262.76218891 -0.35352612 C264.35252714 -0.36997998 264.35252714 -0.36997998 265.97499341 -0.38676625 C273.47096238 -0.32152726 278.92009649 1.11737181 284.57330036 6.16937733 C285.12115192 6.83840076 285.66900349 7.5074242 286.23345661 8.19672108 C286.79935505 8.86832264 287.36525349 9.5399242 287.94830036 10.23187733 C291.11965769 14.70854695 290.84967007 19.87784263 290.29595661 25.13422108 C288.50118533 31.06209423 285.315582 34.6512157 280.29595661 38.13422108 C276.83541122 39.75795416 274.11347298 40.38589541 270.30175877 40.39707661 C269.31503626 40.4047589 268.32831376 40.41244119 267.31169057 40.42035627 C265.69687437 40.41775683 265.69687437 40.41775683 264.04943562 40.41510487 C262.89995182 40.42104711 261.75046802 40.42698936 260.56615138 40.43311167 C257.37954514 40.44745338 254.19307042 40.4528288 251.00643682 40.4543066 C247.56798649 40.4580139 244.12958263 40.47311163 240.69115925 40.48657703 C233.17456831 40.51371899 225.65799874 40.52578909 218.14136696 40.53459835 C213.44647044 40.5401271 208.75158213 40.54860249 204.05669117 40.5576067 C191.05343487 40.58198827 178.05018514 40.60258799 165.04690647 40.60935688 C164.21497976 40.60979601 163.38305305 40.61023514 162.52591644 40.61068758 C161.69202074 40.61112414 160.85812505 40.61156069 159.99895978 40.61201048 C158.30922174 40.61289741 156.61948371 40.61379053 154.92974567 40.61468983 C154.09158061 40.61513269 153.25341555 40.61557555 152.38985154 40.61603183 C138.80997822 40.62392711 125.23031958 40.65883457 111.65052918 40.70540887 C97.70257581 40.75285909 83.75473012 40.77776161 69.80669475 40.78009272 C61.9776612 40.7819249 54.14890744 40.7933957 46.31995106 40.82973194 C39.65320517 40.86056547 32.98682555 40.87075675 26.3200219 40.85425574 C22.92019873 40.84645338 19.52111277 40.84824594 16.12138081 40.87637043 C12.43042417 40.90176094 8.74135567 40.8900853 5.05041218 40.86920643 C3.44898031 40.89337564 3.44898031 40.89337564 1.81519628 40.91803312 C-5.51825226 40.82110465 -10.16518682 38.97948383 -15.70404339 34.13422108 C-20.3026138 28.75052889 -20.42722574 23.49634949 -20.21966839 16.52093983 C-19.33127041 10.6857804 -16.53362641 7.44810072 -12.07513714 3.80218983 C-8.11064494 0.99028183 -4.78205642 0.01015729 0 0 Z " fill="#9CC5FA" transform="translate(206.7040433883667,216.86577892303467)"/>
<path d="M0 0 C2.56616632 3.84924948 2.55097676 6.4349304 3 11 C3.9075 10.9175 4.815 10.835 5.75 10.75 C9 11 9 11 10.99609375 12.51171875 C13.62925426 15.78135471 14.85822083 19.15656247 16.3125 23.0625 C26.45418109 48.8615133 45.59658589 65.41066786 70.05712891 77.07275391 C72.1602287 78.07647004 74.26113708 79.08355573 76.35546875 80.10546875 C77.33036255 80.57762817 77.33036255 80.57762817 78.32495117 81.05932617 C80 82 80 82 82 84 C82.125 87.125 82.125 87.125 82 90 C85.63 90.66 89.26 91.32 93 92 C88.83334387 96.71013301 83.59640443 101.29708916 77.30343628 102.52703857 C74.31877286 102.68996569 71.39002821 102.67617061 68.40234375 102.5859375 C67.32747208 102.57744781 66.2526004 102.56895813 65.14515686 102.56021118 C61.74154694 102.526859 58.34038313 102.45161004 54.9375 102.375 C52.61787297 102.34487708 50.29820847 102.31750538 47.97851562 102.29296875 C42.31818819 102.22712787 36.6592689 102.12696324 31 102 C31.21221191 101.46093018 31.42442383 100.92186035 31.64306641 100.36645508 C31.91812012 99.65384521 32.19317383 98.94123535 32.4765625 98.20703125 C32.75064941 97.50296143 33.02473633 96.7988916 33.30712891 96.07348633 C34.25465222 93.23792766 34.41239692 90.95551126 34 88 C33.06402685 85.98048938 33.06402685 85.98048938 31 85 C27.5 84.41666667 27.5 84.41666667 24 85 C22.04435069 86.73835494 21.22254809 88.53039411 20.11328125 90.87109375 C19.78714844 91.55300781 19.46101563 92.23492187 19.125 92.9375 C18.83882813 93.58589844 18.55265625 94.23429687 18.2578125 94.90234375 C16.35495912 98.07573588 15.07071748 99.79742363 12 102 C7.73600372 102.64436262 3.55108999 102.51530552 -0.75 102.375 C-2.49216797 102.35373047 -2.49216797 102.35373047 -4.26953125 102.33203125 C-12.81794085 102.18205915 -12.81794085 102.18205915 -14 101 C-14.98268716 93.13850272 -13.86305315 87.29119027 -9 81 C-4.9408443 76.57823982 -0.10182353 73.74654825 5.1796875 70.98046875 C6.96384896 70.13189282 6.96384896 70.13189282 8 69 C8.53308688 64.18447053 8.53308688 64.18447053 6.5 60 C2.75225252 58.50090101 -0.23927781 58.86077951 -4 60 C-13.92481283 64.34709998 -21.44183714 71.95452107 -26 81.75 C-28.53284789 88.43462947 -28.78684676 94.894892 -29 102 C-34.94 102 -40.88 102 -47 102 C-44.46237709 65.83887349 -20.85061605 28.48661017 0 0 Z " fill="#B0E19C" transform="translate(347,100)"/>
<path d="M0 0 C0.97784051 -0.00199105 1.95568102 -0.0039821 2.96315306 -0.00603348 C4.57840714 -0.00166422 4.57840714 -0.00166422 6.22629261 0.00279331 C7.36816699 0.00193889 8.51004138 0.00108446 9.68651801 0.00020415 C12.86079417 -0.00116086 16.03502976 0.00197463 19.20930111 0.00698221 C22.63054824 0.01129264 26.05179341 0.00983986 29.47304249 0.00907993 C35.40218716 0.00855508 41.33132085 0.0116979 47.26046276 0.01731777 C55.83305147 0.02543793 64.40563486 0.02804852 72.978227 0.02930576 C86.88601722 0.03149547 100.79380159 0.03815336 114.70158863 0.04760838 C128.21330708 0.05678459 141.72502394 0.0638644 155.23674488 0.06811619 C156.06932848 0.06837891 156.90191207 0.06864164 157.75972547 0.06891232 C161.93646944 0.07021734 166.11321342 0.07148105 170.2899574 0.07272422 C204.95117915 0.0830943 239.61239409 0.10071042 274.27361012 0.12304783 C274.27361012 0.45304783 274.27361012 0.78304783 274.27361012 1.12304783 C273.22685769 1.12174901 272.18010527 1.12045019 271.10163307 1.11911201 C245.64691864 1.08912539 220.19246166 1.09922878 194.73777962 1.15151405 C182.42811285 1.17586796 170.11869248 1.18713358 157.80901051 1.16772556 C147.08146879 1.15084507 136.35427163 1.15838093 125.62677544 1.19539541 C119.9450648 1.21414285 114.26393708 1.22055564 108.58222866 1.19774151 C103.23611236 1.17666036 97.89106529 1.18818445 92.54504299 1.22489262 C90.58144567 1.23259639 88.61775971 1.22831081 86.65422153 1.21123409 C83.97470514 1.1897127 81.29884246 1.21109686 78.6195116 1.24330235 C77.84032236 1.2268034 77.06113311 1.21030446 76.25833207 1.19330555 C73.23275138 1.26645318 70.94381919 1.48784532 68.69501817 3.61918628 C64.1837306 9.73149297 62.35810438 16.53139255 63.27361012 24.12304783 C64.35743561 28.703595 65.99081624 32.70274532 68.3390398 36.77124119 C68.97744801 37.87733738 69.61585621 38.98343357 70.27361012 40.12304783 C60.38967628 40.26245035 50.50597869 40.3688721 40.62125969 40.43392086 C36.03065646 40.46515124 31.44072886 40.50747045 26.85051441 40.57568455 C22.41544929 40.64117587 17.98103142 40.67681617 13.54551983 40.69231129 C11.85866521 40.70334459 10.17184355 40.7248903 8.48526669 40.75742817 C-7.45297192 41.0525098 -7.45297192 41.0525098 -14.13045788 35.70791721 C-19.13487342 30.73819109 -20.00291455 27.13281147 -20.35138988 20.18554783 C-20.18032519 14.43655218 -19.31920134 10.94655362 -15.44904613 6.67382908 C-10.72230435 2.41868965 -6.48821135 -0.00291082 0 0 Z " fill="#7EB0F5" transform="translate(206.72638988494873,216.87695217132568)"/>
<path d="M0 0 C1.30127838 -0.00274933 2.60255676 -0.00549866 3.94326782 -0.0083313 C5.3833017 -0.00125341 6.82333465 0.0060162 8.2633667 0.01345825 C9.78117872 0.01402246 11.29899128 0.01370563 12.81680298 0.01257324 C16.93631723 0.01199908 21.05571517 0.02376363 25.17520237 0.03772116 C29.48068719 0.05021796 33.78617464 0.05139819 38.0916748 0.05377197 C46.244323 0.05998983 54.3969176 0.07640479 62.54954219 0.09647095 C71.83119206 0.11882043 81.11284448 0.12982099 90.39451456 0.13986182 C109.48722223 0.16077074 128.57988 0.19595267 147.67254639 0.24050903 C145.80535889 5.95925903 145.80535889 5.95925903 144.61004639 8.49050903 C143.67596923 11.23046868 143.37659055 13.53963657 143.11395264 16.41238403 C142.9874231 17.76734985 142.9874231 17.76734985 142.8583374 19.14968872 C142.79702637 19.83965942 142.73571533 20.52963013 142.67254639 21.24050903 C141.36598083 21.24415466 140.05941528 21.24780029 138.71325684 21.2515564 C126.41165544 21.28846678 114.11030529 21.34619617 101.80889511 21.42441177 C95.48430072 21.4639533 89.15984696 21.49610911 82.83514404 21.51150513 C76.733632 21.52662758 70.6325064 21.56099493 64.53116608 21.60881805 C62.20115769 21.62367738 59.87109413 21.63155264 57.54103851 21.63239288 C54.28204441 21.63475054 51.02412878 21.66173442 47.76531982 21.6946106 C46.31415016 21.68706505 46.31415016 21.68706505 44.83366394 21.67936707 C39.6175691 21.71139603 39.6175691 21.71139603 35.10424805 24.08712769 C33.51703056 26.27053832 33.51703056 26.27053832 32.67254639 29.24050903 C27.72254639 29.24050903 22.77254639 29.24050903 17.67254639 29.24050903 C17.01254639 27.59050903 16.35254639 25.94050903 15.67254639 24.24050903 C12.84647797 22.24548265 10.48791551 22.00048062 7.08270264 22.00222778 C5.78236084 21.97805786 5.78236084 21.97805786 4.45574951 21.95339966 C2.64592499 21.9365097 0.83595358 21.93125018 -0.97393799 21.93777466 C-5.5850648 21.8316537 -7.66753259 21.76087988 -11.39385986 18.82254028 C-14.44974231 14.74185685 -14.76245978 12.37358185 -14.32745361 7.24050903 C-10.55699938 1.18085044 -6.9201581 -0.01127062 0 0 Z " fill="#98C0F4" transform="translate(29.32745361328125,216.75949096679688)"/>
<path d="M0 0 C21.78 0 43.56 0 66 0 C66 17.16 66 34.32 66 52 C46.86 52 27.72 52 8 52 C2.20653442 26.50875146 2.20653442 26.50875146 1.1875 18.6875 C1.06697266 17.86056641 0.94644531 17.03363281 0.82226562 16.18164062 C0.05877525 10.63651913 0 5.74423306 0 0 Z " fill="#F0F3F5" transform="translate(268,327)"/>
<path d="M0 0 C21.45 0 42.9 0 65 0 C65 37 65 37 58 51 C38.86 51 19.72 51 0 51 C0 34.17 0 17.34 0 0 Z " fill="#EEF1F3" transform="translate(349,328)"/>
<path d="M0 0 C21.78 0 43.56 0 66 0 C66 13.53 66 27.06 66 41 C44.22 41 22.44 41 0 41 C0 27.47 0 13.94 0 0 Z " fill="#EAEDEF" transform="translate(349,272)"/>
<path d="M0 0 C21.78 0 43.56 0 66 0 C66 13.53 66 27.06 66 41 C44.22 41 22.44 41 0 41 C0 27.47 0 13.94 0 0 Z " fill="#F0F3F5" transform="translate(268,272)"/>
<path d="M0 0 C6.97989838 3.20927042 11.80329358 7.88576479 14.88671875 14.93359375 C17.23134511 22.33692911 16.7233156 28.30033012 13.51171875 35.37109375 C10.58636722 40.76427738 7.3370528 44.12424584 2.01171875 47.12109375 C1.42132813 47.49234375 0.8309375 47.86359375 0.22265625 48.24609375 C-5.47189292 50.49976692 -13.59729141 49.95304467 -19.50390625 48.50390625 C-26.82450299 45.24710534 -31.96303718 38.34608841 -34.98828125 31.12109375 C-36.00248223 23.24504651 -35.94167392 15.59972463 -30.98828125 9.12109375 C-22.76552556 -0.71435737 -12.57044659 -3.69719017 0 0 Z " fill="#040402" transform="translate(414.98828125,94.87890625)"/>
<path d="M0 0 C1.051875 0.5775 2.10375 1.155 3.1875 1.75 C0.37058896 4.1032798 -2.48080076 5.49332699 -5.83642578 6.94018555 C-17.02123159 12.03884734 -22.42953896 20.60926524 -28.8125 30.75 C-29.35648437 31.59353027 -29.90046875 32.43706055 -30.4609375 33.30615234 C-41.37956127 50.23834913 -51.43508898 67.50866873 -58.99707031 86.21289062 C-59.33963867 87.05400391 -59.68220703 87.89511719 -60.03515625 88.76171875 C-60.33172119 89.50897217 -60.62828613 90.25622559 -60.93383789 91.02612305 C-61.8125 92.75 -61.8125 92.75 -63.8125 93.75 C-64.76816439 71.80206455 -61.82614399 51.27778719 -53.8125 30.75 C-53.56806152 30.12254883 -53.32362305 29.49509766 -53.07177734 28.84863281 C-42.58812892 2.38645816 -42.58812892 2.38645816 -33.8125 -5.25 C-22.51234346 -9.01671885 -10.25420727 -5.05489091 0 0 Z " fill="#D9616C" transform="translate(357.8125,70.25)"/>
<path d="M0 0 C12.87 0 25.74 0 39 0 C37.81311043 16.61645394 34.49863924 30.80184902 28 46 C27.4445752 47.32837891 27.4445752 47.32837891 26.87792969 48.68359375 C25 51 25 51 21.63012695 51.56762695 C20.24925863 51.56683736 18.86822913 51.53869745 17.48828125 51.48828125 C16.76005661 51.48120651 16.03183197 51.47413177 15.28153992 51.46684265 C12.95747763 51.43887081 10.6358327 51.3761365 8.3125 51.3125 C6.73636295 51.28742031 5.16018809 51.26460655 3.58398438 51.24414062 C-0.27827398 51.18903626 -4.13872732 51.10275228 -8 51 C-7.86424561 50.37883301 -7.72849121 49.75766602 -7.58862305 49.11767578 C-4.06238475 32.78326851 -1.72611271 16.62519087 0 0 Z " fill="#EDF0F2" transform="translate(430,328)"/>
<path d="M0 0 C12.87 0 25.74 0 39 0 C39.495 8.415 39.495 8.415 40 17 C40.57553543 21.1832207 41.18637469 25.2909532 41.9375 29.4375 C42.10701172 30.42169922 42.27652344 31.40589844 42.45117188 32.41992188 C43.53349275 38.63812282 44.7613926 44.80696302 46 51 C35.11 51 24.22 51 13 51 C4.98662207 33.15889443 4.98662207 33.15889443 3 25 C2.72285156 23.90042969 2.44570312 22.80085938 2.16015625 21.66796875 C0.34780158 13.9591975 0 8.26233776 0 0 Z " fill="#DCE6EB" transform="translate(215,328)"/>
<path d="M0 0 C17.16 0 34.32 0 52 0 C45.1278538 20.61643859 31.51564858 38.6293623 12.58984375 49.40625 C9 51 9 51 0 53 C0 35.51 0 18.02 0 0 Z " fill="#EEF1F3" transform="translate(349,394)"/>
<path d="M0 0 C17.16 0 34.32 0 52 0 C52 17.49 52 34.98 52 53 C34.11101806 49.02467068 21.33349297 37.74155699 11.33203125 22.78125 C6.84207415 15.71730079 2.64946317 7.9483895 0 0 Z " fill="#EFF2F4" transform="translate(282,394)"/>
<path d="M0 0 C0.85688478 0.48677625 1.71376957 0.97355249 2.59662056 1.47507954 C6.22243663 3.09966511 8.51163955 3.38232795 12.45407104 3.39872742 C13.73285629 3.41126556 15.01164154 3.42380371 16.32917786 3.4367218 C17.73361232 3.43554792 19.13804656 3.43408885 20.54248047 3.43237305 C22.03103955 3.44139545 23.51959119 3.45172385 25.00813293 3.46325684 C29.03866055 3.49079694 33.06904708 3.50010726 37.09965658 3.50611091 C41.31577217 3.51550238 45.53178269 3.5417064 49.74783325 3.56611633 C57.72683 3.60976377 65.70580634 3.63832151 73.6848861 3.66143972 C82.77076536 3.6885008 91.85653883 3.73241176 100.94234252 3.77772844 C119.62817248 3.87054956 138.31403042 3.94224189 157 4 C157 7.3 157 10.6 157 14 C155.69343445 14.00364563 154.3868689 14.00729126 153.04071045 14.01104736 C140.73910905 14.04795774 128.4377589 14.10568714 116.13634872 14.18390274 C109.81175433 14.22344427 103.48730057 14.25560008 97.16259766 14.27099609 C91.06108561 14.28611855 84.95996002 14.3204859 78.85861969 14.36830902 C76.5286113 14.38316835 74.19854775 14.39104361 71.86849213 14.39188385 C68.60949802 14.39424151 65.35158239 14.42122539 62.09277344 14.45410156 C60.64160378 14.44655602 60.64160378 14.44655602 59.16111755 14.43885803 C53.94502271 14.470887 53.94502271 14.470887 49.43170166 16.84661865 C47.84448418 19.03002929 47.84448418 19.03002929 47 22 C42.05 22 37.1 22 32 22 C31.34 20.35 30.68 18.7 30 17 C27.17393159 15.00497362 24.81536913 14.75997159 21.41015625 14.76171875 C20.10981445 14.73754883 20.10981445 14.73754883 18.78320312 14.71289062 C16.97337861 14.69600066 15.16340719 14.69074114 13.35351562 14.69726562 C8.74238882 14.59114467 6.65992102 14.52037084 2.93359375 11.58203125 C-0.14269775 7.47409452 -0.09476121 5.11710559 0 0 Z " fill="#7FB3F9" transform="translate(15,224)"/>
<path d="M0 0 C4.21697818 3.2016281 5.52984046 7.27459066 7.3125 12.0625 C17.45418109 37.8615133 36.59658589 54.41066786 61.05712891 66.07275391 C63.1602287 67.07647004 65.26113708 68.08355573 67.35546875 69.10546875 C68.33036255 69.57762817 68.33036255 69.57762817 69.32495117 70.05932617 C71 71 71 71 73 73 C73.42312436 76.80811922 73.49220163 79.14399717 71.5625 82.5 C68.48341137 84.30239334 66.37244229 84.37241636 62.87890625 83.796875 C51.55557977 80.66260281 41.39318513 74.95741649 32 68 C31.16210938 67.38511719 30.32421875 66.77023438 29.4609375 66.13671875 C11.67337158 52.49958488 -8.32256374 29.88952653 -11.4375 6.75 C-11 4 -11 4 -9.4375 1.625 C-6.06489221 -0.62340519 -3.97487617 -0.56783945 0 0 Z " fill="#030302" transform="translate(356,111)"/>
<path d="M0 0 C12.87 0 25.74 0 39 0 C39 12.87 39 25.74 39 39 C26.13 39 13.26 39 0 39 C0 26.13 0 13.26 0 0 Z " fill="#F0F3F5" transform="translate(430,273)"/>
<path d="M0 0 C12.87 0 25.74 0 39 0 C39 12.87 39 25.74 39 39 C26.13 39 13.26 39 0 39 C0 26.13 0 13.26 0 0 Z " fill="#E0EAEF" transform="translate(214,273)"/>
<path d="M0 0 C0.99 0.33 1.98 0.66 3 1 C2.48594831 5.96916636 1.76615118 10.29026351 0 15 C-1.0725 15.04125 -2.145 15.0825 -3.25 15.125 C-7.139492 15.62161159 -7.139492 15.62161159 -9.05078125 18.59765625 C-11.04156325 22.07254828 -12.55141081 25.5709213 -13.9375 29.3125 C-20.2979155 45.76477475 -20.2979155 45.76477475 -26 49 C-28.7265625 49.109375 -28.7265625 49.109375 -31.625 48.75 C-32.58664062 48.64171875 -33.54828125 48.5334375 -34.5390625 48.421875 C-37 48 -37 48 -39 47 C-39.20625 45.906875 -39.4125 44.81375 -39.625 43.6875 C-40.6704144 39.73732301 -40.6704144 39.73732301 -44.3125 37.9375 C-45.86947116 37.27844936 -47.43301661 36.63487794 -49 36 C-51.33663735 34.9238116 -53.66983091 33.84012273 -56 32.75 C-57.99942588 31.83208175 -59.99923056 30.91498602 -62 30 C-62 29.67 -62 29.34 -62 29 C-60.27716797 28.96132812 -60.27716797 28.96132812 -58.51953125 28.921875 C-38.31407002 28.26902943 -20.64209021 22.14525059 -6.37890625 7.265625 C-4.21365514 4.87405279 -2.08694681 2.45997595 0 0 Z " fill="#EECA6A" transform="translate(468,143)"/>
<path d="M0 0 C3.17001276 2.1747093 5.73260776 4.84879644 8.40234375 7.6015625 C8.95664062 8.16488281 9.5109375 8.72820312 10.08203125 9.30859375 C11.4433886 10.69342278 12.79849234 12.08439454 14.15234375 13.4765625 C13.82651789 14.81710318 13.46439516 16.14881138 13.08984375 17.4765625 C12.89261719 18.2190625 12.69539063 18.9615625 12.4921875 19.7265625 C10.36781419 24.08679228 8.14488453 27.61862775 4.15234375 30.4765625 C-0.18556285 31.45970925 -4.30120209 31.28385762 -8.72265625 31.0390625 C-10.45128906 30.99749023 -10.45128906 30.99749023 -12.21484375 30.95507812 C-20.62194861 30.70227014 -20.62194861 30.70227014 -21.84765625 29.4765625 C-22.83016058 21.61652789 -21.71192283 15.76571525 -16.84765625 9.4765625 C-13.2157747 5.52733207 -5.75886278 -1.63147487 0 0 Z " fill="#FCDE7C" transform="translate(354.84765625,171.5234375)"/>
<path d="M0 0 C9.24 0 18.48 0 28 0 C18.73676171 18.52647659 -2.36333823 33.93633091 -21 42 C-21.66 41.67 -22.32 41.34 -23 41 C-22.3709375 40.16339844 -21.741875 39.32679688 -21.09375 38.46484375 C-12.07817528 26.28240015 -5.86809283 14.08342279 0 0 Z " fill="#ECEEF0" transform="translate(417,394)"/>
<path d="M0 0 C9.24 0 18.48 0 28 0 C28.969375 2.145 29.93875 4.29 30.9375 6.5 C36.13046329 17.72836555 41.7266849 28.93293147 49.78515625 38.3984375 C51 40 51 40 51 42 C35.57760642 37.48900892 22.80856936 25.90974692 11.625 14.875 C11.04161865 14.30112549 10.4582373 13.72725098 9.85717773 13.13598633 C0 3.20205479 0 3.20205479 0 0 Z " fill="#DBE5EA" transform="translate(238,394)"/>
<path d="M0 0 C0.70382812 0.42410156 1.40765625 0.84820312 2.1328125 1.28515625 C19.06595084 12.39933762 19.06595084 12.39933762 38 16 C38.556875 15.29875 39.11375 14.5975 39.6875 13.875 C42 12 42 12 44.69140625 12.1796875 C47.48929288 12.70138794 50.24257904 13.29638224 53 14 C48.92237863 18.60948503 43.63635465 23.23415757 37.49752808 24.52703857 C34.81069711 24.68889393 32.18614733 24.67688213 29.49609375 24.5859375 C28.05025658 24.57320297 28.05025658 24.57320297 26.57521057 24.56021118 C23.52811905 24.52690389 20.48377723 24.45166926 17.4375 24.375 C15.35876246 24.34487102 13.279983 24.31750039 11.20117188 24.29296875 C6.13307203 24.22718713 1.06700045 24.12382544 -4 24 C-3.78937424 23.39857681 -3.57874847 22.79715363 -3.36174011 22.17750549 C-3.08792007 21.3797319 -2.81410004 20.58195831 -2.53198242 19.76000977 C-2.25948166 18.97296158 -1.9869809 18.18591339 -1.70622253 17.37501526 C-0.65741429 13.84788966 -0.47826913 10.61757476 -0.3125 6.9375 C-0.21388672 4.97103516 -0.21388672 4.97103516 -0.11328125 2.96484375 C-0.05720703 1.49724609 -0.05720703 1.49724609 0 0 Z " fill="#93D3A2" transform="translate(387,178)"/>
<path d="M0 0 C0.51046875 0.32742187 1.0209375 0.65484375 1.546875 0.9921875 C4.86772037 2.35648384 7.67372568 2.1912273 11.25 2.125 C13.14492188 2.09792969 13.14492188 2.09792969 15.078125 2.0703125 C16.04234375 2.04710938 17.0065625 2.02390625 18 2 C16.55322004 6.10058776 14.51257553 9.7250263 12.36889648 13.48706055 C7.19206096 22.57543988 2.73572791 31.75936844 -1.18188477 41.45898438 C-1.52533936 42.30138672 -1.86879395 43.14378906 -2.22265625 44.01171875 C-2.51922119 44.75897217 -2.81578613 45.50622559 -3.12133789 46.27612305 C-4 48 -4 48 -6 49 C-6.71693149 32.53484118 -5.700493 16.89347931 -1 1 C-0.67 0.67 -0.34 0.34 0 0 Z " fill="#D14750" transform="translate(300,115)"/>
<path d="M0 0 C21.78 0 43.56 0 66 0 C66 0.33 66 0.66 66 1 C46.53 1 27.06 1 7 1 C8.67610103 26.07874367 8.67610103 26.07874367 13 51 C30.49 51 47.98 51 66 51 C66 51.33 66 51.66 66 52 C46.86 52 27.72 52 8 52 C2.20653442 26.50875146 2.20653442 26.50875146 1.1875 18.6875 C1.06697266 17.86056641 0.94644531 17.03363281 0.82226562 16.18164062 C0.05877525 10.63651913 0 5.74423306 0 0 Z " fill="#BCC3C7" transform="translate(268,327)"/>
<path d="M0 0 C21.78 0 43.56 0 66 0 C66 0.33 66 0.66 66 1 C46.2 1 26.4 1 6 1 C6 13.87 6 26.74 6 40 C25.8 40 45.6 40 66 40 C66 40.33 66 40.66 66 41 C44.22 41 22.44 41 0 41 C0 27.47 0 13.94 0 0 Z " fill="#B5BCBF" transform="translate(268,272)"/>
<path d="M0 0 C2.75569447 2.18159145 4.43588747 3.87177494 6 7 C6.4136968 11.65408901 5.81070393 14.25239476 3 18 C-1.01858595 20.6790573 -4.27641721 20.69610694 -9 20 C-11.87029869 18.20606332 -13.49131638 17.01736724 -15 14 C-15.5811138 6.91041162 -15.5811138 6.91041162 -13.125 3.0625 C-9.24699241 -0.70144855 -5.21240222 -0.82822281 0 0 Z " fill="#EBEEF0" transform="translate(410,109)"/>
<path d="M0 0 C0.99 0.33 1.98 0.66 3 1 C1.3451185 7.80865533 -1.21438156 13.72912024 -7 18 C-9.97651278 18.6608691 -11.9233448 18.43181126 -15 18 C-14.34 17.360625 -13.68 16.72125 -13 16.0625 C-10.53068161 13.5861062 -8.16040961 11.02918164 -5.8125 8.4375 C-5.13832031 7.69371094 -4.46414063 6.94992188 -3.76953125 6.18359375 C-2.14601438 4.18018109 -1.03837688 2.34832925 0 0 Z " fill="#ECC969" transform="translate(366,184)"/>
<path d="M0 0 C1.32 0 2.64 0 4 0 C4.6987693 1.76641683 5.38366583 3.53832664 6.0625 5.3125 C6.44535156 6.29863281 6.82820313 7.28476562 7.22265625 8.30078125 C8 11 8 11 7 14 C4.60926851 11.06810006 3.15892693 8.27856712 1.8125 4.75 C1.46832031 3.85796875 1.12414062 2.9659375 0.76953125 2.046875 C0.51558594 1.37140625 0.26164062 0.6959375 0 0 Z " fill="#D3DCE0" transform="translate(282,394)"/>
</svg>
