<?xml version="1.0" encoding="UTF-8"?>
<svg version="1.1" xmlns="http://www.w3.org/2000/svg" width="512" height="512">
<path d="M0 0 C3.48209317 0.00478262 6.96413382 -0.00782269 10.44620943 -0.01801741 C17.24734619 -0.03511307 24.04839018 -0.03606464 30.84954283 -0.03080451 C36.38484915 -0.02674369 41.92012832 -0.02822891 47.45543337 -0.03355277 C48.24679511 -0.03430119 49.03815685 -0.03504961 49.85349925 -0.03582071 C51.46177608 -0.03735238 53.07005291 -0.03889073 54.67832974 -0.04043568 C69.72213716 -0.05412771 84.76589241 -0.04874665 99.80969861 -0.03725047 C113.53012424 -0.02732494 127.25041487 -0.04025286 140.97081968 -0.06418466 C155.10563188 -0.08865088 169.24038141 -0.09816492 183.37521434 -0.09153193 C191.29210524 -0.08805592 199.2088925 -0.09016367 207.12576723 -0.10778296 C213.86618255 -0.12259964 220.60642124 -0.12301839 227.34683344 -0.10571205 C230.77628414 -0.09727601 234.20542062 -0.09486733 237.63485384 -0.1103636 C256.2259315 -0.17678101 274.3338109 0.71495553 291.83774996 7.59433305 C292.60812593 7.88912553 293.37850191 8.18391801 294.17222261 8.4876436 C325.37503496 20.86426764 350.65048267 45.68840576 364.20884371 76.31210649 C365.74160768 79.96519395 367.11248745 83.66083623 368.40024996 87.40683305 C368.63075045 88.06925004 368.86125093 88.73166704 369.09873629 89.41415727 C374.33453998 105.60034731 374.53369363 121.45944698 374.49458301 138.31908309 C374.48980039 141.80117627 374.5024057 145.28321691 374.51260042 148.76529253 C374.52969608 155.56642928 374.53064765 162.36747328 374.52538752 169.16862592 C374.5213267 174.70393225 374.52281192 180.23921141 374.52813578 185.77451646 C374.5288842 186.5658782 374.52963262 187.35723994 374.53040372 188.17258234 C374.53193539 189.78085918 374.53347374 191.38913601 374.53501869 192.99741283 C374.54871072 208.04122025 374.54332966 223.08497551 374.53183348 238.12878171 C374.52190795 251.84920733 374.53483587 265.56949796 374.55876767 279.28990278 C374.58323389 293.42471498 374.59274793 307.55946451 374.58611494 321.69429743 C374.58263893 329.61118834 374.58474668 337.52797559 374.60236597 345.44485033 C374.61718265 352.18526564 374.6176014 358.92550433 374.60029506 365.66591653 C374.59185902 369.09536723 374.58945034 372.52450372 374.60494661 375.95393693 C374.67136403 394.5450146 373.77962748 412.652894 366.90024996 430.15683305 C366.60545748 430.92720903 366.310665 431.69758501 366.00693941 432.49130571 C356.13486544 457.37987552 337.96730112 479.44357757 315.08774996 493.40683305 C314.01524996 494.09003618 312.94274996 494.7732393 311.83774996 495.47714555 C305.45004956 499.3659539 298.94823783 502.48484403 291.96274996 505.15683305 C291.27874117 505.42640825 290.59473238 505.69598344 289.88999605 505.97372758 C271.57496724 512.61625088 252.95550458 512.98750368 233.69712496 512.92441118 C230.88921006 512.92764626 228.08132106 512.93682879 225.2734189 512.94565141 C218.48616735 512.96329401 211.69909425 512.95966107 204.91183615 512.94800085 C199.38806192 512.93890996 193.86433716 512.93776673 188.34055758 512.94209611 C187.54973779 512.94270905 186.75891801 512.94332198 185.944134 512.94395348 C184.33682329 512.94523258 182.7295126 512.94652944 181.12220192 512.94784385 C166.10506253 512.95920786 151.08802133 512.94620193 136.07089806 512.92464238 C123.22881 512.90677521 110.38686666 512.9098805 97.54478121 512.92831743 C82.57569806 512.94979842 67.60670065 512.95810962 52.63760424 512.94586837 C51.03671695 512.94459438 49.43582965 512.9433369 47.83494234 512.94209611 C47.04759258 512.94147901 46.26024282 512.94086191 45.44903398 512.94022611 C39.94182532 512.93679481 34.43467175 512.94255319 28.92747164 512.95201433 C22.20178323 512.96331652 15.47628117 512.96002387 8.75061369 512.93889135 C5.32917146 512.92848977 1.90829014 512.92627884 -1.51318693 512.93748796 C-22.88729031 513.00100847 -42.22548579 511.05828192 -61.91225004 502.40683305 C-62.56644926 502.12356157 -63.22064848 501.84029008 -63.89467192 501.54843462 C-93.98974488 488.26256094 -117.69643593 462.6852702 -129.78334379 432.21054399 C-130.63388989 429.95385314 -131.44074075 427.68745259 -132.22475004 425.40683305 C-132.57050077 424.41320756 -132.57050077 424.41320756 -132.92323637 423.39950883 C-138.15904006 407.2133188 -138.35819372 391.35421913 -138.31908309 374.49458301 C-138.31430048 371.01248984 -138.32690578 367.53044919 -138.33710051 364.04837358 C-138.35419617 357.24723682 -138.35514773 350.44619283 -138.3498876 343.64504018 C-138.34582678 338.10973386 -138.347312 332.5744547 -138.35263586 327.03914964 C-138.35338428 326.2477879 -138.3541327 325.45642616 -138.35490381 324.64108376 C-138.35643548 323.03280693 -138.35797382 321.4245301 -138.35951877 319.81625327 C-138.3732108 304.77244585 -138.36782974 289.7286906 -138.35633356 274.6848844 C-138.34640804 260.96445877 -138.35933595 247.24416814 -138.38326775 233.52376333 C-138.40773398 219.38895113 -138.41724801 205.2542016 -138.41061503 191.11936867 C-138.40713902 183.20247777 -138.40924677 175.28569051 -138.42686605 167.36881578 C-138.44168273 160.62840046 -138.44210148 153.88816178 -138.42479514 147.14774957 C-138.41635911 143.71829887 -138.41395042 140.28916239 -138.4294467 136.85972917 C-138.49586411 118.26865151 -137.60412757 100.16077211 -130.72475004 82.65683305 C-130.42995756 81.88645708 -130.13516508 81.1160811 -129.8314395 80.3223604 C-117.45481545 49.11954805 -92.63067734 23.84410034 -62.0069766 10.2857393 C-58.35388915 8.75297533 -54.65824686 7.38209556 -50.91225004 6.09433305 C-49.91862455 5.74858232 -49.91862455 5.74858232 -48.90492582 5.39584672 C-32.71873579 0.16004303 -16.85963612 -0.03911062 0 0 Z " fill="#454545" transform="translate(137.91225004196167,-0.40683305263519287)"/>
<path d="M0 0 C33.77632858 0.66703701 63.44514317 18.28360093 86.34765625 41.9765625 C98.29287523 54.79749412 106.64413789 70.51119373 112.3125 87 C112.54300049 87.66241699 112.77350098 88.32483398 113.01098633 89.00732422 C118.24679002 105.19351425 118.44594367 121.05261392 118.40683305 137.91225004 C118.40205043 141.39434321 118.41465574 144.87638386 118.42485046 148.35845947 C118.44194613 155.15959623 118.44289769 161.96064023 118.43763756 168.76179287 C118.43357674 174.2970992 118.43506196 179.83237836 118.44038582 185.36768341 C118.44113424 186.15904515 118.44188266 186.95040689 118.44265376 187.76574929 C118.44418543 189.37402613 118.44572378 190.98230296 118.44726873 192.59057978 C118.46096076 207.6343872 118.4555797 222.67814245 118.44408352 237.72194865 C118.43415799 251.44237428 118.44708591 265.16266491 118.47101771 278.88306972 C118.49548393 293.01788193 118.50499797 307.15263146 118.49836498 321.28746438 C118.49488898 329.20435529 118.49699672 337.12114254 118.51461601 345.03801727 C118.52943269 351.77843259 118.52985144 358.51867128 118.5125451 365.25908348 C118.50410906 368.68853418 118.50170038 372.11767066 118.51719666 375.54710388 C118.58361407 394.13818155 117.69187752 412.24606094 110.8125 429.75 C110.51770752 430.52037598 110.22291504 431.29075195 109.91918945 432.08447266 C100.04711548 456.97304247 81.87955116 479.03674451 59 493 C57.9275 493.68320312 56.855 494.36640625 55.75 495.0703125 C27.257516 512.41643123 -7.33445605 516.30945306 -39.69140625 509.1875 C-64.68346501 502.48571888 -86.14246412 489.77330695 -104 471 C-104.64195312 470.35289062 -105.28390625 469.70578125 -105.9453125 469.0390625 C-128.36134015 445.52957008 -138.67955592 412.72836901 -138.203125 380.77734375 C-138.18967041 379.86637939 -138.17621582 378.95541504 -138.16235352 378.0168457 C-138 375 -138 375 -137.47631836 371.58276367 C-135.74167855 358.31118906 -140.30941858 347.68791636 -145.0625 335.4375 C-145.81861962 333.43271862 -146.57188551 331.42685858 -147.32226562 329.41992188 C-148.4980697 326.2788839 -149.6769914 323.13927861 -150.86807251 320.0039978 C-154.91626473 309.33196745 -158.77392471 298.59347139 -162.62109375 287.84765625 C-162.93906481 286.95957212 -163.25703587 286.071488 -163.58464241 285.15649223 C-165.3924697 280.1052931 -167.19742006 275.05307395 -169 270 C-169.00146656 270.77360461 -169.00293312 271.54720922 -169.00444412 272.3442564 C-169.04148979 291.16455014 -169.10047467 309.98465792 -169.18390274 328.8048048 C-169.22371842 337.90608709 -169.25609804 347.00728259 -169.27099609 356.10864258 C-169.28399953 364.04105487 -169.31093062 371.97327642 -169.35461307 379.9055813 C-169.37725745 384.10603234 -169.39290891 388.30624786 -169.39188385 392.50676537 C-169.39113898 396.46067681 -169.40901938 400.41406703 -169.44116783 404.36784363 C-169.44968459 405.81863338 -169.45140469 407.26948148 -169.44580269 408.72028542 C-169.43916918 410.70227509 -169.45943255 412.68430024 -169.48101807 414.66618347 C-169.48654882 416.32955891 -169.48654882 416.32955891 -169.49219131 418.0265379 C-170.11688194 421.68439952 -171.44706759 423.35669855 -174 426 C-176.91801089 427.45900545 -179.96853243 427.47393332 -183.17578125 427.75390625 C-183.89678513 427.81907944 -184.617789 427.88425262 -185.36064148 427.95140076 C-186.89462167 428.08873343 -188.42879425 428.22393111 -189.96313477 428.35717773 C-192.26584517 428.55842261 -194.56744446 428.76993091 -196.86914062 428.98242188 C-222.84588228 431.31933733 -222.84588228 431.31933733 -229.4140625 425.8984375 C-234.78163632 419.47321367 -234.42709265 413.2065315 -234.38768005 405.20837402 C-234.39306559 403.90482767 -234.39845113 402.60128131 -234.40399987 401.25823355 C-234.41845437 397.64619941 -234.41420984 394.03439346 -234.40683305 390.42234683 C-234.40210373 386.5245288 -234.41460906 382.6267603 -234.42485046 378.72895813 C-234.44204784 371.09561456 -234.44287662 363.46235326 -234.43763756 355.82899535 C-234.43359675 349.62542423 -234.43503835 343.42187745 -234.44038582 337.2183075 C-234.44113424 336.33551254 -234.44188266 335.45271758 -234.44265376 334.54317126 C-234.44418523 332.74981184 -234.44572358 330.95645243 -234.44726873 329.16309303 C-234.46099691 312.34523707 -234.45555362 295.52742763 -234.44408352 278.70957273 C-234.43414847 263.3203951 -234.44709594 247.93133766 -234.47101771 232.54217857 C-234.49539331 216.74211374 -234.50502052 200.94210492 -234.49836498 185.14202166 C-234.49486964 176.27080827 -234.49712574 167.39968735 -234.51461601 158.52848816 C-234.52931866 150.97752708 -234.52999877 143.42672361 -234.5125451 135.87576568 C-234.5040171 132.02282495 -234.5019292 128.17016599 -234.51719666 124.31723976 C-234.53353739 120.14180543 -234.51893284 115.96705444 -234.50120544 111.79162598 C-234.51081045 110.57198324 -234.52041546 109.3523405 -234.53031152 108.09573889 C-234.47484563 101.76912221 -234.33475605 97.76628809 -230 93 C-225.94781661 89.4302194 -223.64007033 87.88115641 -218.27832031 87.83886719 C-217.29679993 87.82925964 -216.31527954 87.8196521 -215.30401611 87.80975342 C-213.70720001 87.8033786 -213.70720001 87.8033786 -212.078125 87.796875 C-210.43901154 87.78832489 -210.43901154 87.78832489 -208.76678467 87.77960205 C-206.45000174 87.77014208 -204.1332053 87.76361413 -201.81640625 87.75976562 C-198.27840516 87.75007778 -194.74098922 87.71907046 -191.203125 87.6875 C-188.95312845 87.68096828 -186.70312775 87.67571847 -184.453125 87.671875 C-182.86845428 87.6533548 -182.86845428 87.6533548 -181.25177002 87.63446045 C-175.78494223 87.65096383 -171.60031852 87.71455251 -167 91 C-162.95784587 95.09929357 -160.79080235 99.15252728 -158.83203125 104.5625 C-158.54391068 105.33005615 -158.2557901 106.0976123 -157.9589386 106.88842773 C-156.95502064 109.586164 -155.97506241 112.29170243 -155 115 C-154.6259906 116.03640625 -154.2519812 117.0728125 -153.86663818 118.140625 C-151.01104025 126.07893976 -148.20036324 134.03292414 -145.39646149 141.98959351 C-143.4550591 147.49484031 -141.50590106 152.99735078 -139.55762482 158.50016785 C-139.06318761 159.89671261 -138.56883855 161.29328858 -138.07457733 162.68989563 C-133.13622871 176.64277738 -128.14421822 190.57598818 -123.125 204.5 C-122.7669931 205.49370605 -122.40898621 206.48741211 -122.04013062 207.51123047 C-118.29395009 217.90721526 -114.53145273 228.29718987 -110.75341797 238.68164062 C-110.20777443 240.18177704 -110.20777443 240.18177704 -109.65110779 241.71221924 C-108.76748992 244.14151033 -107.88378631 246.57077019 -107 249 C-106.99853344 248.23247091 -106.99706688 247.46494183 -106.99555588 246.67415428 C-106.95849844 227.99537745 -106.89949787 209.3167878 -106.81609726 190.6381588 C-106.77629396 181.60528644 -106.74390804 172.57250137 -106.72900391 163.53955078 C-106.71599407 155.66609192 -106.68904655 147.79282501 -106.64538693 139.91947424 C-106.62275699 135.75084908 -106.60709023 131.5824608 -106.60811615 127.41376877 C-106.60886187 123.48858022 -106.59094713 119.5639156 -106.55883217 115.63886261 C-106.55032615 114.19978093 -106.54858806 112.76064053 -106.55419731 111.32154465 C-106.56084698 109.35304172 -106.54053935 107.38450329 -106.51898193 105.41610718 C-106.51345118 103.76517594 -106.51345118 103.76517594 -106.50780869 102.08089256 C-105.68423067 97.08421676 -103.10858935 93.97661442 -99.375 90.6875 C-94.98860946 87.57085409 -91.28125736 87.82251289 -86.046875 87.796875 C-85.15389709 87.79117493 -84.26091919 87.78547485 -83.34088135 87.77960205 C-81.44780667 87.77014514 -79.55471548 87.76361533 -77.66162109 87.75976562 C-74.77542024 87.75008526 -71.88993911 87.71907909 -69.00390625 87.6875 C-67.16406673 87.68096736 -65.32422211 87.67571791 -63.484375 87.671875 C-62.62479187 87.6595282 -61.76520874 87.6471814 -60.87957764 87.63446045 C-55.13521605 87.65564057 -50.73049154 88.45110885 -46.35546875 92.53515625 C-43.36737973 96.44265728 -41.87283421 98.47464627 -41.88647461 103.35791016 C-41.88655014 104.25869293 -41.88662567 105.15947571 -41.88670349 106.08755493 C-41.89186478 107.06155243 -41.89702606 108.03554993 -41.90234375 109.0390625 C-41.90446617 110.53305069 -41.90446617 110.53305069 -41.90663147 112.05722046 C-41.91224064 115.24651053 -41.9247947 118.43573106 -41.9375 121.625 C-41.94251382 123.78385315 -41.94707693 125.94270741 -41.95117188 128.1015625 C-41.96221305 133.4010655 -41.97896012 138.70052778 -42 144 C-36.23787537 143.93052594 -30.47643563 143.84227896 -24.71484375 143.73754883 C-22.75984374 143.70454693 -20.8047541 143.6764403 -18.84960938 143.65356445 C-3.1963771 143.49883682 -3.1963771 143.49883682 12 140 C13.12535156 139.62359375 14.25070312 139.2471875 15.41015625 138.859375 C34.42503448 130.90617114 48.151789 118.08142356 56.3125 98.9375 C56.90247124 97.30131311 57.46474506 95.65489449 58 94 C58.29777344 93.113125 58.59554688 92.22625 58.90234375 91.3125 C64.03941552 73.88906765 61.52024832 54.47768859 53.18554688 38.52514648 C50.28704787 33.24958897 47.05357587 28.46610792 43 24 C42.39671875 23.31679688 41.7934375 22.63359375 41.171875 21.9296875 C30.10108318 10.09384097 15.54595825 4.39034196 0 1 C0 0.67 0 0.34 0 0 Z " fill="#141414" transform="translate(394,0)"/>
<path d="M0 0 C0.00059709 0.54749407 0.00119418 1.09498814 0.00180936 1.65907294 C0.03770481 34.10942684 0.09434602 66.55966871 0.17792095 99.00993297 C0.18793839 102.90644257 0.19778252 106.80295258 0.20751953 110.69946289 C0.2094609 111.47518656 0.21140228 112.25091023 0.21340248 113.05014067 C0.24442196 125.60986834 0.26140298 138.16957775 0.27319422 150.72933651 C0.28560606 163.61721387 0.31310818 176.50499536 0.35461307 189.39281219 C0.37974759 197.34504749 0.39311732 205.29712377 0.39142957 213.24939936 C0.39139629 219.34766217 0.41236018 225.44566858 0.44116783 231.54387093 C0.44969432 234.04521808 0.45139823 236.54659913 0.44580269 239.04795456 C0.43918303 242.46152996 0.45703638 245.87413521 0.48101807 249.28761292 C0.47325765 250.27886958 0.46549723 251.27012625 0.45750165 252.291421 C0.54955607 259.68643653 2.08820948 264.08820948 7.4375 269.4375 C16.61226551 273.46151996 29.3356471 270.80654487 39.23242188 269.99291992 C40.75769863 269.87156123 42.28381803 269.76040558 43.81054688 269.65893555 C46.05308708 269.50960752 48.29148613 269.33050164 50.53125 269.14453125 C51.84673828 269.04503174 53.16222656 268.94553223 54.51757812 268.84301758 C58.8262463 267.79998398 60.21877981 266.4107095 63 263 C63.74620723 259.951603 63.74620723 259.951603 63.63923645 256.59025574 C63.65452393 255.29601685 63.6698114 254.00177795 63.68556213 252.6683197 C63.67731075 251.24136078 63.66858203 249.81440456 63.65942383 248.38745117 C63.66787912 246.87933019 63.67852419 245.37122014 63.69119263 243.86312866 C63.71933975 239.77455986 63.71686737 235.68651568 63.70889878 231.59787917 C63.70577403 227.32301197 63.73080711 223.04831194 63.75285339 218.77351379 C63.79030977 210.68110181 63.80244232 202.58885787 63.8054778 194.49636775 C63.8101669 185.28231951 63.84308546 176.06843979 63.87837565 166.85446584 C63.95032871 147.90299346 63.98682988 128.9515998 64 110 C66.335587 112.335587 66.88680157 114.05990268 67.98022461 117.16699219 C68.36533707 118.25222672 68.75044952 119.33746124 69.14723206 120.45558167 C69.56141891 121.64070847 69.97560577 122.82583527 70.40234375 124.046875 C71.0671014 125.92484948 71.73186014 127.80282358 72.39667034 129.68077946 C73.34067084 132.35222848 74.27927638 135.02555861 75.21761322 137.69900131 C77.35989324 143.80247985 79.50862198 149.90368462 81.66015625 156.00390625 C81.89393478 156.66754999 82.12771332 157.33119373 82.36857605 158.01494789 C85.08916334 165.73126461 87.86562842 173.41670424 90.87109375 181.02734375 C95.9801319 193.99773111 99.22126523 203.04374863 97 217 C95.0787112 250.49555351 105.03829916 281.72892099 126 308 C128.2600138 310.42951484 130.60125946 312.70555253 133 315 C133 315.66 133 316.32 133 317 C133.57234375 317.2475 134.1446875 317.495 134.734375 317.75 C137.35034537 319.193294 139.11518987 320.9099761 141.25 323 C161.729802 341.70548729 188.80703628 350.71386588 216 353 C216 353.33 216 353.66 216 354 C182.70841803 354.09176766 149.41686781 354.16214599 116.12518723 354.20426132 C112.18534597 354.20926351 108.24550496 354.21444086 104.30566406 354.21972656 C103.12924993 354.22130043 103.12924993 354.22130043 101.92906985 354.22290608 C89.26815035 354.24026113 76.60730429 354.27177146 63.94642821 354.30861118 C50.93311341 354.34615762 37.91983679 354.36826464 24.90647006 354.37635398 C16.89126714 354.38181352 8.87627187 354.39898929 0.86113295 354.43166587 C-5.30857147 354.45552134 -11.47812107 354.45778561 -17.6478653 354.45243073 C-20.16151702 354.45352239 -22.67517733 354.46136031 -25.18878174 354.4768219 C-45.98101588 354.59833957 -64.85859011 352.41179012 -84 344 C-84.65419922 343.71672852 -85.30839844 343.43345703 -85.98242188 343.14160156 C-116.07749484 329.85572789 -139.78418589 304.27843714 -151.87109375 273.80371094 C-153.83046327 268.60506117 -155.486645 263.34399649 -157 258 C-157.34160156 256.82179688 -157.68320313 255.64359375 -158.03515625 254.4296875 C-169.75031959 204.84457756 -151.51950692 143.56166794 -125.81640625 101.4296875 C-118.12879372 89.1887465 -109.5750213 77.8170301 -100 67 C-99.21753906 66.10667969 -98.43507812 65.21335937 -97.62890625 64.29296875 C-89.39117799 54.99875541 -80.75644597 46.69083358 -71 39 C-70.00097656 38.195625 -69.00195312 37.39125 -67.97265625 36.5625 C-59.73418891 30.00030778 -51.05513581 24.3662385 -42 19 C-41.30277832 18.58218262 -40.60555664 18.16436523 -39.88720703 17.73388672 C-10.07599077 0 -10.07599077 0 0 0 Z " fill="#2D2C2C" transform="translate(160,158)"/>
<path d="M0 0 C0.98152039 -0.00960754 1.96304077 -0.01921509 2.9743042 -0.02911377 C4.5711203 -0.03548859 4.5711203 -0.03548859 6.20019531 -0.04199219 C7.29293762 -0.04769226 8.38567993 -0.05339233 9.51153564 -0.05926514 C11.82831857 -0.0687251 14.14511502 -0.07525306 16.46191406 -0.07910156 C19.99991516 -0.08878941 23.5373311 -0.11979673 27.07519531 -0.15136719 C29.32519186 -0.15789891 31.57519257 -0.16314871 33.82519531 -0.16699219 C35.40986603 -0.18551239 35.40986603 -0.18551239 37.02655029 -0.20440674 C42.49337808 -0.18790336 46.67800179 -0.12431467 51.27832031 3.16113281 C55.32047445 7.26042638 57.48751796 11.31366009 59.44628906 16.72363281 C59.73440964 17.49118896 60.02253021 18.25874512 60.31938171 19.04956055 C61.32329968 21.74729681 62.30325791 24.45283524 63.27832031 27.16113281 C63.65232971 28.19753906 64.02633911 29.23394531 64.41168213 30.30175781 C67.26728006 38.24007257 70.07795708 46.19405695 72.88185883 54.15072632 C74.82326121 59.65597312 76.77241925 65.15848359 78.7206955 70.66130066 C79.2151327 72.05784542 79.70948176 73.45442139 80.20374298 74.85102844 C85.1420916 88.80391019 90.1341021 102.737121 95.15332031 116.66113281 C95.51132721 117.65483887 95.86933411 118.64854492 96.2381897 119.67236328 C99.98437022 130.06834807 103.74686758 140.45832268 107.52490234 150.84277344 C108.07054588 152.34290985 108.07054588 152.34290985 108.62721252 153.87335205 C109.5108304 156.30264314 110.39453401 158.731903 111.27832031 161.16113281 C111.27978687 160.39360373 111.28125343 159.62607464 111.28276443 158.83528709 C111.31982187 140.15651026 111.37882244 121.47792061 111.46222305 102.79929161 C111.50202636 93.76641925 111.53441227 84.73363418 111.54931641 75.70068359 C111.56232625 67.82722473 111.58927377 59.95395782 111.63293338 52.08060706 C111.65556332 47.9119819 111.67123008 43.74359362 111.67020416 39.57490158 C111.66945844 35.64971303 111.68737318 31.72504841 111.71948814 27.79999542 C111.72799416 26.36091374 111.72973225 24.92177334 111.724123 23.48267746 C111.71747333 21.51417454 111.73778096 19.5456361 111.75933838 17.57723999 C111.76486914 15.92630876 111.76486914 15.92630876 111.77051163 14.24202538 C112.59408964 9.24534957 115.16973097 6.13774724 118.90332031 2.84863281 C123.28971086 -0.2680131 126.99706295 -0.0163543 132.23144531 -0.04199219 C133.12442322 -0.04769226 134.01740112 -0.05339233 134.93743896 -0.05926514 C136.83051364 -0.06872204 138.72360483 -0.07525185 140.61669922 -0.07910156 C143.50290007 -0.08878193 146.3883812 -0.1197881 149.27441406 -0.15136719 C151.11425359 -0.15789983 152.9540982 -0.16314927 154.79394531 -0.16699219 C155.65352844 -0.17933899 156.51311157 -0.19168579 157.39874268 -0.20440674 C163.14310426 -0.18322662 167.54782877 0.61224166 171.92285156 4.69628906 C175.22087305 9.00908639 176.40262553 11.01979454 176.41254139 16.40364456 C176.41699923 17.52209645 176.42145708 18.64054833 176.42605001 19.79289269 C176.42586564 21.0319687 176.42568128 22.2710447 176.42549133 23.54766846 C176.42916802 24.85596422 176.43284471 26.16425998 176.43663281 27.51220107 C176.4466699 31.15600541 176.45037234 34.79979327 176.45302212 38.44360948 C176.45692013 42.36874994 176.46649881 46.29387729 176.47523499 50.2190094 C176.49501376 59.70437916 176.50506743 69.18975002 176.51396278 78.67513525 C176.5183434 83.13931767 176.52371079 87.60349889 176.52895164 92.06768036 C176.5459654 106.90316141 176.56046025 121.7386417 176.56770039 136.57413101 C176.56961036 140.42556001 176.57153068 144.276989 176.57348633 148.12841797 C176.57397007 149.08570044 176.57445381 150.04298292 176.57495221 151.02927396 C176.58325502 166.54156055 176.60859552 182.05377009 176.64106701 197.56602302 C176.67411568 213.48347155 176.69214716 229.40088088 176.69534463 245.3183639 C176.69751177 254.2589551 176.70629017 263.19943395 176.7318058 272.13999176 C176.7534829 279.75324991 176.76157801 287.36636842 176.75183902 294.97965392 C176.74728558 298.86498155 176.74924073 302.75002089 176.76860046 306.63530922 C176.78940047 310.84596453 176.77927504 315.05597687 176.7660675 319.2666626 C176.77703675 320.49681571 176.788006 321.72696883 176.79930764 322.99439931 C176.75101693 329.34741727 176.63066054 333.37377548 172.27832031 338.16113281 C167.66607887 342.43589317 164.1972989 342.36651885 158.25463867 342.27636719 C153.762027 342.10242635 149.31123778 341.69051393 144.84082031 341.22363281 C139.1215241 340.64443248 133.43752527 340.1216908 127.68847656 339.98144531 C126.79894287 339.95687256 125.90940918 339.9322998 124.99291992 339.90698242 C123.32089036 339.86930777 121.64827875 339.85053124 119.97583008 339.85473633 C114.03089824 339.70863685 109.83768124 338.02695897 105.27832031 334.16113281 C102.87397662 331.28643909 101.53456582 328.61110209 100.2956543 325.08447266 C99.7514534 323.55229599 99.7514534 323.55229599 99.19625854 321.98916626 C98.80954987 320.8780246 98.42284119 319.76688293 98.02441406 318.62207031 C97.61144073 317.4539682 97.19846741 316.28586609 96.77297974 315.08236694 C95.88097566 312.55687377 94.99149753 310.03065479 94.10623169 307.50280762 C92.70381774 303.49870331 91.29179446 299.49803368 89.87768555 295.49804688 C89.39771084 294.14014007 88.91774567 292.78222991 88.43778992 291.42431641 C88.19917425 290.74925049 87.96055859 290.07418457 87.71471214 289.37866211 C86.98589442 287.31567492 86.2579984 285.25236464 85.53034973 283.18896484 C81.02254925 270.40969184 76.4422326 257.65698667 71.84082031 244.91113281 C70.50853444 241.2185163 69.17659615 237.52577449 67.84472656 233.83300781 C67.5149028 232.91883087 67.18507904 232.00465393 66.84526062 231.06277466 C60.96977743 214.76937254 55.12763428 198.46394333 49.27832031 182.16113281 C49.27685375 182.93473742 49.27538719 183.70834204 49.27387619 184.50538921 C49.23683053 203.32568295 49.17784564 222.14579073 49.09441757 240.96593761 C49.05460189 250.0672199 49.02222228 259.1684154 49.00732422 268.26977539 C48.99432078 276.20218768 48.96738969 284.13440923 48.92370725 292.06671411 C48.90106286 296.26716515 48.8854114 300.46738068 48.88643646 304.66789818 C48.88718133 308.62180962 48.86930094 312.57519984 48.83715248 316.52897644 C48.82863573 317.97976619 48.82691563 319.43061429 48.83251762 320.88141823 C48.83915113 322.86340791 48.81888776 324.84543305 48.79730225 326.82731628 C48.79177149 328.49069172 48.79177149 328.49069172 48.786129 330.18767071 C48.16143837 333.84553233 46.83125273 335.51783137 44.27832031 338.16113281 C41.36030942 339.62013826 38.30978788 339.63506613 35.10253906 339.91503906 C34.38153519 339.98021225 33.66053131 340.04538544 32.91767883 340.11253357 C31.38369864 340.24986624 29.84952607 340.38506392 28.31518555 340.51831055 C26.01247514 340.71955542 23.71087585 340.93106372 21.40917969 341.14355469 C-4.56756197 343.48047015 -4.56756197 343.48047015 -11.13574219 338.05957031 C-16.503316 331.63434648 -16.14877234 325.36766431 -16.10935974 317.36950684 C-16.11474528 316.06596048 -16.12013082 314.76241412 -16.12567955 313.41936636 C-16.14013406 309.80733223 -16.13588952 306.19552627 -16.12851274 302.58347964 C-16.12378342 298.68566161 -16.13628875 294.78789311 -16.14653015 290.89009094 C-16.16372753 283.25674737 -16.16455631 275.62348608 -16.15931725 267.99012816 C-16.15527644 261.78655705 -16.15671804 255.58301026 -16.16206551 249.37944031 C-16.16281393 248.49664535 -16.16356235 247.61385039 -16.16433345 246.70430407 C-16.16586492 244.91094465 -16.16740327 243.11758525 -16.16894842 241.32422584 C-16.18267659 224.50636988 -16.1772333 207.68856044 -16.16576321 190.87070554 C-16.15582815 175.48152792 -16.16877563 160.09247047 -16.1926974 144.70331138 C-16.21707299 128.90324655 -16.22670021 113.10323773 -16.22004467 97.30315447 C-16.21654932 88.43194108 -16.21880543 79.56082016 -16.2362957 70.68962097 C-16.25099834 63.13865989 -16.25167846 55.58785642 -16.23422479 48.03689849 C-16.22569678 44.18395776 -16.22360888 40.33129881 -16.23887634 36.47837257 C-16.25521708 32.30293824 -16.24061252 28.12818726 -16.22288513 23.95275879 C-16.23249014 22.73311605 -16.24209514 21.51347331 -16.25199121 20.2568717 C-16.19652532 13.93025503 -16.05643574 9.92742091 -11.72167969 5.16113281 C-7.6694963 1.59135221 -5.36175002 0.04228923 0 0 Z " fill="#FE0A1E" transform="translate(175.7216796875,87.8388671875)"/>
<path d="M0 0 C33.77632858 0.66703701 63.44514317 18.28360093 86.34765625 41.9765625 C109.13591253 66.43544231 119.21839274 99.29114069 118.11669922 132.18847656 C116.67171984 167.00099236 102.94741838 196.70909263 78 221 C77.53851563 221.50660156 77.07703125 222.01320312 76.6015625 222.53515625 C57.52034993 242.96601556 25.69342322 255.22790176 -1.78515625 256.2109375 C-4.3729743 256.29597409 -6.96023429 256.37275064 -9.54882812 256.4296875 C-20.54721473 256.81531391 -30.92127526 258.55494895 -42 260 C-42 221.72 -42 183.44 -42 144 C-28.14 143.67 -14.28 143.34 0 143 C21.246957 137.68826075 38.32409014 129.48247216 50.4375 110.4375 C53.5133447 105.1144055 56.107819 99.85022145 58 94 C58.29777344 93.113125 58.59554687 92.22625 58.90234375 91.3125 C64.03941552 73.88906765 61.52024832 54.47768859 53.18554688 38.52514648 C50.28704787 33.24958897 47.05357587 28.46610792 43 24 C42.39671875 23.31679688 41.7934375 22.63359375 41.171875 21.9296875 C30.10108318 10.09384097 15.54595825 4.39034196 0 1 C0 0.67 0 0.34 0 0 Z " fill="#2C2C2C" transform="translate(394,0)"/>
<path d="M0 0 C0.89297791 -0.00570007 1.78595581 -0.01140015 2.70599365 -0.01727295 C4.59906833 -0.02672986 6.49215952 -0.03325967 8.38525391 -0.03710938 C11.27145476 -0.04678974 14.15693589 -0.07779591 17.04296875 -0.109375 C18.88280827 -0.11590764 20.72265289 -0.12115709 22.5625 -0.125 C23.42208313 -0.1373468 24.28166626 -0.1496936 25.16729736 -0.16241455 C30.91165895 -0.14123443 35.31638346 0.65423385 39.69140625 4.73828125 C42.99746168 9.0615845 44.17202625 11.06501473 44.16992283 16.46239662 C44.17191388 17.5845487 44.17390493 18.70670078 44.17595631 19.86285746 C44.17304347 21.10602618 44.17013063 22.3491949 44.16712952 23.6300354 C44.16798394 24.94256456 44.16883837 26.25509372 44.16971868 27.60739648 C44.17196335 31.2627939 44.16794273 34.91816223 44.16294062 38.57355595 C44.15863592 42.51084456 44.16008256 46.44813144 44.1608429 50.38542175 C44.16136812 57.2111106 44.1582215 64.0367899 44.15260506 70.86247635 C44.14448982 80.73136275 44.14187481 90.60024452 44.14061707 100.4691339 C44.13842658 116.47942521 44.1317666 132.48971145 44.12231445 148.5 C44.11314024 164.0556638 44.10605945 179.61132623 44.10180664 195.16699219 C44.10154392 196.12529232 44.10128119 197.08359245 44.10101051 198.07093199 C44.0997055 202.87827758 44.09844179 207.68562319 44.09719861 212.4929688 C44.08682611 252.39635776 44.06920789 292.29974104 44.046875 332.203125 C39.18597412 330.41363525 39.18597412 330.41363525 37.93408203 328.51904297 C37.68513184 327.79346191 37.43618164 327.06788086 37.1796875 326.3203125 C36.69677246 324.97018066 36.69677246 324.97018066 36.20410156 323.59277344 C35.8222168 322.47418945 35.44033203 321.35560547 35.046875 320.203125 C34.53102516 318.76757984 34.01224175 317.33308691 33.49121094 315.89941406 C31.94611081 311.63849808 30.42300729 307.37007316 28.90606689 303.09906006 C27.90584545 300.28299472 26.90317277 297.46781244 25.89990234 294.65283203 C23.20224175 287.08171114 20.51003219 279.50865791 17.8210144 271.9344635 C13.82245739 260.67460552 9.78365564 249.4382615 5.546875 238.265625 C1.76088279 228.27625031 -1.75165219 218.20505084 -5.20727539 208.09716797 C-8.03423012 199.83665051 -10.9275677 191.60331376 -13.890625 183.390625 C-14.25607422 182.37750244 -14.62152344 181.36437988 -14.99804688 180.32055664 C-17.06319519 174.5654073 -17.06319519 174.5654073 -19.49661255 168.96031189 C-21.84552947 162.63902237 -21.33294018 155.99203235 -21.26538086 149.34521484 C-21.26121514 147.84640289 -21.25833018 146.34758691 -21.25662231 144.84877014 C-21.24786722 140.79715629 -21.21981593 136.74589485 -21.18710399 132.69441175 C-21.16148814 129.3070984 -21.14529132 125.9197661 -21.12903887 122.53239691 C-21.09051679 114.54165258 -21.0362549 106.55112209 -20.97192383 98.56054688 C-20.90586888 90.32397752 -20.86543555 82.08756498 -20.83772558 73.85078466 C-20.81305236 66.76851712 -20.77299947 59.68645152 -20.72052294 52.60433543 C-20.68933645 48.37885671 -20.66383612 44.15354353 -20.65293694 39.92795944 C-20.64198312 35.95663974 -20.6117717 31.98592097 -20.56683731 28.01484489 C-20.55354784 26.55965325 -20.54697644 25.10438202 -20.54769707 23.64912987 C-20.54759664 21.65909781 -20.52057277 19.6691219 -20.49229431 17.67929077 C-20.48091887 16.01076081 -20.48091887 16.01076081 -20.46931362 14.30852318 C-19.63658288 9.29880302 -17.07366781 6.19026986 -13.328125 2.890625 C-8.94173446 -0.22602091 -5.23438236 0.02563789 0 0 Z " fill="#D10014" transform="translate(307.953125,87.796875)"/>
<path d="M0 0 C0.33 0.66 0.66 1.32 1 2 C1.63317139 2.10715332 2.26634277 2.21430664 2.91870117 2.32470703 C5 3 5 3 6.23168945 5.01513672 C6.58448975 5.93568848 6.93729004 6.85624023 7.30078125 7.8046875 C7.72439941 8.90006836 8.14801758 9.99544922 8.58447266 11.12402344 C9.05902431 12.41502299 9.53069 13.70708576 10 15 C10.38741364 16.0584613 10.38741364 16.0584613 10.78265381 17.13830566 C12.61734858 22.17111592 14.40655813 27.21942779 16.18399048 32.27270508 C17.94595957 37.2807846 19.71979455 42.28466462 21.4921875 47.2890625 C21.86195206 48.33390808 22.23171661 49.37875366 22.61268616 50.45526123 C26.63732019 61.8186393 30.7225686 73.15999587 34.8125 84.5 C36.30884902 88.65094968 37.80486663 92.80201875 39.30078125 96.953125 C39.67730331 97.99787994 40.05382538 99.04263489 40.4417572 100.11904907 C44.71269408 111.97289195 48.9702062 123.83154735 53.22372437 135.69165039 C54.06853697 138.04704959 54.91360567 140.40235695 55.75894165 142.75756836 C56.93372686 146.03084295 58.10762132 149.30443558 59.28125 152.578125 C59.62935226 153.54764099 59.97745453 154.51715698 60.33610535 155.51605225 C60.65896011 156.41728821 60.98181488 157.31852417 61.31445312 158.24707031 C61.59325317 159.02447571 61.87205322 159.8018811 62.15930176 160.60284424 C62.43673218 161.39390564 62.7141626 162.18496704 63 163 C63.34260675 163.90545405 63.68521351 164.81090811 64.03820229 165.74380016 C65.05264848 169.17824326 65.24233897 171.92302127 65.22946167 175.49635315 C65.22963539 177.42893478 65.22963539 177.42893478 65.22981262 179.40055847 C65.21967191 180.81595008 65.2093036 182.23134007 65.19873047 183.64672852 C65.19484946 185.14686905 65.1918041 186.64701194 65.18952942 188.14715576 C65.18046905 192.21113922 65.15826748 196.27494816 65.13258505 200.33885694 C65.11200624 203.73363041 65.09704848 207.12842043 65.08182538 210.52322143 C65.04549757 218.53109981 64.99766299 226.538856 64.94335938 234.54663086 C64.88761273 242.80590571 64.85420088 251.06506673 64.83125198 259.32449204 C64.81058333 266.42027934 64.77462816 273.5158819 64.7267276 280.6115374 C64.6983759 284.84764425 64.67616293 289.08356428 64.66924667 293.31976509 C64.66219961 297.30170339 64.63612215 301.28306891 64.59541893 305.26480103 C64.58370942 306.72525623 64.57876668 308.18578385 64.58111382 309.6462841 C64.58325791 311.64113106 64.5585118 313.63595276 64.53244019 315.63063049 C64.52615538 316.74650323 64.51987057 317.86237597 64.51339531 319.01206303 C63.88371449 322.67677629 62.55920244 324.3518597 60 327 C57.08198911 328.45900545 54.03146757 328.47393332 50.82421875 328.75390625 C50.10321487 328.81907944 49.382211 328.88425262 48.63935852 328.95140076 C47.10537833 329.08873343 45.57120575 329.22393111 44.03686523 329.35717773 C41.73415483 329.55842261 39.43255554 329.76993091 37.13085938 329.98242188 C11.15411772 332.31933733 11.15411772 332.31933733 4.5859375 326.8984375 C-0.79482782 320.45742285 -0.41800778 314.18443181 -0.36076355 306.16799927 C-0.36332682 304.86021952 -0.3658901 303.55243976 -0.36853105 302.20503032 C-0.37523181 298.58138423 -0.36324915 294.95800469 -0.34819686 291.33439255 C-0.33523479 287.42444121 -0.33962608 283.51450475 -0.34190369 279.60453796 C-0.34347631 272.83236254 -0.33406823 266.06027387 -0.31719017 259.28812027 C-0.2928033 249.49675164 -0.28499522 239.70542493 -0.2812262 229.91402923 C-0.27466123 214.02794883 -0.25469881 198.14191467 -0.22631836 182.25585938 C-0.19877898 166.82454662 -0.1775448 151.39324643 -0.16479492 135.96191406 C-0.16400675 135.01063881 -0.16321858 134.05936357 -0.16240653 133.07926179 C-0.1584914 128.30696695 -0.15470028 123.53467202 -0.15097082 118.76237702 C-0.11987348 79.17488565 -0.06703642 39.58744588 0 0 Z " fill="#D10014" transform="translate(160,99)"/>
<path d="M0 0 C12.87 0 25.74 0 39 0 C39 35.64 39 71.28 39 108 C37.27336973 105.4100546 36.33964152 103.47077591 35.31445312 100.58764648 C34.99167892 99.68640045 34.66890472 98.78515442 34.33634949 97.8565979 C33.98816666 96.87138153 33.63998383 95.88616516 33.28125 94.87109375 C32.72543999 93.31447525 32.72543999 93.31447525 32.15840149 91.72640991 C30.93514063 88.29811228 29.71754661 84.86783074 28.5 81.4375 C27.22355511 77.85403853 25.94579188 74.27104897 24.66792297 70.68809509 C23.78649836 68.21647238 22.90555429 65.74467825 22.02507019 63.27272034 C18.95211703 54.65012273 15.85330536 46.03716901 12.73828125 37.4296875 C12.11184219 35.69722527 12.11184219 35.69722527 11.4727478 33.92976379 C9.85349732 29.45191388 8.2341799 24.9740985 6.609375 20.4982605 C5.49329426 17.4230221 4.38103013 14.34642806 3.26953125 11.26953125 C2.93609207 10.35432709 2.60265289 9.43912292 2.2591095 8.4961853 C1.95937729 7.66446808 1.65964508 6.83275085 1.35083008 5.97583008 C1.0883699 5.25188553 0.82590973 4.52794098 0.55549622 3.78205872 C0 2 0 2 0 0 Z " fill="#2D2C2C" transform="translate(249,144)"/>
</svg>
