<?xml version="1.0" encoding="UTF-8"?>
<svg version="1.1" xmlns="http://www.w3.org/2000/svg" width="512" height="512">
<path d="M0 0 C0.88747925 0.00304138 1.7749585 0.00608276 2.68933105 0.00921631 C35.99302535 0.17713033 67.5683502 8.01319341 97.04931641 23.51318359 C98.59163987 24.32171816 100.14461542 25.10986678 101.69921875 25.89453125 C115.29121302 32.94448941 127.42052964 42.28245457 138.8125 52.4375 C139.32796387 52.89125 139.84342773 53.345 140.37451172 53.8125 C165.71403441 76.16016549 165.71403441 76.16016549 167.3125 86.75 C166.8125 89.4375 166.8125 89.4375 165.515625 91.15234375 C164.44751808 93.69346035 164.44751808 93.69346035 166.515625 96.890625 C167.34804896 98.16718571 168.19781878 99.43256443 169.0625 100.6875 C169.48402344 101.3371875 169.90554688 101.986875 170.33984375 102.65625 C171.43167666 104.2957215 172.61596731 105.87280341 173.8125 107.4375 C176.12475102 107.66488813 176.12475102 107.66488813 178.25170898 105.16186523 C179.27510143 104.11090458 180.2937149 103.05527802 181.30859375 101.99609375 C182.43654394 100.84280056 183.56481012 99.68981635 184.69335938 98.53710938 C186.46121879 96.72010897 188.22576721 94.90016757 189.98413086 93.07397461 C206.8590143 75.58964706 225.49798974 66.74007443 250.0625 65.9375 C256.43318145 66.19036956 260.90800716 67.69545083 265.55859375 72.0859375 C270.24269482 77.23058568 272.1032791 81.71755512 272.1875 88.75 C272.21585937 89.81863281 272.24421875 90.88726562 272.2734375 91.98828125 C271.29040168 99.3443883 267.25589432 104.5906907 262.06933594 109.65063477 C261.50614151 110.21601959 260.94294708 110.78140442 260.36268616 111.36392212 C258.51687907 113.21202177 256.6572622 115.04549424 254.796875 116.87890625 C253.49815829 118.17269084 252.20025909 119.46729653 250.90313721 120.76268005 C248.18897083 123.46922875 245.46850268 126.16920956 242.74267578 128.86401367 C239.26664567 132.30053075 235.80141259 135.74767209 232.34023666 139.19914341 C229.0167741 142.51257854 225.68843307 145.8210944 222.359375 149.12890625 C221.73345207 149.75143343 221.10752914 150.37396061 220.46263885 151.01535225 C208.3094584 163.08911841 208.3094584 163.08911841 202.37921143 167.98350525 C200.55920405 169.67257263 199.15187759 171.34486787 197.8125 173.4375 C197.87930476 176.53852918 197.87930476 176.53852918 198.6015625 179.9765625 C200.11427986 189.25348206 200.21049665 198.42986702 200.1875 207.8125 C200.18662384 208.6897876 200.18574768 209.5670752 200.18484497 210.47094727 C200.00492268 265.29183707 177.99147375 314.06118057 139.6875 352.8125 C134.35828186 358.07955975 128.77180593 362.89743978 122.8125 367.4375 C122.25095215 367.87497559 121.6894043 368.31245117 121.11083984 368.76318359 C103.95959421 382.01704706 84.23284871 392.2122942 63.703125 399.10546875 C55.91561306 401.76350461 50.88189867 404.80118199 45.0625 410.5625 C43.64303846 411.92959368 42.22116279 413.29418521 40.796875 414.65625 C40.11173828 415.31238281 39.42660156 415.96851563 38.72070312 416.64453125 C34.62253872 420.49521183 30.21047561 423.94060216 25.8125 427.4375 C24.6114534 428.4274741 23.41236891 429.41983157 22.21484375 430.4140625 C-38.67972264 480.8250887 -38.67972264 480.8250887 -62.4375 480.875 C-66.1875 480.4375 -66.1875 480.4375 -68.6875 478.9375 C-70.49043091 475.93261516 -70.66494877 473.88077882 -70.71875 470.4375 C-69.91304376 467.40425296 -68.66337961 466.39234197 -66.1875 464.4375 C-63.19612417 462.89146369 -60.10516462 461.61112452 -57 460.3125 C-29.03993432 448.13067621 -4.27362568 429.14299842 18.8125 409.4375 C3.36152936 407.50938583 3.36152936 407.50938583 -11.10546875 411.359375 C-13.72671059 413.7001405 -16.08842549 416.09880383 -18.44921875 418.69140625 C-21.96208275 422.22005841 -26.05949668 425.05699821 -30.0625 428 C-31.36175415 428.96558838 -31.36175415 428.96558838 -32.68725586 429.95068359 C-67.27392805 455.54266933 -111.32675968 481.8901218 -156.1015625 475.2265625 C-165.85894426 473.5111297 -174.35553689 469.41208055 -182.1875 463.4375 C-182.77789062 463.02242188 -183.36828125 462.60734375 -183.9765625 462.1796875 C-198.83939048 450.84593283 -204.85284791 430.82317372 -207.70654297 413.23925781 C-208.19868933 409.34905317 -208.38272238 405.5237183 -208.42578125 401.609375 C-208.43543915 400.87067169 -208.44509705 400.13196838 -208.45504761 399.37088013 C-208.47985196 396.97636857 -208.49245096 394.58212626 -208.5 392.1875 C-208.50295074 391.36880432 -208.50590149 390.55010864 -208.50894165 389.706604 C-208.54678393 343.38201147 -208.54678393 343.38201147 -199.72314453 332.65771484 C-197.11100171 330.58212028 -194.56757791 330.90687412 -191.3515625 331.02734375 C-189.1875 331.4375 -189.1875 331.4375 -186.625 333.5 C-183.42495461 340.03922318 -185.78410952 347.4734946 -187.125 354.3125 C-189.34351853 365.77353919 -190.39614868 376.72068727 -190.42773438 388.39160156 C-190.43738759 390.53751191 -190.46847479 392.68244021 -190.5 394.828125 C-190.64443232 413.65936793 -186.88255819 433.15901487 -173.46484375 447.24609375 C-163.691861 456.17312355 -151.15415786 458.74029283 -138.1875 458.4375 C-103.20616709 455.85509182 -71.79102349 435.48376064 -44.1875 415.4375 C-43.01828801 414.59236651 -41.84902075 413.74730946 -40.6796875 412.90234375 C-38.17702667 411.08775463 -35.67912182 409.26720069 -33.1875 407.4375 C-35.76512932 406.65821672 -38.34502364 405.91411102 -40.9375 405.1875 C-41.66710937 404.96320313 -42.39671875 404.73890625 -43.1484375 404.5078125 C-45.55898614 403.79579619 -45.55898614 403.79579619 -49.1875 403.4375 C-51.26039722 405.26020704 -51.26039722 405.26020704 -53.1875 407.4375 C-59.54194697 409.01441849 -63.76918305 408.07982678 -69.75 405.6875 C-70.55937012 405.37458008 -71.36874023 405.06166016 -72.20263672 404.73925781 C-98.69008635 394.24072382 -122.51238523 380.12531996 -143.1875 360.4375 C-143.77402344 359.88352539 -144.36054688 359.32955078 -144.96484375 358.75878906 C-183.23197074 322.3973188 -207.04431812 270.97750838 -208.5078125 217.98828125 C-209.06467662 192.01768616 -206.47710183 167.18593881 -198.1875 142.4375 C-197.94773438 141.72062012 -197.70796875 141.00374023 -197.4609375 140.26513672 C-189.92142974 118.19032793 -178.82075753 97.62276192 -164.1875 79.4375 C-162.97900391 77.92349609 -162.97900391 77.92349609 -161.74609375 76.37890625 C-149.60817251 61.45851501 -135.90763876 48.51287622 -120.1875 37.4375 C-119.60323242 37.0245166 -119.01896484 36.6115332 -118.41699219 36.18603516 C-95.11343725 19.95507517 -68.13699238 8.48558901 -40.1875 3.4375 C-39.50247406 3.31361908 -38.81744812 3.18973816 -38.11166382 3.06210327 C-25.35748142 0.81086882 -12.94103402 -0.09505129 0 0 Z " fill="#7FD7FE" transform="translate(224.1875,15.5625)"/>
<path d="M0 0 C4.64635557 3.61971208 7.9035323 7.70440554 9.71484375 13.3359375 C10.05078125 16.38671875 10.05078125 16.38671875 10.08984375 19.6484375 C10.11820312 20.71707031 10.1465625 21.78570312 10.17578125 22.88671875 C9.19274543 30.2428258 5.15823807 35.4891282 -0.02832031 40.54907227 C-0.59151474 41.11445709 -1.15470917 41.67984192 -1.73497009 42.26235962 C-3.58077718 44.11045927 -5.44039405 45.94393174 -7.30078125 47.77734375 C-8.59949796 49.07112834 -9.89739716 50.36573403 -11.19451904 51.66111755 C-13.90868542 54.36766625 -16.62915357 57.06764706 -19.35498047 59.76245117 C-22.83101058 63.19896825 -26.29624366 66.64610959 -29.75741959 70.09758091 C-33.08088215 73.41101604 -36.40922318 76.7195319 -39.73828125 80.02734375 C-40.36420418 80.64987093 -40.99012711 81.27239811 -41.6350174 81.91378975 C-53.78819785 93.98755591 -53.78819785 93.98755591 -59.71844482 98.88194275 C-61.5384522 100.57101013 -62.94577866 102.24330537 -64.28515625 104.3359375 C-64.21835149 107.43696668 -64.21835149 107.43696668 -63.49609375 110.875 C-61.98337639 120.15191956 -61.8871596 129.32830452 -61.91015625 138.7109375 C-61.91103241 139.5882251 -61.91190857 140.4655127 -61.91281128 141.36938477 C-62.09273357 196.19027457 -84.1061825 244.95961807 -122.41015625 283.7109375 C-127.73937439 288.97799725 -133.32585032 293.79587728 -139.28515625 298.3359375 C-139.8467041 298.77341309 -140.40825195 299.21088867 -140.98681641 299.66162109 C-158.13806204 312.91548456 -177.86480754 323.1107317 -198.39453125 330.00390625 C-206.18204319 332.66194211 -211.21575758 335.69961949 -217.03515625 341.4609375 C-218.45461779 342.82803118 -219.87649346 344.19262271 -221.30078125 345.5546875 C-221.98591797 346.21082031 -222.67105469 346.86695313 -223.37695312 347.54296875 C-227.47511753 351.39364933 -231.88718064 354.83903966 -236.28515625 358.3359375 C-237.48620285 359.3259116 -238.68528734 360.31826907 -239.8828125 361.3125 C-300.77737889 411.7235262 -300.77737889 411.7235262 -324.53515625 411.7734375 C-328.28515625 411.3359375 -328.28515625 411.3359375 -330.78515625 409.8359375 C-332.58808716 406.83105266 -332.76260502 404.77921632 -332.81640625 401.3359375 C-332.01070001 398.30269046 -330.76103586 397.29077947 -328.28515625 395.3359375 C-325.29378042 393.78990119 -322.20282087 392.50956202 -319.09765625 391.2109375 C-291.13759057 379.02911371 -266.37128193 360.04143592 -243.28515625 340.3359375 C-258.73612689 338.40782333 -258.73612689 338.40782333 -273.203125 342.2578125 C-275.82436684 344.598578 -278.18608174 346.99724133 -280.546875 349.58984375 C-284.059739 353.11849591 -288.15715293 355.95543571 -292.16015625 358.8984375 C-293.4594104 359.86402588 -293.4594104 359.86402588 -294.78491211 360.84912109 C-329.3715843 386.44110683 -373.42441593 412.7885593 -418.19921875 406.125 C-427.95660051 404.4095672 -436.45319314 400.31051805 -444.28515625 394.3359375 C-444.87554687 393.92085938 -445.4659375 393.50578125 -446.07421875 393.078125 C-460.93704673 381.74437033 -466.95050416 361.72161122 -469.80419922 344.13769531 C-470.29634558 340.24749067 -470.48037863 336.4221558 -470.5234375 332.5078125 C-470.5330954 331.76910919 -470.5427533 331.03040588 -470.55270386 330.26931763 C-470.57750821 327.87480607 -470.59010721 325.48056376 -470.59765625 323.0859375 C-470.60060699 322.26724182 -470.60355774 321.44854614 -470.6065979 320.6050415 C-470.64444018 274.28044897 -470.64444018 274.28044897 -461.82080078 263.55615234 C-459.20865796 261.48055778 -456.66523416 261.80531162 -453.44921875 261.92578125 C-451.28515625 262.3359375 -451.28515625 262.3359375 -448.72265625 264.3984375 C-445.52261086 270.93766068 -447.88176577 278.3719321 -449.22265625 285.2109375 C-451.44117478 296.67197669 -452.49380493 307.61912477 -452.52539062 319.29003906 C-452.53504384 321.43594941 -452.56613104 323.58087771 -452.59765625 325.7265625 C-452.74208857 344.55780543 -448.98021444 364.05745237 -435.5625 378.14453125 C-425.78951725 387.07156105 -413.25181411 389.63873033 -400.28515625 389.3359375 C-365.30254323 386.75343482 -333.89024347 366.38414035 -306.28515625 346.3359375 C-304.94802286 345.37355036 -303.61078489 344.4113085 -302.2734375 343.44921875 C-292.0222014 336.03970635 -282.21851363 328.22867864 -272.875 319.69067383 C-271.29188159 318.25127177 -269.70093625 316.82034575 -268.09667969 315.40454102 C-261.27107525 309.36995909 -254.80751235 303.01170685 -248.37963867 296.56079102 C-246.59340955 294.769178 -244.80186278 292.98300695 -243.00976562 291.19726562 C-237.22035627 285.41121789 -231.58052408 279.58357997 -226.28515625 273.3359375 C-224.83070108 271.72825377 -223.3729473 270.12354035 -221.91015625 268.5234375 C-218.86833091 265.14875248 -215.91297869 261.72651912 -213.03515625 258.2109375 C-212.30039062 257.31375 -211.565625 256.4165625 -210.80859375 255.4921875 C-208.84928552 253.06895845 -206.95877168 250.59890329 -205.07421875 248.1171875 C-204.50993164 247.38902832 -203.94564453 246.66086914 -203.36425781 245.91064453 C-202.24873083 244.47068779 -201.14838558 243.0188092 -200.06542969 241.55419922 C-197.2863377 237.99948635 -196.01877863 236.53289335 -191.53125 235.328125 C-188.31967685 235.33585442 -186.83743319 235.44536199 -184.28515625 237.3359375 C-181.91121479 240.89684969 -181.71282643 242.13716389 -182.28515625 246.3359375 C-183.89609005 248.8207956 -185.44285273 250.91828798 -187.34765625 253.1484375 C-188.35565604 254.37614834 -189.36346831 255.60401316 -190.37109375 256.83203125 C-190.86706055 257.42612793 -191.36302734 258.02022461 -191.87402344 258.63232422 C-193.7942941 260.95060253 -195.63591827 263.32620157 -197.47265625 265.7109375 C-198.29830078 266.77441406 -198.29830078 266.77441406 -199.140625 267.859375 C-199.51832031 268.34664063 -199.89601563 268.83390625 -200.28515625 269.3359375 C-190.31532609 264.07122764 -180.81940177 258.64571131 -171.88256836 251.7409668 C-167.46052435 248.3359375 -167.46052435 248.3359375 -165.28515625 248.3359375 C-166.3525628 245.70340113 -167.43786929 243.08099003 -168.53515625 240.4609375 C-168.98568359 239.34138672 -168.98568359 239.34138672 -169.4453125 238.19921875 C-169.74824219 237.48378906 -170.05117188 236.76835937 -170.36328125 236.03125 C-170.6355957 235.37141113 -170.90791016 234.71157227 -171.18847656 234.03173828 C-172.610148 231.83340128 -173.88047988 231.33290139 -176.28515625 230.3359375 C-178.33897577 230.0404236 -178.33897577 230.0404236 -180.49951172 230.08056641 C-181.32071503 230.07360748 -182.14191833 230.06664856 -182.98800659 230.05947876 C-184.30685349 230.06097427 -184.30685349 230.06097427 -185.65234375 230.0625 C-187.52604763 230.04221031 -189.39974551 230.02135952 -191.2734375 230 C-194.21831337 229.97741132 -197.16295165 229.96093194 -200.10791016 229.95507812 C-202.95648829 229.94553675 -205.80400447 229.91174042 -208.65234375 229.875 C-209.52752655 229.88004547 -210.40270935 229.88509094 -211.30441284 229.89028931 C-216.79430494 229.80229763 -219.98357419 229.05167988 -224.28515625 225.3359375 C-225.47286621 223.84815796 -225.47286621 223.84815796 -226.68457031 222.33032227 C-229.79121461 218.75324826 -232.62959716 217.30156879 -236.89453125 215.42578125 C-237.62077698 215.09099258 -238.34702271 214.75620392 -239.09527588 214.41127014 C-241.40229583 213.35089294 -243.71798894 212.31142599 -246.03515625 211.2734375 C-249.07422993 209.89241844 -252.10973639 208.50367423 -255.14453125 207.11328125 C-255.86761475 206.78304962 -256.59069824 206.45281799 -257.33569336 206.11257935 C-273.32389435 198.76491766 -273.32389435 198.76491766 -276.28515625 193.3359375 C-277.65346203 188.56487129 -277.69796828 185.33356658 -275.78515625 180.7109375 C-271.89515073 174.92958447 -266.49236007 169.50287822 -260.28515625 166.3359375 C-252.99373848 165.87771169 -246.33349049 167.37884179 -239.23828125 168.9140625 C-228.72081583 171.13966872 -228.72081583 171.13966872 -218.4296875 169.1015625 C-216.12631774 167.20516336 -214.0352365 165.24278559 -211.97265625 163.0859375 C-209.43722631 160.44271664 -206.86126643 157.96337663 -204.06176758 155.6081543 C-197.13870291 149.56991835 -190.76488975 142.93804636 -184.28515625 136.43359375 C-182.83949353 134.98606316 -181.39360779 133.53875526 -179.94750977 132.09165955 C-176.16421906 128.30457273 -172.38394264 124.51449118 -168.60430908 120.72375488 C-164.7380398 116.84720866 -160.8688955 112.97353426 -157 109.09960938 C-149.42558613 101.5145095 -141.85435701 93.92623931 -134.28515625 86.3359375 C-137.44144347 86.64177696 -140.59733349 86.95154881 -143.75317383 87.26196289 C-145.07705486 87.390173 -145.07705486 87.390173 -146.42768097 87.52097321 C-154.65352062 88.3334851 -162.80629425 89.50484023 -170.97265625 90.7734375 C-179.23097909 92.04654486 -187.46610543 93.30404719 -195.78515625 94.1171875 C-196.92251221 94.2313501 -198.05986816 94.3455127 -199.23168945 94.46313477 C-201.32193763 94.66326324 -203.41435049 94.84242692 -205.50854492 94.99584961 C-212.11872781 95.6374649 -215.78186541 97.41622359 -220.28515625 102.3359375 C-216.93226713 103.15377028 -213.57763648 103.96422964 -210.22265625 104.7734375 C-209.27970703 105.00353516 -208.33675781 105.23363281 -207.36523438 105.47070312 C-203.34513685 106.43720741 -199.39518699 107.37917822 -195.28515625 107.859375 C-191.16768668 108.5134522 -189.72119736 110.01406326 -187.28515625 113.3359375 C-186.46887972 117.25406483 -186.98291146 118.80980767 -188.97265625 122.2734375 C-197.09638879 127.33161059 -210.44878461 122.50841954 -219.28515625 120.5234375 C-220.47238281 120.27529297 -221.65960938 120.02714844 -222.8828125 119.77148438 C-224.02621094 119.51818359 -225.16960937 119.26488281 -226.34765625 119.00390625 C-227.36988281 118.77985107 -228.39210938 118.5557959 -229.4453125 118.32495117 C-233.38360759 116.95338709 -236.25759096 114.87883765 -238.578125 111.39453125 C-240.20553645 106.65615647 -240.02057151 101.31236601 -238.28515625 96.6484375 C-235.84598947 93.82815091 -233.17218355 91.47488818 -230.296875 89.10546875 C-228.49542667 87.52089381 -227.23385854 85.97534535 -225.78515625 84.0859375 C-222.6968818 80.98557372 -219.19127671 80.48892722 -215.03125 79.80078125 C-214.32040756 79.67587814 -213.60956512 79.55097504 -212.87718201 79.42228699 C-206.25467887 78.28006574 -199.60656915 77.32185428 -192.94592285 76.43096924 C-190.7530078 76.13569308 -188.56151917 75.83119778 -186.37011719 75.52490234 C-177.38990741 74.27529038 -168.4034977 73.09279162 -159.40684509 71.9672699 C-154.23715826 71.31529348 -149.07073335 70.63936045 -143.9045105 69.96054077 C-141.33646466 69.62895984 -138.76703518 69.30791535 -136.19631958 68.99771118 C-132.55004993 68.55653363 -128.91017502 68.07890199 -125.26953125 67.59375 C-124.17819382 67.47075027 -123.08685638 67.34775055 -121.96244812 67.22102356 C-114.46316024 66.17048335 -110.43239778 63.83579922 -105.28515625 58.3359375 C-104.16355103 57.27838257 -104.16355103 57.27838257 -103.01928711 56.19946289 C-102.43542236 55.61672607 -101.85155762 55.03398926 -101.25 54.43359375 C-100.58548828 53.77037109 -99.92097656 53.10714844 -99.23632812 52.42382812 C-98.57181641 51.75544922 -97.90730469 51.08707031 -97.22265625 50.3984375 C-96.55427734 49.73392578 -95.88589844 49.06941406 -95.19726562 48.38476562 C-92.00464307 45.18593778 -88.90852789 41.95006592 -85.9609375 38.5234375 C-81.82120017 33.73267657 -77.41928151 29.21232152 -72.96191406 24.7175293 C-72.01337405 23.75746527 -71.06931744 22.79295018 -70.12988281 21.82397461 C-55.46636796 6.70254469 -21.59842863 -12.87686443 0 0 Z " fill="#43E687" transform="translate(486.28515625,84.6640625)"/>
<path d="M0 0 C0.88747925 0.00304138 1.7749585 0.00608276 2.68933105 0.00921631 C35.99302535 0.17713033 67.5683502 8.01319341 97.04931641 23.51318359 C98.59163987 24.32171816 100.14461542 25.10986678 101.69921875 25.89453125 C115.29121302 32.94448941 127.42052964 42.28245457 138.8125 52.4375 C139.32796387 52.89125 139.84342773 53.345 140.37451172 53.8125 C165.55254066 76.01773943 165.55254066 76.01773943 167.375 86.75 C166.70725989 89.94031385 166.32299721 91.31926798 163.8125 93.4375 C161.09438606 94.34942134 158.65872941 94.85452995 155.8125 94.4375 C152.15172437 91.96477112 149.60582834 89.11311596 146.9375 85.625 C128.97195528 63.30958873 105.78346081 46.31267397 79.8125 34.4375 C78.85585449 33.98963135 78.85585449 33.98963135 77.87988281 33.53271484 C56.5576804 23.65733841 34.07244179 19.49031767 10.8125 17.4375 C7.47839079 17.1117663 4.1453594 16.77576311 0.8125 16.4375 C0.83344727 17.03175781 0.85439453 17.62601563 0.87597656 18.23828125 C0.95991854 20.97117705 1.01140281 23.70380057 1.0625 26.4375 C1.09601563 27.37207031 1.12953125 28.30664062 1.1640625 29.26953125 C1.26680242 36.61543563 -0.08748662 41.84509075 -4.93359375 47.4609375 C-5.49175781 47.90695313 -6.04992187 48.35296875 -6.625 48.8125 C-7.18058594 49.27398437 -7.73617187 49.73546875 -8.30859375 50.2109375 C-15.63628773 54.99450488 -24.10834547 54.23163399 -32.41796875 52.75 C-33.84356601 52.44873316 -35.26686202 52.13634717 -36.6875 51.8125 C-37.3575708 51.67247559 -38.0276416 51.53245117 -38.71801758 51.38818359 C-44.089039 50.03105184 -46.23409957 47.910116 -49.1875 43.4375 C-49.24969074 39.76824628 -49.21814902 37.5391376 -46.65625 34.80078125 C-43.0854169 32.82891297 -39.64642879 32.65349592 -35.625 32.3125 C-34.82594238 32.23467285 -34.02688477 32.1568457 -33.20361328 32.07666016 C-30.86583901 31.85152018 -28.5270669 31.64304069 -26.1875 31.4375 C-24.98996094 31.3240625 -23.79242188 31.210625 -22.55859375 31.09375 C-20.10264123 30.86320426 -17.64523781 30.64816324 -15.1875 30.4375 C-15.1875 26.1475 -15.1875 21.8575 -15.1875 17.4375 C-39.67288246 18.70260898 -39.67288246 18.70260898 -61.1875 27.4375 C-60.23037109 27.83582031 -60.23037109 27.83582031 -59.25390625 28.2421875 C-58.01447266 28.77199219 -58.01447266 28.77199219 -56.75 29.3125 C-55.92628906 29.66054688 -55.10257813 30.00859375 -54.25390625 30.3671875 C-52.1875 31.4375 -52.1875 31.4375 -51.1875 33.4375 C-50.83915189 37.1996596 -50.68107569 39.57878053 -52.625 42.875 C-56.44456518 45.20400316 -59.82679312 45.07233428 -64.1875 44.4375 C-68.25412662 42.88478802 -69.76269602 42.07470598 -72.1875 38.4375 C-71.8125 34.75 -71.8125 34.75 -71.1875 31.4375 C-77.56002384 33.36085385 -83.37857026 35.8102987 -89.25 38.9375 C-90.06855469 39.3718335 -90.88710937 39.80616699 -91.73046875 40.25366211 C-113.55054683 52.07779691 -134.19467871 68.58935225 -149.1875 88.4375 C-150.04404981 89.5314231 -150.90083202 90.62516425 -151.7578125 91.71875 C-176.90171548 124.34251189 -191.44109566 165.01091878 -191.31787109 206.23901367 C-191.31251987 208.3670975 -191.31783918 210.49496951 -191.32421875 212.62304688 C-191.32742148 219.94801914 -191.14767443 227.16838899 -190.1875 234.4375 C-185.19016541 233.06909929 -185.19016541 233.06909929 -181.9375 229.3046875 C-181.28484961 227.71895101 -180.67313219 226.11556607 -180.109375 224.49609375 C-179.1875 222.4375 -179.1875 222.4375 -176.1875 220.4375 C-172.38628263 220.02282174 -170.07902827 219.91172692 -166.75 221.875 C-164.39072526 225.74421057 -164.36515117 229.02738151 -165.1875 233.4375 C-167.6283676 239.53404488 -172.54728989 245.11444627 -178.1875 248.4375 C-181.15945149 249.27184408 -184.15059269 249.89059587 -187.1875 250.4375 C-179.42611449 275.65797417 -179.42611449 275.65797417 -168.1875 299.4375 C-167.27291016 301.16419922 -167.27291016 301.16419922 -166.33984375 302.92578125 C-157.54898334 319.15367347 -145.68789621 332.94631116 -132.75 346 C-132.22921875 346.52561523 -131.7084375 347.05123047 -131.171875 347.59277344 C-128.4392876 350.35897274 -128.4392876 350.35897274 -125.1875 352.4375 C-124.95160156 351.65890625 -124.71570313 350.8803125 -124.47265625 350.078125 C-117.60327951 330.61837082 -108.56538363 318.11081691 -91.75024414 306.25610352 C-90.9483667 305.68947998 -90.14648926 305.12285645 -89.3203125 304.5390625 C-88.59730957 304.03713379 -87.87430664 303.53520508 -87.12939453 303.01806641 C-78.03141527 295.61294726 -72.56171081 277.60434192 -70.63134766 266.13232422 C-69.70469921 255.75179126 -69.70469921 255.75179126 -72.48828125 245.9453125 C-75.109848 243.61904867 -77.21787793 243.39345075 -80.640625 243.125 C-84.71753876 243.62523482 -87.5987659 245.68845706 -90.92578125 247.9921875 C-95.93349322 251.19227978 -101.61411814 250.72442536 -107.375 250.8125 C-108.28314453 250.84988281 -109.19128906 250.88726562 -110.12695312 250.92578125 C-118.50124013 251.03368187 -124.50310995 248.25284453 -130.5 242.4375 C-136.65916115 234.47691289 -138.05927899 223.85792466 -137.7578125 214.0703125 C-136.77972388 207.840022 -133.83811123 203.46887747 -130.1875 198.4375 C-129.48882812 197.38175781 -128.79015625 196.32601562 -128.0703125 195.23828125 C-122.73407986 187.51878457 -117.3680414 181.58418154 -107.83984375 179.81640625 C-105.58170048 179.52872847 -103.3226031 179.24841452 -101.0625 178.9765625 C-97.94404542 178.5842261 -97.94404542 178.5842261 -94.875 176.25 C-92.59320101 172.44700169 -92.48623026 170.85549939 -93.1875 166.4375 C-94.00047476 164.65014466 -94.83801862 162.87388517 -95.69140625 161.10546875 C-98.72500468 153.95166644 -98.89811458 147.49844599 -98.75 139.8125 C-98.76095703 138.56726563 -98.77191406 137.32203125 -98.78320312 136.0390625 C-98.70944538 126.71608384 -97.57283193 118.82804211 -91.17578125 111.703125 C-86.53843714 107.48038198 -80.97350465 104.90787546 -75.375 102.1875 C-73.30253121 101.16846187 -71.23333845 100.14272567 -69.16796875 99.109375 C-68.25942139 98.6669043 -67.35087402 98.22443359 -66.41479492 97.76855469 C-63.91154942 96.48905566 -63.91154942 96.48905566 -62.1875 93.4375 C-61.4819237 87.44010142 -62.97986561 83.37311808 -66.1875 78.4375 C-68.85738648 75.37689843 -70.33688387 73.72103871 -74.1875 72.4375 C-76.56978573 72.32062018 -78.95491039 72.25879732 -81.33984375 72.2265625 C-82.77019384 72.19849919 -84.20053224 72.16983476 -85.63085938 72.140625 C-87.88012427 72.09934958 -90.12916959 72.06245122 -92.37866211 72.03613281 C-94.55367727 72.00849542 -96.72770878 71.96263577 -98.90234375 71.9140625 C-100.20292725 71.89424316 -101.50351074 71.87442383 -102.84350586 71.85400391 C-106.32361822 71.42054609 -107.7337375 70.88073778 -110.1875 68.4375 C-110.97265625 66.5703125 -110.97265625 66.5703125 -111.25 64.5625 C-111.36472656 63.90507813 -111.47945313 63.24765625 -111.59765625 62.5703125 C-110.92247288 59.05935897 -108.89406596 57.65860147 -106.1875 55.4375 C-102.76513672 54.80639648 -102.76513672 54.80639648 -98.8671875 54.80859375 C-98.16788116 54.80618179 -97.46857483 54.80376984 -96.74807739 54.80128479 C-95.27047043 54.80226132 -93.79282602 54.81560927 -92.31542969 54.84057617 C-90.08918008 54.87459234 -87.86697469 54.8613046 -85.640625 54.84179688 C-74.14924279 54.85257037 -63.89949718 56.49592872 -55.3359375 64.78125 C-48.9755838 72.64496002 -43.77788638 82.35364002 -44.60546875 92.69140625 C-46.49114078 101.5882347 -50.99279535 107.11142213 -58.1875 112.4375 C-61.53452669 114.37447037 -64.9861312 116.01458485 -68.5 117.625 C-70.27137034 118.4422604 -72.03851536 119.2687571 -73.80078125 120.10546875 C-74.57204346 120.45891357 -75.34330566 120.8123584 -76.13793945 121.17651367 C-78.5967276 122.68927612 -79.76732154 123.91896917 -81.1875 126.4375 C-81.84589957 130.78676508 -81.69686839 135.16872445 -81.6875 139.5625 C-81.71585937 140.7484375 -81.74421875 141.934375 -81.7734375 143.15625 C-81.78919024 150.29223905 -80.86772277 155.09710717 -77.32714844 161.29248047 C-74.79057495 166.06675954 -75.40439795 171.24865306 -76.1875 176.4375 C-78.58301281 184.10947275 -82.95770354 189.67006604 -90.0625 193.4296875 C-94.5934415 195.34802967 -98.89596549 195.81492647 -103.79296875 195.93359375 C-109.01419006 197.03234995 -111.93802848 201.07355208 -114.82910156 205.31005859 C-119.79792019 212.73702393 -119.79792019 212.73702393 -120.6953125 221.40234375 C-119.05681983 227.98606425 -119.05681983 227.98606425 -115.1875 233.4375 C-105.86466165 234.58221687 -98.45291052 234.12269977 -90.421875 228.84765625 C-85.74271987 225.8945531 -80.57458714 225.84828734 -75.1875 226.4375 C-68.17846791 228.21112702 -62.35128138 231.41969657 -58.1875 237.4375 C-54.16740656 244.33529954 -53.48053357 250.61012826 -53.5625 258.5 C-53.57087891 259.60690186 -53.57925781 260.71380371 -53.58789062 261.85424805 C-53.82843604 270.6296776 -55.50741237 277.48225042 -59.24169922 285.34912109 C-60.32790098 287.7475129 -61.26270533 290.18094993 -62.19140625 292.64453125 C-62.53300781 293.54324951 -62.87460938 294.44196777 -63.2265625 295.36791992 C-63.8902896 297.11542851 -64.55065433 298.86421932 -65.20703125 300.61450195 C-69.01996091 310.3138371 -74.89849083 315.0114912 -83.1875 321 C-84.9611466 322.28910691 -86.73206333 323.58197957 -88.5 324.87890625 C-89.27988281 325.44295166 -90.05976563 326.00699707 -90.86328125 326.58813477 C-95.79779735 330.51449605 -98.9190119 334.27748017 -101.703125 339.9453125 C-102.00442322 340.552612 -102.30572144 341.1599115 -102.6161499 341.78561401 C-103.5661242 343.70672189 -104.50171996 345.63444545 -105.4375 347.5625 C-106.07984482 348.86371818 -106.72306644 350.16450392 -107.3671875 351.46484375 C-110.5757036 357.82458704 -110.5757036 357.82458704 -113.1875 364.4375 C-112.1665625 364.79328125 -112.1665625 364.79328125 -111.125 365.15625 C-108.25053371 366.41000657 -105.74174984 367.93901888 -103.12719727 369.66113281 C-89.65338332 378.5272246 -75.0085697 385.79023566 -59.51586914 390.37402344 C-54.99426563 391.79305231 -52.68976794 393.39633727 -50.1875 397.4375 C-49.71427516 400.7500739 -49.8623816 402.6856637 -51.1875 405.75 C-54.17668947 408.27212862 -57.39945419 408.442044 -61.1875 408.4375 C-64.18399311 407.85203135 -66.91996193 406.81951523 -69.75 405.6875 C-70.55937012 405.37458008 -71.36874023 405.06166016 -72.20263672 404.73925781 C-98.69008635 394.24072382 -122.51238523 380.12531996 -143.1875 360.4375 C-143.77402344 359.88352539 -144.36054688 359.32955078 -144.96484375 358.75878906 C-183.23197074 322.3973188 -207.04431812 270.97750838 -208.5078125 217.98828125 C-209.06467662 192.01768616 -206.47710183 167.18593881 -198.1875 142.4375 C-197.94773438 141.72062012 -197.70796875 141.00374023 -197.4609375 140.26513672 C-189.92142974 118.19032793 -178.82075753 97.62276192 -164.1875 79.4375 C-162.97900391 77.92349609 -162.97900391 77.92349609 -161.74609375 76.37890625 C-149.60817251 61.45851501 -135.90763876 48.51287622 -120.1875 37.4375 C-119.60323242 37.0245166 -119.01896484 36.6115332 -118.41699219 36.18603516 C-95.11343725 19.95507517 -68.13699238 8.48558901 -40.1875 3.4375 C-39.50247406 3.31361908 -38.81744812 3.18973816 -38.11166382 3.06210327 C-25.35748142 0.81086882 -12.94103402 -0.09505129 0 0 Z " fill="#455B65" transform="translate(224.1875,15.5625)"/>
<path d="M0 0 C0.67417969 0.81259277 1.34835938 1.62518555 2.04296875 2.46240234 C5.73435879 5.63019528 7.50885839 5.61423542 12.3125 5.6015625 C13.00384033 5.60956879 13.69518066 5.61757507 14.4074707 5.62582397 C16.60558442 5.64880628 18.80183828 5.63946794 21 5.625 C23.19781255 5.6211425 25.39480772 5.6246678 27.5925293 5.64559937 C29.58634841 5.66317104 31.58034149 5.6557397 33.57421875 5.64697266 C39.75215468 6.28361001 42.96009204 9.63797942 46.70703125 14.2421875 C49.93620671 18.6323052 50.67590888 22.59272893 50 28 C45.33295832 33.92840429 38.51708296 36.4727549 31.8359375 39.63085938 C24.34315958 43.35048841 18.64316193 47.84959027 15.09375 55.609375 C13.18190377 61.62054798 13.48725117 68.00944702 13.5 74.25 C13.47164063 75.49652344 13.44328125 76.74304688 13.4140625 78.02734375 C13.39793435 85.74466461 14.49548333 91.5468316 17.86889648 98.5090332 C19.40065274 101.8823354 19.66802678 104.36296529 19 108 C17.20437595 110.75329021 15.94745078 112.52627461 13 114 C11.00140461 114.24110962 9.00108848 114.468041 7 114.6875 C-2.39153527 116.16493624 -8.29381369 119.38011763 -13.99975586 126.9675293 C-15.72136702 129.38713419 -17.34911918 131.85696729 -18.94287109 134.36230469 C-19.82809543 135.73368687 -20.77629814 137.06413903 -21.73828125 138.3828125 C-26.85072779 145.95787413 -25.97466797 154.96875304 -24.30078125 163.609375 C-22.28938731 170.97599923 -19.75078519 176.79274191 -13.30175781 181.14648438 C-7.67054493 184.22238195 -2.84157372 184.57852495 3.5 184.4375 C4.39847656 184.44458984 5.29695313 184.45167969 6.22265625 184.45898438 C13.41325579 184.39095105 19.09900842 183.22203611 24.9375 178.75 C28.64942402 176.62890056 30.71023298 176.75274178 34.8515625 177.15234375 C38.11467256 178.43978899 39.203241 179.99494019 41 183 C44.36937106 195.60183767 40.13204831 208.23115662 35.5 219.875 C35.24750488 220.52588593 34.99500977 221.17677185 34.73486328 221.84738159 C31.54691488 229.93480946 28.24007513 235.95321148 21 241 C20.32743164 241.50644043 19.65486328 242.01288086 18.96191406 242.53466797 C16.27879868 244.55183953 13.55814903 246.51333764 10.82421875 248.4609375 C1.39686718 255.35366263 -3.0288176 263.4778684 -7.875 273.9375 C-8.47295347 275.20685405 -9.0719044 276.47573874 -9.671875 277.74414062 C-11.12443202 280.82496722 -12.56675927 283.91015221 -14 287 C-33.46146606 278.38954602 -48.13108357 251.9427073 -58 234 C-58.3501416 233.38286133 -58.7002832 232.76572266 -59.06103516 232.12988281 C-67.07737197 217.92206635 -73.61453477 201.14799534 -76 185 C-75.28714844 184.79246094 -74.57429688 184.58492187 -73.83984375 184.37109375 C-65.54085694 181.70156771 -60.90864286 178.3160507 -56.0625 171.125 C-54.3316274 166.03419823 -54.30011634 161.09965097 -56 156 C-57.4370809 155.94577053 -58.87475462 155.90710277 -60.3125 155.875 C-61.11300781 155.85179687 -61.91351563 155.82859375 -62.73828125 155.8046875 C-65.28388576 155.84182678 -65.28388576 155.84182678 -68 158 C-68.8592525 159.85314345 -68.8592525 159.85314345 -69.4375 161.9375 C-70.64060928 165.39017299 -71.57125968 167.33758045 -75 169 C-76.32 169 -77.64 169 -79 169 C-81.38461892 160.17395275 -81.23155728 151.42834797 -81.125 142.375 C-81.11494608 140.87891227 -81.10582451 139.38281797 -81.09765625 137.88671875 C-81.07584308 134.25767374 -81.04144741 130.62888015 -81 127 C-80.34 127 -79.68 127 -79 127 C-78.78085938 125.90945312 -78.56171875 124.81890625 -78.3359375 123.6953125 C-70.90791928 87.87549043 -54.78995301 56.08856604 -29.984375 29.171875 C-28.23881698 27.26138237 -26.58142549 25.30995786 -24.9375 23.3125 C-21.64152199 19.4507274 -17.88451708 16.25424775 -14 13 C-12.96310544 12.11248856 -11.92667788 11.22443134 -10.890625 10.3359375 C-9.802557 9.4109009 -8.71401631 8.48642 -7.625 7.5625 C-7.10083496 7.11285889 -6.57666992 6.66321777 -6.03662109 6.19995117 C-2.22895854 3 -2.22895854 3 0 3 C0 2.01 0 1.02 0 0 Z " fill="#55FA9A" transform="translate(113,81)"/>
<path d="M0 0 C4.64635557 3.61971208 7.9035323 7.70440554 9.71484375 13.3359375 C10.05078125 16.38671875 10.05078125 16.38671875 10.08984375 19.6484375 C10.11820312 20.71707031 10.1465625 21.78570312 10.17578125 22.88671875 C9.19274543 30.2428258 5.15823807 35.4891282 -0.02832031 40.54907227 C-0.59151474 41.11445709 -1.15470917 41.67984192 -1.73497009 42.26235962 C-3.58077718 44.11045927 -5.44039405 45.94393174 -7.30078125 47.77734375 C-8.59949796 49.07112834 -9.89739716 50.36573403 -11.19451904 51.66111755 C-13.90868542 54.36766625 -16.62915357 57.06764706 -19.35498047 59.76245117 C-22.83101058 63.19896825 -26.29624366 66.64610959 -29.75741959 70.09758091 C-33.08088215 73.41101604 -36.40922318 76.7195319 -39.73828125 80.02734375 C-40.36420418 80.64987093 -40.99012711 81.27239811 -41.6350174 81.91378975 C-48.0224939 88.25952764 -54.41763307 94.50520822 -61.28515625 100.3359375 C-63.59378549 102.40107777 -65.879978 104.4894703 -68.16015625 106.5859375 C-68.72734375 107.1015625 -69.29453125 107.6171875 -69.87890625 108.1484375 C-73.84248035 111.79267151 -76.38833976 114.33813103 -76.96777344 119.76416016 C-77.06860229 120.66866913 -77.16943115 121.5731781 -77.27331543 122.50509644 C-77.37519165 123.49341461 -77.47706787 124.48173279 -77.58203125 125.5 C-77.69615356 126.53980011 -77.81027588 127.57960022 -77.92785645 128.65090942 C-78.17466456 130.90585134 -78.41784411 133.16119267 -78.65783691 135.41687012 C-79.29810945 141.43079201 -79.96501308 147.44177281 -80.62890625 153.453125 C-80.76443909 154.6865564 -80.89997192 155.91998779 -81.03961182 157.1907959 C-82.43550602 169.835228 -83.97053533 182.46143017 -85.53515625 195.0859375 C-85.72192932 196.59453339 -85.72192932 196.59453339 -85.91247559 198.13360596 C-86.03384888 199.11383728 -86.15522217 200.0940686 -86.28027344 201.10400391 C-86.39840393 202.06001495 -86.51653442 203.016026 -86.63824463 204.00100708 C-86.86817222 205.85291648 -87.10032164 207.70455163 -87.3348999 209.55587769 C-87.86857531 213.79460601 -88.36421173 218.02918918 -88.75976562 222.28320312 C-88.87442169 223.44435638 -88.87442169 223.44435638 -88.99139404 224.62896729 C-89.19128846 226.68929993 -89.37326845 228.75134929 -89.55371094 230.81347656 C-90.94818457 237.52891903 -95.51905467 241.91169673 -100.22265625 246.5859375 C-100.99125977 247.37871094 -100.99125977 247.37871094 -101.77539062 248.1875 C-106.06704661 252.48460917 -109.19976749 254.06685508 -115.16015625 254.8359375 C-119.45985166 254.73007379 -121.72052047 252.9441097 -124.83984375 250.13671875 C-128.26681741 245.86689481 -128.88880342 240.65662855 -129.73046875 235.390625 C-129.8614093 234.60369263 -129.99234985 233.81676025 -130.1272583 233.00598145 C-130.41087262 231.30064402 -130.69215987 229.59491829 -130.97137451 227.88885498 C-131.72391746 223.29602955 -132.49562804 218.70645568 -133.26953125 214.1171875 C-133.43065399 213.16113617 -133.59177673 212.20508484 -133.75778198 211.22006226 C-135.91554188 198.50552718 -138.31426735 185.83547617 -140.70751953 173.16357422 C-140.87233826 172.28858276 -141.03715698 171.41359131 -141.20697021 170.51208496 C-141.51338902 168.8870333 -141.82125259 167.26225304 -142.13092041 165.63781738 C-145.87018515 145.83540615 -145.87018515 145.83540615 -142.66015625 140.7734375 C-139.54092136 138.88547954 -137.87904173 138.74918069 -134.28515625 139.3359375 C-131.37033354 141.2417409 -129.61193354 142.53909147 -128.27685547 145.79467773 C-128.0913916 146.75575439 -127.90592773 147.71683105 -127.71484375 148.70703125 C-127.48506836 149.86315918 -127.25529297 151.01928711 -127.01855469 152.21044922 C-126.77196327 153.58523247 -126.52767033 154.96042915 -126.28515625 156.3359375 C-126.14194946 157.12059387 -125.99874268 157.90525024 -125.85119629 158.71368408 C-124.65566227 165.26708078 -123.52934368 171.83164779 -122.41015625 178.3984375 C-121.7058459 182.50284851 -120.99938516 186.60688852 -120.29296875 190.7109375 C-120.12057678 191.71467911 -119.94818481 192.71842072 -119.77056885 193.75257874 C-118.75751905 199.63947335 -117.72246326 205.52165262 -116.65234375 211.3984375 C-116.30018799 213.33577759 -116.30018799 213.33577759 -115.94091797 215.31225586 C-115.51636391 217.63402597 -115.08851776 219.95519751 -114.65673828 222.27563477 C-114.47224121 223.28682373 -114.28774414 224.2980127 -114.09765625 225.33984375 C-113.93910156 226.19392822 -113.78054688 227.0480127 -113.6171875 227.92797852 C-113.27255315 230.4273378 -113.22666844 232.81618137 -113.28515625 235.3359375 C-112.62515625 235.3359375 -111.96515625 235.3359375 -111.28515625 235.3359375 C-111.01703125 234.7378125 -110.74890625 234.1396875 -110.47265625 233.5234375 C-109.28515625 231.3359375 -109.28515625 231.3359375 -107.76268005 229.96968079 C-105.92411305 227.93672099 -105.76694778 226.71172279 -105.45727539 224.00854492 C-105.29656807 222.6891391 -105.29656807 222.6891391 -105.13261414 221.34307861 C-105.0295546 220.38552673 -104.92649506 219.42797485 -104.8203125 218.44140625 C-104.64318474 216.9377652 -104.64318474 216.9377652 -104.46247864 215.40374756 C-104.07814878 212.11164037 -103.71271048 208.81773317 -103.34765625 205.5234375 C-103.08510619 203.23955426 -102.8215895 200.95578194 -102.55712891 198.67211914 C-101.00956018 185.21472834 -99.56376565 171.74651385 -98.16015625 158.2734375 C-98.00074961 156.75096624 -97.84124513 155.22850522 -97.68164062 153.70605469 C-97.60364227 152.96111755 -97.52564392 152.21618042 -97.44528198 151.44866943 C-97.29012422 149.96708353 -97.1347922 148.48551587 -96.97927856 147.00396729 C-96.58116155 143.20266323 -96.19027525 139.40079498 -95.81005859 135.59765625 C-95.42097016 131.71884113 -95.0096868 127.84293459 -94.58331299 123.9680481 C-94.42836862 122.52509107 -94.28112664 121.08128243 -94.14227295 119.63668823 C-93.95118055 117.65806005 -93.73016676 115.68239055 -93.5078125 113.70703125 C-93.39187744 112.59255615 -93.27594238 111.47808105 -93.15649414 110.32983398 C-92.03303846 106.46966669 -90.19298288 105.10950672 -87.28515625 102.3359375 C-86.26448825 101.31899475 -85.24695321 100.29890064 -84.23210144 99.27615356 C-83.40613213 98.44801651 -83.40613213 98.44801651 -82.56347656 97.60314941 C-81.97687256 97.01497437 -81.39026855 96.42679932 -80.78588867 95.82080078 C-74.35045371 89.36899954 -67.91245137 82.9197664 -61.47300243 76.47197151 C-57.58475591 72.57850548 -53.6974505 68.68410929 -49.81225586 64.78759766 C-46.04154948 61.00598247 -42.26836621 57.22685471 -38.49349403 53.44939804 C-37.06180551 52.01587211 -35.63099245 50.58147125 -34.2011013 49.1461525 C-20.62074607 35.51627861 -20.62074607 35.51627861 -14.84809875 30.69577026 C-11.21969126 27.53888677 -7.70650968 24.39588759 -6.72265625 19.5859375 C-7.39739024 16.88700155 -8.097534 16.02659434 -10.28515625 14.3359375 C-16.68167991 13.68201779 -23.59470201 15.68153939 -29.84765625 17.0234375 C-30.53102051 17.15951416 -31.21438477 17.29559082 -31.91845703 17.43579102 C-45.69078136 20.61012389 -54.44662433 31.03808073 -63.91015625 40.7734375 C-65.96901785 42.87515169 -68.03083097 44.97388378 -70.0953064 47.07008362 C-71.37033042 48.36639245 -72.64179843 49.66621337 -73.90884399 50.97032166 C-76.84921699 53.97566066 -79.83487739 56.85085058 -83.0307312 59.58448792 C-87.17832049 63.19484214 -91.07934474 67.00216086 -94.95117188 70.90429688 C-95.67100754 71.6255928 -96.3908432 72.34688873 -97.13249207 73.09004211 C-98.68150732 74.64283704 -100.22936725 76.1967852 -101.77616882 77.75178528 C-104.22976004 80.21824241 -106.68655093 82.6814726 -109.14416504 85.1439209 C-114.36064958 90.37178457 -119.5731935 95.60356628 -124.78515625 100.8359375 C-130.82892572 106.90337254 -136.87433475 112.96915489 -142.92399597 119.03071594 C-145.334419 121.44758135 -147.74178982 123.86745837 -150.14904785 126.28747559 C-151.6389292 127.78099232 -153.12895274 129.27436723 -154.61914062 130.76757812 C-155.27911545 131.43271927 -155.93909027 132.09786041 -156.61906433 132.78315735 C-160.45316105 136.61768276 -164.4095649 140.24287853 -168.513237 143.78692818 C-170.58533519 145.59835351 -172.53943679 147.49552008 -174.46289062 149.46362305 C-175.17723267 150.19095139 -175.89157471 150.91827972 -176.62756348 151.66764832 C-177.37050659 152.42830093 -178.11344971 153.18895355 -178.87890625 153.97265625 C-180.50215692 155.61827983 -182.1258687 157.26344867 -183.75 158.90820312 C-186.27575129 161.47109058 -188.79827986 164.03686912 -191.31298828 166.6105957 C-193.76327406 169.11551785 -196.22620494 171.60742313 -198.69140625 174.09765625 C-199.43434937 174.86438156 -200.17729248 175.63110687 -200.94274902 176.42106628 C-209.13808722 184.65690053 -216.36855451 187.55146265 -227.93115234 187.66821289 C-234.04103436 187.5858046 -239.69517789 186.31359771 -245.5612793 184.67114258 C-249.47919699 183.60193896 -252.39339513 182.97453389 -256.28515625 184.3359375 C-257.27515625 185.3259375 -257.27515625 185.3259375 -258.28515625 186.3359375 C-249.86970286 190.9290253 -241.44461522 195.42029243 -232.66015625 199.2734375 C-232.02271484 199.55517822 -231.38527344 199.83691895 -230.72851562 200.12719727 C-217.0015036 206.02901855 -204.68027275 205.37023341 -190.76953125 200.4453125 C-181.38587181 196.38915003 -174.16502479 188.48217002 -167.2578125 181.14453125 C-166.77691162 180.64066895 -166.29601074 180.13680664 -165.80053711 179.61767578 C-164.49012774 178.23294469 -163.20320865 176.82609208 -161.91796875 175.41796875 C-158.64396391 172.82888184 -156.42466263 172.42728549 -152.28515625 172.3359375 C-149.34765625 174.3359375 -149.34765625 174.3359375 -147.28515625 177.3359375 C-146.73890139 181.60867666 -146.79250423 183.62197458 -149.26611328 187.20678711 C-150.18247559 188.12468018 -151.09883789 189.04257324 -152.04296875 189.98828125 C-152.5424704 190.49210831 -153.04197205 190.99593536 -153.55661011 191.51502991 C-154.61926013 192.57806056 -155.69065083 193.63241592 -156.77001953 194.6784668 C-158.37957211 196.24369559 -159.95225905 197.83972675 -161.5234375 199.44335938 C-176.23816375 214.16081315 -193.80762259 221.88080602 -214.69921875 221.90234375 C-227.76606291 220.71913752 -239.34822652 215.40927516 -250.95019531 209.67333984 C-253.4324046 208.44997231 -255.92787857 207.25734619 -258.42578125 206.06640625 C-260.02821431 205.28563836 -261.62980959 204.50314814 -263.23046875 203.71875 C-263.96693634 203.3685379 -264.70340393 203.01832581 -265.46218872 202.65750122 C-270.79735812 199.9820354 -274.99354011 196.85365704 -277.1328125 191.02734375 C-277.69226552 185.48367289 -276.85416805 181.75131496 -273.28515625 177.3359375 C-269.49687318 173.00777834 -265.43884465 168.96537036 -260.28515625 166.3359375 C-252.99373848 165.87771169 -246.33349049 167.37884179 -239.23828125 168.9140625 C-228.72081583 171.13966872 -228.72081583 171.13966872 -218.4296875 169.1015625 C-216.12631774 167.20516336 -214.0352365 165.24278559 -211.97265625 163.0859375 C-209.43722631 160.44271664 -206.86126643 157.96337663 -204.06176758 155.6081543 C-197.13870291 149.56991835 -190.76488975 142.93804636 -184.28515625 136.43359375 C-182.83949353 134.98606316 -181.39360779 133.53875526 -179.94750977 132.09165955 C-176.16421906 128.30457273 -172.38394264 124.51449118 -168.60430908 120.72375488 C-164.7380398 116.84720866 -160.8688955 112.97353426 -157 109.09960938 C-149.42558613 101.5145095 -141.85435701 93.92623931 -134.28515625 86.3359375 C-137.44144347 86.64177696 -140.59733349 86.95154881 -143.75317383 87.26196289 C-144.63576118 87.34743629 -145.51834854 87.4329097 -146.42768097 87.52097321 C-154.65352062 88.3334851 -162.80629425 89.50484023 -170.97265625 90.7734375 C-179.23097909 92.04654486 -187.46610543 93.30404719 -195.78515625 94.1171875 C-197.49119019 94.2884314 -197.49119019 94.2884314 -199.23168945 94.46313477 C-201.32193763 94.66326324 -203.41435049 94.84242692 -205.50854492 94.99584961 C-212.11872781 95.6374649 -215.78186541 97.41622359 -220.28515625 102.3359375 C-216.93226713 103.15377028 -213.57763648 103.96422964 -210.22265625 104.7734375 C-209.27970703 105.00353516 -208.33675781 105.23363281 -207.36523438 105.47070312 C-203.34513685 106.43720741 -199.39518699 107.37917822 -195.28515625 107.859375 C-191.16768668 108.5134522 -189.72119736 110.01406326 -187.28515625 113.3359375 C-186.46887972 117.25406483 -186.98291146 118.80980767 -188.97265625 122.2734375 C-197.09638879 127.33161059 -210.44878461 122.50841954 -219.28515625 120.5234375 C-220.47238281 120.27529297 -221.65960938 120.02714844 -222.8828125 119.77148438 C-224.02621094 119.51818359 -225.16960937 119.26488281 -226.34765625 119.00390625 C-227.36988281 118.77985107 -228.39210938 118.5557959 -229.4453125 118.32495117 C-233.38360759 116.95338709 -236.25759096 114.87883765 -238.578125 111.39453125 C-240.20553645 106.65615647 -240.02057151 101.31236601 -238.28515625 96.6484375 C-235.84598947 93.82815091 -233.17218355 91.47488818 -230.296875 89.10546875 C-228.49542667 87.52089381 -227.23385854 85.97534535 -225.78515625 84.0859375 C-222.6968818 80.98557372 -219.19127671 80.48892722 -215.03125 79.80078125 C-214.32040756 79.67587814 -213.60956512 79.55097504 -212.87718201 79.42228699 C-206.25467887 78.28006574 -199.60656915 77.32185428 -192.94592285 76.43096924 C-190.7530078 76.13569308 -188.56151917 75.83119778 -186.37011719 75.52490234 C-177.38990741 74.27529038 -168.4034977 73.09279162 -159.40684509 71.9672699 C-154.23715826 71.31529348 -149.07073335 70.63936045 -143.9045105 69.96054077 C-141.33646466 69.62895984 -138.76703518 69.30791535 -136.19631958 68.99771118 C-132.55004993 68.55653363 -128.91017502 68.07890199 -125.26953125 67.59375 C-123.6325251 67.40925041 -123.6325251 67.40925041 -121.96244812 67.22102356 C-114.46316024 66.17048335 -110.43239778 63.83579922 -105.28515625 58.3359375 C-104.16355103 57.27838257 -104.16355103 57.27838257 -103.01928711 56.19946289 C-102.43542236 55.61672607 -101.85155762 55.03398926 -101.25 54.43359375 C-100.58548828 53.77037109 -99.92097656 53.10714844 -99.23632812 52.42382812 C-98.57181641 51.75544922 -97.90730469 51.08707031 -97.22265625 50.3984375 C-96.55427734 49.73392578 -95.88589844 49.06941406 -95.19726562 48.38476562 C-92.00464307 45.18593778 -88.90852789 41.95006592 -85.9609375 38.5234375 C-81.82120017 33.73267657 -77.41928151 29.21232152 -72.96191406 24.7175293 C-72.01337405 23.75746527 -71.06931744 22.79295018 -70.12988281 21.82397461 C-55.46636796 6.70254469 -21.59842863 -12.87686443 0 0 Z " fill="#465C65" transform="translate(486.28515625,84.6640625)"/>
<path d="M0 0 C1.5625 2.4375 1.5625 2.4375 1.5078125 5.71484375 C0.37242797 10.18600679 -1.70009511 12.42366745 -5 15.4375 C-5.75120117 16.16066406 -5.75120117 16.16066406 -6.51757812 16.8984375 C-8.63546116 18.9175038 -10.7857454 20.88768616 -13.02259827 22.77467346 C-19.55440002 28.29837936 -25.50307448 34.40413852 -31.51916122 40.47456169 C-33.52546123 42.49840849 -35.53541966 44.51855646 -37.54641724 46.53773499 C-43.25758907 52.27324185 -48.96291289 58.01454117 -54.6640625 63.76000977 C-58.16388622 67.2865312 -61.66849748 70.80823474 -65.17615128 74.32696724 C-66.51054626 75.66758304 -67.84303915 77.01009485 -69.17361069 78.35450554 C-71.02385595 80.22385092 -72.88007256 82.08706215 -74.73779297 83.94897461 C-75.28842911 84.50837234 -75.83906525 85.06777008 -76.40638733 85.64411926 C-80.20960059 89.4375 -80.20960059 89.4375 -82.4375 89.4375 C-84.67414691 101.30893359 -85.91959859 113.32030304 -87.3125 125.3125 C-87.57982855 127.59537824 -87.84716259 129.87825584 -88.11450195 132.16113281 C-89.61630698 145.04281979 -91.0487574 157.92979581 -92.38085938 170.83010864 C-92.62245993 173.16297344 -92.86722168 175.49548245 -93.11328125 177.82788086 C-93.19154144 178.56980179 -93.26980164 179.31172272 -93.35043335 180.0761261 C-93.50262127 181.51745941 -93.65498017 182.95877468 -93.80752563 184.40007019 C-94.15031971 187.65153547 -94.48269836 190.90348955 -94.79833984 194.15771484 C-95.1136651 197.39969529 -95.45885718 200.63701572 -95.8125 203.875 C-95.89008545 204.76864258 -95.9676709 205.66228516 -96.04760742 206.58300781 C-96.74233057 212.54786193 -98.73134966 216.56058888 -103.4375 220.4375 C-104.0975 220.4375 -104.7575 220.4375 -105.4375 220.4375 C-105.5347084 219.88517197 -105.63191681 219.33284393 -105.73207092 218.76377869 C-106.03164424 217.06185572 -106.33127164 215.35994227 -106.63093567 213.65803528 C-106.99007255 211.61832874 -107.34910848 209.57860443 -107.70805359 207.53886414 C-108.71350699 201.82836232 -109.72241441 196.11850065 -110.73730469 190.40966797 C-114.31786093 170.2495453 -114.31786093 170.2495453 -115.9516449 160.36103821 C-116.54693671 156.76359477 -117.15618909 153.16858758 -117.76705933 149.57376099 C-118.04585923 147.90850981 -118.31752809 146.242048 -118.58181763 144.57443237 C-118.948002 142.26754957 -119.33840141 139.96598959 -119.734375 137.6640625 C-119.94416992 136.38096191 -120.15396484 135.09786133 -120.37011719 133.77587891 C-121.63905246 129.80711839 -123.21092681 128.02934746 -126.4375 125.4375 C-129.52309301 124.77028464 -129.52309301 124.77028464 -132.4375 125.4375 C-134.50783889 127.01212395 -135.34318423 127.85813168 -135.765625 130.453125 C-135.73984375 131.19046875 -135.7140625 131.9278125 -135.6875 132.6875 C-135.66171875 133.48671875 -135.6359375 134.2859375 -135.609375 135.109375 C-135.46539553 137.0596424 -135.21406005 139.00157967 -134.9375 140.9375 C-133.42591699 151.51858108 -133.42591699 151.51858108 -135.4609375 155.37890625 C-137.02658092 157.24297342 -138.24357945 158.36982203 -140.4375 159.4375 C-142.55859375 159.33203125 -142.55859375 159.33203125 -144.8125 158.875 C-148.20210426 158.26518763 -148.20210426 158.26518763 -151.3359375 159.44921875 C-153.50572368 161.33977084 -155.4632338 163.34194782 -157.4375 165.4375 C-170.79152066 179.20406932 -183.21658461 190.27244747 -203.5 190.75 C-204.52222656 190.78738281 -205.54445313 190.82476562 -206.59765625 190.86328125 C-217.71838936 189.63015825 -227.78808296 184.08403903 -237.6875 179.1875 C-239.02961187 178.53056302 -240.37205817 177.87430882 -241.71484375 177.21875 C-244.95960989 175.6328267 -248.19979688 174.03780289 -251.4375 172.4375 C-249.65234375 169.9375 -249.65234375 169.9375 -247.4375 167.4375 C-243.52732012 167.4375 -240.3234309 168.20581346 -236.5546875 169.19140625 C-224.64843171 172.21916417 -212.48090187 173.7976253 -201.4375 167.4375 C-195.45216635 162.79270204 -190.16121709 157.2831108 -184.84375 151.90625 C-184.05278931 151.11150269 -183.26182861 150.31675537 -182.44689941 149.4979248 C-179.94130477 146.98021568 -177.43899142 144.45928554 -174.9375 141.9375 C-171.6383832 138.61161811 -168.33585626 135.28917664 -165.03125 131.96875 C-164.28830688 131.21750854 -163.54536377 130.46626709 -162.77990723 129.69226074 C-161.70839417 128.61579285 -161.70839417 128.61579285 -160.61523438 127.51757812 C-159.99982788 126.89693481 -159.38442139 126.2762915 -158.75036621 125.63684082 C-156.76132312 123.74542849 -154.73203823 121.94881936 -152.65551758 120.15551758 C-148.51971738 116.55691738 -144.63161975 112.75949337 -140.77148438 108.86914062 C-140.05164871 108.1478447 -139.33181305 107.42654877 -138.59016418 106.68339539 C-137.04114893 105.13060046 -135.493289 103.5766523 -133.94648743 102.02165222 C-131.49289621 99.55519509 -129.03610532 97.0919649 -126.57849121 94.6295166 C-121.36200667 89.40165293 -116.14946275 84.16987122 -110.9375 78.9375 C-104.89373053 72.87006496 -98.8483215 66.80428261 -92.79866028 60.74272156 C-90.38823725 58.32585615 -87.98086643 55.90597913 -85.5736084 53.48596191 C-84.08372705 51.99244518 -82.59370351 50.49907027 -81.10351562 49.00585938 C-80.4435408 48.34071823 -79.78356598 47.67557709 -79.10359192 46.99028015 C-75.27488815 43.1611483 -71.33496089 39.52581567 -67.2211647 36.00405979 C-64.45585603 33.57534022 -61.92840993 30.93939843 -59.390625 28.27734375 C-58.2872332 27.14182467 -57.1830413 26.0070826 -56.078125 24.87304688 C-54.38147318 23.12722738 -52.68994276 21.37756696 -51.01171875 19.61401367 C-41.20512907 9.33230965 -31.87216485 2.64487329 -17.5625 0.0625 C-16.76070312 -0.10121094 -15.95890625 -0.26492187 -15.1328125 -0.43359375 C-4.05789818 -2.60121678 -4.05789818 -2.60121678 0 0 Z " fill="#FCFDFD" transform="translate(478.4375,99.5625)"/>
<path d="M0 0 C0.99 0.66 1.98 1.32 3 2 C3 2.66 3 3.32 3 4 C3.65355469 4.05671875 4.30710937 4.1134375 4.98046875 4.171875 C9.32677346 5.36387577 12.61088224 7.72938776 16.3125 10.25 C17.10068115 10.78214111 17.8888623 11.31428223 18.70092773 11.86254883 C29.68077369 19.39011058 39.90226601 27.64897681 49.1953125 37.1875 C51.65894581 39.66179839 53.83823911 41.48498958 57 43 C58.44083241 42.81612234 59.87836392 42.60535346 61.3125 42.375 C63.60546875 42.23046875 63.60546875 42.23046875 66 43 C67.98600347 45.22349268 69.53675236 47.20658763 71.125 49.6875 C71.7288855 50.62505127 71.7288855 50.62505127 72.3449707 51.58154297 C73.90515624 54.22973897 75.03423668 56.27771656 74.88647461 59.39501953 C73.15641095 64.47895762 68.7116924 67.95220198 64.96459961 71.66674805 C63.44882763 73.17621946 61.96160924 74.71028943 60.47460938 76.24804688 C59.50423004 77.22297516 58.53227235 78.19633549 57.55859375 79.16796875 C56.24846313 80.48704224 56.24846313 80.48704224 54.91186523 81.83276367 C48.30161509 86.75262538 39.01604383 86.80715838 31.05859375 87.875 C29.19787987 88.12999268 29.19787987 88.12999268 27.29957581 88.39013672 C24.01293801 88.83969202 20.72582656 89.28540696 17.43841553 89.72924805 C14.14012926 90.17555247 10.84257282 90.62715017 7.54492188 91.078125 C2.52925191 91.76349605 -2.48712088 92.44330946 -7.50415039 93.11865234 C-11.24812105 93.62336485 -14.98992859 94.13732516 -18.72827148 94.68212891 C-26.49510946 95.79402778 -34.09073202 96.36518541 -41.9375 96.375 C-42.99517578 96.39949219 -44.05285156 96.42398438 -45.14257812 96.44921875 C-53.28674539 96.47966424 -57.81469996 94.62797909 -64.6875 90.3125 C-66.95283705 88.04716295 -67.99580938 86.25700887 -69.4375 83.4375 C-71.6320469 79.20070914 -73.53395608 77.84467031 -78 76 C-80.52351674 73.64471771 -80.95140809 72.30369946 -81.5 68.875 C-80.61981244 62.05354638 -78.66711247 57.13442981 -73.18359375 52.74609375 C-68.12908208 49.35925285 -62.84894868 46.42425554 -57.43359375 43.66015625 C-45.40789424 37.28040161 -40.32506477 30.50818288 -34.9675293 18.08886719 C-31.38744804 10.35957745 -26.43909154 5.7317589 -18.5 2.8125 C-16.66824487 2.20356519 -14.83507027 1.59887024 -13 1 C-11.9275 0.566875 -10.855 0.13375 -9.75 -0.3125 C-6.19311467 -1.20172133 -3.55518689 -0.80494798 0 0 Z " fill="#55FA9B" transform="translate(323,66)"/>
<path d="M0 0 C2.56528774 2.16446153 2.92522904 3.43027781 3.359375 6.73828125 C2.88987569 10.99949783 0.93339432 13.33952765 -1.75 16.5 C-2.48839111 17.40359253 -2.48839111 17.40359253 -3.24169922 18.32543945 C-4.81008639 20.23259627 -6.40075037 22.11867264 -8 24 C-8.51272461 24.60505371 -9.02544922 25.21010742 -9.55371094 25.83349609 C-12.07096278 28.79595978 -14.60542147 31.7427147 -17.15234375 34.6796875 C-19.73482536 37.66883874 -22.21811991 40.72899582 -24.6875 43.8125 C-28.10891373 48.03203737 -31.73840213 51.88402809 -35.6640625 55.63671875 C-37.54269655 57.53734349 -39.26384415 59.45545489 -40.99609375 61.484375 C-45.66765861 66.86881665 -50.72252281 71.87221211 -55.76977539 76.90014648 C-57.43426277 78.5592732 -59.09333447 80.22368051 -60.75195312 81.88867188 C-67.14303401 88.28387076 -73.58636442 94.51014861 -80.6875 100.125 C-83.06107924 101.98314522 -83.06107924 101.98314522 -85.25 104.25 C-91.89679417 110.89679417 -99.08603868 116.77536894 -106.625 122.375 C-107.500354 123.02637939 -108.37570801 123.67775879 -109.27758789 124.34887695 C-143.95158058 149.98602169 -188.01612121 176.47094774 -232.9140625 169.7890625 C-242.67144426 168.0736297 -251.16803689 163.97458055 -259 158 C-259.59039062 157.58492187 -260.18078125 157.16984375 -260.7890625 156.7421875 C-275.65189048 145.40843283 -281.66534791 125.38567372 -284.51904297 107.80175781 C-285.01118933 103.91155317 -285.19522238 100.0862183 -285.23828125 96.171875 C-285.24793915 95.43317169 -285.25759705 94.69446838 -285.26754761 93.93338013 C-285.29235196 91.53886857 -285.30495096 89.14462626 -285.3125 86.75 C-285.31545074 85.93130432 -285.31840149 85.11260864 -285.32144165 84.269104 C-285.35928393 37.94451147 -285.35928393 37.94451147 -276.53564453 27.22021484 C-273.92350171 25.14462028 -271.38007791 25.46937412 -268.1640625 25.58984375 C-266 26 -266 26 -263.4375 28.0625 C-260.23745461 34.60172318 -262.59660952 42.0359946 -263.9375 48.875 C-266.15601853 60.33603919 -267.20864868 71.28318727 -267.24023438 82.95410156 C-267.24988759 85.10001191 -267.28097479 87.24494021 -267.3125 89.390625 C-267.45693232 108.22186793 -263.69505819 127.72151487 -250.27734375 141.80859375 C-240.504361 150.73562355 -227.96665786 153.30279283 -215 153 C-180.01738698 150.41749732 -148.60508722 130.04820285 -121 110 C-119.66286661 109.03761286 -118.32562864 108.075371 -116.98828125 107.11328125 C-106.73704515 99.70376885 -96.93335738 91.89274114 -87.58984375 83.35473633 C-86.00672534 81.91533427 -84.41578 80.48440825 -82.81152344 79.06860352 C-75.985919 73.03402159 -69.5223561 66.67576935 -63.09448242 60.22485352 C-61.3082533 58.4332405 -59.51670653 56.64706945 -57.72460938 54.86132812 C-51.93520002 49.07528039 -46.29536783 43.24764247 -41 37 C-39.54554483 35.39231627 -38.08779105 33.78760285 -36.625 32.1875 C-31.31432207 26.29568728 -26.33304428 20.15257987 -21.36962891 13.96875 C-20.19276024 12.50298086 -19.01452293 11.03830962 -17.83496094 9.57470703 C-16.66697869 8.12518636 -15.50218169 6.67309246 -14.34082031 5.21826172 C-13.80682617 4.55584473 -13.27283203 3.89342773 -12.72265625 3.2109375 C-12.00734741 2.31834229 -12.00734741 2.31834229 -11.27758789 1.40771484 C-8.13654696 -2.05325248 -4.14376013 -1.08466523 0 0 Z " fill="#455A64" transform="translate(301,321)"/>
<path d="M0 0 C-9.24649225 9.26971274 -18.495721 18.53668547 -27.74840546 27.80021763 C-32.04519554 32.10221534 -36.34105493 36.40513374 -40.63476562 40.71020508 C-44.78225754 44.86860138 -48.93222237 49.02451517 -53.08387756 53.17875481 C-54.66349198 54.76020989 -56.24222934 56.34254153 -57.8200531 57.92578316 C-60.03849221 60.15153301 -62.26009418 62.37408091 -64.48242188 64.59594727 C-65.12691284 65.24403351 -65.77140381 65.89211975 -66.4354248 66.55984497 C-70.23887835 70.35482197 -74.15741517 73.95429116 -78.23963165 77.44828701 C-79.84526853 78.86360876 -81.3329602 80.33012708 -82.8125 81.875 C-86.53705771 85.49314178 -90.17188081 85.24141215 -95.08496094 85.19140625 C-100.37041884 84.84435441 -105.46733178 83.65937864 -110.625 82.5 C-111.72457031 82.26152344 -112.82414062 82.02304688 -113.95703125 81.77734375 C-116.64017293 81.19405208 -119.32088641 80.60147284 -122 80 C-122.04390869 79.18450684 -122.08781738 78.36901367 -122.13305664 77.52880859 C-122.20387451 76.45453613 -122.27469238 75.38026367 -122.34765625 74.2734375 C-122.41218994 73.21044434 -122.47672363 72.14745117 -122.54321289 71.05224609 C-123.26755794 66.21218102 -125.38965146 63.2132102 -129 60 C-131.52078862 58.35209315 -134.04613024 56.88437925 -136.73046875 55.51953125 C-140.05388946 53.29438382 -141.48977546 50.67291802 -142.64453125 46.88671875 C-143.34171445 37.75848284 -137.42538164 29.90889233 -132 23 C-129.68828538 20.39932106 -128.21125163 19.1604566 -124.7331543 18.69970703 C-122.03836505 18.6059532 -119.38192143 18.65098239 -116.6875 18.75 C-115.75615234 18.76804688 -114.82480469 18.78609375 -113.86523438 18.8046875 C-111.57575803 18.85165112 -109.28841816 18.91730525 -107 19 C-106.67 17.68 -106.34 16.36 -106 15 C-105.91363281 15.66386719 -105.82726562 16.32773438 -105.73828125 17.01171875 C-105.59777344 17.89472656 -105.45726562 18.77773437 -105.3125 19.6875 C-105.18488281 20.55761719 -105.05726563 21.42773438 -104.92578125 22.32421875 C-103.65786158 25.98888108 -102.03620327 27.59633908 -99 30 C-96.30878372 30.92880133 -93.94907391 31.58944494 -91.1875 32.125 C-90.44773926 32.28258789 -89.70797852 32.44017578 -88.94580078 32.60253906 C-86.63409074 33.08813061 -84.3179628 33.54530576 -82 34 C-80.52462682 34.304141 -79.04936334 34.6088147 -77.57421875 34.9140625 C-68.36752102 36.76152082 -68.36752102 36.76152082 -59 37 C-56.43661311 35.52006844 -56.43661311 35.52006844 -55 33 C-54.64542635 29.52517825 -54.8945914 27.31622581 -56 24 C-58.75636079 23.17339566 -61.37334168 22.54445489 -64.1875 22 C-64.9923584 21.83338867 -65.7972168 21.66677734 -66.62646484 21.49511719 C-68.27871458 21.15363265 -69.93205745 20.81739654 -71.58642578 20.48632812 C-75.10732197 19.77687787 -78.61502984 19.01163119 -82.125 18.25 C-84.08317936 17.8326103 -86.04144874 17.4156411 -88 17 C-87.04578192 15.85073734 -86.08647955 14.70569459 -85.125 13.5625 C-84.59132813 12.92441406 -84.05765625 12.28632813 -83.5078125 11.62890625 C-80.79375626 8.69688177 -78.10991962 8.6640681 -74.26171875 8.16796875 C-73.06313232 8.01118652 -71.8645459 7.8544043 -70.62963867 7.69287109 C-68.67828003 7.4427124 -68.67828003 7.4427124 -66.6875 7.1875 C-63.94771039 6.83100126 -61.20824398 6.47204375 -58.46875 6.11328125 C-57.76715256 6.02175781 -57.06555511 5.93023437 -56.34269714 5.8359375 C-49.11835762 4.89108054 -41.90333718 3.88265989 -34.6875 2.875 C-18.23288914 0.60053464 -18.23288914 0.60053464 -10.9375 -0.3125 C-9.66777344 -0.47363281 -8.39804687 -0.63476562 -7.08984375 -0.80078125 C-4.30690034 -0.98021249 -2.62310639 -0.74394005 0 0 Z " fill="#55F99A" transform="translate(353,171)"/>
<path d="M0 0 C2.4375 1.5 2.4375 1.5 4 4 C4.8032596 9.06053551 4.8032596 9.06053551 4 12 C2.17787297 14.19603171 0.41222884 15.39184744 -2 17 C22.94036838 33.62691226 69.66147891 28.99443101 97.29638672 23.54736328 C100.36316344 22.90205797 103.41185911 22.20973261 106.453125 21.453125 C109 21 109 21 112 22 C107.73490138 26.28999368 103.46639432 30.57655737 99.19482422 34.86010742 C97.74501083 36.31492017 96.29609983 37.77063283 94.84814453 39.22729492 C92.75535357 41.33234551 90.65923626 43.43403619 88.5625 45.53515625 C87.60730469 46.49809349 87.60730469 46.49809349 86.6328125 47.48048401 C82.25517109 51.85865869 77.69992696 55.97142469 73 60 C71.75367052 61.07915489 70.50754363 62.15854386 69.26171875 63.23828125 C68.0706711 64.26343761 66.87926807 65.28818123 65.6875 66.3125 C65.08099609 66.83650391 64.47449219 67.36050781 63.84960938 67.90039062 C63.26373047 68.40376953 62.67785156 68.90714844 62.07421875 69.42578125 C61.55432373 69.87348877 61.03442871 70.32119629 60.4987793 70.7824707 C56.55273713 73.98802735 56.55273713 73.98802735 53.8359375 74.046875 C51.21830677 73.73109732 48.60950585 73.37709622 46 73 C45.16984375 72.93296875 44.3396875 72.8659375 43.484375 72.796875 C41.02717082 72.48769037 39.19476469 72.15923897 37 71 C35.97265625 69.04296875 35.97265625 69.04296875 35.1875 66.6875 C34.07961418 63.61385218 33.49037545 62.31001702 30.6953125 60.54296875 C27.49621656 59.24685806 24.26671947 58.11494556 21 57 C18.25432023 55.95658655 15.5315586 54.86075907 12.8125 53.75 C12.09513672 53.45706055 11.37777344 53.16412109 10.63867188 52.86230469 C-2.70462853 47.30358282 -15.01575541 40.03381214 -27 32 C-26.38367054 27.04001528 -24.20164371 23.06328034 -21.9375 18.6875 C-21.37192383 17.57665039 -21.37192383 17.57665039 -20.79492188 16.44335938 C-19.86871843 14.62612478 -18.93509371 12.81267596 -18 11 C-17.236875 11.495 -16.47375 11.99 -15.6875 12.5 C-13.07636249 14.24368308 -13.07636249 14.24368308 -10 14 C-10.66 13.01 -11.32 12.02 -12 11 C-11.8616853 7.19634586 -11.49915469 4.74873203 -9.375 1.5625 C-6.0382229 -0.63274809 -3.91451456 -0.55921637 0 0 Z " fill="#64C6E9" transform="translate(138,348)"/>
<path d="M0 0 C2.5 1.625 2.5 1.625 4 4 C3.75372633 9.59107795 2.30851646 12.57484273 -1.1875 16.875 C-1.62529785 17.41962891 -2.0630957 17.96425781 -2.51416016 18.52539062 C-3.47766965 19.71852933 -4.44804691 20.90614643 -5.42431641 22.08886719 C-7.08375943 24.10159107 -8.72036233 26.13153113 -10.35546875 28.1640625 C-16.70903275 36.01713161 -23.24756528 43.62892037 -30.18359375 50.97265625 C-32.26333554 53.17763931 -34.25000908 55.44496019 -36.22265625 57.74609375 C-41.37165024 63.66367819 -47.03252019 69.07681093 -52.6171875 74.578125 C-57.09906413 79.01913345 -61.4020219 83.51916655 -65.51123047 88.30664062 C-68.97610132 92.24766133 -73.04507915 95.56660718 -77 99 C-78.0521749 99.92697941 -79.10425424 100.8540673 -80.15625 101.78125 C-88.46409166 109.05151948 -97.09334677 115.83517509 -105.93017578 122.44921875 C-107.87487193 123.90624988 -109.81086195 125.37418817 -111.74609375 126.84375 C-161.43907011 164.28210849 -161.43907011 164.28210849 -181 162 C-183.5 160.5 -183.5 160.5 -185 158 C-185.54686219 155.22011721 -185.72991469 152.74791413 -185 150 C-181.71113199 145.50315634 -176.7835263 143.95395472 -171.8125 141.875 C-144.60944933 130.02299745 -120.11547342 111.76119243 -97.83203125 92.33984375 C-95 90 -95 90 -92.1015625 88.1171875 C-88.22975705 85.47421703 -84.95276672 82.41221961 -81.5625 79.1875 C-80.93279297 78.59646484 -80.30308594 78.00542969 -79.65429688 77.39648438 C-75.89823931 73.85660279 -72.22345586 70.24796763 -68.60717773 66.56542969 C-66.97010267 64.97087928 -65.26652662 63.51127043 -63.5 62.0625 C-60.2949884 59.36915323 -57.65473288 56.38894389 -54.94921875 53.203125 C-52.72931788 50.69405869 -50.38496498 48.35249193 -48 46 C-43.78405054 41.82208918 -39.83286329 37.52831065 -36 33 C-35.17886719 32.04480469 -34.35773438 31.08960938 -33.51171875 30.10546875 C-28.11398257 23.80503949 -22.87935925 17.39915988 -17.79199219 10.84521484 C-7.98156673 -1.78897185 -7.98156673 -1.78897185 0 0 Z " fill="#445A64" transform="translate(339,334)"/>
<path d="M0 0 C3 1 3 1 4.25 3.25 C5.13268171 6.48649962 5.01150035 7.80917618 4 11 C2.39069273 13.16681728 0.79569498 15.12781483 -1 17.125 C-2.01658139 18.28692435 -3.03219433 19.44969668 -4.046875 20.61328125 C-4.55154297 21.18771973 -5.05621094 21.7621582 -5.57617188 22.35400391 C-7.53605682 24.61970081 -9.38916333 26.96514687 -11.25 29.3125 C-18.52269358 38.25239951 -26.56801425 46.62002641 -34.74609375 54.734375 C-37.09703591 57.07080517 -39.31946431 59.44735439 -41.4375 62 C-44.33768784 65.36421789 -47.44791206 68.21892743 -50.83203125 71.0859375 C-53.33102333 73.29225484 -55.65910047 75.62683693 -58 78 C-70.73699675 90.83497365 -70.73699675 90.83497365 -77.93261719 91.11352539 C-79.04282227 91.10828857 -80.15302734 91.10305176 -81.296875 91.09765625 C-83.10478516 91.09282227 -83.10478516 91.09282227 -84.94921875 91.08789062 C-86.20347656 91.07951172 -87.45773438 91.07113281 -88.75 91.0625 C-90.01972656 91.05798828 -91.28945312 91.05347656 -92.59765625 91.04882812 C-95.73181836 91.03704556 -98.86588541 91.02059416 -102 91 C-101.24332031 90.24460937 -100.48664063 89.48921875 -99.70703125 88.7109375 C-98.21980918 87.22156937 -96.7350409 85.72968218 -95.26171875 84.2265625 C-92.4454549 81.36138091 -89.59105124 78.61491484 -86.5234375 76.01953125 C-81.29350818 71.46799124 -76.41687938 66.56689118 -71.52709961 61.6574707 C-69.94040054 60.06541034 -68.34842258 58.4787701 -66.75585938 56.89257812 C-61.8362119 51.97614514 -57.00881396 47.02248564 -52.48706055 41.73217773 C-50.21267962 39.08290296 -47.81997556 36.55240468 -45.4375 34 C-41.73440032 30.02771006 -38.35221754 26.00361636 -35.4140625 21.42578125 C-34 20 -34 20 -31.83984375 19.57421875 C-27.70930882 18.73902118 -24.52530486 16.65292333 -20.9375 14.5 C-20.19032715 14.05873779 -19.4431543 13.61747559 -18.67333984 13.1628418 C-12.87414612 9.6767398 -7.55459757 5.79881445 -2.3203125 1.51953125 C-1.17175781 0.76736328 -1.17175781 0.76736328 0 0 Z " fill="#64C6E8" transform="translate(319,333)"/>
<path d="M0 0 C0.33 0 0.66 0 1 0 C2.14650428 6.43998549 3.28498878 12.88135201 4.41796875 19.32373047 C4.80415291 21.51415924 5.19215647 23.70426808 5.58203125 25.89404297 C6.14283816 29.04572056 6.6970434 32.19849934 7.25 35.3515625 C7.42499023 36.32678864 7.59998047 37.30201477 7.78027344 38.30679321 C9.89408381 50.45522187 9.89408381 50.45522187 7.59375 54.4296875 C-0.49697501 63.87892977 -9.12373071 73.50462085 -18.859375 81.28515625 C-21.215421 82.99534978 -21.215421 82.99534978 -23 86 C-23.39832031 84.95199219 -23.79664063 83.90398437 -24.20703125 82.82421875 C-24.74177173 81.44515121 -25.27695102 80.06625377 -25.8125 78.6875 C-26.07353516 77.99720703 -26.33457031 77.30691406 -26.60351562 76.59570312 C-28.35161147 72.12834708 -29.66848094 69.16575953 -34 67 C-37.06328992 66.89102551 -40.10787658 66.83856227 -43.171875 66.82421875 C-45.05209445 66.80101447 -46.93230282 66.77689688 -48.8125 66.75195312 C-51.77937166 66.7168785 -54.74583714 66.68751887 -57.71289062 66.67407227 C-60.57472126 66.65856034 -63.43536057 66.61832334 -66.296875 66.57421875 C-67.61906036 66.57708138 -67.61906036 66.57708138 -68.96795654 66.58000183 C-75.32003252 66.45439473 -79.106558 64.93381561 -83.6796875 60.296875 C-84.78645833 58.86458333 -85.89322917 57.43229167 -87 56 C-84.11953898 54.55976949 -82.17914713 55.69454192 -79.20263672 56.48876953 C-64.23309045 59.96319093 -47.38310694 55.39910414 -34.453125 47.6953125 C-30.49139292 44.95742759 -26.99774629 41.88306986 -23.56201172 38.51367188 C-21.67317228 36.68328667 -19.74314275 34.89980812 -17.81640625 33.109375 C-16.33434867 31.69958506 -14.85388529 30.28811736 -13.375 28.875 C-12.65094971 28.2061377 -11.92689941 27.53727539 -11.1809082 26.84814453 C-6.96865691 22.77065178 -6.96865691 22.77065178 -5.4765625 17.1953125 C-5.91454961 13.99184342 -5.91454961 13.99184342 -7 11 C-6.030625 10.113125 -5.06125 9.22625 -4.0625 8.3125 C-1.39877758 5.67384791 -0.2268637 3.85668285 0 0 Z " fill="#55F89B" transform="translate(344,248)"/>
<path d="M0 0 C2.47510322 0.24468701 4.61601949 0.8967811 6.9921875 1.640625 C9.55279025 2.19129226 12.10773657 2.71331672 14.6796875 3.203125 C15.35974854 3.33895996 16.03980957 3.47479492 16.74047852 3.61474609 C23.52490592 4.89934307 30.09122854 4.93175921 36.9921875 4.640625 C33.97716284 9.52244626 30.5123507 13.43547767 26.4296875 17.453125 C25.80618408 18.06913574 25.18268066 18.68514648 24.5402832 19.31982422 C19.28496945 24.45473593 13.85627002 29.2060567 7.9921875 33.640625 C7.43354004 34.0752002 6.87489258 34.50977539 6.29931641 34.95751953 C-12.37733607 49.392441 -37.19787335 64.46347456 -61.0078125 67.640625 C-55.25666712 60.68070029 -48.8659798 54.44243495 -42.43945312 48.11132812 C-37.40421948 43.12176553 -32.61591143 38.0247129 -28.0078125 32.640625 C-26.53246714 31.01215483 -25.0538782 29.38660983 -23.5703125 27.765625 C-18.2877039 21.90201884 -13.15532467 15.91759796 -8.82421875 9.30859375 C-3.39365552 1.08280059 -3.39365552 1.08280059 0 0 Z " fill="#65C7E9" transform="translate(339.0078125,349.359375)"/>
<path d="M0 0 C-0.37125 1.5778125 -0.37125 1.5778125 -0.75 3.1875 C-1.41054082 7.04678619 -1.41054082 7.04678619 0.984375 9.73828125 C1.64953125 10.48464844 2.3146875 11.23101562 3 12 C2.37955811 12.29245605 1.75911621 12.58491211 1.11987305 12.88623047 C-1.69208036 14.21337351 -4.50230246 15.54414324 -7.3125 16.875 C-8.28896484 17.33519531 -9.26542969 17.79539062 -10.27148438 18.26953125 C-11.20927734 18.71425781 -12.14707031 19.15898438 -13.11328125 19.6171875 C-13.97735596 20.02565918 -14.84143066 20.43413086 -15.73168945 20.85498047 C-18.1840892 22.03588682 -18.1840892 22.03588682 -21 24 C-23.49833098 24.19895696 -25.93664172 24.3270449 -28.4375 24.375 C-33.83424431 24.39761266 -33.83424431 24.39761266 -38.4609375 26.80078125 C-40.34279019 29.07438888 -40.34279019 29.07438888 -40.1875 32.8125 C-40.4163607 35.63164774 -40.70856199 36.69920389 -42.703125 38.7578125 C-44.24540444 39.91721837 -45.81113396 41.04584925 -47.39453125 42.1484375 C-50.16591553 44.11790699 -52.61846714 46.267084 -55.125 48.5625 C-57.93163964 51.13055358 -60.75080723 53.64482005 -63.6875 56.0625 C-67.5498452 59.36924102 -70.77597329 63.07701437 -74 67 C-74.825 67.99902344 -75.65 68.99804688 -76.5 70.02734375 C-99.00786235 97.73276406 -112.99001437 129.05628376 -120 164 C-120.33 164 -120.66 164 -121 164 C-121.37076303 155.14991654 -120.37126386 147.12742316 -118.4375 138.5 C-118.1679248 137.27821045 -117.89834961 136.0564209 -117.62060547 134.79760742 C-110.96092522 105.66198391 -98.01081435 79.08203158 -79 56 C-78.54544434 55.43861328 -78.09088867 54.87722656 -77.62255859 54.29882812 C-60.66121611 33.42153933 -39.99614359 17.14858015 -16 5 C-15.01169189 4.49654053 -15.01169189 4.49654053 -14.00341797 3.98291016 C-3.66529338 -1.22176446 -3.66529338 -1.22176446 0 0 Z " fill="#F9FBFA" transform="translate(154,47)"/>
<path d="M0 0 C3.0766616 2.12999649 3.85763576 3.25654231 4.5625 6.9375 C3.79868824 11.09603068 2.255126 12.34575384 -1 15 C-2.84676003 15.41461966 -4.69833767 15.82287127 -6.57080078 16.09912109 C-11.59405928 16.92657965 -15.54617395 18.0873101 -18.71875 22.26123047 C-21.4033843 26.90648676 -23.50526298 31.73527987 -25.5703125 36.6796875 C-30.69218117 48.42170739 -39.82979796 52.7075451 -50.71313477 58.44238281 C-59.86017236 62.83453034 -59.86017236 62.83453034 -65.20703125 70.9140625 C-65.37875854 72.01548584 -65.37875854 72.01548584 -65.55395508 73.13916016 C-66 75 -66 75 -69 77 C-72.01550927 77.33505659 -74.09883544 77.56038591 -77 77 C-80.11353131 74.43133667 -80.86426392 72.76917113 -81.5625 68.8125 C-80.56260825 62.03545595 -78.65285693 57.12302143 -73.18359375 52.74609375 C-68.12908208 49.35925285 -62.84894868 46.42425554 -57.43359375 43.66015625 C-45.40789424 37.28040161 -40.32506477 30.50818288 -34.9675293 18.08886719 C-31.38744804 10.35957745 -26.43909154 5.7317589 -18.5 2.8125 C-16.66824487 2.20356519 -14.83507027 1.59887024 -13 1 C-11.9275 0.566875 -10.855 0.13375 -9.75 -0.3125 C-6.12670748 -1.21832313 -3.60556257 -0.93477548 0 0 Z " fill="#455C66" transform="translate(323,66)"/>
<path d="M0 0 C-4.7620815 5.04151609 -9.56720365 10.03896159 -14.40429688 15.00854492 C-16.04370108 16.70318992 -17.67308808 18.4075866 -19.29199219 20.12182617 C-21.62455444 22.58818877 -23.99120407 25.01693688 -26.3671875 27.44140625 C-27.08115692 28.21214981 -27.79512634 28.98289337 -28.5307312 29.7769928 C-33.61228262 34.86457584 -33.61228262 34.86457584 -37.65921021 35.25950623 C-40.18931863 35.02148972 -42.53554462 34.60911806 -45 34 C-45.97195313 33.82339844 -46.94390625 33.64679688 -47.9453125 33.46484375 C-49.96354167 32.9765625 -51.98177083 32.48828125 -54 32 C-54.66 29.36 -55.32 26.72 -56 24 C-66.65696982 21.61970175 -77.31822282 19.26687233 -88 17 C-87.04578192 15.85073734 -86.08647955 14.70569459 -85.125 13.5625 C-84.59132813 12.92441406 -84.05765625 12.28632813 -83.5078125 11.62890625 C-80.79375626 8.69688177 -78.10991962 8.6640681 -74.26171875 8.16796875 C-73.06313232 8.01118652 -71.8645459 7.8544043 -70.62963867 7.69287109 C-68.67828003 7.4427124 -68.67828003 7.4427124 -66.6875 7.1875 C-63.94771039 6.83100126 -61.20824398 6.47204375 -58.46875 6.11328125 C-57.76715256 6.02175781 -57.06555511 5.93023437 -56.34269714 5.8359375 C-49.11835762 4.89108054 -41.90333718 3.88265989 -34.6875 2.875 C-18.23288914 0.60053464 -18.23288914 0.60053464 -10.9375 -0.3125 C-9.66777344 -0.47363281 -8.39804687 -0.63476562 -7.08984375 -0.80078125 C-4.30690034 -0.98021249 -2.62310639 -0.74394005 0 0 Z " fill="#E9EDEF" transform="translate(353,171)"/>
<path d="M0 0 C34.74040894 -0.54281889 70.70232564 9.13090258 100 28 C100.94166016 28.60448975 100.94166016 28.60448975 101.90234375 29.22119141 C120.04601453 40.97655705 136.12892191 55.41406451 150 72 C149.67 72.66 149.34 73.32 149 74 C148.33097656 73.28457031 147.66195312 72.56914063 146.97265625 71.83203125 C134.76060461 59.05147258 118.05553556 43.68517852 101 38 C100.52780029 37.52216064 100.05560059 37.04432129 99.5690918 36.55200195 C97.76530915 34.76786529 96.25020492 34.08773799 93.89453125 33.16796875 C92.67963013 32.68710815 92.67963013 32.68710815 91.44018555 32.1965332 C90.57304932 31.86355225 89.70591309 31.53057129 88.8125 31.1875 C87.91120361 30.8371167 87.00990723 30.4867334 86.08129883 30.12573242 C84.2458334 29.41371661 82.40916498 28.70479391 80.57128906 27.99902344 C78.34439315 27.13380714 76.13532492 26.23793775 73.9296875 25.3203125 C50.36508465 15.69718347 25.14723141 13.88563002 0 13 C0 8.71 0 4.42 0 0 Z " fill="#F9FBFC" transform="translate(225,32)"/>
<path d="M0 0 C0.928125 0.495 1.85625 0.99 2.8125 1.5 C-0.23754147 6.47996845 -3.81057983 10.32856535 -8 14.375 C-11.82470684 18.12454885 -15.60586491 21.83926211 -19.0625 25.9375 C-21.79936588 29.16577322 -24.7942469 31.85349157 -28.01953125 34.5859375 C-30.51852333 36.79225484 -32.84660047 39.12683693 -35.1875 41.5 C-38.28537789 44.61697113 -41.38935951 47.71308553 -44.625 50.6875 C-45.24246094 51.25855469 -45.85992187 51.82960938 -46.49609375 52.41796875 C-47.05425781 52.77503906 -47.61242187 53.13210938 -48.1875 53.5 C-49.1775 53.17 -50.1675 52.84 -51.1875 52.5 C-48.70428472 46.91009469 -46.21384848 41.32348438 -43.71679688 35.73974609 C-42.86912204 33.84153682 -42.02339369 31.94245703 -41.1796875 30.04248047 C-39.96350116 27.30462703 -38.74024598 24.57002673 -37.515625 21.8359375 C-37.14254211 20.99195404 -36.76945923 20.14797058 -36.3850708 19.27841187 C-33.51113183 12.89013924 -30.85852737 7.10355973 -24.75 3.25 C-24.00878906 2.77046875 -23.26757812 2.2909375 -22.50390625 1.796875 C-15.45524303 -2.14942549 -7.60461374 -3.26797047 0 0 Z " fill="#43E687" transform="translate(296.1875,369.5)"/>
<path d="M0 0 C5.78349553 0.35728158 10.99339778 2.17176023 16.4375 4.0625 C17.67790039 4.48499023 17.67790039 4.48499023 18.94335938 4.91601562 C20.96412338 5.60517792 22.98233282 6.3018231 25 7 C25 8.32 25 9.64 25 11 C22.98158237 12.76375746 21.11975433 14.1364444 18.875 15.5625 C18.21338867 15.99087158 17.55177734 16.41924316 16.87011719 16.8605957 C1.08648456 26.80356519 -18.23065798 37.56473727 -37 40 C-31.24885462 33.04007529 -24.8581673 26.80180995 -18.43164062 20.47070312 C-9.54858475 11.76922703 -9.54858475 11.76922703 -2 1.9375 C-1.34 1.298125 -0.68 0.65875 0 0 Z " fill="#45E58C" transform="translate(315,377)"/>
<path d="M0 0 C0 4.29 0 8.58 0 13 C-8.86118774 14.66934698 -17.54482857 16.28783623 -26.58203125 16.59375 C-29.44268749 17.07437722 -30.78142223 18.19048755 -33 20 C-33.66 20 -34.32 20 -35 20 C-35.309375 19.0925 -35.61875 18.185 -35.9375 17.25 C-38.76194955 12.79935222 -42.16213617 11.72418627 -47 10 C-37.65609232 0.65609232 -12.75352069 -0.27725045 0 0 Z " fill="#FAFBFB" transform="translate(209,33)"/>
<path d="M0 0 C4.27459069 3.15221213 8.46350565 6.37193431 12.5625 9.75 C22.96754524 18.09637831 34.17256459 24.88694349 46 31 C42.535 38.425 42.535 38.425 39 46 C33.86731094 43.43365547 30.52629463 39.90922123 26.5 35.875 C25.69989502 35.07400879 24.89979004 34.27301758 24.07543945 33.44775391 C0 8.89598006 0 8.89598006 0 0 Z " fill="#43E685" transform="translate(60,322)"/>
<path d="M0 0 C0.66 -0.0103125 1.32 -0.020625 2 -0.03125 C4.91796104 0.7438334 6.0931088 2.19104167 8 4.5 C8.51757812 7.09375 8.51757812 7.09375 8.53125 10 C8.53640625 11.051875 8.5415625 12.10375 8.546875 13.1875 C8.53140625 14.280625 8.5159375 15.37375 8.5 16.5 C8.51546875 17.593125 8.5309375 18.68625 8.546875 19.8125 C8.54171875 20.864375 8.5365625 21.91625 8.53125 23 C8.52673828 23.9590625 8.52222656 24.918125 8.51757812 25.90625 C7.857725 29.21298564 6.58886445 30.40908706 4 32.5 C2 33.03125 2 33.03125 0 33 C-0.99 33.01546875 -0.99 33.01546875 -2 33.03125 C-4.91796104 32.2561666 -6.0931088 30.80895833 -8 28.5 C-8.51757812 25.90625 -8.51757812 25.90625 -8.53125 23 C-8.53640625 21.948125 -8.5415625 20.89625 -8.546875 19.8125 C-8.53140625 18.719375 -8.5159375 17.62625 -8.5 16.5 C-8.51546875 15.406875 -8.5309375 14.31375 -8.546875 13.1875 C-8.53914063 11.6096875 -8.53914063 11.6096875 -8.53125 10 C-8.52673828 9.0409375 -8.52222656 8.081875 -8.51757812 7.09375 C-7.60329874 2.51200272 -4.67433964 -0.07303656 0 0 Z " fill="#455A63" transform="translate(456,415.5)"/>
<path d="M0 0 C1.051875 -0.00515625 2.10375 -0.0103125 3.1875 -0.015625 C4.280625 -0.00015625 5.37375 0.0153125 6.5 0.03125 C8.1396875 0.00804687 8.1396875 0.00804687 9.8125 -0.015625 C10.864375 -0.01046875 11.91625 -0.0053125 13 0 C14.43859375 0.00676758 14.43859375 0.00676758 15.90625 0.01367188 C19.21298564 0.673525 20.40908706 1.94238555 22.5 4.53125 C23.03125 6.53125 23.03125 6.53125 23 8.53125 C23.0103125 9.19125 23.020625 9.85125 23.03125 10.53125 C22.2561666 13.44921104 20.80895833 14.6243588 18.5 16.53125 C15.90625 17.04882812 15.90625 17.04882812 13 17.0625 C11.948125 17.06765625 10.89625 17.0728125 9.8125 17.078125 C8.719375 17.06265625 7.62625 17.0471875 6.5 17.03125 C4.8603125 17.05445313 4.8603125 17.05445313 3.1875 17.078125 C2.135625 17.07296875 1.08375 17.0678125 0 17.0625 C-0.9590625 17.05798828 -1.918125 17.05347656 -2.90625 17.04882812 C-6.21298564 16.388975 -7.40908706 15.12011445 -9.5 12.53125 C-10.03125 10.53125 -10.03125 10.53125 -10 8.53125 C-10.01546875 7.54125 -10.01546875 7.54125 -10.03125 6.53125 C-8.65240655 1.34030994 -4.94094259 0.02324368 0 0 Z " fill="#455A63" transform="translate(473.5,399.46875)"/>
<path d="M0 0 C1.051875 -0.00515625 2.10375 -0.0103125 3.1875 -0.015625 C4.280625 -0.00015625 5.37375 0.0153125 6.5 0.03125 C8.1396875 0.00804687 8.1396875 0.00804687 9.8125 -0.015625 C10.864375 -0.01046875 11.91625 -0.0053125 13 0 C14.43859375 0.00676758 14.43859375 0.00676758 15.90625 0.01367188 C19.21298564 0.673525 20.40908706 1.94238555 22.5 4.53125 C23.03125 6.53125 23.03125 6.53125 23 8.53125 C23.0103125 9.19125 23.020625 9.85125 23.03125 10.53125 C22.2561666 13.44921104 20.80895833 14.6243588 18.5 16.53125 C15.90625 17.04882812 15.90625 17.04882812 13 17.0625 C11.948125 17.06765625 10.89625 17.0728125 9.8125 17.078125 C8.719375 17.06265625 7.62625 17.0471875 6.5 17.03125 C4.8603125 17.05445313 4.8603125 17.05445313 3.1875 17.078125 C2.135625 17.07296875 1.08375 17.0678125 0 17.0625 C-0.9590625 17.05798828 -1.918125 17.05347656 -2.90625 17.04882812 C-6.21298564 16.388975 -7.40908706 15.12011445 -9.5 12.53125 C-10.03125 10.53125 -10.03125 10.53125 -10 8.53125 C-10.01546875 7.54125 -10.01546875 7.54125 -10.03125 6.53125 C-8.65240655 1.34030994 -4.94094259 0.02324368 0 0 Z " fill="#455A63" transform="translate(425.5,399.46875)"/>
<path d="M0 0 C0.66 -0.0103125 1.32 -0.020625 2 -0.03125 C4.91796104 0.7438334 6.0931088 2.19104167 8 4.5 C8.51757812 7.09375 8.51757812 7.09375 8.53125 10 C8.53640625 11.051875 8.5415625 12.10375 8.546875 13.1875 C8.53140625 14.280625 8.5159375 15.37375 8.5 16.5 C8.51546875 17.593125 8.5309375 18.68625 8.546875 19.8125 C8.54171875 20.864375 8.5365625 21.91625 8.53125 23 C8.52673828 23.9590625 8.52222656 24.918125 8.51757812 25.90625 C7.857725 29.21298564 6.58886445 30.40908706 4 32.5 C2 33.03125 2 33.03125 0 33 C-0.99 33.01546875 -0.99 33.01546875 -2 33.03125 C-4.91796104 32.2561666 -6.0931088 30.80895833 -8 28.5 C-8.51757812 25.90625 -8.51757812 25.90625 -8.53125 23 C-8.53640625 21.948125 -8.5415625 20.89625 -8.546875 19.8125 C-8.53140625 18.719375 -8.5159375 17.62625 -8.5 16.5 C-8.51546875 15.406875 -8.5309375 14.31375 -8.546875 13.1875 C-8.53914063 11.6096875 -8.53914063 11.6096875 -8.53125 10 C-8.52673828 9.0409375 -8.52222656 8.081875 -8.51757812 7.09375 C-7.60329874 2.51200272 -4.67433964 -0.07303656 0 0 Z " fill="#455A63" transform="translate(456,367.5)"/>
<path d="M0 0 C0.33 0 0.66 0 1 0 C1 2.97 1 5.94 1 9 C2.32 9 3.64 9 5 9 C5.16435547 9.93972656 5.16435547 9.93972656 5.33203125 10.8984375 C5.49058594 11.71570313 5.64914063 12.53296875 5.8125 13.375 C5.96332031 14.18710938 6.11414062 14.99921875 6.26953125 15.8359375 C6.87544942 18.35820641 6.87544942 18.35820641 10 20 C12.27912938 20.45394552 12.27912938 20.45394552 14.6875 20.625 C15.49574219 20.69976562 16.30398437 20.77453125 17.13671875 20.8515625 C17.75160156 20.90054688 18.36648437 20.94953125 19 21 C19.33 23.31 19.66 25.62 20 28 C18.906875 28.33 17.81375 28.66 16.6875 29 C14.280269 30.00542982 13.24166273 30.54331453 12.0078125 32.875 C11.54600234 34.28637488 11.10050666 35.70319742 10.671875 37.125 C9.72803262 39.75897873 8.49114706 40.79217112 6 42 C4.68 42 3.36 42 2 42 C-0.38461892 33.17395275 -0.23155728 24.42834797 -0.125 15.375 C-0.11494608 13.87891227 -0.10582451 12.38281797 -0.09765625 10.88671875 C-0.07584308 7.25767374 -0.04144741 3.62888015 0 0 Z " fill="#7DD1F4" transform="translate(32,208)"/>
<path d="M0 0 C0.66 -0.0103125 1.32 -0.020625 2 -0.03125 C5.04782397 0.77832824 6.15682414 1.94542293 8 4.5 C8.40100915 7.33065284 8.56122899 9.68346659 8.5 12.5 C8.51546875 13.2115625 8.5309375 13.923125 8.546875 14.65625 C8.52115187 18.10314984 8.25431936 20.14752229 6.21875 22.96875 C3.88020812 24.58267327 2.80290722 25.04379543 0 25 C-0.66 25.0103125 -1.32 25.020625 -2 25.03125 C-5.04782397 24.22167176 -6.15682414 23.05457707 -8 20.5 C-8.40100915 17.66934716 -8.56122899 15.31653341 -8.5 12.5 C-8.51546875 11.7884375 -8.5309375 11.076875 -8.546875 10.34375 C-8.52115187 6.89685016 -8.25431936 4.85247771 -6.21875 2.03125 C-3.88020812 0.41732673 -2.80290722 -0.04379543 0 0 Z " fill="#455A63" transform="translate(328,463.5)"/>
<path d="M0 0 C0.7115625 -0.01546875 1.423125 -0.0309375 2.15625 -0.046875 C5.60314984 -0.02115187 7.64752229 0.24568064 10.46875 2.28125 C12.08267327 4.61979188 12.54379543 5.69709278 12.5 8.5 C12.5103125 9.16 12.520625 9.82 12.53125 10.5 C11.72167176 13.54782397 10.55457707 14.65682414 8 16.5 C5.16934716 16.90100915 2.81653341 17.06122899 0 17 C-0.7115625 17.01546875 -1.423125 17.0309375 -2.15625 17.046875 C-5.60314984 17.02115187 -7.64752229 16.75431936 -10.46875 14.71875 C-12.08267327 12.38020812 -12.54379543 11.30290722 -12.5 8.5 C-12.51546875 7.51 -12.51546875 7.51 -12.53125 6.5 C-10.82633794 0.08150756 -5.75061521 -0.12501337 0 0 Z " fill="#455A63" transform="translate(348,447.5)"/>
<path d="M0 0 C0.7115625 -0.01546875 1.423125 -0.0309375 2.15625 -0.046875 C5.60314984 -0.02115187 7.64752229 0.24568064 10.46875 2.28125 C12.08267327 4.61979188 12.54379543 5.69709278 12.5 8.5 C12.5103125 9.16 12.520625 9.82 12.53125 10.5 C11.72167176 13.54782397 10.55457707 14.65682414 8 16.5 C5.16934716 16.90100915 2.81653341 17.06122899 0 17 C-0.7115625 17.01546875 -1.423125 17.0309375 -2.15625 17.046875 C-5.60314984 17.02115187 -7.64752229 16.75431936 -10.46875 14.71875 C-12.08267327 12.38020812 -12.54379543 11.30290722 -12.5 8.5 C-12.51546875 7.51 -12.51546875 7.51 -12.53125 6.5 C-10.82633794 0.08150756 -5.75061521 -0.12501337 0 0 Z " fill="#455A63" transform="translate(308,447.5)"/>
<path d="M0 0 C0.66 -0.0103125 1.32 -0.020625 2 -0.03125 C5.04782397 0.77832824 6.15682414 1.94542293 8 4.5 C8.40100915 7.33065284 8.56122899 9.68346659 8.5 12.5 C8.51546875 13.2115625 8.5309375 13.923125 8.546875 14.65625 C8.52115187 18.10314984 8.25431936 20.14752229 6.21875 22.96875 C3.88020812 24.58267327 2.80290722 25.04379543 0 25 C-0.66 25.0103125 -1.32 25.020625 -2 25.03125 C-5.04782397 24.22167176 -6.15682414 23.05457707 -8 20.5 C-8.40100915 17.66934716 -8.56122899 15.31653341 -8.5 12.5 C-8.51546875 11.7884375 -8.5309375 11.076875 -8.546875 10.34375 C-8.52115187 6.89685016 -8.25431936 4.85247771 -6.21875 2.03125 C-3.88020812 0.41732673 -2.80290722 -0.04379543 0 0 Z " fill="#455A63" transform="translate(328,423.5)"/>
<path d="M0 0 C2.9375 1.5 2.9375 1.5 5 4 C5.65479266 6.80297211 5.61001518 9.19162824 5 12 C3.4375 14.5 3.4375 14.5 1 16 C-3.40768137 16.72125695 -5.25937488 16.52001338 -8.9375 13.9375 C-11.52001338 10.25937488 -11.72125695 8.40768137 -11 4 C-8.10445004 -0.51705794 -5.12679803 -0.7195506 0 0 Z " fill="#455C65" transform="translate(48,213)"/>
<path d="M0 0 C4.0743356 0.84881992 5.54405875 2.30225596 8 5.625 C8.71235686 9.4242366 8.31263988 11.06224821 6.4375 14.4375 C3.21466844 17.32978473 1.31192698 17.77629568 -3 17.625 C-5.9375 15.625 -5.9375 15.625 -8 12.625 C-8.625 9.125 -8.625 9.125 -8 5.625 C-5.55401113 2.24378009 -4.10703441 0.85563217 0 0 Z " fill="#475F6A" transform="translate(231,126.375)"/>
<path d="M0 0 C2.875 1.5625 2.875 1.5625 5 4 C5.5175077 8.14006158 5.54098917 11.56966462 3 15 C0.85117288 16.48194974 -0.88383421 16.97617112 -3.4375 17.5 C-6.66712046 16.86983015 -8.1600366 15.39153634 -10.11328125 12.78515625 C-11.7002951 9.59015479 -11.03591952 7.2905679 -10 4 C-7.17993844 -0.07342225 -4.85311304 -0.79234499 0 0 Z " fill="#475E69" transform="translate(289,58)"/>
<path d="M0 0 C2.4375 1.5 2.4375 1.5 4 4 C4.80414661 8.04560357 4.63828902 10.97873756 2.4375 14.5 C-0.99136114 16.61006839 -3.04220351 16.62491523 -7 16 C-10 13.9375 -10 13.9375 -12 11 C-12.06944397 7.04169355 -11.5699479 4.85492184 -9.375 1.5625 C-6.0382229 -0.63274809 -3.91451456 -0.55921637 0 0 Z " fill="#465D68" transform="translate(138,348)"/>
<path d="M0 0 C2.9296875 0.390625 2.9296875 0.390625 5.859375 0.78125 C8.30458395 1.06777357 8.30458395 1.06777357 12 1 C13.83649509 3.21398022 15.30937422 5.26458711 16.8125 7.6875 C17.23208984 8.31333984 17.65167969 8.93917969 18.08398438 9.58398438 C19.89204219 12.42862229 21.01039129 14.4204855 20.94921875 17.83203125 C20 20 20 20 17 22 C16.00419922 20.69675781 16.00419922 20.69675781 14.98828125 19.3671875 C14.09642033 18.2030743 13.2044895 17.03901467 12.3125 15.875 C11.65991211 15.02035156 11.65991211 15.02035156 10.99414062 14.1484375 C6.23965585 7.19603554 6.23965585 7.19603554 0 2 C0 1.34 0 0.68 0 0 Z " fill="#EBFBF6" transform="translate(377,108)"/>
<path d="M0 0 C-0.875 5.875 -0.875 5.875 -2 7 C-9.72030138 7.51468676 -16.54798341 5.9349904 -24 4 C-24 3.67 -24 3.34 -24 3 C-21.1259578 2.49387936 -18.25097127 1.99493459 -15.375 1.5 C-14.56675781 1.35691406 -13.75851563 1.21382812 -12.92578125 1.06640625 C-8.56122136 0.32123749 -4.44761871 -0.17272306 0 0 Z " fill="#5BF29C" transform="translate(209,46)"/>
<path d="M0 0 C0.99 0.33 1.98 0.66 3 1 C1.625 2.5 1.625 2.5 0 4 C-0.66 4 -1.32 4 -2 4 C-2.433125 4.928125 -2.433125 4.928125 -2.875 5.875 C-4 8 -4 8 -6 10 C-6 6 -6 6 -4.6875 4.296875 C-4.130625 3.78640625 -3.57375 3.2759375 -3 2.75 C-2.1646875 1.96882813 -2.1646875 1.96882813 -1.3125 1.171875 C-0.879375 0.78515625 -0.44625 0.3984375 0 0 Z " fill="#5FC0D5" transform="translate(269,372)"/>
<path d="M0 0 C1.32 1.32 2.64 2.64 4 4 C3.34 5.32 2.68 6.64 2 8 C1.67 8 1.34 8 1 8 C0.67 5.36 0.34 2.72 0 0 Z " fill="#4AE58A" transform="translate(390,125)"/>
</svg>
