<?xml version="1.0" encoding="UTF-8"?>
<svg version="1.1" xmlns="http://www.w3.org/2000/svg" width="512" height="512">
<path d="M0 0 C0.77137802 -0.00701431 1.54275604 -0.01402863 2.33750916 -0.02125549 C4.81491003 -0.03865915 7.29207147 -0.04510842 9.76953125 -0.046875 C10.61795593 -0.04754974 11.46638062 -0.04822449 12.34051514 -0.04891968 C25.6216135 -0.03215418 38.53824663 0.49008132 51.58203125 3.203125 C52.4121875 3.37473145 53.24234375 3.54633789 54.09765625 3.72314453 C91.94740101 11.84313387 127.13465072 29.67980344 155.00878906 56.68115234 C156.11399571 57.75034202 157.2259497 58.8125797 158.34277344 59.86962891 C181.3726249 81.69407783 198.54784063 108.47372969 209.58203125 138.203125 C210.84797119 138.21770752 212.11391113 138.23229004 213.41821289 138.24731445 C218.13545329 138.30548622 222.85222576 138.38271793 227.5690918 138.46557617 C229.6067747 138.49873684 231.64454749 138.52679612 233.68237305 138.54956055 C236.61936588 138.58326962 239.55554148 138.63559374 242.4921875 138.69140625 C243.39663101 138.69779617 244.30107452 138.7041861 245.23292542 138.71076965 C252.16238571 138.87019392 257.01515867 139.9785021 262.39453125 144.640625 C266.4978855 149.44741141 267.24144252 153.2854566 267.13037109 159.54248047 C265.96944761 167.29265264 262.2191524 174.23801155 258.89453125 181.265625 C258.16393655 182.85125724 257.43540645 184.43784246 256.70898438 186.02539062 C255.99644303 187.57568142 255.28355772 189.12581417 254.5703125 190.67578125 C254.22533722 191.42614655 253.88036194 192.17651184 253.52493286 192.94961548 C252.03452202 196.16768296 250.51520064 199.32803169 248.84130859 202.45654297 C248.35742676 203.38225098 247.87354492 204.30795898 247.375 205.26171875 C246.95114014 206.01638428 246.52728027 206.7710498 246.09057617 207.54858398 C244.79049298 214.33485597 249.73058483 222.0380062 252.55859375 228.0703125 C252.92931 228.87171661 253.30002625 229.67312073 253.68197632 230.49880981 C254.85250856 233.02735814 256.02941565 235.55286891 257.20703125 238.078125 C258.39065099 240.62531318 259.57290167 243.17312464 260.75350952 245.72171021 C261.48492653 247.29968632 262.21827049 248.87677103 262.95376587 250.45285034 C266.40334815 257.87690792 268.42231385 265.27215707 265.8984375 273.40625 C263.68633915 277.62851242 260.70711481 279.96870474 256.58203125 282.203125 C253.74332642 283.07700995 251.14333514 283.3474511 248.18066406 283.40844727 C247.32007385 283.42839249 246.45948364 283.44833771 245.57281494 283.46888733 C244.19292389 283.49395607 244.19292389 283.49395607 242.78515625 283.51953125 C241.36200104 283.5507029 241.36200104 283.5507029 239.91009521 283.58250427 C236.88414643 283.64780434 233.85811205 283.70679388 230.83203125 283.765625 C228.77863704 283.8088288 226.72525143 283.85244369 224.671875 283.89648438 C219.64201445 284.00346573 214.61206793 284.10478823 209.58203125 284.203125 C209.20601524 285.11697464 209.20601524 285.11697464 208.82240295 286.04928589 C187.01760399 338.94148614 147.84329631 383.61465579 94.30371094 406.12060547 C78.59066274 412.37030548 62.33439799 417.65943983 45.58203125 420.203125 C43.87382202 420.4647644 43.87382202 420.4647644 42.13110352 420.73168945 C31.69316152 422.1906033 21.42562126 422.56369774 10.89453125 422.515625 C10.06164581 422.51380219 9.22876038 422.51197937 8.37063599 422.51010132 C-4.44331261 422.46298726 -16.84829008 421.87392115 -29.41796875 419.203125 C-30.26488281 419.03151855 -31.11179688 418.85991211 -31.984375 418.68310547 C-86.69133263 407.41339163 -135.14360045 374.77468855 -166.1171875 328.18359375 C-170.44382342 321.51605102 -174.38995739 314.63171144 -178.16796875 307.640625 C-178.50860352 307.01736328 -178.84923828 306.39410156 -179.20019531 305.75195312 C-182.84783736 298.8217843 -185.57819402 291.49033031 -188.41796875 284.203125 C-189.68390869 284.18854248 -190.94984863 284.17395996 -192.25415039 284.15893555 C-196.97139079 284.10076378 -201.68816326 284.02353207 -206.4050293 283.94067383 C-208.4427122 283.90751316 -210.48048499 283.87945388 -212.51831055 283.85668945 C-215.45530338 283.82298038 -218.39147898 283.77065626 -221.328125 283.71484375 C-222.23256851 283.70845383 -223.13701202 283.7020639 -224.06886292 283.69548035 C-230.99832321 283.53605608 -235.85109617 282.4277479 -241.23046875 277.765625 C-245.27732978 273.02501636 -246.14549713 269.17972923 -246.03759766 262.99755859 C-244.64634931 254.477944 -240.30566334 246.74103602 -236.60546875 239.015625 C-235.34672106 236.33827712 -234.09452928 233.65800562 -232.8462677 230.97575378 C-232.07238933 229.31820629 -231.29152172 227.66389595 -230.50224304 226.0136261 C-229.43564329 223.75863472 -228.41908463 221.48784739 -227.41796875 219.203125 C-227.07016357 218.46259888 -226.7223584 217.72207275 -226.36401367 216.95910645 C-224.60008046 212.70851738 -224.09119074 210.00664726 -225.68212891 205.62060547 C-226.41051074 204.00666852 -227.17062009 202.40678345 -227.95703125 200.8203125 C-228.5520192 199.53255417 -228.5520192 199.53255417 -229.1590271 198.21878052 C-230.42653723 195.49150464 -231.73344502 192.7854387 -233.04296875 190.078125 C-233.90115454 188.25257689 -234.75665141 186.42576217 -235.609375 184.59765625 C-237.1821027 181.23249307 -238.77136029 177.87621446 -240.37744141 174.52685547 C-244.36952445 166.12790501 -247.70681917 158.44468565 -244.7265625 149.015625 C-242.54212425 144.77470723 -239.54255555 142.43727618 -235.41796875 140.203125 C-232.57926392 139.32924005 -229.97927264 139.0587989 -227.01660156 138.99780273 C-226.15601135 138.97785751 -225.29542114 138.95791229 -224.40875244 138.93736267 C-223.02886139 138.91229393 -223.02886139 138.91229393 -221.62109375 138.88671875 C-220.67232361 138.86593765 -219.72355347 138.84515656 -218.74603271 138.82374573 C-215.72008393 138.75844566 -212.69404955 138.69945612 -209.66796875 138.640625 C-207.61457454 138.5974212 -205.56118893 138.55380631 -203.5078125 138.50976562 C-198.47795195 138.40278427 -193.44800543 138.30146177 -188.41796875 138.203125 C-188.16729141 137.59389191 -187.91661407 136.98465881 -187.65834045 136.35696411 C-176.20599401 108.5768501 -161.34956637 83.09036083 -139.41796875 62.203125 C-138.59296875 61.378125 -137.76796875 60.553125 -136.91796875 59.703125 C-136.09296875 58.878125 -135.26796875 58.053125 -134.41796875 57.203125 C-133.92417725 56.69048096 -133.43038574 56.17783691 -132.92163086 55.6496582 C-128.71180042 51.32740089 -124.28880466 47.52942636 -119.48046875 43.890625 C-118.74248047 43.33084961 -118.00449219 42.77107422 -117.24414062 42.19433594 C-109.91687126 36.71293878 -102.33482689 31.78586038 -94.41796875 27.203125 C-93.75361816 26.81672852 -93.08926758 26.43033203 -92.40478516 26.03222656 C-64.92879208 10.26178647 -31.80996285 0.19558748 0 0 Z " fill="#020101" transform="translate(245.41796875,44.796875)"/>
<path d="M0 0 C158.4 0 316.8 0 480 0 C481.21610449 4.86441796 480.4155563 5.96740718 478.28125 10.390625 C477.98759552 11.00791473 477.69394104 11.62520447 477.39138794 12.26119995 C476.76263717 13.57988316 476.12869077 14.8960994 475.49005127 16.21002197 C474.49685842 18.25647314 473.52027313 20.31007497 472.54833984 22.36669922 C470.27022578 27.18226862 467.97870084 31.99108775 465.64550781 36.78027344 C464.61990539 38.88694004 463.61936149 41.00347598 462.625 43.125 C462.10164063 44.20007813 461.57828125 45.27515625 461.0390625 46.3828125 C457.39746656 59.05994725 462.21885037 68.35609529 467.6875 79.5625 C468.41814987 81.09989897 469.14668016 82.63830714 469.87304688 84.17773438 C472.43921741 89.60057296 475.02366013 95.01392892 477.67041016 100.39794922 C478.13624512 101.36877441 478.60208008 102.33959961 479.08203125 103.33984375 C479.48268799 104.15702881 479.88334473 104.97421387 480.29614258 105.81616211 C481 108 481 108 480 112 C321.6 112 163.2 112 0 112 C-1.12497008 107.50011967 -1.12497008 107.50011967 0.49121094 104.0769043 C0.84197693 103.31899094 1.19274292 102.56107758 1.55413818 101.78019714 C1.94361633 100.96972427 2.33309448 100.1592514 2.734375 99.32421875 C3.12820374 98.4808345 3.52203247 97.63745026 3.92779541 96.76850891 C5.19092998 94.06954486 6.47001119 91.37850578 7.75 88.6875 C9.01202064 86.00558563 10.27079073 83.32216248 11.52935791 80.6386261 C12.31345762 78.96997669 13.10022473 77.30257723 13.89007568 75.63664246 C14.93571132 73.42848267 15.9717187 71.21628904 17 69 C17.29850861 68.35958771 17.59701721 67.71917542 17.90457153 67.05935669 C20.8971728 60.4093686 21.5872416 54.72661875 19.22180176 47.68261719 C16.67183334 41.14628368 13.64070358 34.83082344 10.625 28.5 C9.72448713 26.56606919 8.82603107 24.63117924 7.9296875 22.6953125 C4.14209534 14.20456704 4.14209534 14.20456704 -0.18569946 5.99255371 C-1 4 -1 4 0 0 Z " fill="#FB4654" transform="translate(16,200)"/>
<path d="M0 0 C6.93 0 13.86 0 21 0 C21.75023438 1.42570312 22.50046875 2.85140625 23.2734375 4.3203125 C29.18318492 15.43133737 35.16477654 26.1306027 43 36 C43.43135254 36.54414551 43.86270508 37.08829102 44.30712891 37.64892578 C71.55820059 71.62570921 109.80685197 94.97936991 153 102 C154.16660156 102.20496094 155.33320313 102.40992188 156.53515625 102.62109375 C191.13865596 107.89712683 226.67121966 102.30397057 258 87 C258.71542969 86.65453125 259.43085938 86.3090625 260.16796875 85.953125 C274.74308089 78.83813401 298.41166068 67.17667864 306 52 C306.49110183 47.69154026 306.49110183 47.69154026 304.4375 44.0625 C300.76180137 42.46027239 298.83114247 42.83117687 295 44 C293.2008993 45.4909424 291.69002903 47.1379873 290.10546875 48.85546875 C276.1892926 63.02982999 257.20423461 72.65980397 239 80 C237.95972656 80.42023438 236.91945313 80.84046875 235.84765625 81.2734375 C233.25057582 82.2645758 230.65008607 83.16183324 228 84 C227.17886719 84.26296875 226.35773438 84.5259375 225.51171875 84.796875 C185.44860873 96.1606515 141.47014463 90.60824661 105 71 C95.28216769 65.5477139 86.37231311 59.37437486 78 52 C77.12601562 51.23558594 76.25203125 50.47117187 75.3515625 49.68359375 C67.80114131 42.98344521 60.8097587 36.16666953 54.6875 28.125 C54.13425049 27.40046631 53.58100098 26.67593262 53.01098633 25.92944336 C38 5.87379898 38 5.87379898 38 0 C133.04 0 228.08 0 326 0 C323.7572574 6.72822781 323.7572574 6.72822781 321.8359375 9.4375 C321.23652344 10.31535156 321.23652344 10.31535156 320.625 11.2109375 C319.78909586 12.4073253 318.94790174 13.60003375 318.1015625 14.7890625 C315.45932682 18.68378651 314.35679292 21.29443243 315 26 C316.41666667 28.58333333 316.41666667 28.58333333 319 30 C322.45786733 30.12371379 322.45786733 30.12371379 326 29 C327.88643906 26.90533784 329.08242874 25.2746389 330.4375 22.875 C330.8080249 22.26060059 331.1785498 21.64620117 331.56030273 21.01318359 C335.63729449 14.15677861 339.3275039 7.07790158 343 0 C349.93 0 356.86 0 364 0 C362.03540759 5.89377723 360.16246458 11.17220561 357.375 16.625 C357.02872559 17.30667236 356.68245117 17.98834473 356.32568359 18.69067383 C347.74316007 35.34691355 337.41592783 49.92595612 324.45947266 63.47314453 C323.47491573 64.50315775 322.4955186 65.53812459 321.52099609 66.57763672 C288.58062434 101.62806788 238.73586954 123.81841205 190.73828125 125.37890625 C136.64948798 126.72254923 85.9119378 107.90871751 46.4453125 70.765625 C27.57822332 52.58428653 14.3652793 32.42481775 3 9 C2.43023437 7.91847656 1.86046875 6.83695312 1.2734375 5.72265625 C0 3 0 3 0 0 Z " fill="#F5F2F2" transform="translate(74,327)"/>
<path d="M0 0 C1.18134521 0.00676758 2.36269043 0.01353516 3.57983398 0.02050781 C12.43708059 0.12496077 20.95625645 0.66918538 29.6875 2.25 C30.3484668 2.35763672 31.00943359 2.46527344 31.69042969 2.57617188 C71.61567181 9.20230207 108.79500781 34.0659692 132.42480469 66.5949707 C145.6875 85.26593498 145.6875 85.26593498 145.6875 90.25 C50.6475 90.25 -44.3925 90.25 -142.3125 90.25 C-140.0575133 83.48503989 -140.0575133 83.48503989 -138.24609375 80.55078125 C-137.84769287 79.90447754 -137.44929199 79.25817383 -137.03881836 78.59228516 C-136.40085327 77.5875415 -136.40085327 77.5875415 -135.75 76.5625 C-135.30599854 75.85915527 -134.86199707 75.15581055 -134.40454102 74.43115234 C-130.4769159 68.31592732 -126.11742153 62.70514817 -121.3125 57.25 C-120.54808594 56.37601563 -119.78367188 55.50203125 -118.99609375 54.6015625 C-88.91628794 20.70452245 -45.7411442 -0.38296447 0 0 Z " fill="#F6F3F3" transform="translate(254.3125,94.75)"/>
<path d="M0 0 C6.93 0 13.86 0 21 0 C21.75023438 1.42570312 22.50046875 2.85140625 23.2734375 4.3203125 C29.18318492 15.43133737 35.16477654 26.1306027 43 36 C43.43135254 36.54414551 43.86270508 37.08829102 44.30712891 37.64892578 C71.55820059 71.62570921 109.80685197 94.97936991 153 102 C154.16660156 102.20496094 155.33320313 102.40992188 156.53515625 102.62109375 C191.13865596 107.89712683 226.67121966 102.30397057 258 87 C258.71542969 86.65453125 259.43085938 86.3090625 260.16796875 85.953125 C274.74308089 78.83813401 298.41166068 67.17667864 306 52 C306.04254356 50.00045254 306.04080783 47.99958364 306 46 C306 41.69888148 308.43826024 39.47873961 311.0625 36.3125 C311.76149414 35.40274414 311.76149414 35.40274414 312.47460938 34.47460938 C313.90095198 32.74941404 315.18525701 31.31408578 317 30 C319.33271364 29.94622724 321.66732926 29.94439718 324 30 C328.47950428 26.60084675 330.89166722 22.11643006 333.5 17.25 C334.04720703 16.25226563 334.04720703 16.25226563 334.60546875 15.234375 C335.74272175 13.15938706 336.87127414 11.07963874 338 9 C339.65 6.03 341.3 3.06 343 0 C349.93 0 356.86 0 364 0 C362.03540759 5.89377723 360.16246458 11.17220561 357.375 16.625 C357.02872559 17.30667236 356.68245117 17.98834473 356.32568359 18.69067383 C347.74316007 35.34691355 337.41592783 49.92595612 324.45947266 63.47314453 C323.47491573 64.50315775 322.4955186 65.53812459 321.52099609 66.57763672 C288.58062434 101.62806788 238.73586954 123.81841205 190.73828125 125.37890625 C136.64948798 126.72254923 85.9119378 107.90871751 46.4453125 70.765625 C27.57822332 52.58428653 14.3652793 32.42481775 3 9 C2.43023437 7.91847656 1.86046875 6.83695312 1.2734375 5.72265625 C0 3 0 3 0 0 Z " fill="#F97E85" transform="translate(74,327)"/>
<path d="M0 0 C1.08635794 -0.00852488 1.08635794 -0.00852488 2.19466251 -0.01722199 C4.61644226 -0.03011982 7.03654872 -0.00734224 9.45823669 0.0153656 C11.19630788 0.01350142 12.9343779 0.00946451 14.67243958 0.00341797 C19.38943298 -0.00656088 24.10582596 0.01461985 28.82273221 0.04189801 C33.75761338 0.06572003 38.69248247 0.062783 43.62741089 0.0632019 C51.91373364 0.06783051 60.19982667 0.09147696 68.48606873 0.12767029 C78.06948998 0.16941783 87.65270439 0.18698593 97.23621136 0.19029003 C107.43543518 0.19388834 117.63458445 0.21276095 127.83377719 0.23741031 C130.77460749 0.24364167 133.71543212 0.24727625 136.65626717 0.25044441 C141.27492146 0.25634147 145.89342768 0.27264478 150.51202011 0.29704857 C152.20835539 0.30449425 153.90470931 0.30856087 155.60106087 0.30902863 C157.91388119 0.31028477 160.22631004 0.32381749 162.5390625 0.34057617 C163.8341401 0.34522668 165.1292177 0.34987719 166.46354008 0.35466862 C169.534786 0.60099558 171.20672424 0.87054459 173.70603943 2.61473083 C176.0229444 6.09008829 176.43455449 7.92764447 176.33494568 12.02488708 C174.97622833 17.62010199 170.56471179 21.54264909 166.70603943 25.61473083 C165.93646912 26.46293396 165.1668988 27.31113708 164.37400818 28.18504333 C149.0357856 44.41354418 129.78008577 53.27220836 108.70603943 59.61473083 C107.54201599 59.97824646 106.37799255 60.34176208 105.17869568 60.71629333 C78.0962994 67.72298754 47.43455878 60.90924463 23.57933044 47.28392029 C10.70076928 39.59809668 -8.79750732 26.51777124 -12.89942932 11.38035583 C-13.15511249 7.70404643 -12.4449059 5.80906446 -10.20295811 2.92268276 C-6.53731217 0.01441815 -4.64213607 -0.0072074 0 0 Z " fill="#050303" transform="translate(174.29396057128906,339.38526916503906)"/>
<path d="M0 0 C0.52335937 0.40766602 1.04671875 0.81533203 1.5859375 1.23535156 C28.4855633 22.49743141 50.18101408 50.06564389 63 82 C63 82.99 63 83.98 63 85 C56.07 85 49.14 85 42 85 C40.87464844 82.86144531 40.87464844 82.86144531 39.7265625 80.6796875 C33.81681508 69.56866263 27.83522346 58.8693973 20 49 C19.56864746 48.45585449 19.13729492 47.91170898 18.69287109 47.35107422 C3.75112631 28.72162609 -13.88033053 13.31188583 -35 2 C-35.69222656 1.6292334 -36.38445312 1.2584668 -37.09765625 0.87646484 C-78.44665845 -20.82436435 -126.53119651 -25.24975176 -171.078125 -11.5859375 C-190.80751958 -5.319398 -209.7647711 4.08640445 -226 17 C-226.54027832 17.42748535 -227.08055664 17.8549707 -227.63720703 18.29541016 C-250.77789028 36.80110026 -266.27274908 59.005844 -280 85 C-286.93 85 -293.86 85 -301 85 C-297.087928 65.43964001 -283.06223455 45.69501387 -270 31 C-268.9790625 29.81664062 -268.9790625 29.81664062 -267.9375 28.609375 C-265.67096365 26.02619019 -263.35140779 23.50624781 -261 21 C-260.50935059 20.47535156 -260.01870117 19.95070312 -259.51318359 19.41015625 C-230.695471 -11.14526353 -192.2116596 -30.60406891 -151 -38 C-149.83210937 -38.22429688 -148.66421875 -38.44859375 -147.4609375 -38.6796875 C-96.26680654 -46.82167347 -40.73500288 -31.75078049 0 0 Z " fill="#F97E85" transform="translate(375,100)"/>
<path d="M0 0 C1.06734375 0.268125 2.1346875 0.53625 3.234375 0.8125 C27.59552684 7.30880716 47.92664377 19.47596644 65 38 C65.99773437 39.06734375 65.99773437 39.06734375 67.015625 40.15625 C70.53317328 44.29840965 71.84684117 47.53330309 71.46875 53.015625 C70.77650463 55.94613041 69.42165017 57.29059988 67 59 C64.68339017 60.15830492 63.3413514 60.13294277 60.76223755 60.14717102 C59.42893402 60.15790398 59.42893402 60.15790398 58.06869507 60.16885376 C57.09099152 60.17154266 56.11328796 60.17423157 55.10595703 60.17700195 C54.07821167 60.18357315 53.05046631 60.19014435 51.99157715 60.19691467 C48.58032159 60.2166746 45.16911007 60.22831517 41.7578125 60.23828125 C40.01387522 60.24439454 40.01387522 60.24439454 38.23470688 60.25063133 C32.08339362 60.27150175 25.93210275 60.28580031 19.78076172 60.29516602 C13.41600143 60.30624347 7.05158951 60.34065633 0.68695259 60.38033772 C-4.19773017 60.4064349 -9.08232899 60.41485163 -13.96707535 60.41844749 C-16.31388837 60.42332988 -18.66069725 60.43499045 -21.00744247 60.45348549 C-24.28763512 60.47773384 -27.56691386 60.47693804 -30.84716797 60.4699707 C-31.82082306 60.48278076 -32.79447815 60.49559082 -33.79763794 60.50878906 C-40.3551646 60.45788484 -40.3551646 60.45788484 -43.59939575 58.15422058 C-45.55270768 55.14989959 -45.64602695 53.51725784 -45 50 C-43.02296283 47.36582604 -41.42113571 45.35150777 -38.11913109 44.5347805 C-35.82059601 44.34423821 -33.56883304 44.31614353 -31.26245117 44.34057617 C-30.39365326 44.33009247 -29.52485535 44.31960876 -28.62973022 44.30880737 C-25.76711214 44.28007869 -22.90570505 44.28634628 -20.04296875 44.29296875 C-18.05469753 44.27985239 -16.06643963 44.26454836 -14.07820129 44.24714661 C-8.85194884 44.20727659 -3.6260448 44.19710484 1.6003418 44.19311523 C6.93614281 44.18378762 12.27173878 44.14637637 17.60742188 44.11132812 C28.07160499 44.0467318 38.53563496 44.01350844 49 44 C47.24071582 42.38357644 45.4791992 40.76970881 43.71630859 39.15722656 C43.22065903 38.70135162 42.72500946 38.24547668 42.21434021 37.77578735 C33.41235905 29.73711049 22.89880332 24.65835948 12 20 C11.3296875 19.69320312 10.659375 19.38640625 9.96875 19.0703125 C-11.10536452 10.1045708 -37.61487334 12.1488901 -58.61669922 19.97509766 C-69.1305285 24.25302819 -78.32957144 29.65422025 -87 37 C-87.8146875 37.67675781 -88.629375 38.35351562 -89.46875 39.05078125 C-93.25665018 42.09962129 -93.25665018 42.09962129 -96 46 C-95.19780029 45.98428955 -94.39560059 45.9685791 -93.5690918 45.95239258 C-89.94196596 45.89011417 -86.31495251 45.85103136 -82.6875 45.8125 C-81.42486328 45.78736328 -80.16222656 45.76222656 -78.86132812 45.73632812 C-77.65283203 45.72666016 -76.44433594 45.71699219 -75.19921875 45.70703125 C-74.08377686 45.6913208 -72.96833496 45.67561035 -71.8190918 45.65942383 C-69 46 -69 46 -67.14379883 47.2722168 C-65.53737644 49.69882325 -65.53804726 52.11472809 -65.40625 54.96484375 C-66.3620035 58.24081463 -68.15018969 59.19748286 -71 61 C-73.93986985 61.5781521 -76.81960024 61.56118592 -79.80859375 61.53125 C-80.65293472 61.5350769 -81.4972757 61.53890381 -82.36720276 61.54284668 C-84.1482157 61.54556165 -85.92926879 61.53822946 -87.71020508 61.52148438 C-90.425554 61.50009411 -93.13824932 61.52128481 -95.85351562 61.546875 C-97.58854747 61.54423113 -99.32357767 61.53910491 -101.05859375 61.53125 C-101.86501816 61.53934692 -102.67144257 61.54744385 -103.50230408 61.55578613 C-108.77472021 61.46879782 -111.81687058 60.49498321 -116 57 C-117.8920509 53.21589819 -118.06560736 49.99743715 -117 46 C-114.12809922 41.78618452 -110.85694239 38.10177381 -107.34521484 34.4140625 C-106.28465546 33.29922403 -105.25535993 32.15464365 -104.23828125 31 C-79.7386644 4.24976218 -35.06167567 -9.46450141 0 0 Z " fill="#050303" transform="translate(279,112)"/>
<path d="M0 0 C4.92753892 3.73813297 8.82771456 7.47793824 12.71337891 12.23730469 C11.5947345 12.24095032 10.47609009 12.24459595 9.32354736 12.24835205 C-1.21214079 12.28527306 -11.74753587 12.34301398 -22.28300095 12.42120743 C-27.69958468 12.46073792 -33.11600449 12.49289907 -38.53271484 12.50830078 C-43.75893733 12.52343063 -48.98470929 12.55781084 -54.21073151 12.60561371 C-56.2058038 12.62046544 -58.20094041 12.62834787 -60.19606781 12.62918854 C-62.98813565 12.63154855 -65.77894863 12.65854982 -68.57080078 12.69140625 C-69.39798615 12.68637589 -70.22517151 12.68134552 -71.0774231 12.67616272 C-74.67715617 12.7418211 -76.8385661 12.90398191 -79.76885986 15.08392334 C-81.45140535 17.25154582 -81.45140535 17.25154582 -82.28662109 20.23730469 C-88.88662109 20.23730469 -95.48662109 20.23730469 -102.28662109 20.23730469 C-102.61662109 20.89730469 -102.94662109 21.55730469 -103.28662109 22.23730469 C-103.75068359 20.53574219 -103.75068359 20.53574219 -104.22412109 18.79980469 C-104.91586641 15.4495537 -104.91586641 15.4495537 -106.28662109 14.23730469 C-108.28444236 14.0790521 -110.28750943 13.98611297 -112.29052734 13.92089844 C-114.11293945 13.85805664 -114.11293945 13.85805664 -115.97216797 13.79394531 C-117.89125977 13.7349707 -117.89125977 13.7349707 -119.84912109 13.67480469 C-121.13238281 13.63162109 -122.41564453 13.5884375 -123.73779297 13.54394531 C-126.92061962 13.43745669 -130.10352783 13.33544507 -133.28662109 13.23730469 C-131.45691878 9.22726024 -128.87485686 6.78272196 -125.53662109 3.98730469 C-124.96314941 3.50567871 -124.38967773 3.02405273 -123.79882812 2.52783203 C-117.72927804 -2.4261976 -111.22881834 -6.17671399 -104.28662109 -9.76269531 C-103.44357422 -10.23320312 -102.60052734 -10.70371094 -101.73193359 -11.18847656 C-69.39663401 -27.87266469 -28.44449272 -21.06357616 0 0 Z " fill="#FA7E85" transform="translate(316.28662109375,144.7626953125)"/>
<path d="M0 0 C47.85 0 95.7 0 145 0 C129.6556448 17.90174773 106.51921095 29.64277636 83 32 C54.82055552 33.65095851 28.45103007 27.00977478 7 8 C6.2884375 7.41863281 5.576875 6.83726562 4.84375 6.23828125 C3.18432391 4.87847376 1.58435197 3.44658224 0 2 C0 1.34 0 0.68 0 0 Z " fill="#FB7F86" transform="translate(184,355)"/>
<path d="M0 0 C1.07443359 -0.00515625 2.14886719 -0.0103125 3.25585938 -0.015625 C4.37412109 -0.00015625 5.49238281 0.0153125 6.64453125 0.03125 C7.74345703 0.01578125 8.84238281 0.0003125 9.97460938 -0.015625 C18.6363799 0.02569531 24.51498395 1.95375754 31.70703125 6.65625 C36.37265376 11.53394626 39.67093724 17.23005406 40.01953125 24.09375 C39.59255078 30.9864348 36.31168278 37.67659847 31.45703125 42.53125 C28.21307955 44.79308788 25.51989555 46.53125 21.45703125 46.53125 C25.57816761 51.80899956 29.75868099 56.88231007 34.39453125 61.71875 C39.03894413 66.85416667 39.03894413 66.85416667 39.83203125 70.34375 C39.45703125 73.53125 39.45703125 73.53125 37.39453125 76.46875 C34.45703125 78.53125 34.45703125 78.53125 31.64453125 79.34375 C23.76041442 77.33407316 18.45573718 68.23711069 13.6328125 62.14453125 C11.38102206 59.43995709 8.97944145 56.9829797 6.45703125 54.53125 C6.43576172 56.50158203 6.43576172 56.50158203 6.4140625 58.51171875 C6.36715137 60.24743051 6.31890404 61.98310652 6.26953125 63.71875 C6.26373047 64.58306641 6.25792969 65.44738281 6.25195312 66.33789062 C6.09673195 70.83930463 5.91116418 72.93877194 3.09765625 76.609375 C0.45703125 78.53125 0.45703125 78.53125 -2.60546875 79.09375 C-6.27581275 78.39091817 -7.27117464 77.46920704 -9.54296875 74.53125 C-10.05090332 71.41967773 -10.05090332 71.41967773 -10.06054688 67.71484375 C-10.06755615 67.03793488 -10.07456543 66.361026 -10.08178711 65.66360474 C-10.09935699 63.43156613 -10.08774948 61.20080094 -10.07421875 58.96875 C-10.07691399 57.41462969 -10.08079668 55.86051103 -10.08581543 54.30639648 C-10.09170905 51.05143151 -10.08315241 47.79690602 -10.06445312 44.54199219 C-10.04166303 40.37201456 -10.05478692 36.20306669 -10.07874298 32.03312683 C-10.09320499 28.82458757 -10.08859326 25.61629201 -10.07823181 22.40774536 C-10.07556561 20.87037026 -10.07883059 19.33297295 -10.08815002 17.79562378 C-10.09832304 15.64570615 -10.08280763 13.49745025 -10.06054688 11.34765625 C-10.0573645 10.12506104 -10.05418213 8.90246582 -10.05090332 7.64282227 C-9.07331305 1.65417146 -5.7093817 0.02657955 0 0 Z " fill="#030001" transform="translate(75.54296875,216.46875)"/>
<path d="M0 0 C2.86018806 2.3190714 3.22878281 3.10480181 3.625 6.75 C3.3125 9.875 3.3125 9.875 1.75 12.25 C-1.62800378 14.50200252 -3.69061959 14.35738212 -7.6875 13.875 C-10.875 12.4375 -10.875 12.4375 -13.6875 10.875 C-20.11776954 8.9139012 -26.48267897 8.86052816 -32.5 12 C-38.73431734 15.91431565 -42.43894532 20.774301 -44.6875 27.875 C-45.86664075 35.55885124 -44.01875482 41.48611494 -39.6875 47.875 C-37.78248222 50.00984566 -36.113191 51.24137137 -33.6875 52.875 C-32.800625 53.473125 -31.91375 54.07125 -31 54.6875 C-25.14625518 56.78601229 -19.22874482 56.78601229 -13.375 54.6875 C-11.26663546 53.26557973 -9.55570588 51.87801021 -7.6875 50.1875 C-4.6875 47.875 -4.6875 47.875 -1.5625 47.3125 C1.3125 47.875 1.3125 47.875 3.6875 49.4375 C5.97294885 52.86567327 5.9409325 54.82510169 5.3125 58.875 C1.17440053 66.11667407 -7.02005994 69.31918665 -14.6875 71.875 C-28.47669215 72.88066338 -37.89482937 69.9019294 -48.59375 61.3515625 C-56.24888575 54.46865535 -60.07351328 45.15225245 -60.92578125 35.05078125 C-61.21149473 24.02825609 -58.19249019 15.03042267 -50.6875 6.875 C-36.90219444 -7.30045572 -17.33994076 -11.00817242 0 0 Z " fill="#040101" transform="translate(374.6875,223.125)"/>
<path d="M0 0 C0.717323 -0.0038269 1.434646 -0.00765381 2.17370605 -0.01159668 C3.68661914 -0.01431227 5.19957945 -0.00697555 6.71240234 0.00976562 C9.02417976 0.03118449 11.33285013 0.00995649 13.64453125 -0.015625 C15.11719434 -0.01298166 16.5898555 -0.00785653 18.0625 0 C18.75114136 -0.00809692 19.43978271 -0.01619385 20.14929199 -0.02453613 C23.4760785 0.04024855 25.26752796 0.33446464 27.96289062 2.34570312 C30.27600794 5.56908827 30.15194221 7.66916514 29.53125 11.53125 C27.32459957 14.14585261 25.57957671 15.39183169 22.15209961 15.84765625 C19.33057868 15.92513275 16.53952426 15.87975924 13.71875 15.78125 C12.73970703 15.76320312 11.76066406 15.74515625 10.75195312 15.7265625 C8.34462997 15.67959034 5.93781257 15.60785146 3.53125 15.53125 C3.53125 20.81125 3.53125 26.09125 3.53125 31.53125 C4.92859375 31.48484375 6.3259375 31.4384375 7.765625 31.390625 C9.60414529 31.35310418 11.4426887 31.31670435 13.28125 31.28125 C14.20164063 31.24773437 15.12203125 31.21421875 16.0703125 31.1796875 C22.87841554 31.08101934 22.87841554 31.08101934 26.13671875 33.328125 C28.20750283 36.59961581 28.13915135 38.7487527 27.53125 42.53125 C25.3637282 45.01597012 23.65402969 46.36915548 20.33959961 46.84765625 C17.78775447 46.92486944 15.26973335 46.88016956 12.71875 46.78125 C11.39327148 46.75417969 11.39327148 46.75417969 10.04101562 46.7265625 C7.87062457 46.67963513 5.70079481 46.60789731 3.53125 46.53125 C3.53125 51.81125 3.53125 57.09125 3.53125 62.53125 C4.98917969 62.48484375 6.44710937 62.4384375 7.94921875 62.390625 C9.87237532 62.35309999 11.79555408 62.31670062 13.71875 62.28125 C14.67845703 62.24773437 15.63816406 62.21421875 16.62695312 62.1796875 C21.050659 62.11845974 23.76771997 62.09386045 27.66796875 64.328125 C29.53125 66.53125 29.53125 66.53125 30.15625 70.03125 C29.53125 73.53125 29.53125 73.53125 27.43554688 75.71459961 C23.85645745 77.95333569 21.63977079 78.06081816 17.4375 78.09765625 C16.76835571 78.10385483 16.09921143 78.11005341 15.40979004 78.11643982 C14.00123543 78.1235138 12.59259679 78.12040619 11.18408203 78.10766602 C9.03651349 78.09378402 6.89329566 78.1279098 4.74609375 78.16601562 C3.37239477 78.16696686 1.99869038 78.16510777 0.625 78.16015625 C-0.61572266 78.16088135 -1.85644531 78.16160645 -3.13476562 78.16235352 C-7.44891576 77.34571042 -8.72999449 75.91752634 -11.46875 72.53125 C-12.09693909 69.37535095 -12.09693909 69.37535095 -12.09985352 65.78491211 C-12.10700882 65.12736435 -12.11416412 64.46981659 -12.12153625 63.79234314 C-12.13837244 61.63037508 -12.11905707 59.47049565 -12.09765625 57.30859375 C-12.09848534 55.80074391 -12.10094624 54.29289415 -12.10496521 52.78504944 C-12.10781955 49.63010343 -12.09315726 46.47586881 -12.06567383 43.32104492 C-12.03156114 39.27996453 -12.03762174 35.2401533 -12.0563364 31.1990118 C-12.06691066 28.08738143 -12.05796545 24.9760458 -12.04295158 21.86444283 C-12.03777433 20.37452635 -12.03824607 18.88457903 -12.04449654 17.39466667 C-12.04995558 15.3118366 -12.02955792 13.23081698 -12.00219727 11.14819336 C-11.99599869 9.96414413 -11.98980011 8.78009491 -11.9834137 7.56016541 C-10.80666949 0.63475242 -6.19477452 -0.07283707 0 0 Z " fill="#030001" transform="translate(147.46875,217.46875)"/>
<path d="M0 0 C0.717323 -0.0038269 1.434646 -0.00765381 2.17370605 -0.01159668 C3.68661914 -0.01431227 5.19957945 -0.00697555 6.71240234 0.00976562 C9.02417976 0.03118449 11.33285013 0.00995649 13.64453125 -0.015625 C15.11719434 -0.01298166 16.5898555 -0.00785653 18.0625 0 C18.75114136 -0.00809692 19.43978271 -0.01619385 20.14929199 -0.02453613 C23.50050713 0.04072426 25.26484492 0.32861096 27.96289062 2.38085938 C29.53125 4.53125 29.53125 4.53125 30.09375 7.46875 C29.30863378 11.74327164 28.02391644 12.94215896 24.53125 15.53125 C20.90684891 16.14157757 17.38092386 16.00361656 13.71875 15.84375 C12.25018555 15.80991211 12.25018555 15.80991211 10.75195312 15.77539062 C8.3443927 15.71666964 5.93762246 15.62699426 3.53125 15.53125 C3.53125 20.81125 3.53125 26.09125 3.53125 31.53125 C4.92859375 31.48484375 6.3259375 31.4384375 7.765625 31.390625 C9.60414529 31.35310418 11.4426887 31.31670435 13.28125 31.28125 C14.20164062 31.24773437 15.12203125 31.21421875 16.0703125 31.1796875 C22.87841554 31.08101934 22.87841554 31.08101934 26.13671875 33.328125 C28.20750283 36.59961581 28.13915135 38.7487527 27.53125 42.53125 C25.3637282 45.01597012 23.65402969 46.36915548 20.33959961 46.84765625 C17.78775447 46.92486944 15.26973335 46.88016956 12.71875 46.78125 C11.39327148 46.75417969 11.39327148 46.75417969 10.04101562 46.7265625 C7.87062457 46.67963513 5.70079481 46.60789731 3.53125 46.53125 C3.53125 51.81125 3.53125 57.09125 3.53125 62.53125 C4.98917969 62.48484375 6.44710938 62.4384375 7.94921875 62.390625 C9.87237532 62.35309999 11.79555408 62.31670062 13.71875 62.28125 C14.67845703 62.24773437 15.63816406 62.21421875 16.62695312 62.1796875 C21.050659 62.11845974 23.76771997 62.09386045 27.66796875 64.328125 C29.53125 66.53125 29.53125 66.53125 30.15625 70.03125 C29.53125 73.53125 29.53125 73.53125 27.43554688 75.71459961 C23.85645745 77.95333569 21.63977079 78.06081816 17.4375 78.09765625 C16.76835571 78.10385483 16.09921143 78.11005341 15.40979004 78.11643982 C14.00123543 78.1235138 12.59259679 78.12040619 11.18408203 78.10766602 C9.03651349 78.09378402 6.89329566 78.1279098 4.74609375 78.16601562 C3.37239477 78.16696686 1.99869038 78.16510777 0.625 78.16015625 C-0.61572266 78.16088135 -1.85644531 78.16160645 -3.13476562 78.16235352 C-7.44891576 77.34571042 -8.72999449 75.91752634 -11.46875 72.53125 C-12.09693909 69.37535095 -12.09693909 69.37535095 -12.09985352 65.78491211 C-12.10700882 65.12736435 -12.11416412 64.46981659 -12.12153625 63.79234314 C-12.13837244 61.63037508 -12.11905707 59.47049565 -12.09765625 57.30859375 C-12.09848534 55.80074391 -12.10094624 54.29289415 -12.10496521 52.78504944 C-12.10781955 49.63010343 -12.09315726 46.47586881 -12.06567383 43.32104492 C-12.03156114 39.27996453 -12.03762174 35.2401533 -12.0563364 31.1990118 C-12.06691066 28.08738143 -12.05796545 24.9760458 -12.04295158 21.86444283 C-12.03777433 20.37452635 -12.03824607 18.88457903 -12.04449654 17.39466667 C-12.04995558 15.3118366 -12.02955792 13.23081698 -12.00219727 11.14819336 C-11.99599869 9.96414413 -11.98980011 8.78009491 -11.9834137 7.56016541 C-10.80666949 0.63475242 -6.19477452 -0.07283707 0 0 Z " fill="#020000" transform="translate(268.46875,217.46875)"/>
<path d="M0 0 C6.93 0 13.86 0 21 0 C19.03540759 5.89377723 17.16246458 11.17220561 14.375 16.625 C14.02872559 17.30667236 13.68245117 17.98834473 13.32568359 18.69067383 C4.74316007 35.34691355 -5.58407217 49.92595612 -18.54052734 63.47314453 C-19.52508427 64.50315775 -20.5044814 65.53812459 -21.47900391 66.57763672 C-52.46538316 99.54890859 -100.70307086 123.14649339 -146.14575195 125.09185791 C-156.76165893 125.40383907 -167.38438151 125.24733944 -178 125 C-178 124.67 -178 124.34 -178 124 C-177.10917725 123.9906543 -176.21835449 123.98130859 -175.30053711 123.97167969 C-171.91716759 123.92702052 -168.53494209 123.86513312 -165.15209961 123.79248047 C-163.70266755 123.76467745 -162.25309533 123.74326635 -160.8034668 123.72900391 C-150.23967891 123.61900264 -141.10370069 122.14512663 -131 119 C-129.86256348 118.66871094 -128.72512695 118.33742188 -127.55322266 117.99609375 C-113.00186721 113.75778875 -99.36386954 108.11689413 -86 101 C-85.40477539 100.68836914 -84.80955078 100.37673828 -84.19628906 100.05566406 C-61.4473727 88.06585594 -40.77156465 70.21929926 -25 50 C-24.57315918 49.4548877 -24.14631836 48.90977539 -23.70654297 48.34814453 C-12.3755776 33.7608213 -3.40211885 17.90108365 4 1 C2.02 0.505 2.02 0.505 0 0 Z " fill="#F9626D" transform="translate(417,327)"/>
<path d="M0 0 C95.04 0 190.08 0 288 0 C285.7572574 6.72822781 285.7572574 6.72822781 283.8359375 9.4375 C283.23652344 10.31535156 283.23652344 10.31535156 282.625 11.2109375 C281.78909586 12.4073253 280.94790174 13.60003375 280.1015625 14.7890625 C277.44185386 18.70954211 276.34521847 21.27530188 277 26 C277.91257306 28.78566059 277.91257306 28.78566059 279 31 C269.76970213 43.7153823 269.76970213 43.7153823 265.546875 44.39453125 C264.05470831 44.04757641 262.56968373 43.66837153 261.09375 43.2578125 C258.95382716 42.78215661 258.95382716 42.78215661 257.15625 44.0546875 C255.85531712 45.25088426 254.58003415 46.47527071 253.32421875 47.71875 C238.56184222 62.20820865 220.02982514 72.32691459 201 80 C199.95972656 80.42023438 198.91945313 80.84046875 197.84765625 81.2734375 C195.25057582 82.2645758 192.65008607 83.16183324 190 84 C189.17886719 84.26296875 188.35773438 84.5259375 187.51171875 84.796875 C168.20056108 90.27442479 147.90196779 90.47235683 128 90 C128 89.67 128 89.34 128 89 C129.07894531 88.96261719 130.15789062 88.92523438 131.26953125 88.88671875 C170.28884623 87.30038861 207.94296395 74.02817007 236.78125 47.0625 C238.75737093 45.22554251 240.78954621 43.52188835 242.875 41.8125 C255.48987212 30.74905368 264.74656275 16.44351518 273 2 C182.91 2 92.82 2 0 2 C0 1.34 0 0.68 0 0 Z " fill="#E4D9D6" transform="translate(112,327)"/>
<path d="M0 0 C5.28 0 10.56 0 16 0 C17.21610449 4.86441796 16.4155563 5.96740718 14.28125 10.390625 C13.84076828 11.3165596 13.84076828 11.3165596 13.39138794 12.26119995 C12.76263717 13.57988316 12.12869077 14.8960994 11.49005127 16.21002197 C10.49685842 18.25647314 9.52027313 20.31007497 8.54833984 22.36669922 C6.27022578 27.18226862 3.97870084 31.99108775 1.64550781 36.78027344 C0.61990539 38.88694004 -0.38063851 41.00347598 -1.375 43.125 C-1.89835937 44.20007813 -2.42171875 45.27515625 -2.9609375 46.3828125 C-6.60253344 59.05994725 -1.78114963 68.35609529 3.6875 79.5625 C4.41814987 81.09989897 5.14668016 82.63830714 5.87304688 84.17773438 C8.43921741 89.60057296 11.02366013 95.01392892 13.67041016 100.39794922 C14.3691626 101.85418701 14.3691626 101.85418701 15.08203125 103.33984375 C15.68301636 104.56562134 15.68301636 104.56562134 16.29614258 105.81616211 C17 108 17 108 16 112 C10.72 112 5.44 112 0 112 C-0.36931641 110.05710083 -0.36931641 110.05710083 -0.74609375 108.07495117 C-1.88579503 102.96742175 -3.81040294 98.50526935 -6.0625 93.80078125 C-6.45445557 92.96210007 -6.84641113 92.12341888 -7.25024414 91.25932312 C-8.49170545 88.60631128 -9.7451231 85.95918898 -11 83.3125 C-12.25283586 80.6542022 -13.50303839 77.99471468 -14.74975586 75.33354187 C-15.52260505 73.68550849 -16.29926376 72.03925443 -17.08032227 70.39509583 C-22.68467953 58.49293621 -22.68467953 58.49293621 -21 51 C-19.80419922 47.79711914 -19.80419922 47.79711914 -18.3046875 44.53515625 C-18.0361496 43.94408081 -17.76761169 43.35300537 -17.49093628 42.74401855 C-16.92024692 41.49070933 -16.34550573 40.23923811 -15.76696777 38.98953247 C-14.86652611 37.04419277 -13.97722111 35.09410752 -13.09082031 33.14233398 C-11.92677721 30.5813552 -10.75905511 28.02212643 -9.58691406 25.46484375 C-7.62115391 21.17283328 -5.66993487 16.87518952 -3.75 12.5625 C-3.22921875 11.40878906 -2.7084375 10.25507813 -2.171875 9.06640625 C-0.72803656 5.59267795 -0.72803656 5.59267795 0 0 Z " fill="#E21F2C" transform="translate(480,200)"/>
<path d="M0 0 C0.87032364 -0.0038269 1.74064728 -0.00765381 2.63734436 -0.01159668 C4.47560789 -0.01431517 6.31391014 -0.00695835 8.15209961 0.00976562 C10.95970377 0.03115134 13.76474163 0.00997627 16.57226562 -0.015625 C18.36068271 -0.01298121 20.14909821 -0.00785516 21.9375 0 C22.77409653 -0.00809692 23.61069305 -0.01619385 24.47264099 -0.02453613 C28.45686081 0.03925174 30.57559042 0.25600677 34.06469727 2.34570312 C36.03515625 4.53125 36.03515625 4.53125 36.66015625 8.03125 C36.03515625 11.53125 36.03515625 11.53125 34.28515625 13.96875 C30.70381429 15.69054902 28.7544747 15.69498515 24.83203125 15.62890625 C23.20539551 15.60775757 23.20539551 15.60775757 21.54589844 15.58618164 C20.71735352 15.5680542 19.88880859 15.54992676 19.03515625 15.53125 C19.05181084 16.60453804 19.05181084 16.60453804 19.06880188 17.69950867 C19.1691115 24.45254018 19.24517508 31.20536292 19.29421711 37.95897198 C19.32027852 41.43089849 19.35561012 44.90220792 19.41235352 48.3737793 C19.47722459 52.36773499 19.50136487 56.36104558 19.5234375 60.35546875 C19.54924393 61.59834152 19.57505035 62.84121429 19.60163879 64.12174988 C19.60476347 73.72628068 19.60476347 73.72628068 16.69604492 76.81958008 C13.43452474 78.91761825 11.84039731 79.25991318 8.03515625 78.53125 C5.30451673 76.41755823 4.16224677 75.25013949 3.55413818 71.81036377 C3.56302063 70.77111755 3.57190308 69.73187134 3.58105469 68.66113281 C3.58135681 67.48021057 3.58165894 66.29928833 3.58197021 65.08258057 C3.60261536 63.81267273 3.6232605 62.54276489 3.64453125 61.234375 C3.65019104 59.93046814 3.65585083 58.62656128 3.66168213 57.28314209 C3.67692287 53.82392477 3.71618963 50.36538394 3.76049805 46.90643311 C3.80148538 43.37391307 3.81970043 39.84128326 3.83984375 36.30859375 C3.88268657 29.38253538 3.9509181 22.4569252 4.03515625 15.53125 C3.143125 15.57765625 2.25109375 15.6240625 1.33203125 15.671875 C0.1615625 15.70796875 -1.00890625 15.7440625 -2.21484375 15.78125 C-3.95507812 15.85085937 -3.95507812 15.85085937 -5.73046875 15.921875 C-8.96484375 15.53125 -8.96484375 15.53125 -11.35546875 13.734375 C-13.69581965 10.53059366 -13.51719416 8.39770287 -12.96484375 4.53125 C-9.58202276 -0.4949763 -5.53589445 -0.05344933 0 0 Z " fill="#030001" transform="translate(409.96484375,216.46875)"/>
<path d="M0 0 C2.98101808 3.04126518 3.37779749 5.28239247 3.38818359 9.46777344 C3.39764008 10.56281189 3.40709656 11.65785034 3.4168396 12.78607178 C3.41076691 13.96526184 3.40469421 15.1444519 3.3984375 16.359375 C3.40130768 17.57772034 3.40417786 18.79606567 3.40713501 20.05133057 C3.4091769 22.63025374 3.40363842 25.20919237 3.39111328 27.78808594 C3.3751177 31.72105952 3.39093029 35.65299672 3.41015625 39.5859375 C3.40817276 42.09375226 3.4043269 44.60156637 3.3984375 47.109375 C3.40754654 48.86601471 3.40754654 48.86601471 3.4168396 50.65814209 C3.35058983 58.41804268 2.42762728 64.04386666 -1.6875 70.75 C-6.09096124 75.03444878 -10.71234287 77.20834236 -16.875 77.625 C-24.26493866 77.31756033 -29.44855331 72.93909948 -35.125 68.625 C-37.85708342 64.80008321 -37.59847986 62.6382189 -37 58 C-36 56 -36 56 -34 55 C-27.36845803 54.0052687 -27.36845803 54.0052687 -24.09765625 56.3828125 C-22.92391961 57.48720365 -21.75949199 58.6015879 -20.60546875 59.7265625 C-18.96595139 61.30526416 -18.96595139 61.30526416 -16.125 60.9375 C-14.05807438 60.17858366 -14.05807438 60.17858366 -13 59 C-12.90300453 57.27198599 -12.87484112 55.54006008 -12.87402344 53.80932617 C-12.87021667 52.70115036 -12.86640991 51.59297455 -12.86248779 50.45121765 C-12.86094696 48.64038445 -12.86094696 48.64038445 -12.859375 46.79296875 C-12.84104828 44.26236078 -12.8214781 41.73176157 -12.80078125 39.20117188 C-12.77177729 35.19149706 -12.74767916 31.18237714 -12.74951172 27.17260742 C-12.74618636 23.31638182 -12.71168446 19.46146765 -12.671875 15.60546875 C-12.6789447 14.40431931 -12.6860144 13.20316986 -12.69329834 11.96562195 C-12.5717249 3.6883727 -12.5717249 3.6883727 -9.68457031 0.2121582 C-5.99135521 -1.45543119 -3.85171095 -1.14124769 0 0 Z " fill="#030001" transform="translate(233,218)"/>
<path d="M0 0 C33.73229838 19.55096477 60.59716869 54.12000553 75 90 C75 90.99 75 91.98 75 93 C68.07 93 61.14 93 54 93 C54 92.67 54 92.34 54 92 C56.64 92 59.28 92 62 92 C58.57707412 81.46792036 54.212433 71.75892811 49 62 C48.67628418 61.39124023 48.35256836 60.78248047 48.01904297 60.15527344 C37.02136975 39.68070337 20.874811 17.04203148 1.78100586 3.41650391 C1.19327393 2.94905762 0.60554199 2.48161133 0 2 C0 1.34 0 0.68 0 0 Z " fill="#F7626C" transform="translate(363,92)"/>
<path d="M0 0 C30.05508558 -0.81039017 55.91040277 5.70248722 79 26 C80.755849 27.94471828 82.37473888 29.94153509 84 32 C68.52806349 33.5318749 68.52806349 33.5318749 62.84765625 30.08984375 C61.08159044 28.37158123 59.36218852 26.60431321 57.6875 24.796875 C43.56194922 10.09644715 19.78531291 1.64763708 0 1 C0 0.67 0 0.34 0 0 Z " fill="#FA626D" transform="translate(245,125)"/>
<path d="M0 0 C-13.55017282 17.69050341 -37.86212732 28.83876786 -59.56494141 31.77001953 C-67.66564484 32.53509499 -75.87640118 32.21904062 -84 32 C-84 31.67 -84 31.34 -84 31 C-83.2471875 30.98582031 -82.494375 30.97164063 -81.71875 30.95703125 C-61.52846762 30.05042876 -40.74577558 20.83307767 -26 7 C-25.13955078 5.98486328 -25.13955078 5.98486328 -24.26171875 4.94921875 C-17.72628668 -2.28178037 -9.00015154 -0.60577943 0 0 Z " fill="#FA626D" transform="translate(329,355)"/>
<path d="M0 0 C4.6057041 3.31168003 7.7944983 7.2110529 11.1875 11.6875 C11.74977295 12.42556885 12.3120459 13.1636377 12.89135742 13.92407227 C28 34.14943437 28 34.14943437 28 40 C-67.04 40 -162.08 40 -260 40 C-259.67 39.34 -259.34 38.68 -259 38 C-166.6 38.33 -74.2 38.66 21 39 C12.71948197 22.30209503 12.71948197 22.30209503 2.93359375 6.96875 C1.3112715 4.4779118 0.40430914 2.89400229 0 0 Z " fill="#C7C5C5" transform="translate(372,145)"/>
<path d="M0 0 C12.46024735 -0.41077739 12.46024735 -0.41077739 17 3 C19 6 19 6 18.875 9.4375 C17.9275442 13.29499863 17.10978733 14.62192733 14 17 C9.36297289 18.5456757 4.87528349 18.05735628 0 18 C0 12.06 0 6.12 0 0 Z " fill="#F64552" transform="translate(81,232)"/>
<path d="M0 0 C4.65006425 3.33254604 7.83749374 7.29324865 11.25 11.8125 C11.81485107 12.5564502 12.37970215 13.30040039 12.96166992 14.06689453 C16.66447545 19.02181848 20.1133788 24.08096617 23.3125 29.375 C23.69116211 29.99866455 24.06982422 30.6223291 24.45996094 31.26489258 C26.09817683 34.06642844 27 35.69737632 27 39 C25.02 39 23.04 39 21 39 C20.74943848 38.47269287 20.49887695 37.94538574 20.24072266 37.40209961 C15.45313515 27.39810441 10.57691003 17.72663193 4.13720703 8.67163086 C2.13590975 5.84018086 0.48666148 3.48347162 0 0 Z " fill="#E4D9D5" transform="translate(372,145)"/>
<path d="M0 0 C0.99 0.66 1.98 1.32 3 2 C-4.26 2 -11.52 2 -19 2 C-19 1.67 -19 1.34 -19 1 C-17.64455078 0.90912109 -17.64455078 0.90912109 -16.26171875 0.81640625 C-14.49248047 0.69072266 -14.49248047 0.69072266 -12.6875 0.5625 C-10.92986328 0.44068359 -10.92986328 0.44068359 -9.13671875 0.31640625 C-1.39388145 -0.46462715 -1.39388145 -0.46462715 0 0 Z " fill="#CF575F" transform="translate(264,385)"/>
<path d="M0 0 C7.26 0 14.52 0 22 0 C20.68 0.33 19.36 0.66 18 1 C18 1.66 18 2.32 18 3 C12.06 2.34 6.12 1.68 0 1 C0 0.67 0 0.34 0 0 Z " fill="#CF575F" transform="translate(245,125)"/>
<path d="M0 0 C0 0.33 0 0.66 0 1 C-4.96073422 2.32286246 -9.91111512 2.08893197 -15 2 C-10.73298482 -2.26701518 -5.47416361 -0.83504191 0 0 Z " fill="#E25B65" transform="translate(286,449)"/>
</svg>
