<?xml version="1.0" encoding="UTF-8"?>
<svg version="1.1" xmlns="http://www.w3.org/2000/svg" width="512" height="512">
<path d="M0 0 C3.57485799 2.78768729 6.82145759 5.7709154 10 9 C10.64710938 9.64839844 11.29421875 10.29679687 11.9609375 10.96484375 C23.56058243 23.34961749 28.74963887 39.95340328 29.0703125 56.6640625 C28.4324158 74.48764663 21.85500721 90.55475565 9.60546875 103.60546875 C3.75225791 108.98480645 -2.89501732 113.44750866 -10 117 C-10 128.22 -10 139.44 -10 151 C-9.01 150.67 -8.02 150.34 -7 150 C3.11019133 149.28080718 10.43422419 149.8240424 18.3125 156.375 C21.14120306 158.99252287 23.30078507 161.49536921 25 165 C25.85078125 164.84273437 26.7015625 164.68546875 27.578125 164.5234375 C36.44303905 163.167389 44.87589786 162.76183033 52.8125 167.3828125 C58.80845199 171.81553415 62.52776272 177.01956532 65 184 C66.34191406 183.83951172 66.34191406 183.83951172 67.7109375 183.67578125 C77.55125527 182.70014207 85.00700589 183.02677217 93.3125 188.6875 C100.35798458 194.48045399 102.87633891 201.14004731 104 210 C104.30919414 215.6119225 104.34857684 221.21667717 104.37890625 226.8359375 C104.3951446 228.48093593 104.41233077 230.12592525 104.43040466 231.77090454 C104.47588849 236.09683858 104.51073216 240.422787 104.54260254 244.74884033 C104.59440847 251.58642811 104.6603394 258.42389761 104.72891235 265.26133537 C104.74556047 266.93461511 104.76165438 268.60790045 104.77719116 270.28119087 C104.89054371 282.25028682 105.16320521 294.19728799 105.72157288 306.15499878 C106.47857095 323.43159774 104.7541164 341.18819361 95 356 C96.32064453 356.12955078 96.32064453 356.12955078 97.66796875 356.26171875 C107.21754594 357.41699501 107.21754594 357.41699501 111.1875 360.375 C114.53432676 365.22212842 115.31724558 368.69386366 115.3359375 374.58203125 C115.3459227 375.68063728 115.3459227 375.68063728 115.35610962 376.80143738 C115.36621564 378.34880063 115.37092727 379.89620729 115.37060547 381.44360352 C115.37496666 383.79452613 115.41127025 386.1435514 115.44921875 388.49414062 C115.45509007 390.0025978 115.45905735 391.51106382 115.4609375 393.01953125 C115.47530853 393.71456253 115.48967957 394.40959381 115.50448608 395.12568665 C115.45387503 400.61400411 114.12587775 403.63533363 111 408 C106.90196437 411.14458149 103.74041735 411.37820869 98.64356995 411.38768005 C97.54707804 411.39575836 97.54707804 411.39575836 96.42843479 411.40399987 C93.98409999 411.41828357 91.54030643 411.41117491 89.09594727 411.40405273 C87.34141607 411.4097561 85.58688858 411.41672023 83.83236694 411.42485046 C79.06996189 411.44280075 74.3077409 411.44160997 69.54531217 411.43590808 C65.56908812 411.43281893 61.59289956 411.43890564 57.61668056 411.44494683 C48.23620431 411.45899659 38.85581912 411.457427 29.4753418 411.44604492 C19.79873806 411.43456297 10.12241145 411.44863966 0.44584423 411.4754414 C-7.86343095 411.49759418 -16.17261911 411.50423673 -24.48192173 411.49836498 C-29.44414058 411.49499323 -34.40618177 411.49742502 -39.36837578 411.51461601 C-44.03471366 411.53007633 -48.70064083 411.52613978 -53.36696243 411.50731087 C-55.07859404 411.50362246 -56.79025602 411.50674082 -58.50185966 411.51719666 C-60.84057559 411.53039161 -63.1779288 411.51887383 -65.5165863 411.50120544 C-66.82456901 411.50099616 -68.13255171 411.50078688 -69.48017025 411.50057125 C-74.50090722 410.78654905 -77.6469025 408.64055697 -80.84790039 404.75952148 C-82.36968865 401.11451774 -82.44895284 397.73408623 -82.43359375 393.84765625 C-82.4388356 393.06990341 -82.44407745 392.29215057 -82.44947815 391.49082947 C-82.45588187 389.85107615 -82.45458274 388.2112768 -82.44604492 386.5715332 C-82.43753761 384.07354257 -82.46631126 381.57784298 -82.49804688 379.08007812 C-82.49965927 377.48177151 -82.49908062 375.88346088 -82.49609375 374.28515625 C-82.50732773 373.54435318 -82.51856171 372.80355011 -82.53013611 372.04029846 C-82.46143104 366.88314049 -81.2306012 363.98176461 -78 360 C-73.86097864 356.54235869 -69.85855815 356.63227545 -64.6875 356.8125 C-63.94693359 356.82603516 -63.20636719 356.83957031 -62.44335938 356.85351562 C-60.62858925 356.88864021 -58.81419712 356.94244028 -57 357 C-63.0114276 347.1383882 -69.2025005 337.50086452 -76.125 328.25 C-86.28630687 314.65665568 -95.28116197 300.46201315 -104.2265625 286.04296875 C-106.62258356 282.18761996 -109.05023159 278.35705772 -111.5234375 274.55078125 C-112.0695166 273.70547852 -112.6155957 272.86017578 -113.17822266 271.98925781 C-114.18812567 270.43001022 -115.20543495 268.87552103 -116.23193359 267.32714844 C-121.05099578 259.85512504 -124.28297147 252.01029392 -123 243 C-120.86915971 233.63234362 -116.53443657 227.76304974 -108.64453125 222.3984375 C-102.51220548 218.90817895 -96.97822359 217.91540806 -90 219 C-83.22434367 220.86385368 -77.57549213 224.70565512 -73 230 C-71.85559251 232.04835839 -70.77757868 234.13494227 -69.76171875 236.25 C-69.23924561 237.32765625 -68.71677246 238.4053125 -68.1784668 239.515625 C-67.78957275 240.33546875 -67.40067871 241.1553125 -67 242 C-66.69593245 225.84060303 -66.46689409 209.68213753 -66.32644176 193.52056885 C-66.25948419 186.0158307 -66.16825803 178.51287257 -66.01928711 171.00927734 C-65.8894594 164.4667818 -65.80578768 157.92557522 -65.77684957 151.38182735 C-65.7599373 147.91803786 -65.72039961 144.4579345 -65.62550926 140.99533081 C-64.54688089 127.52667983 -64.54688089 127.52667983 -68.27759171 115.08032227 C-71.69897391 111.82194371 -75.53120843 110.45384422 -80 109 C-93.81288928 99.95771052 -101.72428324 82.65719295 -105 67 C-105.42763574 63.25867998 -105.52510831 59.5761709 -105.5 55.8125 C-105.49500488 54.81508789 -105.49000977 53.81767578 -105.48486328 52.79003906 C-105.27537101 43.80643245 -103.51641803 36.22991453 -100 28 C-99.5771875 27.01 -99.154375 26.02 -98.71875 25 C-90.60725453 8.3997302 -75.33758335 -2.70086338 -58.37890625 -8.96875 C-38.80915168 -14.9645897 -16.87959408 -11.15062912 0 0 Z " fill="#010101" transform="translate(260,56)"/>
<path d="M0 0 C3.92336307 2.72679584 5.68365099 6.01366995 7.1875 10.5 C7.73923703 14.47063703 7.73167559 18.38810853 7.70166016 22.39208984 C7.70878525 23.56047394 7.71591034 24.72885803 7.72325134 25.93264771 C7.74247517 29.7755848 7.73426564 33.61796856 7.7265625 37.4609375 C7.73646917 40.13517349 7.7481217 42.80934063 7.76229858 45.48355103 C7.7924706 51.79204722 7.80424591 58.10041762 7.80787504 64.40898001 C7.81454458 75.72379473 7.8434799 87.03852359 7.8929714 98.35323107 C7.91214481 102.96310701 7.91349758 107.57280052 7.91104126 112.18270874 C7.91761747 114.58323289 7.92462291 116.98375592 7.93212891 119.38427734 C7.92800491 120.48660706 7.92388092 121.58893677 7.91963196 122.72467041 C7.9250148 123.72555695 7.93039764 124.72644348 7.9359436 125.75765991 C7.93627909 126.63034704 7.93661457 127.50303417 7.93696022 128.40216637 C7.99441262 130.71908928 7.99441262 130.71908928 10.1875 132.5 C13.75342619 132.33582968 13.75342619 132.33582968 17.1875 131.5 C18.61959986 128.63580027 18.29648072 126.20357747 18.28173828 123.00244141 C18.27895167 121.62024965 18.27628179 120.23805766 18.27371216 118.85586548 C18.26913687 117.75519178 18.26913687 117.75519178 18.26446915 116.63228226 C18.25314451 112.752201 18.27361948 108.87223815 18.2890625 104.9921875 C18.30736621 100.0518658 18.31601853 95.11216955 18.28710938 90.171875 C18.26459081 86.18149372 18.27597193 82.19247356 18.31011581 78.2021904 C18.31689223 76.68156715 18.31118482 75.16083509 18.29275894 73.64030838 C18.15805508 61.75929683 18.15805508 61.75929683 20.67840576 58.6762085 C24.67408352 56.26173637 28.64873848 55.92233944 33.1875 56.5 C38.4465971 58.39327496 40.97758594 61.09783215 44.1875 65.5 C45.46807466 69.34172397 45.34829543 72.97446464 45.36108398 76.97875977 C45.367771 77.84405304 45.37445801 78.70934631 45.38134766 79.6008606 C45.39539783 81.48005834 45.40729199 83.35927314 45.41729546 85.23849678 C45.43369189 88.20918639 45.45692712 91.17974876 45.48219299 94.15037537 C45.55302161 102.59652387 45.61321243 111.04272311 45.66430664 119.48901367 C45.69602875 124.65371918 45.73728168 129.81827653 45.78450203 134.98286247 C45.80055712 136.95448084 45.81286238 138.92613333 45.82140923 140.89779854 C45.83351055 143.64889788 45.85763625 146.39964603 45.88452148 149.15063477 C45.88511063 149.97094681 45.88569977 150.79125885 45.88630676 151.63642883 C45.76915208 156.03708694 45.76915208 156.03708694 48.1875 159.5 C51.75342619 159.33582968 51.75342619 159.33582968 55.1875 158.5 C56.72761418 155.41977164 56.30524791 152.18755806 56.28173828 148.80908203 C56.27895151 147.16399148 56.27628165 145.51890072 56.27371216 143.87380981 C56.27066196 142.99961521 56.26761177 142.12542061 56.26446915 141.22473526 C56.25315492 136.60681282 56.27361625 131.98899045 56.2890625 127.37109375 C56.30737181 121.48923782 56.31600884 115.6079074 56.28710938 109.72607422 C56.26460681 104.97715925 56.27595325 100.22938884 56.31011581 95.48055649 C56.31689763 93.66965957 56.31117046 91.85867139 56.29275894 90.04785538 C56.26865286 87.51385038 56.28774839 84.98358036 56.31689453 82.44970703 C56.29950729 81.70046967 56.28212006 80.9512323 56.26420593 80.17929077 C56.31448364 78.08059692 56.31448364 78.08059692 57.1875 74.5 C60.39769527 71.54018388 63.88247265 70.33288851 68.1875 70 C72.44863006 70.25599812 76.0714317 71.53973512 79.1875 74.5 C82.51611045 79.50591749 83.77425453 83.17834136 83.70166016 89.23950195 C83.70878525 89.97858292 83.71591034 90.71766388 83.72325134 91.47914124 C83.7424055 93.89913306 83.73428034 96.31823977 83.7265625 98.73828125 C83.73647471 100.42743703 83.74841796 102.11658201 83.76229858 103.80570984 C83.79457176 108.23544953 83.80504626 112.66494191 83.80914307 117.0947876 C83.81792232 124.20230921 83.85328727 131.30962899 83.9013176 138.41698265 C83.9139311 140.89991643 83.91314311 143.3825954 83.91104126 145.86555481 C83.91761806 147.37952881 83.92462362 148.89350102 83.93212891 150.4074707 C83.92800491 151.09993896 83.92388092 151.79240723 83.91963196 152.50585938 C83.85569909 156.4447343 83.85569909 156.4447343 86.1875 159.5 C89.75342619 159.33582968 89.75342619 159.33582968 93.1875 158.5 C94.54240272 155.79019456 94.30474594 153.67865014 94.29760742 150.64501953 C94.29818649 149.41679474 94.29876556 148.18856995 94.29936218 146.92312622 C94.29793402 146.26495029 94.29650585 145.60677437 94.29503441 144.92865372 C94.29151786 141.44584661 94.31731083 137.9632017 94.33789062 134.48046875 C94.36223369 130.04722588 94.3779219 125.61445272 94.36254883 121.18115234 C94.35089057 117.59929096 94.36827168 114.01859559 94.40499306 110.43691635 C94.41361129 109.07261537 94.41152342 107.70820285 94.398489 106.34393692 C94.30418683 95.67601862 94.30418683 95.67601862 96.48428345 92.77349854 C101.02111103 89.61436502 105.93423071 89.66153031 111.1875 90.5 C116.11192636 92.8710201 118.51634745 95.79194943 121.1875 100.5 C121.69975281 103.8674469 121.69975281 103.8674469 121.7175293 107.58422852 C121.72626068 108.26647995 121.73499207 108.94873138 121.74398804 109.6516571 C121.76826474 111.89434535 121.76495709 114.13610366 121.76171875 116.37890625 C121.77418312 117.95346111 121.78852263 119.52800212 121.80464172 121.1025238 C121.84262343 125.24527846 121.85783857 129.38779483 121.86743164 133.53070068 C121.8871739 140.13496444 121.94463989 146.73904714 121.99619484 153.34312248 C122.01131237 155.6299341 122.01869152 157.91665414 122.02433777 160.20350647 C122.05483311 167.72910786 122.30959216 175.18005311 122.9577179 182.682724 C123.43575858 188.54380939 123.41207531 194.41559996 123.42773438 200.29296875 C123.43749015 202.49777278 123.46867369 204.70166074 123.5 206.90625 C123.58345743 218.00414952 122.61798009 228.75712995 117.4375 238.8125 C116.98890625 239.71613281 116.5403125 240.61976563 116.078125 241.55078125 C109.53332159 251.76013367 109.53332159 251.76013367 104.68517685 253.28922653 C101.6615557 253.63949442 98.71925758 253.74077789 95.67529297 253.75732422 C94.53447769 253.79383087 93.39366241 253.83033752 92.21827698 253.86795044 C88.45493502 253.97433355 84.69432833 254.01932904 80.9296875 254.0546875 C78.30282122 254.09565672 75.67595969 254.13693128 73.04910278 254.17849731 C67.543092 254.25699065 62.03774523 254.29228529 56.53125 254.31201172 C50.19316623 254.3361886 43.86416811 254.47311662 37.52903831 254.66146457 C31.40469467 254.83710066 25.28473267 254.88964591 19.15799332 254.89880753 C16.56689297 254.9192409 13.97580144 254.97596239 11.38634872 255.07058334 C-8.2999302 255.73587843 -8.2999302 255.73587843 -14.1187973 250.37537384 C-18.20189428 245.11839014 -20.89445002 239.37713437 -23.49569321 233.28493118 C-25.60504886 228.8238285 -28.47007209 224.98461351 -31.4375 221.0625 C-32.52100916 219.5951819 -33.60436555 218.12775097 -34.6875 216.66015625 C-36.21255622 214.6247133 -37.74241572 212.59296942 -39.2734375 210.56201172 C-45.64087893 202.10360455 -51.40086612 193.4844268 -56.84375 184.40234375 C-60.72156915 177.94858257 -64.79977339 171.62263329 -68.86645508 165.28686523 C-70.52460608 162.69713092 -72.16935048 160.09927132 -73.8125 157.5 C-74.38323242 156.61666992 -74.95396484 155.73333984 -75.54199219 154.82324219 C-76.08629883 153.95860352 -76.63060547 153.09396484 -77.19140625 152.203125 C-77.92532593 151.05312012 -77.92532593 151.05312012 -78.67407227 149.87988281 C-80.75910269 145.52112737 -80.65456788 141.18307926 -79.8125 136.5 C-77.41244659 131.09987983 -73.27054313 127.66336982 -67.8125 125.5 C-62.98913998 124.97611445 -59.37909832 126.35516638 -55.38226318 129.0756073 C-52.23286752 131.93334803 -50.68288856 135.81529865 -48.88671875 139.60546875 C-48.23712944 140.92518425 -48.23712944 140.92518425 -47.57441711 142.27156067 C-46.20094901 145.06968695 -44.85001568 147.87799491 -43.5 150.6875 C-42.12729058 153.50514145 -40.75013593 156.32057177 -39.37202454 159.13557434 C-38.51754009 160.88522149 -37.66715734 162.63687872 -36.82121277 164.39067078 C-36.44023941 165.17851456 -36.05926605 165.96635834 -35.66674805 166.77807617 C-35.33176804 167.47438644 -34.99678802 168.17069672 -34.6516571 168.8881073 C-33.91782329 170.49490285 -33.91782329 170.49490285 -32.8125 171.5 C-29.3125 171.66666667 -29.3125 171.66666667 -25.8125 171.5 C-23.98755365 169.67505365 -24.67981799 166.7967636 -24.67446899 164.34590149 C-24.67023707 163.37091738 -24.67023707 163.37091738 -24.66591966 162.37623662 C-24.65753797 160.18220907 -24.65623236 157.98823174 -24.65478516 155.79418945 C-24.65011944 154.22744097 -24.64497628 152.66069384 -24.63938904 151.09394836 C-24.62808704 147.71140481 -24.61966294 144.32887019 -24.61326981 140.94631386 C-24.60261056 135.59716615 -24.58237031 130.24808218 -24.56015015 124.89897156 C-24.49815929 109.68503749 -24.4442322 94.47110641 -24.41113281 79.25708008 C-24.39278597 70.86103659 -24.36384665 62.46509906 -24.3231281 54.06913346 C-24.30205407 49.62444955 -24.28660033 45.17989924 -24.28432083 40.73516273 C-24.28217288 36.55151556 -24.26628859 32.36814621 -24.23993111 28.18458366 C-24.23274144 26.65035153 -24.23063554 25.11608573 -24.23403358 23.58184052 C-24.23793722 21.48390492 -24.22344629 19.38685277 -24.20449829 17.28901672 C-24.20118814 16.11595128 -24.197878 14.94288584 -24.19446754 13.73427296 C-23.45878603 7.50496145 -20.44834272 3.55636238 -15.8125 -0.5 C-10.55835964 -2.25138012 -5.06425425 -2.48290651 0 0 Z " fill="#FBD5AB" transform="translate(229.8125,161.5)"/>
<path d="M0 0 C0.63550781 0.43828125 1.27101563 0.8765625 1.92578125 1.328125 C11.85380891 8.90537829 18.99750609 21.8068598 21 34 C22.77309279 50.40656157 21.01975774 65.28989601 10.84375 78.75390625 C10.2353125 79.49511719 9.626875 80.23632812 9 81 C8.22527344 81.98742187 7.45054687 82.97484375 6.65234375 83.9921875 C-2.33884389 94.69654716 -16.41663967 100.43086036 -30 102 C-47.04594173 103.28366987 -62.06518822 97.1956767 -74.96484375 86.34765625 C-85.31854339 76.71894214 -91.2784936 62.65804189 -92.22265625 48.7109375 C-92.63343715 32.60118201 -88.23577905 18.96555301 -77.6875 6.625 C-56.43703785 -15.52286342 -24.58419352 -17.66622492 0 0 Z " fill="#FB4545" transform="translate(491,211)"/>
<path d="M0 0 C4.19739852 4.47064689 7.31368551 9.25401144 10.125 14.6875 C10.51558594 15.4403125 10.90617187 16.193125 11.30859375 16.96875 C17.85143571 30.5816959 17.95471717 46.4905378 13.125 60.6875 C6.63046906 75.78860447 -3.78157526 86.819589 -18.8125 93.5 C-33.25927052 99.1305362 -48.26921971 99.11724713 -62.8125 93.6875 C-77.14902378 87.25107636 -88.08636232 76.37287912 -93.875 61.6875 C-98.81410803 47.69336057 -98.83540793 31.77398014 -93.43359375 17.89453125 C-91.08236129 13.05653164 -88.28199759 8.83797375 -84.875 4.6875 C-84.10027344 3.70007813 -83.32554688 2.71265625 -82.52734375 1.6953125 C-74.04532933 -8.40285657 -61.52410192 -13.35947699 -49 -16.1875 C-30.78846494 -17.47715806 -13.48463782 -12.7844305 0 0 Z " fill="#FDCC00" transform="translate(96.875,215.3125)"/>
<path d="M0 0 C12.84375867 8.86105012 21.70542775 21.19207922 24.6796875 36.62890625 C27.04162492 53.18318697 22.98496251 67.75621623 13.3125 81.28515625 C8.21069943 87.48171819 1.90884319 91.60054925 -4.875 95.75 C-5.32230469 95.36328125 -5.76960938 94.9765625 -6.23046875 94.578125 C-7.48638189 93.49627232 -8.74567816 92.41833827 -10.0078125 91.34375 C-11.49475473 90.07456082 -12.96847023 88.7898798 -14.4375 87.5 C-20.8265113 82.91301753 -28.31468307 82.89713229 -35.875 83.75 C-43.06984443 85.95471293 -47.44236384 89.80093567 -51.875 95.75 C-63.75170422 91.08691223 -72.42008928 82.19268331 -78.4375 71.0546875 C-85.12835795 55.67298689 -85.62253812 40.44239782 -79.7265625 24.6796875 C-73.16458667 10.15230748 -61.62152404 0.0109413 -46.875 -5.625 C-30.49872539 -11.35416668 -14.83206527 -8.83743889 0 0 Z " fill="#3DC559" transform="translate(250.875,65.25)"/>
<path d="M0 0 C1.89013651 0.00138269 1.89013651 0.00138269 3.8184576 0.00279331 C4.86717042 0.00151167 4.86717042 0.00151167 5.93706936 0.00020415 C8.29712931 -0.00145268 10.65711933 0.00407399 13.01717281 0.00952244 C14.70202794 0.00980429 16.38688319 0.00964661 18.07173824 0.00907993 C22.66038632 0.00879189 27.2490085 0.01468972 31.83765054 0.02165389 C36.62762812 0.0278863 41.41760623 0.02849114 46.20758724 0.0296793 C55.28467211 0.03279295 64.36174501 0.04100679 73.43882459 0.05102879 C83.76996761 0.06218888 94.10111119 0.06770011 104.43225873 0.07272422 C125.69030663 0.08318938 146.94834304 0.10098985 168.2063818 0.12304783 C168.2063818 10.02304783 168.2063818 19.92304783 168.2063818 30.12304783 C145.92802334 30.14616452 123.64966776 30.16402587 101.37129974 30.17486 C91.02783011 30.18002345 80.68436805 30.18706707 70.34090328 30.19848728 C61.32897068 30.20843263 52.31704356 30.2149009 43.30510563 30.21713632 C38.5302684 30.21844368 33.75544687 30.22153113 28.98061466 30.22877789 C24.49178267 30.23553576 20.00297291 30.23766527 15.51413631 30.23615551 C13.86168389 30.23643194 12.20923077 30.23843844 10.55678272 30.2422533 C8.31064648 30.24718693 6.06459558 30.24604736 3.8184576 30.24330235 C2.55836659 30.24422414 1.29827559 30.24514593 0 30.24609566 C-2.7936182 30.12304783 -2.7936182 30.12304783 -3.7936182 29.12304783 C-3.89355352 27.06249473 -3.92442726 24.99852193 -3.9264307 22.93554783 C-3.92771976 21.68000095 -3.92900883 20.42445408 -3.93033695 19.13086033 C-3.92824223 18.47376072 -3.9261475 17.81666111 -3.9239893 17.13964939 C-3.91864054 15.13143448 -3.92393511 13.12344324 -3.93033695 11.11523533 C-3.92904789 9.85968845 -3.92775883 8.60414158 -3.9264307 7.31054783 C-3.92473881 5.56837986 -3.92473881 5.56837986 -3.92301273 3.79101658 C-3.74536539 0.12812949 -3.67895034 0.16204321 0 0 Z " fill="#9858DB" transform="translate(193.79361820220947,424.8769521713257)"/>
<path d="M0 0 C4.19739852 4.47064689 7.31368551 9.25401144 10.125 14.6875 C10.51558594 15.4403125 10.90617187 16.193125 11.30859375 16.96875 C17.85143571 30.5816959 17.95471717 46.4905378 13.125 60.6875 C6.63046906 75.78860447 -3.78157526 86.819589 -18.8125 93.5 C-33.25927052 99.1305362 -48.26921971 99.11724713 -62.8125 93.6875 C-77.14902378 87.25107636 -88.08636232 76.37287912 -93.875 61.6875 C-98.81410803 47.69336057 -98.83540793 31.77398014 -93.43359375 17.89453125 C-91.08236129 13.05653164 -88.28199759 8.83797375 -84.875 4.6875 C-84.10027344 3.70007813 -83.32554688 2.71265625 -82.52734375 1.6953125 C-74.04532933 -8.40285657 -61.52410192 -13.35947699 -49 -16.1875 C-30.78846494 -17.47715806 -13.48463782 -12.7844305 0 0 Z M-76.1875 13.5 C-79.80706727 18.22274215 -82.11514478 23.02016963 -83.875 28.6875 C-84.06449219 29.29078125 -84.25398438 29.8940625 -84.44921875 30.515625 C-86.85034694 42.76358166 -84.73167627 54.99072391 -78.078125 65.53515625 C-70.78784634 75.20206575 -61.758758 81.875218 -49.875 84.6875 C-36.51439948 86.35644536 -24.97862827 84.25528372 -13.9296875 76.29296875 C-12.91261719 75.49826172 -12.91261719 75.49826172 -11.875 74.6875 C-11.25882812 74.20925781 -10.64265625 73.73101562 -10.0078125 73.23828125 C-3.30769649 67.32729001 2.51904782 56.66974076 3.30200195 47.64794922 C3.86910647 33.63430364 3.86910647 33.63430364 -0.875 20.6875 C-1.32230469 19.91277344 -1.76960938 19.13804687 -2.23046875 18.33984375 C-8.7835792 7.81621597 -17.80793923 0.61400034 -29.83349609 -2.88183594 C-47.99379046 -6.71282844 -64.32740424 -0.40945054 -76.1875 13.5 Z " fill="#010100" transform="translate(96.875,215.3125)"/>
<path d="M0 0 C0.63550781 0.43828125 1.27101563 0.8765625 1.92578125 1.328125 C11.85380891 8.90537829 18.99750609 21.8068598 21 34 C22.77309279 50.40656157 21.01975774 65.28989601 10.84375 78.75390625 C10.2353125 79.49511719 9.626875 80.23632812 9 81 C8.22527344 81.98742187 7.45054687 82.97484375 6.65234375 83.9921875 C-2.33884389 94.69654716 -16.41663967 100.43086036 -30 102 C-47.04594173 103.28366987 -62.06518822 97.1956767 -74.96484375 86.34765625 C-85.31854339 76.71894214 -91.2784936 62.65804189 -92.22265625 48.7109375 C-92.63343715 32.60118201 -88.23577905 18.96555301 -77.6875 6.625 C-56.43703785 -15.52286342 -24.58419352 -17.66622492 0 0 Z M-66.57421875 12.29296875 C-75.05860577 21.1139265 -79.89336529 32.02523756 -80.3125 44.25 C-80.15059311 52.56507526 -78.20429903 60.79263024 -74 68 C-73.34 68 -72.68 68 -72 68 C-71.89558594 68.58007812 -71.79117187 69.16015625 -71.68359375 69.7578125 C-69.54452524 76.77395723 -62.63709015 81.36896741 -56.52734375 84.75 C-46.72615867 89.59757222 -35.42995364 91.55779397 -24.6640625 88.91015625 C-11.31961424 84.3511292 -1.40561457 77.47717258 5 64.6875 C10.00900322 54.14772239 11.21557707 41.15644714 7.375 29.9375 C2.24385803 18.18088348 -5.40933016 9.5116472 -17 4 C-17.92039062 3.5359375 -17.92039062 3.5359375 -18.859375 3.0625 C-34.96755341 -4.0966904 -53.87082862 0.97750592 -66.57421875 12.29296875 Z " fill="#000000" transform="translate(491,211)"/>
<path d="M0 0 C2.62841797 0.52685547 2.62841797 0.52685547 4.56591797 1.58935547 C5.88453727 3.99389654 5.87928403 5.76157462 5.43222046 8.44171143 C3.59184008 13.21584219 -0.64631676 16.62600345 -4.22705078 20.14404297 C-5.12144363 21.0418045 -6.01583649 21.93956604 -6.93733215 22.86453247 C-8.82954889 24.75645052 -10.72653073 26.64130959 -12.63452148 28.51708984 C-15.07334866 30.91610816 -17.48679758 33.33890386 -19.89339733 35.77020073 C-22.20045888 38.09489062 -24.52693616 40.39993073 -26.85205078 42.70654297 C-28.14613106 44.0110994 -28.14613106 44.0110994 -29.46635437 45.3420105 C-30.28352432 46.14019196 -31.10069427 46.93837341 -31.94262695 47.76074219 C-32.65464767 48.46576874 -33.3666684 49.17079529 -34.1002655 49.89718628 C-36.88273994 51.89361117 -38.9796682 52.29217819 -42.37158203 52.52685547 C-44.35595703 51.44482422 -44.35595703 51.44482422 -46.12158203 49.71435547 C-46.78802734 49.06982422 -47.45447266 48.42529297 -48.14111328 47.76123047 C-48.87716797 47.02388672 -49.61322266 46.28654297 -50.37158203 45.52685547 C-51.26232422 44.70701172 -52.15306641 43.88716797 -53.07080078 43.04248047 C-61.12719613 35.45728656 -61.12719613 35.45728656 -61.37158203 29.52685547 C-59.80908203 27.08935547 -59.80908203 27.08935547 -57.37158203 25.52685547 C-53.41193299 25.64767694 -51.68207897 26.27102348 -48.59814453 28.81201172 C-47.73962891 29.72853516 -46.88111328 30.64505859 -45.99658203 31.58935547 C-44.68560547 32.96800781 -44.68560547 32.96800781 -43.34814453 34.37451172 C-42.69587891 35.08478516 -42.04361328 35.79505859 -41.37158203 36.52685547 C-38.28217009 35.15635173 -36.2296519 33.60808467 -33.89160156 31.17871094 C-33.23056427 30.49815643 -32.56952698 29.81760193 -31.88845825 29.11642456 C-31.18421722 28.38303864 -30.4799762 27.64965271 -29.75439453 26.89404297 C-28.24587182 25.35049555 -26.73673839 23.80754481 -25.22705078 22.26513672 C-22.85485816 19.83094529 -20.48759922 17.39252039 -18.13085938 14.94335938 C-15.85214617 12.58005578 -13.55501973 10.23599394 -11.25439453 7.89404297 C-10.55420197 7.15660858 -9.8540094 6.41917419 -9.13259888 5.65939331 C-4.17725845 0.65275335 -4.17725845 0.65275335 0 0 Z " fill="#030704" transform="translate(249.37158203125,76.47314453125)"/>
</svg>
