<?xml version="1.0" encoding="UTF-8"?>
<svg version="1.1" xmlns="http://www.w3.org/2000/svg" width="512" height="512">
<path d="M0 0 C1.78953052 -0.00302335 3.57905976 -0.00691375 5.36858672 -0.01159257 C10.26920067 -0.02185768 15.16974134 -0.01969452 20.07036126 -0.01541197 C25.36224345 -0.01294205 30.65410813 -0.02196224 35.94598389 -0.02944946 C46.30696818 -0.04219117 56.66792654 -0.0439908 67.02891735 -0.0416492 C75.45200707 -0.03986525 83.87508894 -0.04161733 92.29817772 -0.04587364 C94.09727544 -0.04676643 94.09727544 -0.04676643 95.93271857 -0.04767724 C98.36940673 -0.04888901 100.80609488 -0.05010315 103.24278303 -0.05131962 C126.08830823 -0.06219318 148.93381867 -0.06003357 171.7793447 -0.05393478 C192.66975873 -0.04876608 213.56012612 -0.06002016 234.45053092 -0.07903299 C255.9109802 -0.09841461 277.37140741 -0.10666681 298.83186549 -0.10290974 C310.87617476 -0.10099816 322.92044435 -0.10348115 334.96474648 -0.11762428 C345.21849158 -0.12954316 355.47217257 -0.13093725 365.72591857 -0.11883412 C370.9548533 -0.11294898 376.18367077 -0.11183599 381.41259766 -0.12383652 C386.20493246 -0.134707 390.99705226 -0.13157803 395.78937706 -0.11757483 C397.51742712 -0.11493112 399.24549409 -0.11728413 400.97352753 -0.1253107 C416.97194348 -0.19442835 430.59134071 1.28446577 442.91642761 12.55366516 C450.21799949 20.1323594 455.51993457 29.34627649 455.54283619 40.06379032 C455.54729403 41.0333548 455.55175188 42.00291927 455.55634481 43.00186449 C455.55606826 44.59565791 455.55606826 44.59565791 455.55578613 46.22164917 C455.55946282 47.3525332 455.56313951 48.48341723 455.56692761 49.64857048 C455.57797383 53.45230776 455.58180991 57.25601774 455.58561707 61.05976868 C455.59134899 63.7813948 455.59851498 66.50301682 455.60552979 69.22463989 C455.62528234 77.40255169 455.63535933 85.5804647 455.64425758 93.75839439 C455.64864286 97.61175692 455.65400909 101.46511809 455.65924644 105.31847954 C455.67625828 118.13211183 455.69075141 130.94574326 455.69799519 143.75938511 C455.69990501 147.08379683 455.70182535 150.40820854 455.70378113 153.73262024 C455.70426487 154.55886372 455.70474861 155.38510721 455.70524701 156.23638838 C455.71354343 169.61445549 455.73887398 182.99243308 455.77136181 196.37046111 C455.80446138 210.11272346 455.8224466 223.85494036 455.82563943 237.59724277 C455.82780195 245.31003842 455.83651266 253.02270355 455.8621006 260.73546028 C455.88384734 267.30549563 455.89183861 273.87536875 455.88213382 280.44543601 C455.8776003 283.79479424 455.88161742 287.14354769 455.89889526 290.49290466 C455.91661655 294.13250279 455.90950557 297.77125898 455.8963623 301.41085815 C455.91281617 302.98122899 455.91281617 302.98122899 455.92960244 304.58332449 C455.82643673 316.45959762 451.51790405 326.77617283 443.37345886 335.42085266 C430.22192192 347.83015119 416.03102408 348.56264604 398.81723022 348.52139282 C397.0276997 348.52441617 395.23817047 348.52830657 393.44864351 348.53298539 C388.54802956 348.5432505 383.64748889 348.54108735 378.74686897 348.5368048 C373.45498677 348.53433487 368.16312209 348.54335506 362.87124634 348.55084229 C352.51026205 348.56358399 342.14930368 348.56538362 331.78831287 348.56304202 C323.36522315 348.56125807 314.94214129 348.56301015 306.51905251 348.56726646 C304.71995478 348.56815925 304.71995478 348.56815925 302.88451165 348.56907007 C300.4478235 348.57028184 298.01113534 348.57149597 295.57444719 348.57271244 C272.72892199 348.583586 249.88341156 348.58142639 227.03788552 348.5753276 C206.1474715 348.5701589 185.2571041 348.58141298 164.3666993 348.60042582 C142.90625003 348.61980743 121.44582282 348.62805963 99.98536474 348.62430257 C87.94105546 348.62239098 75.89678588 348.62487397 63.85248375 348.63901711 C53.59873864 348.65093599 43.34505765 348.65233007 33.09131166 348.64022694 C27.86237693 348.6343418 22.63355946 348.63322881 17.40463257 348.64522934 C12.61229777 348.65609983 7.82017796 348.65297085 3.02785317 348.63896766 C1.29980311 348.63632395 -0.42826386 348.63867695 -2.1562973 348.64670352 C-18.15471326 348.71582117 -31.77411048 347.23692706 -44.09919739 335.96772766 C-51.40076926 328.38903342 -56.70270435 319.17511633 -56.72560596 308.4576025 C-56.73006381 307.48803802 -56.73452165 306.51847355 -56.73911458 305.51952833 C-56.73893022 304.45699939 -56.73874586 303.39447044 -56.73855591 302.29974365 C-56.7422326 301.16885962 -56.74590928 300.03797559 -56.74969739 298.87282234 C-56.7607436 295.06908506 -56.76457969 291.26537508 -56.76838684 287.46162415 C-56.77411877 284.73999803 -56.78128476 282.018376 -56.78829956 279.29675293 C-56.80805211 271.11884113 -56.8181291 262.94092812 -56.82702735 254.76299843 C-56.83141264 250.9096359 -56.83677886 247.05627474 -56.84201622 243.20291328 C-56.85902806 230.389281 -56.87352119 217.57564956 -56.88076496 204.76200771 C-56.88267479 201.43759599 -56.88459513 198.11318428 -56.8865509 194.78877258 C-56.88703464 193.9625291 -56.88751838 193.13628561 -56.88801678 192.28500444 C-56.89631321 178.90693733 -56.92164376 165.52895975 -56.95413158 152.15093171 C-56.98723116 138.40866936 -57.00521638 124.66645246 -57.0084092 110.92415005 C-57.01057173 103.2113544 -57.01928243 95.49868927 -57.04487038 87.78593254 C-57.06661712 81.21589719 -57.07460838 74.64602407 -57.06490359 68.07595681 C-57.06037008 64.72659858 -57.0643872 61.37784513 -57.08166504 58.02848816 C-57.09938632 54.38889003 -57.09227535 50.75013384 -57.07913208 47.11053467 C-57.09010133 46.06362078 -57.10107057 45.01670689 -57.11237222 43.93806833 C-57.0092065 32.0617952 -52.70067383 21.74521999 -44.55622864 13.10054016 C-31.40469169 0.69124163 -17.21379386 -0.04125321 0 0 Z " fill="#EB1F33" transform="translate(56.59138488769531,81.73930358886719)"/>
<path d="M0 0 C5.61 0 11.22 0 17 0 C17.66 1.65 18.32 3.3 19 5 C21.79177569 7.79177569 23.63183572 7.31213484 27.5390625 7.4140625 C28.84101563 7.45273437 30.14296875 7.49140625 31.484375 7.53125 C32.86457862 7.56270763 34.24478704 7.59395491 35.625 7.625 C37.01304541 7.66317934 38.40106711 7.70223105 39.7890625 7.7421875 C43.19257185 7.83672943 46.59607165 7.92227897 50 8 C50.09366817 24.10795892 50.16408883 40.21582874 50.20724869 56.32399464 C50.22782611 63.80422411 50.25585369 71.28428382 50.30175781 78.7644043 C50.34177411 85.28823981 50.36746781 91.81195231 50.37635398 98.33590716 C50.38154391 101.78658615 50.39363953 105.23691338 50.42292023 108.68747902 C50.45543218 112.55058742 50.45594998 116.41335966 50.45410156 120.27661133 C50.46848267 121.40590561 50.48286377 122.53519989 50.49768066 123.69871521 C50.44892588 133.15848241 48.53263234 142.4155215 41.83984375 149.5 C34.53311369 155.45707929 26.86870955 157.11955776 17.65595913 157.1398077 C16.92271926 157.14275912 16.18947939 157.14571055 15.43402013 157.14875141 C12.96970992 157.15743395 10.50544669 157.15902228 8.04112244 157.16062927 C6.25931979 157.16536083 4.47751821 157.17051182 2.69571787 157.17604691 C-2.20669703 157.18995094 -7.1091045 157.197536 -12.01153409 157.2040199 C-16.2149723 157.21039224 -20.41839832 157.22046212 -24.62182892 157.23058056 C-38.46986044 157.26389819 -52.31789938 157.28542381 -66.16595784 157.30378041 C-69.77169552 157.30857585 -73.3774329 157.31355911 -76.98317027 157.31858563 C-99.37460061 157.34955503 -121.76603354 157.37623998 -144.15747929 157.39300442 C-149.34351163 157.39695391 -154.52954392 157.4009569 -159.71557617 157.4050293 C-161.00453714 157.40603766 -162.2934981 157.40704602 -163.62151849 157.40808494 C-184.50326632 157.42509295 -205.38489567 157.46620437 -226.26658566 157.51705229 C-247.7053968 157.56882745 -269.14414701 157.59794646 -290.58302015 157.6052013 C-302.62017578 157.60986341 -314.65713731 157.62461363 -326.69423103 157.6649456 C-336.94523538 157.69925144 -347.1960106 157.71318252 -357.44706906 157.70052146 C-362.67598932 157.69469617 -367.90442502 157.69855 -373.13327217 157.7286911 C-377.92471534 157.7560851 -382.71533039 157.75553101 -387.50679224 157.73318065 C-389.23565927 157.72996241 -390.96458207 157.7367986 -392.69335652 157.75497787 C-402.8714785 157.85547802 -411.40114913 157.13430874 -420 151 C-426.81970889 144.26152158 -430.07546929 136.76804697 -430.36076355 127.17222595 C-430.36937802 124.94937784 -430.36167136 122.72642681 -430.34057617 120.50366211 C-430.34101425 119.28315155 -430.34145233 118.06264099 -430.34190369 116.80514526 C-430.34018167 113.48531192 -430.32522041 110.16605029 -430.30418181 106.84631801 C-430.28532527 103.36700957 -430.28365755 99.88769211 -430.28010559 96.40834045 C-430.27081132 89.83182261 -430.24623338 83.25545582 -430.21605712 76.67900425 C-430.18243116 69.18681921 -430.16600658 61.69462665 -430.15097082 54.20238483 C-430.11968118 38.80150266 -430.06697217 23.40077087 -430 8 C-429.10223178 7.99940291 -428.20446355 7.99880582 -427.27949023 7.99819064 C-374.11188921 7.96232407 -320.94434489 7.90572731 -267.77679645 7.82207905 C-261.3979101 7.81206117 -255.0190235 7.80221711 -248.64013672 7.79248047 C-247.37017468 7.7905391 -246.10021265 7.78859772 -244.79176691 7.78659752 C-224.20828482 7.7555467 -203.62481389 7.73858828 -183.04131278 7.72680578 C-161.9326299 7.71441017 -140.82400575 7.68694482 -119.71535993 7.64538693 C-106.68225023 7.62020594 -93.64923787 7.60688607 -80.6161035 7.60857043 C-71.68797104 7.6086001 -62.75993799 7.59403858 -53.83184424 7.56783572 C-48.67495803 7.55313701 -43.51827569 7.54503176 -38.36137199 7.55419731 C-33.64489413 7.56243861 -28.92882725 7.55245597 -24.2124106 7.52766338 C-22.50172726 7.52194423 -20.79100541 7.52304959 -19.08033332 7.53148755 C-16.76291405 7.54194333 -14.4468982 7.52803626 -12.12957382 7.50780869 C-10.84004358 7.5062898 -9.55051334 7.50477092 -8.22190642 7.50320601 C-4.4314716 6.9112057 -3.27410139 6.03198485 -1 3 C-0.67 2.01 -0.34 1.02 0 0 Z " fill="#FDFEFE" transform="translate(446,256)"/>
<path d="M0 0 C1.78953052 -0.00302335 3.57905976 -0.00691375 5.36858672 -0.01159257 C10.26920067 -0.02185768 15.16974134 -0.01969452 20.07036126 -0.01541197 C25.36224345 -0.01294205 30.65410813 -0.02196224 35.94598389 -0.02944946 C46.30696818 -0.04219117 56.66792654 -0.0439908 67.02891735 -0.0416492 C75.45200707 -0.03986525 83.87508894 -0.04161733 92.29817772 -0.04587364 C94.09727544 -0.04676643 94.09727544 -0.04676643 95.93271857 -0.04767724 C98.36940673 -0.04888901 100.80609488 -0.05010315 103.24278303 -0.05131962 C126.08830823 -0.06219318 148.93381867 -0.06003357 171.7793447 -0.05393478 C192.66975873 -0.04876608 213.56012612 -0.06002016 234.45053092 -0.07903299 C255.9109802 -0.09841461 277.37140741 -0.10666681 298.83186549 -0.10290974 C310.87617476 -0.10099816 322.92044435 -0.10348115 334.96474648 -0.11762428 C345.21849158 -0.12954316 355.47217257 -0.13093725 365.72591857 -0.11883412 C370.9548533 -0.11294898 376.18367077 -0.11183599 381.41259766 -0.12383652 C386.20493246 -0.134707 390.99705226 -0.13157803 395.78937706 -0.11757483 C397.51742712 -0.11493112 399.24549409 -0.11728413 400.97352753 -0.1253107 C416.97194348 -0.19442835 430.59134071 1.28446577 442.91642761 12.55366516 C450.21799949 20.1323594 455.51993457 29.34627649 455.54283619 40.06379032 C455.54729403 41.0333548 455.55175188 42.00291927 455.55634481 43.00186449 C455.55606826 44.59565791 455.55606826 44.59565791 455.55578613 46.22164917 C455.55946282 47.3525332 455.56313951 48.48341723 455.56692761 49.64857048 C455.57797383 53.45230776 455.58180991 57.25601774 455.58561707 61.05976868 C455.59134899 63.7813948 455.59851498 66.50301682 455.60552979 69.22463989 C455.62528234 77.40255169 455.63535933 85.5804647 455.64425758 93.75839439 C455.64864286 97.61175692 455.65400909 101.46511809 455.65924644 105.31847954 C455.67625828 118.13211183 455.69075141 130.94574326 455.69799519 143.75938511 C455.69990501 147.08379683 455.70182535 150.40820854 455.70378113 153.73262024 C455.70426487 154.55886372 455.70474861 155.38510721 455.70524701 156.23638838 C455.71354343 169.61445549 455.73887398 182.99243308 455.77136181 196.37046111 C455.80446138 210.11272346 455.8224466 223.85494036 455.82563943 237.59724277 C455.82780195 245.31003842 455.83651266 253.02270355 455.8621006 260.73546028 C455.88384734 267.30549563 455.89183861 273.87536875 455.88213382 280.44543601 C455.8776003 283.79479424 455.88161742 287.14354769 455.89889526 290.49290466 C455.91661655 294.13250279 455.90950557 297.77125898 455.8963623 301.41085815 C455.91281617 302.98122899 455.91281617 302.98122899 455.92960244 304.58332449 C455.82643673 316.45959762 451.51790405 326.77617283 443.37345886 335.42085266 C430.22192192 347.83015119 416.03102408 348.56264604 398.81723022 348.52139282 C397.0276997 348.52441617 395.23817047 348.52830657 393.44864351 348.53298539 C388.54802956 348.5432505 383.64748889 348.54108735 378.74686897 348.5368048 C373.45498677 348.53433487 368.16312209 348.54335506 362.87124634 348.55084229 C352.51026205 348.56358399 342.14930368 348.56538362 331.78831287 348.56304202 C323.36522315 348.56125807 314.94214129 348.56301015 306.51905251 348.56726646 C304.71995478 348.56815925 304.71995478 348.56815925 302.88451165 348.56907007 C300.4478235 348.57028184 298.01113534 348.57149597 295.57444719 348.57271244 C272.72892199 348.583586 249.88341156 348.58142639 227.03788552 348.5753276 C206.1474715 348.5701589 185.2571041 348.58141298 164.3666993 348.60042582 C142.90625003 348.61980743 121.44582282 348.62805963 99.98536474 348.62430257 C87.94105546 348.62239098 75.89678588 348.62487397 63.85248375 348.63901711 C53.59873864 348.65093599 43.34505765 348.65233007 33.09131166 348.64022694 C27.86237693 348.6343418 22.63355946 348.63322881 17.40463257 348.64522934 C12.61229777 348.65609983 7.82017796 348.65297085 3.02785317 348.63896766 C1.29980311 348.63632395 -0.42826386 348.63867695 -2.1562973 348.64670352 C-18.15471326 348.71582117 -31.77411048 347.23692706 -44.09919739 335.96772766 C-51.40076926 328.38903342 -56.70270435 319.17511633 -56.72560596 308.4576025 C-56.73006381 307.48803802 -56.73452165 306.51847355 -56.73911458 305.51952833 C-56.73893022 304.45699939 -56.73874586 303.39447044 -56.73855591 302.29974365 C-56.7422326 301.16885962 -56.74590928 300.03797559 -56.74969739 298.87282234 C-56.7607436 295.06908506 -56.76457969 291.26537508 -56.76838684 287.46162415 C-56.77411877 284.73999803 -56.78128476 282.018376 -56.78829956 279.29675293 C-56.80805211 271.11884113 -56.8181291 262.94092812 -56.82702735 254.76299843 C-56.83141264 250.9096359 -56.83677886 247.05627474 -56.84201622 243.20291328 C-56.85902806 230.389281 -56.87352119 217.57564956 -56.88076496 204.76200771 C-56.88267479 201.43759599 -56.88459513 198.11318428 -56.8865509 194.78877258 C-56.88703464 193.9625291 -56.88751838 193.13628561 -56.88801678 192.28500444 C-56.89631321 178.90693733 -56.92164376 165.52895975 -56.95413158 152.15093171 C-56.98723116 138.40866936 -57.00521638 124.66645246 -57.0084092 110.92415005 C-57.01057173 103.2113544 -57.01928243 95.49868927 -57.04487038 87.78593254 C-57.06661712 81.21589719 -57.07460838 74.64602407 -57.06490359 68.07595681 C-57.06037008 64.72659858 -57.0643872 61.37784513 -57.08166504 58.02848816 C-57.09938632 54.38889003 -57.09227535 50.75013384 -57.07913208 47.11053467 C-57.09010133 46.06362078 -57.10107057 45.01670689 -57.11237222 43.93806833 C-57.0092065 32.0617952 -52.70067383 21.74521999 -44.55622864 13.10054016 C-31.40469169 0.69124163 -17.21379386 -0.04125321 0 0 Z M-34.59138489 27.26069641 C-38.67309977 33.84854194 -40.71950603 39.80512745 -40.7116394 47.56948853 C-40.71301407 48.61971695 -40.71438873 49.66994537 -40.71580505 50.7519989 C-40.71220978 51.8935141 -40.7086145 53.0350293 -40.70491028 54.21113586 C-40.7050563 55.42130875 -40.70520233 56.63148163 -40.70535278 57.87832642 C-40.70477634 61.18786673 -40.69976805 64.49734434 -40.69277883 67.80687356 C-40.68651893 71.26887085 -40.6859394 74.73086902 -40.68475342 78.19287109 C-40.68164788 84.74466656 -40.67344496 91.2964453 -40.66340393 97.8482334 C-40.65221866 105.30890641 -40.64672626 112.76958023 -40.64170849 120.23025954 C-40.6312617 135.57374818 -40.6136773 150.91722013 -40.59138489 166.26069641 C-39.24473255 166.26159204 -39.24473255 166.26159204 -37.87087512 166.26250577 C15.2967259 166.29837235 68.46427023 166.3549691 121.63181867 166.43861736 C128.01070501 166.44863524 134.38959161 166.4584793 140.76847839 166.46821594 C142.03844043 166.47015732 143.30840247 166.47209869 144.6168482 166.47409889 C165.20033029 166.50514971 185.78380122 166.52210814 206.36730233 166.53389063 C227.47598521 166.54628624 248.58460936 166.57375159 269.69325519 166.61530948 C282.72636488 166.64049048 295.75937724 166.65381034 308.79251161 166.65212598 C317.72064408 166.65209631 326.64867713 166.66665783 335.57677087 166.69286069 C340.73365708 166.7075594 345.89033942 166.71566465 351.04724312 166.7064991 C355.76372098 166.6982578 360.47978787 166.70824044 365.19620451 166.73303303 C366.90688785 166.73875218 368.6176097 166.73764682 370.32828179 166.72920886 C372.64570106 166.71875308 374.96171691 166.73266015 377.27904129 166.75288773 C379.21333665 166.75516605 379.21333665 166.75516605 381.18670869 166.7574904 C384.96902674 167.34822301 386.16427415 168.20941784 388.40861511 171.26069641 C388.90861511 174.26069641 388.90861511 174.26069641 388.40861511 177.26069641 C386.16427415 180.31197498 384.96902674 181.17316982 381.18670869 181.76390243 C379.89717845 181.76542131 378.60764821 181.76694019 377.27904129 181.7685051 C376.5568671 181.77480885 375.8346929 181.7811126 375.09063464 181.78760737 C372.65775359 181.80393967 370.22584793 181.79167871 367.79295349 181.77967834 C366.03645459 181.78555067 364.27996081 181.79317617 362.52347636 181.80240941 C357.68675529 181.82273637 352.85032639 181.81809841 348.01358199 181.80950189 C342.80157236 181.80457094 337.58963744 181.82262461 332.37765503 181.83792114 C323.34422873 181.86127119 314.31088278 181.86998001 305.27742767 181.86881256 C292.21650316 181.86714567 279.15568599 181.88745408 266.09479007 181.91316786 C244.9056211 181.95428561 223.71647139 181.9775711 202.52726746 181.98970032 C181.94098559 182.00152247 161.35474001 182.02170695 140.76847839 182.05317688 C139.50005617 182.05511298 138.23163394 182.05704908 136.92477468 182.05904385 C130.56162671 182.06880819 124.19847902 182.07873734 117.83533144 182.08874846 C65.02644381 182.1716191 12.2175546 182.2255742 -40.59138489 182.26069641 C-40.68505306 198.36865533 -40.75547372 214.47652515 -40.79863358 230.58469105 C-40.81921099 238.06492052 -40.84723858 245.54498024 -40.8931427 253.02510071 C-40.933159 259.54893622 -40.9588527 266.07264872 -40.96773887 272.59660357 C-40.97292879 276.04728256 -40.98502442 279.49760979 -41.01430511 282.94817543 C-41.04681707 286.81128384 -41.04733487 290.67405607 -41.04548645 294.53730774 C-41.05986755 295.66660202 -41.07424866 296.7958963 -41.08906555 297.95941162 C-41.0411202 307.26212699 -39.21290677 316.79739014 -32.50422037 323.70817381 C-22.74348129 331.63032298 -12.73855298 332.11854403 -0.77726746 332.00241089 C1.01200944 332.00718251 2.8012809 332.0145806 4.59053743 332.02436012 C9.48126733 332.04350989 14.37124646 332.02546841 19.26192665 332.00106728 C24.54623326 331.98126427 29.8304592 331.99619724 35.11477661 332.00671387 C45.45586571 332.02181205 55.79666619 332.00495061 66.13771941 331.97716296 C78.18425457 331.94595979 90.23072789 331.94622288 102.27729587 331.9476807 C123.77230164 331.94918149 145.26717334 331.92172625 166.76213074 331.87812805 C187.61339256 331.83585744 208.46453642 331.81461629 229.31584167 331.81660461 C231.24268523 331.81678442 231.24268523 331.81678442 233.20845492 331.81696785 C234.49081115 331.81708892 235.77316738 331.81720998 237.09438288 331.81733471 C260.84432831 331.81940502 284.59422368 331.80173098 308.34415288 331.77487506 C316.73885791 331.76583211 325.13355373 331.76263711 333.52826309 331.76127815 C343.75864189 331.75923024 353.98893631 331.74581506 364.2192793 331.71827973 C369.4377176 331.70444402 374.65604812 331.69528252 379.874506 331.69906235 C384.65367194 331.70235612 389.43259979 331.69173993 394.2117161 331.67011677 C395.93829872 331.66469356 397.664906 331.66426954 399.39148946 331.66941864 C411.90578316 331.70260009 422.85994968 331.29980429 432.40861511 322.26069641 C439.17208312 314.03485694 439.84670717 305.03944648 439.74919128 294.76435852 C439.7498484 292.93359268 439.7498484 292.93359268 439.7505188 291.06584167 C439.74879678 287.74600834 439.73383552 284.4267467 439.71279693 281.10701442 C439.69394038 277.62770598 439.69227266 274.14838852 439.6887207 270.66903687 C439.67942643 264.09251902 439.65484849 257.51615223 439.62467223 250.93970066 C439.59104627 243.44751562 439.57462169 235.95532306 439.55958593 228.46308124 C439.52829629 213.06219907 439.47558728 197.66146728 439.40861511 182.26069641 C438.54582947 182.24611389 437.68304382 182.23153137 436.79411316 182.21650696 C433.59011864 182.15541887 430.38676886 182.08126092 427.18327332 181.99824524 C425.79732134 181.96501092 424.4112345 181.93697415 423.02507019 181.91426086 C421.03154668 181.88069024 419.0383977 181.82681641 417.04533386 181.77241516 C415.84610291 181.74623108 414.64687195 181.720047 413.41130066 181.69306946 C410.40861511 181.26069641 410.40861511 181.26069641 408.51872253 179.84980774 C407.13153444 177.86405728 407.00624602 176.66917615 407.03361511 174.26069641 C407.02588074 173.58007141 407.01814636 172.89944641 407.01017761 172.19819641 C407.54756911 169.58499855 408.26636323 168.8599825 410.40861511 167.26069641 C413.41130066 166.82832336 413.41130066 166.82832336 417.04533386 166.74897766 C418.34406433 166.71352844 419.6427948 166.67807922 420.98088074 166.64155579 C422.35262029 166.61845591 423.72436522 166.59567351 425.09611511 166.57319641 C426.47961118 166.54002099 427.8630764 166.5055311 429.24650574 166.46968079 C432.63379394 166.387064 436.02081868 166.31795583 439.40861511 166.26069641 C439.4788417 150.26583354 439.53166991 134.27102104 439.56405163 118.27604103 C439.57948979 110.8485103 439.60052056 103.42107563 439.63493347 95.99360657 C439.6649297 89.51629295 439.68421227 83.03904895 439.6908806 76.5616678 C439.69477564 73.13512129 439.70386496 69.70877383 439.72580528 66.28229141 C439.74765978 62.44766303 439.75057859 58.6134437 439.74919128 54.77876282 C439.75997711 53.655224 439.77076294 52.53168518 439.78187561 51.37409973 C439.74081139 40.84812127 437.83200251 32.04831544 430.40861511 24.26069641 C424.20401809 18.76878959 418.19241348 17.01231083 409.88629436 17.00342751 C409.14593674 16.99992143 408.40557912 16.99641536 407.64278641 16.99280304 C405.16025059 16.98349409 402.67794961 16.98841102 400.19540405 16.99327087 C398.39822505 16.98953436 396.60104768 16.98493284 394.80387288 16.97954023 C389.86369971 16.96729499 384.92359418 16.96757249 379.98340929 16.96992898 C374.65608383 16.97033676 369.32878017 16.95930174 364.00146484 16.94981384 C353.56373969 16.93319467 343.12603713 16.92770389 332.68829986 16.92658909 C324.20501109 16.92563908 315.72172978 16.92153115 307.23844337 16.91518784 C283.19231706 16.89757318 259.14620861 16.88834935 235.1000758 16.88984878 C233.15521609 16.88996865 233.15521609 16.88996865 231.17106628 16.89009094 C229.22383493 16.89021358 229.22383493 16.89021358 227.23726556 16.8903387 C206.19515273 16.89115174 185.15311146 16.8720102 164.11101934 16.84381421 C142.51059378 16.81509819 120.91020314 16.8012732 99.30975801 16.80300176 C87.18054674 16.80366609 75.0514105 16.79815495 62.92221642 16.77664566 C52.59578407 16.7584508 42.26946077 16.75407264 31.94301935 16.76766451 C26.67406804 16.77420259 21.40532601 16.77428092 16.1363945 16.75695801 C11.31198206 16.74125963 6.48794541 16.74405791 1.66354231 16.76152627 C-0.08070854 16.76460328 -1.82498722 16.76093744 -3.56920526 16.74980612 C-15.59251703 16.67816387 -26.27155675 17.51283807 -34.59138489 27.26069641 Z " fill="#111A21" transform="translate(56.59138488769531,81.73930358886719)"/>
<path d="M0 0 C1.7634375 0.7734375 1.7634375 0.7734375 3.5625 1.5625 C7.79497908 4.05857741 7.79497908 4.05857741 9 6 C9.77046853 12.93421675 9.77046853 12.93421675 7.41015625 16.19921875 C4.2298908 18.57539764 1.93929976 18.60417314 -2 18.875 C-9.61688064 19.59074261 -15.36907461 22.16926131 -22 26 C-22.72832031 26.309375 -23.45664063 26.61875 -24.20703125 26.9375 C-26.50428429 28.29883513 -26.96079829 29.5722098 -28 32 C-29.23382612 33.95355802 -30.50320479 35.87982673 -31.78125 37.8046875 C-36.12607002 45.63093382 -36.42236725 54.79279286 -34.08984375 63.33203125 C-29.45589407 75.17765824 -22.58032186 81.08289654 -11.125 86.3125 C-7.99636861 87.0007989 -5.13257958 87.1568323 -1.9375 87.3125 C2.14282898 87.61155517 3.74888672 87.83581055 7.25 90.125 C9.5109481 93.83941474 9.83943968 95.72648889 9 100 C2.80491915 107.01022307 -7.90430001 110.21417667 -17.00830078 111.22241211 C-34.05724759 112.19039261 -48.17492843 107.91940388 -61.1875 96.6875 C-72.80502176 85.78014022 -79.95702426 72.6157203 -81.28515625 56.55078125 C-81.67751991 41.04388703 -76.90164484 26.48677856 -66.75 14.625 C-49.80191671 -2.83926857 -22.87805649 -11.13640845 0 0 Z " fill="#141A22" transform="translate(139,120)"/>
<path d="M0 0 C0.66 0.33 1.32 0.66 2 1 C1.49210937 1.51046875 0.98421875 2.0209375 0.4609375 2.546875 C-9.14479787 12.69225842 -14.42554511 24.2808542 -14.3125 38.25 C-14.30404053 39.35915771 -14.30404053 39.35915771 -14.29541016 40.49072266 C-14.00859167 53.58498059 -9.96647102 65.27989467 -0.625 74.6875 C0.57095185 75.8050655 1.77472313 76.91466592 3 78 C2.01 78.495 2.01 78.495 1 79 C-10.20059424 75.25210885 -18.51856401 67.08324526 -23.84375 56.7734375 C-27.99577806 46.814181 -28.83256673 35.31507408 -25.375 25 C-20.86032769 14.37536482 -12.81232496 6.80654436 -3 1 C-2.01 0.67 -1.02 0.34 0 0 Z " fill="#F7F7F7" transform="translate(102,134)"/>
<path d="M0 0 C3.33219018 2.13601934 3.89315459 3.6327189 5 7.4375 C5 11 5 11 3.1875 13.875 C0.63191747 16.35756589 -0.28587634 16.92065293 -3.8125 17.3125 C-7.85211856 16.91645896 -9.29729155 16.01158942 -12 13 C-13.1659741 8.99196403 -13.43240501 6.94717289 -11.6875 3.125 C-8.58098554 -0.7869071 -4.7055495 -0.65225439 0 0 Z " fill="#FEF7F7" transform="translate(152,184)"/>
<path d="M0 0 C4.25331827 0.86802414 6.18199992 2.40158324 9.0625 5.625 C9.80413232 9.778141 9.51143783 11.79895439 7.5 15.5 C4.282757 18.30477595 2.30895609 18.69949923 -1.9375 18.625 C-4.73939446 16.85858828 -6.45274911 15.59450178 -7.9375 12.625 C-8.43262681 8.25137986 -8.42973866 6.30544756 -5.8125 2.6875 C-2.9375 0.625 -2.9375 0.625 0 0 Z " fill="#FEF6F7" transform="translate(139.9375,159.375)"/>
<path d="M0 0 C4.45850936 0.79616239 5.90783917 1.93313458 8.5 5.625 C9.125 9.125 9.125 9.125 8.5 12.625 C5.90783917 16.31686542 4.45850936 17.45383761 0 18.25 C-4.45850936 17.45383761 -5.90783917 16.31686542 -8.5 12.625 C-9.125 9.125 -9.125 9.125 -8.5 5.625 C-5.90783917 1.93313458 -4.45850936 0.79616239 0 0 Z " fill="#FEF9F9" transform="translate(160.5,145.375)"/>
<path d="M0 0 C2.5 1.5 2.5 1.5 4 4 C4.70851227 8.95958592 4.74555354 10.85837114 2 15.0625 C-1.50612875 17.32687482 -3.13163262 17.51555351 -7.12890625 16.70703125 C-10.25800491 15.52463698 -11.45133352 13.90374964 -13 11 C-13.5625 8 -13.5625 8 -13 5 C-9.2217441 -0.43124286 -6.19885712 -0.88555102 0 0 Z " fill="#FEF8F9" transform="translate(177,184)"/>
<path d="M0 0 C3.80470451 0.7133821 5.41196019 1.67868421 8 4.5625 C9.1659741 8.57053597 9.43240501 10.61532711 7.6875 14.4375 C6 16.5625 6 16.5625 4 17.5625 C-3.0521327 18.13122038 -3.0521327 18.13122038 -6.5 16.0625 C-8.59158203 12.57652996 -8.8876276 9.46034294 -8 5.5625 C-5.55871269 2.11597674 -4.17033126 0.78193711 0 0 Z " fill="#FEF8F9" transform="translate(180,159.4375)"/>
</svg>
