<?xml version="1.0" encoding="UTF-8"?>
<svg version="1.1" xmlns="http://www.w3.org/2000/svg" width="512" height="512">
<path d="M0 0 C0.90195602 -0.00701431 1.80391205 -0.01402863 2.73320007 -0.02125549 C5.63208047 -0.03868232 8.53075663 -0.04510887 11.4296875 -0.046875 C12.41955658 -0.04754974 13.40942566 -0.04822449 14.42929077 -0.04891968 C28.9391862 -0.03318338 43.02662729 0.4161495 57.3046875 3.203125 C58.65022705 3.44458252 58.65022705 3.44458252 60.02294922 3.69091797 C108.71061874 12.50090649 153.73474658 35.94419047 189.3046875 70.203125 C190.2937207 71.15131104 190.2937207 71.15131104 191.30273438 72.11865234 C200.79099055 81.26309979 209.5308919 90.56046509 217.3046875 101.203125 C218.16274902 102.35417517 219.02082201 103.50521677 219.87890625 104.65625 C225.91646146 112.84588481 231.29926052 121.34850776 236.3046875 130.203125 C236.706875 130.91033691 237.1090625 131.61754883 237.5234375 132.34619141 C250.53993849 155.46573437 259.2732395 180.61482253 264.6171875 206.578125 C264.76454346 207.28864014 264.91189941 207.99915527 265.0637207 208.73120117 C268.05012767 224.37353551 268.67949704 240.00988593 268.6171875 255.890625 C268.61445328 257.34171158 268.61445328 257.34171158 268.61166382 258.82211304 C268.56623576 273.15503477 268.05734822 287.10086417 265.3046875 301.203125 C265.14371582 302.10015137 264.98274414 302.99717773 264.81689453 303.92138672 C256.00690601 352.60905624 232.56362203 397.63318408 198.3046875 433.203125 C197.67256348 433.86248047 197.04043945 434.52183594 196.38916016 435.20117188 C187.24471271 444.68942805 177.94734741 453.4293294 167.3046875 461.203125 C166.15363733 462.06118652 165.00259573 462.91925951 163.8515625 463.77734375 C155.66192769 469.81489896 147.15930474 475.19769802 138.3046875 480.203125 C137.59747559 480.6053125 136.89026367 481.0075 136.16162109 481.421875 C113.04207813 494.43837599 87.89298997 503.171677 61.9296875 508.515625 C61.21917236 508.66298096 60.50865723 508.81033691 59.77661133 508.9621582 C44.13427699 511.94856517 28.49792657 512.57793454 12.6171875 512.515625 C11.64979645 512.51380219 10.6824054 512.51197937 9.68569946 512.51010132 C-4.64722227 512.46467326 -18.59305167 511.95578572 -32.6953125 509.203125 C-33.59233887 509.04215332 -34.48936523 508.88118164 -35.41357422 508.71533203 C-84.10124374 499.90534351 -129.12537158 476.46205953 -164.6953125 442.203125 C-165.35466797 441.57100098 -166.01402344 440.93887695 -166.69335938 440.28759766 C-176.18161555 431.14315021 -184.9215169 421.84578491 -192.6953125 411.203125 C-193.55337402 410.05207483 -194.41144701 408.90103323 -195.26953125 407.75 C-201.30708646 399.56036519 -206.68988552 391.05774224 -211.6953125 382.203125 C-212.0975 381.49591309 -212.4996875 380.78870117 -212.9140625 380.06005859 C-225.93056349 356.94051563 -234.6638645 331.79142747 -240.0078125 305.828125 C-240.22884644 304.76235229 -240.22884644 304.76235229 -240.4543457 303.67504883 C-243.44075243 288.03271576 -244.07012807 272.39636368 -244.0078125 256.515625 C-244.00598969 255.54856628 -244.00416687 254.58150757 -244.00228882 253.58514404 C-243.95691249 239.27430726 -243.54359062 225.27247195 -240.6953125 211.203125 C-240.42195068 209.82640625 -240.42195068 209.82640625 -240.14306641 208.421875 C-238.83153693 201.9705086 -237.33396213 195.57882623 -235.6953125 189.203125 C-235.50211426 188.44837891 -235.30891602 187.69363281 -235.10986328 186.91601562 C-230.47115109 169.19221954 -223.31606304 152.33842357 -214.6953125 136.203125 C-214.28990234 135.44161133 -213.88449219 134.68009766 -213.46679688 133.89550781 C-212.17939759 131.49164618 -210.87826272 129.09586105 -209.5703125 126.703125 C-209.17473145 125.97335449 -208.77915039 125.24358398 -208.37158203 124.49169922 C-201.10662224 111.40877987 -201.10662224 111.40877987 -196.6953125 109.203125 C-195.19774379 109.10812997 -193.69588318 109.07325302 -192.1953125 109.078125 C-191.00421875 109.07425781 -191.00421875 109.07425781 -189.7890625 109.0703125 C-187.6953125 109.203125 -187.6953125 109.203125 -185.6953125 110.203125 C-185.45039063 109.65140625 -185.20546875 109.0996875 -184.953125 108.53125 C-183.43793136 105.72673009 -181.58447124 103.42209377 -179.5703125 100.953125 C-178.84585938 100.06109375 -178.12140625 99.1690625 -177.375 98.25 C-176.82070312 97.57453125 -176.26640625 96.8990625 -175.6953125 96.203125 C-176.01757812 95.4503125 -176.33984375 94.6975 -176.671875 93.921875 C-177.98480893 90.43408105 -178.09209594 87.90643709 -177.6953125 84.203125 C-175.87394832 81.16751804 -174.37585639 79.59712409 -171.3203125 77.828125 C-167.10537267 76.8245679 -163.7307378 77.85798323 -159.6953125 79.203125 C-158.98568359 78.45869141 -158.98568359 78.45869141 -158.26171875 77.69921875 C-154.59380343 73.93120438 -151.10452974 70.76954339 -146.6953125 67.890625 C-144.35872499 66.28954378 -144.35872499 66.28954378 -142.6953125 64.203125 C-142.26699002 61.2733992 -142.40942861 58.86955094 -142.8671875 55.94921875 C-142.61621148 51.93930647 -140.52188505 49.82117991 -137.6953125 47.203125 C-135.31909893 45.31724679 -132.82864398 43.68572739 -130.2578125 42.078125 C-129.52481934 41.61365967 -128.79182617 41.14919434 -128.03662109 40.6706543 C-90.00914036 16.93811765 -45.3170913 0.23630425 0 0 Z " fill="#7CD686" transform="translate(243.6953125,-0.203125)"/>
<path d="M0 0 C0.90195602 -0.00701431 1.80391205 -0.01402863 2.73320007 -0.02125549 C5.63208047 -0.03868232 8.53075663 -0.04510887 11.4296875 -0.046875 C12.41955658 -0.04754974 13.40942566 -0.04822449 14.42929077 -0.04891968 C28.9391862 -0.03318338 43.02662729 0.4161495 57.3046875 3.203125 C58.65022705 3.44458252 58.65022705 3.44458252 60.02294922 3.69091797 C108.71061874 12.50090649 153.73474658 35.94419047 189.3046875 70.203125 C190.2937207 71.15131104 190.2937207 71.15131104 191.30273438 72.11865234 C200.79099055 81.26309979 209.5308919 90.56046509 217.3046875 101.203125 C218.16274902 102.35417517 219.02082201 103.50521677 219.87890625 104.65625 C225.91646146 112.84588481 231.29926052 121.34850776 236.3046875 130.203125 C236.706875 130.91033691 237.1090625 131.61754883 237.5234375 132.34619141 C250.53993849 155.46573437 259.2732395 180.61482253 264.6171875 206.578125 C264.76454346 207.28864014 264.91189941 207.99915527 265.0637207 208.73120117 C268.05012767 224.37353551 268.67949704 240.00988593 268.6171875 255.890625 C268.61445328 257.34171158 268.61445328 257.34171158 268.61166382 258.82211304 C268.56623576 273.15503477 268.05734822 287.10086417 265.3046875 301.203125 C265.14371582 302.10015137 264.98274414 302.99717773 264.81689453 303.92138672 C256.00690601 352.60905624 232.56362203 397.63318408 198.3046875 433.203125 C197.67256348 433.86248047 197.04043945 434.52183594 196.38916016 435.20117188 C187.24471271 444.68942805 177.94734741 453.4293294 167.3046875 461.203125 C166.15363733 462.06118652 165.00259573 462.91925951 163.8515625 463.77734375 C155.66192769 469.81489896 147.15930474 475.19769802 138.3046875 480.203125 C137.59747559 480.6053125 136.89026367 481.0075 136.16162109 481.421875 C113.04207813 494.43837599 87.89298997 503.171677 61.9296875 508.515625 C61.21917236 508.66298096 60.50865723 508.81033691 59.77661133 508.9621582 C44.13427699 511.94856517 28.49792657 512.57793454 12.6171875 512.515625 C11.64979645 512.51380219 10.6824054 512.51197937 9.68569946 512.51010132 C-4.64722227 512.46467326 -18.59305167 511.95578572 -32.6953125 509.203125 C-33.59233887 509.04215332 -34.48936523 508.88118164 -35.41357422 508.71533203 C-84.10124374 499.90534351 -129.12537158 476.46205953 -164.6953125 442.203125 C-165.35466797 441.57100098 -166.01402344 440.93887695 -166.69335938 440.28759766 C-176.18161555 431.14315021 -184.9215169 421.84578491 -192.6953125 411.203125 C-193.55337402 410.05207483 -194.41144701 408.90103323 -195.26953125 407.75 C-201.30708646 399.56036519 -206.68988552 391.05774224 -211.6953125 382.203125 C-212.0975 381.49591309 -212.4996875 380.78870117 -212.9140625 380.06005859 C-225.93056349 356.94051563 -234.6638645 331.79142747 -240.0078125 305.828125 C-240.22884644 304.76235229 -240.22884644 304.76235229 -240.4543457 303.67504883 C-243.44075243 288.03271576 -244.07012807 272.39636368 -244.0078125 256.515625 C-244.00598969 255.54856628 -244.00416687 254.58150757 -244.00228882 253.58514404 C-243.95691249 239.27430726 -243.54359062 225.27247195 -240.6953125 211.203125 C-240.42195068 209.82640625 -240.42195068 209.82640625 -240.14306641 208.421875 C-238.83153693 201.9705086 -237.33396213 195.57882623 -235.6953125 189.203125 C-235.50211426 188.44837891 -235.30891602 187.69363281 -235.10986328 186.91601562 C-230.47115109 169.19221954 -223.31606304 152.33842357 -214.6953125 136.203125 C-214.28990234 135.44161133 -213.88449219 134.68009766 -213.46679688 133.89550781 C-212.17939759 131.49164618 -210.87826272 129.09586105 -209.5703125 126.703125 C-209.17473145 125.97335449 -208.77915039 125.24358398 -208.37158203 124.49169922 C-201.10662224 111.40877987 -201.10662224 111.40877987 -196.6953125 109.203125 C-191.94914556 108.55041049 -188.71253504 108.50378451 -184.6953125 111.265625 C-182.15925033 114.99046631 -181.47554702 116.66130505 -181.6953125 121.203125 C-183.32644562 125.09129115 -185.50437019 128.60796706 -187.6953125 132.203125 C-199.10494835 151.74241925 -208.42828032 171.41180518 -214.6953125 193.203125 C-215.21931641 194.99363281 -215.21931641 194.99363281 -215.75390625 196.8203125 C-220.79838011 215.3886871 -223.07908786 234.24414098 -223.0078125 253.453125 C-223.00535522 254.13196747 -223.00289795 254.81080994 -223.00036621 255.51022339 C-222.91282605 268.9883406 -222.32520351 282.36849831 -219.8828125 295.640625 C-219.70250488 296.6315918 -219.52219727 297.62255859 -219.33642578 298.64355469 C-218.80562045 301.50016819 -218.25584699 304.35221195 -217.6953125 307.203125 C-217.55786621 307.91549316 -217.42041992 308.62786133 -217.27880859 309.36181641 C-213.34010694 329.07534347 -205.35902388 348.62289373 -195.6953125 366.203125 C-194.99184865 367.52195473 -194.2887326 368.84097002 -193.5859375 370.16015625 C-185.53076603 385.07006416 -175.92539564 398.53371675 -164.6953125 411.203125 C-163.92316406 412.08613281 -163.15101563 412.96914063 -162.35546875 413.87890625 C-153.82339133 423.52060358 -144.8460168 432.27376597 -134.6953125 440.203125 C-133.80585938 440.90953125 -132.91640625 441.6159375 -132 442.34375 C-86.03713868 477.93616071 -32.15384419 492.33447903 25.3046875 491.203125 C26.09391602 491.18910645 26.88314453 491.17508789 27.69628906 491.16064453 C39.70981905 490.87488867 51.5448924 488.51528629 63.3046875 486.203125 C64.01705566 486.06567871 64.72942383 485.92823242 65.46337891 485.78662109 C85.17690597 481.84791944 104.72445623 473.86683638 122.3046875 464.203125 C123.62351723 463.49966115 124.94253252 462.7965451 126.26171875 462.09375 C141.17162666 454.03857853 154.63527925 444.43320814 167.3046875 433.203125 C168.62919922 432.04490234 168.62919922 432.04490234 169.98046875 430.86328125 C179.62216608 422.33120383 188.37532847 413.3538293 196.3046875 403.203125 C197.01109375 402.31367188 197.7175 401.42421875 198.4453125 400.5078125 C213.46466391 381.11231913 224.23198144 359.88489015 233.3046875 337.203125 C234.01625 335.43195313 234.01625 335.43195313 234.7421875 333.625 C242.39762354 313.43378745 246.74986254 290.78538589 247.3046875 269.203125 C247.34553467 267.67316895 247.34553467 267.67316895 247.38720703 266.11230469 C247.76771769 249.2118881 247.03354391 232.88813274 244.3046875 216.203125 C244.17610352 215.36587891 244.04751953 214.52863281 243.91503906 213.66601562 C237.38632153 172.03505851 217.11407841 132.57675976 189.3046875 101.203125 C188.14646484 99.87861328 188.14646484 99.87861328 186.96484375 98.52734375 C178.43276633 88.88564642 169.4553918 80.13248403 159.3046875 72.203125 C157.97050781 71.14351562 157.97050781 71.14351562 156.609375 70.0625 C137.21388163 55.04314859 115.98645265 44.27583106 93.3046875 35.203125 C92.12390625 34.72875 90.943125 34.254375 89.7265625 33.765625 C76.60245194 28.78965891 62.73623167 25.8451679 48.9296875 23.453125 C47.95273926 23.27982666 47.95273926 23.27982666 46.95605469 23.10302734 C34.60668702 21.10346142 21.91376649 20.9355682 9.4296875 20.890625 C8.72012909 20.88800659 8.01057068 20.88538818 7.2795105 20.88269043 C-6.34261046 20.87736565 -19.34623473 22.43833767 -32.6953125 25.203125 C-33.53610352 25.3686084 -34.37689453 25.5340918 -35.24316406 25.70458984 C-67.88799038 32.14298442 -97.31329089 46.25982417 -125 64.453125 C-128.92722397 67.00297476 -130.96739061 67.65773287 -135.6953125 67.203125 C-141.27425987 64.04523026 -141.27425987 64.04523026 -142.6953125 61.203125 C-143.3951797 54.20445302 -143.3951797 54.20445302 -140.63671875 50.2578125 C-137.59929596 46.85624171 -134.1050131 44.48387152 -130.2578125 42.078125 C-129.52481934 41.61365967 -128.79182617 41.14919434 -128.03662109 40.6706543 C-90.00914036 16.93811765 -45.3170913 0.23630425 0 0 Z " fill="#000100" transform="translate(243.6953125,-0.203125)"/>
<path d="M0 0 C1.8468615 -0.01052147 1.8468615 -0.01052147 3.73103333 -0.02125549 C7.67487258 -0.03863923 11.61863059 -0.04568861 15.5625 -0.046875 C16.23456356 -0.04731686 16.90662712 -0.04775871 17.59905624 -0.04821396 C37.42179342 -0.0550479 56.92326023 0.22063707 76.5625 3.203125 C77.83673828 3.38536621 79.11097656 3.56760742 80.42382812 3.75537109 C122.05244075 9.71644354 160.63695469 21.80407741 198.125 40.953125 C198.96385742 41.37658203 199.80271484 41.80003906 200.66699219 42.23632812 C211.26029919 47.81538358 217.6087855 54.46720607 221.875 65.640625 C223.81066119 75.67086937 222.50381858 85.01639174 216.9375 93.75390625 C211.75296974 100.18056355 204.92877127 105.19009088 196.62011719 106.51220703 C185.92613306 107.53642683 177.95543754 105.151964 168.64453125 100.0625 C155.37174397 92.84291917 141.79376882 87.27070017 127.5625 82.203125 C126.69592773 81.89358887 125.82935547 81.58405273 124.93652344 81.26513672 C96.01148384 71.11035248 63.7582992 66.07356638 33.1484375 66.03515625 C32.10373795 66.03087616 31.05903839 66.02659607 29.98268127 66.02218628 C26.63424296 66.01227106 23.2859501 66.01211977 19.9375 66.015625 C18.21710007 66.01702988 18.21710007 66.01702988 16.46194458 66.01846313 C-15.07353968 66.0744255 -46.36886219 68.46822742 -77.1875 75.515625 C-88.28901453 78.02304867 -99.30178966 79.26400584 -109.4375 73.203125 C-117.19700996 67.80628634 -121.73264728 61.36682329 -124.25 52.265625 C-124.311875 51.255 -124.37375 50.244375 -124.4375 49.203125 C-124.499375 48.38070312 -124.56125 47.55828125 -124.625 46.7109375 C-125.04318256 37.2756936 -122.03047725 30.37154554 -116.1796875 23.05078125 C-109.64023065 16.115438 -101.50708362 13.36856313 -92.4375 11.203125 C-91.65036621 11.01395508 -90.86323242 10.82478516 -90.05224609 10.62988281 C-75.74710111 7.29711409 -61.30996129 5.2671579 -46.75 3.453125 C-45.46928116 3.29289352 -45.46928116 3.29289352 -44.16268921 3.12942505 C-41.66770931 2.82014291 -39.17201015 2.51777203 -36.67578125 2.21875 C-35.95238556 2.13042404 -35.22898987 2.04209808 -34.4836731 1.95109558 C-23.01083944 0.61113524 -11.54633443 0.0443291 0 0 Z " fill="#020302" transform="translate(210.4375,142.796875)"/>
<path d="M0 0 C1.24563721 0.15251221 2.49127441 0.30502441 3.7746582 0.4621582 C38.71176942 4.88612119 86.24087508 16.48639605 113 41 C114.64453125 43.38671875 114.64453125 43.38671875 115.8125 45.6875 C116.21082031 46.45449219 116.60914063 47.22148437 117.01953125 48.01171875 C117.34308594 48.66785156 117.66664063 49.32398438 118 50 C118.33 50.66 118.66 51.32 119 52 C119.90276081 62.18195803 118.61853507 70.56464828 112.375 78.8125 C106.56676834 85.06410813 98.65626502 87.59859784 90.375 88.3125 C82.97853826 88.16098961 76.44243795 84.8686371 70.09960938 81.31396484 C45.24960767 67.38845843 17.03475359 60.64900626 -11 57 C-11.65525665 56.91213226 -12.31051331 56.82426453 -12.98562622 56.73373413 C-24.67516353 55.19057588 -36.1545332 54.70631379 -47.9375 54.8125 C-49.63232379 54.82274378 -51.32714802 54.8329156 -53.02197266 54.84301758 C-57.01712211 54.8716102 -61.01179951 54.9173234 -65.00665283 54.9732666 C-66.69431767 54.9959004 -68.38206986 55.01187081 -70.06982422 55.02636719 C-89.67144565 55.24941879 -109.79373899 58.99052986 -128.82983398 63.39331055 C-138.09156725 65.16577163 -146.72720025 64.77157738 -155 60 C-157.875 57.5625 -157.875 57.5625 -160 55 C-160.70125 54.195625 -161.4025 53.39125 -162.125 52.5625 C-167.50449725 45.21052043 -167.85360676 38.88928419 -167 30 C-165.36071984 22.47374515 -161.35519693 16.39679788 -155 12 C-148.43330469 8.84462372 -141.66928763 6.97995072 -134.5625 5.5 C-133.58023438 5.29205811 -132.59796875 5.08411621 -131.5859375 4.86987305 C-119.47042183 2.38159391 -107.26561986 0.56466483 -95 -1 C-94.08444336 -1.12004395 -93.16888672 -1.24008789 -92.22558594 -1.36376953 C-61.79670686 -5.18589193 -30.34476059 -3.85641662 0 0 Z " fill="#020302" transform="translate(276,225)"/>
<path d="M0 0 C3.44595792 0.01612201 6.89074641 0.00001553 10.33666992 -0.01904297 C51.38463597 -0.05612499 107.9170956 8.25790392 140.8815918 35.45361328 C146.89473532 41.86763304 149.06993749 48.86188514 148.79174805 57.58251953 C147.72104184 64.91430774 144.01841014 70.53970571 138.32299805 75.13720703 C131.63736435 79.45529237 125.70117112 80.91937443 117.7331543 79.93408203 C109.97571996 78.14291364 102.8535746 73.48280512 95.90844727 69.72851562 C67.61255874 54.75219897 34.26279835 52.15665373 2.8815918 52.07861328 C1.8392337 52.07566254 0.79687561 52.07271179 -0.27706909 52.06967163 C-19.83870069 52.05708987 -38.33129269 53.74483614 -57.4309082 58.14111328 C-66.3757347 60.16018509 -75.86474674 61.46687229 -84.1809082 56.89111328 C-90.3933735 52.48760211 -94.95528133 47.05949839 -96.36450195 39.44970703 C-96.44829102 38.77037109 -96.53208008 38.09103516 -96.6184082 37.39111328 C-96.71250977 36.68083984 -96.80661133 35.97056641 -96.90356445 35.23876953 C-97.41073657 27.83925839 -94.58872132 21.90148333 -89.85668945 16.30908203 C-82.21472822 8.94613764 -71.59603555 7.81719845 -61.4934082 5.89111328 C-60.49954102 5.69130859 -59.50567383 5.49150391 -58.48168945 5.28564453 C-39.04460771 1.54132326 -19.78708788 -0.10963933 0 0 Z " fill="#020302" transform="translate(217.618408203125,291.60888671875)"/>
<path d="M0 0 C1.70946304 0.00415421 1.70946304 0.00415421 3.45346069 0.00839233 C20.87677889 0.05798186 38.15985857 0.42175209 55.5 2.25 C56.50579102 2.35183594 57.51158203 2.45367187 58.54785156 2.55859375 C95.37988673 6.41435446 132.17310088 17.16583913 165.5 33.25 C166.8005835 33.87575928 166.8005835 33.87575928 168.12744141 34.51416016 C170.72236709 35.77781367 173.30078369 37.06973888 175.875 38.375 C177.04301147 38.94988159 177.04301147 38.94988159 178.23461914 39.53637695 C183.35578183 42.2022569 187.38836731 45.30290149 190.5 50.25 C191.26279083 54.52162862 190.70413948 57.28710253 188.75 61.0625 C186.19697532 64.67928496 184.61063208 65.88246655 180.29321289 66.63427734 C172.92782836 66.87121318 168.20705801 64.5231938 161.9375 60.875 C143.13096313 50.52656757 123.10724159 43.16276683 102.5 37.25 C101.81728027 37.05212891 101.13456055 36.85425781 100.43115234 36.65039062 C90.15210727 33.75311717 79.60196174 32.23277729 69.0625 30.625 C68.37819916 30.52040466 67.69389832 30.41580933 66.98886108 30.30804443 C62.8634416 29.68317753 58.73451317 29.09249887 54.5994873 28.53469849 C53.2117045 28.34650984 51.82455059 28.1536172 50.43811035 27.95578003 C37.63289446 26.15133325 24.94231491 25.97247237 12.02392578 26.04418945 C8.63696697 26.06243553 5.25028419 26.06469824 1.86328125 26.06445312 C-17.44223683 26.0933968 -36.38805725 26.76702491 -55.5 29.5625 C-57.06769772 29.78555641 -58.63540618 30.00853731 -60.203125 30.23144531 C-78.06357953 32.78850234 -78.06357953 32.78850234 -95.62890625 36.83984375 C-101.28989422 38.08077013 -107.53943118 38.34791854 -112.625 35.5 C-116.00020477 31.44975428 -116.98731715 28.72579499 -116.8046875 23.27734375 C-116.27108778 19.72685333 -114.92101378 17.85258982 -112.5 15.25 C-105.85673719 12.32141547 -98.95654338 10.82024415 -91.875 9.3125 C-90.65804443 9.05307617 -89.44108887 8.79365234 -88.18725586 8.52636719 C-75.07946504 5.82497226 -61.86411315 3.94763538 -48.56304932 2.47912598 C-47.11754281 2.31858542 -45.67254863 2.15339547 -44.22796631 1.98474121 C-29.4660195 0.28053527 -14.85088892 -0.07080297 0 0 Z " fill="#FCFCFC" transform="translate(222.5,162.75)"/>
<path d="M0 0 C1.62627731 2.17193615 1.43994791 3.42440586 1.125 6.0859375 C0.67430919 9.03460609 0.41347799 10.30974218 -1.5 12.6484375 C-4.55094907 13.88530875 -6.51611903 13.88842893 -9.8125 13.5859375 C-12.40633046 12.36002657 -14.78686384 11.09370974 -17.25 9.6484375 C-78.76424289 -24.54281426 -159.74304371 -26.82561996 -227 -11.6640625 C-231.80680382 -10.58388187 -235.90561311 -9.68711629 -240.8125 -10.4140625 C-244.0894716 -13.11756407 -244.71384941 -14.78927542 -245.375 -18.9765625 C-244.8125 -22.4140625 -244.8125 -22.4140625 -243.0625 -24.6640625 C-238.19797008 -27.28342476 -233.19430343 -28.284927 -227.8125 -29.4140625 C-226.65105469 -29.671875 -225.48960937 -29.9296875 -224.29296875 -30.1953125 C-216.67094512 -31.81874671 -209.10597273 -32.96365163 -201.35864258 -33.76782227 C-198.34900616 -34.08393209 -195.69529618 -34.45313044 -192.8125 -35.4140625 C-133.28302542 -43.38319357 -49.39481381 -38.53647112 0 0 Z " fill="#FAFAFA" transform="translate(373.8125,279.4140625)"/>
<path d="M0 0 C1.0515477 -0.0033284 2.1030954 -0.0066568 3.18650818 -0.01008606 C5.39915535 -0.01511571 7.61181001 -0.01749562 9.82446289 -0.01733398 C13.15068573 -0.01950972 16.47657044 -0.037679 19.80273438 -0.05664062 C36.18216845 -0.10072497 51.94782436 1.04346711 68.05859375 4.10546875 C68.99759521 4.28166748 69.93659668 4.45786621 70.90405273 4.6394043 C77.25037792 5.85383478 83.46321599 7.1923495 89.62109375 9.16796875 C90.37213379 9.40386719 91.12317383 9.63976562 91.89697266 9.8828125 C102.82841249 13.33202318 113.38415691 16.97329484 123.62109375 22.16796875 C124.98271225 22.8158627 126.34471336 23.46295295 127.70703125 24.109375 C129.09605411 24.7935423 130.48409213 25.47971304 131.87109375 26.16796875 C132.52835449 26.47597412 133.18561523 26.78397949 133.86279297 27.10131836 C137.139485 28.78148337 138.45743053 29.68919278 139.66796875 33.23046875 C139.62109375 36.16796875 139.62109375 36.16796875 137.62109375 39.16796875 C132.02146179 39.86792274 128.8779691 38.5812597 124.12109375 35.73046875 C90.00604206 16.36443851 50.67667178 11.95667289 12.12109375 11.85546875 C11.13019745 11.85251801 10.13930115 11.84956726 9.11837769 11.8465271 C-11.53804486 11.83258229 -31.06593724 13.99013716 -51.24536133 18.55200195 C-55.48250367 19.38490496 -59.07907136 19.59795224 -63.37890625 19.16796875 C-65.37890625 16.16796875 -65.37890625 16.16796875 -65.44140625 13.16796875 C-64.37890625 10.16796875 -64.37890625 10.16796875 -61.28613281 8.56494141 C-57.52376087 7.09327672 -53.8017683 6.39994625 -49.80078125 5.81640625 C-48.76090057 5.65986069 -48.76090057 5.65986069 -47.70001221 5.50015259 C-45.51085804 5.17214053 -43.32011055 4.85696408 -41.12890625 4.54296875 C-38.9238489 4.21943195 -36.71922645 3.8932 -34.51495361 3.56436157 C-32.52601444 3.26880111 -30.53598001 2.98063899 -28.54589844 2.69287109 C-25.36652986 2.25098312 -25.36652986 2.25098312 -22.37890625 1.16796875 C-14.94556021 0.16410518 -7.48956892 0.00850078 0 0 Z " fill="#F8F8F8" transform="translate(206.37890625,311.83203125)"/>
<path d="M0 0 C2.8100346 1.79363911 4.50940468 3.01880935 6 6 C6.125 7.953125 6.125 7.953125 6 10.25 C5.979375 10.99765625 5.95875 11.7453125 5.9375 12.515625 C3.31667162 19.46082021 -5.73421935 23.61382634 -11.75 27.3125 C-12.66958496 27.87791504 -13.58916992 28.44333008 -14.53662109 29.02587891 C-33.33042737 40.38470195 -53.74738426 48.53582619 -75 54 C-75.87398438 54.22558594 -76.74796875 54.45117188 -77.6484375 54.68359375 C-81.79151878 55.681512 -85.73245396 56.5819381 -90 56 C-93.34213802 53.8731849 -95.89264987 51.87572544 -97 48 C-97 43.76316595 -96.516215 41.65286014 -93.875 38.3125 C-89.02415716 34.76676488 -82.80597052 33.9143737 -77.06738281 32.52246094 C-54.42080525 26.799306 -31.59121813 17.249607 -12.96875 2.99707031 C-8.40294854 -0.32425201 -5.44523698 -0.55921002 0 0 Z " fill="#020302" transform="translate(380,408)"/>
<path d="M0 0 C2.96460633 2.06233484 4.67606665 3.55797411 5.484375 7.15625 C5.75206639 11.61777318 5.45340247 13.44196619 2.5625 17 C1.716875 17.66 0.87125 18.32 0 19 C-0.33 19.33 -0.66 19.66 -1 20 C-5.96460138 20.38189241 -9.05857534 20.15313973 -13 17 C-15.56570589 13.57905881 -15.43708054 10.15226516 -15 6 C-13.17863582 2.96439304 -11.68054389 1.39399909 -8.625 -0.375 C-5.27348387 -1.17298003 -3.29688018 -1.03027506 0 0 Z " fill="#020402" transform="translate(81,78)"/>
<path d="M0 0 C2.75329021 1.79562405 4.52627461 3.05254922 6 6 C6.5811138 13.08958838 6.5811138 13.08958838 4.125 16.9375 C1.20157849 19.77493852 0.36073651 19.96451772 -3.8125 20.375 C-7.23041924 20.31907041 -7.97465048 20.0177986 -10.9375 17.9375 C-13.40599406 14.42176604 -14 12.28616677 -14 8 C-11.11416745 1.31701936 -7.21187476 -0.88566883 0 0 Z " fill="#040704" transform="translate(260,447)"/>
</svg>
