<?xml version="1.0" encoding="UTF-8"?>
<svg version="1.1" xmlns="http://www.w3.org/2000/svg" width="512" height="512">
<path d="M0 0 C1.44518516 -0.00374342 2.8903683 -0.00834768 4.33554828 -0.01373065 C8.27985096 -0.02589071 12.22406839 -0.02570849 16.16838551 -0.02334189 C20.43305562 -0.02293194 24.69769905 -0.03398985 28.96235657 -0.04345703 C37.30789169 -0.06002986 45.65339856 -0.0655649 53.99894877 -0.06668179 C60.78725567 -0.06763408 67.5755533 -0.07175342 74.36385727 -0.07808304 C93.63622855 -0.09568575 112.9085776 -0.10492349 132.18095697 -0.10342209 C133.73758154 -0.10330222 133.73758154 -0.10330222 135.32565308 -0.10317993 C136.36467907 -0.10309817 137.40370506 -0.10301641 138.47421668 -0.10293217 C155.3041394 -0.10211967 172.13397253 -0.12125072 188.96386935 -0.14945666 C206.27044597 -0.17823117 223.57697896 -0.19199443 240.88358009 -0.19026911 C250.58953059 -0.18960676 260.2953872 -0.19503093 270.00131607 -0.21662521 C278.26658455 -0.23489726 286.53171655 -0.23913516 294.79699655 -0.22560637 C299.00777866 -0.21910682 303.21829943 -0.21884939 307.42905617 -0.23631287 C339.82258964 -0.36238489 339.82258964 -0.36238489 353.46627808 4.26742554 C354.30143511 4.53710962 355.13659214 4.80679371 355.99705696 5.08465004 C366.29648554 8.71389055 374.92986036 14.60185002 383.46627808 21.26742554 C384.1391687 21.75598022 384.81205933 22.24453491 385.50534058 22.74789429 C397.70901523 32.14645889 406.65789674 47.63875576 411.77877808 61.82992554 C412.02152466 62.50192993 412.26427124 63.17393433 412.51437378 63.86630249 C416.09593885 74.40069003 416.76111102 84.74048396 416.73370361 95.80114746 C416.73744704 97.24633262 416.7420513 98.69151576 416.74743426 100.13669574 C416.75959433 104.08099843 416.75941211 108.02521585 416.75704551 111.96953297 C416.75663556 116.23420309 416.76769346 120.49884651 416.77716064 124.76350403 C416.79373347 133.10903915 416.79926852 141.45454602 416.8003854 149.80009623 C416.8013377 156.58840313 416.80545704 163.37670076 416.81178665 170.16500473 C416.82938936 189.43737601 416.83862711 208.70972506 416.8371257 227.98210444 C416.83700584 229.53872901 416.83700584 229.53872901 416.83688354 231.12680054 C416.83680178 232.16582653 416.83672002 233.20485252 416.83663578 234.27536415 C416.83582329 251.10528686 416.85495433 267.93511999 416.88316028 284.76501681 C416.91193478 302.07159343 416.92569804 319.37812642 416.92397273 336.68472755 C416.92331037 346.39067806 416.92873454 356.09653466 416.95032883 365.80246353 C416.96860088 374.06773201 416.97283877 382.33286401 416.95930998 390.59814401 C416.95281043 394.80892613 416.95255301 399.01944689 416.97001648 403.23020363 C417.09608851 435.6237371 417.09608851 435.6237371 412.46627808 449.26742554 C412.19659399 450.10258257 411.9269099 450.9377396 411.64905357 451.79820442 C408.01981306 462.09763301 402.13185359 470.73100782 395.46627808 479.26742554 C394.97772339 479.94031616 394.4891687 480.61320679 393.98580933 481.30648804 C384.58724472 493.51016269 369.09494786 502.4590442 354.90377808 507.57992554 C354.23177368 507.82267212 353.55976929 508.0654187 352.86740112 508.31552124 C342.33064381 511.89789201 332.02596662 512.55982419 320.95706177 512.52812195 C319.51457642 512.53114796 318.07209268 512.53503969 316.62961173 512.53971452 C312.69284492 512.54994546 308.75616969 512.54782528 304.81939554 512.54353392 C300.56294697 512.54105771 296.30651993 512.55009199 292.05007935 512.55757141 C283.721254 512.57029609 275.39246094 512.57211485 267.06362751 512.56977115 C260.29008265 512.56798516 253.51654754 512.56974365 246.74300385 512.57399559 C245.77744864 512.57459078 244.81189344 512.57518597 243.81707899 512.57579919 C241.85527183 512.577011 239.89346468 512.57822513 237.93165752 512.57944157 C219.5488309 512.59030873 201.16602264 512.58815865 182.78319499 512.58205672 C165.98750236 512.57688956 149.19186777 512.5881392 132.39618662 512.60715494 C115.12804097 512.62655488 97.85992274 512.63478548 80.59176612 512.63103169 C70.90601933 512.62912276 61.22032191 512.63157705 51.53458405 512.64574623 C43.28793871 512.65768858 35.04137313 512.65903309 26.79472664 512.64695606 C22.59233711 512.64108707 18.39009326 512.63991271 14.18771362 512.65195847 C10.33099349 512.66288433 6.47453948 512.65963528 2.61783144 512.64569678 C0.58248376 512.64183527 -1.45287605 512.65254195 -3.48819518 512.66399366 C-15.8208091 512.59245085 -27.73397468 510.67937896 -39.09622192 505.70492554 C-39.88996216 505.36412964 -40.68370239 505.02333374 -41.50149536 504.67221069 C-49.28473161 501.18149971 -55.88950921 496.56471622 -62.53372192 491.26742554 C-63.20274536 490.78015991 -63.8717688 490.29289429 -64.56106567 489.79086304 C-76.77745423 480.4201744 -85.72964239 464.88417401 -90.84622192 450.70492554 C-91.2103418 449.69691895 -91.2103418 449.69691895 -91.58181763 448.66854858 C-95.16418839 438.13179128 -95.82612058 427.82711408 -95.79441833 416.75820923 C-95.79744435 415.31572388 -95.80133608 413.87324014 -95.8060109 412.43075919 C-95.81624185 408.49399239 -95.81412166 404.55731715 -95.80983031 400.620543 C-95.80735409 396.36409443 -95.81638838 392.10766739 -95.8238678 387.85122681 C-95.83659247 379.52240147 -95.83841124 371.1936084 -95.83606753 362.86477497 C-95.83428155 356.09123011 -95.83604004 349.31769501 -95.84029198 342.54415131 C-95.84088717 341.5785961 -95.84148235 340.6130409 -95.84209558 339.61822645 C-95.84330739 337.6564193 -95.84452152 335.69461214 -95.84573796 333.73280498 C-95.85660512 315.34997836 -95.85445504 296.9671701 -95.84835311 278.58434245 C-95.84318595 261.78864982 -95.85443558 244.99301523 -95.87345133 228.19733408 C-95.89285127 210.92918843 -95.90108187 193.6610702 -95.89732808 176.39291358 C-95.89541915 166.70716679 -95.89787344 157.02146937 -95.91204262 147.33573151 C-95.92398497 139.08908617 -95.92532947 130.84252059 -95.91325245 122.5958741 C-95.90738346 118.39348457 -95.9062091 114.19124072 -95.91825485 109.98886108 C-95.92918072 106.13214095 -95.92593166 102.27568694 -95.91199317 98.4189789 C-95.90813165 96.38363122 -95.91883833 94.34827141 -95.93029004 92.31295228 C-95.85874724 79.98033836 -93.94567535 68.06717278 -88.97122192 56.70492554 C-88.63042603 55.9111853 -88.28963013 55.11744507 -87.93850708 54.2996521 C-84.44779609 46.51641585 -79.83101261 39.91163825 -74.53372192 33.26742554 C-74.0464563 32.5984021 -73.55919067 31.92937866 -73.05715942 31.24008179 C-63.68647079 19.02369323 -48.15047039 10.07150507 -33.97122192 4.95492554 C-33.29921753 4.71217896 -32.62721313 4.46943237 -31.93484497 4.21932983 C-21.40045743 0.63776476 -11.0606635 -0.02740741 0 0 Z " fill="#000000" transform="translate(95.53372192382813,-0.267425537109375)"/>
<path d="M0 0 C1.59328125 0.71349609 1.59328125 0.71349609 3.21875 1.44140625 C14.58952721 6.81908052 23.8969843 14.41224934 33 23 C33.95712891 23.87785156 33.95712891 23.87785156 34.93359375 24.7734375 C51.21381374 40.21970413 59.92495886 62.44082964 64 84 C64.25801392 85.1741748 64.25801392 85.1741748 64.52124023 86.37207031 C67.20422735 101.09908374 65.17360196 116.78163212 61 131 C60.81808105 131.65258789 60.63616211 132.30517578 60.44873047 132.97753906 C56.17682888 148.11816613 48.86412514 160.85400984 39 173 C38.42636719 173.72703125 37.85273438 174.4540625 37.26171875 175.203125 C32.52254918 180.94894395 26.88379849 185.47021371 21 190 C20.23042969 190.6084375 19.46085938 191.216875 18.66796875 191.84375 C9.22239352 198.92390861 -1.70199289 203.92345519 -13.05395508 207.03051758 C-23.9966265 210.04667335 -31.64137045 215.18309867 -40.52490234 222.11572266 C-45.09052172 225.59150194 -49.83698128 228.80948736 -54.5625 232.0625 C-56.52528276 233.42239344 -58.48753089 234.78305887 -60.44921875 236.14453125 C-61.86146729 237.12413818 -61.86146729 237.12413818 -63.30224609 238.12353516 C-69.89576268 242.70975855 -76.44532217 247.3585372 -83 252 C-87.9956434 255.53529166 -92.99399516 259.06666683 -97.99853516 262.58935547 C-99.32491713 263.52419751 -100.65012888 264.46070226 -101.97412109 265.39892578 C-103.79222893 266.6869649 -105.61430459 267.96917688 -107.4375 269.25 C-108.46746094 269.97703125 -109.49742187 270.7040625 -110.55859375 271.453125 C-113 273 -113 273 -115 273 C-115.01417969 272.42636719 -115.02835937 271.85273438 -115.04296875 271.26171875 C-115.79922304 257.79221669 -119.65428818 243.89196388 -126 232 C-126.2985791 231.41186523 -126.5971582 230.82373047 -126.90478516 230.21777344 C-140.44534958 203.61761185 -162.93929421 185.0014174 -191 175 C-199.81035048 172.26238417 -208.78996621 170.58476405 -218 170 C-216.40179127 165.15864258 -213.65055593 161.45321497 -210.6875 157.375 C-209.5912093 155.84463654 -208.49620118 154.31335364 -207.40234375 152.78125 C-206.55518799 151.59595703 -206.55518799 151.59595703 -205.69091797 150.38671875 C-202.99563132 146.58234072 -200.37237911 142.72983626 -197.75 138.875 C-192.87515298 131.7204951 -187.95150256 124.60166023 -183 117.5 C-177.39594207 109.46149687 -171.81160839 101.41045536 -166.31835938 93.2956543 C-163.65450357 89.36781748 -160.9020321 85.5695394 -158 81.8125 C-154.82915175 77.33920064 -153.4550589 72.52095322 -151.97802734 67.31494141 C-146.87939283 49.80402366 -136.52699734 34.97372533 -124 22 C-123.36964844 21.31808594 -122.73929687 20.63617188 -122.08984375 19.93359375 C-91.78508852 -12.09058021 -38.73327675 -17.52423694 0 0 Z " fill="#FDFDFD" transform="translate(413,78)"/>
<path d="M0 0 C0.94746094 0.29801514 0.94746094 0.29801514 1.9140625 0.60205078 C26.76244077 8.6070182 46.17821548 25.19622878 58.29858398 48.18261719 C67.9786115 67.6278264 70.76615957 93.21976606 65.4375 114.375 C64.68712505 116.60520847 63.87345773 118.81505974 63 121 C62.64591064 121.95205322 62.64591064 121.95205322 62.28466797 122.92333984 C53.17908644 147.28121074 35.46192107 165.50387486 11.99682617 176.36791992 C-10.50563221 186.51545159 -34.8877433 186.63095009 -58.22265625 178.9375 C-83.61422742 169.30275363 -101.78434864 148.28961828 -113.48828125 124.4609375 C-115.54405169 119.75444498 -116.92547188 115.01446454 -118 110 C-114.44560742 110.61849956 -111.29459996 111.56324558 -107.95361328 112.91772461 C-106.97554718 113.31160873 -105.99748108 113.70549286 -104.98977661 114.11131287 C-103.94385345 114.53735306 -102.8979303 114.96339325 -101.8203125 115.40234375 C-100.73418671 115.84010635 -99.64806091 116.27786896 -98.52902222 116.72889709 C-95.05933823 118.12765481 -91.59196095 119.53200779 -88.125 120.9375 C-84.66507024 122.33913983 -81.20463032 123.73944027 -77.74240112 125.13539124 C-75.58960003 126.00344398 -73.43810713 126.87475019 -71.28811646 127.7497406 C-55.81868573 133.98918581 -41.15678924 135.56563038 -25.3046875 129.48046875 C-10.30389025 122.76025343 -2.43618471 113.49165848 4.1015625 98.46875 C8.60371394 85.8458955 6.36657767 72.88696953 1 61 C-1.61538725 56.4814515 -4.46079918 52.4903373 -8.21484375 48.85546875 C-10 47 -10 47 -10 45 C-10.58587891 44.72422119 -11.17175781 44.44844238 -11.77539062 44.16430664 C-13.90394431 43.05027322 -15.66876775 41.80111619 -17.59375 40.37109375 C-24.94815897 35.41858428 -33.33453425 32.41176517 -41.5 29.0625 C-43.14619573 28.37912754 -44.79203167 27.69488771 -46.4375 27.00976562 C-52.93611727 24.3094008 -59.43831124 21.6202575 -65.97265625 19.00732422 C-66.76111938 18.68960556 -67.54958252 18.3718869 -68.36193848 18.04454041 C-69.85888406 17.44202877 -71.35807231 16.84505084 -72.85974121 16.25440979 C-77.88784247 14.22431505 -77.88784247 14.22431505 -79 12 C-55.12317265 -2.17471595 -27.34663256 -8.71016542 0 0 Z " fill="#FDFDFD" transform="translate(214,268)"/>
<path d="M0 0 C23.0062754 9.20251016 23.0062754 9.20251016 33.69091797 13.78100586 C38.78279924 15.96034275 43.87745637 18.13312163 48.97265625 20.3046875 C49.87274414 20.68852097 50.77283203 21.07235443 51.70019531 21.46781921 C60.97493132 25.42066896 70.26571336 29.33520282 79.5567627 33.24951172 C86.13426695 36.02216609 92.70845433 38.80267318 99.28271484 41.58300781 C103.15970823 43.22260488 107.0377639 44.8596566 110.91650391 46.49511719 C115.75715027 48.53694429 120.59432634 50.58680506 125.42926025 52.64212036 C127.2422369 53.41140481 129.05629565 54.17814492 130.871521 54.94210815 C161.50641375 67.84167159 161.50641375 67.84167159 168.89453125 83.6875 C171.77129977 92.3076403 170.7860592 101.22013584 167.3359375 109.52734375 C165.13208901 113.60639666 162.32409522 116.79761078 159 120 C158.2575 120.7425 157.515 121.485 156.75 122.25 C147.74390133 127.9811537 137.51471223 129.64151099 127 128 C114.10480777 124.8673715 101.83302106 119.2686528 89.5703125 114.30859375 C87.20687243 113.35698755 84.84325239 112.40582824 82.47946167 111.45509338 C77.54785419 109.47036885 72.61754809 107.48246574 67.68847656 105.49145508 C60.75414253 102.69046137 53.81700887 99.8964555 46.87931085 97.10380638 C37.054595 93.14852955 27.23116216 89.19005463 17.41064453 85.22436523 C16.45570602 84.83935349 15.50076752 84.45434174 14.51689148 84.05766296 C13.62574142 83.69751099 12.73459137 83.33735901 11.81643677 82.96629333 C11.05071917 82.6571572 10.28500156 82.34802107 9.4960804 82.02951717 C6.31730122 80.71841848 3.16052491 79.35451067 0 78 C0 52.26 0 26.52 0 0 Z " fill="#FDFDFD" transform="translate(34,256)"/>
<path d="M0 0 C11.680297 8.01322701 20.57214759 18.88138027 23.81640625 32.90625 C25.99214219 47.4895612 23.51149991 61.53239719 15.25 73.8125 C7.08085322 84.72193019 -4.35428121 91.9257863 -17.75 94.8125 C-35.63268716 96.3087433 -48.01545966 92.89076028 -61.9375 81.5 C-70.70765119 73.54770021 -77.06186075 61.67825651 -77.88842773 49.82788086 C-78.62251629 34.00638783 -75.17786149 22.26991305 -65.375 9.5625 C-48.00129545 -8.63852381 -21.65361831 -12.89619927 0 0 Z " fill="#FDFDFD" transform="translate(393.75,135.1875)"/>
<path d="M0 0 C0.73734375 0.57234375 1.4746875 1.1446875 2.234375 1.734375 C2.84796875 2.18296875 3.4615625 2.6315625 4.09375 3.09375 C13.73691866 10.61365217 19.85815879 21.52733413 24.234375 32.734375 C24.5746875 33.56839844 24.915 34.40242188 25.265625 35.26171875 C30.77172742 51.39765777 27.75133894 70.00005533 20.484375 84.921875 C12.53591114 100.44480009 0.38616035 112.82298183 -16.20703125 119.01953125 C-35.13056073 125.02597576 -54.04689602 124.90686324 -71.99609375 116.16015625 C-89.45549606 106.66702115 -101.36983031 91.51578977 -107.140625 72.609375 C-109.26813154 63.96637968 -109.30803338 55.58161088 -108.765625 46.734375 C-108.67667969 45.12755859 -108.67667969 45.12755859 -108.5859375 43.48828125 C-106.85659135 27.94525551 -96.12149258 11.49383285 -84.37109375 1.64453125 C-58.95320806 -16.99017055 -25.91496784 -19.31242826 0 0 Z M-79.765625 21.2109375 C-87.45010158 31.46632352 -92.14747451 40.65173619 -92.015625 53.671875 C-92.02335937 54.43177734 -92.03109375 55.19167969 -92.0390625 55.97460938 C-91.99324986 69.3862587 -86.13123401 82.20022779 -76.8671875 91.83984375 C-64.19400953 103.2645488 -50.82053686 106.67930274 -34.16064453 105.93408203 C-28.96335237 105.50070945 -24.4507307 103.94337707 -19.765625 101.734375 C-18.95996094 101.36054688 -18.15429688 100.98671875 -17.32421875 100.6015625 C-5.08420393 94.34693564 3.77030402 83.72280263 8.234375 70.734375 C12.26332116 57.22013846 11.15341355 43.33032327 4.7265625 30.79296875 C-3.19550119 17.54654133 -14.2475616 8.60958029 -29.140625 4.4296875 C-47.67011904 0.87553886 -67.56362726 6.10143249 -79.765625 21.2109375 Z " fill="#030303" transform="translate(407.765625,124.265625)"/>
</svg>
