<?xml version="1.0" encoding="UTF-8"?>
<svg version="1.1" xmlns="http://www.w3.org/2000/svg" width="512" height="512">
<path d="M0 0 C1.45058807 0.00273422 1.45058807 0.00273422 2.93048096 0.00552368 C17.24131774 0.05090001 31.24315305 0.46422188 45.3125 3.3125 C46.2303125 3.49474121 47.148125 3.67698242 48.09375 3.86474609 C54.5451164 5.17627557 60.93679877 6.67385037 67.3125 8.3125 C68.44461914 8.60229736 68.44461914 8.60229736 69.59960938 8.89794922 C86.65882063 13.36272475 102.91470668 20.16038773 118.50146484 28.35986328 C120.25187306 29.28060915 122.01058034 30.18552435 123.76953125 31.08984375 C145.30885204 42.35774466 145.30885204 42.35774466 148.3125 49.3125 C148.24417969 50.46234375 148.17585938 51.6121875 148.10546875 52.796875 C147.93766105 56.54293281 147.93766105 56.54293281 151.05078125 59.078125 C152.22581072 59.92932745 153.41813599 60.75706897 154.625 61.5625 C161.25177894 66.24360495 161.25177894 66.24360495 162.9375 68.15625 C164.29537623 69.57245173 164.29537623 69.57245173 166.51171875 69.140625 C167.33285156 68.94984375 168.15398437 68.7590625 169 68.5625 C173.67278506 67.9758733 173.67278506 67.9758733 176.32421875 69.37109375 C178.4622295 71.24017233 180.37290428 73.23758365 182.3125 75.3125 C183.73712617 76.67100428 185.16177815 78.02948164 186.58691406 79.38745117 C193.56727164 86.13845414 199.53144912 93.52817816 205.3125 101.3125 C205.74304688 101.88758301 206.17359375 102.46266602 206.6171875 103.05517578 C213.12707772 111.79174436 218.92740706 120.84454482 224.3125 130.3125 C224.67698242 130.94430176 225.04146484 131.57610352 225.41699219 132.22705078 C238.59268166 155.24671301 247.27606895 180.76595449 252.625 206.6875 C252.77243652 207.39817627 252.91987305 208.10885254 253.07177734 208.84106445 C256.05713787 224.48358366 256.6873098 240.11919606 256.625 256 C256.62226578 257.45108658 256.62226578 257.45108658 256.61947632 258.93148804 C256.57404826 273.26440977 256.06516072 287.21023917 253.3125 301.3125 C253.15152832 302.20952637 252.99055664 303.10655273 252.82470703 304.03076172 C244.01471851 352.71843124 220.57143453 397.74255908 186.3125 433.3125 C185.68037598 433.97185547 185.04825195 434.63121094 184.39697266 435.31054688 C175.25252521 444.79880305 165.95515991 453.5387044 155.3125 461.3125 C154.16144983 462.17056152 153.01040823 463.02863451 151.859375 463.88671875 C143.66974019 469.92427396 135.16711724 475.30707302 126.3125 480.3125 C125.60528809 480.7146875 124.89807617 481.116875 124.16943359 481.53125 C101.04989063 494.54775099 75.90080247 503.281052 49.9375 508.625 C49.22698486 508.77235596 48.51646973 508.91971191 47.78442383 509.0715332 C32.14208949 512.05794017 16.50573907 512.68730954 0.625 512.625 C-0.34239105 512.62317719 -1.3097821 512.62135437 -2.30648804 512.61947632 C-16.63940977 512.57404826 -30.58523917 512.06516072 -44.6875 509.3125 C-45.58452637 509.15152832 -46.48155273 508.99055664 -47.40576172 508.82470703 C-96.09343124 500.01471851 -141.11755908 476.57143453 -176.6875 442.3125 C-177.34685547 441.68037598 -178.00621094 441.04825195 -178.68554688 440.39697266 C-188.17380305 431.25252521 -196.9137044 421.95515991 -204.6875 411.3125 C-205.54556152 410.16144983 -206.40363451 409.01040823 -207.26171875 407.859375 C-213.29927396 399.66974019 -218.68207302 391.16711724 -223.6875 382.3125 C-224.0896875 381.60528809 -224.491875 380.89807617 -224.90625 380.16943359 C-237.92275099 357.04989063 -246.656052 331.90080247 -252 305.9375 C-252.22103394 304.87172729 -252.22103394 304.87172729 -252.4465332 303.78442383 C-255.43294017 288.14208949 -256.06230954 272.50573907 -256 256.625 C-255.99817719 255.65760895 -255.99635437 254.6902179 -255.99447632 253.69351196 C-255.94904826 239.36059023 -255.44016072 225.41476083 -252.6875 211.3125 C-252.44604248 209.96696045 -252.44604248 209.96696045 -252.19970703 208.59423828 C-243.38971851 159.90656876 -219.94643453 114.88244092 -185.6875 79.3125 C-185.05537598 78.65314453 -184.42325195 77.99378906 -183.77197266 77.31445312 C-174.62752521 67.82619695 -165.33015991 59.0862956 -154.6875 51.3125 C-153.53644983 50.45443848 -152.38540823 49.59636549 -151.234375 48.73828125 C-143.04474019 42.70072604 -134.54211724 37.31792698 -125.6875 32.3125 C-124.98028809 31.9103125 -124.27307617 31.508125 -123.54443359 31.09375 C-100.42489063 18.07724901 -75.27580247 9.343948 -49.3125 4 C-48.24672729 3.77896606 -48.24672729 3.77896606 -47.15942383 3.5534668 C-31.51709076 0.56706007 -15.88073868 -0.06231557 0 0 Z " fill="#46AFD2" transform="translate(255.6875,-0.3125)"/>
<path d="M0 0 C4.33808317 2.32971133 4.33808317 2.32971133 6 5 C6.28586483 7.31264877 6.28586483 7.31264877 6.21653748 9.97943115 C6.18038739 11.45409473 6.18038739 11.45409473 6.143507 12.9585495 C5.91407081 17.82116117 5.56242073 22.66545196 5.16040039 27.51660156 C4.24021816 39.29318678 3.4776396 51.07457283 2.77905273 62.86621094 C2.72589625 63.76203841 2.67273978 64.65786588 2.61797249 65.58083963 C2.27914885 71.30073233 1.94356451 77.02081184 1.60892367 82.74095058 C1.3103966 87.83773164 1.00977313 92.93438917 0.70948792 98.03106689 C0.20632249 106.57677883 -0.29517586 115.12258734 -0.7956543 123.66845703 C-1.37050053 133.48381441 -1.94807789 143.29900823 -2.52709728 153.11412024 C-3.08935949 162.64636079 -3.64961046 172.17871858 -4.20899773 181.71112823 C-4.44475944 185.7280687 -4.68120595 189.74496792 -4.91824532 193.76183319 C-5.19732953 198.49272322 -5.47466256 203.22371291 -5.75071037 207.95478106 C-5.85496041 209.73698426 -5.95978291 211.51915408 -6.06520855 213.30128813 C-6.54209699 221.37026539 -7.00695141 229.43382681 -7.26705933 237.51330566 C-7.32083315 239.13457304 -7.32083315 239.13457304 -7.37569332 240.78859329 C-7.43206452 242.67432833 -7.47658656 244.56048533 -7.50492954 246.44684982 C-7.676721 252.47923482 -8.95569844 256.63627632 -13 261.3125 C-16.15660888 263.97588874 -19.40640029 264.47602364 -23.48339844 264.41113281 C-29.24767026 263.46943377 -34.42762388 260.43134691 -39.625 257.875 C-40.95494175 257.23533943 -42.28568799 256.59734913 -43.6171875 255.9609375 C-46.37978263 254.6389215 -49.13879543 253.30982278 -51.89550781 251.97558594 C-57.62051425 249.21138274 -63.38623725 246.53545186 -69.15237427 243.85842896 C-72.24539365 242.42137525 -75.33545632 240.97799267 -78.42578125 239.53515625 C-79.67268727 238.95328447 -80.91959483 238.37141601 -82.16650391 237.78955078 C-85.48184623 236.2421208 -88.79664942 234.69353901 -92.11129761 233.1446228 C-94.81893752 231.87941294 -97.52677142 230.61461855 -100.23461914 229.34985352 C-101.51205932 228.75305467 -102.78940687 228.15605751 -104.06665039 227.55883789 C-106.9673513 226.20254011 -109.86941929 224.84944903 -112.77490234 223.50341797 C-114.92301902 222.5020476 -117.06409047 221.48542151 -119.19775391 220.45361328 C-120.18050293 219.98552246 -121.16325195 219.51743164 -122.17578125 219.03515625 C-123.03727783 218.61758057 -123.89877441 218.20000488 -124.78637695 217.76977539 C-127.12724299 216.70336959 -127.12724299 216.70336959 -130 218 C-131.30736329 219.51458102 -131.30736329 219.51458102 -132.46875 221.453125 C-132.94691162 222.20166748 -133.42507324 222.95020996 -133.91772461 223.72143555 C-134.43987549 224.55586182 -134.96202637 225.39028809 -135.5 226.25 C-136.67752973 228.09559831 -137.85596894 229.94061656 -139.03515625 231.78515625 C-139.99252686 233.28973389 -139.99252686 233.28973389 -140.96923828 234.82470703 C-144.58212755 240.47380991 -148.26007915 246.08029638 -151.9375 251.6875 C-152.32807587 252.28328857 -152.71865173 252.87907715 -153.12106323 253.49291992 C-156.0757 257.99858092 -159.03626924 262.50031636 -162 267 C-162.72322449 268.09819061 -162.72322449 268.09819061 -163.46105957 269.21856689 C-166.49338885 273.82079332 -169.5323462 278.41855207 -172.57888794 283.01138306 C-173.5650608 284.49941577 -174.54967 285.98848601 -175.53268433 287.47860718 C-176.90405984 289.55643736 -178.28129518 291.63025735 -179.66015625 293.703125 C-180.07073273 294.3277211 -180.4813092 294.9523172 -180.90432739 295.59584045 C-183.77152535 299.88576267 -183.77152535 299.88576267 -186 301 C-192.23368421 301.57719298 -192.23368421 301.57719298 -195.1328125 299.39355469 C-197.48834023 296.37399482 -197.88161276 294.16705893 -198.5 290.390625 C-198.61717377 289.70367554 -198.73434753 289.01672607 -198.85507202 288.30895996 C-199.25200997 285.95825418 -199.62565631 283.60440173 -200 281.25 C-200.28187495 279.55476444 -200.56529943 277.85978596 -200.85009766 276.16503906 C-201.51379081 272.19613014 -202.16661754 268.22559299 -202.81347656 264.25390625 C-204.21598562 255.6552441 -205.65135314 247.06210635 -207.0859375 238.46875 C-207.63288369 235.19239469 -208.17977867 231.91603085 -208.7265625 228.63964844 C-208.8627084 227.82395763 -208.99885429 227.00826683 -209.13912582 226.16785812 C-209.96309249 221.22834672 -210.78337912 216.28824086 -211.60033226 211.3475647 C-212.11763059 208.21931955 -212.63605381 205.09126125 -213.15452957 201.96321106 C-213.39862035 200.4884845 -213.64213667 199.01366274 -213.88505173 197.53874207 C-214.22057125 195.50182001 -214.55807182 193.46523521 -214.89599609 191.42871094 C-215.08584076 190.27916931 -215.27568542 189.12962769 -215.47128296 187.94525146 C-215.64575958 186.97331848 -215.82023621 186.0013855 -216 185 C-216.11598541 184.24725296 -216.23197083 183.49450592 -216.35147095 182.71894836 C-216.96646804 180.52786695 -216.96646804 180.52786695 -220.48046875 179.06811523 C-222.04282339 178.38289414 -223.61250408 177.71423681 -225.1875 177.05859375 C-226.45034821 176.51208916 -226.45034821 176.51208916 -227.7387085 175.95454407 C-229.5476774 175.17401286 -231.35963434 174.40037802 -233.17419434 173.63293457 C-236.00155066 172.43684401 -238.82040893 171.22253049 -241.63769531 170.00292969 C-249.16328784 166.75103086 -256.70585453 163.53983417 -264.26257324 160.36097717 C-266.03648009 159.61277694 -267.80737266 158.8574423 -269.578125 158.10180664 C-271.62901624 157.22774685 -273.6860213 156.36783701 -275.75 155.52514648 C-281.30296976 153.15769732 -284.69463847 151.12230469 -288 146 C-289.62198082 141.51526041 -289.45811201 138.01166403 -287.5 133.6875 C-281.9366085 127.70685414 -273.39299418 124.67473338 -266.125 121.1875 C-264.95678711 120.62562988 -263.78857422 120.06375977 -262.58496094 119.48486328 C-251.80920494 114.3223746 -240.93558522 109.37966232 -230.0378418 104.48095703 C-223.66866286 101.61273358 -217.33421716 98.70766397 -211.07421875 95.60546875 C-210.02782227 95.08871582 -208.98142578 94.57196289 -207.90332031 94.03955078 C-205.99592461 93.08962125 -204.09488839 92.12675458 -202.20214844 91.14794922 C-196.80514419 88.46184925 -193.03848187 87.40616035 -187 88 C-184.5 89 -184.5 89 -183 91 C-182.31658291 96.38190955 -182.31658291 96.38190955 -183 99 C-186.18851355 102.85791697 -190.08570599 104.74539548 -194.54296875 106.80078125 C-195.29188889 107.15427139 -196.04080902 107.50776154 -196.81242371 107.8719635 C-199.26683601 109.02743954 -201.72695837 110.17014175 -204.1875 111.3125 C-205.89234953 112.11158812 -207.59693667 112.91123627 -209.30126953 113.71142578 C-221.98347216 119.65213056 -234.71793171 125.48072908 -247.48901367 131.2277832 C-253.72303077 134.03510212 -259.91801902 136.8743237 -266 140 C-262.25073379 143.22185986 -257.9619731 144.91582506 -253.46484375 146.8359375 C-252.6309462 147.19716705 -251.79704865 147.55839661 -250.93788147 147.93057251 C-248.27321918 149.08372522 -245.60550547 150.22960638 -242.9375 151.375 C-240.30103153 152.51219593 -237.6652194 153.65088911 -235.02993774 154.79083252 C-233.33095628 155.52445099 -231.6307519 156.2552443 -229.92929077 156.98309326 C-224.58735731 159.27550747 -219.34734169 161.70992998 -214.19360352 164.40478516 C-211.1637887 165.22689851 -209.73367108 164.4395189 -207 163 C-204.77996273 161.2336102 -202.66963921 159.45325599 -200.5625 157.5625 C-195.86940953 153.44406104 -191.12493147 149.44743578 -186.1875 145.625 C-180.79859337 141.44393853 -175.50594267 137.1595593 -170.25 132.8125 C-165.07830412 128.53529059 -159.89141827 124.28458616 -154.63671875 120.109375 C-151.15592977 117.32474382 -147.70475954 114.50431373 -144.25 111.6875 C-139.14624997 107.52744642 -134.00762144 103.42027374 -128.8125 99.375 C-123.72636771 95.4113986 -118.78365884 91.31009715 -113.88500977 87.11791992 C-109.52046797 83.39953824 -105.03761304 79.85494744 -100.51171875 76.3359375 C-95.03887961 72.06592015 -89.69471804 67.64757042 -84.3503418 63.21850586 C-79.06425384 58.84858451 -73.70918632 54.57738675 -68.2890625 50.375 C-66.0830027 48.66093915 -63.97790594 46.97790594 -62 45 C-62.82274414 45.38631592 -63.64548828 45.77263184 -64.49316406 46.1706543 C-97.11928836 61.48648046 -97.11928836 61.48648046 -111.51171875 68.12451172 C-117.0485544 70.68173881 -122.57037142 73.26408994 -128.06039429 75.92018127 C-130.79081977 77.23991976 -133.52656663 78.54842188 -136.26263428 79.85641479 C-137.57090665 80.48580064 -138.87654423 81.12069776 -140.17926025 81.76150513 C-152.9426054 88.0368684 -152.9426054 88.0368684 -160 87 C-162.5 85.4375 -162.5 85.4375 -164 83 C-164.5 79.5 -164.5 79.5 -164 76 C-160.7731465 71.82908155 -156.44138607 70.03345372 -151.7734375 67.875 C-150.96239059 67.49174561 -150.15134369 67.10849121 -149.3157196 66.71362305 C-146.67267879 65.46733131 -144.02402363 64.23351732 -141.375 63 C-139.53281377 62.13476999 -137.69093736 61.26888005 -135.84936523 60.40234375 C-130.57191584 57.92266152 -125.28725572 55.45869117 -120 53 C-119.34336365 52.69433105 -118.68672729 52.38866211 -118.01019287 52.07373047 C-111.25012591 48.92746282 -104.47656456 45.81106502 -97.69970703 42.70117188 C-89.79182215 39.0681066 -81.89656978 35.40757283 -74 31.75 C-73.12590485 31.34520416 -72.25180969 30.94040833 -71.35122681 30.52334595 C-56.93490557 23.84505404 -42.54649287 17.10899041 -28.18127441 10.32150269 C-26.31432447 9.44093831 -24.44530514 8.56488281 -22.57617188 7.68896484 C-20.16551424 6.55045245 -17.76815035 5.39858663 -15.37695312 4.22119141 C-14.23677734 3.66995605 -13.09660156 3.1187207 -11.921875 2.55078125 C-10.9225293 2.05876221 -9.92318359 1.56674316 -8.89355469 1.05981445 C-5.67748721 -0.11812589 -3.39918221 -0.32630513 0 0 Z " fill="#020202" transform="translate(378,108)"/>
<path d="M0 0 C1.45058807 0.00273422 1.45058807 0.00273422 2.93048096 0.00552368 C17.24131774 0.05090001 31.24315305 0.46422188 45.3125 3.3125 C46.2303125 3.49474121 47.148125 3.67698242 48.09375 3.86474609 C54.5451164 5.17627557 60.93679877 6.67385037 67.3125 8.3125 C68.44461914 8.60229736 68.44461914 8.60229736 69.59960938 8.89794922 C86.65882063 13.36272475 102.91470668 20.16038773 118.50146484 28.35986328 C120.25187306 29.28060915 122.01058034 30.18552435 123.76953125 31.08984375 C144.90718126 42.14761795 144.90718126 42.14761795 148.3125 49.3125 C148.3125 53.22282112 147.76498068 54.79347805 145.1875 57.75 C141.30276232 59.86127048 139.59810546 59.33060323 135.3125 58.3125 C132.35353548 56.84351309 129.63319461 55.06289787 126.875 53.25 C74.69892416 20.24031802 8.88393955 8.83054485 -51.34204102 22.36401367 C-92.32320576 32.04775945 -130.32350707 50.80066167 -161.0859375 79.86328125 C-163.27674509 81.92579831 -165.50829707 83.88009077 -167.8125 85.8125 C-209.8562943 122.59002848 -234.98628032 183.49696802 -238.6875 238.3125 C-240.39721188 273.32088611 -236.04399147 307.4387782 -223.6875 340.3125 C-223.32035889 341.31144287 -223.32035889 341.31144287 -222.94580078 342.33056641 C-212.63652644 370.29001685 -196.59797654 396.05146341 -176.140625 417.70703125 C-174.05722845 419.91981071 -172.08002399 422.17498316 -170.125 424.5 C-154.00920834 442.96680126 -132.10606922 456.83506113 -110.6875 468.3125 C-109.7591333 468.81861816 -109.7591333 468.81861816 -108.81201172 469.33496094 C-83.36865016 483.12266678 -55.63074708 490.57727559 -27.01318359 494.01879883 C-25.11733815 494.25821748 -23.22673898 494.53888708 -21.33837891 494.83154297 C-15.14183747 495.64785878 -8.92944286 495.60327744 -2.6875 495.625 C-1.96762909 495.62761841 -1.24775818 495.63023682 -0.506073 495.63293457 C28.74309653 495.6442067 56.96600526 490.59143133 84.3125 480.3125 C84.97846191 480.06773926 85.64442383 479.82297852 86.33056641 479.57080078 C114.29001685 469.26152644 140.05146341 453.22297654 161.70703125 432.765625 C163.91981071 430.68222845 166.17498316 428.70502399 168.5 426.75 C211.05518835 389.6125153 235.04912137 328.32648193 239.3125 273.3125 C240.18519195 256.6514861 240.00574354 239.7937954 237.3125 223.3125 C237.11235641 221.82729421 236.91591809 220.34158569 236.72265625 218.85546875 C230.48480633 172.86210526 208.84944603 129.16744206 177.3125 95.3125 C175.5375763 93.27710532 173.77738107 91.22982617 172.01953125 89.1796875 C170.23985217 87.23303624 168.33275473 85.51551028 166.375 83.75 C163.77640511 81.17486872 163.34225864 80.45633341 162.5625 76.6875 C163.51416585 72.4050037 164.76113504 70.86021834 168.3125 68.3125 C171.125 67.5625 171.125 67.5625 174.3125 68.3125 C177.3091342 70.30576679 179.76092398 72.78665416 182.3125 75.3125 C183.69501953 76.62154297 183.69501953 76.62154297 185.10546875 77.95703125 C192.63002724 85.16847738 199.10529209 92.95434763 205.3125 101.3125 C205.74304688 101.88758301 206.17359375 102.46266602 206.6171875 103.05517578 C213.12707772 111.79174436 218.92740706 120.84454482 224.3125 130.3125 C224.67698242 130.94430176 225.04146484 131.57610352 225.41699219 132.22705078 C238.59268166 155.24671301 247.27606895 180.76595449 252.625 206.6875 C252.77243652 207.39817627 252.91987305 208.10885254 253.07177734 208.84106445 C256.05713787 224.48358366 256.6873098 240.11919606 256.625 256 C256.62226578 257.45108658 256.62226578 257.45108658 256.61947632 258.93148804 C256.57404826 273.26440977 256.06516072 287.21023917 253.3125 301.3125 C253.15152832 302.20952637 252.99055664 303.10655273 252.82470703 304.03076172 C244.01471851 352.71843124 220.57143453 397.74255908 186.3125 433.3125 C185.68037598 433.97185547 185.04825195 434.63121094 184.39697266 435.31054688 C175.25252521 444.79880305 165.95515991 453.5387044 155.3125 461.3125 C154.16144983 462.17056152 153.01040823 463.02863451 151.859375 463.88671875 C143.66974019 469.92427396 135.16711724 475.30707302 126.3125 480.3125 C125.60528809 480.7146875 124.89807617 481.116875 124.16943359 481.53125 C101.04989063 494.54775099 75.90080247 503.281052 49.9375 508.625 C49.22698486 508.77235596 48.51646973 508.91971191 47.78442383 509.0715332 C32.14208949 512.05794017 16.50573907 512.68730954 0.625 512.625 C-0.34239105 512.62317719 -1.3097821 512.62135437 -2.30648804 512.61947632 C-16.63940977 512.57404826 -30.58523917 512.06516072 -44.6875 509.3125 C-45.58452637 509.15152832 -46.48155273 508.99055664 -47.40576172 508.82470703 C-96.09343124 500.01471851 -141.11755908 476.57143453 -176.6875 442.3125 C-177.34685547 441.68037598 -178.00621094 441.04825195 -178.68554688 440.39697266 C-188.17380305 431.25252521 -196.9137044 421.95515991 -204.6875 411.3125 C-205.54556152 410.16144983 -206.40363451 409.01040823 -207.26171875 407.859375 C-213.29927396 399.66974019 -218.68207302 391.16711724 -223.6875 382.3125 C-224.0896875 381.60528809 -224.491875 380.89807617 -224.90625 380.16943359 C-237.92275099 357.04989063 -246.656052 331.90080247 -252 305.9375 C-252.22103394 304.87172729 -252.22103394 304.87172729 -252.4465332 303.78442383 C-255.43294017 288.14208949 -256.06230954 272.50573907 -256 256.625 C-255.99817719 255.65760895 -255.99635437 254.6902179 -255.99447632 253.69351196 C-255.94904826 239.36059023 -255.44016072 225.41476083 -252.6875 211.3125 C-252.44604248 209.96696045 -252.44604248 209.96696045 -252.19970703 208.59423828 C-243.38971851 159.90656876 -219.94643453 114.88244092 -185.6875 79.3125 C-185.05537598 78.65314453 -184.42325195 77.99378906 -183.77197266 77.31445312 C-174.62752521 67.82619695 -165.33015991 59.0862956 -154.6875 51.3125 C-153.53644983 50.45443848 -152.38540823 49.59636549 -151.234375 48.73828125 C-143.04474019 42.70072604 -134.54211724 37.31792698 -125.6875 32.3125 C-124.98028809 31.9103125 -124.27307617 31.508125 -123.54443359 31.09375 C-100.42489063 18.07724901 -75.27580247 9.343948 -49.3125 4 C-48.24672729 3.77896606 -48.24672729 3.77896606 -47.15942383 3.5534668 C-31.51709076 0.56706007 -15.88073868 -0.06231557 0 0 Z " fill="#000101" transform="translate(255.6875,-0.3125)"/>
<path d="M0 0 C0.99 0.495 0.99 0.495 2 1 C0.94425781 1.67482422 0.94425781 1.67482422 -0.1328125 2.36328125 C-11.44909826 9.73511754 -21.96127076 17.92657909 -31.89453125 27.08203125 C-33.61685185 28.65097265 -35.36108928 30.11958759 -37.1875 31.5625 C-40.13111031 34.11362894 -42.57478411 36.82036027 -45.09375 39.78125 C-47.11525839 42.1341532 -49.20974758 44.4070502 -51.3125 46.6875 C-74.03374154 71.98458449 -90.59267379 102.73895126 -101 135 C-101.53367187 136.61068359 -101.53367187 136.61068359 -102.078125 138.25390625 C-121.32100459 200.48782238 -113.08451211 268.90654666 -82.98242188 326.14746094 C-82.49612305 327.06446777 -82.49612305 327.06446777 -82 328 C-81.38640625 329.15757812 -80.7728125 330.31515625 -80.140625 331.5078125 C-70.13078077 349.66616629 -57.27458213 366.01953194 -43 381 C-42.42830078 381.60038086 -41.85660156 382.20076172 -41.26757812 382.81933594 C-32.73645928 391.71318804 -23.91309664 399.68534484 -14 407 C-12.89314098 407.83712299 -11.78636963 408.67436192 -10.6796875 409.51171875 C10.29593017 425.15460418 34.24868606 436.7149728 59 445 C59.67353516 445.23025879 60.34707031 445.46051758 61.04101562 445.69775391 C78.77911489 451.6762478 97.54552988 454.2356189 116 457 C116 457.33 116 457.66 116 458 C50.52560183 459.17694576 -11.87430075 441.29549579 -60.40234375 395.4453125 C-62.57123235 393.40362188 -64.7790487 391.47229564 -67.0625 389.5625 C-77.88714948 380.09649994 -86.55353828 368.55587345 -95 357 C-95.43666992 356.40944824 -95.87333984 355.81889648 -96.32324219 355.21044922 C-131.92203429 306.5550026 -146.21538812 241.1551924 -137.04296875 181.7734375 C-129.07207382 135.56604062 -109.50954348 91.75670137 -77.21875 57.37109375 C-75.29801148 55.31847354 -73.48754319 53.2199047 -71.6875 51.0625 C-53.94916549 30.81363555 -25.77802385 8.59267462 0 0 Z " fill="#3196B8" transform="translate(155,38)"/>
<path d="M0 0 C0.33 0 0.66 0 1 0 C0.40695526 19.35828764 -0.73108945 38.66076095 -1.98397827 57.98471069 C-2.55382652 66.77824512 -3.11060967 75.57260756 -3.6640625 84.3671875 C-3.74874692 85.71194058 -3.74874692 85.71194058 -3.83514214 87.0838604 C-5.20188593 108.84202295 -6.39334822 130.60939998 -7.54088879 152.38010311 C-7.7278472 155.92404108 -7.91615683 159.46790575 -8.10546875 163.01171875 C-8.14136171 163.6842399 -8.17725468 164.35676105 -8.21423531 165.04966164 C-8.9836779 179.37793342 -9.96140529 193.68884657 -11 208 C-15.30878014 207.22229151 -18.94535628 205.78832994 -22.87109375 203.89453125 C-23.86998375 203.42109535 -23.86998375 203.42109535 -24.88905334 202.93809509 C-27.07426292 201.90118517 -29.25578852 200.8567471 -31.4375 199.8125 C-32.96844005 199.08495941 -34.49969439 198.35807982 -36.03125 197.63183594 C-39.16736574 196.14454618 -42.30248235 194.65518063 -45.43701172 193.16455078 C-52.11000358 189.99495427 -58.80382495 186.87024088 -65.5 183.75 C-66.7207863 183.18058652 -67.94157081 182.61116922 -69.16235352 182.04174805 C-81.42491102 176.32512104 -93.70971729 170.65673375 -106 165 C-105.1853665 159.98588266 -102.98595061 156.60953611 -100.125 152.5 C-99.02324722 150.88252594 -97.92309889 149.26395829 -96.82421875 147.64453125 C-96.21497559 146.74943848 -95.60573242 145.8543457 -94.97802734 144.93212891 C-91.64888781 139.9971788 -88.39640487 135.01212934 -85.14050293 130.02871704 C-83.92427844 128.16726417 -82.70693573 126.3065473 -81.48925781 124.44604492 C-79.82470442 121.90272099 -78.16050614 119.35916535 -76.49658203 116.81542969 C-74.05033598 113.07627174 -71.60172309 109.3386685 -69.15234375 105.6015625 C-68.75673752 104.99796402 -68.36113129 104.39436554 -67.95353699 103.7724762 C-67.1577588 102.55832712 -66.36197736 101.34418019 -65.56619263 100.1300354 C-58.50808888 89.36069959 -51.45828887 78.5859615 -44.41357422 67.80786133 C-38.71827125 59.09549047 -33.0146763 50.38857485 -27.30911255 41.68292236 C-20.61663038 31.47119043 -13.93241943 21.25407616 -7.25390625 11.03320312 C-6.59132813 10.01935547 -5.92875 9.00550781 -5.24609375 7.9609375 C-4.66529053 7.07196777 -4.0844873 6.18299805 -3.48608398 5.26708984 C-2.33185319 3.50625739 -1.16787508 1.75181262 0 0 Z " fill="#E3E3E3" transform="translate(365,146)"/>
<path d="M0 0 C0.99 0.495 0.99 0.495 2 1 C-5.59837548 7.20698464 -13.1979463 13.40689955 -20.9375 19.4375 C-26.94009011 24.1183477 -32.81344423 28.94546069 -38.67456055 33.80175781 C-43.14798451 37.49977477 -47.66812774 41.12496561 -52.25 44.6875 C-56.75666152 48.19268118 -61.16230736 51.78778481 -65.5 55.5 C-70.39382919 59.68815914 -75.39519137 63.70357273 -80.47949219 67.6574707 C-86.05722951 72.00998249 -91.50994028 76.50789657 -96.96166992 81.01660156 C-101.39653302 84.68328031 -105.85786513 88.31076975 -110.36328125 91.890625 C-113.14903955 94.11923164 -115.91524532 96.37065242 -118.68017578 98.625 C-125.73481925 104.37655645 -132.83858865 110.05709647 -140.01171875 115.66015625 C-143.0046933 117.92046618 -143.0046933 117.92046618 -145.51953125 120.43359375 C-146.33808594 120.95050781 -147.15664062 121.46742188 -148 122 C-153.26101644 120.66584284 -158.21418732 118.23411112 -163.16796875 116.04296875 C-164.48115837 115.46570793 -164.48115837 115.46570793 -165.82087708 114.87678528 C-168.61085398 113.64951074 -171.39915699 112.41848143 -174.1875 111.1875 C-176.04221678 110.37151534 -177.89703356 109.55575795 -179.75195312 108.74023438 C-188.52536141 104.87932324 -197.29246676 101.00782657 -206 97 C-202.55294343 94.14887894 -198.7469489 92.31764096 -194.71875 90.4453125 C-194.00095871 90.10731628 -193.28316742 89.76932007 -192.54362488 89.42108154 C-190.19781665 88.3179232 -187.84898432 87.22137701 -185.5 86.125 C-183.87199221 85.36117968 -182.24414526 84.59701644 -180.61645508 83.83251953 C-175.74762164 81.54788457 -170.87456557 79.27237511 -166 77 C-165.29067322 76.6692749 -164.58134644 76.3385498 -163.8505249 75.99780273 C-160.64077357 74.50173951 -157.43020509 73.00746465 -154.21826172 71.51611328 C-151.89145844 70.43460508 -149.56622002 69.34972284 -147.24267578 68.26123047 C-142.53394499 66.06186342 -137.83500635 63.89816768 -133.01171875 61.9609375 C-127.82117107 59.84309894 -127.82117107 59.84309894 -123 57 C-122.16124469 54.67107028 -122.07042148 52.74722894 -121.96484375 50.28515625 C-119.71495913 44.95648215 -111.93593834 42.86550435 -106.89111328 40.70507812 C-104.92564034 39.97227592 -103.06990219 39.35386701 -101 39 C-100.5875 39.474375 -100.175 39.94875 -99.75 40.4375 C-97.36499911 42.56696508 -95.33272952 42.34464331 -92.23629761 42.27664185 C-88.3299616 41.79340741 -85.11179313 40.12942712 -81.62890625 38.37109375 C-80.84157104 37.98988373 -80.05423584 37.60867371 -79.24304199 37.21591187 C-77.55391763 36.39612411 -75.8681702 35.56934793 -74.18557739 34.73623657 C-70.62783441 32.97472891 -67.05420748 31.2466901 -63.4808197 29.51719666 C-61.65552694 28.63364306 -59.8310362 27.74843074 -58.00733948 26.86158752 C-49.42578173 22.69546662 -40.76146331 18.7262424 -32.0625 14.8125 C-29.39550719 13.61139939 -26.72878526 12.40970175 -24.0625 11.20703125 C-23.44600586 10.92913254 -22.82951172 10.65123383 -22.19433594 10.36491394 C-16.25852092 7.68087184 -10.36885024 4.89560372 -4.53735352 1.99145508 C-3.05169066 1.26967308 -1.52905079 0.62463352 0 0 Z " fill="#E2E2E2" transform="translate(316,152)"/>
<path d="M0 0 C0.99 0.495 0.99 0.495 2 1 C-1.94126319 5.55463859 -5.94092236 10.04991029 -10 14.5 C-12.86471815 17.64083556 -15.71185902 20.79100756 -18.5 24 C-21.28814098 27.20899244 -24.13528185 30.35916444 -27 33.5 C-30.45328153 37.28662998 -33.86099051 41.1047632 -37.22265625 44.97265625 C-40.05311616 48.20124678 -42.93961207 51.37913175 -45.81640625 54.56640625 C-47.70848685 56.67511146 -49.57905758 58.79919801 -51.4375 60.9375 C-55.08937053 65.13164365 -58.84266184 69.23094292 -62.58984375 73.33984375 C-65.16993136 76.18755795 -67.70201856 79.07244018 -70.22265625 81.97265625 C-72.29359487 84.33489173 -74.39512848 86.66795853 -76.5 89 C-78.00014143 90.66653937 -79.50014641 92.33320158 -81 94 C-81.66773438 94.73863281 -82.33546875 95.47726562 -83.0234375 96.23828125 C-83.93996094 97.26501953 -83.93996094 97.26501953 -84.875 98.3125 C-85.40867188 98.90675781 -85.94234375 99.50101562 -86.4921875 100.11328125 C-90.11032043 104.64063412 -91.76067652 109.10702965 -93.05078125 114.703125 C-93.23030334 115.45062515 -93.40982544 116.19812531 -93.5947876 116.96827698 C-94.17533588 119.39369644 -94.74398929 121.82173366 -95.3125 124.25 C-95.70940883 125.91775155 -96.10711839 127.58531273 -96.50561523 129.25268555 C-97.30176364 132.58914351 -98.09339519 135.92661862 -98.88085938 139.26513672 C-100.16145756 144.69151398 -101.46591189 150.11198009 -102.7722168 155.53222656 C-103.85346243 160.02021429 -104.92739266 164.50994113 -106 169 C-108.64915717 166.35084283 -108.63274022 164.47830859 -109.25268555 160.79370117 C-109.41646698 159.8397068 -109.41646698 159.8397068 -109.58355713 158.86643982 C-109.94284074 156.75991514 -110.29016135 154.65162169 -110.63671875 152.54296875 C-110.88242717 151.07799326 -111.12859336 149.61309448 -111.37519836 148.14826965 C-111.89064101 145.07488644 -112.40011037 142.00058602 -112.90551758 138.92553711 C-113.55300557 134.98934208 -114.21574284 131.05589737 -114.88309002 127.12302685 C-115.39478138 124.09658845 -115.89801119 121.06878926 -116.39875221 118.04052162 C-116.6396957 116.59004561 -116.8833243 115.14001294 -117.12970543 113.69045067 C-117.47361062 111.65977772 -117.80599252 109.62753471 -118.13549805 107.59448242 C-118.32710007 106.43913498 -118.51870209 105.28378754 -118.71611023 104.09342957 C-118.99533507 101.05083182 -118.91505902 98.90468693 -118 96 C-116.13967176 94.0951663 -114.38508295 92.5114545 -112.3125 90.875 C-111.73016602 90.39909424 -111.14783203 89.92318848 -110.54785156 89.43286133 C-108.71062018 87.93943501 -106.85858778 86.46673757 -105 85 C-104.43522949 84.55350098 -103.87045898 84.10700195 -103.28857422 83.64697266 C-101.03580844 81.87048708 -98.77914405 80.09923021 -96.51489258 78.33740234 C-91.77360666 74.64085062 -87.12910585 70.83575281 -82.5 67 C-77.30560076 62.69583585 -72.07558739 58.45329379 -66.75 54.3125 C-62.24333848 50.80731882 -57.83769264 47.21221519 -53.5 43.5 C-48.60617081 39.31184086 -43.60480863 35.29642727 -38.52050781 31.3425293 C-32.95017396 26.9957947 -27.50407864 22.50457977 -22.06030273 18.00097656 C-17.41815365 14.16191767 -12.74314612 10.36955204 -8.02734375 6.62109375 C-5.31708618 4.45393211 -2.65429683 2.23519733 0 0 Z " fill="#AFAFAF" transform="translate(297,189)"/>
<path d="M0 0 C0 3.63475987 -0.82604627 4.47382356 -2.953125 7.35546875 C-7.41739698 13.54701547 -11.58228378 19.92023424 -15.75 26.3125 C-16.58381299 27.58865366 -17.41780121 28.86469285 -18.25195312 30.140625 C-19.97918943 32.78292643 -21.70568249 35.42571116 -23.43164062 38.06884766 C-27.05827163 43.62142139 -30.69413381 49.1679419 -34.32980347 54.71459961 C-36.27888354 57.68836362 -38.22729868 60.66256322 -40.17578125 63.63671875 C-40.96435226 64.84033413 -41.75292652 66.04394739 -42.54150391 67.24755859 C-42.94065002 67.85678162 -43.33979614 68.46600464 -43.7510376 69.09368896 C-50.50069173 79.39579264 -57.25034587 89.69789632 -64 100 C-69.9808331 98.08390483 -75.43979866 95.93174252 -81 93 C-79.4186938 89.26077871 -77.06769602 86.70350263 -74.3125 83.75 C-71.3348986 80.53350795 -68.36916153 77.31425819 -65.5 74 C-62.71185902 70.79100756 -59.86471815 67.64083556 -57 64.5 C-53.54671847 60.71337002 -50.13900949 56.8952368 -46.77734375 53.02734375 C-43.94688384 49.79875322 -41.06038793 46.62086825 -38.18359375 43.43359375 C-36.29151315 41.32488854 -34.42094242 39.20080199 -32.5625 37.0625 C-29.80215459 33.88778403 -26.97207442 30.78462564 -24.125 27.6875 C-20.01345392 23.18467386 -16.14361919 18.53761735 -12.31640625 13.79296875 C-8.37769222 9.04392907 -4.19263325 4.52524298 0 0 Z " fill="#DFDFDF" transform="translate(308,203)"/>
<path d="M0 0 C3.94006498 0.72297434 7.17851333 1.85496409 10.8125 3.5625 C11.78832031 4.01753906 12.76414063 4.47257812 13.76953125 4.94140625 C14.50558594 5.29074219 15.24164063 5.64007813 16 6 C14.68592419 9.53530301 13.12648647 12.59968386 11.09375 15.7734375 C10.23160889 17.12477783 10.23160889 17.12477783 9.35205078 18.50341797 C8.74087402 19.45104004 8.12969727 20.39866211 7.5 21.375 C6.87722168 22.34711426 6.25444336 23.31922852 5.61279297 24.32080078 C0.50182289 32.27659323 -4.70424181 40.16618258 -10 48 C-11.55690183 44.88619634 -10.31278721 42.61739575 -9.453125 39.296875 C-9.28125671 38.62263489 -9.10938843 37.94839478 -8.93231201 37.25372314 C-8.37817102 35.08405042 -7.81462515 32.9169658 -7.25 30.75 C-6.52226503 27.93325276 -5.7987733 25.11544331 -5.078125 22.296875 C-4.81267883 21.26113342 -4.81267883 21.26113342 -4.54187012 20.20446777 C-2.84245903 13.50775911 -1.38683888 6.76852195 0 0 Z " fill="#C4C4C4" transform="translate(218,310)"/>
<path d="M0 0 C0 3.76120097 -1.1245288 5.06182092 -3.25 8.125 C-3.85328125 9.01445312 -4.4565625 9.90390625 -5.078125 10.8203125 C-7.09872963 13.11197385 -8.02045283 13.67040407 -11 14 C-9.42219077 10.28954753 -7.09296752 7.70093616 -4.375 4.75 C-3.55773437 3.85796875 -2.74046875 2.9659375 -1.8984375 2.046875 C-1.27195312 1.37140625 -0.64546875 0.6959375 0 0 Z " fill="#ABABAB" transform="translate(308,203)"/>
<path d="M0 0 C0.66 0.33 1.32 0.66 2 1 C-2.39453125 5.00390625 -2.39453125 5.00390625 -4 6 C-4.99 5.67 -5.98 5.34 -7 5 C-7 4.34 -7 3.68 -7 3 C-4.69631264 1.93347808 -2.35981813 0.93578995 0 0 Z " fill="#BFBFBF" transform="translate(316,152)"/>
</svg>
