<?xml version="1.0" encoding="UTF-8"?>
<svg version="1.1" xmlns="http://www.w3.org/2000/svg" width="512" height="512">
<path d="M0 0 C1.12276085 -0.02321068 1.12276085 -0.02321068 2.26820374 -0.04689026 C3.07458786 -0.03317383 3.88097198 -0.0194574 4.71179199 -0.00532532 C5.57255844 -0.01423294 6.43332489 -0.02314056 7.32017517 -0.03231812 C10.15917266 -0.05358993 12.99589742 -0.03130104 15.83483887 -0.00654602 C17.81111889 -0.00804861 19.78739832 -0.01147904 21.76367188 -0.01675415 C25.90309327 -0.02108505 30.04173549 -0.00425165 34.18103027 0.02787781 C39.48433032 0.06765892 44.78616931 0.05835897 50.08951569 0.03364277 C54.16969762 0.01945363 58.24953883 0.02955124 62.32969666 0.04715538 C64.28489874 0.0530015 66.24013575 0.05170827 68.19532776 0.04313087 C70.92946734 0.03513072 73.66147308 0.05940109 76.39538574 0.09233093 C77.60496193 0.07950577 77.60496193 0.07950577 78.838974 0.06642151 C82.93707048 0.15152685 84.80721127 0.55529826 88.03222656 3.17160034 C90.50636435 6.33388058 91.16878676 7.96564385 91.41296387 11.87626648 C92.67402518 29.3443009 95.88665811 45.1159213 104.05358887 60.75517273 C104.71101074 62.11448914 104.71101074 62.11448914 105.38171387 63.50126648 C118.17314858 88.82683693 142.12294274 107.24070672 168.55358887 116.63017273 C179.09171063 119.87095249 189.7382381 121.67148506 200.74108887 122.19267273 C206.10497965 122.48861153 209.12470522 123.05079672 213.05358887 126.75517273 C214.66850217 129.98499934 214.22795406 133.52288304 214.24645996 137.07279968 C214.25463745 137.93312805 214.26281494 138.79345642 214.27124023 139.67985535 C214.29610597 142.5343811 214.31261286 145.3888571 214.32702637 148.24345398 C214.33235004 149.21727713 214.33767372 150.19110027 214.34315872 151.19443321 C214.36989487 156.3483794 214.38926867 161.50230132 214.40368652 166.65629578 C214.42033957 171.98303549 214.46512158 177.30915713 214.51605797 182.63566303 C214.54969306 186.72860434 214.56125983 190.82139824 214.5669136 194.91446495 C214.57363595 196.87809666 214.58888347 198.84171833 214.61280441 200.80521584 C214.64438016 203.55377896 214.64450436 206.30066574 214.63708496 209.04936218 C214.6534903 209.86045944 214.66989563 210.6715567 214.6867981 211.50723267 C214.63982226 215.75865953 214.4120298 217.30200916 211.67697144 220.75984192 C208.72332138 223.00637242 207.41827357 223.38701606 203.75671387 223.38407898 C202.2138269 223.39145081 202.2138269 223.39145081 200.63977051 223.39897156 C198.9883606 223.35872864 198.9883606 223.35872864 197.30358887 223.31767273 C196.15559814 223.30180115 195.00760742 223.28592957 193.8248291 223.26957703 C158.97889172 222.36693126 126.63263835 211.17783958 96.31384277 194.62675476 C95.32751862 194.0884201 94.34119446 193.55008545 93.32498169 192.99543762 C92.57542206 192.58615021 91.82586243 192.17686279 91.05358887 191.75517273 C91.05635425 192.6171033 91.05911963 193.47903387 91.0619688 194.36708355 C91.12848884 215.42937117 91.17799523 236.49164045 91.20902538 257.55401134 C91.22443372 267.74000023 91.2454065 277.92591859 91.27990723 288.11186218 C91.30999577 296.99946832 91.32920759 305.88702334 91.33585435 314.77467901 C91.33973398 319.47196338 91.34872257 324.16910163 91.37077904 328.86633873 C91.57547829 374.22348553 91.57547829 374.22348553 85.17858887 394.81767273 C84.91956787 395.68126404 84.66054688 396.54485535 84.39367676 397.43461609 C78.52785868 416.58071817 78.52785868 416.58071817 72.05358887 420.75517273 C69.87780762 420.90751648 69.87780762 420.90751648 67.74108887 420.69267273 C65.35536561 420.70759231 65.35536561 420.70759231 63.05358887 421.75517273 C61.25291579 423.86428084 59.85151433 425.72876085 58.42858887 428.06767273 C58.07369385 428.64960388 57.71879883 429.23153503 57.35314941 429.83110046 C55.94958155 432.34344072 54.99253629 434.13727854 55.28015137 437.04814148 C55.84547231 438.29584476 56.44099581 439.52998662 57.05358887 440.75517273 C57.46069479 444.98907435 57.30934852 447.27105624 55.30358887 451.06767273 C52.13888832 454.84773171 52.13888832 454.84773171 49.05358887 455.75517273 C46.1571445 455.9362005 43.81990866 456.02519486 41.06921387 455.05595398 C38.99488252 454.50620071 38.99488252 454.50620071 37.41296387 455.94267273 C36.88187012 456.54079773 36.35077637 457.13892273 35.80358887 457.75517273 C32.12236198 461.7238707 28.16581042 465.24109249 24.05358887 468.75517273 C24.38358887 469.41517273 24.71358887 470.07517273 25.05358887 470.75517273 C25.4696318 478.2439455 25.4696318 478.2439455 23.05358887 481.75517273 C20.7654249 483.46465265 18.54788855 484.96758466 16.11608887 486.44267273 C15.40879639 486.87547546 14.70150391 487.3082782 13.97277832 487.75419617 C-0.17434544 496.22427179 -14.99080311 502.60300106 -30.94641113 506.75517273 C-31.72629395 506.96545105 -32.50617676 507.17572937 -33.30969238 507.39237976 C-58.01166481 513.77507026 -88.37874106 513.59742014 -112.94641113 506.75517273 C-113.81427246 506.51379578 -114.68213379 506.27241882 -115.57629395 506.02372742 C-138.83253968 499.31275995 -159.53284643 488.46725323 -177.94641113 472.75517273 C-178.7417627 472.0822821 -179.53711426 471.40939148 -180.35656738 470.71611023 C-192.49877677 460.13256798 -202.36892383 448.36242515 -210.94641113 434.75517273 C-211.55162598 433.79852722 -211.55162598 433.79852722 -212.16906738 432.82255554 C-233.94474384 397.80539926 -240.34426419 353.44194098 -231.25891113 313.38017273 C-225.56583445 290.14852899 -215.75482093 268.59998854 -200.94641113 249.75517273 C-200.25805176 248.82575867 -199.56969238 247.8963446 -198.86047363 246.93876648 C-195.66159075 242.8990705 -193.44442934 240.34075268 -188.19641113 239.63017273 C-185.81035084 239.55292617 -184.21966569 239.64696393 -181.99328613 240.52861023 C-179.72579101 241.01170745 -179.72579101 241.01170745 -177.50891113 238.98954773 C-176.66328613 238.16970398 -175.81766113 237.34986023 -174.94641113 236.50517273 C-170.05842121 231.82581652 -170.05842121 231.82581652 -167.63000488 230.29423523 C-165.66712388 228.84918388 -165.66712388 228.84918388 -165.73156738 226.23173523 C-165.82309082 225.2907196 -165.91461426 224.34970398 -166.00891113 223.38017273 C-166.19666063 218.1231867 -166.19666063 218.1231867 -163.82141113 214.63017273 C-160.63504815 212.55210991 -158.74110746 211.8342289 -154.94641113 211.75517273 C-152.38308781 212.54858233 -150.32115669 213.52477432 -148.0411377 214.92655945 C-146.00122735 215.97286878 -146.00122735 215.97286878 -144.02355957 215.24784851 C-143.37419434 214.90221863 -142.7248291 214.55658875 -142.05578613 214.20048523 C-141.34680176 213.83310242 -140.63781738 213.4657196 -139.90734863 213.08720398 C-139.17773926 212.68888367 -138.44812988 212.29056335 -137.69641113 211.88017273 C-136.95133301 211.48958679 -136.20625488 211.09900085 -135.43859863 210.69657898 C-133.60033424 209.7303118 -131.77233202 208.74456707 -129.94641113 207.75517273 C-130.00828613 206.86829773 -130.07016113 205.98142273 -130.13391113 205.06767273 C-129.92157179 201.3163444 -129.26383026 199.68110453 -126.94641113 196.75517273 C-114.60061651 189.4503831 -95.51888057 187.60849747 -81.42297363 187.58720398 C-80.63675629 187.58387558 -79.85053894 187.58054718 -79.04049683 187.57711792 C-77.38837259 187.57208889 -75.73623833 187.56970834 -74.08410645 187.56987 C-71.58490941 187.56768453 -69.08615532 187.54948863 -66.58703613 187.53056335 C-45.30632019 187.45282243 -45.30632019 187.45282243 -40.38391113 192.25517273 C-37.88608664 196.59921533 -37.79227565 199.85786058 -37.78527832 204.79740906 C-37.78031342 205.62847672 -37.77534851 206.45954437 -37.77023315 207.3157959 C-37.75559452 210.07294027 -37.74880636 212.83002709 -37.74328613 215.58720398 C-37.73753564 217.50050865 -37.7317779 219.41381329 -37.72601318 221.32711792 C-37.71549805 225.34293385 -37.70965888 229.35872973 -37.70617676 233.3745575 C-37.70069399 238.51952676 -37.67667275 243.66423111 -37.6482048 248.80911732 C-37.62957666 252.76308973 -37.62437271 256.71699839 -37.62284088 260.67101097 C-37.61981372 262.56762323 -37.61178305 264.46423436 -37.5986557 266.3608036 C-37.58159314 269.01565788 -37.58347602 271.66986588 -37.58996582 274.32475281 C-37.58075104 275.10779785 -37.57153625 275.8908429 -37.56204224 276.69761658 C-37.60505534 282.31720491 -38.84649178 285.4997038 -42.63391113 289.56767273 C-48.10732898 292.37834676 -54.86773231 290.48790733 -60.57141113 289.19267273 C-75.98485583 286.04651985 -90.72307156 289.1442872 -104.31359863 296.98954773 C-108.97309882 300.1143164 -112.98038659 303.80316241 -116.94641113 307.75517273 C-117.51102051 308.29657898 -118.07562988 308.83798523 -118.65734863 309.39579773 C-128.67257851 319.88794332 -132.91351083 335.00346358 -133.38391113 349.13017273 C-132.98105797 365.44572593 -126.84312999 380.61708965 -115.51281738 392.40751648 C-100.77471147 405.88940636 -84.7487628 410.53800584 -65.13928223 409.88261414 C-51.21790937 409.07355639 -36.75286464 401.47635273 -26.94641113 391.75517273 C-12.20694169 374.44214513 -9.78047365 356.50338416 -9.82183838 334.48910522 C-9.82085014 333.07320568 -9.81941138 331.65730638 -9.8175652 330.24140769 C-9.81452487 327.18168839 -9.81459962 324.12199085 -9.81712151 321.06227112 C-9.8212057 316.08256463 -9.81839985 311.10287496 -9.81477356 306.12316895 C-9.81069321 299.82972959 -9.80844416 293.53629401 -9.80835757 287.24285332 C-9.80815438 274.88405297 -9.79566986 262.52529162 -9.77874756 250.16650391 C-9.77614195 248.21849289 -9.77354314 246.27048187 -9.77095103 244.32247084 C-9.76701297 241.37101331 -9.76306638 238.41955579 -9.75908981 235.46809831 C-9.74416285 224.35765524 -9.73052684 213.247211 -9.71838379 202.13676453 C-9.71727023 201.12176865 -9.71615667 200.10677278 -9.71500936 199.06101946 C-9.69740931 182.58905719 -9.69456726 166.11711947 -9.6962342 149.64514937 C-9.69751246 132.72392426 -9.67980214 115.80279063 -9.64521623 98.88160068 C-9.62455629 88.44804546 -9.61923623 78.01470922 -9.63354453 67.58114234 C-9.64199273 60.43784839 -9.63230075 53.29472512 -9.60823503 46.15146723 C-9.59490855 42.02909276 -9.58977173 37.90712753 -9.60635567 33.78475571 C-9.62136748 30.01158833 -9.6134297 26.23919317 -9.58718613 22.46609364 C-9.57918718 20.45392038 -9.59583012 18.44169584 -9.6133287 16.42958277 C-9.50871122 6.66716524 -9.50871122 6.66716524 -6.65353012 2.95042419 C-3.02071621 0.00451008 -3.02071621 0.00451008 0 0 Z " fill="#07FEF8" transform="translate(265.9464111328125,1.2448272705078125)"/>
<path d="M0 0 C1.12276085 -0.02321068 1.12276085 -0.02321068 2.26820374 -0.04689026 C3.07458786 -0.03317383 3.88097198 -0.0194574 4.71179199 -0.00532532 C5.57255844 -0.01423294 6.43332489 -0.02314056 7.32017517 -0.03231812 C10.15917266 -0.05358993 12.99589742 -0.03130104 15.83483887 -0.00654602 C17.81111889 -0.00804861 19.78739832 -0.01147904 21.76367188 -0.01675415 C25.90309327 -0.02108505 30.04173549 -0.00425165 34.18103027 0.02787781 C39.48433032 0.06765892 44.78616931 0.05835897 50.08951569 0.03364277 C54.16969762 0.01945363 58.24953883 0.02955124 62.32969666 0.04715538 C64.28489874 0.0530015 66.24013575 0.05170827 68.19532776 0.04313087 C70.92946734 0.03513072 73.66147308 0.05940109 76.39538574 0.09233093 C77.60496193 0.07950577 77.60496193 0.07950577 78.838974 0.06642151 C82.93707048 0.15152685 84.80721127 0.55529826 88.03222656 3.17160034 C90.50636435 6.33388058 91.16878676 7.96564385 91.41296387 11.87626648 C92.67402518 29.3443009 95.88665811 45.1159213 104.05358887 60.75517273 C104.71101074 62.11448914 104.71101074 62.11448914 105.38171387 63.50126648 C118.17314858 88.82683693 142.12294274 107.24070672 168.55358887 116.63017273 C179.09171063 119.87095249 189.7382381 121.67148506 200.74108887 122.19267273 C206.10497965 122.48861153 209.12470522 123.05079672 213.05358887 126.75517273 C214.66850217 129.98499934 214.22795406 133.52288304 214.24645996 137.07279968 C214.25463745 137.93312805 214.26281494 138.79345642 214.27124023 139.67985535 C214.29610597 142.5343811 214.31261286 145.3888571 214.32702637 148.24345398 C214.33235004 149.21727713 214.33767372 150.19110027 214.34315872 151.19443321 C214.36989487 156.3483794 214.38926867 161.50230132 214.40368652 166.65629578 C214.42033957 171.98303549 214.46512158 177.30915713 214.51605797 182.63566303 C214.54969306 186.72860434 214.56125983 190.82139824 214.5669136 194.91446495 C214.57363595 196.87809666 214.58888347 198.84171833 214.61280441 200.80521584 C214.64438016 203.55377896 214.64450436 206.30066574 214.63708496 209.04936218 C214.6534903 209.86045944 214.66989563 210.6715567 214.6867981 211.50723267 C214.63982226 215.75865953 214.4120298 217.30200916 211.67697144 220.75984192 C208.72332138 223.00637242 207.41827357 223.38701606 203.75671387 223.38407898 C202.2138269 223.39145081 202.2138269 223.39145081 200.63977051 223.39897156 C198.9883606 223.35872864 198.9883606 223.35872864 197.30358887 223.31767273 C196.15559814 223.30180115 195.00760742 223.28592957 193.8248291 223.26957703 C158.97889172 222.36693126 126.63263835 211.17783958 96.31384277 194.62675476 C95.32751862 194.0884201 94.34119446 193.55008545 93.32498169 192.99543762 C92.57542206 192.58615021 91.82586243 192.17686279 91.05358887 191.75517273 C91.05635425 192.6171033 91.05911963 193.47903387 91.0619688 194.36708355 C91.12848884 215.42937117 91.17799523 236.49164045 91.20902538 257.55401134 C91.22443372 267.74000023 91.2454065 277.92591859 91.27990723 288.11186218 C91.30999577 296.99946832 91.32920759 305.88702334 91.33585435 314.77467901 C91.33973398 319.47196338 91.34872257 324.16910163 91.37077904 328.86633873 C91.57547829 374.22348553 91.57547829 374.22348553 85.17858887 394.81767273 C84.91956787 395.68126404 84.66054688 396.54485535 84.39367676 397.43461609 C78.52728194 416.58260065 78.52728194 416.58260065 72.05358887 420.75517273 C69.59655762 421.14579773 69.59655762 421.14579773 67.24108887 421.00517273 C66.45089355 420.96907898 65.66069824 420.93298523 64.84655762 420.89579773 C64.25487793 420.84939148 63.66319824 420.80298523 63.05358887 420.75517273 C63.05358887 420.09517273 63.05358887 419.43517273 63.05358887 418.75517273 C62.41421387 418.46642273 61.77483887 418.17767273 61.11608887 417.88017273 C59.05358887 416.75517273 59.05358887 416.75517273 58.05358887 414.75517273 C57.29345538 408.14105798 58.69528849 403.17154757 61.36608887 397.19267273 C64.88623851 388.78362223 66.76373527 380.77422595 68.05358887 371.75517273 C68.22649319 370.69771882 68.39939751 369.64026491 68.57754135 368.55076694 C69.08495569 364.5050806 69.19149854 360.5433247 69.17816162 356.47488403 C69.17957177 355.66867664 69.18098192 354.86246925 69.1824348 354.03183132 C69.18606887 351.34511152 69.18275951 348.65844513 69.17956543 345.97172546 C69.18096113 344.03956562 69.18286105 342.10740609 69.18522644 340.17524719 C69.18971426 336.02178133 69.19157932 331.86832532 69.19168854 327.7148571 C69.19283073 321.14705789 69.20568133 314.57931465 69.22125244 308.01153564 C69.22382529 306.90227846 69.22639815 305.79302128 69.22904897 304.65015024 C69.23431509 302.38245832 69.23960058 300.11476645 69.24490499 297.84707463 C69.28000443 282.56163025 69.30656256 267.27625649 69.30407715 251.99076843 C69.30248953 241.67192904 69.3184973 231.35328141 69.35478377 221.03450352 C69.37325344 215.57596812 69.3825772 210.11775298 69.37030792 204.65919304 C69.35888543 199.52819492 69.37054177 194.39777116 69.3999424 189.26684952 C69.40659069 187.38429491 69.40470299 185.50168785 69.39364433 183.61915398 C69.37979466 181.0482402 69.39663996 178.47927168 69.42108154 175.90847778 C69.40972616 175.16421286 69.39837079 174.41994793 69.3866713 173.65312952 C69.49216452 167.94437145 71.14300039 165.61652869 75.05358887 161.75517273 C77.87160148 160.34616642 79.92579014 160.51368827 83.05358887 160.75517273 C85.55358887 161.97001648 85.55358887 161.97001648 88.05358887 163.69267273 C89.00749512 164.33204773 89.96140137 164.97142273 90.94421387 165.63017273 C91.97030762 166.33142273 92.99640137 167.03267273 94.05358887 167.75517273 C125.84719788 188.85045833 155.84053873 197.09398012 194.05358887 202.75517273 C194.05358887 182.95517273 194.05358887 163.15517273 194.05358887 142.75517273 C191.41358887 142.75517273 188.77358887 142.75517273 186.05358887 142.75517273 C151.6037686 138.34588252 120.28012366 119.62958518 98.4407959 92.77177429 C82.34640219 71.67035166 73.08148038 47.11776235 71.05358887 20.75517273 C51.25358887 20.75517273 31.45358887 20.75517273 11.05358887 20.75517273 C11.05803009 24.93573837 11.06247131 29.11630402 11.06704712 33.42355347 C11.10686777 71.7838865 11.13671401 110.14421707 11.15571953 148.50456626 C11.15822086 153.53496052 11.16080951 158.56535472 11.16345215 163.5957489 C11.16397677 164.59718543 11.16450139 165.59862196 11.16504191 166.63040505 C11.17373815 182.83321208 11.18950382 199.03600487 11.20789446 215.23880347 C11.22661524 231.87151788 11.2377102 248.50422485 11.24176586 265.13694936 C11.24450639 275.39542604 11.25315387 285.65386249 11.2694218 295.91232679 C11.28001556 302.95245719 11.28318408 309.99256688 11.28059162 317.03270467 C11.27931405 321.09095174 11.28123544 325.14912863 11.29199982 329.20736313 C11.30180274 332.93051454 11.3021786 336.65354925 11.29538666 340.37670628 C11.29415456 342.34546107 11.30271698 344.3142147 11.31175148 346.28294915 C11.27433186 357.52458023 10.19699388 368.34657284 5.92858887 378.81767273 C5.62219482 379.58152283 5.31580078 380.34537292 5.00012207 381.13237 C-3.6411375 401.86746213 -20.18040473 417.09652713 -40.63342285 425.86210632 C-62.04313842 434.12859772 -83.08262391 433.71894852 -104.32141113 425.44267273 C-114.53614393 420.85162479 -122.98723971 414.58513683 -130.94641113 406.75517273 C-131.71984863 405.99462585 -132.49328613 405.23407898 -133.29016113 404.45048523 C-150.64144745 386.32671014 -154.4956754 364.77823462 -154.02648926 340.52812195 C-153.44198892 320.28801571 -142.23387951 301.57117515 -127.94641113 287.75517273 C-112.07205447 273.9724442 -93.22379973 266.53243432 -72.25891113 266.63017273 C-71.41779785 266.62630554 -70.57668457 266.62243835 -69.71008301 266.61845398 C-68.49095215 266.62038757 -68.49095215 266.62038757 -67.24719238 266.62236023 C-66.51669678 266.62348816 -65.78620117 266.62461609 -65.03356934 266.6257782 C-62.94641113 266.75517273 -62.94641113 266.75517273 -58.94641113 267.75517273 C-58.94641113 247.95517273 -58.94641113 228.15517273 -58.94641113 207.75517273 C-86.21374675 208.7503657 -86.21374675 208.7503657 -112.62219238 214.16923523 C-116.45375037 215.13517422 -120.06592615 215.70581363 -123.94641113 214.75517273 C-127.45672173 211.75678243 -128.70313692 209.62183713 -129.94641113 205.19267273 C-129.94641113 201.23417572 -129.26817236 199.89488485 -126.94641113 196.75517273 C-114.60061651 189.4503831 -95.51888057 187.60849747 -81.42297363 187.58720398 C-80.63675629 187.58387558 -79.85053894 187.58054718 -79.04049683 187.57711792 C-77.38837259 187.57208889 -75.73623833 187.56970834 -74.08410645 187.56987 C-71.58490941 187.56768453 -69.08615532 187.54948863 -66.58703613 187.53056335 C-45.30632019 187.45282243 -45.30632019 187.45282243 -40.38391113 192.25517273 C-37.88608664 196.59921533 -37.79227565 199.85786058 -37.78527832 204.79740906 C-37.77783096 206.04401054 -37.77783096 206.04401054 -37.77023315 207.3157959 C-37.75559452 210.07294027 -37.74880636 212.83002709 -37.74328613 215.58720398 C-37.73753564 217.50050865 -37.7317779 219.41381329 -37.72601318 221.32711792 C-37.71549805 225.34293385 -37.70965888 229.35872973 -37.70617676 233.3745575 C-37.70069399 238.51952676 -37.67667275 243.66423111 -37.6482048 248.80911732 C-37.62957666 252.76308973 -37.62437271 256.71699839 -37.62284088 260.67101097 C-37.61981372 262.56762323 -37.61178305 264.46423436 -37.5986557 266.3608036 C-37.58159314 269.01565788 -37.58347602 271.66986588 -37.58996582 274.32475281 C-37.58075104 275.10779785 -37.57153625 275.8908429 -37.56204224 276.69761658 C-37.60505534 282.31720491 -38.84649178 285.4997038 -42.63391113 289.56767273 C-48.10732898 292.37834676 -54.86773231 290.48790733 -60.57141113 289.19267273 C-75.98485583 286.04651985 -90.72307156 289.1442872 -104.31359863 296.98954773 C-108.97309882 300.1143164 -112.98038659 303.80316241 -116.94641113 307.75517273 C-117.51102051 308.29657898 -118.07562988 308.83798523 -118.65734863 309.39579773 C-128.67257851 319.88794332 -132.91351083 335.00346358 -133.38391113 349.13017273 C-132.98105797 365.44572593 -126.84312999 380.61708965 -115.51281738 392.40751648 C-100.77471147 405.88940636 -84.7487628 410.53800584 -65.13928223 409.88261414 C-51.21790937 409.07355639 -36.75286464 401.47635273 -26.94641113 391.75517273 C-12.20694169 374.44214513 -9.78047365 356.50338416 -9.82183838 334.48910522 C-9.82085014 333.07320568 -9.81941138 331.65730638 -9.8175652 330.24140769 C-9.81452487 327.18168839 -9.81459962 324.12199085 -9.81712151 321.06227112 C-9.8212057 316.08256463 -9.81839985 311.10287496 -9.81477356 306.12316895 C-9.81069321 299.82972959 -9.80844416 293.53629401 -9.80835757 287.24285332 C-9.80815438 274.88405297 -9.79566986 262.52529162 -9.77874756 250.16650391 C-9.77614195 248.21849289 -9.77354314 246.27048187 -9.77095103 244.32247084 C-9.76701297 241.37101331 -9.76306638 238.41955579 -9.75908981 235.46809831 C-9.74416285 224.35765524 -9.73052684 213.247211 -9.71838379 202.13676453 C-9.71727023 201.12176865 -9.71615667 200.10677278 -9.71500936 199.06101946 C-9.69740931 182.58905719 -9.69456726 166.11711947 -9.6962342 149.64514937 C-9.69751246 132.72392426 -9.67980214 115.80279063 -9.64521623 98.88160068 C-9.62455629 88.44804546 -9.61923623 78.01470922 -9.63354453 67.58114234 C-9.64199273 60.43784839 -9.63230075 53.29472512 -9.60823503 46.15146723 C-9.59490855 42.02909276 -9.58977173 37.90712753 -9.60635567 33.78475571 C-9.62136748 30.01158833 -9.6134297 26.23919317 -9.58718613 22.46609364 C-9.57918718 20.45392038 -9.59583012 18.44169584 -9.6133287 16.42958277 C-9.50871122 6.66716524 -9.50871122 6.66716524 -6.65353012 2.95042419 C-3.02071621 0.00451008 -3.02071621 0.00451008 0 0 Z " fill="#000101" transform="translate(265.9464111328125,1.2448272705078125)"/>
<path d="M0 0 C3.34213802 2.1268151 5.89264987 4.12427456 7 8 C6.76119506 14.46365371 4.43462334 17.65576059 0.5 22.4375 C-23.19967609 52.67708671 -33.00959614 90.19447792 -28.61328125 128.35693359 C-22.8409875 166.02115033 -3.54302759 199.51866047 27 222.375 C44.82898635 235.4059308 64.2900616 243.91874442 86 248 C87.19625 248.22558594 88.3925 248.45117188 89.625 248.68359375 C125.24646498 254.34709421 163.13261395 246.31723474 192.5703125 225.25 C195.6085908 223.68689862 197.62358252 223.64961705 201 224 C204.6578218 226.03993908 206.66946174 227.50419262 209 231 C209.31136557 235.2812766 209.44897756 238.42435783 207 242 C204.71183603 243.70947992 202.49429969 245.21241193 200.0625 246.6875 C199.35520752 247.12030273 198.64791504 247.55310547 197.91918945 247.99902344 C183.77206569 256.46909906 168.95560802 262.84782833 153 267 C152.22011719 267.21027832 151.44023437 267.42055664 150.63671875 267.63720703 C125.93474632 274.01989753 95.56767007 273.84224741 71 267 C70.13213867 266.75862305 69.26427734 266.51724609 68.37011719 266.26855469 C45.11387145 259.55758723 24.4135647 248.7120805 6 233 C5.20464844 232.32710937 4.40929687 231.65421875 3.58984375 230.9609375 C-8.55236563 220.37739525 -18.42251269 208.60725242 -27 195 C-27.60521484 194.04335449 -27.60521484 194.04335449 -28.22265625 193.06738281 C-49.9983327 158.05022653 -56.39785306 113.68676825 -47.3125 73.625 C-40.92136993 47.54482139 -29.03478279 19.6466916 -9 1 C-5.66660588 -0.11113137 -3.49519344 -0.34951934 0 0 Z " fill="#000101" transform="translate(82,241)"/>
<path d="M0 0 C3.20267069 0.82136087 5.448146 2.4168886 7.96484375 4.50390625 C9.51961065 7.61344004 9.25128812 10.06657386 8.96484375 13.50390625 C7.32107845 16.61531913 5.93447489 18.79284342 3.08984375 20.87890625 C-0.49844398 21.93428499 -3.65281014 21.93835789 -7.22265625 20.81640625 C-10.81352119 18.21612474 -11.88073067 15.43045973 -12.59765625 11.12890625 C-11.94234694 6.90580183 -10.79412393 4.88475919 -7.87890625 1.83203125 C-5.21381471 -0.08773808 -3.22522161 -0.29095089 0 0 Z " fill="#000202" transform="translate(314.03515625,435.49609375)"/>
<path d="M0 0 C2.51142328 3.09647075 2.49072176 6.82203721 2.375 10.6953125 C1.15458841 13.71422538 0.17619643 15.11513577 -2.4375 17.0078125 C-5.40480823 17.94039509 -7.52184156 18.06769151 -10.625 17.6953125 C-16.20394737 14.53741776 -16.20394737 14.53741776 -17.625 11.6953125 C-18.28743064 6.87849542 -18.35898074 3.70191466 -15.4375 -0.3046875 C-10.18630714 -4.03886909 -5.23645308 -4.20426762 0 0 Z " fill="#000303" transform="translate(117.625,216.3046875)"/>
</svg>
