<?xml version="1.0" encoding="UTF-8"?>
<svg version="1.1" xmlns="http://www.w3.org/2000/svg" width="512" height="512">
<path d="M0 0 C1.79212096 -0.00346232 3.58423979 -0.00823072 5.37635422 -0.01418173 C10.27022644 -0.02664248 15.16392193 -0.02054387 20.05779457 -0.01122308 C25.3475829 -0.00441266 30.63734164 -0.01492368 35.92712402 -0.02316284 C46.27768513 -0.03648113 56.62818087 -0.03363092 66.97874451 -0.02492492 C75.39318375 -0.01814129 83.80760471 -0.01723459 92.2220459 -0.02049637 C94.02053392 -0.02118592 94.02053392 -0.02118592 95.85535502 -0.0218894 C98.29131858 -0.0228486 100.72728213 -0.02382124 103.16324568 -0.02480717 C125.98876402 -0.03335549 148.81424618 -0.02353568 171.63975859 -0.00740607 C191.21200561 0.00599659 210.78419925 0.00366834 230.35644531 -0.01016235 C253.10201013 -0.02622802 275.84754325 -0.03253157 298.59311295 -0.02332556 C301.01996103 -0.02236995 303.44680913 -0.02142683 305.87365723 -0.02049637 C307.06761698 -0.02003354 308.26157674 -0.01957072 309.4917171 -0.01909386 C317.8930454 -0.01650694 326.29435354 -0.02086856 334.69567871 -0.02793503 C344.93837628 -0.03636117 355.18100491 -0.03404642 365.42369461 -0.0180928 C370.64657128 -0.01022513 375.86933312 -0.00709284 381.09220886 -0.01704025 C385.87887785 -0.02601879 390.6653262 -0.02100245 395.45197535 -0.0051076 C397.1779148 -0.00177314 398.90387313 -0.00342358 400.62980032 -0.01073496 C416.57260163 -0.07305944 430.44205367 1.32110468 442.59082031 12.77938843 C452.30707387 23.08210427 455.35625972 32.75877076 455.3152771 46.70266724 C455.31980821 47.83611454 455.32433933 48.96956185 455.32900774 50.13735604 C455.3416585 53.93181204 455.34003091 57.72612463 455.33837891 61.52059937 C455.34327781 64.2426711 455.35111273 66.96473281 455.35873413 69.6867981 C455.37532335 76.3116681 455.38084274 82.93650252 455.38195889 89.56139156 C455.38291039 94.94872144 455.3870258 100.33603961 455.39336014 105.72336578 C455.41096724 121.01012529 455.42019989 136.29685676 455.41869919 151.58362648 C455.41857932 152.81893196 455.41857932 152.81893196 455.41845703 154.07919312 C455.41837527 154.9037401 455.41829351 155.72828708 455.41820927 156.57782033 C455.41739662 169.93630275 455.43653026 183.29467236 455.46473376 196.65312216 C455.49348958 210.38192557 455.50727256 224.11067401 455.50554621 237.8395083 C455.50488322 245.54219088 455.51033558 253.24475519 455.53190231 260.94741058 C455.55014972 267.5064029 455.5544324 274.06522335 455.54088347 280.62423012 C455.53437136 283.96752656 455.53636266 287.31022573 455.55158997 290.65353394 C455.56706153 294.2864148 455.55772024 297.91843722 455.54232788 301.55130005 C455.55261501 302.59616758 455.56290213 303.64103511 455.57350099 304.7175653 C455.46314864 316.54717865 451.19385571 327.07793207 442.90722656 335.57626343 C429.60919087 347.8339766 415.42306282 348.83530414 398.09570312 348.76190186 C396.30358216 348.76536418 394.51146333 348.77013258 392.71934891 348.77608359 C387.82547669 348.78854433 382.9317812 348.78244573 378.03790855 348.77312493 C372.74812022 348.76631451 367.45836148 348.77682553 362.1685791 348.7850647 C351.81801799 348.79838299 341.46752226 348.79553277 331.11695862 348.78682677 C322.70251938 348.78004314 314.28809842 348.77913645 305.87365723 348.78239822 C304.07516921 348.78308777 304.07516921 348.78308777 302.2403481 348.78379125 C299.80438454 348.78475046 297.36842099 348.7857231 294.93245745 348.78670903 C272.1069391 348.79525734 249.28145695 348.78543754 226.45594454 348.76930793 C206.88369751 348.75590526 187.31150387 348.75823351 167.73925781 348.77206421 C144.993693 348.78812987 122.24815987 348.79443342 99.50259018 348.78522742 C97.07574209 348.7842718 94.648894 348.78332869 92.2220459 348.78239822 C91.02808614 348.7819354 89.83412638 348.78147257 88.60398602 348.78099572 C80.20265773 348.77840879 71.80134959 348.78277042 63.40002441 348.78983688 C53.15732684 348.79826303 42.91469822 348.79594828 32.67200851 348.77999465 C27.44913184 348.77212698 22.22637 348.7689947 17.00349426 348.77894211 C12.21682528 348.78792064 7.43037692 348.78290431 2.64372778 348.76700945 C0.91778832 348.76367499 -0.80817 348.76532543 -2.53409719 348.77263682 C-18.4768985 348.83496129 -32.34635055 347.44079717 -44.49511719 335.98251343 C-54.21137075 325.67979758 -57.26055659 316.0031311 -57.21957397 302.05923462 C-57.22410509 300.92578731 -57.2286362 299.79234001 -57.23330462 298.62454581 C-57.24595537 294.83008982 -57.24432778 291.03577723 -57.24267578 287.24130249 C-57.24757468 284.51923075 -57.25540961 281.79716905 -57.26303101 279.07510376 C-57.27962023 272.45023375 -57.28513962 265.82539934 -57.28625576 259.20051029 C-57.28720727 253.81318042 -57.29132268 248.42586225 -57.29765701 243.03853607 C-57.31526412 227.75177656 -57.32449677 212.4650451 -57.32299607 197.17827538 C-57.32291615 196.35473839 -57.32283624 195.5312014 -57.32275391 194.68270874 C-57.32267214 193.85816176 -57.32259038 193.03361478 -57.32250614 192.18408152 C-57.3216935 178.8255991 -57.34082713 165.4672295 -57.36903064 152.1087797 C-57.39778645 138.37997628 -57.41156944 124.65122784 -57.40984309 110.92239356 C-57.40918009 103.21971098 -57.41463246 95.51714666 -57.43619919 87.81449127 C-57.45444659 81.25549895 -57.45872928 74.6966785 -57.44518034 68.13767174 C-57.43866823 64.7943753 -57.44065954 61.45167613 -57.45588684 58.10836792 C-57.4713584 54.47548705 -57.46201712 50.84346464 -57.44662476 47.21060181 C-57.45691188 46.16573427 -57.46719901 45.12086674 -57.47779787 44.04433656 C-57.36744552 32.21472321 -53.09815259 21.68396978 -44.81152344 13.18563843 C-31.51348775 0.92792526 -17.32735969 -0.07340228 0 0 Z " fill="#EC1E33" transform="translate(56.9521484375,81.61904907226563)"/>
<path d="M0 0 C1.29016391 -0.00128164 1.29016391 -0.00128164 2.60639173 -0.00258917 C5.49919685 -0.00424117 8.39194445 0.00127287 11.28474426 0.00672913 C13.35412596 0.00701108 15.42350776 0.0068531 17.4928894 0.00628662 C23.12064017 0.00599898 28.74836974 0.01189032 34.37611556 0.01886058 C40.25380455 0.02509968 46.131494 0.02569836 52.00918579 0.02688599 C63.1438707 0.02999766 74.27854583 0.03820884 85.41322643 0.04823548 C100.45638983 0.06148843 115.49955589 0.06689785 130.54272366 0.07273769 C154.25076455 0.08214883 177.95878479 0.10206886 201.66682434 0.12025452 C201.66682434 49.29025452 201.66682434 98.46025452 201.66682434 149.12025452 C125.10682434 149.12025452 48.54682434 149.12025452 -30.33317566 149.12025452 C-30.39505066 128.86650452 -30.45692566 108.61275452 -30.52067566 87.74525452 C-30.54798767 81.36262268 -30.57529968 74.97999084 -30.60343933 68.40394592 C-30.61698914 60.57801819 -30.61698914 60.57801819 -30.61950684 56.90818787 C-30.62409753 54.35861132 -30.63461538 51.80904107 -30.64990234 49.25950623 C-30.67195803 45.38566361 -30.67489042 41.5122172 -30.67375183 37.63832092 C-30.68454616 36.51262506 -30.69534048 35.38692921 -30.70646191 34.22712135 C-30.66968856 24.83959745 -29.24399662 16.41132797 -23.21598816 8.94447327 C-16.39569015 2.3364252 -9.27217554 -0.0334113 0 0 Z " fill="#103B9A" transform="translate(46.33317565917969,98.87974548339844)"/>
<path d="M0 0 C1.79212096 -0.00346232 3.58423979 -0.00823072 5.37635422 -0.01418173 C10.27022644 -0.02664248 15.16392193 -0.02054387 20.05779457 -0.01122308 C25.3475829 -0.00441266 30.63734164 -0.01492368 35.92712402 -0.02316284 C46.27768513 -0.03648113 56.62818087 -0.03363092 66.97874451 -0.02492492 C75.39318375 -0.01814129 83.80760471 -0.01723459 92.2220459 -0.02049637 C94.02053392 -0.02118592 94.02053392 -0.02118592 95.85535502 -0.0218894 C98.29131858 -0.0228486 100.72728213 -0.02382124 103.16324568 -0.02480717 C125.98876402 -0.03335549 148.81424618 -0.02353568 171.63975859 -0.00740607 C191.21200561 0.00599659 210.78419925 0.00366834 230.35644531 -0.01016235 C253.10201013 -0.02622802 275.84754325 -0.03253157 298.59311295 -0.02332556 C301.01996103 -0.02236995 303.44680913 -0.02142683 305.87365723 -0.02049637 C307.06761698 -0.02003354 308.26157674 -0.01957072 309.4917171 -0.01909386 C317.8930454 -0.01650694 326.29435354 -0.02086856 334.69567871 -0.02793503 C344.93837628 -0.03636117 355.18100491 -0.03404642 365.42369461 -0.0180928 C370.64657128 -0.01022513 375.86933312 -0.00709284 381.09220886 -0.01704025 C385.87887785 -0.02601879 390.6653262 -0.02100245 395.45197535 -0.0051076 C397.1779148 -0.00177314 398.90387313 -0.00342358 400.62980032 -0.01073496 C416.57260163 -0.07305944 430.44205367 1.32110468 442.59082031 12.77938843 C452.30707387 23.08210427 455.35625972 32.75877076 455.3152771 46.70266724 C455.31980821 47.83611454 455.32433933 48.96956185 455.32900774 50.13735604 C455.3416585 53.93181204 455.34003091 57.72612463 455.33837891 61.52059937 C455.34327781 64.2426711 455.35111273 66.96473281 455.35873413 69.6867981 C455.37532335 76.3116681 455.38084274 82.93650252 455.38195889 89.56139156 C455.38291039 94.94872144 455.3870258 100.33603961 455.39336014 105.72336578 C455.41096724 121.01012529 455.42019989 136.29685676 455.41869919 151.58362648 C455.41857932 152.81893196 455.41857932 152.81893196 455.41845703 154.07919312 C455.41837527 154.9037401 455.41829351 155.72828708 455.41820927 156.57782033 C455.41739662 169.93630275 455.43653026 183.29467236 455.46473376 196.65312216 C455.49348958 210.38192557 455.50727256 224.11067401 455.50554621 237.8395083 C455.50488322 245.54219088 455.51033558 253.24475519 455.53190231 260.94741058 C455.55014972 267.5064029 455.5544324 274.06522335 455.54088347 280.62423012 C455.53437136 283.96752656 455.53636266 287.31022573 455.55158997 290.65353394 C455.56706153 294.2864148 455.55772024 297.91843722 455.54232788 301.55130005 C455.55261501 302.59616758 455.56290213 303.64103511 455.57350099 304.7175653 C455.46314864 316.54717865 451.19385571 327.07793207 442.90722656 335.57626343 C429.60919087 347.8339766 415.42306282 348.83530414 398.09570312 348.76190186 C396.30358216 348.76536418 394.51146333 348.77013258 392.71934891 348.77608359 C387.82547669 348.78854433 382.9317812 348.78244573 378.03790855 348.77312493 C372.74812022 348.76631451 367.45836148 348.77682553 362.1685791 348.7850647 C351.81801799 348.79838299 341.46752226 348.79553277 331.11695862 348.78682677 C322.70251938 348.78004314 314.28809842 348.77913645 305.87365723 348.78239822 C304.07516921 348.78308777 304.07516921 348.78308777 302.2403481 348.78379125 C299.80438454 348.78475046 297.36842099 348.7857231 294.93245745 348.78670903 C272.1069391 348.79525734 249.28145695 348.78543754 226.45594454 348.76930793 C206.88369751 348.75590526 187.31150387 348.75823351 167.73925781 348.77206421 C144.993693 348.78812987 122.24815987 348.79443342 99.50259018 348.78522742 C97.07574209 348.7842718 94.648894 348.78332869 92.2220459 348.78239822 C91.02808614 348.7819354 89.83412638 348.78147257 88.60398602 348.78099572 C80.20265773 348.77840879 71.80134959 348.78277042 63.40002441 348.78983688 C53.15732684 348.79826303 42.91469822 348.79594828 32.67200851 348.77999465 C27.44913184 348.77212698 22.22637 348.7689947 17.00349426 348.77894211 C12.21682528 348.78792064 7.43037692 348.78290431 2.64372778 348.76700945 C0.91778832 348.76367499 -0.80817 348.76532543 -2.53409719 348.77263682 C-18.4768985 348.83496129 -32.34635055 347.44079717 -44.49511719 335.98251343 C-54.21137075 325.67979758 -57.26055659 316.0031311 -57.21957397 302.05923462 C-57.22410509 300.92578731 -57.2286362 299.79234001 -57.23330462 298.62454581 C-57.24595537 294.83008982 -57.24432778 291.03577723 -57.24267578 287.24130249 C-57.24757468 284.51923075 -57.25540961 281.79716905 -57.26303101 279.07510376 C-57.27962023 272.45023375 -57.28513962 265.82539934 -57.28625576 259.20051029 C-57.28720727 253.81318042 -57.29132268 248.42586225 -57.29765701 243.03853607 C-57.31526412 227.75177656 -57.32449677 212.4650451 -57.32299607 197.17827538 C-57.32291615 196.35473839 -57.32283624 195.5312014 -57.32275391 194.68270874 C-57.32267214 193.85816176 -57.32259038 193.03361478 -57.32250614 192.18408152 C-57.3216935 178.8255991 -57.34082713 165.4672295 -57.36903064 152.1087797 C-57.39778645 138.37997628 -57.41156944 124.65122784 -57.40984309 110.92239356 C-57.40918009 103.21971098 -57.41463246 95.51714666 -57.43619919 87.81449127 C-57.45444659 81.25549895 -57.45872928 74.6966785 -57.44518034 68.13767174 C-57.43866823 64.7943753 -57.44065954 61.45167613 -57.45588684 58.10836792 C-57.4713584 54.47548705 -57.46201712 50.84346464 -57.44662476 47.21060181 C-57.45691188 46.16573427 -57.46719901 45.12086674 -57.47779787 44.04433656 C-57.36744552 32.21472321 -53.09815259 21.68396978 -44.81152344 13.18563843 C-31.51348775 0.92792526 -17.32735969 -0.07340228 0 0 Z M-35.84277344 28.58798218 C-39.57024334 34.61230853 -41.07955248 40.63315742 -41.07240295 47.68974304 C-41.07378045 48.73780026 -41.07515795 49.78585749 -41.07657719 50.86567402 C-41.07297908 52.00936042 -41.06938097 53.15304682 -41.06567383 54.33139038 C-41.06579436 55.56110408 -41.0659149 56.79081778 -41.06603909 58.05779552 C-41.06541672 61.37665678 -41.06047898 64.69545518 -41.05342865 68.01430511 C-41.04772321 71.1314331 -41.04746496 74.24855956 -41.04675293 77.36569214 C-41.0415108 86.47494985 -41.0275496 95.58420085 -41.01464844 104.69345093 C-40.99402344 125.05032593 -40.97339844 145.40720093 -40.95214844 166.38095093 C35.60785156 166.38095093 112.16785156 166.38095093 191.04785156 166.38095093 C191.04785156 117.21095093 191.04785156 68.04095093 191.04785156 17.38095093 C154.01663986 17.20611289 154.01663986 17.20611289 116.98535156 17.08798218 C101.88171144 17.05239519 86.77827232 17.01058379 71.67480469 16.92831421 C60.67447958 16.86842339 49.67431771 16.8297806 38.67383409 16.81641996 C32.85160246 16.8086127 27.02983772 16.79032402 21.20775604 16.74657059 C15.72148005 16.70567697 10.2358608 16.69331585 4.74944687 16.70230484 C2.74197947 16.70066169 0.73448884 16.6888272 -1.27284622 16.66571808 C-14.57977291 16.52011024 -27.09474127 16.93251579 -35.84277344 28.58798218 Z M207.04785156 17.38095093 C207.046385 18.20186092 207.04491844 19.02277092 207.04340744 19.86855698 C207.00637563 39.83178434 206.9474092 59.79484143 206.86394882 79.75793076 C206.82411859 89.41189609 206.79174638 99.06577944 206.77685547 108.71981812 C206.76385956 117.13308062 206.73694782 125.54616303 206.6932385 133.95932412 C206.67057713 138.41516368 206.65494367 142.87078074 206.65596771 147.32668304 C206.65671158 151.51942517 206.6388716 155.71167456 206.60668373 159.90428925 C206.59815433 161.44419102 206.59645537 162.98414787 206.60204887 164.52406311 C206.60866519 166.62519269 206.59082899 168.72474358 206.5668335 170.82571411 C206.56130274 172.59002588 206.56130274 172.59002588 206.55566025 174.38998032 C206.04785156 177.38095093 206.04785156 177.38095093 204.62205505 179.75821686 C200.65539051 182.25873468 196.94204524 181.9381631 192.34161377 181.89993286 C191.34589285 181.90743411 190.35017192 181.91493536 189.32427764 181.92266393 C185.97834501 181.94300943 182.6330856 181.93482474 179.28710938 181.92684937 C176.89245429 181.93558061 174.49780505 181.94606481 172.10316467 181.95817566 C166.26961354 181.98320844 160.43624718 181.98991997 154.60264716 181.98861542 C147.81490837 181.98808137 141.02729927 182.01004353 134.23960754 182.03342238 C122.13484516 182.07451736 110.03011647 182.09781982 97.92529297 182.10995483 C86.16647094 182.12178104 74.40771239 182.14197331 62.64892578 182.1734314 C61.92413675 182.1753675 61.19934772 182.1773036 60.45259538 182.17929837 C56.81654822 182.18906287 53.18050154 182.19899199 49.54445505 182.20900297 C19.37894904 182.29184344 -10.78654731 182.34552148 -40.95214844 182.38095093 C-41.04581661 198.48890984 -41.11623727 214.59677967 -41.15939713 230.70494556 C-41.17997454 238.18517504 -41.20800213 245.66523475 -41.25390625 253.14535522 C-41.29392255 259.66919074 -41.31961625 266.19290324 -41.32850242 272.71685809 C-41.33369234 276.16753708 -41.34578797 279.61786431 -41.37506866 283.06842995 C-41.40758062 286.93153835 -41.40809842 290.79431059 -41.40625 294.65756226 C-41.4206311 295.78685654 -41.43501221 296.91615082 -41.4498291 298.07966614 C-41.40273682 307.21686274 -39.68238791 316.98300895 -32.93735671 323.70250887 C-23.29414361 331.85559522 -13.00523222 332.24354435 -1.03759766 332.14285278 C0.76263117 332.1497757 2.5628515 332.15931138 4.36305428 332.17121625 C9.28409424 332.19616271 14.20443216 332.1839301 19.12547398 332.16529894 C24.44256301 332.15168798 29.7595338 332.17269517 35.07659912 332.18917847 C45.48250375 332.21582579 55.88814837 332.21011 66.29406309 332.19270262 C74.75288745 332.17913951 83.21163907 332.17732015 91.67047119 332.18384552 C93.47792161 332.18522462 93.47792161 332.18522462 95.32188618 332.18663158 C97.76993102 332.18854997 100.21797584 332.19049525 102.66602063 332.19246712 C125.60886175 332.20956689 148.55155891 332.18991931 171.49437642 332.15766492 C191.17047667 332.13085924 210.84636452 332.13551566 230.52246094 332.16317749 C253.38449792 332.19530337 276.2464088 332.20791902 299.10846519 332.18950391 C301.54738742 332.18759266 303.98630967 332.18570643 306.42523193 332.18384552 C307.62515561 332.18291987 308.82507929 332.18199421 310.06136429 332.18104051 C318.5077576 332.175865 326.95407077 332.18459344 335.40045166 332.19872284 C345.69707713 332.21556915 355.99342824 332.21095859 366.29002237 332.17903838 C371.5412369 332.1632945 376.79199436 332.1570521 382.04320526 332.17693329 C386.85477325 332.19487417 391.66546256 332.1848867 396.47695136 332.15306798 C398.21299048 332.14639191 399.94910456 332.14971668 401.68509507 332.1643227 C412.74963094 332.25024045 422.3854193 331.27945579 431.06966972 323.59095836 C437.82599624 316.64025157 438.48981514 308.3341219 438.44226074 299.12207031 C438.4513974 297.45018601 438.4513974 297.45018601 438.46071863 295.74452627 C438.47733138 292.01987724 438.47257512 288.29557072 438.46777344 284.57089233 C438.47511474 281.89630464 438.48360872 279.22174237 438.49343872 276.54716492 C438.51445608 270.04240223 438.51903571 263.53772875 438.51725084 257.03293611 C438.5159414 251.7438232 438.5197566 246.45473803 438.5271759 241.16563034 C438.52927518 239.64007008 438.53137278 238.11450982 438.53346872 236.58894956 C438.53451225 235.82955345 438.53555578 235.07015733 438.53663093 234.28774922 C438.55551823 219.93720885 438.55448768 205.58671965 438.5476616 191.23617201 C438.54208665 178.11954048 438.56291214 165.00310431 438.59602207 151.88651843 C438.62978762 138.40515212 438.64492388 124.92387932 438.64030504 111.44246995 C438.63806332 103.87897982 438.64325994 96.31567026 438.66819763 88.75221634 C438.68924781 82.31322361 438.6927661 75.87451048 438.67389804 69.43550612 C438.66476291 66.15306377 438.66625784 62.87124826 438.68425369 59.58882713 C438.70245019 56.02334428 438.68969157 52.45924044 438.66931152 48.89379883 C438.68182937 47.86615532 438.69434722 46.8385118 438.7072444 45.77972758 C438.61248034 38.02588329 436.63283247 31.53460987 431.49070883 25.5768019 C424.73826883 19.31101852 417.06818771 16.7662386 407.9931488 16.89993286 C407.12791298 16.89651516 406.26267717 16.89309746 405.37122208 16.8895762 C402.49672816 16.88303244 399.62318594 16.90491486 396.7487793 16.92684937 C394.6785128 16.9279786 392.6082447 16.92734249 390.53797913 16.92507935 C384.93524361 16.92393426 379.3328524 16.94741063 373.73019671 16.97537518 C367.86857533 17.00042287 362.00694558 17.00273349 356.14527893 17.00747681 C345.05322179 17.01989666 333.96132281 17.05270498 322.86933523 17.09287477 C310.23819208 17.13762321 297.60704127 17.15958727 284.97583854 17.17965651 C258.99975528 17.22143838 233.02381229 17.29177129 207.04785156 17.38095093 Z " fill="#1A1C20" transform="translate(56.9521484375,81.61904907226563)"/>
<path d="M0 0 C2.875 1.375 2.875 1.375 5 4 C5.41773821 7.37363261 5.2903408 10.6191427 5 14 C5.66386719 14.10957031 6.32773438 14.21914062 7.01171875 14.33203125 C12.04636061 15.23606183 15.62129267 16.2955043 20 19 C22.68780658 18.83710263 23.74129004 18.23099103 25.75 16.4375 C29.08717297 14.30541727 32.14754676 14.30529532 36 15 C38.5 16.5625 38.5 16.5625 40 19 C40.59754379 22.518869 40.64707844 24.84914077 38.87109375 28.0078125 C37.6514336 29.72437123 36.33162104 31.36876422 35 33 C35.34933594 33.66386719 35.69867188 34.32773438 36.05859375 35.01171875 C36.51363281 35.89472656 36.96867187 36.77773437 37.4375 37.6875 C37.88996094 38.55761719 38.34242188 39.42773438 38.80859375 40.32421875 C39.95991928 42.90998264 40.56320753 45.21356528 41 48 C41.67546875 48.08636719 42.3509375 48.17273438 43.046875 48.26171875 C47.3414916 48.93818293 50.26530565 49.40199297 53.6875 52.1875 C55.47875458 56.02590266 55.31289889 57.98836451 54 62 C49.94645902 65.66748946 46.38070547 66.56954356 41 67 C40.81824219 67.56847656 40.63648438 68.13695312 40.44921875 68.72265625 C38.85915366 73.60701003 37.09540222 78.31029027 35 83 C35.825 83.845625 36.65 84.69125 37.5 85.5625 C39.66786914 88.17506025 40.01197577 89.07717717 40.5625 92.625 C40 96 40 96 38.5 98.4375 C35.01917473 100.6130158 32.00591652 100.87265816 28 100 C26.64691687 98.68671343 25.31129922 97.35500919 24 96 C20.36612748 96.08075272 17.84209334 97.06767428 14.5 98.5 C11.24605488 99.89454791 8.49416852 100.57388189 5 101 C5.04640625 101.59167969 5.0928125 102.18335938 5.140625 102.79296875 C5.32551506 106.84074034 5.30915469 109.39405681 3.4375 113.0625 C1 115 1 115 -2.4375 115.625 C-6 115 -6 115 -8.9375 113.0625 C-11.70477383 108.95351764 -11.47138774 105.80815498 -11 101 C-11.99 100.9175 -12.98 100.835 -14 100.75 C-17.87283338 100.23152738 -20.76738908 98.71376205 -24.10546875 96.7421875 C-26.49760211 95.80506309 -27.62961036 96.09440229 -30 97 C-30.86625 97.7734375 -30.86625 97.7734375 -31.75 98.5625 C-35.27623659 100.81537337 -37.85410095 100.39484753 -42 100 C-43.9375 99 -43.9375 99 -45 97 C-46.75243463 90.31884298 -46.75243463 90.31884298 -44.94140625 87.14453125 C-43.5625 85.5 -43.5625 85.5 -41 83 C-41.268125 82.34 -41.53625 81.68 -41.8125 81 C-42.204375 80.01 -42.59625 79.02 -43 78 C-43.26425781 77.34902344 -43.52851562 76.69804687 -43.80078125 76.02734375 C-44.07277344 75.33769531 -44.34476563 74.64804688 -44.625 73.9375 C-44.88539062 73.28652344 -45.14578125 72.63554687 -45.4140625 71.96484375 C-46 70 -46 70 -46 66 C-47.546875 66.0928125 -47.546875 66.0928125 -49.125 66.1875 C-53.26656148 65.98710186 -55.50462369 65.16380438 -59 63 C-60.56935594 59.86128812 -60.35201103 57.46144178 -60 54 C-58 51.0625 -58 51.0625 -55 49 C-52.19256186 48.59523073 -49.85925459 48.75769029 -47 49 C-46.82984375 48.3709375 -46.6596875 47.741875 -46.484375 47.09375 C-44.85429647 41.33645135 -42.83080597 36.27115594 -40 31 C-40.99 30.67 -41.98 30.34 -43 30 C-45.52384018 27.56963538 -45.99034286 26.05901583 -46.5625 22.5625 C-46 19 -46 19 -43.375 16 C-40 14 -40 14 -36.9375 13.9375 C-34 15 -34 15 -31.4375 17.125 C-29.21530411 19.22864154 -29.21530411 19.22864154 -26.75 19 C-23.46265892 17.80460324 -20.32771587 16.37103667 -17.18359375 14.83984375 C-15 14 -15 14 -11 14 C-11.05800781 13.40832031 -11.11601563 12.81664062 -11.17578125 12.20703125 C-11.42728017 7.80220727 -11.45990867 5.66280955 -8.875 1.9375 C-5.46618264 -0.35974648 -4.02516948 -0.75471928 0 0 Z " fill="#FBFBFD" transform="translate(135,116)"/>
<path d="M0 0 C6.45012539 4.13553958 10.82430635 9.62068881 13 17 C14.22588678 26.5467289 13.10384653 34.06302317 7.64453125 41.9609375 C3.56556644 47.14439412 -1.4004358 50.76976765 -8 52 C-16.35409798 52.58709675 -23.94798086 53.0647918 -31 48 C-32.3303125 47.13375 -32.3303125 47.13375 -33.6875 46.25 C-39.60209642 40.49525753 -43.25402305 33.20847499 -43.5 24.9375 C-43.34017024 16.63575423 -40.70119574 9.77495145 -34.84375 3.80078125 C-23.74950512 -5.2607852 -12.77151231 -6.44311325 0 0 Z " fill="#17409E" transform="translate(147,149)"/>
<path d="M0 0 C3.76139878 2.67563419 6.82944548 6.21748471 8.89453125 10.34765625 C9.45944118 16.89843865 9.38769853 22.60083267 5.89453125 28.34765625 C0.89027622 33.56485831 -2.98454292 35.50241527 -10.29296875 35.78515625 C-15.94231084 35.72853701 -19.30812308 34.98299229 -23.515625 31.17578125 C-28.09463853 25.91047822 -29.86018455 20.8098088 -29.55859375 13.80859375 C-28.56171628 8.39451781 -25.51304685 4.68485545 -21.60546875 0.97265625 C-14.40608943 -3.70694031 -7.50415081 -4.12950311 0 0 Z " fill="#FBFCFD" transform="translate(142.10546875,156.65234375)"/>
</svg>
