<?xml version="1.0" encoding="UTF-8"?>
<svg version="1.1" xmlns="http://www.w3.org/2000/svg" width="512" height="512">
<path d="M0 0 C1.14984375 0.51433594 2.2996875 1.02867188 3.484375 1.55859375 C12.64941718 5.89097723 21.11837377 11.13467302 28.33984375 18.33203125 C31.4162398 20.2609903 33.15209064 20.24229245 36.6796875 19.58251953 C41.35913926 18.40773293 45.92901632 16.97821985 50.5 15.4375 C51.55719238 15.08324951 52.61438477 14.72899902 53.70361328 14.36401367 C63.67363337 10.92871625 72.71898091 6.43584223 81.94921875 1.38671875 C86.77030776 -1.17155718 90.40178552 -3.07657971 96 -2 C98.95892411 -0.17912363 101.41987473 1.83974946 103 5 C103.57198239 11.20442009 101.93429732 15.62571343 99.5 21.1875 C99.14486328 22.01741455 98.78972656 22.8473291 98.42382812 23.70239258 C95.33698726 30.69186286 91.59386427 36.87892022 87 43 C90.63700781 43 92.79309915 41.88289907 96.125 40.4375 C101.68727462 38.26095776 106.2501449 36.79423662 112 39 C114.71968796 41.12268329 115.76507296 42.55179018 116.32055664 45.97607422 C116.58470975 52.47265721 114.76680397 56.04079037 110.875 61.125 C110.3380249 61.85364258 109.8010498 62.58228516 109.24780273 63.33300781 C103.4018579 71.09396004 96.80934436 78.08820242 90 85 C88.85761166 86.1805434 87.71567815 87.36152713 86.57421875 88.54296875 C85.4674443 89.67574928 84.35942322 90.8073135 83.25 91.9375 C82.76797119 92.43282227 82.28594238 92.92814453 81.78930664 93.43847656 C79.42977046 95.8023494 77.23099042 97.84933318 74.41772461 99.68432617 C68.98948889 103.29741854 68.98948889 103.29741854 66.15380859 108.95239258 C65.89261787 112.4831782 65.92530472 115.89987185 66.0625 119.4375 C66.06561887 122.05078458 66.0602705 124.66409164 66.046875 127.27734375 C66.04880859 128.5804248 66.05074219 129.88350586 66.05273438 131.22607422 C65.45699004 173.86040747 50.95388399 217.69049031 31 255 C30.42813965 256.07773682 30.42813965 256.07773682 29.84472656 257.17724609 C11.2128364 292.10641004 -15.0871088 326.2449737 -47 350 C-48.45185273 351.10673172 -49.9036725 352.21350669 -51.35546875 353.3203125 C-60.89484678 360.53121903 -70.51434856 367.24723378 -81 373 C-81.89428711 373.4935498 -82.78857422 373.98709961 -83.70996094 374.49560547 C-129.31366859 399.45692457 -178.40354374 411.21773711 -230.25 411.25 C-231.22732086 411.25067474 -232.20464172 411.25134949 -233.21157837 411.25204468 C-248.35598758 411.23546666 -263.05650085 410.6599377 -278 408 C-279.02496582 407.82307617 -280.04993164 407.64615234 -281.10595703 407.46386719 C-315.26282725 401.44810206 -370.26106077 388.92635397 -394.74609375 362.0859375 C-396.88449096 358.52860382 -396.65845567 355.01514817 -396 351 C-393.88608123 347.50109996 -392.88263941 346.29421314 -389 345 C-387.65820756 344.92869896 -386.31299807 344.91271653 -384.96948242 344.93408203 C-384.15901459 344.94368454 -383.34854675 344.95328705 -382.51351929 344.96318054 C-381.19778427 344.98527336 -381.19778427 344.98527336 -379.85546875 345.0078125 C-377.97307409 345.02829385 -376.09066753 345.04770314 -374.20825195 345.06616211 C-373.22426422 345.07662567 -372.24027649 345.08708923 -371.22647095 345.09786987 C-333.48043752 345.43484403 -300.61340128 338.71245098 -267 321 C-269.8050626 319.12995826 -272.25399884 318.03830876 -275.375 316.8125 C-295.0100409 308.71215743 -311.10005997 296.86003192 -324 280 C-324.61875 279.19691406 -325.2375 278.39382813 -325.875 277.56640625 C-330.83003898 270.83065014 -334.49712159 263.55789011 -338 256 C-338.36480469 255.22269531 -338.72960937 254.44539063 -339.10546875 253.64453125 C-341.12493264 248.89452462 -342.05760924 244.08428662 -341 239 C-338.56246638 235.90367351 -336.26549269 234.17699513 -333 232 C-333.75023437 231.33355469 -334.50046875 230.66710937 -335.2734375 229.98046875 C-358.38254776 209.26890018 -372.59152421 185.88703095 -376.3125 154.625 C-376.44543457 153.53771606 -376.44543457 153.53771606 -376.58105469 152.4284668 C-377.24030222 146.00959336 -377.70719498 139.41015762 -373.875 134 C-370.35373912 131.55042721 -368.28711902 131 -364 131 C-361.58066095 131.84216309 -359.33363198 132.93065074 -357 134 C-357.50789063 133.16339844 -358.01578125 132.32679688 -358.5390625 131.46484375 C-375.27394156 103.39514538 -380.10063358 72.35446911 -372.3125 40.5 C-365.16917994 15.27097073 -365.16917994 15.27097073 -357.01953125 9.62890625 C-353.18425077 8.43455391 -349.80678408 8.81321723 -346 10 C-341.4493458 13.10847685 -338.29289993 17.87437536 -334.875 22.125 C-326.36914423 32.65605953 -316.61463807 41.63225612 -306 50 C-304.18555032 51.49764101 -302.37306817 52.99766876 -300.5625 54.5 C-295.7010892 58.4883126 -290.70355436 62.24733509 -285.62890625 65.95703125 C-284.76136719 66.63121094 -283.89382813 67.30539063 -283 68 C-282.22527344 68.54011719 -281.45054687 69.08023438 -280.65234375 69.63671875 C-277.99844953 73.43247762 -278.69163601 77.51159076 -279 82 C-276.06482399 83.65000386 -273.12647526 85.29427432 -270.1875 86.9375 C-269.35412109 87.40607422 -268.52074219 87.87464844 -267.66210938 88.35742188 C-266.85966797 88.80537109 -266.05722656 89.25332031 -265.23046875 89.71484375 C-264.49207764 90.12855225 -263.75368652 90.54226074 -262.99291992 90.96850586 C-260.88674645 92.1239907 -260.88674645 92.1239907 -258 93 C-257.278125 92.360625 -256.55625 91.72125 -255.8125 91.0625 C-252.75880081 88.82312059 -250.78515357 88.33309675 -247 88.5625 C-243.19824802 89.39413325 -241.4563678 91.06434092 -239 94 C-238.67 96.97 -238.34 99.94 -238 103 C-230.08 105.97 -222.16 108.94 -214 112 C-213.34 110.35 -212.68 108.7 -212 107 C-208.61986852 104.37100885 -205.13315022 104.86748597 -201 105 C-198.82225605 105.35117443 -196.65418227 105.76743394 -194.5 106.2421875 C-193.28916748 106.50306152 -192.07833496 106.76393555 -190.83081055 107.03271484 C-189.56664307 107.31066895 -188.30247559 107.58862305 -187 107.875 C-177.03244352 110.02063237 -167.15075564 111.98317128 -157 113 C-157.02320313 112.05382812 -157.04640625 111.10765625 -157.0703125 110.1328125 C-157.35117707 93.64416164 -155.67859114 78.53358797 -150 63 C-149.42765625 61.41251953 -149.42765625 61.41251953 -148.84375 59.79296875 C-138.31929341 32.66404855 -116.64494965 11.86412535 -90.64233398 -0.29833984 C-62.16411626 -12.82214711 -28.3203133 -12.77260361 0 0 Z " fill="#77D1F9" transform="translate(396,55)"/>
<path d="M0 0 C1.14984375 0.51433594 2.2996875 1.02867188 3.484375 1.55859375 C12.64941718 5.89097723 21.11837377 11.13467302 28.33984375 18.33203125 C31.4162398 20.2609903 33.15209064 20.24229245 36.6796875 19.58251953 C41.35913926 18.40773293 45.92901632 16.97821985 50.5 15.4375 C51.55719238 15.08324951 52.61438477 14.72899902 53.70361328 14.36401367 C63.67363337 10.92871625 72.71898091 6.43584223 81.94921875 1.38671875 C86.77030776 -1.17155718 90.40178552 -3.07657971 96 -2 C98.95892411 -0.17912363 101.41987473 1.83974946 103 5 C103.57198239 11.20442009 101.93429732 15.62571343 99.5 21.1875 C99.14486328 22.01741455 98.78972656 22.8473291 98.42382812 23.70239258 C95.33698726 30.69186286 91.59386427 36.87892022 87 43 C90.63700781 43 92.79309915 41.88289907 96.125 40.4375 C101.68727462 38.26095776 106.2501449 36.79423662 112 39 C114.71968796 41.12268329 115.76507296 42.55179018 116.32055664 45.97607422 C116.58470975 52.47265721 114.76680397 56.04079037 110.875 61.125 C110.3380249 61.85364258 109.8010498 62.58228516 109.24780273 63.33300781 C103.4018579 71.09396004 96.80934436 78.08820242 90 85 C88.85761166 86.1805434 87.71567815 87.36152713 86.57421875 88.54296875 C85.4674443 89.67574928 84.35942322 90.8073135 83.25 91.9375 C82.76797119 92.43282227 82.28594238 92.92814453 81.78930664 93.43847656 C79.42977046 95.8023494 77.23099042 97.84933318 74.41772461 99.68432617 C68.98948889 103.29741854 68.98948889 103.29741854 66.15380859 108.95239258 C65.89261787 112.4831782 65.92530472 115.89987185 66.0625 119.4375 C66.06561887 122.05078458 66.0602705 124.66409164 66.046875 127.27734375 C66.04880859 128.5804248 66.05074219 129.88350586 66.05273438 131.22607422 C65.45699004 173.86040747 50.95388399 217.69049031 31 255 C30.42813965 256.07773682 30.42813965 256.07773682 29.84472656 257.17724609 C11.2128364 292.10641004 -15.0871088 326.2449737 -47 350 C-48.45185273 351.10673172 -49.9036725 352.21350669 -51.35546875 353.3203125 C-60.89484678 360.53121903 -70.51434856 367.24723378 -81 373 C-81.89428711 373.4935498 -82.78857422 373.98709961 -83.70996094 374.49560547 C-129.31366859 399.45692457 -178.40354374 411.21773711 -230.25 411.25 C-231.22732086 411.25067474 -232.20464172 411.25134949 -233.21157837 411.25204468 C-248.35598758 411.23546666 -263.05650085 410.6599377 -278 408 C-279.02496582 407.82307617 -280.04993164 407.64615234 -281.10595703 407.46386719 C-315.26282725 401.44810206 -370.26106077 388.92635397 -394.74609375 362.0859375 C-396.88449096 358.52860382 -396.65845567 355.01514817 -396 351 C-393.88608123 347.50109996 -392.88263941 346.29421314 -389 345 C-387.65820756 344.92869896 -386.31299807 344.91271653 -384.96948242 344.93408203 C-384.15901459 344.94368454 -383.34854675 344.95328705 -382.51351929 344.96318054 C-381.19778427 344.98527336 -381.19778427 344.98527336 -379.85546875 345.0078125 C-377.97307409 345.02829385 -376.09066753 345.04770314 -374.20825195 345.06616211 C-373.22426422 345.07662567 -372.24027649 345.08708923 -371.22647095 345.09786987 C-333.48043752 345.43484403 -300.61340128 338.71245098 -267 321 C-269.8050626 319.12995826 -272.25399884 318.03830876 -275.375 316.8125 C-295.0100409 308.71215743 -311.10005997 296.86003192 -324 280 C-324.61875 279.19691406 -325.2375 278.39382813 -325.875 277.56640625 C-330.83003898 270.83065014 -334.49712159 263.55789011 -338 256 C-338.36480469 255.22269531 -338.72960937 254.44539063 -339.10546875 253.64453125 C-341.12493264 248.89452462 -342.05760924 244.08428662 -341 239 C-338.56246638 235.90367351 -336.26549269 234.17699513 -333 232 C-333.75023437 231.33355469 -334.50046875 230.66710937 -335.2734375 229.98046875 C-358.38254776 209.26890018 -372.59152421 185.88703095 -376.3125 154.625 C-376.44543457 153.53771606 -376.44543457 153.53771606 -376.58105469 152.4284668 C-377.24030222 146.00959336 -377.70719498 139.41015762 -373.875 134 C-370.35373912 131.55042721 -368.28711902 131 -364 131 C-361.58066095 131.84216309 -359.33363198 132.93065074 -357 134 C-357.50789063 133.16339844 -358.01578125 132.32679688 -358.5390625 131.46484375 C-375.27394156 103.39514538 -380.10063358 72.35446911 -372.3125 40.5 C-365.16917994 15.27097073 -365.16917994 15.27097073 -357.01953125 9.62890625 C-353.18425077 8.43455391 -349.80678408 8.81321723 -346 10 C-341.4493458 13.10847685 -338.29289993 17.87437536 -334.875 22.125 C-326.36914423 32.65605953 -316.61463807 41.63225612 -306 50 C-304.18555032 51.49764101 -302.37306817 52.99766876 -300.5625 54.5 C-295.7010892 58.4883126 -290.70355436 62.24733509 -285.62890625 65.95703125 C-279.34327714 70.84170291 -279.34327714 70.84170291 -278.36328125 74.1484375 C-278.28420659 77.61555709 -278.30851642 80.0271678 -280.36328125 82.91796875 C-283.13353281 85.50394637 -284.96191104 86.82674046 -288.76171875 87.4609375 C-293.28293174 86.81738728 -296.05218949 84.72014886 -299.6875 82.0625 C-300.39374512 81.56032959 -301.09999023 81.05815918 -301.82763672 80.54077148 C-307.76496451 76.27597798 -313.44166429 71.74741705 -319 67 C-320.0851342 66.09929176 -321.17111543 65.19960329 -322.2578125 64.30078125 C-328.90248177 58.76011759 -335.23249186 52.96922258 -341.375 46.875 C-342.0359668 46.22321777 -342.69693359 45.57143555 -343.37792969 44.89990234 C-343.98282227 44.29098145 -344.58771484 43.68206055 -345.2109375 43.0546875 C-345.75024902 42.51312012 -346.28956055 41.97155273 -346.84521484 41.41357422 C-348 40 -348 40 -348 38 C-348.66 38 -349.32 38 -350 38 C-350.18175781 38.92619141 -350.18175781 38.92619141 -350.3671875 39.87109375 C-350.61855469 41.14146484 -350.61855469 41.14146484 -350.875 42.4375 C-351.03742188 43.26121094 -351.19984375 44.08492187 -351.3671875 44.93359375 C-351.71006079 46.59504766 -352.0677492 48.25496305 -352.50341797 49.89453125 C-356.46262526 65.43255233 -355.62849657 84.02574432 -350 99 C-349.57589844 100.24523437 -349.15179688 101.49046875 -348.71484375 102.7734375 C-342.33476002 120.75657248 -329.80716776 135.40011106 -314.3359375 146.2578125 C-312 148 -312 148 -311 150 C-310.4188862 157.08958838 -310.4188862 157.08958838 -312.875 160.9375 C-316.82443059 164.77077086 -320.21858434 164.20936931 -325.515625 164.15234375 C-335.87071691 163.6995987 -345.31609102 161.65363599 -355 158 C-352.25596111 167.30637872 -349.44708728 176.33784738 -345 185 C-344.54496094 185.928125 -344.08992188 186.85625 -343.62109375 187.8125 C-333.63583129 206.63184178 -315.05327101 222.13248748 -294.79003906 228.71826172 C-291.76775903 229.61193296 -288.74484625 230.47304393 -285.68457031 231.22753906 C-281.41277695 232.33130428 -278.62192153 233.36657574 -276 237 C-274.97998516 241.19256102 -275.5465466 244.95705717 -277.25 248.875 C-281.62627555 252.25666747 -286.64826708 252.95918992 -292 254 C-292.75796875 254.18949219 -293.5159375 254.37898438 -294.296875 254.57421875 C-298.30191333 255.20507016 -302.26565364 255.1040225 -306.3125 255.0625 C-307.14845703 255.05798828 -307.98441406 255.05347656 -308.84570312 255.04882812 C-310.89716649 255.03710548 -312.94859273 255.01917203 -315 255 C-309.65425571 263.36116997 -309.65425571 263.36116997 -303.5 271.125 C-301 274 -301 274 -301 276 C-300.41863281 276.25652344 -299.83726562 276.51304687 -299.23828125 276.77734375 C-296.79593858 278.11146811 -295.17634553 279.62072773 -293.1875 281.5625 C-278.224519 295.05371237 -259.34698636 301.68769374 -239.44726562 303.03515625 C-234.47839077 303.48189139 -231.63180824 304.29061916 -228 308 C-226.42101947 311.15796107 -226.18071829 314.60670636 -227 318 C-236.93453882 329.50121006 -251.68400321 337.1564128 -265 344 C-265.70382812 344.36222656 -266.40765625 344.72445313 -267.1328125 345.09765625 C-291.3530557 357.38920289 -316.36263454 362.81552183 -343 367 C-320.69544378 376.11656669 -298.29339549 383.58768851 -274.32519531 386.67626953 C-271.95113544 387.00680328 -269.60104364 387.41482893 -267.2421875 387.83984375 C-235.01783727 393.36419723 -199.76103205 391.10605038 -168.10888672 383.49414062 C-166.0592293 383.01387822 -164.00537662 382.58576879 -161.94140625 382.171875 C-118.35960967 373.15929812 -76.9021607 349.71087908 -44.6171875 319.4296875 C-42.51938621 317.48217645 -40.39690227 315.62911965 -38.1875 313.8125 C-35.09052502 311.1931308 -32.49291657 308.27255649 -29.87109375 305.18359375 C-27.86330696 302.84047722 -25.77931941 300.5807822 -23.6875 298.3125 C-14.39595353 287.9815602 -6.42962694 276.72022188 1 265 C1.60279785 264.05012207 1.60279785 264.05012207 2.21777344 263.08105469 C27.75713414 222.35390333 45.48750551 171.40708538 44.97550964 122.89331055 C44.94535052 119.93718178 44.95163313 116.98134021 44.95474243 114.02508545 C44.93788609 111.86204409 44.85986099 109.70689608 44.7800293 107.54541016 C44.70313723 101.92872423 44.81807939 97.54974181 48.33544922 92.93774414 C51.11159514 90.38971383 53.92687348 88.17615788 57 86 C58.7554584 84.61103761 60.50638502 83.21630109 62.25 81.8125 C63.05695313 81.17957031 63.86390625 80.54664063 64.6953125 79.89453125 C68.03042049 77.15295943 71.03930604 74.13715917 74 71 C72.54119891 71.14107747 71.08296449 71.28802415 69.625 71.4375 C68.81289063 71.51871094 68.00078125 71.59992188 67.1640625 71.68359375 C64.95727195 71.89090114 64.95727195 71.89090114 63 73 C60.01815254 73.52053803 57.01568473 73.75783138 54 74 C53.12859375 74.07863281 52.2571875 74.15726562 51.359375 74.23828125 C46.66541631 74.4842222 44.73474368 74.58479599 40.9375 71.5625 C40.298125 70.716875 39.65875 69.87125 39 69 C38.67 68.67 38.34 68.34 38 68 C37.50598661 63.80088622 37.61069697 61.62288486 39.875 58 C42.93079386 54.73761726 46.6213205 52.40729033 50.30859375 49.91796875 C57.46188362 44.82034128 63.39798531 38.71477634 69 32 C68.20416504 32.26216309 67.40833008 32.52432617 66.58837891 32.79443359 C63.58921198 33.7793452 60.58839444 34.75901598 57.58642578 35.73535156 C55.66700705 36.36130091 53.74949463 36.99308622 51.83203125 37.625 C32.35749259 43.94657799 32.35749259 43.94657799 25 43 C22.578125 41.53125 22.578125 41.53125 20.25 39.5 C19.38246094 38.7678125 18.51492188 38.035625 17.62109375 37.28125 C16.75613281 36.5284375 15.89117187 35.775625 15 35 C-4.74991222 17.85483413 -28.49914703 10.73617994 -54.50024414 12.20751953 C-73.6028077 13.72752027 -91.88416141 22.06888358 -106 35 C-107.11375 35.97646484 -107.11375 35.97646484 -108.25 36.97265625 C-122.88373777 50.56475643 -134.26330955 71.89488163 -135.12939453 92.00439453 C-135.13052246 93.03677246 -135.13165039 94.06915039 -135.1328125 95.1328125 C-135.13474609 96.83630859 -135.13474609 96.83630859 -135.13671875 98.57421875 C-135.13285156 99.74597656 -135.12898438 100.91773438 -135.125 102.125 C-135.12886719 103.30449219 -135.13273437 104.48398438 -135.13671875 105.69921875 C-135.13542969 106.83230469 -135.13414062 107.96539062 -135.1328125 109.1328125 C-135.13168457 110.16293457 -135.13055664 111.19305664 -135.12939453 112.25439453 C-135.01487336 114.68440423 -134.66051881 116.67465546 -134 119 C-133.51254264 123.9145291 -133.25275847 127.73741948 -135.8125 132.0625 C-140.99891946 136.65618581 -148.48747644 135.23177115 -155 135 C-159.69366344 134.6008034 -164.33909259 133.99031118 -169 133.3125 C-170.246604 133.13460937 -171.49320801 132.95671875 -172.77758789 132.7734375 C-180.7187902 131.59598563 -188.59543108 130.21964602 -196.4375 128.5 C-197.7668457 128.21636597 -197.7668457 128.21636597 -199.12304688 127.92700195 C-205.24400672 126.49786072 -209.49339478 124.50660522 -214 120 C-214.69451672 115.36450471 -214.94125248 111.28637839 -212.125 107.4375 C-207.43543852 104.26514959 -203.3067461 104.62802319 -197.78125 105.51904297 C-196.6984375 105.75768066 -195.615625 105.99631836 -194.5 106.2421875 C-193.28916748 106.50306152 -192.07833496 106.76393555 -190.83081055 107.03271484 C-189.56664307 107.31066895 -188.30247559 107.58862305 -187 107.875 C-177.03244352 110.02063237 -167.15075564 111.98317128 -157 113 C-157.02320313 112.05382812 -157.04640625 111.10765625 -157.0703125 110.1328125 C-157.35117707 93.64416164 -155.67859114 78.53358797 -150 63 C-149.42765625 61.41251953 -149.42765625 61.41251953 -148.84375 59.79296875 C-138.31929341 32.66404855 -116.64494965 11.86412535 -90.64233398 -0.29833984 C-62.16411626 -12.82214711 -28.3203133 -12.77260361 0 0 Z " fill="#000101" transform="translate(396,55)"/>
<path d="M0 0 C2.97361628 1.78152067 5.42653612 3.85307225 7 7 C7.30562224 10.32079091 7.36929004 12.34844296 5.70703125 15.28125 C4.76923828 16.37953125 4.76923828 16.37953125 3.8125 17.5 C2.72388672 18.77810547 2.72388672 18.77810547 1.61328125 20.08203125 C0.31970703 21.52642578 0.31970703 21.52642578 -1 23 C-1.75531006 23.84570557 -1.75531006 23.84570557 -2.52587891 24.70849609 C-8.09055257 30.90769364 -13.66362581 37.05348701 -20.08203125 42.38671875 C-21.44825325 43.53590345 -22.77569397 44.73186945 -24.07421875 45.95703125 C-52.82501312 73.04818724 -52.82501312 73.04818724 -67.71484375 74.31640625 C-71.69175873 73.93337401 -73.20885622 72.79114378 -76 70 C-77.57898053 66.84203893 -77.81928171 63.39329364 -77 60 C-72.95902695 55.01695961 -67.53873657 51.93159884 -62.1875 48.5 C-49.44617375 40.16500761 -37.4580126 31.1162092 -27 20 C-25.84951172 18.86111328 -25.84951172 18.86111328 -24.67578125 17.69921875 C-21.0959091 14.08799005 -17.69347387 10.32533164 -14.28515625 6.55273438 C-9.64003591 1.4666216 -7.07405627 -0.83929481 0 0 Z " fill="#010303" transform="translate(354,317)"/>
<path d="M0 0 C3.26524335 1.89977795 5.32633075 3.32613814 6.765625 6.90234375 C7.39800034 9.95296923 7.53014287 12.03911604 6 14.8125 C4.22949545 17.00455326 2.53393354 18.73303323 0 20 C-5.15434412 20.50698467 -5.15434412 20.50698467 -8 20 C-10.9375 17.5625 -10.9375 17.5625 -13 15 C-13.33 14.67 -13.66 14.34 -14 14 C-14.12249741 9.19635153 -13.95297254 5.21287415 -10.9375 1.375 C-7.18069572 -0.38350413 -4.0237029 -0.8880438 0 0 Z " fill="#010202" transform="translate(151,144)"/>
<path d="M0 0 C3.4375 2 3.4375 2 6 5 C7.00621189 9.09082866 6.39192542 12.16270478 4.625 15.9375 C2.80725873 18.24463315 1.88654899 18.86240202 -0.98828125 19.30859375 C-5.57061013 19.56273972 -7.3833541 19.50338441 -11.0625 16.5 C-13.72162403 12.56709978 -13.81001371 9.63916945 -13 5 C-9.08169048 0.41271081 -5.97706438 -1.06733293 0 0 Z " fill="#010303" transform="translate(375,288)"/>
</svg>
