<?xml version="1.0" encoding="UTF-8"?>
<svg version="1.1" xmlns="http://www.w3.org/2000/svg" width="512" height="512">
<path d="M0 0 C1.78192749 -0.03915527 1.78192749 -0.03915527 3.59985352 -0.07910156 C5.27712524 -0.08248535 5.27712524 -0.08248535 6.98828125 -0.0859375 C8.49128784 -0.09826416 8.49128784 -0.09826416 10.0246582 -0.11083984 C13.41946801 0.50854876 14.61905342 1.65864701 16.6875 4.375 C16.6875 5.365 16.6875 6.355 16.6875 7.375 C22.9575 7.705 29.2275 8.035 35.6875 8.375 C36.3475 7.055 37.0075 5.735 37.6875 4.375 C39.6875 2.375 39.6875 2.375 43.1015625 2.125 C95.04000418 3.52558719 149.11530603 35.15075261 185.6875 70.375 C186.6765332 71.32318604 186.6765332 71.32318604 187.68554688 72.29052734 C197.17380305 81.43497479 205.9137044 90.73234009 213.6875 101.375 C214.54556152 102.52605017 215.40363451 103.67709177 216.26171875 104.828125 C222.30103949 113.02089496 227.64707596 121.53803819 232.6875 130.375 C233.04666504 130.99084961 233.40583008 131.60669922 233.77587891 132.24121094 C255.48700172 169.69704113 265.17229245 212.95974701 265 255.9375 C264.99784485 256.90644196 264.9956897 257.87538391 264.99346924 258.87368774 C264.76115241 324.03184465 239.98014272 386.34911761 194.6875 433.375 C194.05537598 434.03435547 193.42325195 434.69371094 192.77197266 435.37304688 C183.62509947 444.86382 174.32304306 453.58820776 163.6875 461.375 C162.59469886 462.19744754 161.50225034 463.02036382 160.41015625 463.84375 C129.18710378 487.07267191 92.90209423 502.34217508 54.6875 509.375 C53.88683105 509.53581055 53.08616211 509.69662109 52.26123047 509.86230469 C24.19422956 515.352321 -9.31434244 515.12443715 -37.3125 509.375 C-38.32505859 509.17632324 -39.33761719 508.97764648 -40.38085938 508.77294922 C-87.05072351 499.44037453 -128.93858757 478.09074355 -164.3125 446.375 C-164.81104492 445.92850098 -165.30958984 445.48200195 -165.82324219 445.02197266 C-174.94283084 436.73498982 -174.94283084 436.73498982 -175.3125 430.375 C-175.10109375 429.67503906 -174.8896875 428.97507812 -174.671875 428.25390625 C-174.06216651 426.24418382 -174.06216651 426.24418382 -175.640625 424.33984375 C-176.27484375 423.67082031 -176.9090625 423.00179688 -177.5625 422.3125 C-178.18640625 421.64089844 -178.8103125 420.96929687 -179.453125 420.27734375 C-180.06671875 419.64957031 -180.6803125 419.02179688 -181.3125 418.375 C-181.83585937 417.78847656 -182.35921875 417.20195312 -182.8984375 416.59765625 C-183.36507812 416.19417969 -183.83171875 415.79070312 -184.3125 415.375 C-185.09625 415.54 -185.88 415.705 -186.6875 415.875 C-189.3125 416.375 -189.3125 416.375 -191.75390625 415.15625 C-222.25957862 393.9187132 -237.57743242 337.17680697 -244.0715332 303.02685547 C-244.52505112 300.48109759 -244.92583287 297.93179206 -245.3125 295.375 C-245.57740234 293.69132324 -245.57740234 293.69132324 -245.84765625 291.97363281 C-247.5045586 280.36052257 -247.71123513 268.84320055 -247.6875 257.125 C-247.68695618 256.11298523 -247.68641235 255.10097046 -247.68585205 254.05828857 C-247.64511956 237.52969428 -246.74174222 221.59586001 -243.3125 205.375 C-243.09287598 204.33311523 -242.87325195 203.29123047 -242.64697266 202.21777344 C-234.11006786 163.07972017 -216.91210736 127.82107343 -192.3125 96.375 C-191.68384033 95.56627441 -191.68384033 95.56627441 -191.04248047 94.74121094 C-178.27357906 78.49365226 -163.07659578 63.4565007 -146.3125 51.375 C-145.22412639 50.55880167 -144.13689856 49.7410734 -143.05078125 48.921875 C-110.11445198 24.38609499 -71.67473701 9.19726698 -31.3125 2.375 C-30.62333496 2.25640625 -29.93416992 2.1378125 -29.22412109 2.015625 C-19.527837 0.4197634 -9.81527621 0.12695797 0 0 Z " fill="#65D05E" transform="translate(247.3125,-0.375)"/>
<path d="M0 0 C16.83307873 13.53965029 29.53812725 32.27668595 40 51 C40.35868164 51.62455078 40.71736328 52.24910156 41.08691406 52.89257812 C55.26238063 77.64656468 64.96429232 105.75004627 69 134 C69.10151367 134.68610352 69.20302734 135.37220703 69.30761719 136.07910156 C70.94473554 147.60090293 71.20496185 159.13130447 71.25 170.75 C71.25790054 171.78046951 71.25790054 171.78046951 71.26596069 172.83175659 C71.39851064 195.18328325 68.17985406 218.82559877 61 240 C60.70496582 240.88349121 60.40993164 241.76698242 60.10595703 242.67724609 C50.624195 270.80111653 38.02414259 297.02240278 19 320 C18.56429688 320.5357666 18.12859375 321.0715332 17.6796875 321.62353516 C6.23229156 335.66703696 -6.50569286 349.07851927 -21 360 C-21.82999512 360.63663574 -21.82999512 360.63663574 -22.67675781 361.28613281 C-31.73457915 368.22079689 -41.06264436 374.40229678 -51 380 C-51.98540771 380.56050049 -51.98540771 380.56050049 -52.99072266 381.13232422 C-64.2638742 387.49466847 -75.89744116 392.44179252 -88 397 C-88.65629395 397.25265625 -89.31258789 397.5053125 -89.98876953 397.765625 C-115.36276675 407.52746203 -142.72404125 411.44939416 -169.8125 411.375 C-170.60548492 411.37412384 -171.39846985 411.37324768 -172.21548462 411.37234497 C-229.83455032 411.16474364 -283.84280309 389.69388072 -327.625 352.6875 C-328.1809082 352.22029541 -328.73681641 351.75309082 -329.30957031 351.27172852 C-333.28610411 347.83915453 -336.6775415 344.06401216 -340 340 C-336.50798157 341.35010608 -333.16327349 342.86272175 -329.81640625 344.5390625 C-293.99891347 362.2671752 -256.91068193 372.4773493 -216.8125 372.375 C-215.89414368 372.37345917 -214.97578735 372.37191833 -214.02960205 372.37033081 C-173.03198802 372.20751159 -134.1956311 362.30128597 -98 343 C-97.35111816 342.65888184 -96.70223633 342.31776367 -96.03369141 341.96630859 C-67.63771892 326.95371246 -41.81305509 305.26077777 -22 280 C-21.23300781 279.0615625 -20.46601563 278.123125 -19.67578125 277.15625 C-8.14976658 262.75337177 1.27320645 246.72775474 9 230 C9.29567871 229.37383789 9.59135742 228.74767578 9.89599609 228.10253906 C25.16558587 195.6349192 32.45580806 160.5212608 32.3125 124.75 C32.31134186 123.85024445 32.31018372 122.95048889 32.30899048 122.02346802 C32.27721569 109.52987172 31.8857155 97.33812972 29.40576172 85.05273438 C29.01100613 83.05567964 28.68498127 81.05923032 28.37890625 79.046875 C24.02561835 52.33228836 13.94891763 27.13471331 0.77514648 3.62207031 C0 2 0 2 0 0 Z " fill="#52BB76" transform="translate(426,86)"/>
<path d="M0 0 C7.44618044 4.76159926 11.96562974 9.97152328 15.05859375 18.31640625 C15.6897237 21.93498373 15.71224218 25.43645008 15.65454102 29.1027832 C15.65859955 30.13009048 15.66265808 31.15739777 15.6668396 32.21583557 C15.67232595 34.42777333 15.66643617 36.63976352 15.65017891 38.85164833 C15.62464547 42.35330779 15.62959329 45.85379694 15.64207458 49.35551453 C15.66275489 56.78010903 15.64315393 64.204336 15.62109375 71.62890625 C15.599981 80.25277017 15.59538796 88.87625675 15.62159538 97.50011253 C15.62495759 100.94869316 15.60373595 104.39655207 15.58119202 107.845047 C15.58370264 109.95570025 15.58726204 112.06635261 15.59204102 114.17700195 C15.57915543 115.13449341 15.56626984 116.09198486 15.55299377 117.07849121 C15.58502529 121.31448991 15.71035113 123.7167328 17.87405396 127.44262695 C20.01202123 129.67084097 20.01202123 129.67084097 23.4777832 129.4362793 C27.67943773 128.12224171 29.37847458 126.61484719 32.3515625 123.3984375 C32.82370682 122.90357346 33.29585114 122.40870941 33.78230286 121.89884949 C35.78266795 119.80155993 37.74600906 117.67099105 39.71118164 115.54077148 C47.72509665 106.91525058 55.88914216 99.35701041 68.24609375 98.69140625 C77.79875322 99.25186215 84.52715082 103.51837381 91.05859375 110.31640625 C96.18231826 116.92331417 97.85534459 123.09659337 97.05859375 131.31640625 C95.76032462 140.16439263 91.23824506 145.2068557 85.05859375 151.31640625 C83.55030155 152.8250414 82.04253532 154.33420248 80.53515625 155.84375 C78.09073691 158.29036778 75.64275942 160.7325547 73.17944336 163.16015625 C72.0387439 164.28744141 72.0387439 164.28744141 70.875 165.4375 C69.84548218 166.44961548 69.84548218 166.44961548 68.79516602 167.48217773 C66.87896866 169.40250554 66.87896866 169.40250554 65.05859375 172.31640625 C65.1962139 173.82180219 65.39068622 175.32239533 65.62109375 176.81640625 C65.71866048 181.22642245 64.53756344 183.61690884 61.63623047 186.94775391 C55.66769643 193.08481126 55.66769643 193.08481126 51.453125 193.69140625 C49.85040326 193.52833122 48.24963505 193.34429898 46.65209961 193.13647461 C43.17857724 193.37745983 42.10961571 194.55913797 39.60546875 196.9453125 C38.735271 197.7693457 37.86507324 198.59337891 36.96850586 199.44238281 C35.99569449 200.39750594 35.02587112 201.35567911 34.05859375 202.31640625 C33.53693634 202.83448853 33.01527893 203.3525708 32.47781372 203.88635254 C27.80728848 208.54673143 23.17864658 213.24892503 18.57299805 217.97338867 C16.82113977 219.76778286 15.05978419 221.55240802 13.296875 223.3359375 C12.7737825 223.87765091 12.25069 224.41936432 11.71174622 224.97749329 C4.69240898 232.04458348 -3.14617574 235.58633062 -13.19140625 235.69140625 C-33.23858532 235.3190735 -45.35025966 218.10150548 -58.62109375 204.91015625 C-59.45643772 204.08013596 -60.29178169 203.25011566 -61.15243912 202.39494324 C-65.56282414 198.01111936 -69.96964142 193.62374118 -74.37402344 189.23388672 C-78.00610746 185.61519287 -81.64534332 182.00392885 -85.29101562 178.39892578 C-89.71625593 174.02302268 -94.12907637 169.63495342 -98.53326797 165.23786926 C-100.20591095 163.57192445 -101.88279427 161.91022534 -103.56405258 160.25297546 C-105.9138626 157.93485536 -108.24733283 155.60137786 -110.57763672 153.26367188 C-111.61250969 152.25340691 -111.61250969 152.25340691 -112.66828918 151.22273254 C-118.98166775 144.8271585 -122.93870029 137.23669943 -123.25390625 128.12890625 C-123.19312236 122.84939105 -121.43178563 118.89801012 -118.94140625 114.31640625 C-118.38453125 113.26453125 -117.82765625 112.21265625 -117.25390625 111.12890625 C-112.50021252 105.34738685 -105.50457064 100.95341175 -98.03125 99.91015625 C-96.99097656 99.87921875 -95.95070312 99.84828125 -94.87890625 99.81640625 C-93.34556641 99.7390625 -93.34556641 99.7390625 -91.78125 99.66015625 C-79.63974376 101.73520513 -72.05339883 109.5156127 -64.06640625 118.12890625 C-62.57678376 119.72751961 -61.08277736 121.32044115 -59.57174683 122.89884949 C-58.21587181 124.31572346 -56.87902534 125.75073617 -55.54345703 127.18676758 C-52.48674403 129.68852283 -50.89725929 130.47511877 -46.94140625 130.31640625 C-44.10210572 128.30838892 -42.23478197 126.68972398 -41.48731613 123.19077015 C-41.31277809 120.50754385 -41.3035915 117.86568325 -41.34545898 115.17700195 C-41.34140045 114.15845627 -41.33734192 113.13991058 -41.3331604 112.09049988 C-41.32764482 109.88121341 -41.33364695 107.67187491 -41.34982109 105.46264076 C-41.37523349 101.96000564 -41.37044357 98.45854803 -41.35792542 94.95585632 C-41.33716431 87.5134106 -41.35685001 80.07132802 -41.37890625 72.62890625 C-41.40003749 64.01973453 -41.4044976 55.41094273 -41.37840462 46.80177879 C-41.37505555 43.36174555 -41.39623145 39.92244491 -41.41880798 36.48249817 C-41.41629484 34.35592492 -41.41273294 32.22935257 -41.40795898 30.1027832 C-41.42084457 29.1554129 -41.43373016 28.2080426 -41.44700623 27.23196411 C-41.39023541 19.6046257 -39.54759655 13.01083447 -35.1171875 6.73046875 C-25.37452668 -2.62411963 -12.72314848 -6.70008003 0 0 Z " fill="#D3FEDE" transform="translate(268.94140625,139.68359375)"/>
<path d="M0 0 C46.54845927 9.89754611 89.06890167 32.33389619 123.32421875 65.32666016 C124.31325195 66.27484619 124.31325195 66.27484619 125.32226562 67.2421875 C134.8105218 76.38663494 143.55042315 85.68400025 151.32421875 96.32666016 C152.18228027 97.47771032 153.04035326 98.62875193 153.8984375 99.77978516 C159.93775824 107.97255512 165.28379471 116.48969835 170.32421875 125.32666016 C170.68338379 125.94250977 171.04254883 126.55835938 171.41259766 127.19287109 C193.12372047 164.64870128 202.8090112 207.91140717 202.63671875 250.88916016 C202.6345636 251.85810211 202.63240845 252.82704407 202.63018799 253.8253479 C202.39787116 318.98350481 177.61686147 381.30077777 132.32421875 428.32666016 C131.69209473 428.98601562 131.0599707 429.64537109 130.40869141 430.32470703 C121.26181822 439.81548016 111.95976181 448.53986792 101.32421875 456.32666016 C100.23141761 457.1491077 99.13896909 457.97202398 98.046875 458.79541016 C66.82382253 482.02433207 30.53881298 497.29383523 -7.67578125 504.32666016 C-8.4764502 504.4874707 -9.27711914 504.64828125 -10.10205078 504.81396484 C-38.16905169 510.30398115 -71.67762369 510.07609731 -99.67578125 504.32666016 C-100.68833984 504.1279834 -101.70089844 503.92930664 -102.74414062 503.72460938 C-149.41400476 494.39203469 -191.30186882 473.04240371 -226.67578125 441.32666016 C-227.17432617 440.88016113 -227.67287109 440.43366211 -228.18652344 439.97363281 C-237.24453092 431.74260887 -237.24453092 431.74260887 -237.67578125 425.32666016 C-236.85992304 422.65657873 -236.15684013 421.6584249 -233.86328125 420.07666016 C-231.2079791 419.16627085 -229.47701947 419.01770006 -226.67578125 419.32666016 C-224.3515625 420.97900391 -224.3515625 420.97900391 -221.98828125 423.26416016 C-221.1065625 424.09431641 -220.22484375 424.92447266 -219.31640625 425.77978516 C-218.00929688 427.04048828 -218.00929688 427.04048828 -216.67578125 428.32666016 C-203.5344302 440.90880478 -188.5616868 451.4994025 -172.67578125 460.32666016 C-171.97582031 460.72304688 -171.27585937 461.11943359 -170.5546875 461.52783203 C-114.16409342 493.29089952 -48.40481952 499.22197298 13.49902344 482.13916016 C60.72967213 468.55606312 105.54815264 439.89070647 135.32421875 400.32666016 C135.79891602 399.70662109 136.27361328 399.08658203 136.76269531 398.44775391 C168.77672385 356.45299837 186.52937378 305.54119122 186.57421875 252.70166016 C186.57489349 251.98044983 186.57556824 251.2592395 186.57626343 250.51617432 C186.48510612 188.64336182 162.49096087 128.76926657 119.32421875 84.32666016 C118.77507812 83.75173828 118.2259375 83.17681641 117.66015625 82.58447266 C109.96218429 74.53499512 101.99533919 67.23507919 93.04345703 60.6015625 C91.37450553 59.36395035 89.72244322 58.10612196 88.0703125 56.84619141 C58.21371174 34.44484435 19.66462349 17.52552312 -17.6875 14.01416016 C-21.24855409 13.19488497 -23.04842597 11.82619815 -25.67578125 9.32666016 C-27.09619946 6.48582374 -26.99030397 4.47188738 -26.67578125 1.32666016 C-21.56318529 -6.76828345 -7.70741138 -1.57226631 0 0 Z " fill="#000100" transform="translate(309.67578125,4.67333984375)"/>
<path d="M0 0 C13.71835518 -0.61455059 24.82001157 4.77152762 34.765625 13.81640625 C42.66282137 21.99790169 45.70373598 31.56410177 45.78344727 42.63183594 C45.79334686 43.48098068 45.80324646 44.33012543 45.81344604 45.20500183 C45.84499747 48.00773341 45.86979335 50.81048193 45.89453125 53.61328125 C45.91510626 55.55813026 45.93610288 57.50297485 45.95750427 59.44781494 C46.01266838 64.5638267 46.06210263 69.67987844 46.11035156 74.79595947 C46.16060791 80.01765496 46.2162724 85.23929247 46.27148438 90.4609375 C46.37899671 100.70437754 46.48045707 110.94786795 46.578125 121.19140625 C47.24271729 120.50941162 47.90730957 119.82741699 48.59204102 119.12475586 C49.47561279 118.22764893 50.35918457 117.33054199 51.26953125 116.40625 C52.14037354 115.51800537 53.01121582 114.62976074 53.90844727 113.71459961 C62.45214192 105.63969479 72.4978905 102.1443706 84.140625 101.81640625 C94.48244009 102.10979108 102.06022841 105.49754347 110.578125 111.19140625 C111.465 111.76890625 112.351875 112.34640625 113.265625 112.94140625 C122.02691066 121.46590041 127.60553139 132.94738609 127.890625 145.19140625 C127.70758118 161.55552371 118.78193382 173.55627896 107.578125 184.59179688 C106.49480267 185.64584464 105.41146923 186.69988099 104.328125 187.75390625 C103.22829164 188.84221538 102.12932776 189.93140391 101.03125 191.02148438 C99.9799475 192.05938526 98.92789198 193.09652409 97.875 194.1328125 C97.38747253 194.61295303 96.89994507 195.09309357 96.39764404 195.58778381 C90.79173725 201.03647703 90.79173725 201.03647703 86.640625 201.56640625 C83.578125 201.19140625 83.578125 201.19140625 81.203125 199.62890625 C79.578125 197.19140625 79.578125 197.19140625 78.765625 194.06640625 C80.39525611 186.29431942 87.51541897 181.21870879 93.04296875 175.86328125 C93.83848145 175.08509033 94.63399414 174.30689941 95.45361328 173.50512695 C97.04983139 171.94872635 98.65853239 170.40500254 100.28076172 168.87573242 C107.16836418 162.18750405 111.55210061 154.78547945 111.890625 145.00390625 C111.7583269 136.93372189 107.88319017 130.725119 102.515625 124.91796875 C96.38247471 119.45254047 89.08746944 117.64635771 81.0300293 117.8215332 C69.22260836 119.08670349 61.37425961 127.75625283 53.765625 136.00390625 C51.81861817 138.11149096 49.85173427 140.19748796 47.87109375 142.2734375 C47.0205542 143.19358643 46.17001465 144.11373535 45.29370117 145.06176758 C41.87854212 147.74004074 39.91890842 148.41877917 35.578125 148.19140625 C31.80055985 144.85164956 30.29364721 142.56904991 29.97253418 137.51300049 C29.95562146 135.65488335 29.96594686 133.79639338 29.99804688 131.93847656 C29.99559464 130.91978485 29.9931424 129.90109314 29.99061584 128.85153198 C29.98844716 126.64497496 29.99770138 124.43838348 30.0171051 122.23191071 C30.04718569 118.73339686 30.04613402 115.2361052 30.0369873 111.73748779 C30.02070946 103.04680213 30.05802223 94.35649335 30.09356689 85.66589355 C30.12156574 78.32304684 30.12915668 70.98071988 30.11000061 63.63784027 C30.10938531 60.20209621 30.13851543 56.76743784 30.16882324 53.33184814 C30.16674723 51.20853485 30.16327952 49.08522231 30.15820312 46.96191406 C30.17468399 46.01611481 30.19116486 45.07031555 30.20814514 44.09585571 C30.13844368 36.34057775 27.89100198 29.85753324 22.63434601 24.04036331 C16.45218572 18.13035114 10.67160402 16.07859345 2.203125 15.69140625 C-5.35419555 15.90133182 -10.82919517 18.00621374 -16.48828125 23.0234375 C-23.48651774 30.4307567 -24.87049871 37.89170419 -24.79077148 47.75073242 C-24.79453796 48.77774765 -24.79830444 49.80476288 -24.80218506 50.86289978 C-24.80859385 53.08032 -24.80830986 55.29776771 -24.80200005 57.51518822 C-24.79286324 61.02490416 -24.80314219 64.53408898 -24.81861877 68.04377747 C-24.85865734 78.01770248 -24.85991549 87.99158414 -24.85766602 97.96557617 C-24.85761497 104.07625189 -24.87674825 110.18663886 -24.90699959 116.29723549 C-24.91783623 119.75459444 -24.90569034 123.21140551 -24.89317322 126.66874695 C-24.90207509 128.78592474 -24.91214859 130.90309805 -24.92358398 133.02026367 C-24.90896873 134.46121399 -24.90896873 134.46121399 -24.89405823 135.93127441 C-24.93989768 140.17768982 -25.03567667 142.55630209 -27.28114319 146.24897766 C-29.421875 148.19140625 -29.421875 148.19140625 -32.171875 149.44140625 C-39.2802444 148.8946086 -44.86168906 140.7749802 -49.55957031 135.83374023 C-58.33397117 126.67497762 -65.74248854 119.21719503 -79.046875 118.50390625 C-86.79505919 118.89410258 -92.44242613 121.66535177 -98.296875 126.62890625 C-103.72308757 133.17228023 -106.97681181 139.09170238 -106.73046875 147.69921875 C-105.13243541 160.60485513 -96.44995996 168.30141681 -87.7175293 177.08862305 C-86.9815451 177.83278473 -86.24556091 178.57694641 -85.48727417 179.34365845 C-83.07655067 181.77898004 -80.66189212 184.21033796 -78.24609375 186.640625 C-77.41548746 187.47655497 -76.58488117 188.31248493 -75.729105 189.17374611 C-71.33767867 193.59178367 -66.94266305 198.00621831 -62.54516602 202.41821289 C-58.91962348 206.05712058 -55.30149756 209.70316576 -51.68969727 213.35571289 C-47.30963892 217.7851636 -42.91736333 222.20214313 -38.5160923 226.61051369 C-36.84818051 228.28511881 -35.18451043 229.96396038 -33.52530479 231.647192 C-31.20002074 234.00423405 -28.85930308 236.34486549 -26.5144043 238.68237305 C-25.8413475 239.37183517 -25.16829071 240.0612973 -24.47483826 240.77165222 C-16.36825315 248.77473408 -7.69174187 252.5139687 3.6784668 252.50170898 C21.12064006 252.11976358 32.11183646 236.78674211 43.515625 225.25390625 C45.91767358 222.82522812 48.32306038 220.39992648 50.73046875 217.9765625 C51.27420639 217.42452652 51.81794403 216.87249054 52.37815857 216.3037262 C58.25022907 210.39347737 58.25022907 210.39347737 62.453125 209.75390625 C66.67353711 210.34476394 68.04176404 211.83445792 70.578125 215.19140625 C71.06141788 218.37367904 70.89620552 219.72729552 69.06201172 222.40356445 C68.34287598 223.15468506 67.62374023 223.90580566 66.8828125 224.6796875 C66.0587793 225.54932129 65.23474609 226.41895508 64.38574219 227.31494141 C63.45036285 228.27424403 62.51446898 229.23304516 61.578125 230.19140625 C60.57659173 231.23432895 59.57563234 232.27780301 58.57519531 233.32177734 C55.87262716 236.12870292 53.14048518 238.90474351 50.39501953 241.66967773 C49.26616779 242.81009491 48.14180883 243.95497674 47.02197266 245.10424805 C37.09700252 255.28826888 27.44729159 263.01042572 13.578125 267.19140625 C12.93875 267.38605469 12.299375 267.58070313 11.640625 267.78125 C-1.42771964 270.38006854 -14.60497996 267.37406534 -25.69773483 260.37565231 C-28.46114296 258.47757276 -30.88914301 256.24256655 -33.31494141 253.94189453 C-33.86735315 253.42468401 -34.4197649 252.90747349 -34.9889164 252.37458992 C-42.38118136 245.40927712 -49.56720477 238.23067247 -56.7578125 231.05859375 C-57.50943287 230.30980076 -58.26105324 229.56100777 -59.03544998 228.78952408 C-63.00140084 224.8384251 -66.96457775 220.88456979 -70.92529297 216.92822266 C-74.98996331 212.86906415 -79.0638578 208.81929505 -83.13991356 204.77157402 C-86.30212618 201.62804912 -89.45754867 198.47777382 -92.61119461 195.32565689 C-94.11007236 193.82978449 -95.61142519 192.33638752 -97.11539841 190.84563828 C-122.40151438 165.76634881 -122.40151438 165.76634881 -122.671875 147.06640625 C-122.54782379 134.74398607 -117.83143919 124.15258949 -109.4921875 115.109375 C-100.07078213 106.38124286 -89.21647746 102.50206186 -76.4609375 102.9140625 C-63.81401796 104.06821583 -54.63696918 108.86954002 -45.74291992 117.83544922 C-44.52870613 119.05722366 -44.52870613 119.05722366 -43.28996277 120.30368042 C-42.6734938 120.92662994 -42.05702484 121.54957947 -41.421875 122.19140625 C-41.41822937 121.09861359 -41.41458374 120.00582092 -41.41082764 118.87991333 C-41.37379319 108.55211873 -41.31592837 98.22461996 -41.23797226 87.89705086 C-41.19856088 82.5882562 -41.16634129 77.27962584 -41.15087891 71.97070312 C-41.13567061 66.84170994 -41.101151 61.71316866 -41.05356598 56.58437729 C-41.03879516 54.6333396 -41.03083647 52.68223737 -41.02999115 50.73114395 C-41.01295528 31.11655505 -41.01295528 31.11655505 -36.421875 23.19140625 C-35.83148438 22.15628906 -35.24109375 21.12117188 -34.6328125 20.0546875 C-27.50459919 10.15102092 -18.09766912 3.1193605 -6.046875 0.44140625 C-4.03067596 0.30235804 -2.01470589 0.15922676 0 0 Z " fill="#030503" transform="translate(253.421875,121.80859375)"/>
<path d="M0 0 C1.78192749 -0.03915527 1.78192749 -0.03915527 3.59985352 -0.07910156 C5.27712524 -0.08248535 5.27712524 -0.08248535 6.98828125 -0.0859375 C8.49128784 -0.09826416 8.49128784 -0.09826416 10.0246582 -0.11083984 C13.43256879 0.51093902 14.63282547 1.62625721 16.6875 4.375 C16.62450518 7.96570498 16.46601471 10.35954603 14.25 13.25 C11.03460216 15.56508644 8.43001828 15.51105126 4.52075195 15.61376953 C-63.01293844 17.49576404 -123.16851501 46.2083206 -169.59863281 94.55615234 C-173.44452696 98.63762121 -176.94185368 102.89635575 -180.3125 107.375 C-180.78719727 107.99503906 -181.26189453 108.61507812 -181.75097656 109.25390625 C-190.72243257 121.02231276 -198.3756823 133.30878518 -205.3125 146.375 C-205.9310083 147.53588135 -205.9310083 147.53588135 -206.56201172 148.72021484 C-213.86068855 162.65241074 -218.70120312 177.37344191 -223.3125 192.375 C-223.66634766 193.48875 -223.66634766 193.48875 -224.02734375 194.625 C-235.88674134 232.45105245 -234.26185703 277.49290976 -224.3125 315.375 C-224.09142578 316.22239746 -223.87035156 317.06979492 -223.64257812 317.94287109 C-215.79619932 347.39801063 -203.17929163 375.52632499 -184.5 399.75 C-182.07913383 402.97271424 -181.33852014 404.22597554 -180.625 408.3125 C-181.35193874 411.55068167 -181.84281024 413.16079539 -184.3125 415.375 C-186.6875 416.3125 -186.6875 416.3125 -189.3125 416.375 C-212.77466867 404.39990911 -227.59093917 360.62497316 -235.31298828 337.36083984 C-239.7214379 323.59080058 -243.15001311 309.67419657 -245.3125 295.375 C-245.57740234 293.69132324 -245.57740234 293.69132324 -245.84765625 291.97363281 C-247.5045586 280.36052257 -247.71123513 268.84320055 -247.6875 257.125 C-247.68695618 256.11298523 -247.68641235 255.10097046 -247.68585205 254.05828857 C-247.64511956 237.52969428 -246.74174222 221.59586001 -243.3125 205.375 C-243.09287598 204.33311523 -242.87325195 203.29123047 -242.64697266 202.21777344 C-234.11006786 163.07972017 -216.91210736 127.82107343 -192.3125 96.375 C-191.68384033 95.56627441 -191.68384033 95.56627441 -191.04248047 94.74121094 C-178.27357906 78.49365226 -163.07659578 63.4565007 -146.3125 51.375 C-145.22412639 50.55880167 -144.13689856 49.7410734 -143.05078125 48.921875 C-110.11445198 24.38609499 -71.67473701 9.19726698 -31.3125 2.375 C-30.62333496 2.25640625 -29.93416992 2.1378125 -29.22412109 2.015625 C-19.527837 0.4197634 -9.81527621 0.12695797 0 0 Z " fill="#000100" transform="translate(247.3125,-0.375)"/>
<path d="M0 0 C10.70381297 -0.59557537 17.77207424 0.44685736 26.25 7.125 C31.69554724 12.3265982 35.1311349 18.62230433 35.63250732 26.20652771 C35.66123153 28.07683995 35.6636198 29.94769006 35.64355469 31.81811523 C35.6524321 32.8486351 35.66130951 33.87915497 35.67045593 34.94090271 C35.69397048 38.31380267 35.68298684 41.685646 35.671875 45.05859375 C35.68246193 47.4136721 35.69537635 49.76874103 35.71051025 52.12379456 C35.74462366 58.29905903 35.75009518 64.47400718 35.74859619 70.64935303 C35.75182974 79.37502499 35.79448488 88.10061 35.83233643 96.82618713 C35.85235872 101.46924475 35.86168496 106.11213478 35.86248779 110.75523376 C35.86630701 112.86603805 35.87015086 114.97684229 35.87402344 117.08764648 C35.87192368 118.05232849 35.86982391 119.0170105 35.86766052 120.01092529 C35.87022354 120.89249802 35.87278656 121.77407074 35.87542725 122.68235779 C35.8753857 123.44828467 35.87534416 124.21421156 35.87530136 125.00334835 C35.92741427 127.20970797 35.92741427 127.20970797 37 130 C31.90751573 134.26667601 28.70167332 135.46218437 22 135 C17.77064675 133.17368837 15.90405524 131.1601124 14 127 C13.56532671 123.61974828 13.6036599 120.26467812 13.63110352 116.8605957 C13.62733704 115.84205002 13.62357056 114.82350433 13.61968994 113.77409363 C13.61326032 111.56481661 13.61358482 109.35551193 13.61987495 107.14623451 C13.62898951 103.64378547 13.61875522 100.14187133 13.60325623 96.63945007 C13.56317549 86.68224933 13.56194909 76.72509026 13.56420898 66.76782227 C13.56426022 60.67355032 13.54502287 54.57956568 13.51487541 48.48537254 C13.50408548 45.04542069 13.51616234 41.60602564 13.52870178 38.16609192 C13.51979154 36.03951477 13.50971514 33.91294208 13.49829102 31.78637695 C13.50803452 30.83900665 13.51777802 29.89163635 13.52781677 28.91555786 C13.44006236 20.6835755 11.17431431 13.05614974 5.9375 6.5625 C5.45152344 5.94503906 4.96554688 5.32757813 4.46484375 4.69140625 C3.04224724 3.04878148 1.55907307 1.51280978 0 0 Z " fill="#B0FEC4" transform="translate(249,137)"/>
<path d="M0 0 C10.39345463 -0.63310384 17.24018702 0.67037173 25.3125 7.375 C31.30719442 12.96448645 34.97691724 18.94797444 35.3125 27.25 C34.94365056 38.26015572 30.64961295 44.43716276 23 52 C21.4917078 53.50863515 19.98394157 55.01779623 18.4765625 56.52734375 C16.03214316 58.97396153 13.58416567 61.41614845 11.12084961 63.84375 C9.98015015 64.97103516 9.98015015 64.97103516 8.81640625 66.12109375 C8.13006104 66.7958374 7.44371582 67.47058105 6.73657227 68.16577148 C4.82037491 70.08609929 4.82037491 70.08609929 3 73 C3.13762015 74.50539594 3.33209247 76.00598908 3.5625 77.5 C3.66006673 81.9100162 2.47896969 84.30050259 -0.42236328 87.63134766 C-6.39089732 93.76840501 -6.39089732 93.76840501 -10.60546875 94.375 C-12.20819049 94.21192497 -13.8089587 94.02789273 -15.40649414 93.82006836 C-18.88001651 94.06105358 -19.94897804 95.24273172 -22.453125 97.62890625 C-23.32332275 98.45293945 -24.19352051 99.27697266 -25.09008789 100.12597656 C-26.06289926 101.08109969 -27.03272263 102.03927286 -28 103 C-28.52165741 103.51808228 -29.04331482 104.03616455 -29.58078003 104.56994629 C-34.25130527 109.23032518 -38.87994717 113.93251878 -43.4855957 118.65698242 C-45.23745398 120.45137661 -46.99880956 122.23600177 -48.76171875 124.01953125 C-49.28481125 124.56124466 -49.80790375 125.10295807 -50.34684753 125.66108704 C-56.32155452 131.67644031 -63.23438668 135.75931246 -71.8671875 136.1953125 C-73.20326637 136.18221369 -74.53928077 136.15865184 -75.875 136.125 C-76.56335938 136.11597656 -77.25171875 136.10695313 -77.9609375 136.09765625 C-79.64077838 136.07432513 -81.32043746 136.03846326 -83 136 C-83 135.67 -83 135.34 -83 135 C-81.76933556 134.74283203 -81.76933556 134.74283203 -80.5138092 134.48046875 C-75.57483312 132.39953626 -72.51827747 129.08440485 -68.77905273 125.3125 C-67.97666168 124.51872452 -67.17427063 123.72494904 -66.3475647 122.90711975 C-63.69928812 120.28153414 -61.06601159 117.64147873 -58.43359375 115 C-56.59377875 113.16542069 -54.75344414 111.33136235 -52.91261292 109.49780273 C-49.05523682 105.65083794 -45.2052907 101.7966449 -41.3605957 97.93701172 C-36.93207396 93.49160497 -32.48748075 89.06276292 -28.03436512 84.64200401 C-23.7355624 80.37324502 -19.45098877 76.09048052 -15.17186165 71.80200195 C-13.35728201 69.98660453 -11.53887334 68.17502576 -9.71652031 66.36743164 C-7.16262495 63.83105338 -4.62534694 61.27909496 -2.09155273 58.72265625 C-1.34284409 57.9856398 -0.59413544 57.24862335 0.17726135 56.48927307 C8.55065575 47.9637683 12.3125 39.21128584 12.3125 27.32983398 C12.10815985 16.97466484 8.83448732 10.08938298 1.609375 2.6796875 C0 1 0 1 0 0 Z " fill="#B0FCC3" transform="translate(331,239)"/>
<path d="M0 0 C0.47308594 0.36351562 0.94617188 0.72703125 1.43359375 1.1015625 C6.49092673 4.94631857 11.68086955 8.52778985 17 12 C14.03312999 13.64826111 11.34373475 14.44271087 8 15 C0.04087653 6.42372524 0.04087653 6.42372524 -1 2 C-0.67 1.34 -0.34 0.68 0 0 Z " fill="#52BD71" transform="translate(65,411)"/>
</svg>
