<?xml version="1.0" encoding="UTF-8"?>
<svg version="1.1" xmlns="http://www.w3.org/2000/svg" width="512" height="512">
<path d="M0 0 C1.79212096 -0.00346232 3.58423979 -0.00823072 5.37635422 -0.01418173 C10.27022644 -0.02664248 15.16392193 -0.02054387 20.05779457 -0.01122308 C25.3475829 -0.00441266 30.63734164 -0.01492368 35.92712402 -0.02316284 C46.27768513 -0.03648113 56.62818087 -0.03363092 66.97874451 -0.02492492 C75.39318375 -0.01814129 83.80760471 -0.01723459 92.2220459 -0.02049637 C94.02053392 -0.02118592 94.02053392 -0.02118592 95.85535502 -0.0218894 C98.29131858 -0.0228486 100.72728213 -0.02382124 103.16324568 -0.02480717 C125.98876402 -0.03335549 148.81424618 -0.02353568 171.63975859 -0.00740607 C191.21200561 0.00599659 210.78419925 0.00366834 230.35644531 -0.01016235 C253.10201013 -0.02622802 275.84754325 -0.03253157 298.59311295 -0.02332556 C301.01996103 -0.02236995 303.44680913 -0.02142683 305.87365723 -0.02049637 C307.06761698 -0.02003354 308.26157674 -0.01957072 309.4917171 -0.01909386 C317.8930454 -0.01650694 326.29435354 -0.02086856 334.69567871 -0.02793503 C344.93837628 -0.03636117 355.18100491 -0.03404642 365.42369461 -0.0180928 C370.64657128 -0.01022513 375.86933312 -0.00709284 381.09220886 -0.01704025 C385.87887785 -0.02601879 390.6653262 -0.02100245 395.45197535 -0.0051076 C397.1779148 -0.00177314 398.90387313 -0.00342358 400.62980032 -0.01073496 C416.57260163 -0.07305944 430.44205367 1.32110468 442.59082031 12.77938843 C452.30707387 23.08210427 455.35625972 32.75877076 455.3152771 46.70266724 C455.31980821 47.83611454 455.32433933 48.96956185 455.32900774 50.13735604 C455.3416585 53.93181204 455.34003091 57.72612463 455.33837891 61.52059937 C455.34327781 64.2426711 455.35111273 66.96473281 455.35873413 69.6867981 C455.37532335 76.3116681 455.38084274 82.93650252 455.38195889 89.56139156 C455.38291039 94.94872144 455.3870258 100.33603961 455.39336014 105.72336578 C455.41096724 121.01012529 455.42019989 136.29685676 455.41869919 151.58362648 C455.41857932 152.81893196 455.41857932 152.81893196 455.41845703 154.07919312 C455.41837527 154.9037401 455.41829351 155.72828708 455.41820927 156.57782033 C455.41739662 169.93630275 455.43653026 183.29467236 455.46473376 196.65312216 C455.49348958 210.38192557 455.50727256 224.11067401 455.50554621 237.8395083 C455.50488322 245.54219088 455.51033558 253.24475519 455.53190231 260.94741058 C455.55014972 267.5064029 455.5544324 274.06522335 455.54088347 280.62423012 C455.53437136 283.96752656 455.53636266 287.31022573 455.55158997 290.65353394 C455.56706153 294.2864148 455.55772024 297.91843722 455.54232788 301.55130005 C455.55261501 302.59616758 455.56290213 303.64103511 455.57350099 304.7175653 C455.46314864 316.54717865 451.19385571 327.07793207 442.90722656 335.57626343 C429.60919087 347.8339766 415.42306282 348.83530414 398.09570312 348.76190186 C396.30358216 348.76536418 394.51146333 348.77013258 392.71934891 348.77608359 C387.82547669 348.78854433 382.9317812 348.78244573 378.03790855 348.77312493 C372.74812022 348.76631451 367.45836148 348.77682553 362.1685791 348.7850647 C351.81801799 348.79838299 341.46752226 348.79553277 331.11695862 348.78682677 C322.70251938 348.78004314 314.28809842 348.77913645 305.87365723 348.78239822 C304.07516921 348.78308777 304.07516921 348.78308777 302.2403481 348.78379125 C299.80438454 348.78475046 297.36842099 348.7857231 294.93245745 348.78670903 C272.1069391 348.79525734 249.28145695 348.78543754 226.45594454 348.76930793 C206.88369751 348.75590526 187.31150387 348.75823351 167.73925781 348.77206421 C144.993693 348.78812987 122.24815987 348.79443342 99.50259018 348.78522742 C97.07574209 348.7842718 94.648894 348.78332869 92.2220459 348.78239822 C91.02808614 348.7819354 89.83412638 348.78147257 88.60398602 348.78099572 C80.20265773 348.77840879 71.80134959 348.78277042 63.40002441 348.78983688 C53.15732684 348.79826303 42.91469822 348.79594828 32.67200851 348.77999465 C27.44913184 348.77212698 22.22637 348.7689947 17.00349426 348.77894211 C12.21682528 348.78792064 7.43037692 348.78290431 2.64372778 348.76700945 C0.91778832 348.76367499 -0.80817 348.76532543 -2.53409719 348.77263682 C-18.4768985 348.83496129 -32.34635055 347.44079717 -44.49511719 335.98251343 C-54.21137075 325.67979758 -57.26055659 316.0031311 -57.21957397 302.05923462 C-57.22410509 300.92578731 -57.2286362 299.79234001 -57.23330462 298.62454581 C-57.24595537 294.83008982 -57.24432778 291.03577723 -57.24267578 287.24130249 C-57.24757468 284.51923075 -57.25540961 281.79716905 -57.26303101 279.07510376 C-57.27962023 272.45023375 -57.28513962 265.82539934 -57.28625576 259.20051029 C-57.28720727 253.81318042 -57.29132268 248.42586225 -57.29765701 243.03853607 C-57.31526412 227.75177656 -57.32449677 212.4650451 -57.32299607 197.17827538 C-57.32291615 196.35473839 -57.32283624 195.5312014 -57.32275391 194.68270874 C-57.32267214 193.85816176 -57.32259038 193.03361478 -57.32250614 192.18408152 C-57.3216935 178.8255991 -57.34082713 165.4672295 -57.36903064 152.1087797 C-57.39778645 138.37997628 -57.41156944 124.65122784 -57.40984309 110.92239356 C-57.40918009 103.21971098 -57.41463246 95.51714666 -57.43619919 87.81449127 C-57.45444659 81.25549895 -57.45872928 74.6966785 -57.44518034 68.13767174 C-57.43866823 64.7943753 -57.44065954 61.45167613 -57.45588684 58.10836792 C-57.4713584 54.47548705 -57.46201712 50.84346464 -57.44662476 47.21060181 C-57.45691188 46.16573427 -57.46719901 45.12086674 -57.47779787 44.04433656 C-57.36744552 32.21472321 -53.09815259 21.68396978 -44.81152344 13.18563843 C-31.51348775 0.92792526 -17.32735969 -0.07340228 0 0 Z " fill="#151C22" transform="translate(56.9521484375,81.61904907226563)"/>
<path d="M0 0 C1.77470372 0.00112959 3.5494093 0.00049244 5.32411194 -0.00177002 C10.12111219 -0.00291375 14.9177092 0.02054015 19.71461606 0.04852581 C24.73541781 0.0735965 29.75622966 0.07588593 34.77708435 0.08062744 C44.27543583 0.09304058 53.7736023 0.12583969 63.27187246 0.1660254 C76.11346538 0.21917235 88.95510918 0.24070201 101.7967844 0.26403427 C122.01627273 0.30160229 142.23537073 0.38130422 162.45483398 0.45410156 C162.45483398 55.56410156 162.45483398 110.67410156 162.45483398 167.45410156 C96.12483398 167.45410156 29.79483398 167.45410156 -38.54516602 167.45410156 C-38.64829102 143.40535156 -38.75141602 119.35660156 -38.85766602 94.57910156 C-38.90318604 86.99570801 -38.94870605 79.41231445 -38.99560547 71.59912109 C-39.01818848 62.31323242 -39.01818848 62.31323242 -39.02238464 57.96115112 C-39.02702855 54.93223626 -39.04570709 51.90376298 -39.07304382 48.87496948 C-39.10752779 45.00255447 -39.11758775 41.13077474 -39.1105274 37.25822043 C-39.11200211 35.84264619 -39.12180653 34.42704805 -39.14124167 33.01160645 C-39.26419962 23.61453319 -38.33212499 15.96223671 -31.987813 8.66212654 C-22.58583376 -0.13094617 -12.16902876 -0.10864927 0 0 Z " fill="#1750CD" transform="translate(55.545166015625,98.5458984375)"/>
<path d="M0 0 C158.4 0 316.8 0 480 0 C480 6.6 480 13.2 480 20 C478.23798336 21.76201664 475.72456097 21.14323762 473.33447266 21.15771484 C472.12296539 21.16797699 470.91145813 21.17823914 469.66323853 21.18881226 C468.34351044 21.19611359 467.02378235 21.20341492 465.6640625 21.2109375 C464.30503518 21.2238929 462.94601581 21.23770804 461.58700562 21.25234985 C455.80254259 21.31406114 450.01809988 21.368019 444.23339844 21.40136719 C440.69832719 21.42229839 437.16364485 21.4575906 433.62879562 21.50212479 C431.62416579 21.52319987 429.61938903 21.5283382 427.61465454 21.53329468 C426.39684296 21.54986115 425.17903137 21.56642761 423.92431641 21.58349609 C422.31334579 21.59562637 422.31334579 21.59562637 420.66983032 21.60800171 C417.9753857 21.78371994 417.9753857 21.78371994 416.15463257 23.40493774 C414.71463369 25.39421807 414.59727792 26.56045716 414.625 29 C414.61726563 29.680625 414.60953125 30.36125 414.6015625 31.0625 C415.1338656 33.65095429 415.8990415 34.40020317 418 36 C420.76359681 36.47422832 420.76359681 36.47422832 423.94018555 36.43237305 C425.77174446 36.46206429 425.77174446 36.46206429 427.64030457 36.49235535 C428.95912125 36.49874527 430.27793793 36.50513519 431.63671875 36.51171875 C433.00008263 36.52856431 434.36343097 36.5467144 435.72676086 36.56611633 C439.31221662 36.61363653 442.89760938 36.6434324 446.48327637 36.66955566 C450.14327439 36.6993513 453.80305525 36.74588495 457.46289062 36.79101562 C464.64183804 36.87707174 471.82075353 36.94285899 479 37 C479 43.6 479 50.2 479 57 C321.26 57 163.52 57 1 57 C1 50.4 1 43.8 1 37 C3.01142216 36.99853344 5.02284431 36.99706688 7.09521866 36.99555588 C54.80652001 36.96014986 102.51776077 36.90367578 150.22900636 36.82207905 C156.09716936 36.81206119 161.96533263 36.80221713 167.83349609 36.79248047 C169.00177723 36.7905391 170.17005836 36.78859772 171.37374195 36.78659752 C190.30825957 36.75554816 209.24276506 36.73858868 228.17730334 36.72680578 C247.59549045 36.71440941 267.01361373 36.68694234 286.43176055 36.64538693 C298.42075053 36.6202081 310.40963471 36.60688591 322.39865151 36.60857043 C330.61194533 36.60860011 338.82513111 36.59403535 347.03838286 36.56783572 C351.7821201 36.5531395 356.52563577 36.54502961 361.26939201 36.55419731 C365.60839723 36.56244126 369.94695589 36.55244876 374.2858946 36.52766338 C375.85929677 36.52194627 377.43274081 36.52304652 379.00613073 36.53148755 C381.13843462 36.54195095 383.26921574 36.52802752 385.40141678 36.50780869 C386.58766309 36.5062898 387.7739094 36.50477092 388.99610257 36.50320601 C392.62739935 35.8948995 393.81209689 34.9135693 396 32 C396.66666667 29 396.66666667 29 396 26 C394.1329009 23.69724444 392.64352259 22.32176129 390 21 C387.8895848 20.89973315 385.7759202 20.86607808 383.66312981 20.8613348 C382.67196967 20.85707147 382.67196967 20.85707147 381.66078609 20.85272202 C379.42503932 20.84433565 377.18934409 20.84310374 374.95358276 20.84178162 C373.34318325 20.83721894 371.73278492 20.83221936 370.12238801 20.82681805 C365.68029552 20.81319394 361.23821072 20.80580627 356.79610276 20.79939139 C352.01217128 20.79140615 347.22825588 20.77770195 342.44433594 20.76467896 C334.15027239 20.74288951 325.85620723 20.72475407 317.56212997 20.70907402 C305.57016597 20.68639782 293.57821976 20.65825191 281.58627082 20.62875474 C262.13190324 20.58105118 242.67752839 20.53779451 223.22314453 20.49731445 C204.32079503 20.45797357 185.41845199 20.41655074 166.51611328 20.37231445 C165.35171045 20.36959018 164.18730762 20.36686591 162.98761986 20.36405908 C157.14637326 20.35037984 151.30512676 20.33665952 145.4638803 20.32291877 C96.97593364 20.20891059 48.48797291 20.10218462 0 20 C0 13.4 0 6.8 0 0 Z " fill="#E81F33" transform="translate(16,319)"/>
<path d="M0 0 C5.61 0 11.22 0 17 0 C17.66 1.65 18.32 3.3 19 5 C21.6858169 7.6858169 23.06992879 7.27246826 26.82666016 7.31884766 C28.65833237 7.34865219 28.65833237 7.34865219 30.52700806 7.37905884 C31.86435769 7.39093608 33.20170925 7.40259889 34.5390625 7.4140625 C35.90385112 7.43276749 37.26862811 7.4523404 38.63339233 7.4727478 C42.22706243 7.52414605 45.82077005 7.56373027 49.41461182 7.60089111 C53.0811904 7.64088279 56.74761185 7.6919971 60.4140625 7.7421875 C67.60927556 7.83903785 74.80454903 7.9223853 82 8 C82 14.6 82 21.2 82 28 C-75.74 28 -233.48 28 -396 28 C-396 21.4 -396 14.8 -396 8 C-393.98857784 7.99853344 -391.97715569 7.99706688 -389.90478134 7.99555588 C-342.19347999 7.96014986 -294.48223923 7.90367578 -246.77099364 7.82207905 C-240.90283064 7.81206119 -235.03466737 7.80221713 -229.16650391 7.79248047 C-227.99822277 7.7905391 -226.82994164 7.78859772 -225.62625805 7.78659752 C-206.69174043 7.75554816 -187.75723494 7.73858868 -168.82269666 7.72680578 C-149.40450955 7.71440941 -129.98638627 7.68694234 -110.56823945 7.64538693 C-98.57924947 7.6202081 -86.59036529 7.60688591 -74.60134849 7.60857043 C-66.38805467 7.60860011 -58.17486889 7.59403535 -49.96161714 7.56783572 C-45.2178799 7.5531395 -40.47436423 7.54502961 -35.73060799 7.55419731 C-31.39160277 7.56244126 -27.05304411 7.55244876 -22.7141054 7.52766338 C-21.14070323 7.52194627 -19.56725919 7.52304652 -17.99386927 7.53148755 C-15.86156538 7.54195095 -13.73078426 7.52802752 -11.59858322 7.50780869 C-10.41233691 7.5062898 -9.2260906 7.50477092 -8.00389743 7.50320601 C-4.36721152 6.89399672 -3.21526047 5.89413211 -1 3 C-0.67 2.01 -0.34 1.02 0 0 Z " fill="#FEFEFE" transform="translate(413,348)"/>
<path d="M0 0 C158.4 0 316.8 0 480 0 C480 6.6 480 13.2 480 20 C321.6 20 163.2 20 0 20 C0 13.4 0 6.8 0 0 Z " fill="#FBFBFC" transform="translate(16,283)"/>
<path d="M0 0 C157.08 0 314.16 0 476 0 C473.49162181 8.77932365 470.8476086 12.7083691 462.89309692 17.16722488 C454.77770616 21.08050436 446.86911087 20.83580457 438.08544922 20.76190186 C436.28522039 20.76882477 434.48500006 20.77836045 432.68479729 20.79026532 C427.76375732 20.81521178 422.8434194 20.80297918 417.92237759 20.78434801 C412.60528856 20.77073705 407.28831776 20.79174424 401.97125244 20.80822754 C391.56534781 20.83487486 381.15970319 20.82915907 370.75378847 20.81175169 C362.29496411 20.79818859 353.83621249 20.79636922 345.37738037 20.80289459 C344.17241342 20.80381399 342.96744648 20.80473339 341.72596538 20.80568065 C339.27792054 20.80759904 336.82987573 20.80954432 334.38183093 20.8115162 C311.43898981 20.82861596 288.49629265 20.80896838 265.55347514 20.776714 C245.87737489 20.74990831 226.20148704 20.75456473 206.52539062 20.78222656 C183.66335365 20.81435244 160.80144277 20.82696809 137.93938637 20.80855298 C135.50046414 20.80664173 133.06154189 20.80475551 130.62261963 20.80289459 C129.42269595 20.80196894 128.22277227 20.80104329 126.98648727 20.80008958 C118.54009396 20.79491408 110.0937808 20.80364251 101.6473999 20.81777191 C91.35077443 20.83461822 81.05442332 20.83000766 70.75782919 20.79808745 C65.50661467 20.78234358 60.2558572 20.77610117 55.0046463 20.79598236 C50.19307831 20.81392324 45.382389 20.80393578 40.5709002 20.77211705 C38.83486108 20.76544098 37.098747 20.76876575 35.36275649 20.78337178 C24.27814877 20.86944538 14.64084814 19.89027174 5.94888496 12.18071055 C2.09661305 8.21994645 1.65322512 5.78628792 0 0 Z " fill="#EB1E33" transform="translate(18,393)"/>
<path d="M0 0 C5.61 0 11.22 0 17 0 C17.99 1.98 18.98 3.96 20 6 C22.00550292 8.00550292 26.07824767 7.15480203 28.82691956 7.15821838 C30.07164289 7.16562535 30.07164289 7.16562535 31.34151214 7.17318195 C34.14376963 7.18863535 36.94600409 7.19693866 39.74829102 7.20532227 C41.74841518 7.21489464 43.74853729 7.22490433 45.74865723 7.23532104 C51.1967583 7.26244565 56.64486811 7.28341417 62.0929997 7.30332303 C67.77986586 7.32513615 73.46670489 7.35254763 79.15354919 7.37937927 C89.93057992 7.42936957 100.70762566 7.47428481 111.48468584 7.51740164 C123.75051534 7.56671997 136.01631762 7.62165808 148.28212082 7.67708123 C173.52138869 7.79099852 198.76068294 7.89761687 224 8 C224 14.6 224 21.2 224 28 C137.54 28 51.08 28 -38 28 C-38 21.4 -38 14.8 -38 8 C-35.66421875 7.97421875 -33.3284375 7.9484375 -30.921875 7.921875 C-28.65466361 7.88343979 -26.38767854 7.83828469 -24.12060547 7.79248047 C-22.54747356 7.76429046 -20.97420053 7.74306602 -19.40087891 7.72900391 C-17.13631044 7.70754558 -14.87343496 7.66088652 -12.609375 7.609375 C-11.90818542 7.60814636 -11.20699585 7.60691772 -10.48455811 7.60565186 C-7.11811076 7.50513177 -5.29051182 7.22279235 -2.58691406 5.14941406 C-0.82776982 2.99843549 -0.82776982 2.99843549 0 0 Z " fill="#FCFCFC" transform="translate(272,201)"/>
<path d="M0 0 C86.46 0 172.92 0 262 0 C262 6.6 262 13.2 262 20 C258.19519356 20.00879936 258.19519356 20.00879936 254.31352234 20.01777649 C230.45951799 20.07436251 206.6056049 20.14740036 182.75169659 20.23571491 C170.48689825 20.2807248 158.22212928 20.32012741 145.95727539 20.34643555 C135.27011342 20.36937364 124.58304401 20.40272452 113.89595538 20.44870156 C108.23461033 20.47269041 102.57335727 20.49138201 96.91196251 20.49761391 C91.58747284 20.50363922 86.26321873 20.52354604 80.93881607 20.55427551 C78.98083567 20.56309687 77.02282454 20.56676991 75.06482506 20.56500816 C72.39875066 20.56336617 69.73340359 20.57996199 67.06742859 20.60127258 C66.28630461 20.59642501 65.50518063 20.59157743 64.70038623 20.58658296 C60.65907942 20.62706756 60.65907942 20.62706756 57.05828571 22.27492046 C55.72247027 24.25851291 55.72247027 24.25851291 55 28 C49.39 28 43.78 28 38 28 C37.34 26.35 36.68 24.7 36 23 C32.39359333 20.59572889 29.66318794 20.65421124 25.48828125 20.5859375 C24.76005661 20.56657135 24.03183197 20.5472052 23.28153992 20.5272522 C20.95864525 20.46753624 18.63570081 20.42110383 16.3125 20.375 C14.73630668 20.33681279 13.16013405 20.29776062 11.58398438 20.2578125 C7.7227648 20.16021453 3.86176214 20.08058592 0 20 C0 13.4 0 6.8 0 0 Z " fill="#E91E33" transform="translate(234,173)"/>
<path d="M0 0 C86.13 0 172.26 0 261 0 C261 6.6 261 13.2 261 20 C174.87 20 88.74 20 0 20 C0 13.4 0 6.8 0 0 Z " fill="#EC1E33" transform="translate(234,246)"/>
<path d="M0 0 C86.13 0 172.26 0 261 0 C261 6.6 261 13.2 261 20 C174.87 20 88.74 20 0 20 C0 13.4 0 6.8 0 0 Z " fill="#FEFEFE" transform="translate(234,136)"/>
<path d="M0 0 C30.37026128 -0.13578221 60.74046615 -0.24313517 91.11096092 -0.30639198 C94.70060206 -0.31389576 98.29024259 -0.32166174 101.87988281 -0.32958984 C102.59448263 -0.33116371 103.30908245 -0.33273757 104.04533681 -0.33435912 C115.59947489 -0.36043094 127.15343292 -0.40771829 138.70746437 -0.46291678 C150.57264128 -0.51912683 162.43772423 -0.55237394 174.30302882 -0.56453097 C180.96357086 -0.57200805 187.62378532 -0.59066547 194.28421783 -0.63438034 C200.55841694 -0.67522504 206.83204195 -0.68764469 213.10636139 -0.67864609 C215.40408451 -0.68029139 217.70182761 -0.69215479 219.99943542 -0.71523285 C244.60451724 -0.95017094 244.60451724 -0.95017094 254.02971268 7.9074955 C257.3377341 11.46894904 260 15.02448467 260 20 C174.2 20 88.4 20 0 20 C0 13.4 0 6.8 0 0 Z " fill="#EB1E33" transform="translate(234,99)"/>
<path d="M0 0 C2 3 2 3 1.8125 6.0625 C1 9 1 9 -2 11 C-4.5 11.375 -4.5 11.375 -7 11 C-9.2855347 8.87208838 -9.92303658 7.52591672 -10.375 4.4375 C-10 2 -10 2 -8.9375 0.125 C-5.79705307 -1.69848531 -3.4014687 -0.8658284 0 0 Z " fill="#EDF1FB" transform="translate(203,241)"/>
<path d="M0 0 C1.8125 1.125 1.8125 1.125 3 3 C3.39310741 6.14485925 3.47555213 8.13281671 1.9375 10.9375 C-1.21566824 12.66665678 -3.62508255 11.8590699 -7 11 C-9 8 -9 8 -8.8125 4.9375 C-7.47741613 0.1106583 -4.61266905 -0.57658363 0 0 Z " fill="#EDF2FB" transform="translate(169,240)"/>
<path d="M0 0 C2 3 2 3 1.8125 6.0625 C1 9 1 9 -2 11 C-4.5 11.375 -4.5 11.375 -7 11 C-9.2855347 8.87208838 -9.92303658 7.52591672 -10.375 4.4375 C-10 2 -10 2 -8.9375 0.125 C-5.79705307 -1.69848531 -3.4014687 -0.8658284 0 0 Z " fill="#EDF1FB" transform="translate(72,241)"/>
<path d="M0 0 C1.8125 1.125 1.8125 1.125 3 3 C3.39310741 6.14485925 3.47555213 8.13281671 1.9375 10.9375 C-1.21566824 12.66665678 -3.62508255 11.8590699 -7 11 C-9 8 -9 8 -8.8125 4.9375 C-7.47741613 0.1106583 -4.61266905 -0.57658363 0 0 Z " fill="#EDF2FB" transform="translate(38,240)"/>
<path d="M0 0 C0.66 0.66 1.32 1.32 2 2 C1.8125 5.5 1.8125 5.5 1 9 C-2 11 -2 11 -5.0625 10.8125 C-8 10 -8 10 -10 7 C-10.35242362 4.18061103 -10.34645957 2.61139923 -8.9375 0.125 C-5.82785011 -1.68060316 -3.38260527 -0.79952488 0 0 Z " fill="#EDF1FB" transform="translate(203,146)"/>
<path d="M0 0 C0.66 0.66 1.32 1.32 2 2 C1.8125 5.5 1.8125 5.5 1 9 C-2 11 -2 11 -5.0625 10.8125 C-8 10 -8 10 -10 7 C-10.35242362 4.18061103 -10.34645957 2.61139923 -8.9375 0.125 C-5.82785011 -1.68060316 -3.38260527 -0.79952488 0 0 Z " fill="#EDF1FB" transform="translate(72,146)"/>
<path d="M0 0 C2 3 2 3 1.8125 6.0625 C1 9 1 9 -2 11 C-4.83079592 11.35384949 -6.36830089 11.3920891 -8.8125 9.875 C-10.55198782 7.12844028 -10.39769128 5.18153026 -10 2 C-7.65569181 -2.27491494 -4.20074737 -1.06928115 0 0 Z " fill="#EDF1FB" transform="translate(154,130)"/>
<path d="M0 0 C2.9375 0.75 2.9375 0.75 4.9375 2.75 C5.26704432 5.84771665 5.39084601 7.92331023 3.875 10.6875 C0.72183176 12.41665678 -1.68758255 11.6090699 -5.0625 10.75 C-7.0625 7.75 -7.0625 7.75 -6.875 4.6875 C-5.723712 0.52515108 -4.27834222 -0.34925243 0 0 Z " fill="#EDF2FB" transform="translate(118.0625,129.25)"/>
<path d="M0 0 C2.9375 0.8125 2.9375 0.8125 4.9375 2.8125 C5.26765665 5.91597254 5.44281294 7.97031176 3.8125 10.6875 C1.02643958 12.35913625 -0.88238862 12.27626624 -4.0625 11.8125 C-6 10.125 -6 10.125 -7.0625 7.8125 C-6.92427181 4.97882207 -6.38805369 3.32653215 -4.875 0.9375 C-3.0625 -0.1875 -3.0625 -0.1875 0 0 Z " fill="#EFF3FB" transform="translate(167.0625,113.1875)"/>
<path d="M0 0 C2.73145737 0.88772365 3.89120004 1.44163691 5.5 3.8125 C5.9375 6.3125 5.9375 6.3125 5.5 8.8125 C3.37208838 11.0980347 2.02591672 11.73553658 -1.0625 12.1875 C-3.5 11.8125 -3.5 11.8125 -5.375 10.75 C-7.19848531 7.60955307 -6.3658284 5.2139687 -5.5 1.8125 C-2.5 -0.1875 -2.5 -0.1875 0 0 Z " fill="#EEF2FB" transform="translate(68.5,113.1875)"/>
<path d="M0 0 C1.875 1.1875 1.875 1.1875 3 3 C2.875 6.0625 2.875 6.0625 2 9 C-1.23253796 11.15502531 -2.25150923 11.46856135 -6 11 C-7.8125 9.875 -7.8125 9.875 -9 8 C-9.4375 5 -9.4375 5 -9 2 C-6.13326387 -1.29143778 -4.01983549 -1.44301787 0 0 Z " fill="#EFF3FB" transform="translate(153,225)"/>
<path d="M0 0 C1.8125 1.125 1.8125 1.125 3 3 C3.4375 6 3.4375 6 3 9 C1.3125 10.9375 1.3125 10.9375 -1 12 C-3.83367793 11.86177181 -5.48596785 11.32555369 -7.875 9.8125 C-9 8 -9 8 -8.875 4.9375 C-7.44632865 0.14124618 -4.63376989 -0.57922124 0 0 Z " fill="#EFF3FB" transform="translate(38,145)"/>
<path d="M0 0 C2.73145737 0.88772365 3.89120004 1.44163691 5.5 3.8125 C5.9375 6.3125 5.9375 6.3125 5.5 8.8125 C3.38269813 11.08663905 1.99656188 11.72772114 -1.0625 12.25 C-3.5 11.8125 -3.5 11.8125 -5.375 10.1875 C-6.89781243 6.97267375 -6.52316469 5.17432684 -5.5 1.8125 C-2.5 -0.1875 -2.5 -0.1875 0 0 Z " fill="#EFF3FB" transform="translate(199.5,113.1875)"/>
<path d="M0 0 C2.9375 0.8125 2.9375 0.8125 4.9375 2.8125 C5.26704432 5.91021665 5.39084601 7.98581023 3.875 10.75 C0.72183176 12.47915678 -1.68758255 11.6715699 -5.0625 10.8125 C-7.0625 7.8125 -7.0625 7.8125 -6.875 5.3125 C-5.51469029 1.12693167 -4.56367367 -0.27940859 0 0 Z " fill="#F0F3FB" transform="translate(36.0625,113.1875)"/>
<path d="M0 0 C2.9375 0.875 2.9375 0.875 4.9375 3.875 C4.49305556 9.31944444 4.49305556 9.31944444 1.9375 11.875 C-1 12.25 -1 12.25 -4.0625 11.875 C-6 10.1875 -6 10.1875 -7.0625 7.875 C-6.92427181 5.04132207 -6.38805369 3.38903215 -4.875 1 C-3.0625 -0.125 -3.0625 -0.125 0 0 Z " fill="#F0F4FC" transform="translate(118.0625,224.125)"/>
<path d="M0 0 C1.875 1.0625 1.875 1.0625 3 3 C2.875 6.5625 2.875 6.5625 2 10 C-1 12 -1 12 -3.5 11.8125 C-6.25387823 10.91748958 -7.46886237 10.46683286 -9 8 C-8.875 4.9375 -8.875 4.9375 -8 2 C-4.76746204 -0.15502531 -3.74849077 -0.46856135 0 0 Z " fill="#F0F4FC" transform="translate(169,145)"/>
<path d="M0 0 C1.8125 1.125 1.8125 1.125 3 3 C3.39769128 6.18153026 3.55198782 8.12844028 1.8125 10.875 C-0.65507108 12.40659584 -2.14519831 12.42822025 -5 12 C-6.8125 10.875 -6.8125 10.875 -8 9 C-8.39769128 5.81846974 -8.55198782 3.87155972 -6.8125 1.125 C-4.34492892 -0.40659584 -2.85480169 -0.42822025 0 0 Z " fill="#F4F6FC" transform="translate(185,224)"/>
<path d="M0 0 C1.8125 1.125 1.8125 1.125 3 3 C3.39769128 6.18153026 3.55198782 8.12844028 1.8125 10.875 C-0.65507108 12.40659584 -2.14519831 12.42822025 -5 12 C-6.8125 10.875 -6.8125 10.875 -8 9 C-8.39769128 5.81846974 -8.55198782 3.87155972 -6.8125 1.125 C-4.34492892 -0.40659584 -2.85480169 -0.42822025 0 0 Z " fill="#F4F6FC" transform="translate(54,224)"/>
<path d="M0 0 C1.875 1.1875 1.875 1.1875 3 3 C3.42822025 5.85480169 3.40659584 7.34492892 1.875 9.8125 C-0.87155972 11.55198782 -2.81846974 11.39769128 -6 11 C-7.9375 9.9375 -7.9375 9.9375 -9 8 C-8.8125 4.375 -8.8125 4.375 -8 1 C-5.20129973 -0.39935013 -3.09501208 -0.25265405 0 0 Z " fill="#F3F6FC" transform="translate(202,209)"/>
<path d="M0 0 C1.7325 0.1546875 1.7325 0.1546875 3.5 0.3125 C5.65502531 3.54503796 5.96856135 4.56400923 5.5 8.3125 C4.375 10.125 4.375 10.125 2.5 11.3125 C-0.5 11.75 -0.5 11.75 -3.5 11.3125 C-5.4375 9.625 -5.4375 9.625 -6.5 7.3125 C-6.14910617 2.39998643 -5.11900839 0.45705432 0 0 Z " fill="#F4F6FC" transform="translate(166.5,208.6875)"/>
<path d="M0 0 C1.875 1.1875 1.875 1.1875 3 3 C3.42822025 5.85480169 3.40659584 7.34492892 1.875 9.8125 C-0.87155972 11.55198782 -2.81846974 11.39769128 -6 11 C-7.9375 9.9375 -7.9375 9.9375 -9 8 C-8.8125 4.375 -8.8125 4.375 -8 1 C-5.20129973 -0.39935013 -3.09501208 -0.25265405 0 0 Z " fill="#F3F6FC" transform="translate(71,209)"/>
<path d="M0 0 C1.7325 0.1546875 1.7325 0.1546875 3.5 0.3125 C5.65502531 3.54503796 5.96856135 4.56400923 5.5 8.3125 C4.375 10.125 4.375 10.125 2.5 11.3125 C-0.5 11.75 -0.5 11.75 -3.5 11.3125 C-5.4375 9.625 -5.4375 9.625 -6.5 7.3125 C-6.14910617 2.39998643 -5.11900839 0.45705432 0 0 Z " fill="#F4F6FC" transform="translate(35.5,208.6875)"/>
<path d="M0 0 C1.875 1.1875 1.875 1.1875 3 3 C3.42822025 5.85480169 3.40659584 7.34492892 1.875 9.8125 C-0.87155972 11.55198782 -2.81846974 11.39769128 -6 11 C-7.9375 9.9375 -7.9375 9.9375 -9 8 C-8.8125 4.375 -8.8125 4.375 -8 1 C-5.20129973 -0.39935013 -3.09501208 -0.25265405 0 0 Z " fill="#F4F7FC" transform="translate(153,193)"/>
<path d="M0 0 C1.9375 1.0625 1.9375 1.0625 3 3 C2.8125 6.625 2.8125 6.625 2 10 C-0.79870027 11.39935013 -2.90498792 11.25265405 -6 11 C-7.875 9.8125 -7.875 9.8125 -9 8 C-9.42822025 5.14519831 -9.40659584 3.65507108 -7.875 1.1875 C-5.12844028 -0.55198782 -3.18153026 -0.39769128 0 0 Z " fill="#F4F6FC" transform="translate(169,177)"/>
<path d="M0 0 C1.9375 1.0625 1.9375 1.0625 3 3 C2.8125 6.625 2.8125 6.625 2 10 C-0.79870027 11.39935013 -2.90498792 11.25265405 -6 11 C-7.875 9.8125 -7.875 9.8125 -9 8 C-9.42822025 5.14519831 -9.40659584 3.65507108 -7.875 1.1875 C-5.12844028 -0.55198782 -3.18153026 -0.39769128 0 0 Z " fill="#F4F6FC" transform="translate(38,177)"/>
<path d="M0 0 C2 2 2 2 2.3125 4.4375 C2 7 2 7 0.9375 8.8125 C-2.08503156 10.66501934 -4.54932719 10.37643703 -8 10 C-10.15502531 6.76746204 -10.46856135 5.74849077 -10 2 C-7.59255596 -2.24843066 -4.22911647 -0.99960935 0 0 Z " fill="#F3F6FC" transform="translate(154,162)"/>
<path d="M0 0 C1.9375 1.0625 1.9375 1.0625 3 3 C2.8125 6.625 2.8125 6.625 2 10 C-0.79870027 11.39935013 -2.90498792 11.25265405 -6 11 C-7.875 9.8125 -7.875 9.8125 -9 8 C-9.42822025 5.14519831 -9.40659584 3.65507108 -7.875 1.1875 C-5.12844028 -0.55198782 -3.18153026 -0.39769128 0 0 Z " fill="#F3F6FC" transform="translate(120,161)"/>
<path d="M0 0 C1.39935013 2.79870027 1.25265405 4.90498792 1 8 C-0.1875 9.875 -0.1875 9.875 -2 11 C-4.85480169 11.42822025 -6.34492892 11.40659584 -8.8125 9.875 C-10.55198782 7.12844028 -10.39769128 5.18153026 -10 2 C-7.65446208 -2.27715738 -4.20919664 -1.01332512 0 0 Z " fill="#F3F6FC" transform="translate(105,146)"/>
<path d="M0 0 C1.8125 1.125 1.8125 1.125 3 3 C3.39310741 6.14485925 3.47555213 8.13281671 1.9375 10.9375 C-1.18142449 12.64787795 -3.65557801 11.80513863 -7 11 C-8.39935013 8.20129973 -8.25265405 6.09501208 -8 3 C-5.90534242 -0.30735407 -3.75951639 -0.56392746 0 0 Z " fill="#F4F7FC" transform="translate(136,113)"/>
<path d="M0 0 C1.8125 1.125 1.8125 1.125 3 3 C3.39769128 6.18153026 3.55198782 8.12844028 1.8125 10.875 C-0.65507108 12.40659584 -2.14519831 12.42822025 -5 12 C-6.8125 10.875 -6.8125 10.875 -8 9 C-8.39769128 5.81846974 -8.55198782 3.87155972 -6.8125 1.125 C-4.34492892 -0.40659584 -2.85480169 -0.42822025 0 0 Z " fill="#F3F6FC" transform="translate(103,113)"/>
<path d="M0 0 C1.8125 1.125 1.8125 1.125 3 3 C3.39769128 6.18153026 3.55198782 8.12844028 1.8125 10.875 C-0.65507108 12.40659584 -2.14519831 12.42822025 -5 12 C-6.8125 10.875 -6.8125 10.875 -8 9 C-8.39769128 5.81846974 -8.55198782 3.87155972 -6.8125 1.125 C-4.34492892 -0.40659584 -2.85480169 -0.42822025 0 0 Z " fill="#F6F8FD" transform="translate(136,240)"/>
<path d="M0 0 C1.8125 1.125 1.8125 1.125 3 3 C3.39769128 6.18153026 3.55198782 8.12844028 1.8125 10.875 C-0.65507108 12.40659584 -2.14519831 12.42822025 -5 12 C-6.8125 10.875 -6.8125 10.875 -8 9 C-8.39769128 5.81846974 -8.55198782 3.87155972 -6.8125 1.125 C-4.34492892 -0.40659584 -2.85480169 -0.42822025 0 0 Z " fill="#F4F7FC" transform="translate(103,240)"/>
<path d="M0 0 C2.9375 0.8125 2.9375 0.8125 4.9375 2.8125 C5.26704432 5.91021665 5.39084601 7.98581023 3.875 10.75 C0.75607551 12.46037795 -1.71807801 11.61763863 -5.0625 10.8125 C-6.46185013 8.01379973 -6.31515405 5.90751208 -6.0625 2.8125 C-4.31169972 -0.20276715 -3.50175349 -0.21439307 0 0 Z " fill="#F5F7FC" transform="translate(85.0625,224.1875)"/>
<path d="M0 0 C1.875 1.1875 1.875 1.1875 3 3 C3.42822025 5.85480169 3.40659584 7.34492892 1.875 9.8125 C-0.87155972 11.55198782 -2.81846974 11.39769128 -6 11 C-7.875 9.8125 -7.875 9.8125 -9 8 C-9.42822025 5.14519831 -9.40659584 3.65507108 -7.875 1.1875 C-5.12844028 -0.55198782 -3.18153026 -0.39769128 0 0 Z " fill="#F6F8FD" transform="translate(120,193)"/>
<path d="M0 0 C1.875 1.1875 1.875 1.1875 3 3 C3.42822025 5.85480169 3.40659584 7.34492892 1.875 9.8125 C-0.87155972 11.55198782 -2.81846974 11.39769128 -6 11 C-7.875 9.8125 -7.875 9.8125 -9 8 C-9.42822025 5.14519831 -9.40659584 3.65507108 -7.875 1.1875 C-5.12844028 -0.55198782 -3.18153026 -0.39769128 0 0 Z " fill="#F5F7FD" transform="translate(202,177)"/>
<path d="M0 0 C1.875 1.1875 1.875 1.1875 3 3 C3.42822025 5.85480169 3.40659584 7.34492892 1.875 9.8125 C-0.87155972 11.55198782 -2.81846974 11.39769128 -6 11 C-7.875 9.8125 -7.875 9.8125 -9 8 C-9.42822025 5.14519831 -9.40659584 3.65507108 -7.875 1.1875 C-5.12844028 -0.55198782 -3.18153026 -0.39769128 0 0 Z " fill="#F5F7FD" transform="translate(71,177)"/>
<path d="M0 0 C1.8125 1.125 1.8125 1.125 3 3 C3.39769128 6.18153026 3.55198782 8.12844028 1.8125 10.875 C-0.65507108 12.40659584 -2.14519831 12.42822025 -5 12 C-6.8125 10.875 -6.8125 10.875 -8 9 C-8.39769128 5.81846974 -8.55198782 3.87155972 -6.8125 1.125 C-4.34492892 -0.40659584 -2.85480169 -0.42822025 0 0 Z " fill="#F5F7FD" transform="translate(136,145)"/>
<path d="M0 0 C1.8125 1.125 1.8125 1.125 3 3 C3.39769128 6.18153026 3.55198782 8.12844028 1.8125 10.875 C-0.65507108 12.40659584 -2.14519831 12.42822025 -5 12 C-6.8125 10.875 -6.8125 10.875 -8 9 C-8.39769128 5.81846974 -8.55198782 3.87155972 -6.8125 1.125 C-4.34492892 -0.40659584 -2.85480169 -0.42822025 0 0 Z " fill="#F5F7FD" transform="translate(185,129)"/>
<path d="M0 0 C1.8125 1.125 1.8125 1.125 3 3 C3.39769128 6.18153026 3.55198782 8.12844028 1.8125 10.875 C-0.65507108 12.40659584 -2.14519831 12.42822025 -5 12 C-6.8125 10.875 -6.8125 10.875 -8 9 C-8.39769128 5.81846974 -8.55198782 3.87155972 -6.8125 1.125 C-4.34492892 -0.40659584 -2.85480169 -0.42822025 0 0 Z " fill="#F5F7FC" transform="translate(87,129)"/>
<path d="M0 0 C1.8125 1.125 1.8125 1.125 3 3 C3.39769128 6.18153026 3.55198782 8.12844028 1.8125 10.875 C-0.65507108 12.40659584 -2.14519831 12.42822025 -5 12 C-6.8125 10.875 -6.8125 10.875 -8 9 C-8.39769128 5.81846974 -8.55198782 3.87155972 -6.8125 1.125 C-4.34492892 -0.40659584 -2.85480169 -0.42822025 0 0 Z " fill="#F5F7FD" transform="translate(54,129)"/>
<path d="M0 0 C3.5 0.25 3.5 0.25 5.5 2.25 C5.75 5.75 5.75 5.75 5.5 9.25 C3.5 11.25 3.5 11.25 0.5625 11.5625 C-2.5 11.25 -2.5 11.25 -4.375 10.125 C-6.00531294 7.40781176 -5.83015665 5.35347254 -5.5 2.25 C-3.5 0.25 -3.5 0.25 0 0 Z " fill="#F6F8FD" transform="translate(182.5,192.75)"/>
<path d="M0 0 C3.5 0.25 3.5 0.25 5.5 2.25 C5.75 5.75 5.75 5.75 5.5 9.25 C3.5 11.25 3.5 11.25 0.5625 11.5625 C-2.5 11.25 -2.5 11.25 -4.375 10.125 C-6.00531294 7.40781176 -5.83015665 5.35347254 -5.5 2.25 C-3.5 0.25 -3.5 0.25 0 0 Z " fill="#F6F8FD" transform="translate(51.5,192.75)"/>
<path d="M0 0 C1.670625 0.37125 1.670625 0.37125 3.375 0.75 C4.75625018 3.51250036 4.56579306 5.69731099 4.375 8.75 C2.375 10.75 2.375 10.75 -1.125 11 C-4.625 10.75 -4.625 10.75 -6.625 8.75 C-6.9375 5.25 -6.9375 5.25 -6.625 1.75 C-3.625 -0.25 -3.625 -0.25 0 0 Z " fill="#F7F9FD" transform="translate(134.625,177.25)"/>
<path d="M0 0 C3.5 0.25 3.5 0.25 5.5 2.25 C5.82954432 5.34771665 5.95334601 7.42331023 4.4375 10.1875 C1.31857551 11.89787795 -1.15557801 11.05513863 -4.5 10.25 C-5.88125018 7.48749964 -5.69079306 5.30268901 -5.5 2.25 C-3.5 0.25 -3.5 0.25 0 0 Z " fill="#F8FAFD" transform="translate(133.5,208.75)"/>
<path d="M0 0 C3.0625 0.3125 3.0625 0.3125 5 1.375 C6.71037795 4.49392449 5.86763863 6.96807801 5.0625 10.3125 C2.29999964 11.69375018 0.11518901 11.50329306 -2.9375 11.3125 C-4.9375 9.3125 -4.9375 9.3125 -5.1875 5.8125 C-4.87458101 1.43163414 -4.40975115 0.46912246 0 0 Z " fill="#F8FAFD" transform="translate(83.9375,192.6875)"/>
<path d="M0 0 C1.8125 1.125 1.8125 1.125 3 3 C3.3125 6.0625 3.3125 6.0625 3 9 C1 11 1 11 -2.5 11.25 C-6 11 -6 11 -8 9 C-8.3125 5.5 -8.3125 5.5 -8 2 C-4.76746204 -0.15502531 -3.74849077 -0.46856135 0 0 Z " fill="#F8F9FD" transform="translate(87,161)"/>
<path d="M0 0 C3.5625 0.1875 3.5625 0.1875 5.5625 2.1875 C5.875 5.6875 5.875 5.6875 5.5625 9.1875 C2.32996204 11.34252531 1.31099077 11.65606135 -2.4375 11.1875 C-4.3125 10.125 -4.3125 10.125 -5.4375 8.1875 C-4.89124449 0.26679515 -4.89124449 0.26679515 0 0 Z " fill="#F9FAFD" transform="translate(100.4375,208.8125)"/>
<path d="M0 0 C2 2 2 2 2.25 5.5 C2 9 2 9 0 11 C-3.13704316 11.333728 -5.16554166 11.52849028 -7.875 9.8125 C-9.40659584 7.34492892 -9.42822025 5.85480169 -9 3 C-6.73157826 -0.65467947 -4.03373275 -0.4291205 0 0 Z " fill="#F9FAFD" transform="translate(104,177)"/>
<path d="M0 0 C1.38125018 2.76250036 1.19079306 4.94731099 1 8 C-1 10 -1 10 -4.5 10.25 C-8 10 -8 10 -10 8 C-10.32954432 4.90228335 -10.45334601 2.82668977 -8.9375 0.0625 C-5.81857551 -1.64787795 -3.34442199 -0.80513863 0 0 Z " fill="#F9FAFD" transform="translate(187,162)"/>
<path d="M0 0 C1.38125018 2.76250036 1.19079306 4.94731099 1 8 C-1 10 -1 10 -4.5 10.25 C-8 10 -8 10 -10 8 C-10.32954432 4.90228335 -10.45334601 2.82668977 -8.9375 0.0625 C-5.81857551 -1.64787795 -3.34442199 -0.80513863 0 0 Z " fill="#F9FAFD" transform="translate(56,162)"/>
</svg>
