<?xml version="1.0" encoding="UTF-8"?>
<svg version="1.1" xmlns="http://www.w3.org/2000/svg" width="512" height="512">
<path d="M0 0 C1.83500313 -0.00503792 1.83500313 -0.00503792 3.70707703 -0.01017761 C7.04213885 -0.01800735 10.37713828 -0.02135354 13.71220493 -0.0219934 C15.82208321 -0.02271133 17.93195526 -0.02486009 20.04183197 -0.02749062 C27.48117982 -0.03674137 34.92050988 -0.04082841 42.35986328 -0.04003906 C48.4142527 -0.0395124 54.46857653 -0.04641578 60.52294922 -0.06054688 C247.28780875 -0.48656328 247.28780875 -0.48656328 279.28808594 28.14526367 C280.03574219 28.80010742 280.78339844 29.45495117 281.55371094 30.12963867 C309.09631831 55.79859928 308.94053374 100.32081089 310.28808594 135.14526367 C310.46863507 142.1647388 310.47716767 149.18635733 310.49121094 156.20776367 C310.49403831 157.18692749 310.49686569 158.16609131 310.49977875 159.17492676 C310.51466067 164.37809502 310.52395396 169.58123645 310.52832031 174.78442383 C310.53266133 178.98210551 310.54639767 183.17957659 310.56933594 187.37719727 C310.68739065 209.44372387 310.50219602 231.40214688 308.88964844 253.41870117 C308.82636604 254.28667328 308.76308365 255.15464539 308.69788361 256.04891968 C307.7365047 268.89918551 306.43324992 281.61805863 303.28808594 294.14526367 C303.11051758 294.86665527 302.93294922 295.58804687 302.75 296.33129883 C297.58712207 316.55487145 287.27202081 332.70821599 269.65917969 344.18041992 C251.2831191 354.89091642 226.53725855 360.11006553 205.28808594 359.14526367 C201.70255713 357.50839182 200.49493539 356.45553784 198.28808594 353.14526367 C198.28808594 352.15526367 198.28808594 351.16526367 198.28808594 350.14526367 C197.43988281 350.30897461 196.59167969 350.47268555 195.71777344 350.64135742 C192.22353284 351.15474812 188.9418102 351.24377106 185.41308594 351.20776367 C184.26066406 351.19874023 183.10824219 351.1897168 181.92089844 351.18041992 C181.05207031 351.16881836 180.18324219 351.1572168 179.28808594 351.14526367 C179.1759375 352.0759668 179.06378906 353.00666992 178.94824219 353.96557617 C178.20744676 357.53366776 177.02391587 359.05587918 174.10058594 361.22729492 C170.61761864 362.99129776 168.15306442 362.69740346 164.28808594 362.14526367 C161.35058594 360.45776367 161.35058594 360.45776367 159.28808594 358.14526367 C158.95808594 356.49526367 158.62808594 354.84526367 158.28808594 353.14526367 C152.34808594 353.47526367 146.40808594 353.80526367 140.28808594 354.14526367 C139.29808594 356.12526367 138.30808594 358.10526367 137.28808594 360.14526367 C134.3758865 363.409825 132.10269706 364.37951543 127.8598938 364.74873352 C126.08285733 364.8146249 124.30491974 364.85854105 122.52685547 364.88476562 C121.55881044 364.91327008 120.59076542 364.94177454 119.5933857 364.97114277 C116.49157958 365.05356054 113.3906964 365.10400565 110.28808594 365.14526367 C109.30343102 365.16042904 108.31877609 365.17559441 107.30428314 365.19121933 C100.02538482 365.29358133 92.74729247 365.3108184 85.46777344 365.31323242 C83.11272158 365.31646488 80.7576699 365.31983023 78.40261841 365.32331848 C73.47950784 365.32926334 68.55641468 365.33116379 63.63330078 365.33056641 C58.70683037 365.33048609 53.78045482 365.33728366 48.85400391 365.35107422 C22.56005176 365.42348911 -3.69346591 365.25838912 -29.96972656 364.21948242 C-31.0229221 364.17786673 -32.07611763 364.13625103 -33.16122818 364.09337425 C-144.25649915 359.59412802 -144.25649915 359.59412802 -171.71191406 336.14526367 C-172.37578125 335.59354492 -173.03964844 335.04182617 -173.72363281 334.47338867 C-199.72057466 310.87167068 -199.80861635 267.48248889 -201.49627686 235.18257141 C-201.90339535 226.48740856 -201.89763255 217.78574102 -201.91503906 209.08276367 C-201.91786644 208.10359985 -201.92069382 207.12443604 -201.92360687 206.11560059 C-201.93848879 200.91243232 -201.94778209 195.70929089 -201.95214844 190.50610352 C-201.95648945 186.30842183 -201.97022579 182.11095075 -201.99316406 177.91333008 C-202.1103486 155.98604484 -201.94563078 134.15039194 -200.38378906 112.27026367 C-200.32531044 111.42951294 -200.26683182 110.58876221 -200.20658112 109.72253418 C-199.56531903 100.75922424 -198.62808349 91.88189994 -197.24804688 83.00073242 C-197.071597 81.86264633 -197.071597 81.86264633 -196.89158249 80.7015686 C-194.10178994 63.67795902 -188.37226408 47.17741958 -176.71191406 34.14526367 C-176.05707031 33.39760742 -175.40222656 32.64995117 -174.72753906 31.87963867 C-156.89725321 12.7478721 -129.52551626 7.75424763 -104.48144531 5.90698242 C-96.53856765 5.70762354 -96.53856765 5.70762354 -92.52441406 7.83276367 C-90.55276655 10.34831395 -89.97535086 11.98402207 -89.71191406 15.14526367 C-88.72191406 14.81526367 -87.73191406 14.48526367 -86.71191406 14.14526367 C-83.97902113 13.91728805 -81.26149202 13.7285818 -78.52441406 13.58276367 C-77.4000293 13.51798828 -77.4000293 13.51798828 -76.25292969 13.4519043 C-74.40613031 13.34603682 -72.55904572 13.24516607 -70.71191406 13.14526367 C-70.41414062 12.03022461 -70.11636719 10.91518555 -69.80957031 9.76635742 C-68.71191406 6.14526367 -68.71191406 6.14526367 -67.14941406 4.20776367 C-63.34582615 2.54978945 -59.78760235 2.49140994 -55.71191406 3.14526367 C-52.71191406 4.83276367 -52.71191406 4.83276367 -50.71191406 7.14526367 C-50.38191406 8.79526367 -50.05191406 10.44526367 -49.71191406 12.14526367 C-43.44191406 11.81526367 -37.17191406 11.48526367 -30.71191406 11.14526367 C-30.05191406 9.16526367 -29.39191406 7.18526367 -28.71191406 5.14526367 C-26.59882043 2.5919422 -24.88730236 1.31508058 -21.55725479 0.83396435 C-14.35867742 0.1826071 -7.22567103 -0.00289718 0 0 Z " fill="#FE0000" transform="translate(201.7119140625,73.854736328125)"/>
<path d="M0 0 C2.98413086 1.32250977 2.98413086 1.32250977 5.96484375 3.19140625 C7.64054443 4.22599976 7.64054443 4.22599976 9.35009766 5.28149414 C10.54608462 6.04153654 11.74188062 6.80187949 12.9375 7.5625 C14.18972125 8.34311477 15.44282757 9.12231139 16.69677734 9.90014648 C19.87571687 11.87679869 23.04334802 13.87080126 26.20806885 15.87011719 C28.88636026 17.55888488 31.57399761 19.23254259 34.26171875 20.90625 C38.18378737 23.3502921 42.10127349 25.80143152 46.015625 28.2578125 C52.28186277 32.18402147 58.57542138 36.06507045 64.875 39.9375 C65.95249512 40.59999756 67.02999023 41.26249512 68.14013672 41.94506836 C73.64054971 45.32529979 79.14369282 48.70104701 84.6484375 52.07421875 C95.25716741 58.57964571 105.84867625 65.11185682 116.375 71.75 C117.29055664 72.32250488 118.20611328 72.89500977 119.14941406 73.48486328 C120.41736816 74.28899658 120.41736816 74.28899658 121.7109375 75.109375 C122.44618652 75.57311523 123.18143555 76.03685547 123.93896484 76.51464844 C126.25069336 78.18067027 128.14763459 79.83010089 130 82 C130.84109916 88.62365591 130.84109916 88.62365591 128.5390625 92.390625 C125.06207418 95.96389915 121.14210511 98.27316033 116.875 100.8125 C114.97647477 101.96469921 113.0780415 103.11704994 111.1796875 104.26953125 C109.67293457 105.17759521 109.67293457 105.17759521 108.13574219 106.10400391 C102.73630774 109.36871957 97.37068955 112.68829344 92 116 C89.78786181 117.36084192 87.57562302 118.72152031 85.36328125 120.08203125 C76.23042286 125.70235742 67.11479735 131.35044888 58 137 C51.00242051 141.3372531 44.00284243 145.6712487 37 150 C35.38593262 150.99797607 35.38593262 150.99797607 33.73925781 152.01611328 C30.87076246 153.78920502 28.00107284 155.56035222 25.13070679 157.33041382 C23.49711444 158.3382222 21.86438537 159.34742947 20.23168945 160.35668945 C18.18002666 161.62092339 16.12483039 162.87944331 14.06591797 164.13183594 C11.95678888 165.41699725 9.85730878 166.71808559 7.76611328 168.03222656 C6.72052246 168.67385742 5.67493164 169.31548828 4.59765625 169.9765625 C3.66574463 170.55744629 2.73383301 171.13833008 1.77368164 171.73681641 C-1.42648748 173.19422993 -3.52040609 173.36785741 -7 173 C-10.48564025 170.7818653 -12.51342202 168.83607243 -14 165 C-14.26006222 162.057024 -14.26006222 162.057024 -14.27415466 158.56106567 C-14.27939134 157.9166801 -14.28462802 157.27229452 -14.29002339 156.60838211 C-14.30501346 154.45126077 -14.3057283 152.29437685 -14.30639648 150.13720703 C-14.31401861 148.58971761 -14.32244621 147.04223198 -14.33161926 145.49475098 C-14.35356499 141.29223236 -14.36236317 137.0897865 -14.36744571 132.88721704 C-14.37108897 130.26125761 -14.37732885 127.63531725 -14.3844471 125.00936508 C-14.40894114 115.84721794 -14.42199355 106.68512742 -14.42553711 97.52294922 C-14.42917311 88.9840931 -14.4590731 80.44559627 -14.50094169 71.90684998 C-14.53563506 64.57423963 -14.55108538 57.24174842 -14.55178314 49.90905654 C-14.55257624 45.53024577 -14.56132975 41.15180104 -14.58978081 36.7730751 C-14.61594559 32.65414201 -14.61817598 28.53587886 -14.60212517 24.41690063 C-14.60030942 22.90682388 -14.60701291 21.39670874 -14.62294388 19.88671494 C-14.75005102 7.05488217 -14.75005102 7.05488217 -11.58753967 3.11740112 C-7.53637738 -0.19769224 -5.24350376 -0.36650899 0 0 Z " fill="#030000" transform="translate(213,170)"/>
<path d="M0 0 C1.83500313 -0.00503792 1.83500313 -0.00503792 3.70707703 -0.01017761 C7.04213885 -0.01800735 10.37713828 -0.02135354 13.71220493 -0.0219934 C15.82208321 -0.02271133 17.93195526 -0.02486009 20.04183197 -0.02749062 C27.48117982 -0.03674137 34.92050988 -0.04082841 42.35986328 -0.04003906 C48.4142527 -0.0395124 54.46857653 -0.04641578 60.52294922 -0.06054688 C247.28780875 -0.48656328 247.28780875 -0.48656328 279.28808594 28.14526367 C280.03574219 28.80010742 280.78339844 29.45495117 281.55371094 30.12963867 C309.09631831 55.79859928 308.94053374 100.32081089 310.28808594 135.14526367 C310.46863507 142.1647388 310.47716767 149.18635733 310.49121094 156.20776367 C310.49403831 157.18692749 310.49686569 158.16609131 310.49977875 159.17492676 C310.51466067 164.37809502 310.52395396 169.58123645 310.52832031 174.78442383 C310.53266133 178.98210551 310.54639767 183.17957659 310.56933594 187.37719727 C310.68739065 209.44372387 310.50219602 231.40214688 308.88964844 253.41870117 C308.82636604 254.28667328 308.76308365 255.15464539 308.69788361 256.04891968 C307.7365047 268.89918551 306.43324992 281.61805863 303.28808594 294.14526367 C303.11051758 294.86665527 302.93294922 295.58804687 302.75 296.33129883 C297.58712207 316.55487145 287.27202081 332.70821599 269.65917969 344.18041992 C251.2831191 354.89091642 226.53725855 360.11006553 205.28808594 359.14526367 C201.70255713 357.50839182 200.49493539 356.45553784 198.28808594 353.14526367 C197.62009389 346.24267918 197.62009389 346.24267918 200.03808594 342.27026367 C203.29388355 339.1953437 206.00443086 337.95366325 210.45605469 337.65307617 C211.65959595 337.55869263 211.65959595 337.55869263 212.88745117 337.46240234 C214.16857788 337.3672937 214.16857788 337.3672937 215.47558594 337.27026367 C234.77432441 335.56810407 255.36671218 331.45046954 269.35058594 317.01635742 C286.46948863 296.39250698 286.91979742 265.567742 288.28808594 240.14526367 C288.35274048 238.97728241 288.35274048 238.97728241 288.41870117 237.78570557 C289.46043367 218.33028351 289.53177582 198.87288519 289.53808594 179.39526367 C289.53867508 178.56037163 289.53926422 177.72547958 289.53987122 176.86528778 C292.43000967 109.96726009 292.43000967 109.96726009 270.28808594 49.14526367 C269.81242187 48.50073242 269.33675781 47.85620117 268.84667969 47.19213867 C259.18041011 35.98633268 241.23216659 31.27813213 227.22558594 29.14526367 C226.1241626 28.97720215 225.02273926 28.80914062 223.88793945 28.63598633 C207.5920711 26.30847878 191.14354507 25.36446073 174.72650146 24.3034668 C172.39087977 24.15193288 170.05552017 23.99690186 167.72021484 23.84057617 C163.49337347 23.55847507 159.26592629 23.28693514 155.03808594 23.02026367 C153.85400146 22.94469238 152.66991699 22.86912109 151.44995117 22.79125977 C128.79885494 21.435896 106.1658867 21.01212444 83.47902107 21.16179466 C79.07738077 21.19037232 74.67573923 21.20685543 70.27403259 21.2212677 C57.78440103 21.2633815 45.29487252 21.312053 32.80541992 21.39208984 C25.85002818 21.43656494 18.89472947 21.4668205 11.93920797 21.48094732 C8.28009177 21.48899314 4.6213398 21.50439891 0.96235847 21.53761864 C-3.09056267 21.57439289 -7.14295827 21.58024025 -11.19604492 21.58349609 C-12.39642899 21.59944824 -13.59681305 21.61540039 -14.83357239 21.63183594 C-22.94111176 21.60202254 -22.94111176 21.60202254 -26.92970276 19.23847961 C-29.62309525 16.07507689 -30.53698506 13.27994916 -30.71191406 9.14526367 C-29.61785327 5.86308129 -28.88155841 3.873638 -25.90444565 2.01969624 C-18.14173928 -1.07625151 -8.22207502 -0.0032967 0 0 Z " fill="#010000" transform="translate(201.7119140625,73.854736328125)"/>
<path d="M0 0 C3.17397687 3.72121427 3.14194841 6.26563594 2.8125 11.125 C1.09863577 14.98119451 -0.34929459 16.52630987 -4.1875 18.125 C-5.94508347 18.52231871 -7.71930631 18.84915257 -9.5 19.125 C-10.56347656 19.29257813 -11.62695312 19.46015625 -12.72265625 19.6328125 C-16.28934482 20.13946725 -19.86100648 20.56854999 -23.4375 21 C-40.83254563 23.31459154 -56.9949945 27.64574218 -69.1875 41.125 C-75.1921357 49.18027544 -79.05759094 57.54139295 -81.25 67.3125 C-81.41048828 67.99119141 -81.57097656 68.66988281 -81.73632812 69.36914062 C-95.28712535 128.19810367 -92.1174502 199.48453209 -85.1875 259.125 C-85.04296387 260.3728125 -84.89842773 261.620625 -84.74951172 262.90625 C-82.46324515 281.37867622 -77.92283825 302.21115663 -62.59375 314.50390625 C-47.81134684 324.46283046 -31.60622881 327.45796108 -14.25 329.25 C-12.83517739 329.40656958 -11.42046315 329.56412166 -10.00585938 329.72265625 C12.06177845 332.15294463 34.20162084 333.70396698 56.375 334.75 C57.41011278 334.80016203 57.41011278 334.80016203 58.46613693 334.85133743 C82.46414503 336.00709334 106.44723841 336.224837 130.46875 336.17578125 C131.91172726 336.1732132 133.35470453 336.17065227 134.79768181 336.16809845 C148.63874898 336.14181175 162.47947595 336.09226127 176.32010829 335.97708422 C181.90257823 335.93109559 187.48503446 335.89777046 193.06763947 335.87326521 C196.34390429 335.8579777 199.61961333 335.83248483 202.89569092 335.79332924 C206.49643552 335.75045067 210.09655262 335.7317862 213.69750977 335.71850586 C214.75724786 335.6994198 215.81698595 335.68033375 216.90883732 335.66066933 C224.05748508 335.66914494 224.05748508 335.66914494 227.92124939 338.00196838 C230.88089126 341.32432727 231.8125 343.66997145 231.8125 348.125 C230.49885131 352.06594606 228.37367493 354.1434965 224.8125 356.125 C221.53835038 356.87281629 218.33821945 356.90820089 214.98876953 356.92700195 C214.02523623 356.95099469 213.06170292 356.97498743 212.06897163 356.99970722 C208.98328144 357.06816688 205.89882258 357.09974014 202.8125 357.125 C200.83461126 357.15259047 198.85672626 357.18045071 196.87884521 357.20858765 C190.58323708 357.28201742 184.28816353 357.29088089 177.9921875 357.29296875 C175.63713564 357.29620121 173.28208396 357.29956656 170.92703247 357.30305481 C166.0039219 357.30899967 161.08082874 357.31090012 156.15771484 357.31030273 C151.23124443 357.31022242 146.30486888 357.31701999 141.37841797 357.33081055 C115.08446582 357.40322544 88.83094816 357.23812545 62.5546875 356.19921875 C61.50149197 356.15760305 60.44829643 356.11598736 59.36318588 356.07311058 C-51.73208509 351.57386435 -51.73208509 351.57386435 -79.1875 328.125 C-79.85136719 327.57328125 -80.51523438 327.0215625 -81.19921875 326.453125 C-107.1961606 302.85140701 -107.28420229 259.46222522 -108.97186279 227.16230774 C-109.37898129 218.46714489 -109.37321849 209.76547735 -109.390625 201.0625 C-109.39345238 200.08333618 -109.39627975 199.10417236 -109.39919281 198.09533691 C-109.41407473 192.89216865 -109.42336803 187.68902722 -109.42773438 182.48583984 C-109.43207539 178.28815816 -109.44581173 174.09068708 -109.46875 169.89306641 C-109.58593454 147.96578117 -109.42121671 126.13012826 -107.859375 104.25 C-107.80089638 103.40924927 -107.74241776 102.56849854 -107.68216705 101.70227051 C-107.04090496 92.73896057 -106.10366943 83.86163627 -104.72363281 74.98046875 C-104.54718294 73.84238266 -104.54718294 73.84238266 -104.36716843 72.68130493 C-101.57737587 55.65769535 -95.84785002 39.1571559 -84.1875 26.125 C-83.53265625 25.37734375 -82.8778125 24.6296875 -82.203125 23.859375 C-67.48865655 8.07085776 -20.84964964 -12.26449979 0 0 Z " fill="#000000" transform="translate(109.1875,81.875)"/>
<path d="M0 0 C3.72274457 1.48909783 6.51158062 2.81320518 9.82421875 4.9140625 C10.75669434 5.50179443 11.68916992 6.08952637 12.64990234 6.69506836 C13.65230957 7.3319458 14.6547168 7.96882324 15.6875 8.625 C17.86016349 9.99430484 20.03335862 11.36276642 22.20703125 12.73046875 C23.04645264 13.25940483 23.04645264 13.25940483 23.90283203 13.79902649 C29.86739049 17.55436467 35.86889285 21.24904361 41.875 24.9375 C42.94484131 25.59516357 44.01468262 26.25282715 45.11694336 26.93041992 C49.56074287 29.66141161 54.00573107 32.39046029 58.45214844 35.1171875 C83.62508896 50.55460369 83.62508896 50.55460369 95 58 C91.65493657 60.76474331 88.26666329 63.17532568 84.5625 65.43359375 C83.51368652 66.07562744 82.46487305 66.71766113 81.38427734 67.37915039 C80.26746582 68.05840576 79.1506543 68.73766113 78 69.4375 C76.82609179 70.15512047 75.65242948 70.87314335 74.47900391 71.59155273 C72.10684547 73.04367183 69.73389639 74.49448418 67.36035156 75.94433594 C62.68914923 78.80190086 58.03013553 81.67885571 53.375 84.5625 C52.121427 85.33847534 52.121427 85.33847534 50.8425293 86.13012695 C44.15336564 90.27517338 37.48255735 94.44930293 30.8125 98.625 C23.41181804 103.25526804 16.00308504 107.87156638 8.5625 112.4375 C7.80493408 112.90430176 7.04736816 113.37110352 6.2668457 113.85205078 C1.118574 117 1.118574 117 0 117 C0 78.39 0 39.78 0 0 Z " fill="#FBFBFB" transform="translate(219,198)"/>
<path d="M0 0 C3.09251553 1.81517216 4.58688714 3.28644142 6.375 6.375 C7.18215425 9.76504786 7.10742882 11.67771355 6 15 C3.42748762 17.8862334 1.77159713 19.60208268 -2 20.44921875 C-5.69168785 20.65198191 -7.8309138 20.10792736 -10.9375 18.125 C-14.09695358 14.8698054 -14.33421243 12.57586762 -14.29296875 8.0390625 C-13.83745033 4.86865433 -12.24684343 3.1807598 -10 1 C-6.79139471 -0.60430264 -3.4809543 -0.48105318 0 0 Z " fill="#030000" transform="translate(374,416)"/>
<path d="M0 0 C2.87029869 1.79393668 4.49131638 2.98263276 6 6 C6.67660495 11.86390959 6.67660495 11.86390959 4.953125 14.7578125 C1.99435999 18.36054402 0.31048895 19.85164276 -4.3125 20.375 C-8 20 -8 20 -10.8125 17.9375 C-13.339561 14.54401808 -14.41127384 12.1946739 -15 8 C-12.22367346 0.25551017 -7.64290617 -1.12632301 0 0 Z " fill="#030000" transform="translate(146,77)"/>
</svg>
